%TF.GenerationSoftware,KiCad,Pcbnew,7.0.8*%
%TF.CreationDate,2024-07-02T17:24:08-04:00*%
%TF.ProjectId,motor-driver,6d6f746f-722d-4647-9269-7665722e6b69,rev?*%
%TF.SameCoordinates,Original*%
%TF.FileFunction,Paste,Top*%
%TF.FilePolarity,Positive*%
%FSLAX46Y46*%
G04 Gerber Fmt 4.6, Leading zero omitted, Abs format (unit mm)*
G04 Created by KiCad (PCBNEW 7.0.8) date 2024-07-02 17:24:08*
%MOMM*%
%LPD*%
G01*
G04 APERTURE LIST*
G04 Aperture macros list*
%AMRoundRect*
0 Rectangle with rounded corners*
0 $1 Rounding radius*
0 $2 $3 $4 $5 $6 $7 $8 $9 X,Y pos of 4 corners*
0 Add a 4 corners polygon primitive as box body*
4,1,4,$2,$3,$4,$5,$6,$7,$8,$9,$2,$3,0*
0 Add four circle primitives for the rounded corners*
1,1,$1+$1,$2,$3*
1,1,$1+$1,$4,$5*
1,1,$1+$1,$6,$7*
1,1,$1+$1,$8,$9*
0 Add four rect primitives between the rounded corners*
20,1,$1+$1,$2,$3,$4,$5,0*
20,1,$1+$1,$4,$5,$6,$7,0*
20,1,$1+$1,$6,$7,$8,$9,0*
20,1,$1+$1,$8,$9,$2,$3,0*%
G04 Aperture macros list end*
%ADD10RoundRect,0.140000X-0.170000X0.140000X-0.170000X-0.140000X0.170000X-0.140000X0.170000X0.140000X0*%
%ADD11RoundRect,0.140000X-0.140000X-0.170000X0.140000X-0.170000X0.140000X0.170000X-0.140000X0.170000X0*%
%ADD12RoundRect,0.175000X0.175000X1.325000X-0.175000X1.325000X-0.175000X-1.325000X0.175000X-1.325000X0*%
%ADD13RoundRect,0.097500X0.690000X0.097500X-0.690000X0.097500X-0.690000X-0.097500X0.690000X-0.097500X0*%
%ADD14RoundRect,0.140000X0.170000X-0.140000X0.170000X0.140000X-0.170000X0.140000X-0.170000X-0.140000X0*%
%ADD15RoundRect,0.250000X0.250000X0.475000X-0.250000X0.475000X-0.250000X-0.475000X0.250000X-0.475000X0*%
%ADD16RoundRect,0.135000X0.185000X-0.135000X0.185000X0.135000X-0.185000X0.135000X-0.185000X-0.135000X0*%
%ADD17RoundRect,0.150000X0.650000X0.150000X-0.650000X0.150000X-0.650000X-0.150000X0.650000X-0.150000X0*%
%ADD18R,1.200000X1.400000*%
%ADD19RoundRect,0.150000X-0.150000X0.512500X-0.150000X-0.512500X0.150000X-0.512500X0.150000X0.512500X0*%
%ADD20R,1.050000X0.650000*%
%ADD21RoundRect,0.140000X0.140000X0.170000X-0.140000X0.170000X-0.140000X-0.170000X0.140000X-0.170000X0*%
%ADD22RoundRect,0.135000X-0.135000X-0.185000X0.135000X-0.185000X0.135000X0.185000X-0.135000X0.185000X0*%
%ADD23RoundRect,0.135000X0.135000X0.185000X-0.135000X0.185000X-0.135000X-0.185000X0.135000X-0.185000X0*%
%ADD24RoundRect,0.243750X0.456250X-0.243750X0.456250X0.243750X-0.456250X0.243750X-0.456250X-0.243750X0*%
%ADD25O,0.890000X1.550000*%
%ADD26O,1.250000X0.950000*%
%ADD27R,0.400000X1.350000*%
%ADD28R,1.200000X1.550000*%
%ADD29R,1.500000X1.550000*%
%ADD30RoundRect,0.135000X-0.185000X0.135000X-0.185000X-0.135000X0.185000X-0.135000X0.185000X0.135000X0*%
%ADD31RoundRect,0.150000X0.150000X-0.512500X0.150000X0.512500X-0.150000X0.512500X-0.150000X-0.512500X0*%
%ADD32R,1.100000X1.100000*%
%ADD33RoundRect,0.150000X-0.512500X-0.150000X0.512500X-0.150000X0.512500X0.150000X-0.512500X0.150000X0*%
%ADD34R,1.100000X3.700000*%
%ADD35RoundRect,0.250000X-0.325000X-0.650000X0.325000X-0.650000X0.325000X0.650000X-0.325000X0.650000X0*%
%ADD36R,1.600000X0.850000*%
%ADD37R,0.900000X1.200000*%
%ADD38RoundRect,0.150000X0.150000X-0.825000X0.150000X0.825000X-0.150000X0.825000X-0.150000X-0.825000X0*%
%ADD39R,1.200000X0.900000*%
%ADD40RoundRect,0.250000X0.292217X0.292217X-0.292217X0.292217X-0.292217X-0.292217X0.292217X-0.292217X0*%
%ADD41RoundRect,0.050000X0.387500X0.050000X-0.387500X0.050000X-0.387500X-0.050000X0.387500X-0.050000X0*%
%ADD42RoundRect,0.050000X0.050000X0.387500X-0.050000X0.387500X-0.050000X-0.387500X0.050000X-0.387500X0*%
G04 APERTURE END LIST*
D10*
%TO.C,C9*%
X150762000Y-124995000D03*
X150762000Y-125955000D03*
%TD*%
D11*
%TO.C,C16*%
X154473000Y-121665000D03*
X155433000Y-121665000D03*
%TD*%
D12*
%TO.C,U1*%
X131500000Y-108500000D03*
X130500000Y-108500000D03*
D13*
X133862500Y-110775000D03*
X133862500Y-110125000D03*
X133862500Y-109475000D03*
X133862500Y-108825000D03*
X133862500Y-108175000D03*
X133862500Y-107525000D03*
X133862500Y-106875000D03*
X133862500Y-106225000D03*
X128137500Y-106225000D03*
X128137500Y-106875000D03*
X128137500Y-107525000D03*
X128137500Y-108175000D03*
X128137500Y-108825000D03*
X128137500Y-109475000D03*
X128137500Y-110125000D03*
X128137500Y-110775000D03*
%TD*%
D14*
%TO.C,C15*%
X155400000Y-116780000D03*
X155400000Y-115820000D03*
%TD*%
D15*
%TO.C,C3*%
X142441000Y-123951000D03*
X140541000Y-123951000D03*
%TD*%
D10*
%TO.C,C19*%
X143904000Y-114454000D03*
X143904000Y-115414000D03*
%TD*%
D16*
%TO.C,R8*%
X148730000Y-111634000D03*
X148730000Y-110614000D03*
%TD*%
D12*
%TO.C,U2*%
X169500000Y-108500000D03*
X168500000Y-108500000D03*
D13*
X171862500Y-110775000D03*
X171862500Y-110125000D03*
X171862500Y-109475000D03*
X171862500Y-108825000D03*
X171862500Y-108175000D03*
X171862500Y-107525000D03*
X171862500Y-106875000D03*
X171862500Y-106225000D03*
X166137500Y-106225000D03*
X166137500Y-106875000D03*
X166137500Y-107525000D03*
X166137500Y-108175000D03*
X166137500Y-108825000D03*
X166137500Y-109475000D03*
X166137500Y-110125000D03*
X166137500Y-110775000D03*
%TD*%
D17*
%TO.C,U6*%
X161982000Y-128015000D03*
X161982000Y-126745000D03*
X161982000Y-125475000D03*
X161982000Y-124205000D03*
X154782000Y-124205000D03*
X154782000Y-125475000D03*
X154782000Y-126745000D03*
X154782000Y-128015000D03*
%TD*%
D18*
%TO.C,Y1*%
X152833000Y-110409000D03*
X152833000Y-112609000D03*
X154533000Y-112609000D03*
X154533000Y-110409000D03*
%TD*%
D19*
%TO.C,U4*%
X142450000Y-126662500D03*
X141500000Y-126662500D03*
X140550000Y-126662500D03*
X140550000Y-128937500D03*
X142450000Y-128937500D03*
%TD*%
D20*
%TO.C,SW1*%
X157325000Y-109825000D03*
X161475000Y-109825000D03*
X157325000Y-111975000D03*
X161475000Y-111975000D03*
%TD*%
D21*
%TO.C,C13*%
X144765000Y-122200000D03*
X143805000Y-122200000D03*
%TD*%
D22*
%TO.C,R2*%
X158690000Y-129600000D03*
X159710000Y-129600000D03*
%TD*%
D14*
%TO.C,C20*%
X151143000Y-110461000D03*
X151143000Y-109501000D03*
%TD*%
%TO.C,C24*%
X126100000Y-110530000D03*
X126100000Y-109570000D03*
%TD*%
D23*
%TO.C,R17*%
X176360000Y-106325000D03*
X175340000Y-106325000D03*
%TD*%
D14*
%TO.C,C21*%
X156000000Y-111819000D03*
X156000000Y-110859000D03*
%TD*%
D10*
%TO.C,C17*%
X149746000Y-124995000D03*
X149746000Y-125955000D03*
%TD*%
D23*
%TO.C,R15*%
X175510000Y-108800000D03*
X174490000Y-108800000D03*
%TD*%
%TO.C,R12*%
X159910000Y-104600000D03*
X158890000Y-104600000D03*
%TD*%
D24*
%TO.C,D1*%
X138400000Y-124937500D03*
X138400000Y-123062500D03*
%TD*%
D21*
%TO.C,C18*%
X153020005Y-128040409D03*
X152060005Y-128040409D03*
%TD*%
D10*
%TO.C,C5*%
X146698000Y-123852000D03*
X146698000Y-124812000D03*
%TD*%
D14*
%TO.C,C10*%
X148857000Y-113636000D03*
X148857000Y-112676000D03*
%TD*%
D21*
%TO.C,C26*%
X163980000Y-110900000D03*
X163020000Y-110900000D03*
%TD*%
D23*
%TO.C,R9*%
X137310000Y-108900000D03*
X136290000Y-108900000D03*
%TD*%
D10*
%TO.C,C14*%
X144666000Y-123852000D03*
X144666000Y-124812000D03*
%TD*%
D25*
%TO.C,J14*%
X146500000Y-133633000D03*
D26*
X147500000Y-130933000D03*
X152500000Y-130933000D03*
D25*
X153500000Y-133633000D03*
D27*
X148700000Y-130933000D03*
X149350000Y-130933000D03*
X150000000Y-130933000D03*
X150650000Y-130933000D03*
X151300000Y-130933000D03*
D28*
X147100000Y-133633000D03*
D29*
X149000000Y-133633000D03*
X151000000Y-133633000D03*
D28*
X152900000Y-133633000D03*
%TD*%
D14*
%TO.C,C11*%
X149873000Y-113636000D03*
X149873000Y-112676000D03*
%TD*%
D16*
%TO.C,R6*%
X147714000Y-124842000D03*
X147714000Y-123822000D03*
%TD*%
D30*
%TO.C,R13*%
X140600000Y-107690000D03*
X140600000Y-108710000D03*
%TD*%
D22*
%TO.C,R3*%
X156490000Y-129600000D03*
X157510000Y-129600000D03*
%TD*%
D31*
%TO.C,U3*%
X144986000Y-113023500D03*
X145936000Y-113023500D03*
X146886000Y-113023500D03*
X146886000Y-110748500D03*
X145936000Y-110748500D03*
X144986000Y-110748500D03*
%TD*%
D23*
%TO.C,R16*%
X165010000Y-128500000D03*
X163990000Y-128500000D03*
%TD*%
D21*
%TO.C,C12*%
X144080000Y-117500000D03*
X143120000Y-117500000D03*
%TD*%
D10*
%TO.C,C25*%
X126100000Y-107570000D03*
X126100000Y-108530000D03*
%TD*%
D22*
%TO.C,R1*%
X137677000Y-126364000D03*
X138697000Y-126364000D03*
%TD*%
D32*
%TO.C,D6*%
X153800000Y-99400000D03*
X151000000Y-99400000D03*
%TD*%
D16*
%TO.C,R5*%
X148730000Y-124842000D03*
X148730000Y-123822000D03*
%TD*%
D22*
%TO.C,R7*%
X158126000Y-113410000D03*
X159146000Y-113410000D03*
%TD*%
D33*
%TO.C,U7*%
X160462500Y-120050000D03*
X160462500Y-121000000D03*
X160462500Y-121950000D03*
X162737500Y-121950000D03*
X162737500Y-120050000D03*
%TD*%
D34*
%TO.C,L1*%
X142610000Y-113918000D03*
X139610000Y-113918000D03*
%TD*%
D16*
%TO.C,R10*%
X139000000Y-108710000D03*
X139000000Y-107690000D03*
%TD*%
D11*
%TO.C,C7*%
X162920000Y-109600000D03*
X163880000Y-109600000D03*
%TD*%
D35*
%TO.C,C4*%
X145223000Y-108584000D03*
X148173000Y-108584000D03*
%TD*%
D36*
%TO.C,D3*%
X162350000Y-117675000D03*
X162350000Y-115925000D03*
X158850000Y-115925000D03*
X158850000Y-117675000D03*
%TD*%
D37*
%TO.C,D5*%
X158764000Y-106552000D03*
X162064000Y-106552000D03*
%TD*%
D38*
%TO.C,Q1*%
X144795000Y-104455000D03*
X146065000Y-104455000D03*
X147335000Y-104455000D03*
X148605000Y-104455000D03*
X148605000Y-99505000D03*
X147335000Y-99505000D03*
X146065000Y-99505000D03*
X144795000Y-99505000D03*
%TD*%
D39*
%TO.C,D2*%
X142888000Y-110742000D03*
X142888000Y-107442000D03*
%TD*%
D10*
%TO.C,C6*%
X145682000Y-123852000D03*
X145682000Y-124812000D03*
%TD*%
D15*
%TO.C,C22*%
X140856000Y-110362000D03*
X138956000Y-110362000D03*
%TD*%
D30*
%TO.C,R11*%
X149746000Y-110614000D03*
X149746000Y-111634000D03*
%TD*%
D23*
%TO.C,R14*%
X136610000Y-107000000D03*
X135590000Y-107000000D03*
%TD*%
D16*
%TO.C,R4*%
X151143000Y-112777000D03*
X151143000Y-111757000D03*
%TD*%
D15*
%TO.C,C2*%
X142441000Y-131317000D03*
X140541000Y-131317000D03*
%TD*%
D40*
%TO.C,U5*%
X150383500Y-119381500D03*
X150383500Y-118106500D03*
X149108500Y-119381500D03*
X149108500Y-118106500D03*
D41*
X153183500Y-121344000D03*
X153183500Y-120944000D03*
X153183500Y-120544000D03*
X153183500Y-120144000D03*
X153183500Y-119744000D03*
X153183500Y-119344000D03*
X153183500Y-118944000D03*
X153183500Y-118544000D03*
X153183500Y-118144000D03*
X153183500Y-117744000D03*
X153183500Y-117344000D03*
X153183500Y-116944000D03*
X153183500Y-116544000D03*
X153183500Y-116144000D03*
D42*
X152346000Y-115306500D03*
X151946000Y-115306500D03*
X151546000Y-115306500D03*
X151146000Y-115306500D03*
X150746000Y-115306500D03*
X150346000Y-115306500D03*
X149946000Y-115306500D03*
X149546000Y-115306500D03*
X149146000Y-115306500D03*
X148746000Y-115306500D03*
X148346000Y-115306500D03*
X147946000Y-115306500D03*
X147546000Y-115306500D03*
X147146000Y-115306500D03*
D41*
X146308500Y-116144000D03*
X146308500Y-116544000D03*
X146308500Y-116944000D03*
X146308500Y-117344000D03*
X146308500Y-117744000D03*
X146308500Y-118144000D03*
X146308500Y-118544000D03*
X146308500Y-118944000D03*
X146308500Y-119344000D03*
X146308500Y-119744000D03*
X146308500Y-120144000D03*
X146308500Y-120544000D03*
X146308500Y-120944000D03*
X146308500Y-121344000D03*
D42*
X147146000Y-122181500D03*
X147546000Y-122181500D03*
X147946000Y-122181500D03*
X148346000Y-122181500D03*
X148746000Y-122181500D03*
X149146000Y-122181500D03*
X149546000Y-122181500D03*
X149946000Y-122181500D03*
X150346000Y-122181500D03*
X150746000Y-122181500D03*
X151146000Y-122181500D03*
X151546000Y-122181500D03*
X151946000Y-122181500D03*
X152346000Y-122181500D03*
%TD*%
M02*
