M48
; DRILL file {KiCad 7.0.8} date 2024 July 05, Friday 14:08:20
; FORMAT={-:-/ absolute / inch / decimal}
; #@! TF.CreationDate,2024-07-05T14:08:20-04:00
; #@! TF.GenerationSoftware,Kicad,Pcbnew,7.0.8
; #@! TF.FileFunction,Plated,1,4,PTH
FMAT,2
INCH
; #@! TA.AperFunction,Plated,PTH,ComponentDrill
T1C0.0118
; #@! TA.AperFunction,Plated,PTH,ViaDrill
T2C0.0157
; #@! TA.AperFunction,Plated,PTH,ComponentDrill
T3C0.0197
; #@! TA.AperFunction,Plated,PTH,ComponentDrill
T4C0.0217
; #@! TA.AperFunction,Plated,PTH,ComponentDrill
T5C0.0295
; #@! TA.AperFunction,Plated,PTH,ComponentDrill
T6C0.0315
; #@! TA.AperFunction,Plated,PTH,ComponentDrill
T7C0.0394
; #@! TA.AperFunction,Plated,PTH,ComponentDrill
T8C0.0512
; #@! TA.AperFunction,Plated,PTH,ComponentDrill
T9C0.0630
; #@! TA.AperFunction,Plated,PTH,ComponentDrill
T10C0.0709
; #@! TA.AperFunction,Plated,PTH,ComponentDrill
T11C0.1260
%
G90
G05
T1
X5.1181Y-4.2008
X5.1181Y-4.248
X5.1181Y-4.2953
X5.1181Y-4.3425
X5.1575Y-4.2008
X5.1575Y-4.248
X5.1575Y-4.2953
X5.1575Y-4.3425
X5.1969Y-4.2008
X5.1969Y-4.248
X5.1969Y-4.2953
X5.1969Y-4.3425
X5.8453Y-4.6248
X5.8453Y-4.675
X5.8453Y-4.7252
X5.8955Y-4.6248
X5.8955Y-4.675
X5.8955Y-4.7252
X5.9457Y-4.6248
X5.9457Y-4.675
X5.9457Y-4.7252
X6.6142Y-4.2008
X6.6142Y-4.248
X6.6142Y-4.2953
X6.6142Y-4.3425
X6.6535Y-4.2008
X6.6535Y-4.248
X6.6535Y-4.2953
X6.6535Y-4.3425
X6.6929Y-4.2008
X6.6929Y-4.248
X6.6929Y-4.2953
X6.6929Y-4.3425
T2
X4.7953Y-4.2343
X4.8189Y-4.2618
X4.8386Y-4.2343
X4.8583Y-4.2618
X4.8819Y-4.2343
X4.9016Y-4.2618
X4.9055Y-4.515
X4.9055Y-4.615
X4.9055Y-4.715
X4.9055Y-4.815
X4.9055Y-4.915
X5.0055Y-4.515
X5.0055Y-4.615
X5.0055Y-4.715
X5.0055Y-4.815
X5.0055Y-4.915
X5.1055Y-4.515
X5.1055Y-4.615
X5.1055Y-4.715
X5.1055Y-4.815
X5.1055Y-4.915
X5.2055Y-4.515
X5.2055Y-4.615
X5.2055Y-4.715
X5.2055Y-4.815
X5.2055Y-4.915
X5.3055Y-4.515
X5.3055Y-4.615
X5.3055Y-4.715
X5.3055Y-4.815
X5.3055Y-4.915
X5.3701Y-5.0236
X5.4024Y-4.2126
X5.4134Y-4.0197
X5.4608Y-4.677
X5.5472Y-4.4331
X5.5472Y-4.4764
X5.5472Y-4.5157
X5.5839Y-4.6339
X5.6043Y-4.0965
X5.6063Y-4.5814
X5.622Y-4.685
X5.6496Y-4.2677
X5.6496Y-4.3071
X5.6496Y-4.3465
X5.6564Y-4.6598
X5.6616Y-4.9134
X5.6929Y-4.5512
X5.7045Y-4.6204
X5.7194Y-4.7643
X5.7205Y-4.8425
X5.7244Y-4.0394
X5.7441Y-4.5157
X5.7505Y-4.825
X5.7756Y-4.0394
X5.811Y-4.7598
X5.8248Y-4.4961
X5.8255Y-4.1921
X5.8375Y-4.3976
X5.8701Y-4.1929
X5.8819Y-4.7717
X5.9005Y-4.585
X5.9094Y-4.8858
X6.0591Y-4.7953
X6.1063Y-4.6378
X6.1378Y-4.4646
X6.1417Y-4.3248
X6.1496Y-4.6566
X6.1505Y-4.7883
X6.1575Y-4.5827
X6.185Y-4.5538
X6.1855Y-4.465
X6.1855Y-5.04
X6.197Y-4.6695
X6.2047Y-4.7602
X6.2486Y-4.6935
X6.3105Y-4.88
X6.3271Y-4.4964
X6.3701Y-4.4961
X6.3858Y-4.7559
X6.4016Y-4.2677
X6.4409Y-4.2677
X6.4961Y-4.9685
X6.5055Y-4.515
X6.5055Y-4.615
X6.5055Y-4.715
X6.5055Y-4.815
X6.6055Y-4.515
X6.6055Y-4.615
X6.6055Y-4.715
X6.6055Y-4.815
X6.6055Y-4.915
X6.7055Y-4.515
X6.7055Y-4.615
X6.7055Y-4.715
X6.7055Y-4.815
X6.7055Y-4.915
X6.8055Y-4.515
X6.8055Y-4.615
X6.8055Y-4.715
X6.8055Y-4.815
X6.8055Y-4.915
X6.8228Y-4.3112
X6.8661Y-4.374
X6.8937Y-4.3268
X6.9055Y-4.515
X6.9055Y-4.615
X6.9055Y-4.715
X6.9055Y-4.815
X6.9055Y-4.915
X6.9724Y-4.2441
X6.9803Y-4.185
X7.0079Y-4.2854
X7.0217Y-4.1476
T3
X4.7677Y-3.4843
X4.7677Y-5.1772
X4.7954Y-3.4174
X4.7954Y-3.5511
X4.7954Y-5.1104
X4.7954Y-5.244
X4.8622Y-3.3898
X4.8622Y-3.5787
X4.8622Y-5.0827
X4.8622Y-5.2717
X4.929Y-3.4174
X4.929Y-3.5511
X4.929Y-5.1104
X4.929Y-5.244
X4.9567Y-3.4843
X4.9567Y-5.1772
X6.8543Y-3.4843
X6.8543Y-5.1772
X6.882Y-3.4174
X6.882Y-3.5511
X6.882Y-5.1104
X6.882Y-5.244
X6.9488Y-3.3898
X6.9488Y-3.5787
X6.9488Y-5.0827
X6.9488Y-5.2717
X7.0156Y-3.4174
X7.0156Y-3.5511
X7.0156Y-5.1104
X7.0156Y-5.244
X7.0433Y-3.4843
X7.0433Y-5.1772
T5
X4.8209Y-3.7402
X4.8209Y-3.8189
X4.8209Y-3.8976
X4.8209Y-3.9764
X5.1378Y-5.1772
X5.2165Y-5.1772
X5.2953Y-5.1772
X5.374Y-5.1772
X6.437Y-5.1772
X6.5157Y-5.1772
X6.5945Y-5.1772
X6.6732Y-5.1772
X6.9823Y-3.7205
X6.9823Y-3.7992
X6.9823Y-3.878
X6.9823Y-3.9567
T6
X6.0551Y-4.0611
X6.0551Y-4.1989
T7
X5.0555Y-3.937
X5.1555Y-3.937
X5.2555Y-3.937
X5.3555Y-3.937
X5.4555Y-3.937
X5.5555Y-3.937
X6.1998Y-5.252
X6.2555Y-3.937
X6.3555Y-3.937
X6.4555Y-3.937
X6.5555Y-3.937
X6.6555Y-3.937
X6.7555Y-3.937
T8
X5.1575Y-3.6614
X5.3543Y-3.6614
X5.8071Y-3.6614
X6.0039Y-3.6614
X6.4567Y-3.6614
X6.6535Y-3.6614
T9
X5.187Y-3.5433
X5.3429Y-3.5433
X6.4764Y-3.5433
X6.6323Y-3.5433
T10
X5.8071Y-3.5433
X6.0039Y-3.5433
T11
X4.8622Y-3.4843
X4.8622Y-3.4843
X4.8622Y-5.1772
X4.8622Y-5.1772
X6.9488Y-3.4843
X6.9488Y-3.4843
X6.9488Y-5.1772
X6.9488Y-5.1772
T3
G00X5.7677Y-5.2483
M15
G01X5.7677Y-5.2739
M16
G05
G00X6.0433Y-5.2483
M15
G01X6.0433Y-5.2739
M16
G05
T4
G00X5.8012Y-5.1548
M15
G01X5.813Y-5.1548
M16
G05
G00X5.998Y-5.1548
M15
G01X6.0098Y-5.1548
M16
G05
T0
M30
