%TF.GenerationSoftware,KiCad,Pcbnew,7.0.8*%
%TF.CreationDate,2024-07-02T10:47:19-04:00*%
%TF.ProjectId,motor-driver,6d6f746f-722d-4647-9269-7665722e6b69,rev?*%
%TF.SameCoordinates,Original*%
%TF.FileFunction,Copper,L3,Inr*%
%TF.FilePolarity,Positive*%
%FSLAX46Y46*%
G04 Gerber Fmt 4.6, Leading zero omitted, Abs format (unit mm)*
G04 Created by KiCad (PCBNEW 7.0.8) date 2024-07-02 10:47:19*
%MOMM*%
%LPD*%
G01*
G04 APERTURE LIST*
G04 Aperture macros list*
%AMRoundRect*
0 Rectangle with rounded corners*
0 $1 Rounding radius*
0 $2 $3 $4 $5 $6 $7 $8 $9 X,Y pos of 4 corners*
0 Add a 4 corners polygon primitive as box body*
4,1,4,$2,$3,$4,$5,$6,$7,$8,$9,$2,$3,0*
0 Add four circle primitives for the rounded corners*
1,1,$1+$1,$2,$3*
1,1,$1+$1,$4,$5*
1,1,$1+$1,$6,$7*
1,1,$1+$1,$8,$9*
0 Add four rect primitives between the rounded corners*
20,1,$1+$1,$2,$3,$4,$5,0*
20,1,$1+$1,$4,$5,$6,$7,0*
20,1,$1+$1,$6,$7,$8,$9,0*
20,1,$1+$1,$8,$9,$2,$3,0*%
G04 Aperture macros list end*
%TA.AperFunction,ComponentPad*%
%ADD10C,0.500000*%
%TD*%
%TA.AperFunction,ComponentPad*%
%ADD11RoundRect,0.250000X-0.625000X0.350000X-0.625000X-0.350000X0.625000X-0.350000X0.625000X0.350000X0*%
%TD*%
%TA.AperFunction,ComponentPad*%
%ADD12O,1.750000X1.200000*%
%TD*%
%TA.AperFunction,ComponentPad*%
%ADD13C,0.800000*%
%TD*%
%TA.AperFunction,ComponentPad*%
%ADD14C,6.400000*%
%TD*%
%TA.AperFunction,ComponentPad*%
%ADD15RoundRect,0.250000X-0.350000X-0.625000X0.350000X-0.625000X0.350000X0.625000X-0.350000X0.625000X0*%
%TD*%
%TA.AperFunction,ComponentPad*%
%ADD16O,1.200000X1.750000*%
%TD*%
%TA.AperFunction,ComponentPad*%
%ADD17R,3.000000X3.000000*%
%TD*%
%TA.AperFunction,ComponentPad*%
%ADD18C,3.000000*%
%TD*%
%TA.AperFunction,ComponentPad*%
%ADD19R,1.700000X1.700000*%
%TD*%
%TA.AperFunction,ComponentPad*%
%ADD20O,1.700000X1.700000*%
%TD*%
%TA.AperFunction,ComponentPad*%
%ADD21RoundRect,0.250001X-1.099999X-1.099999X1.099999X-1.099999X1.099999X1.099999X-1.099999X1.099999X0*%
%TD*%
%TA.AperFunction,ComponentPad*%
%ADD22C,2.700000*%
%TD*%
%TA.AperFunction,ComponentPad*%
%ADD23O,0.890000X1.550000*%
%TD*%
%TA.AperFunction,ComponentPad*%
%ADD24O,1.250000X0.950000*%
%TD*%
%TA.AperFunction,ComponentPad*%
%ADD25R,2.600000X2.600000*%
%TD*%
%TA.AperFunction,ComponentPad*%
%ADD26C,2.600000*%
%TD*%
%TA.AperFunction,ComponentPad*%
%ADD27R,1.600000X1.600000*%
%TD*%
%TA.AperFunction,ComponentPad*%
%ADD28C,1.600000*%
%TD*%
%TA.AperFunction,ComponentPad*%
%ADD29RoundRect,0.250000X0.625000X-0.350000X0.625000X0.350000X-0.625000X0.350000X-0.625000X-0.350000X0*%
%TD*%
%TA.AperFunction,ComponentPad*%
%ADD30C,0.600000*%
%TD*%
%TA.AperFunction,ViaPad*%
%ADD31C,0.800000*%
%TD*%
%TA.AperFunction,Conductor*%
%ADD32C,1.524000*%
%TD*%
%TA.AperFunction,Conductor*%
%ADD33C,0.304800*%
%TD*%
%TA.AperFunction,Conductor*%
%ADD34C,0.203200*%
%TD*%
%TA.AperFunction,Conductor*%
%ADD35C,0.508000*%
%TD*%
G04 APERTURE END LIST*
D10*
%TO.N,GND*%
%TO.C,U1*%
X132000000Y-110300000D03*
X132000000Y-109100000D03*
X132000000Y-107900000D03*
X132000000Y-106700000D03*
X131000000Y-110300000D03*
X131000000Y-109100000D03*
X131000000Y-107900000D03*
X131000000Y-106700000D03*
X130000000Y-110300000D03*
X130000000Y-109100000D03*
X130000000Y-107900000D03*
X130000000Y-106700000D03*
%TD*%
D11*
%TO.N,/ENC2_B*%
%TO.C,J9*%
X177350000Y-94500000D03*
D12*
%TO.N,/ENC2_A*%
X177350000Y-96500000D03*
%TO.N,+3V3*%
X177350000Y-98500000D03*
%TO.N,GND*%
X177350000Y-100500000D03*
%TD*%
D13*
%TO.N,GND*%
%TO.C,REF\u002A\u002A*%
X174100000Y-131500000D03*
X174802944Y-129802944D03*
X174802944Y-133197056D03*
X176500000Y-129100000D03*
D14*
X176500000Y-131500000D03*
X176500000Y-131500000D03*
D13*
X176500000Y-133900000D03*
X178197056Y-129802944D03*
X178197056Y-133197056D03*
X178900000Y-131500000D03*
%TD*%
D10*
%TO.N,GND*%
%TO.C,U2*%
X170000000Y-110300000D03*
X170000000Y-109100000D03*
X170000000Y-107900000D03*
X170000000Y-106700000D03*
X169000000Y-110300000D03*
X169000000Y-109100000D03*
X169000000Y-107900000D03*
X169000000Y-106700000D03*
X168000000Y-110300000D03*
X168000000Y-109100000D03*
X168000000Y-107900000D03*
X168000000Y-106700000D03*
%TD*%
D15*
%TO.N,/TX_BUFFERED*%
%TO.C,J6*%
X163500000Y-131500000D03*
D16*
%TO.N,/RX*%
X165500000Y-131500000D03*
%TO.N,Net-(J6-Pin_3)*%
X167500000Y-131500000D03*
%TO.N,GND*%
X169500000Y-131500000D03*
%TD*%
D17*
%TO.N,GND*%
%TO.C,J12*%
X152500000Y-90000000D03*
D18*
%TO.N,VBUS*%
X147500000Y-90000000D03*
%TD*%
D13*
%TO.N,GND*%
%TO.C,REF\u002A\u002A*%
X174100000Y-88500000D03*
X174802944Y-86802944D03*
X174802944Y-90197056D03*
X176500000Y-86100000D03*
D14*
X176500000Y-88500000D03*
X176500000Y-88500000D03*
D13*
X176500000Y-90900000D03*
X178197056Y-86802944D03*
X178197056Y-90197056D03*
X178900000Y-88500000D03*
%TD*%
D19*
%TO.N,/M1B*%
%TO.C,J4*%
X128410000Y-100000000D03*
D20*
%TO.N,/ENC1_A*%
X130950000Y-100000000D03*
%TO.N,GND*%
X133490000Y-100000000D03*
%TO.N,+3V3*%
X136030000Y-100000000D03*
%TO.N,/ENC1_B*%
X138570000Y-100000000D03*
%TO.N,/M1A*%
X141110000Y-100000000D03*
%TD*%
D19*
%TO.N,/M2B*%
%TO.C,J5*%
X158890000Y-100000000D03*
D20*
%TO.N,/ENC2_A*%
X161430000Y-100000000D03*
%TO.N,GND*%
X163970000Y-100000000D03*
%TO.N,+3V3*%
X166510000Y-100000000D03*
%TO.N,/ENC2_B*%
X169050000Y-100000000D03*
%TO.N,/M2A*%
X171590000Y-100000000D03*
%TD*%
D21*
%TO.N,/M2B*%
%TO.C,J11*%
X164500000Y-90000000D03*
D22*
%TO.N,/M2A*%
X168460000Y-90000000D03*
%TD*%
D23*
%TO.N,GND*%
%TO.C,J14*%
X146500000Y-133633000D03*
D24*
X147500000Y-130933000D03*
X152500000Y-130933000D03*
D23*
X153500000Y-133633000D03*
%TD*%
D13*
%TO.N,GND*%
%TO.C,REF\u002A\u002A*%
X121100000Y-131500000D03*
X121802944Y-129802944D03*
X121802944Y-133197056D03*
X123500000Y-129100000D03*
D14*
X123500000Y-131500000D03*
X123500000Y-131500000D03*
D13*
X123500000Y-133900000D03*
X125197056Y-129802944D03*
X125197056Y-133197056D03*
X125900000Y-131500000D03*
%TD*%
D25*
%TO.N,GND*%
%TO.C,J3*%
X152500000Y-93000000D03*
D26*
%TO.N,VBUS*%
X147500000Y-93000000D03*
%TD*%
D19*
%TO.N,/~{USB_BOOT}*%
%TO.C,J13*%
X157475000Y-133400000D03*
%TD*%
D25*
%TO.N,/M2A*%
%TO.C,J2*%
X169000000Y-93000000D03*
D26*
%TO.N,/M2B*%
X164000000Y-93000000D03*
%TD*%
D21*
%TO.N,/M1B*%
%TO.C,J10*%
X131750000Y-90000000D03*
D22*
%TO.N,/M1A*%
X135710000Y-90000000D03*
%TD*%
D13*
%TO.N,GND*%
%TO.C,REF\u002A\u002A*%
X121100000Y-88500000D03*
X121802944Y-86802944D03*
X121802944Y-90197056D03*
X123500000Y-86100000D03*
D14*
X123500000Y-88500000D03*
X123500000Y-88500000D03*
D13*
X123500000Y-90900000D03*
X125197056Y-86802944D03*
X125197056Y-90197056D03*
X125900000Y-88500000D03*
%TD*%
D25*
%TO.N,/M1A*%
%TO.C,J1*%
X136000000Y-93000008D03*
D26*
%TO.N,/M1B*%
X131000000Y-93000008D03*
%TD*%
D27*
%TO.N,VCC*%
%TO.C,C1*%
X153800000Y-106652651D03*
D28*
%TO.N,GND*%
X153800000Y-103152651D03*
%TD*%
D15*
%TO.N,/TX_BUFFERED*%
%TO.C,J7*%
X130500000Y-131500000D03*
D16*
%TO.N,/RX*%
X132500000Y-131500000D03*
%TO.N,Net-(J7-Pin_3)*%
X134500000Y-131500000D03*
%TO.N,GND*%
X136500000Y-131500000D03*
%TD*%
D29*
%TO.N,/ENC1_B*%
%TO.C,J8*%
X122450000Y-101000000D03*
D12*
%TO.N,/ENC1_A*%
X122450000Y-99000000D03*
%TO.N,+3V3*%
X122450000Y-97000000D03*
%TO.N,GND*%
X122450000Y-95000000D03*
%TD*%
D30*
%TO.N,GND*%
%TO.C,U5*%
X151021000Y-120019000D03*
X151021000Y-118744000D03*
X151021000Y-117469000D03*
X149746000Y-120019000D03*
X149746000Y-118744000D03*
X149746000Y-117469000D03*
X148471000Y-120019000D03*
X148471000Y-118744000D03*
X148471000Y-117469000D03*
%TD*%
D31*
%TO.N,+3V3*%
X156400000Y-116400000D03*
%TO.N,GND*%
X129680000Y-124840000D03*
X134760000Y-119760000D03*
X127140000Y-117220000D03*
X172860000Y-122300000D03*
X124600000Y-114680000D03*
X129680000Y-114680000D03*
X124600000Y-119760000D03*
X127140000Y-124840000D03*
X167780000Y-117220000D03*
X142195300Y-117610200D03*
X134760000Y-124840000D03*
X175400000Y-117220000D03*
X175400000Y-119760000D03*
X141500000Y-128000000D03*
X172860000Y-114680000D03*
X143805000Y-124487000D03*
X132220000Y-114680000D03*
X132220000Y-122300000D03*
X170320000Y-122300000D03*
X167780000Y-119760000D03*
X172860000Y-119760000D03*
X160287000Y-123951000D03*
X170320000Y-114680000D03*
X157100000Y-115666200D03*
X165240000Y-119760000D03*
X167780000Y-122300000D03*
X127140000Y-119760000D03*
X165240000Y-122300000D03*
X167780000Y-114680000D03*
X175400000Y-114680000D03*
X170320000Y-119760000D03*
X124600000Y-122300000D03*
X124600000Y-117220000D03*
X124600000Y-124840000D03*
X156223000Y-121622700D03*
X172860000Y-117220000D03*
X170320000Y-117220000D03*
X127140000Y-122300000D03*
X156000000Y-109850000D03*
X165240000Y-117220000D03*
X127140000Y-114680000D03*
X132220000Y-124840000D03*
X175400000Y-122300000D03*
X144800000Y-115000000D03*
X129680000Y-117220000D03*
X165240000Y-114680000D03*
X170320000Y-124840000D03*
X167780000Y-124840000D03*
X132220000Y-119760000D03*
X134760000Y-114680000D03*
X134760000Y-122300000D03*
X129680000Y-119760000D03*
X142253000Y-108965000D03*
X175400000Y-124840000D03*
X129680000Y-122300000D03*
X132220000Y-117220000D03*
X134760000Y-117220000D03*
X172860000Y-124840000D03*
%TO.N,VCC*%
X146952000Y-106480000D03*
X147968000Y-106480000D03*
X144666000Y-106480000D03*
X124500000Y-108250000D03*
X122900000Y-107550000D03*
X122400000Y-108250000D03*
X124000000Y-107550000D03*
X123400000Y-108250000D03*
X121800000Y-107550000D03*
X163600000Y-108400000D03*
X145682000Y-106480000D03*
X162600000Y-108400000D03*
%TO.N,+3V3*%
X162200000Y-120800000D03*
X146063000Y-122554000D03*
X145166301Y-117612511D03*
X178000000Y-108850000D03*
X157112000Y-113410000D03*
X149873000Y-116458000D03*
X157112000Y-128015000D03*
X138000000Y-109000000D03*
X144793000Y-122554000D03*
X142441000Y-129920000D03*
X165000000Y-126200000D03*
X152032000Y-120776000D03*
%TO.N,/M2_DIR*%
X175100000Y-109900000D03*
X157403427Y-118605405D03*
%TO.N,/M2_PWM*%
X174400000Y-111100000D03*
X161800000Y-114200000D03*
%TO.N,/ENC1_A*%
X143518055Y-116277800D03*
%TO.N,/ENC1_B*%
X145987253Y-114985253D03*
%TO.N,/ENC2_B*%
X156200000Y-118277800D03*
%TO.N,/ENC2_A*%
X155100000Y-117800000D03*
%TO.N,/M2_FLAG*%
X177100000Y-107800000D03*
X158714880Y-119214880D03*
%TO.N,/RUN*%
X155900000Y-113400000D03*
X147950000Y-114200000D03*
%TO.N,/M2_ENABLE*%
X173300000Y-109503900D03*
X160708943Y-114208943D03*
%TO.N,+5V*%
X141364000Y-125221000D03*
X149746000Y-109700000D03*
X141000000Y-115300000D03*
%TO.N,/VREF*%
X142350000Y-104050000D03*
X178350000Y-105350000D03*
%TO.N,/RX*%
X157600000Y-120909200D03*
%TO.N,Net-(JP3-B)*%
X142800000Y-118700000D03*
%TO.N,Net-(JP4-B)*%
X144000000Y-118655600D03*
%TD*%
D32*
%TO.N,GND*%
X152500000Y-90000000D02*
X152500000Y-93000000D01*
D33*
%TO.N,+3V3*%
X177350000Y-98500000D02*
X179225000Y-100375000D01*
X168010000Y-98500000D02*
X177350000Y-98500000D01*
X122450000Y-97000000D02*
X133030000Y-97000000D01*
X121000000Y-98450000D02*
X121000000Y-114000000D01*
X179225000Y-100375000D02*
X179225000Y-107625000D01*
X122450000Y-97000000D02*
X121000000Y-98450000D01*
X179225000Y-107625000D02*
X178000000Y-108850000D01*
X178000000Y-108850000D02*
X178000000Y-117000000D01*
X133030000Y-97000000D02*
X136030000Y-100000000D01*
X166510000Y-100000000D02*
X168010000Y-98500000D01*
D34*
X138000000Y-109000000D02*
X138000000Y-110400000D01*
X138400000Y-110800000D02*
X138400000Y-114200000D01*
X138000000Y-110400000D02*
X138400000Y-110800000D01*
D32*
%TO.N,/M1A*%
X141110000Y-98110008D02*
X141110000Y-100000000D01*
X136000000Y-93000008D02*
X141110000Y-98110008D01*
X135710000Y-90000000D02*
X135710000Y-92710008D01*
%TO.N,/M1B*%
X131750000Y-92250008D02*
X131000000Y-93000008D01*
X131750000Y-90000000D02*
X131750000Y-92250008D01*
%TO.N,/M2A*%
X168460000Y-92460000D02*
X169000000Y-93000000D01*
X168460000Y-90000000D02*
X168460000Y-92460000D01*
%TO.N,/M2B*%
X158890000Y-98110000D02*
X158890000Y-100000000D01*
X164000000Y-93000000D02*
X158890000Y-98110000D01*
D34*
%TO.N,/ENC1_A*%
X122450000Y-99000000D02*
X124400000Y-99000000D01*
X130400000Y-98400000D02*
X130950000Y-98950000D01*
X124400000Y-99000000D02*
X125000000Y-98400000D01*
X130950000Y-98950000D02*
X130950000Y-100000000D01*
X125000000Y-98400000D02*
X130400000Y-98400000D01*
%TO.N,/ENC1_B*%
X124500000Y-101000000D02*
X125100000Y-101600000D01*
X122450000Y-101000000D02*
X124500000Y-101000000D01*
X137400000Y-101600000D02*
X138570000Y-100430000D01*
X125100000Y-101600000D02*
X137400000Y-101600000D01*
%TO.N,/ENC2_A*%
X164930000Y-96500000D02*
X177350000Y-96500000D01*
X161430000Y-100000000D02*
X164930000Y-96500000D01*
D32*
%TO.N,VBUS*%
X147500000Y-90000000D02*
X147500000Y-93000000D01*
D34*
%TO.N,+5V*%
X142268000Y-115300000D02*
X147868000Y-109700000D01*
X141000000Y-115300000D02*
X142268000Y-115300000D01*
X147868000Y-109700000D02*
X149746000Y-109700000D01*
D35*
X141000000Y-116200000D02*
X141364000Y-116564000D01*
X141364000Y-116564000D02*
X141364000Y-125221000D01*
X141000000Y-115300000D02*
X141000000Y-116200000D01*
D34*
%TO.N,/VREF*%
X154249186Y-104254251D02*
X154278437Y-104225000D01*
X154278437Y-104225000D02*
X171300000Y-104225000D01*
X171300000Y-104225000D02*
X172425000Y-105350000D01*
X172425000Y-105350000D02*
X178350000Y-105350000D01*
X142554251Y-104254251D02*
X154249186Y-104254251D01*
X142350000Y-104050000D02*
X142554251Y-104254251D01*
D33*
%TO.N,/TX_BUFFERED*%
X132100000Y-129900000D02*
X137200000Y-129900000D01*
X130500000Y-131500000D02*
X132100000Y-129900000D01*
X137200000Y-129900000D02*
X139200000Y-131900000D01*
X139200000Y-131900000D02*
X163100000Y-131900000D01*
%TD*%
%TA.AperFunction,Conductor*%
%TO.N,VCC*%
G36*
X141696029Y-104019685D02*
G01*
X141741784Y-104072489D01*
X141751929Y-104107814D01*
X141764956Y-104206762D01*
X141825464Y-104352841D01*
X141921718Y-104478282D01*
X142047159Y-104574536D01*
X142193238Y-104635044D01*
X142271619Y-104645363D01*
X142349999Y-104655682D01*
X142350000Y-104655682D01*
X142350001Y-104655682D01*
X142402254Y-104648802D01*
X142506762Y-104635044D01*
X142652841Y-104574536D01*
X142652845Y-104574532D01*
X142655560Y-104572966D01*
X142658599Y-104572151D01*
X142660351Y-104571426D01*
X142660446Y-104571656D01*
X142717564Y-104556351D01*
X154186030Y-104556351D01*
X154194606Y-104556946D01*
X154206722Y-104558635D01*
X154206726Y-104558637D01*
X154248394Y-104556710D01*
X154254749Y-104556417D01*
X154257612Y-104556351D01*
X154277178Y-104556351D01*
X154277179Y-104556351D01*
X154279841Y-104555852D01*
X154288390Y-104554861D01*
X154292299Y-104554680D01*
X154319550Y-104553421D01*
X154325993Y-104550575D01*
X154353291Y-104542122D01*
X154360207Y-104540830D01*
X154360212Y-104540826D01*
X154370924Y-104536678D01*
X154372221Y-104540027D01*
X154417663Y-104527100D01*
X171123504Y-104527100D01*
X171190543Y-104546785D01*
X171211185Y-104563419D01*
X172166720Y-105518954D01*
X172172362Y-105525437D01*
X172179741Y-105535209D01*
X172201670Y-105555199D01*
X172215275Y-105567602D01*
X172217337Y-105569571D01*
X172231177Y-105583411D01*
X172233421Y-105584948D01*
X172240147Y-105590275D01*
X172251379Y-105600514D01*
X172263207Y-105611298D01*
X172263208Y-105611298D01*
X172263210Y-105611300D01*
X172269775Y-105613843D01*
X172295059Y-105627169D01*
X172300862Y-105631145D01*
X172331238Y-105638289D01*
X172339424Y-105640825D01*
X172368528Y-105652100D01*
X172375565Y-105652100D01*
X172403956Y-105655394D01*
X172405588Y-105655777D01*
X172410806Y-105657005D01*
X172441704Y-105652694D01*
X172450278Y-105652100D01*
X177763746Y-105652100D01*
X177830785Y-105671785D01*
X177862119Y-105700612D01*
X177921718Y-105778282D01*
X178047159Y-105874536D01*
X178193238Y-105935044D01*
X178271619Y-105945363D01*
X178349999Y-105955682D01*
X178350000Y-105955682D01*
X178350001Y-105955682D01*
X178402254Y-105948802D01*
X178506762Y-105935044D01*
X178652841Y-105874536D01*
X178672613Y-105859363D01*
X178737780Y-105834169D01*
X178806225Y-105848206D01*
X178856216Y-105897019D01*
X178872100Y-105957739D01*
X178872100Y-107427461D01*
X178852415Y-107494500D01*
X178835781Y-107515142D01*
X178137442Y-108213480D01*
X178076119Y-108246965D01*
X178033576Y-108248738D01*
X178000001Y-108244318D01*
X177999999Y-108244318D01*
X177843239Y-108264955D01*
X177843238Y-108264956D01*
X177767828Y-108296191D01*
X177698359Y-108303658D01*
X177635880Y-108272383D01*
X177600228Y-108212293D01*
X177602723Y-108142468D01*
X177622006Y-108106137D01*
X177624536Y-108102841D01*
X177685044Y-107956762D01*
X177705682Y-107800000D01*
X177704206Y-107788792D01*
X177686453Y-107653938D01*
X177685044Y-107643238D01*
X177624536Y-107497159D01*
X177528282Y-107371718D01*
X177402841Y-107275464D01*
X177256762Y-107214956D01*
X177256760Y-107214955D01*
X177100001Y-107194318D01*
X177099999Y-107194318D01*
X176943239Y-107214955D01*
X176943237Y-107214956D01*
X176797160Y-107275463D01*
X176671718Y-107371718D01*
X176575463Y-107497160D01*
X176514956Y-107643237D01*
X176514955Y-107643239D01*
X176494318Y-107799998D01*
X176494318Y-107800001D01*
X176514955Y-107956760D01*
X176514956Y-107956762D01*
X176567573Y-108083792D01*
X176575464Y-108102841D01*
X176671718Y-108228282D01*
X176797159Y-108324536D01*
X176943238Y-108385044D01*
X177013681Y-108394318D01*
X177099999Y-108405682D01*
X177100000Y-108405682D01*
X177100001Y-108405682D01*
X177152254Y-108398802D01*
X177256762Y-108385044D01*
X177332170Y-108353808D01*
X177401639Y-108346340D01*
X177464118Y-108377615D01*
X177499770Y-108437704D01*
X177497276Y-108507529D01*
X177477999Y-108543855D01*
X177475464Y-108547158D01*
X177414956Y-108693237D01*
X177414955Y-108693239D01*
X177394318Y-108849998D01*
X177394318Y-108850001D01*
X177414955Y-109006760D01*
X177414956Y-109006762D01*
X177453576Y-109100000D01*
X177475464Y-109152841D01*
X177566682Y-109271719D01*
X177571719Y-109278283D01*
X177598586Y-109298898D01*
X177639789Y-109355325D01*
X177647100Y-109397274D01*
X177647100Y-110876000D01*
X177627415Y-110943039D01*
X177574611Y-110988794D01*
X177523100Y-111000000D01*
X175091409Y-111000000D01*
X175024370Y-110980315D01*
X174978615Y-110927511D01*
X174976848Y-110923452D01*
X174975142Y-110919334D01*
X174924536Y-110797159D01*
X174838266Y-110684729D01*
X174813073Y-110619562D01*
X174827111Y-110551118D01*
X174875925Y-110501128D01*
X174944016Y-110485464D01*
X174952810Y-110486304D01*
X175100000Y-110505682D01*
X175100001Y-110505682D01*
X175152254Y-110498802D01*
X175256762Y-110485044D01*
X175402841Y-110424536D01*
X175528282Y-110328282D01*
X175624536Y-110202841D01*
X175685044Y-110056762D01*
X175705682Y-109900000D01*
X175703838Y-109885996D01*
X175685044Y-109743239D01*
X175685044Y-109743238D01*
X175624536Y-109597159D01*
X175528282Y-109471718D01*
X175402841Y-109375464D01*
X175354221Y-109355325D01*
X175256762Y-109314956D01*
X175256760Y-109314955D01*
X175100001Y-109294318D01*
X175099999Y-109294318D01*
X174943239Y-109314955D01*
X174943237Y-109314956D01*
X174797160Y-109375463D01*
X174671718Y-109471718D01*
X174575463Y-109597160D01*
X174514956Y-109743237D01*
X174514955Y-109743239D01*
X174494318Y-109899998D01*
X174494318Y-109900001D01*
X174514955Y-110056760D01*
X174514956Y-110056762D01*
X174575464Y-110202842D01*
X174661732Y-110315268D01*
X174686926Y-110380437D01*
X174672888Y-110448882D01*
X174624074Y-110498871D01*
X174555982Y-110514535D01*
X174547171Y-110513693D01*
X174400001Y-110494318D01*
X174399999Y-110494318D01*
X174243239Y-110514955D01*
X174243237Y-110514956D01*
X174097160Y-110575463D01*
X173971718Y-110671718D01*
X173875462Y-110797161D01*
X173848128Y-110863154D01*
X173824858Y-110919334D01*
X173823152Y-110923452D01*
X173779311Y-110977856D01*
X173713017Y-110999921D01*
X173708591Y-111000000D01*
X147294596Y-111000000D01*
X147227557Y-110980315D01*
X147181802Y-110927511D01*
X147171858Y-110858353D01*
X147200883Y-110794797D01*
X147206915Y-110788319D01*
X147956815Y-110038419D01*
X148018138Y-110004934D01*
X148044496Y-110002100D01*
X149159746Y-110002100D01*
X149226785Y-110021785D01*
X149258119Y-110050612D01*
X149262839Y-110056762D01*
X149308451Y-110116206D01*
X149317718Y-110128282D01*
X149443159Y-110224536D01*
X149589238Y-110285044D01*
X149667619Y-110295363D01*
X149745999Y-110305682D01*
X149746000Y-110305682D01*
X149746001Y-110305682D01*
X149798254Y-110298802D01*
X149902762Y-110285044D01*
X150048841Y-110224536D01*
X150174282Y-110128282D01*
X150270536Y-110002841D01*
X150331044Y-109856762D01*
X150331934Y-109850001D01*
X155394318Y-109850001D01*
X155414955Y-110006760D01*
X155414956Y-110006762D01*
X155460290Y-110116209D01*
X155475464Y-110152841D01*
X155571718Y-110278282D01*
X155697159Y-110374536D01*
X155843238Y-110435044D01*
X155921619Y-110445363D01*
X155999999Y-110455682D01*
X156000000Y-110455682D01*
X156000001Y-110455682D01*
X156052254Y-110448802D01*
X156156762Y-110435044D01*
X156302841Y-110374536D01*
X156399978Y-110300000D01*
X167544867Y-110300000D01*
X167563302Y-110428225D01*
X167602335Y-110513693D01*
X167617118Y-110546063D01*
X167701951Y-110643967D01*
X167810931Y-110714004D01*
X167935225Y-110750499D01*
X167935227Y-110750500D01*
X167935228Y-110750500D01*
X168064773Y-110750500D01*
X168064773Y-110750499D01*
X168189069Y-110714004D01*
X168298049Y-110643967D01*
X168382882Y-110546063D01*
X168387206Y-110536595D01*
X168432961Y-110483791D01*
X168500000Y-110464107D01*
X168567040Y-110483792D01*
X168612794Y-110536595D01*
X168617118Y-110546063D01*
X168701951Y-110643967D01*
X168810931Y-110714004D01*
X168935225Y-110750499D01*
X168935227Y-110750500D01*
X168935228Y-110750500D01*
X169064773Y-110750500D01*
X169064773Y-110750499D01*
X169189069Y-110714004D01*
X169298049Y-110643967D01*
X169382882Y-110546063D01*
X169387206Y-110536595D01*
X169432961Y-110483791D01*
X169500000Y-110464107D01*
X169567040Y-110483792D01*
X169612794Y-110536595D01*
X169617118Y-110546063D01*
X169701951Y-110643967D01*
X169810931Y-110714004D01*
X169935225Y-110750499D01*
X169935227Y-110750500D01*
X169935228Y-110750500D01*
X170064773Y-110750500D01*
X170064773Y-110750499D01*
X170189069Y-110714004D01*
X170298049Y-110643967D01*
X170382882Y-110546063D01*
X170436697Y-110428226D01*
X170455133Y-110300000D01*
X170436697Y-110171774D01*
X170382882Y-110053937D01*
X170298049Y-109956033D01*
X170189069Y-109885996D01*
X170189065Y-109885994D01*
X170189064Y-109885994D01*
X170064774Y-109849500D01*
X170064772Y-109849500D01*
X169935228Y-109849500D01*
X169935226Y-109849500D01*
X169810935Y-109885994D01*
X169810932Y-109885995D01*
X169810931Y-109885996D01*
X169789139Y-109900001D01*
X169701950Y-109956033D01*
X169617118Y-110053937D01*
X169617116Y-110053940D01*
X169612793Y-110063406D01*
X169567037Y-110116209D01*
X169499997Y-110135892D01*
X169432958Y-110116206D01*
X169387207Y-110063406D01*
X169382883Y-110053940D01*
X169382882Y-110053938D01*
X169382882Y-110053937D01*
X169298049Y-109956033D01*
X169189069Y-109885996D01*
X169189065Y-109885994D01*
X169189064Y-109885994D01*
X169064774Y-109849500D01*
X169064772Y-109849500D01*
X168935228Y-109849500D01*
X168935226Y-109849500D01*
X168810935Y-109885994D01*
X168810932Y-109885995D01*
X168810931Y-109885996D01*
X168789139Y-109900001D01*
X168701950Y-109956033D01*
X168617118Y-110053937D01*
X168617116Y-110053940D01*
X168612793Y-110063406D01*
X168567037Y-110116209D01*
X168499997Y-110135892D01*
X168432958Y-110116206D01*
X168387207Y-110063406D01*
X168382883Y-110053940D01*
X168382882Y-110053938D01*
X168382882Y-110053937D01*
X168298049Y-109956033D01*
X168189069Y-109885996D01*
X168189065Y-109885994D01*
X168189064Y-109885994D01*
X168064774Y-109849500D01*
X168064772Y-109849500D01*
X167935228Y-109849500D01*
X167935226Y-109849500D01*
X167810935Y-109885994D01*
X167810932Y-109885995D01*
X167810931Y-109885996D01*
X167789139Y-109900001D01*
X167701950Y-109956033D01*
X167617118Y-110053937D01*
X167617117Y-110053938D01*
X167563302Y-110171774D01*
X167544867Y-110300000D01*
X156399978Y-110300000D01*
X156428282Y-110278282D01*
X156524536Y-110152841D01*
X156585044Y-110006762D01*
X156605682Y-109850000D01*
X156585044Y-109693238D01*
X156524536Y-109547159D01*
X156428282Y-109421718D01*
X156302841Y-109325464D01*
X156277472Y-109314956D01*
X156156762Y-109264956D01*
X156156760Y-109264955D01*
X156000001Y-109244318D01*
X155999999Y-109244318D01*
X155843239Y-109264955D01*
X155843237Y-109264956D01*
X155697160Y-109325463D01*
X155571718Y-109421718D01*
X155475463Y-109547160D01*
X155414956Y-109693237D01*
X155414955Y-109693239D01*
X155394318Y-109849998D01*
X155394318Y-109850001D01*
X150331934Y-109850001D01*
X150351682Y-109700000D01*
X150331044Y-109543238D01*
X150270536Y-109397159D01*
X150174282Y-109271718D01*
X150048841Y-109175464D01*
X150003690Y-109156762D01*
X149902762Y-109114956D01*
X149902760Y-109114955D01*
X149789162Y-109100000D01*
X167544867Y-109100000D01*
X167563302Y-109228225D01*
X167612579Y-109336124D01*
X167617118Y-109346063D01*
X167701951Y-109443967D01*
X167810931Y-109514004D01*
X167923853Y-109547160D01*
X167935225Y-109550499D01*
X167935227Y-109550500D01*
X167935228Y-109550500D01*
X168064773Y-109550500D01*
X168064773Y-109550499D01*
X168189069Y-109514004D01*
X168298049Y-109443967D01*
X168382882Y-109346063D01*
X168387206Y-109336595D01*
X168432961Y-109283791D01*
X168500000Y-109264107D01*
X168567040Y-109283792D01*
X168612794Y-109336595D01*
X168617118Y-109346063D01*
X168701951Y-109443967D01*
X168810931Y-109514004D01*
X168923853Y-109547160D01*
X168935225Y-109550499D01*
X168935227Y-109550500D01*
X168935228Y-109550500D01*
X169064773Y-109550500D01*
X169064773Y-109550499D01*
X169189069Y-109514004D01*
X169298049Y-109443967D01*
X169382882Y-109346063D01*
X169387206Y-109336595D01*
X169432961Y-109283791D01*
X169500000Y-109264107D01*
X169567040Y-109283792D01*
X169612794Y-109336595D01*
X169617118Y-109346063D01*
X169701951Y-109443967D01*
X169810931Y-109514004D01*
X169923853Y-109547160D01*
X169935225Y-109550499D01*
X169935227Y-109550500D01*
X169935228Y-109550500D01*
X170064773Y-109550500D01*
X170064773Y-109550499D01*
X170189069Y-109514004D01*
X170204790Y-109503901D01*
X172694318Y-109503901D01*
X172714955Y-109660660D01*
X172714956Y-109660662D01*
X172749160Y-109743239D01*
X172775464Y-109806741D01*
X172871718Y-109932182D01*
X172997159Y-110028436D01*
X173143238Y-110088944D01*
X173221619Y-110099263D01*
X173299999Y-110109582D01*
X173300000Y-110109582D01*
X173300001Y-110109582D01*
X173352254Y-110102702D01*
X173456762Y-110088944D01*
X173602841Y-110028436D01*
X173728282Y-109932182D01*
X173824536Y-109806741D01*
X173885044Y-109660662D01*
X173899987Y-109547159D01*
X173905682Y-109503901D01*
X173905682Y-109503898D01*
X173885044Y-109347139D01*
X173885044Y-109347138D01*
X173824536Y-109201059D01*
X173728282Y-109075618D01*
X173602841Y-108979364D01*
X173584517Y-108971774D01*
X173456762Y-108918856D01*
X173456760Y-108918855D01*
X173300001Y-108898218D01*
X173299999Y-108898218D01*
X173143239Y-108918855D01*
X173143237Y-108918856D01*
X172997160Y-108979363D01*
X172871718Y-109075618D01*
X172775463Y-109201060D01*
X172714956Y-109347137D01*
X172714955Y-109347139D01*
X172694318Y-109503898D01*
X172694318Y-109503901D01*
X170204790Y-109503901D01*
X170298049Y-109443967D01*
X170382882Y-109346063D01*
X170436697Y-109228226D01*
X170455133Y-109100000D01*
X170436697Y-108971774D01*
X170382882Y-108853937D01*
X170298049Y-108756033D01*
X170189069Y-108685996D01*
X170189065Y-108685994D01*
X170189064Y-108685994D01*
X170064774Y-108649500D01*
X170064772Y-108649500D01*
X169935228Y-108649500D01*
X169935226Y-108649500D01*
X169810935Y-108685994D01*
X169810932Y-108685995D01*
X169810931Y-108685996D01*
X169769604Y-108712555D01*
X169701950Y-108756033D01*
X169617118Y-108853937D01*
X169617116Y-108853940D01*
X169612793Y-108863406D01*
X169567037Y-108916209D01*
X169499997Y-108935892D01*
X169432958Y-108916206D01*
X169387207Y-108863406D01*
X169382883Y-108853940D01*
X169382882Y-108853938D01*
X169382882Y-108853937D01*
X169298049Y-108756033D01*
X169189069Y-108685996D01*
X169189065Y-108685994D01*
X169189064Y-108685994D01*
X169064774Y-108649500D01*
X169064772Y-108649500D01*
X168935228Y-108649500D01*
X168935226Y-108649500D01*
X168810935Y-108685994D01*
X168810932Y-108685995D01*
X168810931Y-108685996D01*
X168769604Y-108712555D01*
X168701950Y-108756033D01*
X168617118Y-108853937D01*
X168617116Y-108853940D01*
X168612793Y-108863406D01*
X168567037Y-108916209D01*
X168499997Y-108935892D01*
X168432958Y-108916206D01*
X168387207Y-108863406D01*
X168382883Y-108853940D01*
X168382882Y-108853938D01*
X168382882Y-108853937D01*
X168298049Y-108756033D01*
X168189069Y-108685996D01*
X168189065Y-108685994D01*
X168189064Y-108685994D01*
X168064774Y-108649500D01*
X168064772Y-108649500D01*
X167935228Y-108649500D01*
X167935226Y-108649500D01*
X167810935Y-108685994D01*
X167810932Y-108685995D01*
X167810931Y-108685996D01*
X167769604Y-108712555D01*
X167701950Y-108756033D01*
X167617118Y-108853937D01*
X167617117Y-108853938D01*
X167563302Y-108971774D01*
X167544867Y-109100000D01*
X149789162Y-109100000D01*
X149746001Y-109094318D01*
X149745999Y-109094318D01*
X149589239Y-109114955D01*
X149589237Y-109114956D01*
X149443160Y-109175463D01*
X149317716Y-109271719D01*
X149284541Y-109314955D01*
X149258120Y-109349386D01*
X149201694Y-109390589D01*
X149159746Y-109397900D01*
X147931156Y-109397900D01*
X147922580Y-109397305D01*
X147910461Y-109395614D01*
X147910460Y-109395614D01*
X147900029Y-109396096D01*
X147862437Y-109397834D01*
X147859574Y-109397900D01*
X147840000Y-109397900D01*
X147837334Y-109398399D01*
X147828804Y-109399388D01*
X147797633Y-109400830D01*
X147797632Y-109400830D01*
X147791182Y-109403678D01*
X147763897Y-109412127D01*
X147756980Y-109413420D01*
X147756979Y-109413420D01*
X147730459Y-109429840D01*
X147722859Y-109433846D01*
X147694315Y-109446450D01*
X147689337Y-109451429D01*
X147666940Y-109469169D01*
X147660953Y-109472876D01*
X147660951Y-109472877D01*
X147642148Y-109497775D01*
X147636507Y-109504258D01*
X146177084Y-110963681D01*
X146115761Y-110997166D01*
X146089403Y-111000000D01*
X138826100Y-111000000D01*
X138759061Y-110980315D01*
X138713306Y-110927511D01*
X138702100Y-110876000D01*
X138702100Y-110863154D01*
X138702695Y-110854578D01*
X138704384Y-110842464D01*
X138704386Y-110842459D01*
X138702166Y-110794435D01*
X138702100Y-110791572D01*
X138702100Y-110772010D01*
X138702099Y-110772004D01*
X138701603Y-110769352D01*
X138700610Y-110760800D01*
X138700134Y-110750499D01*
X138699170Y-110729636D01*
X138699169Y-110729633D01*
X138699169Y-110729632D01*
X138696325Y-110723191D01*
X138687872Y-110695894D01*
X138687487Y-110693836D01*
X138686579Y-110688979D01*
X138670156Y-110662455D01*
X138666147Y-110654849D01*
X138653549Y-110626316D01*
X138653548Y-110626315D01*
X138653548Y-110626314D01*
X138648575Y-110621341D01*
X138630829Y-110598937D01*
X138627122Y-110592951D01*
X138627123Y-110592951D01*
X138616402Y-110584856D01*
X138602219Y-110574145D01*
X138595749Y-110568515D01*
X138338419Y-110311185D01*
X138304934Y-110249862D01*
X138302100Y-110223504D01*
X138302100Y-109586254D01*
X138321785Y-109519215D01*
X138350612Y-109487880D01*
X138428282Y-109428282D01*
X138524536Y-109302841D01*
X138585044Y-109156762D01*
X138605682Y-109000000D01*
X138601074Y-108965001D01*
X141647318Y-108965001D01*
X141667955Y-109121760D01*
X141667956Y-109121762D01*
X141727268Y-109264955D01*
X141728464Y-109267841D01*
X141824718Y-109393282D01*
X141950159Y-109489536D01*
X142096238Y-109550044D01*
X142174619Y-109560363D01*
X142252999Y-109570682D01*
X142253000Y-109570682D01*
X142253001Y-109570682D01*
X142305254Y-109563802D01*
X142409762Y-109550044D01*
X142555841Y-109489536D01*
X142681282Y-109393282D01*
X142777536Y-109267841D01*
X142838044Y-109121762D01*
X142858682Y-108965000D01*
X142838044Y-108808238D01*
X142777536Y-108662159D01*
X142681282Y-108536718D01*
X142555841Y-108440464D01*
X142510584Y-108421718D01*
X142409762Y-108379956D01*
X142409760Y-108379955D01*
X142253001Y-108359318D01*
X142252999Y-108359318D01*
X142096239Y-108379955D01*
X142096237Y-108379956D01*
X141950160Y-108440463D01*
X141824718Y-108536718D01*
X141728463Y-108662160D01*
X141667956Y-108808237D01*
X141667955Y-108808239D01*
X141647318Y-108964998D01*
X141647318Y-108965001D01*
X138601074Y-108965001D01*
X138585044Y-108843238D01*
X138524536Y-108697159D01*
X138428282Y-108571718D01*
X138302841Y-108475464D01*
X138211680Y-108437704D01*
X138156762Y-108414956D01*
X138156760Y-108414955D01*
X138000001Y-108394318D01*
X137999999Y-108394318D01*
X137843239Y-108414955D01*
X137843237Y-108414956D01*
X137697160Y-108475463D01*
X137571718Y-108571718D01*
X137475463Y-108697160D01*
X137414956Y-108843237D01*
X137414955Y-108843239D01*
X137394318Y-108999998D01*
X137394318Y-109000001D01*
X137414955Y-109156760D01*
X137414956Y-109156762D01*
X137471933Y-109294318D01*
X137475464Y-109302841D01*
X137571718Y-109428282D01*
X137649386Y-109487879D01*
X137690589Y-109544306D01*
X137697900Y-109586254D01*
X137697900Y-110336841D01*
X137697305Y-110345416D01*
X137695614Y-110357537D01*
X137697834Y-110405563D01*
X137697900Y-110408426D01*
X137697900Y-110428000D01*
X137698399Y-110430668D01*
X137699388Y-110439198D01*
X137700151Y-110455682D01*
X137700830Y-110470364D01*
X137703676Y-110476809D01*
X137712126Y-110504097D01*
X137713420Y-110511017D01*
X137713421Y-110511021D01*
X137729843Y-110537545D01*
X137733841Y-110545128D01*
X137746451Y-110573685D01*
X137746452Y-110573686D01*
X137746453Y-110573688D01*
X137751425Y-110578660D01*
X137769168Y-110601059D01*
X137772876Y-110607047D01*
X137772878Y-110607050D01*
X137797774Y-110625850D01*
X137804252Y-110631486D01*
X137882800Y-110710034D01*
X137961085Y-110788319D01*
X137994570Y-110849642D01*
X137989586Y-110919334D01*
X137947714Y-110975267D01*
X137882250Y-110999684D01*
X137873404Y-111000000D01*
X121476900Y-111000000D01*
X121409861Y-110980315D01*
X121364106Y-110927511D01*
X121352900Y-110876000D01*
X121352900Y-110300000D01*
X129544867Y-110300000D01*
X129563302Y-110428225D01*
X129602335Y-110513693D01*
X129617118Y-110546063D01*
X129701951Y-110643967D01*
X129810931Y-110714004D01*
X129935225Y-110750499D01*
X129935227Y-110750500D01*
X129935228Y-110750500D01*
X130064773Y-110750500D01*
X130064773Y-110750499D01*
X130189069Y-110714004D01*
X130298049Y-110643967D01*
X130382882Y-110546063D01*
X130387206Y-110536595D01*
X130432961Y-110483791D01*
X130500000Y-110464107D01*
X130567040Y-110483792D01*
X130612794Y-110536595D01*
X130617118Y-110546063D01*
X130701951Y-110643967D01*
X130810931Y-110714004D01*
X130935225Y-110750499D01*
X130935227Y-110750500D01*
X130935228Y-110750500D01*
X131064773Y-110750500D01*
X131064773Y-110750499D01*
X131189069Y-110714004D01*
X131298049Y-110643967D01*
X131382882Y-110546063D01*
X131387206Y-110536595D01*
X131432961Y-110483791D01*
X131500000Y-110464107D01*
X131567040Y-110483792D01*
X131612794Y-110536595D01*
X131617118Y-110546063D01*
X131701951Y-110643967D01*
X131810931Y-110714004D01*
X131935225Y-110750499D01*
X131935227Y-110750500D01*
X131935228Y-110750500D01*
X132064773Y-110750500D01*
X132064773Y-110750499D01*
X132189069Y-110714004D01*
X132298049Y-110643967D01*
X132382882Y-110546063D01*
X132436697Y-110428226D01*
X132455133Y-110300000D01*
X132436697Y-110171774D01*
X132382882Y-110053937D01*
X132298049Y-109956033D01*
X132189069Y-109885996D01*
X132189065Y-109885994D01*
X132189064Y-109885994D01*
X132064774Y-109849500D01*
X132064772Y-109849500D01*
X131935228Y-109849500D01*
X131935226Y-109849500D01*
X131810935Y-109885994D01*
X131810932Y-109885995D01*
X131810931Y-109885996D01*
X131789139Y-109900001D01*
X131701950Y-109956033D01*
X131617118Y-110053937D01*
X131617116Y-110053940D01*
X131612793Y-110063406D01*
X131567037Y-110116209D01*
X131499997Y-110135892D01*
X131432958Y-110116206D01*
X131387207Y-110063406D01*
X131382883Y-110053940D01*
X131382882Y-110053938D01*
X131382882Y-110053937D01*
X131298049Y-109956033D01*
X131189069Y-109885996D01*
X131189065Y-109885994D01*
X131189064Y-109885994D01*
X131064774Y-109849500D01*
X131064772Y-109849500D01*
X130935228Y-109849500D01*
X130935226Y-109849500D01*
X130810935Y-109885994D01*
X130810932Y-109885995D01*
X130810931Y-109885996D01*
X130789139Y-109900001D01*
X130701950Y-109956033D01*
X130617118Y-110053937D01*
X130617116Y-110053940D01*
X130612793Y-110063406D01*
X130567037Y-110116209D01*
X130499997Y-110135892D01*
X130432958Y-110116206D01*
X130387207Y-110063406D01*
X130382883Y-110053940D01*
X130382882Y-110053938D01*
X130382882Y-110053937D01*
X130298049Y-109956033D01*
X130189069Y-109885996D01*
X130189065Y-109885994D01*
X130189064Y-109885994D01*
X130064774Y-109849500D01*
X130064772Y-109849500D01*
X129935228Y-109849500D01*
X129935226Y-109849500D01*
X129810935Y-109885994D01*
X129810932Y-109885995D01*
X129810931Y-109885996D01*
X129789139Y-109900001D01*
X129701950Y-109956033D01*
X129617118Y-110053937D01*
X129617117Y-110053938D01*
X129563302Y-110171774D01*
X129544867Y-110300000D01*
X121352900Y-110300000D01*
X121352900Y-109100000D01*
X129544867Y-109100000D01*
X129563302Y-109228225D01*
X129612579Y-109336124D01*
X129617118Y-109346063D01*
X129701951Y-109443967D01*
X129810931Y-109514004D01*
X129923853Y-109547160D01*
X129935225Y-109550499D01*
X129935227Y-109550500D01*
X129935228Y-109550500D01*
X130064773Y-109550500D01*
X130064773Y-109550499D01*
X130189069Y-109514004D01*
X130298049Y-109443967D01*
X130382882Y-109346063D01*
X130387206Y-109336595D01*
X130432961Y-109283791D01*
X130500000Y-109264107D01*
X130567040Y-109283792D01*
X130612794Y-109336595D01*
X130617118Y-109346063D01*
X130701951Y-109443967D01*
X130810931Y-109514004D01*
X130923853Y-109547160D01*
X130935225Y-109550499D01*
X130935227Y-109550500D01*
X130935228Y-109550500D01*
X131064773Y-109550500D01*
X131064773Y-109550499D01*
X131189069Y-109514004D01*
X131298049Y-109443967D01*
X131382882Y-109346063D01*
X131387206Y-109336595D01*
X131432961Y-109283791D01*
X131500000Y-109264107D01*
X131567040Y-109283792D01*
X131612794Y-109336595D01*
X131617118Y-109346063D01*
X131701951Y-109443967D01*
X131810931Y-109514004D01*
X131923853Y-109547160D01*
X131935225Y-109550499D01*
X131935227Y-109550500D01*
X131935228Y-109550500D01*
X132064773Y-109550500D01*
X132064773Y-109550499D01*
X132189069Y-109514004D01*
X132298049Y-109443967D01*
X132382882Y-109346063D01*
X132436697Y-109228226D01*
X132455133Y-109100000D01*
X132436697Y-108971774D01*
X132382882Y-108853937D01*
X132298049Y-108756033D01*
X132189069Y-108685996D01*
X132189065Y-108685994D01*
X132189064Y-108685994D01*
X132064774Y-108649500D01*
X132064772Y-108649500D01*
X131935228Y-108649500D01*
X131935226Y-108649500D01*
X131810935Y-108685994D01*
X131810932Y-108685995D01*
X131810931Y-108685996D01*
X131769604Y-108712555D01*
X131701950Y-108756033D01*
X131617118Y-108853937D01*
X131617116Y-108853940D01*
X131612793Y-108863406D01*
X131567037Y-108916209D01*
X131499997Y-108935892D01*
X131432958Y-108916206D01*
X131387207Y-108863406D01*
X131382883Y-108853940D01*
X131382882Y-108853938D01*
X131382882Y-108853937D01*
X131298049Y-108756033D01*
X131189069Y-108685996D01*
X131189065Y-108685994D01*
X131189064Y-108685994D01*
X131064774Y-108649500D01*
X131064772Y-108649500D01*
X130935228Y-108649500D01*
X130935226Y-108649500D01*
X130810935Y-108685994D01*
X130810932Y-108685995D01*
X130810931Y-108685996D01*
X130769604Y-108712555D01*
X130701950Y-108756033D01*
X130617118Y-108853937D01*
X130617116Y-108853940D01*
X130612793Y-108863406D01*
X130567037Y-108916209D01*
X130499997Y-108935892D01*
X130432958Y-108916206D01*
X130387207Y-108863406D01*
X130382883Y-108853940D01*
X130382882Y-108853938D01*
X130382882Y-108853937D01*
X130298049Y-108756033D01*
X130189069Y-108685996D01*
X130189065Y-108685994D01*
X130189064Y-108685994D01*
X130064774Y-108649500D01*
X130064772Y-108649500D01*
X129935228Y-108649500D01*
X129935226Y-108649500D01*
X129810935Y-108685994D01*
X129810932Y-108685995D01*
X129810931Y-108685996D01*
X129769604Y-108712555D01*
X129701950Y-108756033D01*
X129617118Y-108853937D01*
X129617117Y-108853938D01*
X129563302Y-108971774D01*
X129544867Y-109100000D01*
X121352900Y-109100000D01*
X121352900Y-107900000D01*
X129544867Y-107900000D01*
X129563302Y-108028225D01*
X129588679Y-108083791D01*
X129617118Y-108146063D01*
X129701951Y-108243967D01*
X129810931Y-108314004D01*
X129921060Y-108346340D01*
X129935225Y-108350499D01*
X129935227Y-108350500D01*
X129935228Y-108350500D01*
X130064773Y-108350500D01*
X130064773Y-108350499D01*
X130189069Y-108314004D01*
X130298049Y-108243967D01*
X130382882Y-108146063D01*
X130387206Y-108136595D01*
X130432961Y-108083791D01*
X130500000Y-108064107D01*
X130567040Y-108083792D01*
X130612794Y-108136595D01*
X130617118Y-108146063D01*
X130701951Y-108243967D01*
X130810931Y-108314004D01*
X130921060Y-108346340D01*
X130935225Y-108350499D01*
X130935227Y-108350500D01*
X130935228Y-108350500D01*
X131064773Y-108350500D01*
X131064773Y-108350499D01*
X131189069Y-108314004D01*
X131298049Y-108243967D01*
X131382882Y-108146063D01*
X131387206Y-108136595D01*
X131432961Y-108083791D01*
X131500000Y-108064107D01*
X131567040Y-108083792D01*
X131612794Y-108136595D01*
X131617118Y-108146063D01*
X131701951Y-108243967D01*
X131810931Y-108314004D01*
X131921060Y-108346340D01*
X131935225Y-108350499D01*
X131935227Y-108350500D01*
X131935228Y-108350500D01*
X132064773Y-108350500D01*
X132064773Y-108350499D01*
X132189069Y-108314004D01*
X132298049Y-108243967D01*
X132382882Y-108146063D01*
X132436697Y-108028226D01*
X132455133Y-107900000D01*
X167544867Y-107900000D01*
X167563302Y-108028225D01*
X167588679Y-108083791D01*
X167617118Y-108146063D01*
X167701951Y-108243967D01*
X167810931Y-108314004D01*
X167921060Y-108346340D01*
X167935225Y-108350499D01*
X167935227Y-108350500D01*
X167935228Y-108350500D01*
X168064773Y-108350500D01*
X168064773Y-108350499D01*
X168189069Y-108314004D01*
X168298049Y-108243967D01*
X168382882Y-108146063D01*
X168387206Y-108136595D01*
X168432961Y-108083791D01*
X168500000Y-108064107D01*
X168567040Y-108083792D01*
X168612794Y-108136595D01*
X168617118Y-108146063D01*
X168701951Y-108243967D01*
X168810931Y-108314004D01*
X168921060Y-108346340D01*
X168935225Y-108350499D01*
X168935227Y-108350500D01*
X168935228Y-108350500D01*
X169064773Y-108350500D01*
X169064773Y-108350499D01*
X169189069Y-108314004D01*
X169298049Y-108243967D01*
X169382882Y-108146063D01*
X169387206Y-108136595D01*
X169432961Y-108083791D01*
X169500000Y-108064107D01*
X169567040Y-108083792D01*
X169612794Y-108136595D01*
X169617118Y-108146063D01*
X169701951Y-108243967D01*
X169810931Y-108314004D01*
X169921060Y-108346340D01*
X169935225Y-108350499D01*
X169935227Y-108350500D01*
X169935228Y-108350500D01*
X170064773Y-108350500D01*
X170064773Y-108350499D01*
X170189069Y-108314004D01*
X170298049Y-108243967D01*
X170382882Y-108146063D01*
X170436697Y-108028226D01*
X170455133Y-107900000D01*
X170436697Y-107771774D01*
X170382882Y-107653937D01*
X170298049Y-107556033D01*
X170189069Y-107485996D01*
X170189065Y-107485994D01*
X170189064Y-107485994D01*
X170064774Y-107449500D01*
X170064772Y-107449500D01*
X169935228Y-107449500D01*
X169935226Y-107449500D01*
X169810935Y-107485994D01*
X169810932Y-107485995D01*
X169810931Y-107485996D01*
X169765579Y-107515142D01*
X169701950Y-107556033D01*
X169617118Y-107653937D01*
X169617116Y-107653940D01*
X169612793Y-107663406D01*
X169567037Y-107716209D01*
X169499997Y-107735892D01*
X169432958Y-107716206D01*
X169387207Y-107663406D01*
X169382883Y-107653940D01*
X169382882Y-107653938D01*
X169382882Y-107653937D01*
X169298049Y-107556033D01*
X169189069Y-107485996D01*
X169189065Y-107485994D01*
X169189064Y-107485994D01*
X169064774Y-107449500D01*
X169064772Y-107449500D01*
X168935228Y-107449500D01*
X168935226Y-107449500D01*
X168810935Y-107485994D01*
X168810932Y-107485995D01*
X168810931Y-107485996D01*
X168765579Y-107515142D01*
X168701950Y-107556033D01*
X168617118Y-107653937D01*
X168617116Y-107653940D01*
X168612793Y-107663406D01*
X168567037Y-107716209D01*
X168499997Y-107735892D01*
X168432958Y-107716206D01*
X168387207Y-107663406D01*
X168382883Y-107653940D01*
X168382882Y-107653938D01*
X168382882Y-107653937D01*
X168298049Y-107556033D01*
X168189069Y-107485996D01*
X168189065Y-107485994D01*
X168189064Y-107485994D01*
X168064774Y-107449500D01*
X168064772Y-107449500D01*
X167935228Y-107449500D01*
X167935226Y-107449500D01*
X167810935Y-107485994D01*
X167810932Y-107485995D01*
X167810931Y-107485996D01*
X167765579Y-107515142D01*
X167701950Y-107556033D01*
X167617118Y-107653937D01*
X167617117Y-107653938D01*
X167563302Y-107771774D01*
X167544867Y-107900000D01*
X132455133Y-107900000D01*
X132436697Y-107771774D01*
X132382882Y-107653937D01*
X132298049Y-107556033D01*
X132189069Y-107485996D01*
X132189065Y-107485994D01*
X132189064Y-107485994D01*
X132064774Y-107449500D01*
X132064772Y-107449500D01*
X131935228Y-107449500D01*
X131935226Y-107449500D01*
X131810935Y-107485994D01*
X131810932Y-107485995D01*
X131810931Y-107485996D01*
X131765579Y-107515142D01*
X131701950Y-107556033D01*
X131617118Y-107653937D01*
X131617116Y-107653940D01*
X131612793Y-107663406D01*
X131567037Y-107716209D01*
X131499997Y-107735892D01*
X131432958Y-107716206D01*
X131387207Y-107663406D01*
X131382883Y-107653940D01*
X131382882Y-107653938D01*
X131382882Y-107653937D01*
X131298049Y-107556033D01*
X131189069Y-107485996D01*
X131189065Y-107485994D01*
X131189064Y-107485994D01*
X131064774Y-107449500D01*
X131064772Y-107449500D01*
X130935228Y-107449500D01*
X130935226Y-107449500D01*
X130810935Y-107485994D01*
X130810932Y-107485995D01*
X130810931Y-107485996D01*
X130765579Y-107515142D01*
X130701950Y-107556033D01*
X130617118Y-107653937D01*
X130617116Y-107653940D01*
X130612793Y-107663406D01*
X130567037Y-107716209D01*
X130499997Y-107735892D01*
X130432958Y-107716206D01*
X130387207Y-107663406D01*
X130382883Y-107653940D01*
X130382882Y-107653938D01*
X130382882Y-107653937D01*
X130298049Y-107556033D01*
X130189069Y-107485996D01*
X130189065Y-107485994D01*
X130189064Y-107485994D01*
X130064774Y-107449500D01*
X130064772Y-107449500D01*
X129935228Y-107449500D01*
X129935226Y-107449500D01*
X129810935Y-107485994D01*
X129810932Y-107485995D01*
X129810931Y-107485996D01*
X129765579Y-107515142D01*
X129701950Y-107556033D01*
X129617118Y-107653937D01*
X129617117Y-107653938D01*
X129563302Y-107771774D01*
X129544867Y-107900000D01*
X121352900Y-107900000D01*
X121352900Y-106700000D01*
X129544867Y-106700000D01*
X129563302Y-106828225D01*
X129588679Y-106883791D01*
X129617118Y-106946063D01*
X129701951Y-107043967D01*
X129810931Y-107114004D01*
X129935225Y-107150499D01*
X129935227Y-107150500D01*
X129935228Y-107150500D01*
X130064773Y-107150500D01*
X130064773Y-107150499D01*
X130189069Y-107114004D01*
X130298049Y-107043967D01*
X130382882Y-106946063D01*
X130387206Y-106936595D01*
X130432961Y-106883791D01*
X130500000Y-106864107D01*
X130567040Y-106883792D01*
X130612794Y-106936595D01*
X130617118Y-106946063D01*
X130701951Y-107043967D01*
X130810931Y-107114004D01*
X130935225Y-107150499D01*
X130935227Y-107150500D01*
X130935228Y-107150500D01*
X131064773Y-107150500D01*
X131064773Y-107150499D01*
X131189069Y-107114004D01*
X131298049Y-107043967D01*
X131382882Y-106946063D01*
X131387206Y-106936595D01*
X131432961Y-106883791D01*
X131500000Y-106864107D01*
X131567040Y-106883792D01*
X131612794Y-106936595D01*
X131617118Y-106946063D01*
X131701951Y-107043967D01*
X131810931Y-107114004D01*
X131935225Y-107150499D01*
X131935227Y-107150500D01*
X131935228Y-107150500D01*
X132064773Y-107150500D01*
X132064773Y-107150499D01*
X132189069Y-107114004D01*
X132298049Y-107043967D01*
X132382882Y-106946063D01*
X132436697Y-106828226D01*
X132455133Y-106700000D01*
X167544867Y-106700000D01*
X167563302Y-106828225D01*
X167588679Y-106883791D01*
X167617118Y-106946063D01*
X167701951Y-107043967D01*
X167810931Y-107114004D01*
X167935225Y-107150499D01*
X167935227Y-107150500D01*
X167935228Y-107150500D01*
X168064773Y-107150500D01*
X168064773Y-107150499D01*
X168189069Y-107114004D01*
X168298049Y-107043967D01*
X168382882Y-106946063D01*
X168387206Y-106936595D01*
X168432961Y-106883791D01*
X168500000Y-106864107D01*
X168567040Y-106883792D01*
X168612794Y-106936595D01*
X168617118Y-106946063D01*
X168701951Y-107043967D01*
X168810931Y-107114004D01*
X168935225Y-107150499D01*
X168935227Y-107150500D01*
X168935228Y-107150500D01*
X169064773Y-107150500D01*
X169064773Y-107150499D01*
X169189069Y-107114004D01*
X169298049Y-107043967D01*
X169382882Y-106946063D01*
X169387206Y-106936595D01*
X169432961Y-106883791D01*
X169500000Y-106864107D01*
X169567040Y-106883792D01*
X169612794Y-106936595D01*
X169617118Y-106946063D01*
X169701951Y-107043967D01*
X169810931Y-107114004D01*
X169935225Y-107150499D01*
X169935227Y-107150500D01*
X169935228Y-107150500D01*
X170064773Y-107150500D01*
X170064773Y-107150499D01*
X170189069Y-107114004D01*
X170298049Y-107043967D01*
X170382882Y-106946063D01*
X170436697Y-106828226D01*
X170455133Y-106700000D01*
X170436697Y-106571774D01*
X170382882Y-106453937D01*
X170298049Y-106356033D01*
X170189069Y-106285996D01*
X170189065Y-106285994D01*
X170189064Y-106285994D01*
X170064774Y-106249500D01*
X170064772Y-106249500D01*
X169935228Y-106249500D01*
X169935226Y-106249500D01*
X169810935Y-106285994D01*
X169810932Y-106285995D01*
X169810931Y-106285996D01*
X169759677Y-106318934D01*
X169701950Y-106356033D01*
X169617118Y-106453937D01*
X169617116Y-106453940D01*
X169612793Y-106463406D01*
X169567037Y-106516209D01*
X169499997Y-106535892D01*
X169432958Y-106516206D01*
X169387207Y-106463406D01*
X169382883Y-106453940D01*
X169382882Y-106453938D01*
X169382882Y-106453937D01*
X169298049Y-106356033D01*
X169189069Y-106285996D01*
X169189065Y-106285994D01*
X169189064Y-106285994D01*
X169064774Y-106249500D01*
X169064772Y-106249500D01*
X168935228Y-106249500D01*
X168935226Y-106249500D01*
X168810935Y-106285994D01*
X168810932Y-106285995D01*
X168810931Y-106285996D01*
X168759677Y-106318934D01*
X168701950Y-106356033D01*
X168617118Y-106453937D01*
X168617116Y-106453940D01*
X168612793Y-106463406D01*
X168567037Y-106516209D01*
X168499997Y-106535892D01*
X168432958Y-106516206D01*
X168387207Y-106463406D01*
X168382883Y-106453940D01*
X168382882Y-106453938D01*
X168382882Y-106453937D01*
X168298049Y-106356033D01*
X168189069Y-106285996D01*
X168189065Y-106285994D01*
X168189064Y-106285994D01*
X168064774Y-106249500D01*
X168064772Y-106249500D01*
X167935228Y-106249500D01*
X167935226Y-106249500D01*
X167810935Y-106285994D01*
X167810932Y-106285995D01*
X167810931Y-106285996D01*
X167759677Y-106318934D01*
X167701950Y-106356033D01*
X167617118Y-106453937D01*
X167617117Y-106453938D01*
X167563302Y-106571774D01*
X167544867Y-106700000D01*
X132455133Y-106700000D01*
X132436697Y-106571774D01*
X132382882Y-106453937D01*
X132298049Y-106356033D01*
X132189069Y-106285996D01*
X132189065Y-106285994D01*
X132189064Y-106285994D01*
X132064774Y-106249500D01*
X132064772Y-106249500D01*
X131935228Y-106249500D01*
X131935226Y-106249500D01*
X131810935Y-106285994D01*
X131810932Y-106285995D01*
X131810931Y-106285996D01*
X131759677Y-106318934D01*
X131701950Y-106356033D01*
X131617118Y-106453937D01*
X131617116Y-106453940D01*
X131612793Y-106463406D01*
X131567037Y-106516209D01*
X131499997Y-106535892D01*
X131432958Y-106516206D01*
X131387207Y-106463406D01*
X131382883Y-106453940D01*
X131382882Y-106453938D01*
X131382882Y-106453937D01*
X131298049Y-106356033D01*
X131189069Y-106285996D01*
X131189065Y-106285994D01*
X131189064Y-106285994D01*
X131064774Y-106249500D01*
X131064772Y-106249500D01*
X130935228Y-106249500D01*
X130935226Y-106249500D01*
X130810935Y-106285994D01*
X130810932Y-106285995D01*
X130810931Y-106285996D01*
X130759677Y-106318934D01*
X130701950Y-106356033D01*
X130617118Y-106453937D01*
X130617116Y-106453940D01*
X130612793Y-106463406D01*
X130567037Y-106516209D01*
X130499997Y-106535892D01*
X130432958Y-106516206D01*
X130387207Y-106463406D01*
X130382883Y-106453940D01*
X130382882Y-106453938D01*
X130382882Y-106453937D01*
X130298049Y-106356033D01*
X130189069Y-106285996D01*
X130189065Y-106285994D01*
X130189064Y-106285994D01*
X130064774Y-106249500D01*
X130064772Y-106249500D01*
X129935228Y-106249500D01*
X129935226Y-106249500D01*
X129810935Y-106285994D01*
X129810932Y-106285995D01*
X129810931Y-106285996D01*
X129759677Y-106318934D01*
X129701950Y-106356033D01*
X129617118Y-106453937D01*
X129617117Y-106453938D01*
X129563302Y-106571774D01*
X129544867Y-106700000D01*
X121352900Y-106700000D01*
X121352900Y-104124000D01*
X121372585Y-104056961D01*
X121425389Y-104011206D01*
X121476900Y-104000000D01*
X141628990Y-104000000D01*
X141696029Y-104019685D01*
G37*
%TD.AperFunction*%
%TD*%
%TA.AperFunction,Conductor*%
%TO.N,+3V3*%
G36*
X144939839Y-112019685D02*
G01*
X144985594Y-112072489D01*
X144995538Y-112141647D01*
X144966513Y-112205203D01*
X144960481Y-112211681D01*
X142188381Y-114983781D01*
X142127058Y-115017266D01*
X142100700Y-115020100D01*
X141575306Y-115020100D01*
X141508267Y-115000415D01*
X141476931Y-114971587D01*
X141412448Y-114887552D01*
X141412447Y-114887551D01*
X141291646Y-114794856D01*
X141291640Y-114794853D01*
X141150970Y-114736586D01*
X141150965Y-114736584D01*
X141000001Y-114716710D01*
X140999999Y-114716710D01*
X140849034Y-114736584D01*
X140849029Y-114736586D01*
X140708359Y-114794853D01*
X140708353Y-114794856D01*
X140587552Y-114887551D01*
X140587551Y-114887552D01*
X140494856Y-115008353D01*
X140494853Y-115008359D01*
X140436586Y-115149029D01*
X140436584Y-115149034D01*
X140416710Y-115299998D01*
X140416710Y-115300001D01*
X140436584Y-115450965D01*
X140436586Y-115450970D01*
X140494853Y-115591640D01*
X140494856Y-115591646D01*
X140542075Y-115653181D01*
X140567270Y-115718350D01*
X140567700Y-115728668D01*
X140567700Y-116172241D01*
X140567310Y-116179189D01*
X140563122Y-116216347D01*
X140573733Y-116272427D01*
X140582239Y-116328863D01*
X140584645Y-116336661D01*
X140587349Y-116344389D01*
X140587350Y-116344392D01*
X140614019Y-116394853D01*
X140638782Y-116446274D01*
X140638783Y-116446275D01*
X140643391Y-116453035D01*
X140648244Y-116459610D01*
X140688606Y-116499972D01*
X140727423Y-116541805D01*
X140734687Y-116547598D01*
X140734137Y-116548287D01*
X140746104Y-116557469D01*
X140895381Y-116706746D01*
X140928866Y-116768069D01*
X140931700Y-116794427D01*
X140931700Y-124792330D01*
X140912015Y-124859369D01*
X140906076Y-124867816D01*
X140858856Y-124929354D01*
X140858853Y-124929359D01*
X140800586Y-125070029D01*
X140800584Y-125070034D01*
X140780710Y-125220998D01*
X140780710Y-125221001D01*
X140800584Y-125371965D01*
X140800586Y-125371970D01*
X140858853Y-125512640D01*
X140858856Y-125512646D01*
X140951551Y-125633447D01*
X140951552Y-125633448D01*
X141072353Y-125726143D01*
X141072359Y-125726146D01*
X141142694Y-125755279D01*
X141213033Y-125784415D01*
X141288516Y-125794352D01*
X141363999Y-125804290D01*
X141364000Y-125804290D01*
X141364001Y-125804290D01*
X141414322Y-125797665D01*
X141514967Y-125784415D01*
X141655645Y-125726144D01*
X141776448Y-125633448D01*
X141869144Y-125512645D01*
X141927415Y-125371967D01*
X141947290Y-125221000D01*
X141927415Y-125070033D01*
X141869144Y-124929355D01*
X141846195Y-124899447D01*
X141821924Y-124867816D01*
X141796730Y-124802647D01*
X141796300Y-124792330D01*
X141796300Y-124487001D01*
X143221710Y-124487001D01*
X143241584Y-124637965D01*
X143241586Y-124637970D01*
X143299853Y-124778640D01*
X143299856Y-124778646D01*
X143392551Y-124899447D01*
X143392552Y-124899448D01*
X143513353Y-124992143D01*
X143513359Y-124992146D01*
X143583694Y-125021279D01*
X143654033Y-125050415D01*
X143729516Y-125060352D01*
X143804999Y-125070290D01*
X143805000Y-125070290D01*
X143805001Y-125070290D01*
X143855322Y-125063665D01*
X143955967Y-125050415D01*
X144096645Y-124992144D01*
X144217448Y-124899448D01*
X144263064Y-124840001D01*
X167196710Y-124840001D01*
X167216584Y-124990965D01*
X167216586Y-124990970D01*
X167274853Y-125131640D01*
X167274856Y-125131646D01*
X167367551Y-125252447D01*
X167367552Y-125252448D01*
X167488353Y-125345143D01*
X167488359Y-125345146D01*
X167553106Y-125371965D01*
X167629033Y-125403415D01*
X167704516Y-125413352D01*
X167779999Y-125423290D01*
X167780000Y-125423290D01*
X167780001Y-125423290D01*
X167830322Y-125416665D01*
X167930967Y-125403415D01*
X168071645Y-125345144D01*
X168192448Y-125252448D01*
X168285144Y-125131645D01*
X168343415Y-124990967D01*
X168363290Y-124840001D01*
X169736710Y-124840001D01*
X169756584Y-124990965D01*
X169756586Y-124990970D01*
X169814853Y-125131640D01*
X169814856Y-125131646D01*
X169907551Y-125252447D01*
X169907552Y-125252448D01*
X170028353Y-125345143D01*
X170028359Y-125345146D01*
X170093106Y-125371965D01*
X170169033Y-125403415D01*
X170244516Y-125413352D01*
X170319999Y-125423290D01*
X170320000Y-125423290D01*
X170320001Y-125423290D01*
X170370322Y-125416665D01*
X170470967Y-125403415D01*
X170611645Y-125345144D01*
X170732448Y-125252448D01*
X170825144Y-125131645D01*
X170883415Y-124990967D01*
X170903290Y-124840001D01*
X172276710Y-124840001D01*
X172296584Y-124990965D01*
X172296586Y-124990970D01*
X172354853Y-125131640D01*
X172354856Y-125131646D01*
X172447551Y-125252447D01*
X172447552Y-125252448D01*
X172568353Y-125345143D01*
X172568359Y-125345146D01*
X172633106Y-125371965D01*
X172709033Y-125403415D01*
X172784516Y-125413352D01*
X172859999Y-125423290D01*
X172860000Y-125423290D01*
X172860001Y-125423290D01*
X172910322Y-125416665D01*
X173010967Y-125403415D01*
X173151645Y-125345144D01*
X173272448Y-125252448D01*
X173365144Y-125131645D01*
X173423415Y-124990967D01*
X173443290Y-124840001D01*
X174816710Y-124840001D01*
X174836584Y-124990965D01*
X174836586Y-124990970D01*
X174894853Y-125131640D01*
X174894856Y-125131646D01*
X174987551Y-125252447D01*
X174987552Y-125252448D01*
X175108353Y-125345143D01*
X175108359Y-125345146D01*
X175173106Y-125371965D01*
X175249033Y-125403415D01*
X175324516Y-125413352D01*
X175399999Y-125423290D01*
X175400000Y-125423290D01*
X175400001Y-125423290D01*
X175450322Y-125416665D01*
X175550967Y-125403415D01*
X175691645Y-125345144D01*
X175812448Y-125252448D01*
X175905144Y-125131645D01*
X175963415Y-124990967D01*
X175983290Y-124840000D01*
X175978372Y-124802647D01*
X175963415Y-124689034D01*
X175963413Y-124689029D01*
X175905146Y-124548359D01*
X175905143Y-124548353D01*
X175812448Y-124427552D01*
X175812447Y-124427551D01*
X175691646Y-124334856D01*
X175691640Y-124334853D01*
X175550970Y-124276586D01*
X175550965Y-124276584D01*
X175400001Y-124256710D01*
X175399999Y-124256710D01*
X175249034Y-124276584D01*
X175249029Y-124276586D01*
X175108359Y-124334853D01*
X175108353Y-124334856D01*
X174987552Y-124427551D01*
X174987551Y-124427552D01*
X174894856Y-124548353D01*
X174894853Y-124548359D01*
X174836586Y-124689029D01*
X174836584Y-124689034D01*
X174816710Y-124839998D01*
X174816710Y-124840001D01*
X173443290Y-124840001D01*
X173443290Y-124840000D01*
X173438372Y-124802647D01*
X173423415Y-124689034D01*
X173423413Y-124689029D01*
X173365146Y-124548359D01*
X173365143Y-124548353D01*
X173272448Y-124427552D01*
X173272447Y-124427551D01*
X173151646Y-124334856D01*
X173151640Y-124334853D01*
X173010970Y-124276586D01*
X173010965Y-124276584D01*
X172860001Y-124256710D01*
X172859999Y-124256710D01*
X172709034Y-124276584D01*
X172709029Y-124276586D01*
X172568359Y-124334853D01*
X172568353Y-124334856D01*
X172447552Y-124427551D01*
X172447551Y-124427552D01*
X172354856Y-124548353D01*
X172354853Y-124548359D01*
X172296586Y-124689029D01*
X172296584Y-124689034D01*
X172276710Y-124839998D01*
X172276710Y-124840001D01*
X170903290Y-124840001D01*
X170903290Y-124840000D01*
X170898372Y-124802647D01*
X170883415Y-124689034D01*
X170883413Y-124689029D01*
X170825146Y-124548359D01*
X170825143Y-124548353D01*
X170732448Y-124427552D01*
X170732447Y-124427551D01*
X170611646Y-124334856D01*
X170611640Y-124334853D01*
X170470970Y-124276586D01*
X170470965Y-124276584D01*
X170320001Y-124256710D01*
X170319999Y-124256710D01*
X170169034Y-124276584D01*
X170169029Y-124276586D01*
X170028359Y-124334853D01*
X170028353Y-124334856D01*
X169907552Y-124427551D01*
X169907551Y-124427552D01*
X169814856Y-124548353D01*
X169814853Y-124548359D01*
X169756586Y-124689029D01*
X169756584Y-124689034D01*
X169736710Y-124839998D01*
X169736710Y-124840001D01*
X168363290Y-124840001D01*
X168363290Y-124840000D01*
X168358372Y-124802647D01*
X168343415Y-124689034D01*
X168343413Y-124689029D01*
X168285146Y-124548359D01*
X168285143Y-124548353D01*
X168192448Y-124427552D01*
X168192447Y-124427551D01*
X168071646Y-124334856D01*
X168071640Y-124334853D01*
X167930970Y-124276586D01*
X167930965Y-124276584D01*
X167780001Y-124256710D01*
X167779999Y-124256710D01*
X167629034Y-124276584D01*
X167629029Y-124276586D01*
X167488359Y-124334853D01*
X167488353Y-124334856D01*
X167367552Y-124427551D01*
X167367551Y-124427552D01*
X167274856Y-124548353D01*
X167274853Y-124548359D01*
X167216586Y-124689029D01*
X167216584Y-124689034D01*
X167196710Y-124839998D01*
X167196710Y-124840001D01*
X144263064Y-124840001D01*
X144310144Y-124778645D01*
X144368415Y-124637967D01*
X144388290Y-124487000D01*
X144380463Y-124427551D01*
X144368415Y-124336034D01*
X144368413Y-124336029D01*
X144310146Y-124195359D01*
X144310143Y-124195353D01*
X144217448Y-124074552D01*
X144217447Y-124074551D01*
X144096646Y-123981856D01*
X144096640Y-123981853D01*
X144022156Y-123951001D01*
X159703710Y-123951001D01*
X159723584Y-124101965D01*
X159723586Y-124101970D01*
X159781853Y-124242640D01*
X159781856Y-124242646D01*
X159874551Y-124363447D01*
X159874552Y-124363448D01*
X159995353Y-124456143D01*
X159995359Y-124456146D01*
X160065694Y-124485279D01*
X160136033Y-124514415D01*
X160211516Y-124524352D01*
X160286999Y-124534290D01*
X160287000Y-124534290D01*
X160287001Y-124534290D01*
X160337322Y-124527665D01*
X160437967Y-124514415D01*
X160578645Y-124456144D01*
X160699448Y-124363448D01*
X160792144Y-124242645D01*
X160850415Y-124101967D01*
X160870290Y-123951000D01*
X160850415Y-123800033D01*
X160792144Y-123659355D01*
X160792143Y-123659353D01*
X160699448Y-123538552D01*
X160699447Y-123538551D01*
X160578646Y-123445856D01*
X160578640Y-123445853D01*
X160437970Y-123387586D01*
X160437965Y-123387584D01*
X160287001Y-123367710D01*
X160286999Y-123367710D01*
X160136034Y-123387584D01*
X160136029Y-123387586D01*
X159995359Y-123445853D01*
X159995353Y-123445856D01*
X159874552Y-123538551D01*
X159874551Y-123538552D01*
X159781856Y-123659353D01*
X159781853Y-123659359D01*
X159723586Y-123800029D01*
X159723584Y-123800034D01*
X159703710Y-123950998D01*
X159703710Y-123951001D01*
X144022156Y-123951001D01*
X143955970Y-123923586D01*
X143955965Y-123923584D01*
X143805001Y-123903710D01*
X143804999Y-123903710D01*
X143654034Y-123923584D01*
X143654029Y-123923586D01*
X143513359Y-123981853D01*
X143513353Y-123981856D01*
X143392552Y-124074551D01*
X143392551Y-124074552D01*
X143299856Y-124195353D01*
X143299853Y-124195359D01*
X143241586Y-124336029D01*
X143241584Y-124336034D01*
X143221710Y-124486998D01*
X143221710Y-124487001D01*
X141796300Y-124487001D01*
X141796300Y-122300001D01*
X164656710Y-122300001D01*
X164676584Y-122450965D01*
X164676586Y-122450970D01*
X164734853Y-122591640D01*
X164734856Y-122591646D01*
X164827551Y-122712447D01*
X164827552Y-122712448D01*
X164948353Y-122805143D01*
X164948359Y-122805146D01*
X165018694Y-122834279D01*
X165089033Y-122863415D01*
X165164516Y-122873352D01*
X165239999Y-122883290D01*
X165240000Y-122883290D01*
X165240001Y-122883290D01*
X165290322Y-122876665D01*
X165390967Y-122863415D01*
X165531645Y-122805144D01*
X165652448Y-122712448D01*
X165745144Y-122591645D01*
X165803415Y-122450967D01*
X165823290Y-122300001D01*
X167196710Y-122300001D01*
X167216584Y-122450965D01*
X167216586Y-122450970D01*
X167274853Y-122591640D01*
X167274856Y-122591646D01*
X167367551Y-122712447D01*
X167367552Y-122712448D01*
X167488353Y-122805143D01*
X167488359Y-122805146D01*
X167558694Y-122834279D01*
X167629033Y-122863415D01*
X167704516Y-122873352D01*
X167779999Y-122883290D01*
X167780000Y-122883290D01*
X167780001Y-122883290D01*
X167830322Y-122876665D01*
X167930967Y-122863415D01*
X168071645Y-122805144D01*
X168192448Y-122712448D01*
X168285144Y-122591645D01*
X168343415Y-122450967D01*
X168363290Y-122300001D01*
X169736710Y-122300001D01*
X169756584Y-122450965D01*
X169756586Y-122450970D01*
X169814853Y-122591640D01*
X169814856Y-122591646D01*
X169907551Y-122712447D01*
X169907552Y-122712448D01*
X170028353Y-122805143D01*
X170028359Y-122805146D01*
X170098694Y-122834279D01*
X170169033Y-122863415D01*
X170244516Y-122873352D01*
X170319999Y-122883290D01*
X170320000Y-122883290D01*
X170320001Y-122883290D01*
X170370322Y-122876665D01*
X170470967Y-122863415D01*
X170611645Y-122805144D01*
X170732448Y-122712448D01*
X170825144Y-122591645D01*
X170883415Y-122450967D01*
X170903290Y-122300001D01*
X172276710Y-122300001D01*
X172296584Y-122450965D01*
X172296586Y-122450970D01*
X172354853Y-122591640D01*
X172354856Y-122591646D01*
X172447551Y-122712447D01*
X172447552Y-122712448D01*
X172568353Y-122805143D01*
X172568359Y-122805146D01*
X172638694Y-122834279D01*
X172709033Y-122863415D01*
X172784516Y-122873352D01*
X172859999Y-122883290D01*
X172860000Y-122883290D01*
X172860001Y-122883290D01*
X172910322Y-122876665D01*
X173010967Y-122863415D01*
X173151645Y-122805144D01*
X173272448Y-122712448D01*
X173365144Y-122591645D01*
X173423415Y-122450967D01*
X173443290Y-122300001D01*
X174816710Y-122300001D01*
X174836584Y-122450965D01*
X174836586Y-122450970D01*
X174894853Y-122591640D01*
X174894856Y-122591646D01*
X174987551Y-122712447D01*
X174987552Y-122712448D01*
X175108353Y-122805143D01*
X175108359Y-122805146D01*
X175178694Y-122834279D01*
X175249033Y-122863415D01*
X175324516Y-122873352D01*
X175399999Y-122883290D01*
X175400000Y-122883290D01*
X175400001Y-122883290D01*
X175450322Y-122876665D01*
X175550967Y-122863415D01*
X175691645Y-122805144D01*
X175812448Y-122712448D01*
X175905144Y-122591645D01*
X175963415Y-122450967D01*
X175983290Y-122300000D01*
X175963415Y-122149033D01*
X175905144Y-122008355D01*
X175905143Y-122008353D01*
X175812448Y-121887552D01*
X175812447Y-121887551D01*
X175691646Y-121794856D01*
X175691640Y-121794853D01*
X175550970Y-121736586D01*
X175550965Y-121736584D01*
X175400001Y-121716710D01*
X175399999Y-121716710D01*
X175249034Y-121736584D01*
X175249029Y-121736586D01*
X175108359Y-121794853D01*
X175108353Y-121794856D01*
X174987552Y-121887551D01*
X174987551Y-121887552D01*
X174894856Y-122008353D01*
X174894853Y-122008359D01*
X174836586Y-122149029D01*
X174836584Y-122149034D01*
X174816710Y-122299998D01*
X174816710Y-122300001D01*
X173443290Y-122300001D01*
X173443290Y-122300000D01*
X173423415Y-122149033D01*
X173365144Y-122008355D01*
X173365143Y-122008353D01*
X173272448Y-121887552D01*
X173272447Y-121887551D01*
X173151646Y-121794856D01*
X173151640Y-121794853D01*
X173010970Y-121736586D01*
X173010965Y-121736584D01*
X172860001Y-121716710D01*
X172859999Y-121716710D01*
X172709034Y-121736584D01*
X172709029Y-121736586D01*
X172568359Y-121794853D01*
X172568353Y-121794856D01*
X172447552Y-121887551D01*
X172447551Y-121887552D01*
X172354856Y-122008353D01*
X172354853Y-122008359D01*
X172296586Y-122149029D01*
X172296584Y-122149034D01*
X172276710Y-122299998D01*
X172276710Y-122300001D01*
X170903290Y-122300001D01*
X170903290Y-122300000D01*
X170883415Y-122149033D01*
X170825144Y-122008355D01*
X170825143Y-122008353D01*
X170732448Y-121887552D01*
X170732447Y-121887551D01*
X170611646Y-121794856D01*
X170611640Y-121794853D01*
X170470970Y-121736586D01*
X170470965Y-121736584D01*
X170320001Y-121716710D01*
X170319999Y-121716710D01*
X170169034Y-121736584D01*
X170169029Y-121736586D01*
X170028359Y-121794853D01*
X170028353Y-121794856D01*
X169907552Y-121887551D01*
X169907551Y-121887552D01*
X169814856Y-122008353D01*
X169814853Y-122008359D01*
X169756586Y-122149029D01*
X169756584Y-122149034D01*
X169736710Y-122299998D01*
X169736710Y-122300001D01*
X168363290Y-122300001D01*
X168363290Y-122300000D01*
X168343415Y-122149033D01*
X168285144Y-122008355D01*
X168285143Y-122008353D01*
X168192448Y-121887552D01*
X168192447Y-121887551D01*
X168071646Y-121794856D01*
X168071640Y-121794853D01*
X167930970Y-121736586D01*
X167930965Y-121736584D01*
X167780001Y-121716710D01*
X167779999Y-121716710D01*
X167629034Y-121736584D01*
X167629029Y-121736586D01*
X167488359Y-121794853D01*
X167488353Y-121794856D01*
X167367552Y-121887551D01*
X167367551Y-121887552D01*
X167274856Y-122008353D01*
X167274853Y-122008359D01*
X167216586Y-122149029D01*
X167216584Y-122149034D01*
X167196710Y-122299998D01*
X167196710Y-122300001D01*
X165823290Y-122300001D01*
X165823290Y-122300000D01*
X165803415Y-122149033D01*
X165745144Y-122008355D01*
X165745143Y-122008353D01*
X165652448Y-121887552D01*
X165652447Y-121887551D01*
X165531646Y-121794856D01*
X165531640Y-121794853D01*
X165390970Y-121736586D01*
X165390965Y-121736584D01*
X165240001Y-121716710D01*
X165239999Y-121716710D01*
X165089034Y-121736584D01*
X165089029Y-121736586D01*
X164948359Y-121794853D01*
X164948353Y-121794856D01*
X164827552Y-121887551D01*
X164827551Y-121887552D01*
X164734856Y-122008353D01*
X164734853Y-122008359D01*
X164676586Y-122149029D01*
X164676584Y-122149034D01*
X164656710Y-122299998D01*
X164656710Y-122300001D01*
X141796300Y-122300001D01*
X141796300Y-121622701D01*
X155639710Y-121622701D01*
X155659584Y-121773665D01*
X155659586Y-121773670D01*
X155717853Y-121914340D01*
X155717856Y-121914346D01*
X155810551Y-122035147D01*
X155810552Y-122035148D01*
X155931353Y-122127843D01*
X155931359Y-122127846D01*
X155982512Y-122149034D01*
X156072033Y-122186115D01*
X156147516Y-122196052D01*
X156222999Y-122205990D01*
X156223000Y-122205990D01*
X156223001Y-122205990D01*
X156273322Y-122199365D01*
X156373967Y-122186115D01*
X156514645Y-122127844D01*
X156635448Y-122035148D01*
X156728144Y-121914345D01*
X156786415Y-121773667D01*
X156806290Y-121622700D01*
X156786415Y-121471733D01*
X156728144Y-121331055D01*
X156728143Y-121331053D01*
X156635448Y-121210252D01*
X156635447Y-121210251D01*
X156514646Y-121117556D01*
X156514640Y-121117553D01*
X156373970Y-121059286D01*
X156373965Y-121059284D01*
X156223001Y-121039410D01*
X156222999Y-121039410D01*
X156072034Y-121059284D01*
X156072029Y-121059286D01*
X155931359Y-121117553D01*
X155931353Y-121117556D01*
X155810552Y-121210251D01*
X155810551Y-121210252D01*
X155717856Y-121331053D01*
X155717853Y-121331059D01*
X155659586Y-121471729D01*
X155659584Y-121471734D01*
X155639710Y-121622698D01*
X155639710Y-121622701D01*
X141796300Y-121622701D01*
X141796300Y-120909201D01*
X157016710Y-120909201D01*
X157036584Y-121060165D01*
X157036586Y-121060170D01*
X157094853Y-121200840D01*
X157094856Y-121200846D01*
X157187551Y-121321647D01*
X157187552Y-121321648D01*
X157308353Y-121414343D01*
X157308359Y-121414346D01*
X157378694Y-121443479D01*
X157449033Y-121472615D01*
X157524516Y-121482552D01*
X157599999Y-121492490D01*
X157600000Y-121492490D01*
X157600001Y-121492490D01*
X157650322Y-121485865D01*
X157750967Y-121472615D01*
X157891645Y-121414344D01*
X158012448Y-121321648D01*
X158105144Y-121200845D01*
X158163415Y-121060167D01*
X158183290Y-120909200D01*
X158163415Y-120758233D01*
X158105144Y-120617555D01*
X158105143Y-120617553D01*
X158012448Y-120496752D01*
X158012447Y-120496751D01*
X157891646Y-120404056D01*
X157891640Y-120404053D01*
X157750970Y-120345786D01*
X157750965Y-120345784D01*
X157600001Y-120325910D01*
X157599999Y-120325910D01*
X157449034Y-120345784D01*
X157449029Y-120345786D01*
X157308359Y-120404053D01*
X157308353Y-120404056D01*
X157187552Y-120496751D01*
X157187551Y-120496752D01*
X157094856Y-120617553D01*
X157094853Y-120617559D01*
X157036586Y-120758229D01*
X157036584Y-120758234D01*
X157016710Y-120909198D01*
X157016710Y-120909201D01*
X141796300Y-120909201D01*
X141796300Y-120019000D01*
X147987782Y-120019000D01*
X148007356Y-120155139D01*
X148007356Y-120155140D01*
X148064488Y-120280243D01*
X148064490Y-120280245D01*
X148064491Y-120280247D01*
X148154560Y-120384192D01*
X148270264Y-120458551D01*
X148336247Y-120477925D01*
X148402230Y-120497300D01*
X148402231Y-120497300D01*
X148539769Y-120497300D01*
X148671736Y-120458551D01*
X148787440Y-120384192D01*
X148877509Y-120280247D01*
X148934644Y-120155138D01*
X148954218Y-120019000D01*
X149262782Y-120019000D01*
X149282356Y-120155139D01*
X149282356Y-120155140D01*
X149339488Y-120280243D01*
X149339490Y-120280245D01*
X149339491Y-120280247D01*
X149429560Y-120384192D01*
X149545264Y-120458551D01*
X149611247Y-120477925D01*
X149677230Y-120497300D01*
X149677231Y-120497300D01*
X149814769Y-120497300D01*
X149946736Y-120458551D01*
X150062440Y-120384192D01*
X150152509Y-120280247D01*
X150209644Y-120155138D01*
X150229218Y-120019000D01*
X150537782Y-120019000D01*
X150557356Y-120155139D01*
X150557356Y-120155140D01*
X150614488Y-120280243D01*
X150614490Y-120280245D01*
X150614491Y-120280247D01*
X150704560Y-120384192D01*
X150820264Y-120458551D01*
X150886247Y-120477925D01*
X150952230Y-120497300D01*
X150952231Y-120497300D01*
X151089769Y-120497300D01*
X151221736Y-120458551D01*
X151337440Y-120384192D01*
X151427509Y-120280247D01*
X151484644Y-120155138D01*
X151504218Y-120019000D01*
X151484644Y-119882862D01*
X151445967Y-119798170D01*
X151427511Y-119757756D01*
X151427509Y-119757754D01*
X151427509Y-119757753D01*
X151337440Y-119653808D01*
X151221736Y-119579449D01*
X151221735Y-119579448D01*
X151221734Y-119579448D01*
X151089770Y-119540700D01*
X151089769Y-119540700D01*
X150952231Y-119540700D01*
X150952230Y-119540700D01*
X150820265Y-119579448D01*
X150774237Y-119609029D01*
X150704560Y-119653808D01*
X150704558Y-119653809D01*
X150704558Y-119653810D01*
X150614491Y-119757753D01*
X150614488Y-119757756D01*
X150557356Y-119882859D01*
X150557356Y-119882860D01*
X150537782Y-120019000D01*
X150229218Y-120019000D01*
X150209644Y-119882862D01*
X150170967Y-119798170D01*
X150152511Y-119757756D01*
X150152509Y-119757754D01*
X150152509Y-119757753D01*
X150062440Y-119653808D01*
X149946736Y-119579449D01*
X149946735Y-119579448D01*
X149946734Y-119579448D01*
X149814770Y-119540700D01*
X149814769Y-119540700D01*
X149677231Y-119540700D01*
X149677230Y-119540700D01*
X149545265Y-119579448D01*
X149499237Y-119609029D01*
X149429560Y-119653808D01*
X149429558Y-119653809D01*
X149429558Y-119653810D01*
X149339491Y-119757753D01*
X149339488Y-119757756D01*
X149282356Y-119882859D01*
X149282356Y-119882860D01*
X149262782Y-120019000D01*
X148954218Y-120019000D01*
X148934644Y-119882862D01*
X148895967Y-119798170D01*
X148877511Y-119757756D01*
X148877509Y-119757754D01*
X148877509Y-119757753D01*
X148787440Y-119653808D01*
X148671736Y-119579449D01*
X148671735Y-119579448D01*
X148671734Y-119579448D01*
X148539770Y-119540700D01*
X148539769Y-119540700D01*
X148402231Y-119540700D01*
X148402230Y-119540700D01*
X148270265Y-119579448D01*
X148224237Y-119609029D01*
X148154560Y-119653808D01*
X148154558Y-119653809D01*
X148154558Y-119653810D01*
X148064491Y-119757753D01*
X148064488Y-119757756D01*
X148007356Y-119882859D01*
X148007356Y-119882860D01*
X147987782Y-120019000D01*
X141796300Y-120019000D01*
X141796300Y-118256455D01*
X141815985Y-118189416D01*
X141868789Y-118143661D01*
X141937947Y-118133717D01*
X141967750Y-118141893D01*
X142044333Y-118173615D01*
X142195300Y-118193490D01*
X142195302Y-118193489D01*
X142197113Y-118193728D01*
X142261009Y-118221994D01*
X142299481Y-118280318D01*
X142300313Y-118350183D01*
X142279308Y-118392148D01*
X142275464Y-118397156D01*
X142214956Y-118543237D01*
X142214955Y-118543239D01*
X142194318Y-118699998D01*
X142194318Y-118700001D01*
X142214955Y-118856760D01*
X142214956Y-118856762D01*
X142274019Y-118999354D01*
X142275464Y-119002841D01*
X142371718Y-119128282D01*
X142497159Y-119224536D01*
X142643238Y-119285044D01*
X142721619Y-119295363D01*
X142799999Y-119305682D01*
X142800000Y-119305682D01*
X142800001Y-119305682D01*
X142852254Y-119298802D01*
X142956762Y-119285044D01*
X143102841Y-119224536D01*
X143228282Y-119128282D01*
X143318660Y-119010498D01*
X143375085Y-118969297D01*
X143444831Y-118965142D01*
X143505752Y-118999354D01*
X143515404Y-119010492D01*
X143571718Y-119083882D01*
X143697159Y-119180136D01*
X143843238Y-119240644D01*
X143921619Y-119250963D01*
X143999999Y-119261282D01*
X144000000Y-119261282D01*
X144000001Y-119261282D01*
X144052254Y-119254402D01*
X144156762Y-119240644D01*
X144302841Y-119180136D01*
X144428282Y-119083882D01*
X144524536Y-118958441D01*
X144585044Y-118812362D01*
X144594044Y-118744000D01*
X147987782Y-118744000D01*
X148007356Y-118880139D01*
X148007356Y-118880140D01*
X148064488Y-119005243D01*
X148064490Y-119005245D01*
X148064491Y-119005247D01*
X148154560Y-119109192D01*
X148270264Y-119183551D01*
X148314654Y-119196585D01*
X148402230Y-119222300D01*
X148402231Y-119222300D01*
X148539769Y-119222300D01*
X148671736Y-119183551D01*
X148787440Y-119109192D01*
X148877509Y-119005247D01*
X148898885Y-118958441D01*
X148934643Y-118880140D01*
X148934644Y-118880138D01*
X148954218Y-118744000D01*
X149262782Y-118744000D01*
X149282356Y-118880139D01*
X149282356Y-118880140D01*
X149339488Y-119005243D01*
X149339490Y-119005245D01*
X149339491Y-119005247D01*
X149429560Y-119109192D01*
X149545264Y-119183551D01*
X149589654Y-119196585D01*
X149677230Y-119222300D01*
X149677231Y-119222300D01*
X149814769Y-119222300D01*
X149946736Y-119183551D01*
X150062440Y-119109192D01*
X150152509Y-119005247D01*
X150173885Y-118958441D01*
X150209643Y-118880140D01*
X150209644Y-118880138D01*
X150229218Y-118744000D01*
X150537782Y-118744000D01*
X150557356Y-118880139D01*
X150557356Y-118880140D01*
X150614488Y-119005243D01*
X150614490Y-119005245D01*
X150614491Y-119005247D01*
X150704560Y-119109192D01*
X150820264Y-119183551D01*
X150864654Y-119196585D01*
X150952230Y-119222300D01*
X150952231Y-119222300D01*
X151089769Y-119222300D01*
X151115036Y-119214881D01*
X158131590Y-119214881D01*
X158151464Y-119365845D01*
X158151466Y-119365850D01*
X158209733Y-119506520D01*
X158209736Y-119506526D01*
X158302431Y-119627327D01*
X158302432Y-119627328D01*
X158423233Y-119720023D01*
X158423239Y-119720026D01*
X158493574Y-119749159D01*
X158563913Y-119778295D01*
X158639396Y-119788232D01*
X158714879Y-119798170D01*
X158714880Y-119798170D01*
X158714881Y-119798170D01*
X158765202Y-119791545D01*
X158865847Y-119778295D01*
X158910012Y-119760001D01*
X164656710Y-119760001D01*
X164676584Y-119910965D01*
X164676586Y-119910970D01*
X164734853Y-120051640D01*
X164734856Y-120051646D01*
X164827551Y-120172447D01*
X164827552Y-120172448D01*
X164948353Y-120265143D01*
X164948359Y-120265146D01*
X165018694Y-120294279D01*
X165089033Y-120323415D01*
X165107985Y-120325910D01*
X165239999Y-120343290D01*
X165240000Y-120343290D01*
X165240001Y-120343290D01*
X165290322Y-120336665D01*
X165390967Y-120323415D01*
X165531645Y-120265144D01*
X165652448Y-120172448D01*
X165745144Y-120051645D01*
X165803415Y-119910967D01*
X165818265Y-119798170D01*
X165823290Y-119760001D01*
X167196710Y-119760001D01*
X167216584Y-119910965D01*
X167216586Y-119910970D01*
X167274853Y-120051640D01*
X167274856Y-120051646D01*
X167367551Y-120172447D01*
X167367552Y-120172448D01*
X167488353Y-120265143D01*
X167488359Y-120265146D01*
X167558694Y-120294279D01*
X167629033Y-120323415D01*
X167647985Y-120325910D01*
X167779999Y-120343290D01*
X167780000Y-120343290D01*
X167780001Y-120343290D01*
X167830322Y-120336665D01*
X167930967Y-120323415D01*
X168071645Y-120265144D01*
X168192448Y-120172448D01*
X168285144Y-120051645D01*
X168343415Y-119910967D01*
X168358265Y-119798170D01*
X168363290Y-119760001D01*
X169736710Y-119760001D01*
X169756584Y-119910965D01*
X169756586Y-119910970D01*
X169814853Y-120051640D01*
X169814856Y-120051646D01*
X169907551Y-120172447D01*
X169907552Y-120172448D01*
X170028353Y-120265143D01*
X170028359Y-120265146D01*
X170098694Y-120294279D01*
X170169033Y-120323415D01*
X170187985Y-120325910D01*
X170319999Y-120343290D01*
X170320000Y-120343290D01*
X170320001Y-120343290D01*
X170370322Y-120336665D01*
X170470967Y-120323415D01*
X170611645Y-120265144D01*
X170732448Y-120172448D01*
X170825144Y-120051645D01*
X170883415Y-119910967D01*
X170898265Y-119798170D01*
X170903290Y-119760001D01*
X172276710Y-119760001D01*
X172296584Y-119910965D01*
X172296586Y-119910970D01*
X172354853Y-120051640D01*
X172354856Y-120051646D01*
X172447551Y-120172447D01*
X172447552Y-120172448D01*
X172568353Y-120265143D01*
X172568359Y-120265146D01*
X172638694Y-120294279D01*
X172709033Y-120323415D01*
X172727985Y-120325910D01*
X172859999Y-120343290D01*
X172860000Y-120343290D01*
X172860001Y-120343290D01*
X172910322Y-120336665D01*
X173010967Y-120323415D01*
X173151645Y-120265144D01*
X173272448Y-120172448D01*
X173365144Y-120051645D01*
X173423415Y-119910967D01*
X173438265Y-119798170D01*
X173443290Y-119760001D01*
X174816710Y-119760001D01*
X174836584Y-119910965D01*
X174836586Y-119910970D01*
X174894853Y-120051640D01*
X174894856Y-120051646D01*
X174987551Y-120172447D01*
X174987552Y-120172448D01*
X175108353Y-120265143D01*
X175108359Y-120265146D01*
X175178694Y-120294279D01*
X175249033Y-120323415D01*
X175267985Y-120325910D01*
X175399999Y-120343290D01*
X175400000Y-120343290D01*
X175400001Y-120343290D01*
X175450322Y-120336665D01*
X175550967Y-120323415D01*
X175691645Y-120265144D01*
X175812448Y-120172448D01*
X175905144Y-120051645D01*
X175963415Y-119910967D01*
X175978265Y-119798170D01*
X175983290Y-119760001D01*
X175983290Y-119759998D01*
X175969310Y-119653807D01*
X175963415Y-119609033D01*
X175905144Y-119468355D01*
X175905143Y-119468353D01*
X175812448Y-119347552D01*
X175812447Y-119347551D01*
X175691646Y-119254856D01*
X175691640Y-119254853D01*
X175550970Y-119196586D01*
X175550965Y-119196584D01*
X175400001Y-119176710D01*
X175399999Y-119176710D01*
X175249034Y-119196584D01*
X175249029Y-119196586D01*
X175108359Y-119254853D01*
X175108353Y-119254856D01*
X174987552Y-119347551D01*
X174987551Y-119347552D01*
X174894856Y-119468353D01*
X174894853Y-119468359D01*
X174836586Y-119609029D01*
X174836584Y-119609034D01*
X174816710Y-119759998D01*
X174816710Y-119760001D01*
X173443290Y-119760001D01*
X173443290Y-119759998D01*
X173429310Y-119653807D01*
X173423415Y-119609033D01*
X173365144Y-119468355D01*
X173365143Y-119468353D01*
X173272448Y-119347552D01*
X173272447Y-119347551D01*
X173151646Y-119254856D01*
X173151640Y-119254853D01*
X173010970Y-119196586D01*
X173010965Y-119196584D01*
X172860001Y-119176710D01*
X172859999Y-119176710D01*
X172709034Y-119196584D01*
X172709029Y-119196586D01*
X172568359Y-119254853D01*
X172568353Y-119254856D01*
X172447552Y-119347551D01*
X172447551Y-119347552D01*
X172354856Y-119468353D01*
X172354853Y-119468359D01*
X172296586Y-119609029D01*
X172296584Y-119609034D01*
X172276710Y-119759998D01*
X172276710Y-119760001D01*
X170903290Y-119760001D01*
X170903290Y-119759998D01*
X170889310Y-119653807D01*
X170883415Y-119609033D01*
X170825144Y-119468355D01*
X170825143Y-119468353D01*
X170732448Y-119347552D01*
X170732447Y-119347551D01*
X170611646Y-119254856D01*
X170611640Y-119254853D01*
X170470970Y-119196586D01*
X170470965Y-119196584D01*
X170320001Y-119176710D01*
X170319999Y-119176710D01*
X170169034Y-119196584D01*
X170169029Y-119196586D01*
X170028359Y-119254853D01*
X170028353Y-119254856D01*
X169907552Y-119347551D01*
X169907551Y-119347552D01*
X169814856Y-119468353D01*
X169814853Y-119468359D01*
X169756586Y-119609029D01*
X169756584Y-119609034D01*
X169736710Y-119759998D01*
X169736710Y-119760001D01*
X168363290Y-119760001D01*
X168363290Y-119759998D01*
X168349310Y-119653807D01*
X168343415Y-119609033D01*
X168285144Y-119468355D01*
X168285143Y-119468353D01*
X168192448Y-119347552D01*
X168192447Y-119347551D01*
X168071646Y-119254856D01*
X168071640Y-119254853D01*
X167930970Y-119196586D01*
X167930965Y-119196584D01*
X167780001Y-119176710D01*
X167779999Y-119176710D01*
X167629034Y-119196584D01*
X167629029Y-119196586D01*
X167488359Y-119254853D01*
X167488353Y-119254856D01*
X167367552Y-119347551D01*
X167367551Y-119347552D01*
X167274856Y-119468353D01*
X167274853Y-119468359D01*
X167216586Y-119609029D01*
X167216584Y-119609034D01*
X167196710Y-119759998D01*
X167196710Y-119760001D01*
X165823290Y-119760001D01*
X165823290Y-119759998D01*
X165809310Y-119653807D01*
X165803415Y-119609033D01*
X165745144Y-119468355D01*
X165745143Y-119468353D01*
X165652448Y-119347552D01*
X165652447Y-119347551D01*
X165531646Y-119254856D01*
X165531640Y-119254853D01*
X165390970Y-119196586D01*
X165390965Y-119196584D01*
X165240001Y-119176710D01*
X165239999Y-119176710D01*
X165089034Y-119196584D01*
X165089029Y-119196586D01*
X164948359Y-119254853D01*
X164948353Y-119254856D01*
X164827552Y-119347551D01*
X164827551Y-119347552D01*
X164734856Y-119468353D01*
X164734853Y-119468359D01*
X164676586Y-119609029D01*
X164676584Y-119609034D01*
X164656710Y-119759998D01*
X164656710Y-119760001D01*
X158910012Y-119760001D01*
X159006525Y-119720024D01*
X159127328Y-119627328D01*
X159220024Y-119506525D01*
X159278295Y-119365847D01*
X159298170Y-119214880D01*
X159295761Y-119196585D01*
X159278295Y-119063914D01*
X159278293Y-119063909D01*
X159256170Y-119010500D01*
X159220024Y-118923235D01*
X159220023Y-118923233D01*
X159127328Y-118802432D01*
X159127327Y-118802431D01*
X159006526Y-118709736D01*
X159006520Y-118709733D01*
X158865850Y-118651466D01*
X158865845Y-118651464D01*
X158714881Y-118631590D01*
X158714879Y-118631590D01*
X158563914Y-118651464D01*
X158563909Y-118651466D01*
X158423239Y-118709733D01*
X158423233Y-118709736D01*
X158302432Y-118802431D01*
X158302431Y-118802432D01*
X158209736Y-118923233D01*
X158209733Y-118923239D01*
X158151466Y-119063909D01*
X158151464Y-119063914D01*
X158131590Y-119214878D01*
X158131590Y-119214881D01*
X151115036Y-119214881D01*
X151221736Y-119183551D01*
X151337440Y-119109192D01*
X151427509Y-119005247D01*
X151448885Y-118958441D01*
X151484643Y-118880140D01*
X151484644Y-118880138D01*
X151504218Y-118744000D01*
X151484644Y-118607862D01*
X151484643Y-118607859D01*
X151427511Y-118482756D01*
X151427509Y-118482754D01*
X151427509Y-118482753D01*
X151337440Y-118378808D01*
X151221736Y-118304449D01*
X151221735Y-118304448D01*
X151221734Y-118304448D01*
X151089770Y-118265700D01*
X151089769Y-118265700D01*
X150952231Y-118265700D01*
X150952230Y-118265700D01*
X150820265Y-118304448D01*
X150805116Y-118314184D01*
X150704560Y-118378808D01*
X150704558Y-118378809D01*
X150704558Y-118378810D01*
X150614491Y-118482753D01*
X150614488Y-118482756D01*
X150557356Y-118607859D01*
X150557356Y-118607860D01*
X150537782Y-118744000D01*
X150229218Y-118744000D01*
X150209644Y-118607862D01*
X150209643Y-118607859D01*
X150152511Y-118482756D01*
X150152509Y-118482754D01*
X150152509Y-118482753D01*
X150062440Y-118378808D01*
X149946736Y-118304449D01*
X149946735Y-118304448D01*
X149946734Y-118304448D01*
X149814770Y-118265700D01*
X149814769Y-118265700D01*
X149677231Y-118265700D01*
X149677230Y-118265700D01*
X149545265Y-118304448D01*
X149530116Y-118314184D01*
X149429560Y-118378808D01*
X149429558Y-118378809D01*
X149429558Y-118378810D01*
X149339491Y-118482753D01*
X149339488Y-118482756D01*
X149282356Y-118607859D01*
X149282356Y-118607860D01*
X149262782Y-118744000D01*
X148954218Y-118744000D01*
X148934644Y-118607862D01*
X148934643Y-118607859D01*
X148877511Y-118482756D01*
X148877509Y-118482754D01*
X148877509Y-118482753D01*
X148787440Y-118378808D01*
X148671736Y-118304449D01*
X148671735Y-118304448D01*
X148671734Y-118304448D01*
X148539770Y-118265700D01*
X148539769Y-118265700D01*
X148402231Y-118265700D01*
X148402230Y-118265700D01*
X148270265Y-118304448D01*
X148255116Y-118314184D01*
X148154560Y-118378808D01*
X148154558Y-118378809D01*
X148154558Y-118378810D01*
X148064491Y-118482753D01*
X148064488Y-118482756D01*
X148007356Y-118607859D01*
X148007356Y-118607860D01*
X147987782Y-118744000D01*
X144594044Y-118744000D01*
X144605682Y-118655600D01*
X144605137Y-118651464D01*
X144585044Y-118498839D01*
X144585044Y-118498838D01*
X144524536Y-118352759D01*
X144428282Y-118227318D01*
X144302841Y-118131064D01*
X144292626Y-118126833D01*
X144156762Y-118070556D01*
X144156760Y-118070555D01*
X144000001Y-118049918D01*
X143999999Y-118049918D01*
X143843239Y-118070555D01*
X143843237Y-118070556D01*
X143697160Y-118131063D01*
X143616498Y-118192957D01*
X143571718Y-118227318D01*
X143512534Y-118304449D01*
X143481341Y-118345100D01*
X143424913Y-118386302D01*
X143355166Y-118390457D01*
X143294246Y-118356244D01*
X143284589Y-118345099D01*
X143228283Y-118271719D01*
X143220009Y-118265370D01*
X143102841Y-118175464D01*
X143098377Y-118173615D01*
X142956762Y-118114956D01*
X142956760Y-118114955D01*
X142791942Y-118093257D01*
X142792259Y-118090843D01*
X142737055Y-118074633D01*
X142691300Y-118021829D01*
X142681356Y-117952671D01*
X142696708Y-117908315D01*
X142700439Y-117901850D01*
X142700444Y-117901845D01*
X142758715Y-117761167D01*
X142778590Y-117610200D01*
X142760001Y-117469000D01*
X147987782Y-117469000D01*
X148007356Y-117605139D01*
X148007356Y-117605140D01*
X148064488Y-117730243D01*
X148064490Y-117730245D01*
X148064491Y-117730247D01*
X148154560Y-117834192D01*
X148270264Y-117908551D01*
X148336247Y-117927925D01*
X148402230Y-117947300D01*
X148402231Y-117947300D01*
X148539769Y-117947300D01*
X148671736Y-117908551D01*
X148787440Y-117834192D01*
X148877509Y-117730247D01*
X148879840Y-117725144D01*
X148934643Y-117605140D01*
X148934644Y-117605138D01*
X148954218Y-117469000D01*
X149262782Y-117469000D01*
X149282356Y-117605139D01*
X149282356Y-117605140D01*
X149339488Y-117730243D01*
X149339490Y-117730245D01*
X149339491Y-117730247D01*
X149429560Y-117834192D01*
X149545264Y-117908551D01*
X149611247Y-117927925D01*
X149677230Y-117947300D01*
X149677231Y-117947300D01*
X149814769Y-117947300D01*
X149946736Y-117908551D01*
X150062440Y-117834192D01*
X150152509Y-117730247D01*
X150154840Y-117725144D01*
X150209643Y-117605140D01*
X150209644Y-117605138D01*
X150229218Y-117469000D01*
X150537782Y-117469000D01*
X150557356Y-117605139D01*
X150557356Y-117605140D01*
X150614488Y-117730243D01*
X150614490Y-117730245D01*
X150614491Y-117730247D01*
X150704560Y-117834192D01*
X150820264Y-117908551D01*
X150886247Y-117927925D01*
X150952230Y-117947300D01*
X150952231Y-117947300D01*
X151089769Y-117947300D01*
X151221736Y-117908551D01*
X151337440Y-117834192D01*
X151367067Y-117800001D01*
X154516710Y-117800001D01*
X154536584Y-117950965D01*
X154536586Y-117950970D01*
X154594853Y-118091640D01*
X154594856Y-118091646D01*
X154687551Y-118212447D01*
X154687552Y-118212448D01*
X154808353Y-118305143D01*
X154808359Y-118305146D01*
X154829165Y-118313764D01*
X154949033Y-118363415D01*
X155024516Y-118373352D01*
X155099999Y-118383290D01*
X155100000Y-118383290D01*
X155100001Y-118383290D01*
X155150322Y-118376665D01*
X155250967Y-118363415D01*
X155391645Y-118305144D01*
X155428939Y-118276526D01*
X155494105Y-118251333D01*
X155562550Y-118265370D01*
X155612540Y-118314184D01*
X155627363Y-118358718D01*
X155636584Y-118428765D01*
X155636586Y-118428770D01*
X155694853Y-118569440D01*
X155694856Y-118569446D01*
X155787551Y-118690247D01*
X155787552Y-118690248D01*
X155908353Y-118782943D01*
X155908359Y-118782946D01*
X155955403Y-118802432D01*
X156049033Y-118841215D01*
X156124516Y-118851152D01*
X156199999Y-118861090D01*
X156200000Y-118861090D01*
X156200001Y-118861090D01*
X156250322Y-118854465D01*
X156350967Y-118841215D01*
X156491645Y-118782944D01*
X156612448Y-118690248D01*
X156617014Y-118684296D01*
X156673439Y-118643093D01*
X156743185Y-118638936D01*
X156804107Y-118673147D01*
X156836861Y-118734863D01*
X156838330Y-118743595D01*
X156840012Y-118756370D01*
X156840013Y-118756375D01*
X156898280Y-118897045D01*
X156898283Y-118897051D01*
X156990978Y-119017852D01*
X156990979Y-119017853D01*
X157111780Y-119110548D01*
X157111786Y-119110551D01*
X157154593Y-119128282D01*
X157252460Y-119168820D01*
X157312391Y-119176710D01*
X157403426Y-119188695D01*
X157403427Y-119188695D01*
X157403428Y-119188695D01*
X157453749Y-119182070D01*
X157554394Y-119168820D01*
X157695072Y-119110549D01*
X157815875Y-119017853D01*
X157908571Y-118897050D01*
X157966842Y-118756372D01*
X157986717Y-118605405D01*
X157966842Y-118454438D01*
X157926169Y-118356244D01*
X157908573Y-118313764D01*
X157908570Y-118313758D01*
X157815875Y-118192957D01*
X157815874Y-118192956D01*
X157695073Y-118100261D01*
X157695067Y-118100258D01*
X157554397Y-118041991D01*
X157554392Y-118041989D01*
X157403428Y-118022115D01*
X157403426Y-118022115D01*
X157252461Y-118041989D01*
X157252456Y-118041991D01*
X157111786Y-118100258D01*
X157111780Y-118100261D01*
X156990979Y-118192956D01*
X156990975Y-118192960D01*
X156986406Y-118198915D01*
X156929976Y-118240115D01*
X156860230Y-118244265D01*
X156799312Y-118210049D01*
X156766562Y-118148330D01*
X156765101Y-118139640D01*
X156763415Y-118126833D01*
X156705144Y-117986155D01*
X156705143Y-117986153D01*
X156612448Y-117865352D01*
X156612447Y-117865351D01*
X156491646Y-117772656D01*
X156491640Y-117772653D01*
X156350970Y-117714386D01*
X156350965Y-117714384D01*
X156200001Y-117694510D01*
X156199999Y-117694510D01*
X156049034Y-117714384D01*
X156049029Y-117714386D01*
X155908359Y-117772653D01*
X155908355Y-117772655D01*
X155871060Y-117801273D01*
X155805891Y-117826466D01*
X155737446Y-117812427D01*
X155687457Y-117763613D01*
X155672637Y-117719083D01*
X155663415Y-117649033D01*
X155634279Y-117578694D01*
X155605146Y-117508359D01*
X155605143Y-117508353D01*
X155512448Y-117387552D01*
X155512447Y-117387551D01*
X155391646Y-117294856D01*
X155391640Y-117294853D01*
X155250970Y-117236586D01*
X155250965Y-117236584D01*
X155125000Y-117220001D01*
X164656710Y-117220001D01*
X164676584Y-117370965D01*
X164676586Y-117370970D01*
X164734853Y-117511640D01*
X164734856Y-117511646D01*
X164827551Y-117632447D01*
X164827552Y-117632448D01*
X164948353Y-117725143D01*
X164948359Y-117725146D01*
X165018694Y-117754279D01*
X165089033Y-117783415D01*
X165164516Y-117793352D01*
X165239999Y-117803290D01*
X165240000Y-117803290D01*
X165240001Y-117803290D01*
X165290322Y-117796665D01*
X165390967Y-117783415D01*
X165531645Y-117725144D01*
X165652448Y-117632448D01*
X165745144Y-117511645D01*
X165803415Y-117370967D01*
X165816665Y-117270322D01*
X165823290Y-117220001D01*
X167196710Y-117220001D01*
X167216584Y-117370965D01*
X167216586Y-117370970D01*
X167274853Y-117511640D01*
X167274856Y-117511646D01*
X167367551Y-117632447D01*
X167367552Y-117632448D01*
X167488353Y-117725143D01*
X167488359Y-117725146D01*
X167558694Y-117754279D01*
X167629033Y-117783415D01*
X167704516Y-117793352D01*
X167779999Y-117803290D01*
X167780000Y-117803290D01*
X167780001Y-117803290D01*
X167830322Y-117796665D01*
X167930967Y-117783415D01*
X168071645Y-117725144D01*
X168192448Y-117632448D01*
X168285144Y-117511645D01*
X168343415Y-117370967D01*
X168356665Y-117270322D01*
X168363290Y-117220001D01*
X169736710Y-117220001D01*
X169756584Y-117370965D01*
X169756586Y-117370970D01*
X169814853Y-117511640D01*
X169814856Y-117511646D01*
X169907551Y-117632447D01*
X169907552Y-117632448D01*
X170028353Y-117725143D01*
X170028359Y-117725146D01*
X170098694Y-117754279D01*
X170169033Y-117783415D01*
X170244516Y-117793352D01*
X170319999Y-117803290D01*
X170320000Y-117803290D01*
X170320001Y-117803290D01*
X170370322Y-117796665D01*
X170470967Y-117783415D01*
X170611645Y-117725144D01*
X170732448Y-117632448D01*
X170825144Y-117511645D01*
X170883415Y-117370967D01*
X170896665Y-117270322D01*
X170903290Y-117220001D01*
X172276710Y-117220001D01*
X172296584Y-117370965D01*
X172296586Y-117370970D01*
X172354853Y-117511640D01*
X172354856Y-117511646D01*
X172447551Y-117632447D01*
X172447552Y-117632448D01*
X172568353Y-117725143D01*
X172568359Y-117725146D01*
X172638694Y-117754279D01*
X172709033Y-117783415D01*
X172784516Y-117793352D01*
X172859999Y-117803290D01*
X172860000Y-117803290D01*
X172860001Y-117803290D01*
X172910322Y-117796665D01*
X173010967Y-117783415D01*
X173151645Y-117725144D01*
X173272448Y-117632448D01*
X173365144Y-117511645D01*
X173423415Y-117370967D01*
X173436665Y-117270322D01*
X173443290Y-117220001D01*
X174816710Y-117220001D01*
X174836584Y-117370965D01*
X174836586Y-117370970D01*
X174894853Y-117511640D01*
X174894856Y-117511646D01*
X174987551Y-117632447D01*
X174987552Y-117632448D01*
X175108353Y-117725143D01*
X175108359Y-117725146D01*
X175178694Y-117754279D01*
X175249033Y-117783415D01*
X175324516Y-117793352D01*
X175399999Y-117803290D01*
X175400000Y-117803290D01*
X175400001Y-117803290D01*
X175450322Y-117796665D01*
X175550967Y-117783415D01*
X175691645Y-117725144D01*
X175812448Y-117632448D01*
X175905144Y-117511645D01*
X175963415Y-117370967D01*
X175976665Y-117270322D01*
X175983290Y-117220001D01*
X175983290Y-117219998D01*
X175963415Y-117069034D01*
X175963413Y-117069029D01*
X175954199Y-117046785D01*
X175905144Y-116928355D01*
X175905143Y-116928353D01*
X175812448Y-116807552D01*
X175812447Y-116807551D01*
X175691646Y-116714856D01*
X175691640Y-116714853D01*
X175550970Y-116656586D01*
X175550965Y-116656584D01*
X175400001Y-116636710D01*
X175399999Y-116636710D01*
X175249034Y-116656584D01*
X175249029Y-116656586D01*
X175108359Y-116714853D01*
X175108353Y-116714856D01*
X174987552Y-116807551D01*
X174987551Y-116807552D01*
X174894856Y-116928353D01*
X174894853Y-116928359D01*
X174836586Y-117069029D01*
X174836584Y-117069034D01*
X174816710Y-117219998D01*
X174816710Y-117220001D01*
X173443290Y-117220001D01*
X173443290Y-117219998D01*
X173423415Y-117069034D01*
X173423413Y-117069029D01*
X173414199Y-117046785D01*
X173365144Y-116928355D01*
X173365143Y-116928353D01*
X173272448Y-116807552D01*
X173272447Y-116807551D01*
X173151646Y-116714856D01*
X173151640Y-116714853D01*
X173010970Y-116656586D01*
X173010965Y-116656584D01*
X172860001Y-116636710D01*
X172859999Y-116636710D01*
X172709034Y-116656584D01*
X172709029Y-116656586D01*
X172568359Y-116714853D01*
X172568353Y-116714856D01*
X172447552Y-116807551D01*
X172447551Y-116807552D01*
X172354856Y-116928353D01*
X172354853Y-116928359D01*
X172296586Y-117069029D01*
X172296584Y-117069034D01*
X172276710Y-117219998D01*
X172276710Y-117220001D01*
X170903290Y-117220001D01*
X170903290Y-117219998D01*
X170883415Y-117069034D01*
X170883413Y-117069029D01*
X170874199Y-117046785D01*
X170825144Y-116928355D01*
X170825143Y-116928353D01*
X170732448Y-116807552D01*
X170732447Y-116807551D01*
X170611646Y-116714856D01*
X170611640Y-116714853D01*
X170470970Y-116656586D01*
X170470965Y-116656584D01*
X170320001Y-116636710D01*
X170319999Y-116636710D01*
X170169034Y-116656584D01*
X170169029Y-116656586D01*
X170028359Y-116714853D01*
X170028353Y-116714856D01*
X169907552Y-116807551D01*
X169907551Y-116807552D01*
X169814856Y-116928353D01*
X169814853Y-116928359D01*
X169756586Y-117069029D01*
X169756584Y-117069034D01*
X169736710Y-117219998D01*
X169736710Y-117220001D01*
X168363290Y-117220001D01*
X168363290Y-117219998D01*
X168343415Y-117069034D01*
X168343413Y-117069029D01*
X168334199Y-117046785D01*
X168285144Y-116928355D01*
X168285143Y-116928353D01*
X168192448Y-116807552D01*
X168192447Y-116807551D01*
X168071646Y-116714856D01*
X168071640Y-116714853D01*
X167930970Y-116656586D01*
X167930965Y-116656584D01*
X167780001Y-116636710D01*
X167779999Y-116636710D01*
X167629034Y-116656584D01*
X167629029Y-116656586D01*
X167488359Y-116714853D01*
X167488353Y-116714856D01*
X167367552Y-116807551D01*
X167367551Y-116807552D01*
X167274856Y-116928353D01*
X167274853Y-116928359D01*
X167216586Y-117069029D01*
X167216584Y-117069034D01*
X167196710Y-117219998D01*
X167196710Y-117220001D01*
X165823290Y-117220001D01*
X165823290Y-117219998D01*
X165803415Y-117069034D01*
X165803413Y-117069029D01*
X165794199Y-117046785D01*
X165745144Y-116928355D01*
X165745143Y-116928353D01*
X165652448Y-116807552D01*
X165652447Y-116807551D01*
X165531646Y-116714856D01*
X165531640Y-116714853D01*
X165390970Y-116656586D01*
X165390965Y-116656584D01*
X165240001Y-116636710D01*
X165239999Y-116636710D01*
X165089034Y-116656584D01*
X165089029Y-116656586D01*
X164948359Y-116714853D01*
X164948353Y-116714856D01*
X164827552Y-116807551D01*
X164827551Y-116807552D01*
X164734856Y-116928353D01*
X164734853Y-116928359D01*
X164676586Y-117069029D01*
X164676584Y-117069034D01*
X164656710Y-117219998D01*
X164656710Y-117220001D01*
X155125000Y-117220001D01*
X155100001Y-117216710D01*
X155099999Y-117216710D01*
X154949034Y-117236584D01*
X154949029Y-117236586D01*
X154808359Y-117294853D01*
X154808353Y-117294856D01*
X154687552Y-117387551D01*
X154687551Y-117387552D01*
X154594856Y-117508353D01*
X154594853Y-117508359D01*
X154536586Y-117649029D01*
X154536584Y-117649034D01*
X154516710Y-117799998D01*
X154516710Y-117800001D01*
X151367067Y-117800001D01*
X151427509Y-117730247D01*
X151429840Y-117725144D01*
X151484643Y-117605140D01*
X151484644Y-117605138D01*
X151504218Y-117469000D01*
X151484644Y-117332862D01*
X151478112Y-117318559D01*
X151427511Y-117207756D01*
X151427509Y-117207754D01*
X151427509Y-117207753D01*
X151337440Y-117103808D01*
X151221736Y-117029449D01*
X151221735Y-117029448D01*
X151221734Y-117029448D01*
X151089770Y-116990700D01*
X151089769Y-116990700D01*
X150952231Y-116990700D01*
X150952230Y-116990700D01*
X150820265Y-117029448D01*
X150793290Y-117046784D01*
X150704560Y-117103808D01*
X150704558Y-117103809D01*
X150704558Y-117103810D01*
X150614491Y-117207753D01*
X150614488Y-117207756D01*
X150557356Y-117332859D01*
X150557356Y-117332860D01*
X150537782Y-117469000D01*
X150229218Y-117469000D01*
X150209644Y-117332862D01*
X150203112Y-117318559D01*
X150152511Y-117207756D01*
X150152509Y-117207754D01*
X150152509Y-117207753D01*
X150062440Y-117103808D01*
X149946736Y-117029449D01*
X149946735Y-117029448D01*
X149946734Y-117029448D01*
X149814770Y-116990700D01*
X149814769Y-116990700D01*
X149677231Y-116990700D01*
X149677230Y-116990700D01*
X149545265Y-117029448D01*
X149518290Y-117046784D01*
X149429560Y-117103808D01*
X149429558Y-117103809D01*
X149429558Y-117103810D01*
X149339491Y-117207753D01*
X149339488Y-117207756D01*
X149282356Y-117332859D01*
X149282356Y-117332860D01*
X149262782Y-117469000D01*
X148954218Y-117469000D01*
X148934644Y-117332862D01*
X148928112Y-117318559D01*
X148877511Y-117207756D01*
X148877509Y-117207754D01*
X148877509Y-117207753D01*
X148787440Y-117103808D01*
X148671736Y-117029449D01*
X148671735Y-117029448D01*
X148671734Y-117029448D01*
X148539770Y-116990700D01*
X148539769Y-116990700D01*
X148402231Y-116990700D01*
X148402230Y-116990700D01*
X148270265Y-117029448D01*
X148243290Y-117046784D01*
X148154560Y-117103808D01*
X148154558Y-117103809D01*
X148154558Y-117103810D01*
X148064491Y-117207753D01*
X148064488Y-117207756D01*
X148007356Y-117332859D01*
X148007356Y-117332860D01*
X147987782Y-117469000D01*
X142760001Y-117469000D01*
X142758715Y-117459233D01*
X142706370Y-117332862D01*
X142700446Y-117318559D01*
X142700443Y-117318553D01*
X142607748Y-117197752D01*
X142607747Y-117197751D01*
X142486946Y-117105056D01*
X142486940Y-117105053D01*
X142346270Y-117046786D01*
X142346265Y-117046784D01*
X142195301Y-117026910D01*
X142195299Y-117026910D01*
X142044334Y-117046784D01*
X142044329Y-117046786D01*
X141967752Y-117078505D01*
X141898282Y-117085974D01*
X141835803Y-117054698D01*
X141800152Y-116994609D01*
X141796300Y-116963944D01*
X141796300Y-116591764D01*
X141796690Y-116584816D01*
X141800878Y-116547653D01*
X141790263Y-116491557D01*
X141781759Y-116435134D01*
X141779352Y-116427328D01*
X141776651Y-116419611D01*
X141776650Y-116419609D01*
X141776650Y-116419608D01*
X141762632Y-116393086D01*
X141749980Y-116369145D01*
X141730581Y-116328863D01*
X141725218Y-116317726D01*
X141725216Y-116317724D01*
X141720615Y-116310974D01*
X141715757Y-116304391D01*
X141689166Y-116277801D01*
X142934765Y-116277801D01*
X142954639Y-116428765D01*
X142954641Y-116428770D01*
X143012908Y-116569440D01*
X143012911Y-116569446D01*
X143105606Y-116690247D01*
X143105607Y-116690248D01*
X143226408Y-116782943D01*
X143226414Y-116782946D01*
X143254132Y-116794427D01*
X143367088Y-116841215D01*
X143442571Y-116851152D01*
X143518054Y-116861090D01*
X143518055Y-116861090D01*
X143518056Y-116861090D01*
X143568377Y-116854465D01*
X143669022Y-116841215D01*
X143809700Y-116782944D01*
X143930503Y-116690248D01*
X144023199Y-116569445D01*
X144081470Y-116428767D01*
X144101345Y-116277800D01*
X144095001Y-116229615D01*
X144081470Y-116126834D01*
X144081468Y-116126829D01*
X144023201Y-115986159D01*
X144023198Y-115986153D01*
X143930503Y-115865352D01*
X143930502Y-115865351D01*
X143809701Y-115772656D01*
X143809695Y-115772653D01*
X143669025Y-115714386D01*
X143669020Y-115714384D01*
X143518056Y-115694510D01*
X143518054Y-115694510D01*
X143367089Y-115714384D01*
X143367084Y-115714386D01*
X143226414Y-115772653D01*
X143226408Y-115772656D01*
X143105607Y-115865351D01*
X143105606Y-115865352D01*
X143012911Y-115986153D01*
X143012908Y-115986159D01*
X142954641Y-116126829D01*
X142954639Y-116126834D01*
X142934765Y-116277798D01*
X142934765Y-116277801D01*
X141689166Y-116277801D01*
X141675392Y-116264027D01*
X141636578Y-116222196D01*
X141629315Y-116216404D01*
X141629863Y-116215716D01*
X141617897Y-116206532D01*
X141468619Y-116057254D01*
X141435134Y-115995931D01*
X141432300Y-115969573D01*
X141432300Y-115728668D01*
X141450643Y-115666201D01*
X156516710Y-115666201D01*
X156536584Y-115817165D01*
X156536586Y-115817170D01*
X156594853Y-115957840D01*
X156594856Y-115957846D01*
X156687551Y-116078647D01*
X156687552Y-116078648D01*
X156808353Y-116171343D01*
X156808359Y-116171346D01*
X156818929Y-116175724D01*
X156949033Y-116229615D01*
X157024516Y-116239552D01*
X157099999Y-116249490D01*
X157100000Y-116249490D01*
X157100001Y-116249490D01*
X157150322Y-116242865D01*
X157250967Y-116229615D01*
X157391645Y-116171344D01*
X157512448Y-116078648D01*
X157605144Y-115957845D01*
X157663415Y-115817167D01*
X157679563Y-115694510D01*
X157683290Y-115666201D01*
X157683290Y-115666198D01*
X157663415Y-115515234D01*
X157663413Y-115515229D01*
X157659235Y-115505143D01*
X157620840Y-115412448D01*
X157605146Y-115374559D01*
X157605143Y-115374553D01*
X157512448Y-115253752D01*
X157512447Y-115253751D01*
X157391646Y-115161056D01*
X157391640Y-115161053D01*
X157250970Y-115102786D01*
X157250965Y-115102784D01*
X157100001Y-115082910D01*
X157099999Y-115082910D01*
X156949034Y-115102784D01*
X156949029Y-115102786D01*
X156808359Y-115161053D01*
X156808353Y-115161056D01*
X156687552Y-115253751D01*
X156687551Y-115253752D01*
X156594856Y-115374553D01*
X156594853Y-115374559D01*
X156536586Y-115515229D01*
X156536584Y-115515234D01*
X156516710Y-115666198D01*
X156516710Y-115666201D01*
X141450643Y-115666201D01*
X141451985Y-115661629D01*
X141457925Y-115653181D01*
X141476932Y-115628410D01*
X141533361Y-115587210D01*
X141575306Y-115579900D01*
X142209169Y-115579900D01*
X142217745Y-115580495D01*
X142228655Y-115582016D01*
X142228660Y-115582018D01*
X142267089Y-115580241D01*
X142273046Y-115579966D01*
X142275909Y-115579900D01*
X142293927Y-115579900D01*
X142293935Y-115579900D01*
X142296100Y-115579494D01*
X142304622Y-115578505D01*
X142333193Y-115577185D01*
X142338192Y-115574977D01*
X142365491Y-115566524D01*
X142370863Y-115565520D01*
X142395171Y-115550467D01*
X142402765Y-115546464D01*
X142428922Y-115534916D01*
X142432787Y-115531050D01*
X142455189Y-115513306D01*
X142459833Y-115510431D01*
X142477064Y-115487612D01*
X142482694Y-115481142D01*
X142963835Y-115000001D01*
X144216710Y-115000001D01*
X144236584Y-115150965D01*
X144236586Y-115150970D01*
X144294853Y-115291640D01*
X144294856Y-115291646D01*
X144387551Y-115412447D01*
X144387552Y-115412448D01*
X144508353Y-115505143D01*
X144508359Y-115505146D01*
X144532714Y-115515234D01*
X144649033Y-115563415D01*
X144724516Y-115573352D01*
X144799999Y-115583290D01*
X144800000Y-115583290D01*
X144800001Y-115583290D01*
X144850322Y-115576665D01*
X144950967Y-115563415D01*
X145091645Y-115505144D01*
X145212448Y-115412448D01*
X145300910Y-115297162D01*
X145357336Y-115255961D01*
X145427082Y-115251806D01*
X145488002Y-115286018D01*
X145497651Y-115297152D01*
X145574805Y-115397701D01*
X145594024Y-115412448D01*
X145695606Y-115490396D01*
X145695612Y-115490399D01*
X145765947Y-115519532D01*
X145836286Y-115548668D01*
X145911769Y-115558605D01*
X145987252Y-115568543D01*
X145987253Y-115568543D01*
X145987254Y-115568543D01*
X146037575Y-115561918D01*
X146138220Y-115548668D01*
X146278898Y-115490397D01*
X146399701Y-115397701D01*
X146492397Y-115276898D01*
X146550668Y-115136220D01*
X146570543Y-114985253D01*
X146568751Y-114971645D01*
X146550668Y-114834287D01*
X146550666Y-114834282D01*
X146492399Y-114693612D01*
X146492396Y-114693606D01*
X146399701Y-114572805D01*
X146399700Y-114572804D01*
X146278899Y-114480109D01*
X146278893Y-114480106D01*
X146138223Y-114421839D01*
X146138218Y-114421837D01*
X145987254Y-114401963D01*
X145987252Y-114401963D01*
X145836287Y-114421837D01*
X145836282Y-114421839D01*
X145695612Y-114480106D01*
X145695606Y-114480109D01*
X145574805Y-114572804D01*
X145574804Y-114572805D01*
X145486343Y-114688089D01*
X145429915Y-114729292D01*
X145360169Y-114733446D01*
X145299249Y-114699233D01*
X145289602Y-114688101D01*
X145212448Y-114587552D01*
X145177251Y-114560544D01*
X145091646Y-114494856D01*
X145091640Y-114494853D01*
X144950970Y-114436586D01*
X144950965Y-114436584D01*
X144800001Y-114416710D01*
X144799999Y-114416710D01*
X144649034Y-114436584D01*
X144649029Y-114436586D01*
X144508359Y-114494853D01*
X144508353Y-114494856D01*
X144387552Y-114587551D01*
X144387551Y-114587552D01*
X144294856Y-114708353D01*
X144294853Y-114708359D01*
X144236586Y-114849029D01*
X144236584Y-114849034D01*
X144216710Y-114999998D01*
X144216710Y-115000001D01*
X142963835Y-115000001D01*
X143763835Y-114200001D01*
X147366710Y-114200001D01*
X147386584Y-114350965D01*
X147386586Y-114350970D01*
X147444853Y-114491640D01*
X147444856Y-114491646D01*
X147537551Y-114612447D01*
X147537552Y-114612448D01*
X147658353Y-114705143D01*
X147658359Y-114705146D01*
X147716653Y-114729292D01*
X147799033Y-114763415D01*
X147874516Y-114773352D01*
X147949999Y-114783290D01*
X147950000Y-114783290D01*
X147950001Y-114783290D01*
X148000322Y-114776665D01*
X148100967Y-114763415D01*
X148241645Y-114705144D01*
X148362448Y-114612448D01*
X148455144Y-114491645D01*
X148513415Y-114350967D01*
X148532113Y-114208944D01*
X160125653Y-114208944D01*
X160145527Y-114359908D01*
X160145529Y-114359913D01*
X160203796Y-114500583D01*
X160203799Y-114500589D01*
X160296494Y-114621390D01*
X160296495Y-114621391D01*
X160417296Y-114714086D01*
X160417302Y-114714089D01*
X160471610Y-114736584D01*
X160557976Y-114772358D01*
X160633459Y-114782295D01*
X160708942Y-114792233D01*
X160708943Y-114792233D01*
X160708944Y-114792233D01*
X160776872Y-114783290D01*
X160859910Y-114772358D01*
X161000588Y-114714087D01*
X161121391Y-114621391D01*
X161159528Y-114571689D01*
X161215953Y-114530488D01*
X161285699Y-114526333D01*
X161346620Y-114560544D01*
X161356277Y-114571690D01*
X161387551Y-114612447D01*
X161387552Y-114612448D01*
X161508353Y-114705143D01*
X161508359Y-114705146D01*
X161566653Y-114729292D01*
X161649033Y-114763415D01*
X161724516Y-114773352D01*
X161799999Y-114783290D01*
X161800000Y-114783290D01*
X161800001Y-114783290D01*
X161850322Y-114776665D01*
X161950967Y-114763415D01*
X162091645Y-114705144D01*
X162124412Y-114680001D01*
X164656710Y-114680001D01*
X164676584Y-114830965D01*
X164676586Y-114830970D01*
X164734853Y-114971640D01*
X164734856Y-114971646D01*
X164827551Y-115092447D01*
X164827552Y-115092448D01*
X164948353Y-115185143D01*
X164948359Y-115185146D01*
X165018694Y-115214279D01*
X165089033Y-115243415D01*
X165152770Y-115251806D01*
X165239999Y-115263290D01*
X165240000Y-115263290D01*
X165240001Y-115263290D01*
X165312449Y-115253752D01*
X165390967Y-115243415D01*
X165531645Y-115185144D01*
X165652448Y-115092448D01*
X165745144Y-114971645D01*
X165803415Y-114830967D01*
X165819557Y-114708353D01*
X165823290Y-114680001D01*
X167196710Y-114680001D01*
X167216584Y-114830965D01*
X167216586Y-114830970D01*
X167274853Y-114971640D01*
X167274856Y-114971646D01*
X167367551Y-115092447D01*
X167367552Y-115092448D01*
X167488353Y-115185143D01*
X167488359Y-115185146D01*
X167558694Y-115214279D01*
X167629033Y-115243415D01*
X167692770Y-115251806D01*
X167779999Y-115263290D01*
X167780000Y-115263290D01*
X167780001Y-115263290D01*
X167852449Y-115253752D01*
X167930967Y-115243415D01*
X168071645Y-115185144D01*
X168192448Y-115092448D01*
X168285144Y-114971645D01*
X168343415Y-114830967D01*
X168359557Y-114708353D01*
X168363290Y-114680001D01*
X169736710Y-114680001D01*
X169756584Y-114830965D01*
X169756586Y-114830970D01*
X169814853Y-114971640D01*
X169814856Y-114971646D01*
X169907551Y-115092447D01*
X169907552Y-115092448D01*
X170028353Y-115185143D01*
X170028359Y-115185146D01*
X170098694Y-115214279D01*
X170169033Y-115243415D01*
X170232770Y-115251806D01*
X170319999Y-115263290D01*
X170320000Y-115263290D01*
X170320001Y-115263290D01*
X170392449Y-115253752D01*
X170470967Y-115243415D01*
X170611645Y-115185144D01*
X170732448Y-115092448D01*
X170825144Y-114971645D01*
X170883415Y-114830967D01*
X170899557Y-114708353D01*
X170903290Y-114680001D01*
X172276710Y-114680001D01*
X172296584Y-114830965D01*
X172296586Y-114830970D01*
X172354853Y-114971640D01*
X172354856Y-114971646D01*
X172447551Y-115092447D01*
X172447552Y-115092448D01*
X172568353Y-115185143D01*
X172568359Y-115185146D01*
X172638694Y-115214279D01*
X172709033Y-115243415D01*
X172772770Y-115251806D01*
X172859999Y-115263290D01*
X172860000Y-115263290D01*
X172860001Y-115263290D01*
X172932449Y-115253752D01*
X173010967Y-115243415D01*
X173151645Y-115185144D01*
X173272448Y-115092448D01*
X173365144Y-114971645D01*
X173423415Y-114830967D01*
X173439557Y-114708353D01*
X173443290Y-114680001D01*
X174816710Y-114680001D01*
X174836584Y-114830965D01*
X174836586Y-114830970D01*
X174894853Y-114971640D01*
X174894856Y-114971646D01*
X174987551Y-115092447D01*
X174987552Y-115092448D01*
X175108353Y-115185143D01*
X175108359Y-115185146D01*
X175178694Y-115214279D01*
X175249033Y-115243415D01*
X175312770Y-115251806D01*
X175399999Y-115263290D01*
X175400000Y-115263290D01*
X175400001Y-115263290D01*
X175472449Y-115253752D01*
X175550967Y-115243415D01*
X175691645Y-115185144D01*
X175812448Y-115092448D01*
X175905144Y-114971645D01*
X175963415Y-114830967D01*
X175979557Y-114708353D01*
X175983290Y-114680001D01*
X175983290Y-114679998D01*
X175969178Y-114572805D01*
X175963415Y-114529033D01*
X175905144Y-114388355D01*
X175905143Y-114388353D01*
X175812448Y-114267552D01*
X175812447Y-114267551D01*
X175691646Y-114174856D01*
X175691640Y-114174853D01*
X175550970Y-114116586D01*
X175550965Y-114116584D01*
X175400001Y-114096710D01*
X175399999Y-114096710D01*
X175249034Y-114116584D01*
X175249029Y-114116586D01*
X175108359Y-114174853D01*
X175108353Y-114174856D01*
X174987552Y-114267551D01*
X174987551Y-114267552D01*
X174894856Y-114388353D01*
X174894853Y-114388359D01*
X174836586Y-114529029D01*
X174836584Y-114529034D01*
X174816710Y-114679998D01*
X174816710Y-114680001D01*
X173443290Y-114680001D01*
X173443290Y-114679998D01*
X173429178Y-114572805D01*
X173423415Y-114529033D01*
X173365144Y-114388355D01*
X173365143Y-114388353D01*
X173272448Y-114267552D01*
X173272447Y-114267551D01*
X173151646Y-114174856D01*
X173151640Y-114174853D01*
X173010970Y-114116586D01*
X173010965Y-114116584D01*
X172860001Y-114096710D01*
X172859999Y-114096710D01*
X172709034Y-114116584D01*
X172709029Y-114116586D01*
X172568359Y-114174853D01*
X172568353Y-114174856D01*
X172447552Y-114267551D01*
X172447551Y-114267552D01*
X172354856Y-114388353D01*
X172354853Y-114388359D01*
X172296586Y-114529029D01*
X172296584Y-114529034D01*
X172276710Y-114679998D01*
X172276710Y-114680001D01*
X170903290Y-114680001D01*
X170903290Y-114679998D01*
X170889178Y-114572805D01*
X170883415Y-114529033D01*
X170825144Y-114388355D01*
X170825143Y-114388353D01*
X170732448Y-114267552D01*
X170732447Y-114267551D01*
X170611646Y-114174856D01*
X170611640Y-114174853D01*
X170470970Y-114116586D01*
X170470965Y-114116584D01*
X170320001Y-114096710D01*
X170319999Y-114096710D01*
X170169034Y-114116584D01*
X170169029Y-114116586D01*
X170028359Y-114174853D01*
X170028353Y-114174856D01*
X169907552Y-114267551D01*
X169907551Y-114267552D01*
X169814856Y-114388353D01*
X169814853Y-114388359D01*
X169756586Y-114529029D01*
X169756584Y-114529034D01*
X169736710Y-114679998D01*
X169736710Y-114680001D01*
X168363290Y-114680001D01*
X168363290Y-114679998D01*
X168349178Y-114572805D01*
X168343415Y-114529033D01*
X168285144Y-114388355D01*
X168285143Y-114388353D01*
X168192448Y-114267552D01*
X168192447Y-114267551D01*
X168071646Y-114174856D01*
X168071640Y-114174853D01*
X167930970Y-114116586D01*
X167930965Y-114116584D01*
X167780001Y-114096710D01*
X167779999Y-114096710D01*
X167629034Y-114116584D01*
X167629029Y-114116586D01*
X167488359Y-114174853D01*
X167488353Y-114174856D01*
X167367552Y-114267551D01*
X167367551Y-114267552D01*
X167274856Y-114388353D01*
X167274853Y-114388359D01*
X167216586Y-114529029D01*
X167216584Y-114529034D01*
X167196710Y-114679998D01*
X167196710Y-114680001D01*
X165823290Y-114680001D01*
X165823290Y-114679998D01*
X165809178Y-114572805D01*
X165803415Y-114529033D01*
X165745144Y-114388355D01*
X165745143Y-114388353D01*
X165652448Y-114267552D01*
X165652447Y-114267551D01*
X165531646Y-114174856D01*
X165531640Y-114174853D01*
X165390970Y-114116586D01*
X165390965Y-114116584D01*
X165240001Y-114096710D01*
X165239999Y-114096710D01*
X165089034Y-114116584D01*
X165089029Y-114116586D01*
X164948359Y-114174853D01*
X164948353Y-114174856D01*
X164827552Y-114267551D01*
X164827551Y-114267552D01*
X164734856Y-114388353D01*
X164734853Y-114388359D01*
X164676586Y-114529029D01*
X164676584Y-114529034D01*
X164656710Y-114679998D01*
X164656710Y-114680001D01*
X162124412Y-114680001D01*
X162212448Y-114612448D01*
X162305144Y-114491645D01*
X162363415Y-114350967D01*
X162383290Y-114200000D01*
X162379979Y-114174853D01*
X162363415Y-114049034D01*
X162363413Y-114049029D01*
X162305146Y-113908359D01*
X162305143Y-113908353D01*
X162212448Y-113787552D01*
X162212447Y-113787551D01*
X162091646Y-113694856D01*
X162091640Y-113694853D01*
X161950970Y-113636586D01*
X161950965Y-113636584D01*
X161800001Y-113616710D01*
X161799999Y-113616710D01*
X161649034Y-113636584D01*
X161649029Y-113636586D01*
X161508359Y-113694853D01*
X161508353Y-113694856D01*
X161387552Y-113787551D01*
X161387551Y-113787552D01*
X161349415Y-113837252D01*
X161292987Y-113878455D01*
X161223241Y-113882609D01*
X161162321Y-113848396D01*
X161152674Y-113837263D01*
X161121391Y-113796495D01*
X161087272Y-113770314D01*
X161000589Y-113703799D01*
X161000583Y-113703796D01*
X160859913Y-113645529D01*
X160859908Y-113645527D01*
X160708944Y-113625653D01*
X160708942Y-113625653D01*
X160557977Y-113645527D01*
X160557972Y-113645529D01*
X160417302Y-113703796D01*
X160417296Y-113703799D01*
X160296495Y-113796494D01*
X160296494Y-113796495D01*
X160203799Y-113917296D01*
X160203796Y-113917302D01*
X160145529Y-114057972D01*
X160145527Y-114057977D01*
X160125653Y-114208941D01*
X160125653Y-114208944D01*
X148532113Y-114208944D01*
X148533290Y-114200000D01*
X148529979Y-114174853D01*
X148513415Y-114049034D01*
X148513413Y-114049029D01*
X148455146Y-113908359D01*
X148455143Y-113908353D01*
X148362448Y-113787552D01*
X148362447Y-113787551D01*
X148241646Y-113694856D01*
X148241640Y-113694853D01*
X148100970Y-113636586D01*
X148100965Y-113636584D01*
X147950001Y-113616710D01*
X147949999Y-113616710D01*
X147799034Y-113636584D01*
X147799029Y-113636586D01*
X147658359Y-113694853D01*
X147658353Y-113694856D01*
X147537552Y-113787551D01*
X147537551Y-113787552D01*
X147444856Y-113908353D01*
X147444853Y-113908359D01*
X147386586Y-114049029D01*
X147386584Y-114049034D01*
X147366710Y-114199998D01*
X147366710Y-114200001D01*
X143763835Y-114200001D01*
X144563836Y-113400001D01*
X155316710Y-113400001D01*
X155336584Y-113550965D01*
X155336586Y-113550970D01*
X155394853Y-113691640D01*
X155394856Y-113691646D01*
X155487551Y-113812447D01*
X155487552Y-113812448D01*
X155608353Y-113905143D01*
X155608359Y-113905146D01*
X155678694Y-113934279D01*
X155749033Y-113963415D01*
X155824516Y-113973352D01*
X155899999Y-113983290D01*
X155900000Y-113983290D01*
X155900001Y-113983290D01*
X155950322Y-113976665D01*
X156050967Y-113963415D01*
X156191645Y-113905144D01*
X156312448Y-113812448D01*
X156405144Y-113691645D01*
X156463415Y-113550967D01*
X156483290Y-113400000D01*
X156463415Y-113249033D01*
X156405144Y-113108355D01*
X156405143Y-113108353D01*
X156312448Y-112987552D01*
X156312447Y-112987551D01*
X156191646Y-112894856D01*
X156191640Y-112894853D01*
X156050970Y-112836586D01*
X156050965Y-112836584D01*
X155900001Y-112816710D01*
X155899999Y-112816710D01*
X155749034Y-112836584D01*
X155749029Y-112836586D01*
X155608359Y-112894853D01*
X155608353Y-112894856D01*
X155487552Y-112987551D01*
X155487551Y-112987552D01*
X155394856Y-113108353D01*
X155394853Y-113108359D01*
X155336586Y-113249029D01*
X155336584Y-113249034D01*
X155316710Y-113399998D01*
X155316710Y-113400001D01*
X144563836Y-113400001D01*
X144976286Y-112987551D01*
X145927519Y-112036319D01*
X145988842Y-112002834D01*
X146015200Y-112000000D01*
X179875500Y-112000000D01*
X179942539Y-112019685D01*
X179988294Y-112072489D01*
X179999500Y-112124000D01*
X179999500Y-130566127D01*
X179979815Y-130633166D01*
X179927011Y-130678921D01*
X179857853Y-130688865D01*
X179794297Y-130659840D01*
X179756523Y-130601062D01*
X179756020Y-130599300D01*
X179706162Y-130419729D01*
X179706160Y-130419722D01*
X179696129Y-130394547D01*
X179570565Y-130079405D01*
X179398972Y-129755746D01*
X179193391Y-129452537D01*
X179193387Y-129452532D01*
X179193384Y-129452528D01*
X178956233Y-129173333D01*
X178690277Y-128921406D01*
X178398643Y-128699711D01*
X178398639Y-128699708D01*
X178398633Y-128699704D01*
X178398628Y-128699700D01*
X178084752Y-128510849D01*
X178084739Y-128510842D01*
X177752284Y-128357031D01*
X177752279Y-128357030D01*
X177752276Y-128357029D01*
X177752274Y-128357028D01*
X177641619Y-128319744D01*
X177405120Y-128240058D01*
X177047348Y-128161306D01*
X176683169Y-128121700D01*
X176683166Y-128121700D01*
X176316834Y-128121700D01*
X176316830Y-128121700D01*
X175952651Y-128161306D01*
X175594879Y-128240058D01*
X175247720Y-128357030D01*
X175247715Y-128357031D01*
X174915260Y-128510842D01*
X174915247Y-128510849D01*
X174601371Y-128699700D01*
X174601366Y-128699704D01*
X174309723Y-128921405D01*
X174309723Y-128921406D01*
X174043766Y-129173333D01*
X173806615Y-129452528D01*
X173806608Y-129452538D01*
X173601028Y-129755745D01*
X173429439Y-130079396D01*
X173429430Y-130079414D01*
X173293839Y-130419722D01*
X173293837Y-130419729D01*
X173195840Y-130772685D01*
X173195834Y-130772711D01*
X173136572Y-131134190D01*
X173136571Y-131134207D01*
X173116738Y-131499997D01*
X173116738Y-131500002D01*
X173118224Y-131527415D01*
X173134018Y-131818717D01*
X173136571Y-131865792D01*
X173136572Y-131865809D01*
X173195834Y-132227288D01*
X173195840Y-132227314D01*
X173293837Y-132580270D01*
X173293839Y-132580277D01*
X173429430Y-132920585D01*
X173429439Y-132920603D01*
X173601028Y-133244254D01*
X173806608Y-133547461D01*
X173806615Y-133547471D01*
X173953213Y-133720059D01*
X174043767Y-133826667D01*
X174309723Y-134078594D01*
X174601357Y-134300289D01*
X174601362Y-134300292D01*
X174601366Y-134300295D01*
X174601371Y-134300299D01*
X174915247Y-134489150D01*
X174915252Y-134489153D01*
X174915256Y-134489154D01*
X174915260Y-134489157D01*
X175247715Y-134642968D01*
X175247719Y-134642968D01*
X175247726Y-134642972D01*
X175467092Y-134716885D01*
X175589090Y-134757991D01*
X175646335Y-134798051D01*
X175672835Y-134862700D01*
X175660175Y-134931414D01*
X175612376Y-134982375D01*
X175549497Y-134999500D01*
X124450503Y-134999500D01*
X124383464Y-134979815D01*
X124337709Y-134927011D01*
X124327765Y-134857853D01*
X124356790Y-134794297D01*
X124410910Y-134757991D01*
X124510799Y-134724333D01*
X124752274Y-134642972D01*
X124752281Y-134642968D01*
X124752284Y-134642968D01*
X125084739Y-134489157D01*
X125084748Y-134489153D01*
X125216754Y-134409728D01*
X125398628Y-134300299D01*
X125398633Y-134300295D01*
X125398632Y-134300295D01*
X125398643Y-134300289D01*
X125690277Y-134078594D01*
X125770901Y-134002223D01*
X145876700Y-134002223D01*
X145891484Y-134119239D01*
X145891485Y-134119245D01*
X145949455Y-134265660D01*
X145949457Y-134265664D01*
X146042023Y-134393069D01*
X146042024Y-134393070D01*
X146042025Y-134393071D01*
X146042026Y-134393072D01*
X146163363Y-134493451D01*
X146163364Y-134493451D01*
X146163365Y-134493452D01*
X146305859Y-134560505D01*
X146460552Y-134590014D01*
X146617723Y-134580126D01*
X146767498Y-134531461D01*
X146900464Y-134447078D01*
X147008268Y-134332278D01*
X147084136Y-134194276D01*
X147123300Y-134041741D01*
X147123300Y-134002223D01*
X152876700Y-134002223D01*
X152891484Y-134119239D01*
X152891485Y-134119245D01*
X152949455Y-134265660D01*
X152949457Y-134265664D01*
X153042023Y-134393069D01*
X153042024Y-134393070D01*
X153042025Y-134393071D01*
X153042026Y-134393072D01*
X153163363Y-134493451D01*
X153163364Y-134493451D01*
X153163365Y-134493452D01*
X153305859Y-134560505D01*
X153460552Y-134590014D01*
X153617723Y-134580126D01*
X153767498Y-134531461D01*
X153900464Y-134447078D01*
X154008268Y-134332278D01*
X154084136Y-134194276D01*
X154123300Y-134041741D01*
X154123300Y-133263786D01*
X154108516Y-133146760D01*
X154050543Y-133000336D01*
X153957977Y-132872931D01*
X153957974Y-132872929D01*
X153957974Y-132872928D01*
X153957973Y-132872927D01*
X153836636Y-132772548D01*
X153694139Y-132705494D01*
X153624884Y-132692283D01*
X153539448Y-132675986D01*
X153539444Y-132675986D01*
X153382277Y-132685874D01*
X153382274Y-132685874D01*
X153232499Y-132734540D01*
X153232497Y-132734541D01*
X153099535Y-132818922D01*
X152991734Y-132933718D01*
X152915864Y-133071724D01*
X152915862Y-133071730D01*
X152876700Y-133224255D01*
X152876700Y-134002223D01*
X147123300Y-134002223D01*
X147123300Y-133263786D01*
X147108516Y-133146760D01*
X147050543Y-133000336D01*
X146957977Y-132872931D01*
X146957974Y-132872929D01*
X146957974Y-132872928D01*
X146957973Y-132872927D01*
X146836636Y-132772548D01*
X146694139Y-132705494D01*
X146624884Y-132692283D01*
X146539448Y-132675986D01*
X146539444Y-132675986D01*
X146382277Y-132685874D01*
X146382274Y-132685874D01*
X146232499Y-132734540D01*
X146232497Y-132734541D01*
X146099535Y-132818922D01*
X145991734Y-132933718D01*
X145915864Y-133071724D01*
X145915862Y-133071730D01*
X145876700Y-133224255D01*
X145876700Y-134002223D01*
X125770901Y-134002223D01*
X125956233Y-133826667D01*
X126193391Y-133547463D01*
X126398972Y-133244254D01*
X126570565Y-132920595D01*
X126706159Y-132580281D01*
X126804163Y-132227301D01*
X126812037Y-132179269D01*
X129699500Y-132179269D01*
X129702353Y-132209699D01*
X129702353Y-132209701D01*
X129746531Y-132335951D01*
X129747207Y-132337882D01*
X129827850Y-132447150D01*
X129937118Y-132527793D01*
X129979845Y-132542744D01*
X130065299Y-132572646D01*
X130095730Y-132575500D01*
X130095734Y-132575500D01*
X130904270Y-132575500D01*
X130934699Y-132572646D01*
X130934701Y-132572646D01*
X130998790Y-132550219D01*
X131062882Y-132527793D01*
X131172150Y-132447150D01*
X131252793Y-132337882D01*
X131281783Y-132255033D01*
X131297646Y-132209701D01*
X131297646Y-132209699D01*
X131300500Y-132179269D01*
X131300500Y-131249938D01*
X131320185Y-131182899D01*
X131336819Y-131162257D01*
X131420847Y-131078229D01*
X131522412Y-130976663D01*
X131583733Y-130943180D01*
X131653424Y-130948164D01*
X131709358Y-130990035D01*
X131733775Y-131055500D01*
X131733311Y-131078229D01*
X131721700Y-131181282D01*
X131721700Y-131818717D01*
X131736410Y-131949278D01*
X131736411Y-131949283D01*
X131736412Y-131949284D01*
X131744099Y-131971253D01*
X131794338Y-132114828D01*
X131859288Y-132218195D01*
X131887650Y-132263333D01*
X132011667Y-132387350D01*
X132160171Y-132480661D01*
X132325716Y-132538588D01*
X132325719Y-132538588D01*
X132325721Y-132538589D01*
X132499996Y-132558225D01*
X132500000Y-132558225D01*
X132500004Y-132558225D01*
X132674278Y-132538589D01*
X132674279Y-132538588D01*
X132674284Y-132538588D01*
X132839829Y-132480661D01*
X132988333Y-132387350D01*
X133112350Y-132263333D01*
X133205661Y-132114829D01*
X133263588Y-131949284D01*
X133278300Y-131818711D01*
X133278300Y-131181289D01*
X133266688Y-131078229D01*
X133263589Y-131050721D01*
X133263588Y-131050719D01*
X133263588Y-131050716D01*
X133205661Y-130885171D01*
X133112350Y-130736667D01*
X132988333Y-130612650D01*
X132936627Y-130580161D01*
X132839828Y-130519338D01*
X132767249Y-130493942D01*
X132710473Y-130453220D01*
X132684725Y-130388267D01*
X132698181Y-130319706D01*
X132746568Y-130269303D01*
X132808203Y-130252900D01*
X134124581Y-130252900D01*
X134191620Y-130272585D01*
X134237375Y-130325389D01*
X134247319Y-130394547D01*
X134218294Y-130458103D01*
X134165536Y-130493942D01*
X134150476Y-130499211D01*
X133997737Y-130595184D01*
X133870184Y-130722737D01*
X133774211Y-130875476D01*
X133714631Y-131045745D01*
X133714630Y-131045750D01*
X133699500Y-131180039D01*
X133699500Y-131819960D01*
X133714630Y-131954249D01*
X133714631Y-131954254D01*
X133774211Y-132124523D01*
X133861432Y-132263333D01*
X133870184Y-132277262D01*
X133997738Y-132404816D01*
X134024216Y-132421453D01*
X134118444Y-132480661D01*
X134150478Y-132500789D01*
X134314621Y-132558225D01*
X134320745Y-132560368D01*
X134320750Y-132560369D01*
X134499996Y-132580565D01*
X134500000Y-132580565D01*
X134500004Y-132580565D01*
X134679249Y-132560369D01*
X134679252Y-132560368D01*
X134679255Y-132560368D01*
X134849522Y-132500789D01*
X135002262Y-132404816D01*
X135129816Y-132277262D01*
X135225789Y-132124522D01*
X135285368Y-131954255D01*
X135300500Y-131819954D01*
X135300500Y-131180046D01*
X135286568Y-131056391D01*
X135285369Y-131045750D01*
X135285368Y-131045745D01*
X135231449Y-130891653D01*
X135225789Y-130875478D01*
X135129816Y-130722738D01*
X135002262Y-130595184D01*
X134934888Y-130552850D01*
X134849523Y-130499211D01*
X134834464Y-130493942D01*
X134777688Y-130453220D01*
X134751941Y-130388267D01*
X134765397Y-130319706D01*
X134813784Y-130269303D01*
X134875419Y-130252900D01*
X136191797Y-130252900D01*
X136258836Y-130272585D01*
X136304591Y-130325389D01*
X136314535Y-130394547D01*
X136285510Y-130458103D01*
X136232751Y-130493942D01*
X136160171Y-130519338D01*
X136011666Y-130612650D01*
X135887650Y-130736666D01*
X135794338Y-130885171D01*
X135736410Y-131050721D01*
X135721700Y-131181282D01*
X135721700Y-131818717D01*
X135736410Y-131949278D01*
X135736411Y-131949283D01*
X135736412Y-131949284D01*
X135744099Y-131971253D01*
X135794338Y-132114828D01*
X135859288Y-132218195D01*
X135887650Y-132263333D01*
X136011667Y-132387350D01*
X136160171Y-132480661D01*
X136325716Y-132538588D01*
X136325719Y-132538588D01*
X136325721Y-132538589D01*
X136499996Y-132558225D01*
X136500000Y-132558225D01*
X136500004Y-132558225D01*
X136674278Y-132538589D01*
X136674279Y-132538588D01*
X136674284Y-132538588D01*
X136839829Y-132480661D01*
X136988333Y-132387350D01*
X137112350Y-132263333D01*
X137205661Y-132114829D01*
X137263588Y-131949284D01*
X137278300Y-131818711D01*
X137278300Y-131181289D01*
X137266688Y-131078229D01*
X137263589Y-131050721D01*
X137263588Y-131050719D01*
X137263588Y-131050716D01*
X137205661Y-130885171D01*
X137112350Y-130736667D01*
X136988333Y-130612650D01*
X136936627Y-130580161D01*
X136839828Y-130519338D01*
X136767249Y-130493942D01*
X136710473Y-130453220D01*
X136684725Y-130388267D01*
X136698181Y-130319706D01*
X136746568Y-130269303D01*
X136808203Y-130252900D01*
X137002462Y-130252900D01*
X137069501Y-130272585D01*
X137090143Y-130289219D01*
X138915487Y-132114563D01*
X138931611Y-132134418D01*
X138936773Y-132142318D01*
X138936774Y-132142319D01*
X138936775Y-132142320D01*
X138962918Y-132162667D01*
X138968681Y-132167757D01*
X138971140Y-132170216D01*
X138988999Y-132182967D01*
X139029716Y-132214658D01*
X139029720Y-132214659D01*
X139036167Y-132218148D01*
X139036215Y-132218172D01*
X139036258Y-132218195D01*
X139042862Y-132221424D01*
X139042865Y-132221426D01*
X139042867Y-132221426D01*
X139042868Y-132221427D01*
X139092317Y-132236149D01*
X139141111Y-132252900D01*
X139148395Y-132254115D01*
X139148407Y-132254117D01*
X139148429Y-132254120D01*
X139155744Y-132255032D01*
X139155745Y-132255033D01*
X139155745Y-132255032D01*
X139155746Y-132255033D01*
X139207307Y-132252900D01*
X156377089Y-132252900D01*
X156444128Y-132272585D01*
X156489883Y-132325389D01*
X156499827Y-132394547D01*
X156480191Y-132445790D01*
X156479283Y-132447150D01*
X156457044Y-132480432D01*
X156457043Y-132480433D01*
X156446700Y-132532434D01*
X156446700Y-134267558D01*
X156453212Y-134300299D01*
X156457045Y-134319569D01*
X156496453Y-134378547D01*
X156555431Y-134417955D01*
X156555432Y-134417955D01*
X156555433Y-134417956D01*
X156586578Y-134424150D01*
X156607439Y-134428300D01*
X158342560Y-134428299D01*
X158394569Y-134417955D01*
X158453547Y-134378547D01*
X158492955Y-134319569D01*
X158503300Y-134267561D01*
X158503299Y-132532440D01*
X158492955Y-132480431D01*
X158492954Y-132480429D01*
X158492953Y-132480426D01*
X158469810Y-132445792D01*
X158448931Y-132379115D01*
X158467415Y-132311735D01*
X158519393Y-132265044D01*
X158572911Y-132252900D01*
X162629488Y-132252900D01*
X162696527Y-132272585D01*
X162742282Y-132325389D01*
X162746531Y-132335951D01*
X162747205Y-132337879D01*
X162747206Y-132337881D01*
X162747207Y-132337882D01*
X162827850Y-132447150D01*
X162937118Y-132527793D01*
X162979845Y-132542744D01*
X163065299Y-132572646D01*
X163095730Y-132575500D01*
X163095734Y-132575500D01*
X163904270Y-132575500D01*
X163934699Y-132572646D01*
X163934701Y-132572646D01*
X163998790Y-132550219D01*
X164062882Y-132527793D01*
X164172150Y-132447150D01*
X164252793Y-132337882D01*
X164281783Y-132255033D01*
X164297646Y-132209701D01*
X164297646Y-132209699D01*
X164300500Y-132179269D01*
X164300500Y-131818717D01*
X164721700Y-131818717D01*
X164736410Y-131949278D01*
X164736411Y-131949283D01*
X164736412Y-131949284D01*
X164744099Y-131971253D01*
X164794338Y-132114828D01*
X164859288Y-132218195D01*
X164887650Y-132263333D01*
X165011667Y-132387350D01*
X165160171Y-132480661D01*
X165325716Y-132538588D01*
X165325719Y-132538588D01*
X165325721Y-132538589D01*
X165499996Y-132558225D01*
X165500000Y-132558225D01*
X165500004Y-132558225D01*
X165674278Y-132538589D01*
X165674279Y-132538588D01*
X165674284Y-132538588D01*
X165839829Y-132480661D01*
X165988333Y-132387350D01*
X166112350Y-132263333D01*
X166205661Y-132114829D01*
X166263588Y-131949284D01*
X166278159Y-131819960D01*
X166699500Y-131819960D01*
X166714630Y-131954249D01*
X166714631Y-131954254D01*
X166774211Y-132124523D01*
X166861432Y-132263333D01*
X166870184Y-132277262D01*
X166997738Y-132404816D01*
X167024216Y-132421453D01*
X167118444Y-132480661D01*
X167150478Y-132500789D01*
X167314621Y-132558225D01*
X167320745Y-132560368D01*
X167320750Y-132560369D01*
X167499996Y-132580565D01*
X167500000Y-132580565D01*
X167500004Y-132580565D01*
X167679249Y-132560369D01*
X167679252Y-132560368D01*
X167679255Y-132560368D01*
X167849522Y-132500789D01*
X168002262Y-132404816D01*
X168129816Y-132277262D01*
X168225789Y-132124522D01*
X168285368Y-131954255D01*
X168300500Y-131819954D01*
X168300500Y-131818717D01*
X168721700Y-131818717D01*
X168736410Y-131949278D01*
X168736411Y-131949283D01*
X168736412Y-131949284D01*
X168744099Y-131971253D01*
X168794338Y-132114828D01*
X168859288Y-132218195D01*
X168887650Y-132263333D01*
X169011667Y-132387350D01*
X169160171Y-132480661D01*
X169325716Y-132538588D01*
X169325719Y-132538588D01*
X169325721Y-132538589D01*
X169499996Y-132558225D01*
X169500000Y-132558225D01*
X169500004Y-132558225D01*
X169674278Y-132538589D01*
X169674279Y-132538588D01*
X169674284Y-132538588D01*
X169839829Y-132480661D01*
X169988333Y-132387350D01*
X170112350Y-132263333D01*
X170205661Y-132114829D01*
X170263588Y-131949284D01*
X170278300Y-131818711D01*
X170278300Y-131181289D01*
X170266688Y-131078229D01*
X170263589Y-131050721D01*
X170263588Y-131050719D01*
X170263588Y-131050716D01*
X170205661Y-130885171D01*
X170112350Y-130736667D01*
X169988333Y-130612650D01*
X169936627Y-130580161D01*
X169839828Y-130519338D01*
X169674278Y-130461410D01*
X169500004Y-130441775D01*
X169499996Y-130441775D01*
X169325721Y-130461410D01*
X169160171Y-130519338D01*
X169011666Y-130612650D01*
X168887650Y-130736666D01*
X168794338Y-130885171D01*
X168736410Y-131050721D01*
X168721700Y-131181282D01*
X168721700Y-131818717D01*
X168300500Y-131818717D01*
X168300500Y-131180046D01*
X168286568Y-131056391D01*
X168285369Y-131045750D01*
X168285368Y-131045745D01*
X168231449Y-130891653D01*
X168225789Y-130875478D01*
X168129816Y-130722738D01*
X168002262Y-130595184D01*
X167934888Y-130552850D01*
X167849523Y-130499211D01*
X167679254Y-130439631D01*
X167679249Y-130439630D01*
X167500004Y-130419435D01*
X167499996Y-130419435D01*
X167320750Y-130439630D01*
X167320745Y-130439631D01*
X167150476Y-130499211D01*
X166997737Y-130595184D01*
X166870184Y-130722737D01*
X166774211Y-130875476D01*
X166714631Y-131045745D01*
X166714630Y-131045750D01*
X166699500Y-131180039D01*
X166699500Y-131819960D01*
X166278159Y-131819960D01*
X166278300Y-131818711D01*
X166278300Y-131181289D01*
X166266688Y-131078229D01*
X166263589Y-131050721D01*
X166263588Y-131050719D01*
X166263588Y-131050716D01*
X166205661Y-130885171D01*
X166112350Y-130736667D01*
X165988333Y-130612650D01*
X165936627Y-130580161D01*
X165839828Y-130519338D01*
X165674278Y-130461410D01*
X165500004Y-130441775D01*
X165499996Y-130441775D01*
X165325721Y-130461410D01*
X165160171Y-130519338D01*
X165011666Y-130612650D01*
X164887650Y-130736666D01*
X164794338Y-130885171D01*
X164736410Y-131050721D01*
X164721700Y-131181282D01*
X164721700Y-131818717D01*
X164300500Y-131818717D01*
X164300500Y-130820730D01*
X164297646Y-130790300D01*
X164297646Y-130790298D01*
X164258935Y-130679670D01*
X164252793Y-130662118D01*
X164172150Y-130552850D01*
X164062882Y-130472207D01*
X164062880Y-130472206D01*
X163934700Y-130427353D01*
X163904270Y-130424500D01*
X163904266Y-130424500D01*
X163095734Y-130424500D01*
X163095730Y-130424500D01*
X163065300Y-130427353D01*
X163065298Y-130427353D01*
X162937119Y-130472206D01*
X162937117Y-130472207D01*
X162827850Y-130552850D01*
X162747207Y-130662117D01*
X162747206Y-130662119D01*
X162702353Y-130790298D01*
X162702353Y-130790300D01*
X162699500Y-130820730D01*
X162699500Y-131423100D01*
X162679815Y-131490139D01*
X162627011Y-131535894D01*
X162575500Y-131547100D01*
X153253361Y-131547100D01*
X153186322Y-131527415D01*
X153140567Y-131474611D01*
X153130623Y-131405453D01*
X153157816Y-131344061D01*
X153205983Y-131285838D01*
X153276263Y-131136485D01*
X153307193Y-130974347D01*
X153296828Y-130809611D01*
X153245821Y-130652628D01*
X153157377Y-130513261D01*
X153104228Y-130463351D01*
X153037055Y-130400271D01*
X153037047Y-130400265D01*
X152892410Y-130320751D01*
X152892402Y-130320748D01*
X152732533Y-130279700D01*
X152732531Y-130279700D01*
X152308902Y-130279700D01*
X152308892Y-130279700D01*
X152197391Y-130293787D01*
X152186240Y-130295196D01*
X152147872Y-130310386D01*
X152032766Y-130355959D01*
X151899233Y-130452977D01*
X151899230Y-130452979D01*
X151794017Y-130580161D01*
X151723736Y-130729517D01*
X151712142Y-130790298D01*
X151692807Y-130891653D01*
X151692807Y-130891655D01*
X151692807Y-130891656D01*
X151703172Y-131056388D01*
X151703172Y-131056391D01*
X151754179Y-131213372D01*
X151845110Y-131356658D01*
X151864411Y-131423809D01*
X151844343Y-131490735D01*
X151791279Y-131536187D01*
X151740413Y-131547100D01*
X148253361Y-131547100D01*
X148186322Y-131527415D01*
X148140567Y-131474611D01*
X148130623Y-131405453D01*
X148157816Y-131344061D01*
X148205983Y-131285838D01*
X148276263Y-131136485D01*
X148307193Y-130974347D01*
X148296828Y-130809611D01*
X148245821Y-130652628D01*
X148157377Y-130513261D01*
X148104228Y-130463351D01*
X148037055Y-130400271D01*
X148037047Y-130400265D01*
X147892410Y-130320751D01*
X147892402Y-130320748D01*
X147732533Y-130279700D01*
X147732531Y-130279700D01*
X147308902Y-130279700D01*
X147308892Y-130279700D01*
X147197391Y-130293787D01*
X147186240Y-130295196D01*
X147147872Y-130310386D01*
X147032766Y-130355959D01*
X146899233Y-130452977D01*
X146899230Y-130452979D01*
X146794017Y-130580161D01*
X146723736Y-130729517D01*
X146712142Y-130790298D01*
X146692807Y-130891653D01*
X146692807Y-130891655D01*
X146692807Y-130891656D01*
X146703172Y-131056388D01*
X146703172Y-131056391D01*
X146754179Y-131213372D01*
X146845110Y-131356658D01*
X146864411Y-131423809D01*
X146844343Y-131490735D01*
X146791279Y-131536187D01*
X146740413Y-131547100D01*
X139397538Y-131547100D01*
X139330499Y-131527415D01*
X139309857Y-131510781D01*
X137484512Y-129685436D01*
X137468386Y-129665579D01*
X137463227Y-129657682D01*
X137437080Y-129637331D01*
X137431323Y-129632246D01*
X137428861Y-129629784D01*
X137411001Y-129617032D01*
X137387260Y-129598555D01*
X137370284Y-129585342D01*
X137370282Y-129585341D01*
X137363792Y-129581828D01*
X137357136Y-129578574D01*
X137307682Y-129563850D01*
X137294122Y-129559195D01*
X137258889Y-129547100D01*
X137258888Y-129547100D01*
X137258885Y-129547099D01*
X137251594Y-129545882D01*
X137244253Y-129544966D01*
X137192693Y-129547100D01*
X132149464Y-129547100D01*
X132124020Y-129544461D01*
X132114787Y-129542525D01*
X132114782Y-129542525D01*
X132081904Y-129546623D01*
X132074228Y-129547100D01*
X132070757Y-129547100D01*
X132054530Y-129549807D01*
X132049120Y-129550710D01*
X131997910Y-129557093D01*
X131990847Y-129559195D01*
X131983830Y-129561605D01*
X131938455Y-129586160D01*
X131892099Y-129608822D01*
X131886063Y-129613131D01*
X131880250Y-129617657D01*
X131869087Y-129629784D01*
X131845299Y-129655624D01*
X131468983Y-130031940D01*
X131092666Y-130408256D01*
X131031343Y-130441741D01*
X130964032Y-130437617D01*
X130934699Y-130427353D01*
X130904270Y-130424500D01*
X130904266Y-130424500D01*
X130095734Y-130424500D01*
X130095730Y-130424500D01*
X130065300Y-130427353D01*
X130065298Y-130427353D01*
X129937119Y-130472206D01*
X129937117Y-130472207D01*
X129827850Y-130552850D01*
X129747207Y-130662117D01*
X129747206Y-130662119D01*
X129702353Y-130790298D01*
X129702353Y-130790300D01*
X129699500Y-130820730D01*
X129699500Y-132179269D01*
X126812037Y-132179269D01*
X126863429Y-131865795D01*
X126881776Y-131527415D01*
X126883262Y-131500002D01*
X126883262Y-131499997D01*
X126879131Y-131423809D01*
X126863429Y-131134205D01*
X126854252Y-131078229D01*
X126804165Y-130772711D01*
X126804164Y-130772710D01*
X126804163Y-130772699D01*
X126750705Y-130580161D01*
X126706162Y-130419729D01*
X126706160Y-130419722D01*
X126696129Y-130394547D01*
X126570565Y-130079405D01*
X126398972Y-129755746D01*
X126193391Y-129452537D01*
X126193387Y-129452532D01*
X126193384Y-129452528D01*
X125956233Y-129173333D01*
X125690277Y-128921406D01*
X125398643Y-128699711D01*
X125398639Y-128699708D01*
X125398633Y-128699704D01*
X125398628Y-128699700D01*
X125084752Y-128510849D01*
X125084739Y-128510842D01*
X124752284Y-128357031D01*
X124752279Y-128357030D01*
X124752276Y-128357029D01*
X124752274Y-128357028D01*
X124641619Y-128319744D01*
X124405120Y-128240058D01*
X124047348Y-128161306D01*
X123683169Y-128121700D01*
X123683166Y-128121700D01*
X123316834Y-128121700D01*
X123316830Y-128121700D01*
X122952651Y-128161306D01*
X122594879Y-128240058D01*
X122247720Y-128357030D01*
X122247715Y-128357031D01*
X121915260Y-128510842D01*
X121915247Y-128510849D01*
X121601371Y-128699700D01*
X121601366Y-128699704D01*
X121309723Y-128921405D01*
X121309723Y-128921406D01*
X121043766Y-129173333D01*
X120806615Y-129452528D01*
X120806608Y-129452538D01*
X120601028Y-129755745D01*
X120429439Y-130079396D01*
X120429430Y-130079414D01*
X120293839Y-130419722D01*
X120293837Y-130419729D01*
X120243980Y-130599300D01*
X120207078Y-130658630D01*
X120143958Y-130688591D01*
X120074660Y-130679670D01*
X120021186Y-130634700D01*
X120000514Y-130567959D01*
X120000500Y-130566127D01*
X120000500Y-128000001D01*
X140916710Y-128000001D01*
X140936584Y-128150965D01*
X140936586Y-128150970D01*
X140994853Y-128291640D01*
X140994856Y-128291646D01*
X141087551Y-128412447D01*
X141087552Y-128412448D01*
X141208353Y-128505143D01*
X141208359Y-128505146D01*
X141278694Y-128534279D01*
X141349033Y-128563415D01*
X141424516Y-128573352D01*
X141499999Y-128583290D01*
X141500000Y-128583290D01*
X141500001Y-128583290D01*
X141550322Y-128576665D01*
X141650967Y-128563415D01*
X141791645Y-128505144D01*
X141912448Y-128412448D01*
X142005144Y-128291645D01*
X142063415Y-128150967D01*
X142083290Y-128000000D01*
X142063415Y-127849033D01*
X142005144Y-127708355D01*
X142005143Y-127708353D01*
X141912448Y-127587552D01*
X141912447Y-127587551D01*
X141791646Y-127494856D01*
X141791640Y-127494853D01*
X141650970Y-127436586D01*
X141650965Y-127436584D01*
X141500001Y-127416710D01*
X141499999Y-127416710D01*
X141349034Y-127436584D01*
X141349029Y-127436586D01*
X141208359Y-127494853D01*
X141208353Y-127494856D01*
X141087552Y-127587551D01*
X141087551Y-127587552D01*
X140994856Y-127708353D01*
X140994853Y-127708359D01*
X140936586Y-127849029D01*
X140936584Y-127849034D01*
X140916710Y-127999998D01*
X140916710Y-128000001D01*
X120000500Y-128000001D01*
X120000500Y-124840001D01*
X124016710Y-124840001D01*
X124036584Y-124990965D01*
X124036586Y-124990970D01*
X124094853Y-125131640D01*
X124094856Y-125131646D01*
X124187551Y-125252447D01*
X124187552Y-125252448D01*
X124308353Y-125345143D01*
X124308359Y-125345146D01*
X124373106Y-125371965D01*
X124449033Y-125403415D01*
X124524516Y-125413352D01*
X124599999Y-125423290D01*
X124600000Y-125423290D01*
X124600001Y-125423290D01*
X124650322Y-125416665D01*
X124750967Y-125403415D01*
X124891645Y-125345144D01*
X125012448Y-125252448D01*
X125105144Y-125131645D01*
X125163415Y-124990967D01*
X125183290Y-124840001D01*
X126556710Y-124840001D01*
X126576584Y-124990965D01*
X126576586Y-124990970D01*
X126634853Y-125131640D01*
X126634856Y-125131646D01*
X126727551Y-125252447D01*
X126727552Y-125252448D01*
X126848353Y-125345143D01*
X126848359Y-125345146D01*
X126913106Y-125371965D01*
X126989033Y-125403415D01*
X127064516Y-125413352D01*
X127139999Y-125423290D01*
X127140000Y-125423290D01*
X127140001Y-125423290D01*
X127190322Y-125416665D01*
X127290967Y-125403415D01*
X127431645Y-125345144D01*
X127552448Y-125252448D01*
X127645144Y-125131645D01*
X127703415Y-124990967D01*
X127723290Y-124840001D01*
X129096710Y-124840001D01*
X129116584Y-124990965D01*
X129116586Y-124990970D01*
X129174853Y-125131640D01*
X129174856Y-125131646D01*
X129267551Y-125252447D01*
X129267552Y-125252448D01*
X129388353Y-125345143D01*
X129388359Y-125345146D01*
X129453106Y-125371965D01*
X129529033Y-125403415D01*
X129604516Y-125413352D01*
X129679999Y-125423290D01*
X129680000Y-125423290D01*
X129680001Y-125423290D01*
X129730322Y-125416665D01*
X129830967Y-125403415D01*
X129971645Y-125345144D01*
X130092448Y-125252448D01*
X130185144Y-125131645D01*
X130243415Y-124990967D01*
X130263290Y-124840001D01*
X131636710Y-124840001D01*
X131656584Y-124990965D01*
X131656586Y-124990970D01*
X131714853Y-125131640D01*
X131714856Y-125131646D01*
X131807551Y-125252447D01*
X131807552Y-125252448D01*
X131928353Y-125345143D01*
X131928359Y-125345146D01*
X131993106Y-125371965D01*
X132069033Y-125403415D01*
X132144516Y-125413352D01*
X132219999Y-125423290D01*
X132220000Y-125423290D01*
X132220001Y-125423290D01*
X132270322Y-125416665D01*
X132370967Y-125403415D01*
X132511645Y-125345144D01*
X132632448Y-125252448D01*
X132725144Y-125131645D01*
X132783415Y-124990967D01*
X132803290Y-124840001D01*
X134176710Y-124840001D01*
X134196584Y-124990965D01*
X134196586Y-124990970D01*
X134254853Y-125131640D01*
X134254856Y-125131646D01*
X134347551Y-125252447D01*
X134347552Y-125252448D01*
X134468353Y-125345143D01*
X134468359Y-125345146D01*
X134533106Y-125371965D01*
X134609033Y-125403415D01*
X134684516Y-125413352D01*
X134759999Y-125423290D01*
X134760000Y-125423290D01*
X134760001Y-125423290D01*
X134810322Y-125416665D01*
X134910967Y-125403415D01*
X135051645Y-125345144D01*
X135172448Y-125252448D01*
X135265144Y-125131645D01*
X135323415Y-124990967D01*
X135343290Y-124840000D01*
X135338372Y-124802647D01*
X135323415Y-124689034D01*
X135323413Y-124689029D01*
X135265146Y-124548359D01*
X135265143Y-124548353D01*
X135172448Y-124427552D01*
X135172447Y-124427551D01*
X135051646Y-124334856D01*
X135051640Y-124334853D01*
X134910970Y-124276586D01*
X134910965Y-124276584D01*
X134760001Y-124256710D01*
X134759999Y-124256710D01*
X134609034Y-124276584D01*
X134609029Y-124276586D01*
X134468359Y-124334853D01*
X134468353Y-124334856D01*
X134347552Y-124427551D01*
X134347551Y-124427552D01*
X134254856Y-124548353D01*
X134254853Y-124548359D01*
X134196586Y-124689029D01*
X134196584Y-124689034D01*
X134176710Y-124839998D01*
X134176710Y-124840001D01*
X132803290Y-124840001D01*
X132803290Y-124840000D01*
X132798372Y-124802647D01*
X132783415Y-124689034D01*
X132783413Y-124689029D01*
X132725146Y-124548359D01*
X132725143Y-124548353D01*
X132632448Y-124427552D01*
X132632447Y-124427551D01*
X132511646Y-124334856D01*
X132511640Y-124334853D01*
X132370970Y-124276586D01*
X132370965Y-124276584D01*
X132220001Y-124256710D01*
X132219999Y-124256710D01*
X132069034Y-124276584D01*
X132069029Y-124276586D01*
X131928359Y-124334853D01*
X131928353Y-124334856D01*
X131807552Y-124427551D01*
X131807551Y-124427552D01*
X131714856Y-124548353D01*
X131714853Y-124548359D01*
X131656586Y-124689029D01*
X131656584Y-124689034D01*
X131636710Y-124839998D01*
X131636710Y-124840001D01*
X130263290Y-124840001D01*
X130263290Y-124840000D01*
X130258372Y-124802647D01*
X130243415Y-124689034D01*
X130243413Y-124689029D01*
X130185146Y-124548359D01*
X130185143Y-124548353D01*
X130092448Y-124427552D01*
X130092447Y-124427551D01*
X129971646Y-124334856D01*
X129971640Y-124334853D01*
X129830970Y-124276586D01*
X129830965Y-124276584D01*
X129680001Y-124256710D01*
X129679999Y-124256710D01*
X129529034Y-124276584D01*
X129529029Y-124276586D01*
X129388359Y-124334853D01*
X129388353Y-124334856D01*
X129267552Y-124427551D01*
X129267551Y-124427552D01*
X129174856Y-124548353D01*
X129174853Y-124548359D01*
X129116586Y-124689029D01*
X129116584Y-124689034D01*
X129096710Y-124839998D01*
X129096710Y-124840001D01*
X127723290Y-124840001D01*
X127723290Y-124840000D01*
X127718372Y-124802647D01*
X127703415Y-124689034D01*
X127703413Y-124689029D01*
X127645146Y-124548359D01*
X127645143Y-124548353D01*
X127552448Y-124427552D01*
X127552447Y-124427551D01*
X127431646Y-124334856D01*
X127431640Y-124334853D01*
X127290970Y-124276586D01*
X127290965Y-124276584D01*
X127140001Y-124256710D01*
X127139999Y-124256710D01*
X126989034Y-124276584D01*
X126989029Y-124276586D01*
X126848359Y-124334853D01*
X126848353Y-124334856D01*
X126727552Y-124427551D01*
X126727551Y-124427552D01*
X126634856Y-124548353D01*
X126634853Y-124548359D01*
X126576586Y-124689029D01*
X126576584Y-124689034D01*
X126556710Y-124839998D01*
X126556710Y-124840001D01*
X125183290Y-124840001D01*
X125183290Y-124840000D01*
X125178372Y-124802647D01*
X125163415Y-124689034D01*
X125163413Y-124689029D01*
X125105146Y-124548359D01*
X125105143Y-124548353D01*
X125012448Y-124427552D01*
X125012447Y-124427551D01*
X124891646Y-124334856D01*
X124891640Y-124334853D01*
X124750970Y-124276586D01*
X124750965Y-124276584D01*
X124600001Y-124256710D01*
X124599999Y-124256710D01*
X124449034Y-124276584D01*
X124449029Y-124276586D01*
X124308359Y-124334853D01*
X124308353Y-124334856D01*
X124187552Y-124427551D01*
X124187551Y-124427552D01*
X124094856Y-124548353D01*
X124094853Y-124548359D01*
X124036586Y-124689029D01*
X124036584Y-124689034D01*
X124016710Y-124839998D01*
X124016710Y-124840001D01*
X120000500Y-124840001D01*
X120000500Y-122300001D01*
X124016710Y-122300001D01*
X124036584Y-122450965D01*
X124036586Y-122450970D01*
X124094853Y-122591640D01*
X124094856Y-122591646D01*
X124187551Y-122712447D01*
X124187552Y-122712448D01*
X124308353Y-122805143D01*
X124308359Y-122805146D01*
X124378694Y-122834279D01*
X124449033Y-122863415D01*
X124524516Y-122873352D01*
X124599999Y-122883290D01*
X124600000Y-122883290D01*
X124600001Y-122883290D01*
X124650322Y-122876665D01*
X124750967Y-122863415D01*
X124891645Y-122805144D01*
X125012448Y-122712448D01*
X125105144Y-122591645D01*
X125163415Y-122450967D01*
X125183290Y-122300001D01*
X126556710Y-122300001D01*
X126576584Y-122450965D01*
X126576586Y-122450970D01*
X126634853Y-122591640D01*
X126634856Y-122591646D01*
X126727551Y-122712447D01*
X126727552Y-122712448D01*
X126848353Y-122805143D01*
X126848359Y-122805146D01*
X126918694Y-122834279D01*
X126989033Y-122863415D01*
X127064516Y-122873352D01*
X127139999Y-122883290D01*
X127140000Y-122883290D01*
X127140001Y-122883290D01*
X127190322Y-122876665D01*
X127290967Y-122863415D01*
X127431645Y-122805144D01*
X127552448Y-122712448D01*
X127645144Y-122591645D01*
X127703415Y-122450967D01*
X127723290Y-122300001D01*
X129096710Y-122300001D01*
X129116584Y-122450965D01*
X129116586Y-122450970D01*
X129174853Y-122591640D01*
X129174856Y-122591646D01*
X129267551Y-122712447D01*
X129267552Y-122712448D01*
X129388353Y-122805143D01*
X129388359Y-122805146D01*
X129458694Y-122834279D01*
X129529033Y-122863415D01*
X129604516Y-122873352D01*
X129679999Y-122883290D01*
X129680000Y-122883290D01*
X129680001Y-122883290D01*
X129730322Y-122876665D01*
X129830967Y-122863415D01*
X129971645Y-122805144D01*
X130092448Y-122712448D01*
X130185144Y-122591645D01*
X130243415Y-122450967D01*
X130263290Y-122300001D01*
X131636710Y-122300001D01*
X131656584Y-122450965D01*
X131656586Y-122450970D01*
X131714853Y-122591640D01*
X131714856Y-122591646D01*
X131807551Y-122712447D01*
X131807552Y-122712448D01*
X131928353Y-122805143D01*
X131928359Y-122805146D01*
X131998694Y-122834279D01*
X132069033Y-122863415D01*
X132144516Y-122873352D01*
X132219999Y-122883290D01*
X132220000Y-122883290D01*
X132220001Y-122883290D01*
X132270322Y-122876665D01*
X132370967Y-122863415D01*
X132511645Y-122805144D01*
X132632448Y-122712448D01*
X132725144Y-122591645D01*
X132783415Y-122450967D01*
X132803290Y-122300001D01*
X134176710Y-122300001D01*
X134196584Y-122450965D01*
X134196586Y-122450970D01*
X134254853Y-122591640D01*
X134254856Y-122591646D01*
X134347551Y-122712447D01*
X134347552Y-122712448D01*
X134468353Y-122805143D01*
X134468359Y-122805146D01*
X134538694Y-122834279D01*
X134609033Y-122863415D01*
X134684516Y-122873352D01*
X134759999Y-122883290D01*
X134760000Y-122883290D01*
X134760001Y-122883290D01*
X134810322Y-122876665D01*
X134910967Y-122863415D01*
X135051645Y-122805144D01*
X135172448Y-122712448D01*
X135265144Y-122591645D01*
X135323415Y-122450967D01*
X135343290Y-122300000D01*
X135323415Y-122149033D01*
X135265144Y-122008355D01*
X135265143Y-122008353D01*
X135172448Y-121887552D01*
X135172447Y-121887551D01*
X135051646Y-121794856D01*
X135051640Y-121794853D01*
X134910970Y-121736586D01*
X134910965Y-121736584D01*
X134760001Y-121716710D01*
X134759999Y-121716710D01*
X134609034Y-121736584D01*
X134609029Y-121736586D01*
X134468359Y-121794853D01*
X134468353Y-121794856D01*
X134347552Y-121887551D01*
X134347551Y-121887552D01*
X134254856Y-122008353D01*
X134254853Y-122008359D01*
X134196586Y-122149029D01*
X134196584Y-122149034D01*
X134176710Y-122299998D01*
X134176710Y-122300001D01*
X132803290Y-122300001D01*
X132803290Y-122300000D01*
X132783415Y-122149033D01*
X132725144Y-122008355D01*
X132725143Y-122008353D01*
X132632448Y-121887552D01*
X132632447Y-121887551D01*
X132511646Y-121794856D01*
X132511640Y-121794853D01*
X132370970Y-121736586D01*
X132370965Y-121736584D01*
X132220001Y-121716710D01*
X132219999Y-121716710D01*
X132069034Y-121736584D01*
X132069029Y-121736586D01*
X131928359Y-121794853D01*
X131928353Y-121794856D01*
X131807552Y-121887551D01*
X131807551Y-121887552D01*
X131714856Y-122008353D01*
X131714853Y-122008359D01*
X131656586Y-122149029D01*
X131656584Y-122149034D01*
X131636710Y-122299998D01*
X131636710Y-122300001D01*
X130263290Y-122300001D01*
X130263290Y-122300000D01*
X130243415Y-122149033D01*
X130185144Y-122008355D01*
X130185143Y-122008353D01*
X130092448Y-121887552D01*
X130092447Y-121887551D01*
X129971646Y-121794856D01*
X129971640Y-121794853D01*
X129830970Y-121736586D01*
X129830965Y-121736584D01*
X129680001Y-121716710D01*
X129679999Y-121716710D01*
X129529034Y-121736584D01*
X129529029Y-121736586D01*
X129388359Y-121794853D01*
X129388353Y-121794856D01*
X129267552Y-121887551D01*
X129267551Y-121887552D01*
X129174856Y-122008353D01*
X129174853Y-122008359D01*
X129116586Y-122149029D01*
X129116584Y-122149034D01*
X129096710Y-122299998D01*
X129096710Y-122300001D01*
X127723290Y-122300001D01*
X127723290Y-122300000D01*
X127703415Y-122149033D01*
X127645144Y-122008355D01*
X127645143Y-122008353D01*
X127552448Y-121887552D01*
X127552447Y-121887551D01*
X127431646Y-121794856D01*
X127431640Y-121794853D01*
X127290970Y-121736586D01*
X127290965Y-121736584D01*
X127140001Y-121716710D01*
X127139999Y-121716710D01*
X126989034Y-121736584D01*
X126989029Y-121736586D01*
X126848359Y-121794853D01*
X126848353Y-121794856D01*
X126727552Y-121887551D01*
X126727551Y-121887552D01*
X126634856Y-122008353D01*
X126634853Y-122008359D01*
X126576586Y-122149029D01*
X126576584Y-122149034D01*
X126556710Y-122299998D01*
X126556710Y-122300001D01*
X125183290Y-122300001D01*
X125183290Y-122300000D01*
X125163415Y-122149033D01*
X125105144Y-122008355D01*
X125105143Y-122008353D01*
X125012448Y-121887552D01*
X125012447Y-121887551D01*
X124891646Y-121794856D01*
X124891640Y-121794853D01*
X124750970Y-121736586D01*
X124750965Y-121736584D01*
X124600001Y-121716710D01*
X124599999Y-121716710D01*
X124449034Y-121736584D01*
X124449029Y-121736586D01*
X124308359Y-121794853D01*
X124308353Y-121794856D01*
X124187552Y-121887551D01*
X124187551Y-121887552D01*
X124094856Y-122008353D01*
X124094853Y-122008359D01*
X124036586Y-122149029D01*
X124036584Y-122149034D01*
X124016710Y-122299998D01*
X124016710Y-122300001D01*
X120000500Y-122300001D01*
X120000500Y-119760001D01*
X124016710Y-119760001D01*
X124036584Y-119910965D01*
X124036586Y-119910970D01*
X124094853Y-120051640D01*
X124094856Y-120051646D01*
X124187551Y-120172447D01*
X124187552Y-120172448D01*
X124308353Y-120265143D01*
X124308359Y-120265146D01*
X124378694Y-120294279D01*
X124449033Y-120323415D01*
X124467985Y-120325910D01*
X124599999Y-120343290D01*
X124600000Y-120343290D01*
X124600001Y-120343290D01*
X124650322Y-120336665D01*
X124750967Y-120323415D01*
X124891645Y-120265144D01*
X125012448Y-120172448D01*
X125105144Y-120051645D01*
X125163415Y-119910967D01*
X125178265Y-119798170D01*
X125183290Y-119760001D01*
X126556710Y-119760001D01*
X126576584Y-119910965D01*
X126576586Y-119910970D01*
X126634853Y-120051640D01*
X126634856Y-120051646D01*
X126727551Y-120172447D01*
X126727552Y-120172448D01*
X126848353Y-120265143D01*
X126848359Y-120265146D01*
X126918694Y-120294279D01*
X126989033Y-120323415D01*
X127007985Y-120325910D01*
X127139999Y-120343290D01*
X127140000Y-120343290D01*
X127140001Y-120343290D01*
X127190322Y-120336665D01*
X127290967Y-120323415D01*
X127431645Y-120265144D01*
X127552448Y-120172448D01*
X127645144Y-120051645D01*
X127703415Y-119910967D01*
X127718265Y-119798170D01*
X127723290Y-119760001D01*
X129096710Y-119760001D01*
X129116584Y-119910965D01*
X129116586Y-119910970D01*
X129174853Y-120051640D01*
X129174856Y-120051646D01*
X129267551Y-120172447D01*
X129267552Y-120172448D01*
X129388353Y-120265143D01*
X129388359Y-120265146D01*
X129458694Y-120294279D01*
X129529033Y-120323415D01*
X129547985Y-120325910D01*
X129679999Y-120343290D01*
X129680000Y-120343290D01*
X129680001Y-120343290D01*
X129730322Y-120336665D01*
X129830967Y-120323415D01*
X129971645Y-120265144D01*
X130092448Y-120172448D01*
X130185144Y-120051645D01*
X130243415Y-119910967D01*
X130258265Y-119798170D01*
X130263290Y-119760001D01*
X131636710Y-119760001D01*
X131656584Y-119910965D01*
X131656586Y-119910970D01*
X131714853Y-120051640D01*
X131714856Y-120051646D01*
X131807551Y-120172447D01*
X131807552Y-120172448D01*
X131928353Y-120265143D01*
X131928359Y-120265146D01*
X131998694Y-120294279D01*
X132069033Y-120323415D01*
X132087985Y-120325910D01*
X132219999Y-120343290D01*
X132220000Y-120343290D01*
X132220001Y-120343290D01*
X132270322Y-120336665D01*
X132370967Y-120323415D01*
X132511645Y-120265144D01*
X132632448Y-120172448D01*
X132725144Y-120051645D01*
X132783415Y-119910967D01*
X132798265Y-119798170D01*
X132803290Y-119760001D01*
X134176710Y-119760001D01*
X134196584Y-119910965D01*
X134196586Y-119910970D01*
X134254853Y-120051640D01*
X134254856Y-120051646D01*
X134347551Y-120172447D01*
X134347552Y-120172448D01*
X134468353Y-120265143D01*
X134468359Y-120265146D01*
X134538694Y-120294279D01*
X134609033Y-120323415D01*
X134627985Y-120325910D01*
X134759999Y-120343290D01*
X134760000Y-120343290D01*
X134760001Y-120343290D01*
X134810322Y-120336665D01*
X134910967Y-120323415D01*
X135051645Y-120265144D01*
X135172448Y-120172448D01*
X135265144Y-120051645D01*
X135323415Y-119910967D01*
X135338265Y-119798170D01*
X135343290Y-119760001D01*
X135343290Y-119759998D01*
X135329310Y-119653807D01*
X135323415Y-119609033D01*
X135265144Y-119468355D01*
X135265143Y-119468353D01*
X135172448Y-119347552D01*
X135172447Y-119347551D01*
X135051646Y-119254856D01*
X135051640Y-119254853D01*
X134910970Y-119196586D01*
X134910965Y-119196584D01*
X134760001Y-119176710D01*
X134759999Y-119176710D01*
X134609034Y-119196584D01*
X134609029Y-119196586D01*
X134468359Y-119254853D01*
X134468353Y-119254856D01*
X134347552Y-119347551D01*
X134347551Y-119347552D01*
X134254856Y-119468353D01*
X134254853Y-119468359D01*
X134196586Y-119609029D01*
X134196584Y-119609034D01*
X134176710Y-119759998D01*
X134176710Y-119760001D01*
X132803290Y-119760001D01*
X132803290Y-119759998D01*
X132789310Y-119653807D01*
X132783415Y-119609033D01*
X132725144Y-119468355D01*
X132725143Y-119468353D01*
X132632448Y-119347552D01*
X132632447Y-119347551D01*
X132511646Y-119254856D01*
X132511640Y-119254853D01*
X132370970Y-119196586D01*
X132370965Y-119196584D01*
X132220001Y-119176710D01*
X132219999Y-119176710D01*
X132069034Y-119196584D01*
X132069029Y-119196586D01*
X131928359Y-119254853D01*
X131928353Y-119254856D01*
X131807552Y-119347551D01*
X131807551Y-119347552D01*
X131714856Y-119468353D01*
X131714853Y-119468359D01*
X131656586Y-119609029D01*
X131656584Y-119609034D01*
X131636710Y-119759998D01*
X131636710Y-119760001D01*
X130263290Y-119760001D01*
X130263290Y-119759998D01*
X130249310Y-119653807D01*
X130243415Y-119609033D01*
X130185144Y-119468355D01*
X130185143Y-119468353D01*
X130092448Y-119347552D01*
X130092447Y-119347551D01*
X129971646Y-119254856D01*
X129971640Y-119254853D01*
X129830970Y-119196586D01*
X129830965Y-119196584D01*
X129680001Y-119176710D01*
X129679999Y-119176710D01*
X129529034Y-119196584D01*
X129529029Y-119196586D01*
X129388359Y-119254853D01*
X129388353Y-119254856D01*
X129267552Y-119347551D01*
X129267551Y-119347552D01*
X129174856Y-119468353D01*
X129174853Y-119468359D01*
X129116586Y-119609029D01*
X129116584Y-119609034D01*
X129096710Y-119759998D01*
X129096710Y-119760001D01*
X127723290Y-119760001D01*
X127723290Y-119759998D01*
X127709310Y-119653807D01*
X127703415Y-119609033D01*
X127645144Y-119468355D01*
X127645143Y-119468353D01*
X127552448Y-119347552D01*
X127552447Y-119347551D01*
X127431646Y-119254856D01*
X127431640Y-119254853D01*
X127290970Y-119196586D01*
X127290965Y-119196584D01*
X127140001Y-119176710D01*
X127139999Y-119176710D01*
X126989034Y-119196584D01*
X126989029Y-119196586D01*
X126848359Y-119254853D01*
X126848353Y-119254856D01*
X126727552Y-119347551D01*
X126727551Y-119347552D01*
X126634856Y-119468353D01*
X126634853Y-119468359D01*
X126576586Y-119609029D01*
X126576584Y-119609034D01*
X126556710Y-119759998D01*
X126556710Y-119760001D01*
X125183290Y-119760001D01*
X125183290Y-119759998D01*
X125169310Y-119653807D01*
X125163415Y-119609033D01*
X125105144Y-119468355D01*
X125105143Y-119468353D01*
X125012448Y-119347552D01*
X125012447Y-119347551D01*
X124891646Y-119254856D01*
X124891640Y-119254853D01*
X124750970Y-119196586D01*
X124750965Y-119196584D01*
X124600001Y-119176710D01*
X124599999Y-119176710D01*
X124449034Y-119196584D01*
X124449029Y-119196586D01*
X124308359Y-119254853D01*
X124308353Y-119254856D01*
X124187552Y-119347551D01*
X124187551Y-119347552D01*
X124094856Y-119468353D01*
X124094853Y-119468359D01*
X124036586Y-119609029D01*
X124036584Y-119609034D01*
X124016710Y-119759998D01*
X124016710Y-119760001D01*
X120000500Y-119760001D01*
X120000500Y-117220001D01*
X124016710Y-117220001D01*
X124036584Y-117370965D01*
X124036586Y-117370970D01*
X124094853Y-117511640D01*
X124094856Y-117511646D01*
X124187551Y-117632447D01*
X124187552Y-117632448D01*
X124308353Y-117725143D01*
X124308359Y-117725146D01*
X124378694Y-117754279D01*
X124449033Y-117783415D01*
X124524516Y-117793352D01*
X124599999Y-117803290D01*
X124600000Y-117803290D01*
X124600001Y-117803290D01*
X124650322Y-117796665D01*
X124750967Y-117783415D01*
X124891645Y-117725144D01*
X125012448Y-117632448D01*
X125105144Y-117511645D01*
X125163415Y-117370967D01*
X125176665Y-117270322D01*
X125183290Y-117220001D01*
X126556710Y-117220001D01*
X126576584Y-117370965D01*
X126576586Y-117370970D01*
X126634853Y-117511640D01*
X126634856Y-117511646D01*
X126727551Y-117632447D01*
X126727552Y-117632448D01*
X126848353Y-117725143D01*
X126848359Y-117725146D01*
X126918694Y-117754279D01*
X126989033Y-117783415D01*
X127064516Y-117793352D01*
X127139999Y-117803290D01*
X127140000Y-117803290D01*
X127140001Y-117803290D01*
X127190322Y-117796665D01*
X127290967Y-117783415D01*
X127431645Y-117725144D01*
X127552448Y-117632448D01*
X127645144Y-117511645D01*
X127703415Y-117370967D01*
X127716665Y-117270322D01*
X127723290Y-117220001D01*
X129096710Y-117220001D01*
X129116584Y-117370965D01*
X129116586Y-117370970D01*
X129174853Y-117511640D01*
X129174856Y-117511646D01*
X129267551Y-117632447D01*
X129267552Y-117632448D01*
X129388353Y-117725143D01*
X129388359Y-117725146D01*
X129458694Y-117754279D01*
X129529033Y-117783415D01*
X129604516Y-117793352D01*
X129679999Y-117803290D01*
X129680000Y-117803290D01*
X129680001Y-117803290D01*
X129730322Y-117796665D01*
X129830967Y-117783415D01*
X129971645Y-117725144D01*
X130092448Y-117632448D01*
X130185144Y-117511645D01*
X130243415Y-117370967D01*
X130256665Y-117270322D01*
X130263290Y-117220001D01*
X131636710Y-117220001D01*
X131656584Y-117370965D01*
X131656586Y-117370970D01*
X131714853Y-117511640D01*
X131714856Y-117511646D01*
X131807551Y-117632447D01*
X131807552Y-117632448D01*
X131928353Y-117725143D01*
X131928359Y-117725146D01*
X131998694Y-117754279D01*
X132069033Y-117783415D01*
X132144516Y-117793352D01*
X132219999Y-117803290D01*
X132220000Y-117803290D01*
X132220001Y-117803290D01*
X132270322Y-117796665D01*
X132370967Y-117783415D01*
X132511645Y-117725144D01*
X132632448Y-117632448D01*
X132725144Y-117511645D01*
X132783415Y-117370967D01*
X132796665Y-117270322D01*
X132803290Y-117220001D01*
X134176710Y-117220001D01*
X134196584Y-117370965D01*
X134196586Y-117370970D01*
X134254853Y-117511640D01*
X134254856Y-117511646D01*
X134347551Y-117632447D01*
X134347552Y-117632448D01*
X134468353Y-117725143D01*
X134468359Y-117725146D01*
X134538694Y-117754279D01*
X134609033Y-117783415D01*
X134684516Y-117793352D01*
X134759999Y-117803290D01*
X134760000Y-117803290D01*
X134760001Y-117803290D01*
X134810322Y-117796665D01*
X134910967Y-117783415D01*
X135051645Y-117725144D01*
X135172448Y-117632448D01*
X135265144Y-117511645D01*
X135323415Y-117370967D01*
X135336665Y-117270322D01*
X135343290Y-117220001D01*
X135343290Y-117219998D01*
X135323415Y-117069034D01*
X135323413Y-117069029D01*
X135314199Y-117046785D01*
X135265144Y-116928355D01*
X135265143Y-116928353D01*
X135172448Y-116807552D01*
X135172447Y-116807551D01*
X135051646Y-116714856D01*
X135051640Y-116714853D01*
X134910970Y-116656586D01*
X134910965Y-116656584D01*
X134760001Y-116636710D01*
X134759999Y-116636710D01*
X134609034Y-116656584D01*
X134609029Y-116656586D01*
X134468359Y-116714853D01*
X134468353Y-116714856D01*
X134347552Y-116807551D01*
X134347551Y-116807552D01*
X134254856Y-116928353D01*
X134254853Y-116928359D01*
X134196586Y-117069029D01*
X134196584Y-117069034D01*
X134176710Y-117219998D01*
X134176710Y-117220001D01*
X132803290Y-117220001D01*
X132803290Y-117219998D01*
X132783415Y-117069034D01*
X132783413Y-117069029D01*
X132774199Y-117046785D01*
X132725144Y-116928355D01*
X132725143Y-116928353D01*
X132632448Y-116807552D01*
X132632447Y-116807551D01*
X132511646Y-116714856D01*
X132511640Y-116714853D01*
X132370970Y-116656586D01*
X132370965Y-116656584D01*
X132220001Y-116636710D01*
X132219999Y-116636710D01*
X132069034Y-116656584D01*
X132069029Y-116656586D01*
X131928359Y-116714853D01*
X131928353Y-116714856D01*
X131807552Y-116807551D01*
X131807551Y-116807552D01*
X131714856Y-116928353D01*
X131714853Y-116928359D01*
X131656586Y-117069029D01*
X131656584Y-117069034D01*
X131636710Y-117219998D01*
X131636710Y-117220001D01*
X130263290Y-117220001D01*
X130263290Y-117219998D01*
X130243415Y-117069034D01*
X130243413Y-117069029D01*
X130234199Y-117046785D01*
X130185144Y-116928355D01*
X130185143Y-116928353D01*
X130092448Y-116807552D01*
X130092447Y-116807551D01*
X129971646Y-116714856D01*
X129971640Y-116714853D01*
X129830970Y-116656586D01*
X129830965Y-116656584D01*
X129680001Y-116636710D01*
X129679999Y-116636710D01*
X129529034Y-116656584D01*
X129529029Y-116656586D01*
X129388359Y-116714853D01*
X129388353Y-116714856D01*
X129267552Y-116807551D01*
X129267551Y-116807552D01*
X129174856Y-116928353D01*
X129174853Y-116928359D01*
X129116586Y-117069029D01*
X129116584Y-117069034D01*
X129096710Y-117219998D01*
X129096710Y-117220001D01*
X127723290Y-117220001D01*
X127723290Y-117219998D01*
X127703415Y-117069034D01*
X127703413Y-117069029D01*
X127694199Y-117046785D01*
X127645144Y-116928355D01*
X127645143Y-116928353D01*
X127552448Y-116807552D01*
X127552447Y-116807551D01*
X127431646Y-116714856D01*
X127431640Y-116714853D01*
X127290970Y-116656586D01*
X127290965Y-116656584D01*
X127140001Y-116636710D01*
X127139999Y-116636710D01*
X126989034Y-116656584D01*
X126989029Y-116656586D01*
X126848359Y-116714853D01*
X126848353Y-116714856D01*
X126727552Y-116807551D01*
X126727551Y-116807552D01*
X126634856Y-116928353D01*
X126634853Y-116928359D01*
X126576586Y-117069029D01*
X126576584Y-117069034D01*
X126556710Y-117219998D01*
X126556710Y-117220001D01*
X125183290Y-117220001D01*
X125183290Y-117219998D01*
X125163415Y-117069034D01*
X125163413Y-117069029D01*
X125154199Y-117046785D01*
X125105144Y-116928355D01*
X125105143Y-116928353D01*
X125012448Y-116807552D01*
X125012447Y-116807551D01*
X124891646Y-116714856D01*
X124891640Y-116714853D01*
X124750970Y-116656586D01*
X124750965Y-116656584D01*
X124600001Y-116636710D01*
X124599999Y-116636710D01*
X124449034Y-116656584D01*
X124449029Y-116656586D01*
X124308359Y-116714853D01*
X124308353Y-116714856D01*
X124187552Y-116807551D01*
X124187551Y-116807552D01*
X124094856Y-116928353D01*
X124094853Y-116928359D01*
X124036586Y-117069029D01*
X124036584Y-117069034D01*
X124016710Y-117219998D01*
X124016710Y-117220001D01*
X120000500Y-117220001D01*
X120000500Y-114680001D01*
X124016710Y-114680001D01*
X124036584Y-114830965D01*
X124036586Y-114830970D01*
X124094853Y-114971640D01*
X124094856Y-114971646D01*
X124187551Y-115092447D01*
X124187552Y-115092448D01*
X124308353Y-115185143D01*
X124308359Y-115185146D01*
X124378694Y-115214279D01*
X124449033Y-115243415D01*
X124512770Y-115251806D01*
X124599999Y-115263290D01*
X124600000Y-115263290D01*
X124600001Y-115263290D01*
X124672449Y-115253752D01*
X124750967Y-115243415D01*
X124891645Y-115185144D01*
X125012448Y-115092448D01*
X125105144Y-114971645D01*
X125163415Y-114830967D01*
X125179557Y-114708353D01*
X125183290Y-114680001D01*
X126556710Y-114680001D01*
X126576584Y-114830965D01*
X126576586Y-114830970D01*
X126634853Y-114971640D01*
X126634856Y-114971646D01*
X126727551Y-115092447D01*
X126727552Y-115092448D01*
X126848353Y-115185143D01*
X126848359Y-115185146D01*
X126918694Y-115214279D01*
X126989033Y-115243415D01*
X127052770Y-115251806D01*
X127139999Y-115263290D01*
X127140000Y-115263290D01*
X127140001Y-115263290D01*
X127212449Y-115253752D01*
X127290967Y-115243415D01*
X127431645Y-115185144D01*
X127552448Y-115092448D01*
X127645144Y-114971645D01*
X127703415Y-114830967D01*
X127719557Y-114708353D01*
X127723290Y-114680001D01*
X129096710Y-114680001D01*
X129116584Y-114830965D01*
X129116586Y-114830970D01*
X129174853Y-114971640D01*
X129174856Y-114971646D01*
X129267551Y-115092447D01*
X129267552Y-115092448D01*
X129388353Y-115185143D01*
X129388359Y-115185146D01*
X129458694Y-115214279D01*
X129529033Y-115243415D01*
X129592770Y-115251806D01*
X129679999Y-115263290D01*
X129680000Y-115263290D01*
X129680001Y-115263290D01*
X129752449Y-115253752D01*
X129830967Y-115243415D01*
X129971645Y-115185144D01*
X130092448Y-115092448D01*
X130185144Y-114971645D01*
X130243415Y-114830967D01*
X130259557Y-114708353D01*
X130263290Y-114680001D01*
X131636710Y-114680001D01*
X131656584Y-114830965D01*
X131656586Y-114830970D01*
X131714853Y-114971640D01*
X131714856Y-114971646D01*
X131807551Y-115092447D01*
X131807552Y-115092448D01*
X131928353Y-115185143D01*
X131928359Y-115185146D01*
X131998694Y-115214279D01*
X132069033Y-115243415D01*
X132132770Y-115251806D01*
X132219999Y-115263290D01*
X132220000Y-115263290D01*
X132220001Y-115263290D01*
X132292449Y-115253752D01*
X132370967Y-115243415D01*
X132511645Y-115185144D01*
X132632448Y-115092448D01*
X132725144Y-114971645D01*
X132783415Y-114830967D01*
X132799557Y-114708353D01*
X132803290Y-114680001D01*
X134176710Y-114680001D01*
X134196584Y-114830965D01*
X134196586Y-114830970D01*
X134254853Y-114971640D01*
X134254856Y-114971646D01*
X134347551Y-115092447D01*
X134347552Y-115092448D01*
X134468353Y-115185143D01*
X134468359Y-115185146D01*
X134538694Y-115214279D01*
X134609033Y-115243415D01*
X134672770Y-115251806D01*
X134759999Y-115263290D01*
X134760000Y-115263290D01*
X134760001Y-115263290D01*
X134832449Y-115253752D01*
X134910967Y-115243415D01*
X135051645Y-115185144D01*
X135172448Y-115092448D01*
X135265144Y-114971645D01*
X135323415Y-114830967D01*
X135339557Y-114708353D01*
X135343290Y-114680001D01*
X135343290Y-114679998D01*
X135329178Y-114572805D01*
X135323415Y-114529033D01*
X135265144Y-114388355D01*
X135265143Y-114388353D01*
X135172448Y-114267552D01*
X135172447Y-114267551D01*
X135051646Y-114174856D01*
X135051640Y-114174853D01*
X134910970Y-114116586D01*
X134910965Y-114116584D01*
X134760001Y-114096710D01*
X134759999Y-114096710D01*
X134609034Y-114116584D01*
X134609029Y-114116586D01*
X134468359Y-114174853D01*
X134468353Y-114174856D01*
X134347552Y-114267551D01*
X134347551Y-114267552D01*
X134254856Y-114388353D01*
X134254853Y-114388359D01*
X134196586Y-114529029D01*
X134196584Y-114529034D01*
X134176710Y-114679998D01*
X134176710Y-114680001D01*
X132803290Y-114680001D01*
X132803290Y-114679998D01*
X132789178Y-114572805D01*
X132783415Y-114529033D01*
X132725144Y-114388355D01*
X132725143Y-114388353D01*
X132632448Y-114267552D01*
X132632447Y-114267551D01*
X132511646Y-114174856D01*
X132511640Y-114174853D01*
X132370970Y-114116586D01*
X132370965Y-114116584D01*
X132220001Y-114096710D01*
X132219999Y-114096710D01*
X132069034Y-114116584D01*
X132069029Y-114116586D01*
X131928359Y-114174853D01*
X131928353Y-114174856D01*
X131807552Y-114267551D01*
X131807551Y-114267552D01*
X131714856Y-114388353D01*
X131714853Y-114388359D01*
X131656586Y-114529029D01*
X131656584Y-114529034D01*
X131636710Y-114679998D01*
X131636710Y-114680001D01*
X130263290Y-114680001D01*
X130263290Y-114679998D01*
X130249178Y-114572805D01*
X130243415Y-114529033D01*
X130185144Y-114388355D01*
X130185143Y-114388353D01*
X130092448Y-114267552D01*
X130092447Y-114267551D01*
X129971646Y-114174856D01*
X129971640Y-114174853D01*
X129830970Y-114116586D01*
X129830965Y-114116584D01*
X129680001Y-114096710D01*
X129679999Y-114096710D01*
X129529034Y-114116584D01*
X129529029Y-114116586D01*
X129388359Y-114174853D01*
X129388353Y-114174856D01*
X129267552Y-114267551D01*
X129267551Y-114267552D01*
X129174856Y-114388353D01*
X129174853Y-114388359D01*
X129116586Y-114529029D01*
X129116584Y-114529034D01*
X129096710Y-114679998D01*
X129096710Y-114680001D01*
X127723290Y-114680001D01*
X127723290Y-114679998D01*
X127709178Y-114572805D01*
X127703415Y-114529033D01*
X127645144Y-114388355D01*
X127645143Y-114388353D01*
X127552448Y-114267552D01*
X127552447Y-114267551D01*
X127431646Y-114174856D01*
X127431640Y-114174853D01*
X127290970Y-114116586D01*
X127290965Y-114116584D01*
X127140001Y-114096710D01*
X127139999Y-114096710D01*
X126989034Y-114116584D01*
X126989029Y-114116586D01*
X126848359Y-114174853D01*
X126848353Y-114174856D01*
X126727552Y-114267551D01*
X126727551Y-114267552D01*
X126634856Y-114388353D01*
X126634853Y-114388359D01*
X126576586Y-114529029D01*
X126576584Y-114529034D01*
X126556710Y-114679998D01*
X126556710Y-114680001D01*
X125183290Y-114680001D01*
X125183290Y-114679998D01*
X125169178Y-114572805D01*
X125163415Y-114529033D01*
X125105144Y-114388355D01*
X125105143Y-114388353D01*
X125012448Y-114267552D01*
X125012447Y-114267551D01*
X124891646Y-114174856D01*
X124891640Y-114174853D01*
X124750970Y-114116586D01*
X124750965Y-114116584D01*
X124600001Y-114096710D01*
X124599999Y-114096710D01*
X124449034Y-114116584D01*
X124449029Y-114116586D01*
X124308359Y-114174853D01*
X124308353Y-114174856D01*
X124187552Y-114267551D01*
X124187551Y-114267552D01*
X124094856Y-114388353D01*
X124094853Y-114388359D01*
X124036586Y-114529029D01*
X124036584Y-114529034D01*
X124016710Y-114679998D01*
X124016710Y-114680001D01*
X120000500Y-114680001D01*
X120000500Y-112124000D01*
X120020185Y-112056961D01*
X120072989Y-112011206D01*
X120124500Y-112000000D01*
X144872800Y-112000000D01*
X144939839Y-112019685D01*
G37*
%TD.AperFunction*%
%TD*%
M02*
