%TF.GenerationSoftware,KiCad,Pcbnew,7.0.8*%
%TF.CreationDate,2024-07-02T10:47:19-04:00*%
%TF.ProjectId,motor-driver,6d6f746f-722d-4647-9269-7665722e6b69,rev?*%
%TF.SameCoordinates,Original*%
%TF.FileFunction,Copper,L2,Inr*%
%TF.FilePolarity,Positive*%
%FSLAX46Y46*%
G04 Gerber Fmt 4.6, Leading zero omitted, Abs format (unit mm)*
G04 Created by KiCad (PCBNEW 7.0.8) date 2024-07-02 10:47:19*
%MOMM*%
%LPD*%
G01*
G04 APERTURE LIST*
G04 Aperture macros list*
%AMRoundRect*
0 Rectangle with rounded corners*
0 $1 Rounding radius*
0 $2 $3 $4 $5 $6 $7 $8 $9 X,Y pos of 4 corners*
0 Add a 4 corners polygon primitive as box body*
4,1,4,$2,$3,$4,$5,$6,$7,$8,$9,$2,$3,0*
0 Add four circle primitives for the rounded corners*
1,1,$1+$1,$2,$3*
1,1,$1+$1,$4,$5*
1,1,$1+$1,$6,$7*
1,1,$1+$1,$8,$9*
0 Add four rect primitives between the rounded corners*
20,1,$1+$1,$2,$3,$4,$5,0*
20,1,$1+$1,$4,$5,$6,$7,0*
20,1,$1+$1,$6,$7,$8,$9,0*
20,1,$1+$1,$8,$9,$2,$3,0*%
G04 Aperture macros list end*
%TA.AperFunction,ComponentPad*%
%ADD10C,0.500000*%
%TD*%
%TA.AperFunction,ComponentPad*%
%ADD11RoundRect,0.250000X-0.625000X0.350000X-0.625000X-0.350000X0.625000X-0.350000X0.625000X0.350000X0*%
%TD*%
%TA.AperFunction,ComponentPad*%
%ADD12O,1.750000X1.200000*%
%TD*%
%TA.AperFunction,ComponentPad*%
%ADD13C,0.800000*%
%TD*%
%TA.AperFunction,ComponentPad*%
%ADD14C,6.400000*%
%TD*%
%TA.AperFunction,ComponentPad*%
%ADD15RoundRect,0.250000X-0.350000X-0.625000X0.350000X-0.625000X0.350000X0.625000X-0.350000X0.625000X0*%
%TD*%
%TA.AperFunction,ComponentPad*%
%ADD16O,1.200000X1.750000*%
%TD*%
%TA.AperFunction,ComponentPad*%
%ADD17R,3.000000X3.000000*%
%TD*%
%TA.AperFunction,ComponentPad*%
%ADD18C,3.000000*%
%TD*%
%TA.AperFunction,ComponentPad*%
%ADD19R,1.700000X1.700000*%
%TD*%
%TA.AperFunction,ComponentPad*%
%ADD20O,1.700000X1.700000*%
%TD*%
%TA.AperFunction,ComponentPad*%
%ADD21RoundRect,0.250001X-1.099999X-1.099999X1.099999X-1.099999X1.099999X1.099999X-1.099999X1.099999X0*%
%TD*%
%TA.AperFunction,ComponentPad*%
%ADD22C,2.700000*%
%TD*%
%TA.AperFunction,ComponentPad*%
%ADD23O,0.890000X1.550000*%
%TD*%
%TA.AperFunction,ComponentPad*%
%ADD24O,1.250000X0.950000*%
%TD*%
%TA.AperFunction,ComponentPad*%
%ADD25R,2.600000X2.600000*%
%TD*%
%TA.AperFunction,ComponentPad*%
%ADD26C,2.600000*%
%TD*%
%TA.AperFunction,ComponentPad*%
%ADD27R,1.600000X1.600000*%
%TD*%
%TA.AperFunction,ComponentPad*%
%ADD28C,1.600000*%
%TD*%
%TA.AperFunction,ComponentPad*%
%ADD29RoundRect,0.250000X0.625000X-0.350000X0.625000X0.350000X-0.625000X0.350000X-0.625000X-0.350000X0*%
%TD*%
%TA.AperFunction,ComponentPad*%
%ADD30C,0.600000*%
%TD*%
%TA.AperFunction,ViaPad*%
%ADD31C,0.800000*%
%TD*%
G04 APERTURE END LIST*
D10*
%TO.N,GND*%
%TO.C,U1*%
X132000000Y-110300000D03*
X132000000Y-109100000D03*
X132000000Y-107900000D03*
X132000000Y-106700000D03*
X131000000Y-110300000D03*
X131000000Y-109100000D03*
X131000000Y-107900000D03*
X131000000Y-106700000D03*
X130000000Y-110300000D03*
X130000000Y-109100000D03*
X130000000Y-107900000D03*
X130000000Y-106700000D03*
%TD*%
D11*
%TO.N,/ENC2_B*%
%TO.C,J9*%
X177350000Y-94500000D03*
D12*
%TO.N,/ENC2_A*%
X177350000Y-96500000D03*
%TO.N,+3V3*%
X177350000Y-98500000D03*
%TO.N,GND*%
X177350000Y-100500000D03*
%TD*%
D13*
%TO.N,GND*%
%TO.C,REF\u002A\u002A*%
X174100000Y-131500000D03*
X174802944Y-129802944D03*
X174802944Y-133197056D03*
X176500000Y-129100000D03*
D14*
X176500000Y-131500000D03*
X176500000Y-131500000D03*
D13*
X176500000Y-133900000D03*
X178197056Y-129802944D03*
X178197056Y-133197056D03*
X178900000Y-131500000D03*
%TD*%
D10*
%TO.N,GND*%
%TO.C,U2*%
X170000000Y-110300000D03*
X170000000Y-109100000D03*
X170000000Y-107900000D03*
X170000000Y-106700000D03*
X169000000Y-110300000D03*
X169000000Y-109100000D03*
X169000000Y-107900000D03*
X169000000Y-106700000D03*
X168000000Y-110300000D03*
X168000000Y-109100000D03*
X168000000Y-107900000D03*
X168000000Y-106700000D03*
%TD*%
D15*
%TO.N,/TX_BUFFERED*%
%TO.C,J6*%
X163500000Y-131500000D03*
D16*
%TO.N,/RX*%
X165500000Y-131500000D03*
%TO.N,Net-(J6-Pin_3)*%
X167500000Y-131500000D03*
%TO.N,GND*%
X169500000Y-131500000D03*
%TD*%
D17*
%TO.N,GND*%
%TO.C,J12*%
X152500000Y-90000000D03*
D18*
%TO.N,VBUS*%
X147500000Y-90000000D03*
%TD*%
D13*
%TO.N,GND*%
%TO.C,REF\u002A\u002A*%
X174100000Y-88500000D03*
X174802944Y-86802944D03*
X174802944Y-90197056D03*
X176500000Y-86100000D03*
D14*
X176500000Y-88500000D03*
X176500000Y-88500000D03*
D13*
X176500000Y-90900000D03*
X178197056Y-86802944D03*
X178197056Y-90197056D03*
X178900000Y-88500000D03*
%TD*%
D19*
%TO.N,/M1B*%
%TO.C,J4*%
X128410000Y-100000000D03*
D20*
%TO.N,/ENC1_A*%
X130950000Y-100000000D03*
%TO.N,GND*%
X133490000Y-100000000D03*
%TO.N,+3V3*%
X136030000Y-100000000D03*
%TO.N,/ENC1_B*%
X138570000Y-100000000D03*
%TO.N,/M1A*%
X141110000Y-100000000D03*
%TD*%
D19*
%TO.N,/M2B*%
%TO.C,J5*%
X158890000Y-100000000D03*
D20*
%TO.N,/ENC2_A*%
X161430000Y-100000000D03*
%TO.N,GND*%
X163970000Y-100000000D03*
%TO.N,+3V3*%
X166510000Y-100000000D03*
%TO.N,/ENC2_B*%
X169050000Y-100000000D03*
%TO.N,/M2A*%
X171590000Y-100000000D03*
%TD*%
D21*
%TO.N,/M2B*%
%TO.C,J11*%
X164500000Y-90000000D03*
D22*
%TO.N,/M2A*%
X168460000Y-90000000D03*
%TD*%
D23*
%TO.N,GND*%
%TO.C,J14*%
X146500000Y-133633000D03*
D24*
X147500000Y-130933000D03*
X152500000Y-130933000D03*
D23*
X153500000Y-133633000D03*
%TD*%
D13*
%TO.N,GND*%
%TO.C,REF\u002A\u002A*%
X121100000Y-131500000D03*
X121802944Y-129802944D03*
X121802944Y-133197056D03*
X123500000Y-129100000D03*
D14*
X123500000Y-131500000D03*
X123500000Y-131500000D03*
D13*
X123500000Y-133900000D03*
X125197056Y-129802944D03*
X125197056Y-133197056D03*
X125900000Y-131500000D03*
%TD*%
D25*
%TO.N,GND*%
%TO.C,J3*%
X152500000Y-93000000D03*
D26*
%TO.N,VBUS*%
X147500000Y-93000000D03*
%TD*%
D19*
%TO.N,/~{USB_BOOT}*%
%TO.C,J13*%
X157475000Y-133400000D03*
%TD*%
D25*
%TO.N,/M2A*%
%TO.C,J2*%
X169000000Y-93000000D03*
D26*
%TO.N,/M2B*%
X164000000Y-93000000D03*
%TD*%
D21*
%TO.N,/M1B*%
%TO.C,J10*%
X131750000Y-90000000D03*
D22*
%TO.N,/M1A*%
X135710000Y-90000000D03*
%TD*%
D13*
%TO.N,GND*%
%TO.C,REF\u002A\u002A*%
X121100000Y-88500000D03*
X121802944Y-86802944D03*
X121802944Y-90197056D03*
X123500000Y-86100000D03*
D14*
X123500000Y-88500000D03*
X123500000Y-88500000D03*
D13*
X123500000Y-90900000D03*
X125197056Y-86802944D03*
X125197056Y-90197056D03*
X125900000Y-88500000D03*
%TD*%
D25*
%TO.N,/M1A*%
%TO.C,J1*%
X136000000Y-93000008D03*
D26*
%TO.N,/M1B*%
X131000000Y-93000008D03*
%TD*%
D27*
%TO.N,VCC*%
%TO.C,C1*%
X153800000Y-106652651D03*
D28*
%TO.N,GND*%
X153800000Y-103152651D03*
%TD*%
D15*
%TO.N,/TX_BUFFERED*%
%TO.C,J7*%
X130500000Y-131500000D03*
D16*
%TO.N,/RX*%
X132500000Y-131500000D03*
%TO.N,Net-(J7-Pin_3)*%
X134500000Y-131500000D03*
%TO.N,GND*%
X136500000Y-131500000D03*
%TD*%
D29*
%TO.N,/ENC1_B*%
%TO.C,J8*%
X122450000Y-101000000D03*
D12*
%TO.N,/ENC1_A*%
X122450000Y-99000000D03*
%TO.N,+3V3*%
X122450000Y-97000000D03*
%TO.N,GND*%
X122450000Y-95000000D03*
%TD*%
D30*
%TO.N,GND*%
%TO.C,U5*%
X151021000Y-120019000D03*
X151021000Y-118744000D03*
X151021000Y-117469000D03*
X149746000Y-120019000D03*
X149746000Y-118744000D03*
X149746000Y-117469000D03*
X148471000Y-120019000D03*
X148471000Y-118744000D03*
X148471000Y-117469000D03*
%TD*%
D31*
%TO.N,+3V3*%
X156400000Y-116400000D03*
%TO.N,GND*%
X129680000Y-124840000D03*
X134760000Y-119760000D03*
X127140000Y-117220000D03*
X172860000Y-122300000D03*
X124600000Y-114680000D03*
X129680000Y-114680000D03*
X124600000Y-119760000D03*
X127140000Y-124840000D03*
X167780000Y-117220000D03*
X142195300Y-117610200D03*
X134760000Y-124840000D03*
X175400000Y-117220000D03*
X175400000Y-119760000D03*
X141500000Y-128000000D03*
X172860000Y-114680000D03*
X143805000Y-124487000D03*
X132220000Y-114680000D03*
X132220000Y-122300000D03*
X170320000Y-122300000D03*
X167780000Y-119760000D03*
X172860000Y-119760000D03*
X160287000Y-123951000D03*
X170320000Y-114680000D03*
X157100000Y-115666200D03*
X165240000Y-119760000D03*
X167780000Y-122300000D03*
X127140000Y-119760000D03*
X165240000Y-122300000D03*
X167780000Y-114680000D03*
X175400000Y-114680000D03*
X170320000Y-119760000D03*
X124600000Y-122300000D03*
X124600000Y-117220000D03*
X124600000Y-124840000D03*
X156223000Y-121622700D03*
X172860000Y-117220000D03*
X170320000Y-117220000D03*
X127140000Y-122300000D03*
X156000000Y-109850000D03*
X165240000Y-117220000D03*
X127140000Y-114680000D03*
X132220000Y-124840000D03*
X175400000Y-122300000D03*
X144800000Y-115000000D03*
X129680000Y-117220000D03*
X165240000Y-114680000D03*
X170320000Y-124840000D03*
X167780000Y-124840000D03*
X132220000Y-119760000D03*
X134760000Y-114680000D03*
X134760000Y-122300000D03*
X129680000Y-119760000D03*
X142253000Y-108965000D03*
X175400000Y-124840000D03*
X129680000Y-122300000D03*
X132220000Y-117220000D03*
X134760000Y-117220000D03*
X172860000Y-124840000D03*
%TO.N,VCC*%
X146952000Y-106480000D03*
X147968000Y-106480000D03*
X144666000Y-106480000D03*
X124500000Y-108250000D03*
X122900000Y-107550000D03*
X122400000Y-108250000D03*
X124000000Y-107550000D03*
X123400000Y-108250000D03*
X121800000Y-107550000D03*
X163600000Y-108400000D03*
X145682000Y-106480000D03*
X162600000Y-108400000D03*
%TO.N,+3V3*%
X162200000Y-120800000D03*
X146063000Y-122554000D03*
X145166301Y-117612511D03*
X178000000Y-108850000D03*
X157112000Y-113410000D03*
X149873000Y-116458000D03*
X157112000Y-128015000D03*
X138000000Y-109000000D03*
X144793000Y-122554000D03*
X142441000Y-129920000D03*
X165000000Y-126200000D03*
X152032000Y-120776000D03*
%TO.N,/M2_DIR*%
X175100000Y-109900000D03*
X157403427Y-118605405D03*
%TO.N,/M2_PWM*%
X174400000Y-111100000D03*
X161800000Y-114200000D03*
%TO.N,/ENC1_A*%
X143518055Y-116277800D03*
%TO.N,/ENC1_B*%
X145987253Y-114985253D03*
%TO.N,/ENC2_B*%
X156200000Y-118277800D03*
%TO.N,/ENC2_A*%
X155100000Y-117800000D03*
%TO.N,/M2_FLAG*%
X177100000Y-107800000D03*
X158714880Y-119214880D03*
%TO.N,/RUN*%
X155900000Y-113400000D03*
X147950000Y-114200000D03*
%TO.N,/M2_ENABLE*%
X173300000Y-109503900D03*
X160708943Y-114208943D03*
%TO.N,+5V*%
X141364000Y-125221000D03*
X149746000Y-109700000D03*
X141000000Y-115300000D03*
%TO.N,/VREF*%
X142350000Y-104050000D03*
X178350000Y-105350000D03*
%TO.N,/RX*%
X157600000Y-120909200D03*
%TO.N,Net-(JP3-B)*%
X142800000Y-118700000D03*
%TO.N,Net-(JP4-B)*%
X144000000Y-118655600D03*
%TD*%
%TA.AperFunction,Conductor*%
%TO.N,GND*%
G36*
X176501513Y-85000575D02*
G01*
X176567131Y-85003797D01*
X176652481Y-85007990D01*
X176846607Y-85018164D01*
X176852409Y-85018745D01*
X177021733Y-85043862D01*
X177197594Y-85071716D01*
X177202929Y-85072804D01*
X177372209Y-85115206D01*
X177541341Y-85160525D01*
X177546122Y-85162018D01*
X177711894Y-85221332D01*
X177874263Y-85283660D01*
X177878543Y-85285492D01*
X177964073Y-85325944D01*
X178038476Y-85361134D01*
X178192992Y-85439864D01*
X178196720Y-85441928D01*
X178348967Y-85533180D01*
X178494262Y-85627537D01*
X178497428Y-85629736D01*
X178640323Y-85735714D01*
X178774975Y-85844752D01*
X178777594Y-85846997D01*
X178908517Y-85965658D01*
X178910721Y-85967757D01*
X179032241Y-86089277D01*
X179034340Y-86091481D01*
X179153001Y-86222404D01*
X179155246Y-86225023D01*
X179264285Y-86359676D01*
X179370262Y-86502570D01*
X179372461Y-86505736D01*
X179466822Y-86651038D01*
X179558070Y-86803278D01*
X179560133Y-86807006D01*
X179638868Y-86961529D01*
X179714506Y-87121455D01*
X179716342Y-87125746D01*
X179778672Y-87288120D01*
X179789827Y-87319295D01*
X179837970Y-87453847D01*
X179839479Y-87458678D01*
X179884793Y-87627790D01*
X179927191Y-87797056D01*
X179928286Y-87802424D01*
X179956145Y-87978317D01*
X179981250Y-88147560D01*
X179981836Y-88153416D01*
X179992011Y-88347561D01*
X179999425Y-88498488D01*
X179999500Y-88501530D01*
X179999500Y-131498469D01*
X179999425Y-131501511D01*
X179992011Y-131652438D01*
X179981836Y-131846582D01*
X179981250Y-131852438D01*
X179956145Y-132021682D01*
X179928286Y-132197574D01*
X179927191Y-132202942D01*
X179884793Y-132372209D01*
X179839479Y-132541320D01*
X179837967Y-132546163D01*
X179778672Y-132711879D01*
X179716342Y-132874252D01*
X179714507Y-132878543D01*
X179638868Y-133038470D01*
X179560133Y-133192992D01*
X179558070Y-133196720D01*
X179466822Y-133348961D01*
X179372461Y-133494262D01*
X179370262Y-133497428D01*
X179264285Y-133640323D01*
X179155245Y-133774975D01*
X179153001Y-133777594D01*
X179034340Y-133908517D01*
X179032241Y-133910721D01*
X178910721Y-134032241D01*
X178908517Y-134034340D01*
X178777594Y-134153001D01*
X178774975Y-134155245D01*
X178640323Y-134264285D01*
X178497428Y-134370262D01*
X178494262Y-134372461D01*
X178348961Y-134466822D01*
X178196720Y-134558070D01*
X178192992Y-134560133D01*
X178038470Y-134638868D01*
X177878543Y-134714507D01*
X177874252Y-134716342D01*
X177711879Y-134778672D01*
X177546163Y-134837967D01*
X177541320Y-134839479D01*
X177372209Y-134884793D01*
X177202942Y-134927191D01*
X177197574Y-134928286D01*
X177021682Y-134956145D01*
X176852438Y-134981250D01*
X176846582Y-134981836D01*
X176652438Y-134992011D01*
X176501513Y-134999425D01*
X176498470Y-134999500D01*
X123501530Y-134999500D01*
X123498488Y-134999425D01*
X123347561Y-134992011D01*
X123153416Y-134981836D01*
X123147560Y-134981250D01*
X122978317Y-134956145D01*
X122802424Y-134928286D01*
X122797056Y-134927191D01*
X122627790Y-134884793D01*
X122458678Y-134839479D01*
X122453847Y-134837970D01*
X122347307Y-134799850D01*
X122288120Y-134778672D01*
X122125746Y-134716342D01*
X122121455Y-134714506D01*
X121961529Y-134638868D01*
X121807006Y-134560133D01*
X121803278Y-134558070D01*
X121651038Y-134466822D01*
X121505736Y-134372461D01*
X121502570Y-134370262D01*
X121364089Y-134267558D01*
X156446700Y-134267558D01*
X156456140Y-134315019D01*
X156457045Y-134319569D01*
X156496453Y-134378547D01*
X156555431Y-134417955D01*
X156555432Y-134417955D01*
X156555433Y-134417956D01*
X156586578Y-134424150D01*
X156607439Y-134428300D01*
X158342560Y-134428299D01*
X158394569Y-134417955D01*
X158453547Y-134378547D01*
X158492955Y-134319569D01*
X158503300Y-134267561D01*
X158503299Y-132532440D01*
X158492955Y-132480431D01*
X158453547Y-132421453D01*
X158394569Y-132382045D01*
X158394568Y-132382044D01*
X158394567Y-132382044D01*
X158394566Y-132382043D01*
X158342563Y-132371700D01*
X156607441Y-132371700D01*
X156555430Y-132382045D01*
X156521353Y-132404815D01*
X156496455Y-132421452D01*
X156496452Y-132421454D01*
X156457044Y-132480432D01*
X156457043Y-132480433D01*
X156446700Y-132532434D01*
X156446700Y-134267558D01*
X121364089Y-134267558D01*
X121359676Y-134264285D01*
X121225023Y-134155246D01*
X121222404Y-134153001D01*
X121091481Y-134034340D01*
X121089277Y-134032241D01*
X120967757Y-133910721D01*
X120965658Y-133908517D01*
X120846997Y-133777594D01*
X120844752Y-133774975D01*
X120735714Y-133640323D01*
X120629736Y-133497428D01*
X120627537Y-133494262D01*
X120533177Y-133348961D01*
X120441928Y-133196720D01*
X120439864Y-133192992D01*
X120361131Y-133038470D01*
X120285492Y-132878543D01*
X120283656Y-132874252D01*
X120221327Y-132711879D01*
X120162018Y-132546122D01*
X120160525Y-132541341D01*
X120115206Y-132372209D01*
X120072804Y-132202929D01*
X120071716Y-132197594D01*
X120068814Y-132179269D01*
X129699500Y-132179269D01*
X129702353Y-132209699D01*
X129702353Y-132209701D01*
X129747206Y-132337880D01*
X129747207Y-132337882D01*
X129827850Y-132447150D01*
X129937118Y-132527793D01*
X129975776Y-132541320D01*
X130065299Y-132572646D01*
X130095730Y-132575500D01*
X130095734Y-132575500D01*
X130904270Y-132575500D01*
X130934699Y-132572646D01*
X130934701Y-132572646D01*
X131010383Y-132546163D01*
X131062882Y-132527793D01*
X131172150Y-132447150D01*
X131252793Y-132337882D01*
X131278879Y-132263333D01*
X131297646Y-132209701D01*
X131297646Y-132209699D01*
X131300500Y-132179269D01*
X131300500Y-131818717D01*
X131721700Y-131818717D01*
X131736410Y-131949278D01*
X131736411Y-131949283D01*
X131736412Y-131949284D01*
X131744099Y-131971253D01*
X131794338Y-132114828D01*
X131853951Y-132209701D01*
X131887650Y-132263333D01*
X132011667Y-132387350D01*
X132160171Y-132480661D01*
X132325716Y-132538588D01*
X132325719Y-132538588D01*
X132325721Y-132538589D01*
X132499996Y-132558225D01*
X132500000Y-132558225D01*
X132500004Y-132558225D01*
X132674278Y-132538589D01*
X132674279Y-132538588D01*
X132674284Y-132538588D01*
X132839829Y-132480661D01*
X132988333Y-132387350D01*
X133112350Y-132263333D01*
X133205661Y-132114829D01*
X133263588Y-131949284D01*
X133278159Y-131819960D01*
X133699500Y-131819960D01*
X133714630Y-131954249D01*
X133714631Y-131954254D01*
X133774211Y-132124523D01*
X133861432Y-132263333D01*
X133870184Y-132277262D01*
X133997738Y-132404816D01*
X134065111Y-132447149D01*
X134118444Y-132480661D01*
X134150478Y-132500789D01*
X134314621Y-132558225D01*
X134320745Y-132560368D01*
X134320750Y-132560369D01*
X134499996Y-132580565D01*
X134500000Y-132580565D01*
X134500004Y-132580565D01*
X134679249Y-132560369D01*
X134679252Y-132560368D01*
X134679255Y-132560368D01*
X134849522Y-132500789D01*
X135002262Y-132404816D01*
X135129816Y-132277262D01*
X135191389Y-132179269D01*
X162699500Y-132179269D01*
X162702353Y-132209699D01*
X162702353Y-132209701D01*
X162747206Y-132337880D01*
X162747207Y-132337882D01*
X162827850Y-132447150D01*
X162937118Y-132527793D01*
X162975776Y-132541320D01*
X163065299Y-132572646D01*
X163095730Y-132575500D01*
X163095734Y-132575500D01*
X163904270Y-132575500D01*
X163934699Y-132572646D01*
X163934701Y-132572646D01*
X164010383Y-132546163D01*
X164062882Y-132527793D01*
X164172150Y-132447150D01*
X164252793Y-132337882D01*
X164278879Y-132263333D01*
X164297646Y-132209701D01*
X164297646Y-132209699D01*
X164300500Y-132179269D01*
X164300500Y-131818717D01*
X164721700Y-131818717D01*
X164736410Y-131949278D01*
X164736411Y-131949283D01*
X164736412Y-131949284D01*
X164744099Y-131971253D01*
X164794338Y-132114828D01*
X164853951Y-132209701D01*
X164887650Y-132263333D01*
X165011667Y-132387350D01*
X165160171Y-132480661D01*
X165325716Y-132538588D01*
X165325719Y-132538588D01*
X165325721Y-132538589D01*
X165499996Y-132558225D01*
X165500000Y-132558225D01*
X165500004Y-132558225D01*
X165674278Y-132538589D01*
X165674279Y-132538588D01*
X165674284Y-132538588D01*
X165839829Y-132480661D01*
X165988333Y-132387350D01*
X166112350Y-132263333D01*
X166205661Y-132114829D01*
X166263588Y-131949284D01*
X166278159Y-131819960D01*
X166699500Y-131819960D01*
X166714630Y-131954249D01*
X166714631Y-131954254D01*
X166774211Y-132124523D01*
X166861432Y-132263333D01*
X166870184Y-132277262D01*
X166997738Y-132404816D01*
X167065111Y-132447149D01*
X167118444Y-132480661D01*
X167150478Y-132500789D01*
X167314621Y-132558225D01*
X167320745Y-132560368D01*
X167320750Y-132560369D01*
X167499996Y-132580565D01*
X167500000Y-132580565D01*
X167500004Y-132580565D01*
X167679249Y-132560369D01*
X167679252Y-132560368D01*
X167679255Y-132560368D01*
X167849522Y-132500789D01*
X168002262Y-132404816D01*
X168129816Y-132277262D01*
X168225789Y-132124522D01*
X168285368Y-131954255D01*
X168300500Y-131819954D01*
X168300500Y-131180046D01*
X168285929Y-131050721D01*
X168285369Y-131045750D01*
X168285368Y-131045745D01*
X168225789Y-130875478D01*
X168129816Y-130722738D01*
X168002262Y-130595184D01*
X167934888Y-130552850D01*
X167849523Y-130499211D01*
X167679254Y-130439631D01*
X167679249Y-130439630D01*
X167500004Y-130419435D01*
X167499996Y-130419435D01*
X167320750Y-130439630D01*
X167320745Y-130439631D01*
X167150476Y-130499211D01*
X166997737Y-130595184D01*
X166870184Y-130722737D01*
X166774211Y-130875476D01*
X166714631Y-131045745D01*
X166714630Y-131045750D01*
X166699500Y-131180039D01*
X166699500Y-131819960D01*
X166278159Y-131819960D01*
X166278300Y-131818711D01*
X166278300Y-131181289D01*
X166263588Y-131050716D01*
X166205661Y-130885171D01*
X166112350Y-130736667D01*
X165988333Y-130612650D01*
X165893162Y-130552850D01*
X165839828Y-130519338D01*
X165674278Y-130461410D01*
X165500004Y-130441775D01*
X165499996Y-130441775D01*
X165325721Y-130461410D01*
X165160171Y-130519338D01*
X165011666Y-130612650D01*
X164887650Y-130736666D01*
X164794338Y-130885171D01*
X164736410Y-131050721D01*
X164721700Y-131181282D01*
X164721700Y-131818717D01*
X164300500Y-131818717D01*
X164300500Y-130820730D01*
X164297646Y-130790300D01*
X164297646Y-130790298D01*
X164252793Y-130662119D01*
X164252792Y-130662117D01*
X164216284Y-130612650D01*
X164172150Y-130552850D01*
X164062882Y-130472207D01*
X164062880Y-130472206D01*
X163934700Y-130427353D01*
X163904270Y-130424500D01*
X163904266Y-130424500D01*
X163095734Y-130424500D01*
X163095730Y-130424500D01*
X163065300Y-130427353D01*
X163065298Y-130427353D01*
X162937119Y-130472206D01*
X162937117Y-130472207D01*
X162827850Y-130552850D01*
X162747207Y-130662117D01*
X162747206Y-130662119D01*
X162702353Y-130790298D01*
X162702353Y-130790300D01*
X162699500Y-130820730D01*
X162699500Y-132179269D01*
X135191389Y-132179269D01*
X135225789Y-132124522D01*
X135285368Y-131954255D01*
X135300500Y-131819954D01*
X135300500Y-131180046D01*
X135285929Y-131050721D01*
X135285369Y-131045750D01*
X135285368Y-131045745D01*
X135225789Y-130875478D01*
X135129816Y-130722738D01*
X135002262Y-130595184D01*
X134934888Y-130552850D01*
X134849523Y-130499211D01*
X134679254Y-130439631D01*
X134679249Y-130439630D01*
X134500004Y-130419435D01*
X134499996Y-130419435D01*
X134320750Y-130439630D01*
X134320745Y-130439631D01*
X134150476Y-130499211D01*
X133997737Y-130595184D01*
X133870184Y-130722737D01*
X133774211Y-130875476D01*
X133714631Y-131045745D01*
X133714630Y-131045750D01*
X133699500Y-131180039D01*
X133699500Y-131819960D01*
X133278159Y-131819960D01*
X133278300Y-131818711D01*
X133278300Y-131181289D01*
X133263588Y-131050716D01*
X133205661Y-130885171D01*
X133112350Y-130736667D01*
X132988333Y-130612650D01*
X132893162Y-130552850D01*
X132839828Y-130519338D01*
X132674278Y-130461410D01*
X132500004Y-130441775D01*
X132499996Y-130441775D01*
X132325721Y-130461410D01*
X132160171Y-130519338D01*
X132011666Y-130612650D01*
X131887650Y-130736666D01*
X131794338Y-130885171D01*
X131736410Y-131050721D01*
X131721700Y-131181282D01*
X131721700Y-131818717D01*
X131300500Y-131818717D01*
X131300500Y-130820730D01*
X131297646Y-130790300D01*
X131297646Y-130790298D01*
X131252793Y-130662119D01*
X131252792Y-130662117D01*
X131216284Y-130612650D01*
X131172150Y-130552850D01*
X131062882Y-130472207D01*
X131062880Y-130472206D01*
X130934700Y-130427353D01*
X130904270Y-130424500D01*
X130904266Y-130424500D01*
X130095734Y-130424500D01*
X130095730Y-130424500D01*
X130065300Y-130427353D01*
X130065298Y-130427353D01*
X129937119Y-130472206D01*
X129937117Y-130472207D01*
X129827850Y-130552850D01*
X129747207Y-130662117D01*
X129747206Y-130662119D01*
X129702353Y-130790298D01*
X129702353Y-130790300D01*
X129699500Y-130820730D01*
X129699500Y-132179269D01*
X120068814Y-132179269D01*
X120043854Y-132021682D01*
X120018745Y-131852409D01*
X120018164Y-131846607D01*
X120007989Y-131652438D01*
X120003797Y-131567131D01*
X120000575Y-131501513D01*
X120000500Y-131498471D01*
X120000500Y-129920001D01*
X141857710Y-129920001D01*
X141877584Y-130070965D01*
X141877586Y-130070970D01*
X141935853Y-130211640D01*
X141935856Y-130211646D01*
X142028551Y-130332447D01*
X142028552Y-130332448D01*
X142149353Y-130425143D01*
X142149359Y-130425146D01*
X142219694Y-130454279D01*
X142290033Y-130483415D01*
X142365516Y-130493352D01*
X142440999Y-130503290D01*
X142441000Y-130503290D01*
X142441001Y-130503290D01*
X142491322Y-130496665D01*
X142591967Y-130483415D01*
X142732645Y-130425144D01*
X142853448Y-130332448D01*
X142946144Y-130211645D01*
X143004415Y-130070967D01*
X143024290Y-129920000D01*
X143004415Y-129769033D01*
X142946144Y-129628355D01*
X142946143Y-129628353D01*
X142853448Y-129507552D01*
X142853447Y-129507551D01*
X142732646Y-129414856D01*
X142732640Y-129414853D01*
X142591970Y-129356586D01*
X142591965Y-129356584D01*
X142441001Y-129336710D01*
X142440999Y-129336710D01*
X142290034Y-129356584D01*
X142290029Y-129356586D01*
X142149359Y-129414853D01*
X142149353Y-129414856D01*
X142028552Y-129507551D01*
X142028551Y-129507552D01*
X141935856Y-129628353D01*
X141935853Y-129628359D01*
X141877586Y-129769029D01*
X141877584Y-129769034D01*
X141857710Y-129919998D01*
X141857710Y-129920001D01*
X120000500Y-129920001D01*
X120000500Y-128015001D01*
X156528710Y-128015001D01*
X156548584Y-128165965D01*
X156548586Y-128165970D01*
X156606853Y-128306640D01*
X156606856Y-128306646D01*
X156699551Y-128427447D01*
X156699552Y-128427448D01*
X156820353Y-128520143D01*
X156820359Y-128520146D01*
X156890694Y-128549279D01*
X156961033Y-128578415D01*
X157036516Y-128588352D01*
X157111999Y-128598290D01*
X157112000Y-128598290D01*
X157112001Y-128598290D01*
X157162322Y-128591665D01*
X157262967Y-128578415D01*
X157403645Y-128520144D01*
X157524448Y-128427448D01*
X157617144Y-128306645D01*
X157675415Y-128165967D01*
X157695290Y-128015000D01*
X157675415Y-127864033D01*
X157617144Y-127723355D01*
X157617143Y-127723353D01*
X157524448Y-127602552D01*
X157524447Y-127602551D01*
X157403646Y-127509856D01*
X157403640Y-127509853D01*
X157262970Y-127451586D01*
X157262965Y-127451584D01*
X157112001Y-127431710D01*
X157111999Y-127431710D01*
X156961034Y-127451584D01*
X156961029Y-127451586D01*
X156820359Y-127509853D01*
X156820353Y-127509856D01*
X156699552Y-127602551D01*
X156699551Y-127602552D01*
X156606856Y-127723353D01*
X156606853Y-127723359D01*
X156548586Y-127864029D01*
X156548584Y-127864034D01*
X156528710Y-128014998D01*
X156528710Y-128015001D01*
X120000500Y-128015001D01*
X120000500Y-126200001D01*
X164416710Y-126200001D01*
X164436584Y-126350965D01*
X164436586Y-126350970D01*
X164494853Y-126491640D01*
X164494856Y-126491646D01*
X164587551Y-126612447D01*
X164587552Y-126612448D01*
X164708353Y-126705143D01*
X164708359Y-126705146D01*
X164778694Y-126734279D01*
X164849033Y-126763415D01*
X164924516Y-126773352D01*
X164999999Y-126783290D01*
X165000000Y-126783290D01*
X165000001Y-126783290D01*
X165050322Y-126776665D01*
X165150967Y-126763415D01*
X165291645Y-126705144D01*
X165412448Y-126612448D01*
X165505144Y-126491645D01*
X165563415Y-126350967D01*
X165583290Y-126200000D01*
X165563415Y-126049033D01*
X165505144Y-125908355D01*
X165505143Y-125908353D01*
X165412448Y-125787552D01*
X165412447Y-125787551D01*
X165291646Y-125694856D01*
X165291640Y-125694853D01*
X165150970Y-125636586D01*
X165150965Y-125636584D01*
X165000001Y-125616710D01*
X164999999Y-125616710D01*
X164849034Y-125636584D01*
X164849029Y-125636586D01*
X164708359Y-125694853D01*
X164708353Y-125694856D01*
X164587552Y-125787551D01*
X164587551Y-125787552D01*
X164494856Y-125908353D01*
X164494853Y-125908359D01*
X164436586Y-126049029D01*
X164436584Y-126049034D01*
X164416710Y-126199998D01*
X164416710Y-126200001D01*
X120000500Y-126200001D01*
X120000500Y-125221001D01*
X140780710Y-125221001D01*
X140800584Y-125371965D01*
X140800586Y-125371970D01*
X140858853Y-125512640D01*
X140858856Y-125512646D01*
X140951551Y-125633447D01*
X140951552Y-125633448D01*
X141072353Y-125726143D01*
X141072359Y-125726146D01*
X141142694Y-125755279D01*
X141213033Y-125784415D01*
X141288516Y-125794352D01*
X141363999Y-125804290D01*
X141364000Y-125804290D01*
X141364001Y-125804290D01*
X141414322Y-125797665D01*
X141514967Y-125784415D01*
X141655645Y-125726144D01*
X141776448Y-125633448D01*
X141869144Y-125512645D01*
X141927415Y-125371967D01*
X141947290Y-125221000D01*
X141927415Y-125070033D01*
X141869144Y-124929355D01*
X141869143Y-124929353D01*
X141776448Y-124808552D01*
X141776447Y-124808551D01*
X141655646Y-124715856D01*
X141655640Y-124715853D01*
X141514970Y-124657586D01*
X141514965Y-124657584D01*
X141364001Y-124637710D01*
X141363999Y-124637710D01*
X141213034Y-124657584D01*
X141213029Y-124657586D01*
X141072359Y-124715853D01*
X141072353Y-124715856D01*
X140951552Y-124808551D01*
X140951551Y-124808552D01*
X140858856Y-124929353D01*
X140858853Y-124929359D01*
X140800586Y-125070029D01*
X140800584Y-125070034D01*
X140780710Y-125220998D01*
X140780710Y-125221001D01*
X120000500Y-125221001D01*
X120000500Y-122554001D01*
X144209710Y-122554001D01*
X144229584Y-122704965D01*
X144229586Y-122704970D01*
X144287853Y-122845640D01*
X144287856Y-122845646D01*
X144380551Y-122966447D01*
X144380552Y-122966448D01*
X144501353Y-123059143D01*
X144501359Y-123059146D01*
X144571694Y-123088279D01*
X144642033Y-123117415D01*
X144717516Y-123127352D01*
X144792999Y-123137290D01*
X144793000Y-123137290D01*
X144793001Y-123137290D01*
X144843322Y-123130665D01*
X144943967Y-123117415D01*
X145084645Y-123059144D01*
X145205448Y-122966448D01*
X145298144Y-122845645D01*
X145300019Y-122841116D01*
X145313439Y-122808721D01*
X145357280Y-122754317D01*
X145423574Y-122732252D01*
X145491273Y-122749531D01*
X145538884Y-122800668D01*
X145542561Y-122808721D01*
X145557853Y-122845640D01*
X145557856Y-122845646D01*
X145650551Y-122966447D01*
X145650552Y-122966448D01*
X145771353Y-123059143D01*
X145771359Y-123059146D01*
X145841694Y-123088279D01*
X145912033Y-123117415D01*
X145987516Y-123127352D01*
X146062999Y-123137290D01*
X146063000Y-123137290D01*
X146063001Y-123137290D01*
X146113322Y-123130665D01*
X146213967Y-123117415D01*
X146354645Y-123059144D01*
X146475448Y-122966448D01*
X146568144Y-122845645D01*
X146626415Y-122704967D01*
X146646290Y-122554000D01*
X146626415Y-122403033D01*
X146586773Y-122307330D01*
X146568146Y-122262359D01*
X146568143Y-122262353D01*
X146475448Y-122141552D01*
X146475447Y-122141551D01*
X146354646Y-122048856D01*
X146354640Y-122048853D01*
X146213970Y-121990586D01*
X146213965Y-121990584D01*
X146063001Y-121970710D01*
X146062999Y-121970710D01*
X145912034Y-121990584D01*
X145912029Y-121990586D01*
X145771359Y-122048853D01*
X145771353Y-122048856D01*
X145650552Y-122141551D01*
X145650551Y-122141552D01*
X145557856Y-122262353D01*
X145557854Y-122262357D01*
X145542561Y-122299279D01*
X145498720Y-122353683D01*
X145432425Y-122375747D01*
X145364726Y-122358467D01*
X145317116Y-122307330D01*
X145313439Y-122299279D01*
X145298145Y-122262357D01*
X145298143Y-122262353D01*
X145205448Y-122141552D01*
X145205447Y-122141551D01*
X145084646Y-122048856D01*
X145084640Y-122048853D01*
X144943970Y-121990586D01*
X144943965Y-121990584D01*
X144793001Y-121970710D01*
X144792999Y-121970710D01*
X144642034Y-121990584D01*
X144642029Y-121990586D01*
X144501359Y-122048853D01*
X144501353Y-122048856D01*
X144380552Y-122141551D01*
X144380551Y-122141552D01*
X144287856Y-122262353D01*
X144287853Y-122262359D01*
X144229586Y-122403029D01*
X144229584Y-122403034D01*
X144209710Y-122553998D01*
X144209710Y-122554001D01*
X120000500Y-122554001D01*
X120000500Y-120776001D01*
X151448710Y-120776001D01*
X151468584Y-120926965D01*
X151468586Y-120926970D01*
X151526853Y-121067640D01*
X151526856Y-121067646D01*
X151619551Y-121188447D01*
X151619552Y-121188448D01*
X151740353Y-121281143D01*
X151740359Y-121281146D01*
X151798293Y-121305143D01*
X151881033Y-121339415D01*
X151956516Y-121349352D01*
X152031999Y-121359290D01*
X152032000Y-121359290D01*
X152032001Y-121359290D01*
X152082322Y-121352665D01*
X152182967Y-121339415D01*
X152323645Y-121281144D01*
X152444448Y-121188448D01*
X152537144Y-121067645D01*
X152595415Y-120926967D01*
X152597754Y-120909201D01*
X157016710Y-120909201D01*
X157036584Y-121060165D01*
X157036586Y-121060170D01*
X157094853Y-121200840D01*
X157094856Y-121200846D01*
X157187551Y-121321647D01*
X157187552Y-121321648D01*
X157308353Y-121414343D01*
X157308359Y-121414346D01*
X157378694Y-121443479D01*
X157449033Y-121472615D01*
X157524516Y-121482552D01*
X157599999Y-121492490D01*
X157600000Y-121492490D01*
X157600001Y-121492490D01*
X157650322Y-121485865D01*
X157750967Y-121472615D01*
X157891645Y-121414344D01*
X158012448Y-121321648D01*
X158105144Y-121200845D01*
X158163415Y-121060167D01*
X158183290Y-120909200D01*
X158168914Y-120800001D01*
X161616710Y-120800001D01*
X161636584Y-120950965D01*
X161636586Y-120950970D01*
X161694853Y-121091640D01*
X161694856Y-121091646D01*
X161787551Y-121212447D01*
X161787552Y-121212448D01*
X161908353Y-121305143D01*
X161908359Y-121305146D01*
X161948199Y-121321648D01*
X162049033Y-121363415D01*
X162124516Y-121373352D01*
X162199999Y-121383290D01*
X162200000Y-121383290D01*
X162200001Y-121383290D01*
X162250322Y-121376665D01*
X162350967Y-121363415D01*
X162491645Y-121305144D01*
X162612448Y-121212448D01*
X162705144Y-121091645D01*
X162763415Y-120950967D01*
X162783290Y-120800000D01*
X162780130Y-120776000D01*
X162763415Y-120649034D01*
X162763413Y-120649029D01*
X162705146Y-120508359D01*
X162705143Y-120508353D01*
X162612448Y-120387552D01*
X162612447Y-120387551D01*
X162491646Y-120294856D01*
X162491640Y-120294853D01*
X162350970Y-120236586D01*
X162350965Y-120236584D01*
X162200001Y-120216710D01*
X162199999Y-120216710D01*
X162049034Y-120236584D01*
X162049029Y-120236586D01*
X161908359Y-120294853D01*
X161908353Y-120294856D01*
X161787552Y-120387551D01*
X161787551Y-120387552D01*
X161694856Y-120508353D01*
X161694853Y-120508359D01*
X161636586Y-120649029D01*
X161636584Y-120649034D01*
X161616710Y-120799998D01*
X161616710Y-120800001D01*
X158168914Y-120800001D01*
X158163415Y-120758233D01*
X158105144Y-120617555D01*
X158105143Y-120617553D01*
X158012448Y-120496752D01*
X158012447Y-120496751D01*
X157891646Y-120404056D01*
X157891640Y-120404053D01*
X157750970Y-120345786D01*
X157750965Y-120345784D01*
X157600001Y-120325910D01*
X157599999Y-120325910D01*
X157449034Y-120345784D01*
X157449029Y-120345786D01*
X157308359Y-120404053D01*
X157308353Y-120404056D01*
X157187552Y-120496751D01*
X157187551Y-120496752D01*
X157094856Y-120617553D01*
X157094853Y-120617559D01*
X157036586Y-120758229D01*
X157036584Y-120758234D01*
X157016710Y-120909198D01*
X157016710Y-120909201D01*
X152597754Y-120909201D01*
X152615290Y-120776000D01*
X152612950Y-120758229D01*
X152595415Y-120625034D01*
X152595413Y-120625029D01*
X152592316Y-120617553D01*
X152547085Y-120508355D01*
X152537146Y-120484359D01*
X152537143Y-120484353D01*
X152444448Y-120363552D01*
X152444447Y-120363551D01*
X152323646Y-120270856D01*
X152323640Y-120270853D01*
X152182970Y-120212586D01*
X152182965Y-120212584D01*
X152032001Y-120192710D01*
X152031999Y-120192710D01*
X151881034Y-120212584D01*
X151881029Y-120212586D01*
X151740359Y-120270853D01*
X151740353Y-120270856D01*
X151619552Y-120363551D01*
X151619551Y-120363552D01*
X151526856Y-120484353D01*
X151526853Y-120484359D01*
X151468586Y-120625029D01*
X151468584Y-120625034D01*
X151448710Y-120775998D01*
X151448710Y-120776001D01*
X120000500Y-120776001D01*
X120000500Y-118700001D01*
X142194318Y-118700001D01*
X142214955Y-118856760D01*
X142214956Y-118856762D01*
X142274019Y-118999354D01*
X142275464Y-119002841D01*
X142371718Y-119128282D01*
X142497159Y-119224536D01*
X142643238Y-119285044D01*
X142721619Y-119295363D01*
X142799999Y-119305682D01*
X142800000Y-119305682D01*
X142800001Y-119305682D01*
X142852254Y-119298802D01*
X142956762Y-119285044D01*
X143102841Y-119224536D01*
X143228282Y-119128282D01*
X143318660Y-119010498D01*
X143375085Y-118969297D01*
X143444831Y-118965142D01*
X143505752Y-118999354D01*
X143515404Y-119010492D01*
X143571718Y-119083882D01*
X143697159Y-119180136D01*
X143843238Y-119240644D01*
X143921619Y-119250963D01*
X143999999Y-119261282D01*
X144000000Y-119261282D01*
X144000001Y-119261282D01*
X144052254Y-119254402D01*
X144156762Y-119240644D01*
X144218959Y-119214881D01*
X158131590Y-119214881D01*
X158151464Y-119365845D01*
X158151466Y-119365850D01*
X158209733Y-119506520D01*
X158209736Y-119506526D01*
X158302431Y-119627327D01*
X158302432Y-119627328D01*
X158423233Y-119720023D01*
X158423239Y-119720026D01*
X158493574Y-119749159D01*
X158563913Y-119778295D01*
X158639396Y-119788232D01*
X158714879Y-119798170D01*
X158714880Y-119798170D01*
X158714881Y-119798170D01*
X158765202Y-119791545D01*
X158865847Y-119778295D01*
X159006525Y-119720024D01*
X159127328Y-119627328D01*
X159220024Y-119506525D01*
X159278295Y-119365847D01*
X159298170Y-119214880D01*
X159278295Y-119063913D01*
X159220024Y-118923235D01*
X159220023Y-118923233D01*
X159127328Y-118802432D01*
X159127327Y-118802431D01*
X159006526Y-118709736D01*
X159006520Y-118709733D01*
X158865850Y-118651466D01*
X158865845Y-118651464D01*
X158714881Y-118631590D01*
X158714879Y-118631590D01*
X158563914Y-118651464D01*
X158563909Y-118651466D01*
X158423239Y-118709733D01*
X158423233Y-118709736D01*
X158302432Y-118802431D01*
X158302431Y-118802432D01*
X158209736Y-118923233D01*
X158209733Y-118923239D01*
X158151466Y-119063909D01*
X158151464Y-119063914D01*
X158131590Y-119214878D01*
X158131590Y-119214881D01*
X144218959Y-119214881D01*
X144302841Y-119180136D01*
X144428282Y-119083882D01*
X144524536Y-118958441D01*
X144585044Y-118812362D01*
X144605682Y-118655600D01*
X144605137Y-118651464D01*
X144585044Y-118498839D01*
X144585044Y-118498838D01*
X144524536Y-118352759D01*
X144428282Y-118227318D01*
X144302841Y-118131064D01*
X144292626Y-118126833D01*
X144156762Y-118070556D01*
X144156760Y-118070555D01*
X144000001Y-118049918D01*
X143999999Y-118049918D01*
X143843239Y-118070555D01*
X143843237Y-118070556D01*
X143697160Y-118131063D01*
X143571718Y-118227318D01*
X143481341Y-118345100D01*
X143424913Y-118386302D01*
X143355166Y-118390457D01*
X143294246Y-118356244D01*
X143284589Y-118345099D01*
X143228283Y-118271719D01*
X143220009Y-118265370D01*
X143102841Y-118175464D01*
X143016267Y-118139604D01*
X142956762Y-118114956D01*
X142956760Y-118114955D01*
X142800001Y-118094318D01*
X142799999Y-118094318D01*
X142643239Y-118114955D01*
X142643237Y-118114956D01*
X142497160Y-118175463D01*
X142371718Y-118271718D01*
X142275463Y-118397160D01*
X142214956Y-118543237D01*
X142214955Y-118543239D01*
X142194318Y-118699998D01*
X142194318Y-118700001D01*
X120000500Y-118700001D01*
X120000500Y-117612512D01*
X144583011Y-117612512D01*
X144602885Y-117763476D01*
X144602887Y-117763481D01*
X144661154Y-117904151D01*
X144661157Y-117904157D01*
X144753852Y-118024958D01*
X144753853Y-118024959D01*
X144874654Y-118117654D01*
X144874660Y-118117657D01*
X144907028Y-118131064D01*
X145015334Y-118175926D01*
X145090817Y-118185863D01*
X145166300Y-118195801D01*
X145166301Y-118195801D01*
X145166302Y-118195801D01*
X145216623Y-118189176D01*
X145317268Y-118175926D01*
X145457946Y-118117655D01*
X145578749Y-118024959D01*
X145671445Y-117904156D01*
X145714588Y-117800001D01*
X154516710Y-117800001D01*
X154536584Y-117950965D01*
X154536586Y-117950970D01*
X154594853Y-118091640D01*
X154594856Y-118091646D01*
X154687551Y-118212447D01*
X154687552Y-118212448D01*
X154808353Y-118305143D01*
X154808359Y-118305146D01*
X154829165Y-118313764D01*
X154949033Y-118363415D01*
X155024516Y-118373352D01*
X155099999Y-118383290D01*
X155100000Y-118383290D01*
X155100001Y-118383290D01*
X155150322Y-118376665D01*
X155250967Y-118363415D01*
X155391645Y-118305144D01*
X155428939Y-118276526D01*
X155494105Y-118251333D01*
X155562550Y-118265370D01*
X155612540Y-118314184D01*
X155627363Y-118358718D01*
X155636584Y-118428765D01*
X155636586Y-118428770D01*
X155694853Y-118569440D01*
X155694856Y-118569446D01*
X155787551Y-118690247D01*
X155787552Y-118690248D01*
X155908353Y-118782943D01*
X155908359Y-118782946D01*
X155955403Y-118802432D01*
X156049033Y-118841215D01*
X156124516Y-118851152D01*
X156199999Y-118861090D01*
X156200000Y-118861090D01*
X156200001Y-118861090D01*
X156250322Y-118854465D01*
X156350967Y-118841215D01*
X156491645Y-118782944D01*
X156612448Y-118690248D01*
X156617014Y-118684296D01*
X156673439Y-118643093D01*
X156743185Y-118638936D01*
X156804107Y-118673147D01*
X156836861Y-118734863D01*
X156838330Y-118743595D01*
X156840012Y-118756370D01*
X156840013Y-118756375D01*
X156898280Y-118897045D01*
X156898283Y-118897051D01*
X156990978Y-119017852D01*
X156990979Y-119017853D01*
X157111780Y-119110548D01*
X157111786Y-119110551D01*
X157154593Y-119128282D01*
X157252460Y-119168820D01*
X157327943Y-119178757D01*
X157403426Y-119188695D01*
X157403427Y-119188695D01*
X157403428Y-119188695D01*
X157453749Y-119182070D01*
X157554394Y-119168820D01*
X157695072Y-119110549D01*
X157815875Y-119017853D01*
X157908571Y-118897050D01*
X157966842Y-118756372D01*
X157986717Y-118605405D01*
X157966842Y-118454438D01*
X157926169Y-118356244D01*
X157908573Y-118313764D01*
X157908570Y-118313758D01*
X157815875Y-118192957D01*
X157815874Y-118192956D01*
X157695073Y-118100261D01*
X157695067Y-118100258D01*
X157554397Y-118041991D01*
X157554392Y-118041989D01*
X157403428Y-118022115D01*
X157403426Y-118022115D01*
X157252461Y-118041989D01*
X157252456Y-118041991D01*
X157111786Y-118100258D01*
X157111780Y-118100261D01*
X156990979Y-118192956D01*
X156990975Y-118192960D01*
X156986406Y-118198915D01*
X156929976Y-118240115D01*
X156860230Y-118244265D01*
X156799312Y-118210049D01*
X156766562Y-118148330D01*
X156765101Y-118139640D01*
X156763415Y-118126833D01*
X156705144Y-117986155D01*
X156705143Y-117986153D01*
X156612448Y-117865352D01*
X156612447Y-117865351D01*
X156491646Y-117772656D01*
X156491640Y-117772653D01*
X156350970Y-117714386D01*
X156350965Y-117714384D01*
X156200001Y-117694510D01*
X156199999Y-117694510D01*
X156049034Y-117714384D01*
X156049029Y-117714386D01*
X155908359Y-117772653D01*
X155908355Y-117772655D01*
X155871060Y-117801273D01*
X155805891Y-117826466D01*
X155737446Y-117812427D01*
X155687457Y-117763613D01*
X155672637Y-117719083D01*
X155663415Y-117649033D01*
X155605144Y-117508355D01*
X155605143Y-117508353D01*
X155512448Y-117387552D01*
X155512447Y-117387551D01*
X155391646Y-117294856D01*
X155391640Y-117294853D01*
X155250970Y-117236586D01*
X155250965Y-117236584D01*
X155100001Y-117216710D01*
X155099999Y-117216710D01*
X154949034Y-117236584D01*
X154949029Y-117236586D01*
X154808359Y-117294853D01*
X154808353Y-117294856D01*
X154687552Y-117387551D01*
X154687551Y-117387552D01*
X154594856Y-117508353D01*
X154594853Y-117508359D01*
X154536586Y-117649029D01*
X154536584Y-117649034D01*
X154516710Y-117799998D01*
X154516710Y-117800001D01*
X145714588Y-117800001D01*
X145729716Y-117763478D01*
X145749591Y-117612511D01*
X145729716Y-117461544D01*
X145671445Y-117320866D01*
X145671444Y-117320864D01*
X145578749Y-117200063D01*
X145578748Y-117200062D01*
X145457947Y-117107367D01*
X145457941Y-117107364D01*
X145317271Y-117049097D01*
X145317266Y-117049095D01*
X145166302Y-117029221D01*
X145166300Y-117029221D01*
X145015335Y-117049095D01*
X145015330Y-117049097D01*
X144874660Y-117107364D01*
X144874654Y-117107367D01*
X144753853Y-117200062D01*
X144753852Y-117200063D01*
X144661157Y-117320864D01*
X144661154Y-117320870D01*
X144602887Y-117461540D01*
X144602885Y-117461545D01*
X144583011Y-117612509D01*
X144583011Y-117612512D01*
X120000500Y-117612512D01*
X120000500Y-116277801D01*
X142934765Y-116277801D01*
X142954639Y-116428765D01*
X142954641Y-116428770D01*
X143012908Y-116569440D01*
X143012911Y-116569446D01*
X143105606Y-116690247D01*
X143105607Y-116690248D01*
X143226408Y-116782943D01*
X143226414Y-116782946D01*
X143296749Y-116812079D01*
X143367088Y-116841215D01*
X143442571Y-116851152D01*
X143518054Y-116861090D01*
X143518055Y-116861090D01*
X143518056Y-116861090D01*
X143568377Y-116854465D01*
X143669022Y-116841215D01*
X143809700Y-116782944D01*
X143930503Y-116690248D01*
X144023199Y-116569445D01*
X144069361Y-116458001D01*
X149289710Y-116458001D01*
X149309584Y-116608965D01*
X149309586Y-116608970D01*
X149367853Y-116749640D01*
X149367856Y-116749646D01*
X149460551Y-116870447D01*
X149460552Y-116870448D01*
X149581353Y-116963143D01*
X149581359Y-116963146D01*
X149651694Y-116992279D01*
X149722033Y-117021415D01*
X149781326Y-117029221D01*
X149872999Y-117041290D01*
X149873000Y-117041290D01*
X149873001Y-117041290D01*
X149923322Y-117034665D01*
X150023967Y-117021415D01*
X150164645Y-116963144D01*
X150285448Y-116870448D01*
X150378144Y-116749645D01*
X150436415Y-116608967D01*
X150456290Y-116458000D01*
X150452441Y-116428767D01*
X150448654Y-116400001D01*
X155816710Y-116400001D01*
X155836584Y-116550965D01*
X155836586Y-116550970D01*
X155894853Y-116691640D01*
X155894856Y-116691646D01*
X155987551Y-116812447D01*
X155987552Y-116812448D01*
X156108353Y-116905143D01*
X156108359Y-116905146D01*
X156178694Y-116934279D01*
X156249033Y-116963415D01*
X156324516Y-116973352D01*
X156399999Y-116983290D01*
X156400000Y-116983290D01*
X156400001Y-116983290D01*
X156450322Y-116976665D01*
X156550967Y-116963415D01*
X156691645Y-116905144D01*
X156812448Y-116812448D01*
X156905144Y-116691645D01*
X156963415Y-116550967D01*
X156983290Y-116400000D01*
X156963415Y-116249033D01*
X156929170Y-116166359D01*
X156905146Y-116108359D01*
X156905143Y-116108353D01*
X156812448Y-115987552D01*
X156812447Y-115987551D01*
X156691646Y-115894856D01*
X156691640Y-115894853D01*
X156550970Y-115836586D01*
X156550965Y-115836584D01*
X156400001Y-115816710D01*
X156399999Y-115816710D01*
X156249034Y-115836584D01*
X156249029Y-115836586D01*
X156108359Y-115894853D01*
X156108353Y-115894856D01*
X155987552Y-115987551D01*
X155987551Y-115987552D01*
X155894856Y-116108353D01*
X155894853Y-116108359D01*
X155836586Y-116249029D01*
X155836584Y-116249034D01*
X155816710Y-116399998D01*
X155816710Y-116400001D01*
X150448654Y-116400001D01*
X150436415Y-116307034D01*
X150436413Y-116307029D01*
X150424306Y-116277801D01*
X150378144Y-116166355D01*
X150378143Y-116166353D01*
X150285448Y-116045552D01*
X150285447Y-116045551D01*
X150164646Y-115952856D01*
X150164640Y-115952853D01*
X150023970Y-115894586D01*
X150023965Y-115894584D01*
X149873001Y-115874710D01*
X149872999Y-115874710D01*
X149722034Y-115894584D01*
X149722029Y-115894586D01*
X149581359Y-115952853D01*
X149581353Y-115952856D01*
X149460552Y-116045551D01*
X149460551Y-116045552D01*
X149367856Y-116166353D01*
X149367853Y-116166359D01*
X149309586Y-116307029D01*
X149309584Y-116307034D01*
X149289710Y-116457998D01*
X149289710Y-116458001D01*
X144069361Y-116458001D01*
X144081470Y-116428767D01*
X144101345Y-116277800D01*
X144081470Y-116126833D01*
X144023778Y-115987552D01*
X144023201Y-115986159D01*
X144023198Y-115986153D01*
X143930503Y-115865352D01*
X143930502Y-115865351D01*
X143809701Y-115772656D01*
X143809695Y-115772653D01*
X143669025Y-115714386D01*
X143669020Y-115714384D01*
X143518056Y-115694510D01*
X143518054Y-115694510D01*
X143367089Y-115714384D01*
X143367084Y-115714386D01*
X143226414Y-115772653D01*
X143226408Y-115772656D01*
X143105607Y-115865351D01*
X143105606Y-115865352D01*
X143012911Y-115986153D01*
X143012908Y-115986159D01*
X142954641Y-116126829D01*
X142954639Y-116126834D01*
X142934765Y-116277798D01*
X142934765Y-116277801D01*
X120000500Y-116277801D01*
X120000500Y-115300001D01*
X140416710Y-115300001D01*
X140436584Y-115450965D01*
X140436586Y-115450970D01*
X140494853Y-115591640D01*
X140494856Y-115591646D01*
X140587551Y-115712447D01*
X140587552Y-115712448D01*
X140708353Y-115805143D01*
X140708359Y-115805146D01*
X140778694Y-115834279D01*
X140849033Y-115863415D01*
X140924516Y-115873352D01*
X140999999Y-115883290D01*
X141000000Y-115883290D01*
X141000001Y-115883290D01*
X141065172Y-115874710D01*
X141150967Y-115863415D01*
X141291645Y-115805144D01*
X141412448Y-115712448D01*
X141505144Y-115591645D01*
X141563415Y-115450967D01*
X141583290Y-115300000D01*
X141563415Y-115149033D01*
X141505144Y-115008355D01*
X141505143Y-115008353D01*
X141487418Y-114985254D01*
X145403963Y-114985254D01*
X145423837Y-115136218D01*
X145423839Y-115136223D01*
X145482106Y-115276893D01*
X145482109Y-115276899D01*
X145574804Y-115397700D01*
X145574805Y-115397701D01*
X145695606Y-115490396D01*
X145695612Y-115490399D01*
X145765947Y-115519532D01*
X145836286Y-115548668D01*
X145911769Y-115558605D01*
X145987252Y-115568543D01*
X145987253Y-115568543D01*
X145987254Y-115568543D01*
X146037575Y-115561918D01*
X146138220Y-115548668D01*
X146278898Y-115490397D01*
X146399701Y-115397701D01*
X146492397Y-115276898D01*
X146550668Y-115136220D01*
X146570543Y-114985253D01*
X146550668Y-114834286D01*
X146500880Y-114714087D01*
X146492399Y-114693612D01*
X146492396Y-114693606D01*
X146399701Y-114572805D01*
X146399700Y-114572804D01*
X146278899Y-114480109D01*
X146278893Y-114480106D01*
X146138223Y-114421839D01*
X146138218Y-114421837D01*
X145987254Y-114401963D01*
X145987252Y-114401963D01*
X145836287Y-114421837D01*
X145836282Y-114421839D01*
X145695612Y-114480106D01*
X145695606Y-114480109D01*
X145574805Y-114572804D01*
X145574804Y-114572805D01*
X145482109Y-114693606D01*
X145482106Y-114693612D01*
X145423839Y-114834282D01*
X145423837Y-114834287D01*
X145403963Y-114985251D01*
X145403963Y-114985254D01*
X141487418Y-114985254D01*
X141412448Y-114887552D01*
X141412447Y-114887551D01*
X141291646Y-114794856D01*
X141291640Y-114794853D01*
X141150970Y-114736586D01*
X141150965Y-114736584D01*
X141000001Y-114716710D01*
X140999999Y-114716710D01*
X140849034Y-114736584D01*
X140849029Y-114736586D01*
X140708359Y-114794853D01*
X140708353Y-114794856D01*
X140587552Y-114887551D01*
X140587551Y-114887552D01*
X140494856Y-115008353D01*
X140494853Y-115008359D01*
X140436586Y-115149029D01*
X140436584Y-115149034D01*
X140416710Y-115299998D01*
X140416710Y-115300001D01*
X120000500Y-115300001D01*
X120000500Y-114200001D01*
X147366710Y-114200001D01*
X147386584Y-114350965D01*
X147386586Y-114350970D01*
X147444853Y-114491640D01*
X147444856Y-114491646D01*
X147537551Y-114612447D01*
X147537552Y-114612448D01*
X147658353Y-114705143D01*
X147658359Y-114705146D01*
X147728694Y-114734279D01*
X147799033Y-114763415D01*
X147874516Y-114773352D01*
X147949999Y-114783290D01*
X147950000Y-114783290D01*
X147950001Y-114783290D01*
X148000322Y-114776665D01*
X148100967Y-114763415D01*
X148241645Y-114705144D01*
X148362448Y-114612448D01*
X148455144Y-114491645D01*
X148513415Y-114350967D01*
X148532113Y-114208944D01*
X160125653Y-114208944D01*
X160145527Y-114359908D01*
X160145529Y-114359913D01*
X160203796Y-114500583D01*
X160203799Y-114500589D01*
X160296494Y-114621390D01*
X160296495Y-114621391D01*
X160417296Y-114714086D01*
X160417302Y-114714089D01*
X160423630Y-114716710D01*
X160557976Y-114772358D01*
X160633459Y-114782295D01*
X160708942Y-114792233D01*
X160708943Y-114792233D01*
X160708944Y-114792233D01*
X160776872Y-114783290D01*
X160859910Y-114772358D01*
X161000588Y-114714087D01*
X161121391Y-114621391D01*
X161159528Y-114571689D01*
X161215953Y-114530488D01*
X161285699Y-114526333D01*
X161346620Y-114560544D01*
X161356277Y-114571690D01*
X161387551Y-114612447D01*
X161387552Y-114612448D01*
X161508353Y-114705143D01*
X161508359Y-114705146D01*
X161578694Y-114734279D01*
X161649033Y-114763415D01*
X161724516Y-114773352D01*
X161799999Y-114783290D01*
X161800000Y-114783290D01*
X161800001Y-114783290D01*
X161850322Y-114776665D01*
X161950967Y-114763415D01*
X162091645Y-114705144D01*
X162212448Y-114612448D01*
X162305144Y-114491645D01*
X162363415Y-114350967D01*
X162383290Y-114200000D01*
X162363415Y-114049033D01*
X162308850Y-113917302D01*
X162305146Y-113908359D01*
X162305143Y-113908353D01*
X162212448Y-113787552D01*
X162212447Y-113787551D01*
X162091646Y-113694856D01*
X162091640Y-113694853D01*
X161950970Y-113636586D01*
X161950965Y-113636584D01*
X161800001Y-113616710D01*
X161799999Y-113616710D01*
X161649034Y-113636584D01*
X161649029Y-113636586D01*
X161508359Y-113694853D01*
X161508353Y-113694856D01*
X161387552Y-113787551D01*
X161387551Y-113787552D01*
X161349415Y-113837252D01*
X161292987Y-113878455D01*
X161223241Y-113882609D01*
X161162321Y-113848396D01*
X161152674Y-113837263D01*
X161121391Y-113796495D01*
X161087272Y-113770314D01*
X161000589Y-113703799D01*
X161000583Y-113703796D01*
X160859913Y-113645529D01*
X160859908Y-113645527D01*
X160708944Y-113625653D01*
X160708942Y-113625653D01*
X160557977Y-113645527D01*
X160557972Y-113645529D01*
X160417302Y-113703796D01*
X160417296Y-113703799D01*
X160296495Y-113796494D01*
X160296494Y-113796495D01*
X160203799Y-113917296D01*
X160203796Y-113917302D01*
X160145529Y-114057972D01*
X160145527Y-114057977D01*
X160125653Y-114208941D01*
X160125653Y-114208944D01*
X148532113Y-114208944D01*
X148533290Y-114200000D01*
X148513415Y-114049033D01*
X148458850Y-113917302D01*
X148455146Y-113908359D01*
X148455143Y-113908353D01*
X148362448Y-113787552D01*
X148362447Y-113787551D01*
X148241646Y-113694856D01*
X148241640Y-113694853D01*
X148100970Y-113636586D01*
X148100965Y-113636584D01*
X147950001Y-113616710D01*
X147949999Y-113616710D01*
X147799034Y-113636584D01*
X147799029Y-113636586D01*
X147658359Y-113694853D01*
X147658353Y-113694856D01*
X147537552Y-113787551D01*
X147537551Y-113787552D01*
X147444856Y-113908353D01*
X147444853Y-113908359D01*
X147386586Y-114049029D01*
X147386584Y-114049034D01*
X147366710Y-114199998D01*
X147366710Y-114200001D01*
X120000500Y-114200001D01*
X120000500Y-113400001D01*
X155316710Y-113400001D01*
X155336584Y-113550965D01*
X155336586Y-113550970D01*
X155394853Y-113691640D01*
X155394856Y-113691646D01*
X155487551Y-113812447D01*
X155487552Y-113812448D01*
X155608353Y-113905143D01*
X155608359Y-113905146D01*
X155678694Y-113934279D01*
X155749033Y-113963415D01*
X155824516Y-113973352D01*
X155899999Y-113983290D01*
X155900000Y-113983290D01*
X155900001Y-113983290D01*
X155950322Y-113976665D01*
X156050967Y-113963415D01*
X156191645Y-113905144D01*
X156312448Y-113812448D01*
X156403983Y-113693157D01*
X156460408Y-113651957D01*
X156530154Y-113647802D01*
X156591074Y-113682014D01*
X156601376Y-113695605D01*
X156601908Y-113695197D01*
X156699551Y-113822447D01*
X156699552Y-113822448D01*
X156820353Y-113915143D01*
X156820359Y-113915146D01*
X156890694Y-113944279D01*
X156961033Y-113973415D01*
X157036042Y-113983290D01*
X157111999Y-113993290D01*
X157112000Y-113993290D01*
X157112001Y-113993290D01*
X157187958Y-113983290D01*
X157262967Y-113973415D01*
X157403645Y-113915144D01*
X157524448Y-113822448D01*
X157617144Y-113701645D01*
X157675415Y-113560967D01*
X157695290Y-113410000D01*
X157693973Y-113400000D01*
X157675415Y-113259034D01*
X157675413Y-113259029D01*
X157617146Y-113118359D01*
X157617143Y-113118353D01*
X157524448Y-112997552D01*
X157524447Y-112997551D01*
X157403646Y-112904856D01*
X157403640Y-112904853D01*
X157262970Y-112846586D01*
X157262965Y-112846584D01*
X157112001Y-112826710D01*
X157111999Y-112826710D01*
X156961034Y-112846584D01*
X156961029Y-112846586D01*
X156820359Y-112904853D01*
X156820353Y-112904856D01*
X156699552Y-112997551D01*
X156699551Y-112997552D01*
X156608018Y-113116840D01*
X156551590Y-113158042D01*
X156481844Y-113162197D01*
X156420924Y-113127984D01*
X156410624Y-113114394D01*
X156410092Y-113114803D01*
X156312448Y-112987552D01*
X156312447Y-112987551D01*
X156191646Y-112894856D01*
X156191640Y-112894853D01*
X156050970Y-112836586D01*
X156050965Y-112836584D01*
X155900001Y-112816710D01*
X155899999Y-112816710D01*
X155749034Y-112836584D01*
X155749029Y-112836586D01*
X155608359Y-112894853D01*
X155608353Y-112894856D01*
X155487552Y-112987551D01*
X155487551Y-112987552D01*
X155394856Y-113108353D01*
X155394853Y-113108359D01*
X155336586Y-113249029D01*
X155336584Y-113249034D01*
X155316710Y-113399998D01*
X155316710Y-113400001D01*
X120000500Y-113400001D01*
X120000500Y-111100001D01*
X173816710Y-111100001D01*
X173836584Y-111250965D01*
X173836586Y-111250970D01*
X173894853Y-111391640D01*
X173894856Y-111391646D01*
X173987551Y-111512447D01*
X173987552Y-111512448D01*
X174108353Y-111605143D01*
X174108359Y-111605146D01*
X174178694Y-111634279D01*
X174249033Y-111663415D01*
X174324516Y-111673352D01*
X174399999Y-111683290D01*
X174400000Y-111683290D01*
X174400001Y-111683290D01*
X174450322Y-111676665D01*
X174550967Y-111663415D01*
X174691645Y-111605144D01*
X174812448Y-111512448D01*
X174905144Y-111391645D01*
X174963415Y-111250967D01*
X174983290Y-111100000D01*
X174963415Y-110949033D01*
X174905144Y-110808355D01*
X174905143Y-110808353D01*
X174812448Y-110687552D01*
X174812447Y-110687551D01*
X174764720Y-110650929D01*
X174723519Y-110594503D01*
X174720851Y-110549732D01*
X174684706Y-110568915D01*
X174615079Y-110563102D01*
X174612340Y-110562006D01*
X174574981Y-110546532D01*
X174550967Y-110536585D01*
X174550965Y-110536584D01*
X174400001Y-110516710D01*
X174399999Y-110516710D01*
X174249034Y-110536584D01*
X174249029Y-110536586D01*
X174108359Y-110594853D01*
X174108353Y-110594856D01*
X173987552Y-110687551D01*
X173987551Y-110687552D01*
X173894856Y-110808353D01*
X173894853Y-110808359D01*
X173836586Y-110949029D01*
X173836584Y-110949034D01*
X173816710Y-111099998D01*
X173816710Y-111100001D01*
X120000500Y-111100001D01*
X120000500Y-109700001D01*
X149162710Y-109700001D01*
X149182584Y-109850965D01*
X149182586Y-109850970D01*
X149240853Y-109991640D01*
X149240856Y-109991646D01*
X149333551Y-110112447D01*
X149333552Y-110112448D01*
X149454353Y-110205143D01*
X149454359Y-110205146D01*
X149524694Y-110234279D01*
X149595033Y-110263415D01*
X149670516Y-110273352D01*
X149745999Y-110283290D01*
X149746000Y-110283290D01*
X149746001Y-110283290D01*
X149796322Y-110276665D01*
X149896967Y-110263415D01*
X150037645Y-110205144D01*
X150158448Y-110112448D01*
X150251144Y-109991645D01*
X150309415Y-109850967D01*
X150329290Y-109700000D01*
X150309415Y-109549033D01*
X150290720Y-109503901D01*
X172716710Y-109503901D01*
X172736584Y-109654865D01*
X172736586Y-109654870D01*
X172794853Y-109795540D01*
X172794856Y-109795546D01*
X172887551Y-109916347D01*
X172887552Y-109916348D01*
X173008353Y-110009043D01*
X173008359Y-110009046D01*
X173078694Y-110038179D01*
X173149033Y-110067315D01*
X173224516Y-110077252D01*
X173299999Y-110087190D01*
X173300000Y-110087190D01*
X173300001Y-110087190D01*
X173350322Y-110080565D01*
X173450967Y-110067315D01*
X173591645Y-110009044D01*
X173712448Y-109916348D01*
X173724992Y-109900001D01*
X174516710Y-109900001D01*
X174536584Y-110050965D01*
X174536586Y-110050970D01*
X174594853Y-110191640D01*
X174594856Y-110191646D01*
X174649927Y-110263415D01*
X174687552Y-110312448D01*
X174735278Y-110349070D01*
X174776480Y-110405495D01*
X174779147Y-110450266D01*
X174815293Y-110431084D01*
X174884921Y-110436897D01*
X174887660Y-110437994D01*
X174927704Y-110454580D01*
X174949033Y-110463415D01*
X175024516Y-110473352D01*
X175099999Y-110483290D01*
X175100000Y-110483290D01*
X175100001Y-110483290D01*
X175150322Y-110476665D01*
X175250967Y-110463415D01*
X175391645Y-110405144D01*
X175512448Y-110312448D01*
X175605144Y-110191645D01*
X175663415Y-110050967D01*
X175683290Y-109900000D01*
X175676834Y-109850965D01*
X175663415Y-109749034D01*
X175663413Y-109749029D01*
X175605146Y-109608359D01*
X175605143Y-109608353D01*
X175512448Y-109487552D01*
X175512447Y-109487551D01*
X175391646Y-109394856D01*
X175391640Y-109394853D01*
X175250970Y-109336586D01*
X175250965Y-109336584D01*
X175100001Y-109316710D01*
X175099999Y-109316710D01*
X174949034Y-109336584D01*
X174949029Y-109336586D01*
X174808359Y-109394853D01*
X174808353Y-109394856D01*
X174687552Y-109487551D01*
X174687551Y-109487552D01*
X174594856Y-109608353D01*
X174594853Y-109608359D01*
X174536586Y-109749029D01*
X174536584Y-109749034D01*
X174516710Y-109899998D01*
X174516710Y-109900001D01*
X173724992Y-109900001D01*
X173805144Y-109795545D01*
X173863415Y-109654867D01*
X173883290Y-109503900D01*
X173863415Y-109352933D01*
X173805144Y-109212255D01*
X173805143Y-109212253D01*
X173712448Y-109091452D01*
X173712447Y-109091451D01*
X173591646Y-108998756D01*
X173591640Y-108998753D01*
X173450970Y-108940486D01*
X173450965Y-108940484D01*
X173300001Y-108920610D01*
X173299999Y-108920610D01*
X173149034Y-108940484D01*
X173149029Y-108940486D01*
X173008359Y-108998753D01*
X173008353Y-108998756D01*
X172887552Y-109091451D01*
X172887551Y-109091452D01*
X172794856Y-109212253D01*
X172794853Y-109212259D01*
X172736586Y-109352929D01*
X172736584Y-109352934D01*
X172716710Y-109503898D01*
X172716710Y-109503901D01*
X150290720Y-109503901D01*
X150280279Y-109478694D01*
X150251146Y-109408359D01*
X150251143Y-109408353D01*
X150158448Y-109287552D01*
X150158447Y-109287551D01*
X150037646Y-109194856D01*
X150037640Y-109194853D01*
X149896970Y-109136586D01*
X149896965Y-109136584D01*
X149746001Y-109116710D01*
X149745999Y-109116710D01*
X149595034Y-109136584D01*
X149595029Y-109136586D01*
X149454359Y-109194853D01*
X149454353Y-109194856D01*
X149333552Y-109287551D01*
X149333551Y-109287552D01*
X149240856Y-109408353D01*
X149240853Y-109408359D01*
X149182586Y-109549029D01*
X149182584Y-109549034D01*
X149162710Y-109699998D01*
X149162710Y-109700001D01*
X120000500Y-109700001D01*
X120000500Y-109000001D01*
X137416710Y-109000001D01*
X137436584Y-109150965D01*
X137436586Y-109150970D01*
X137494853Y-109291640D01*
X137494856Y-109291646D01*
X137587551Y-109412447D01*
X137587552Y-109412448D01*
X137708353Y-109505143D01*
X137708359Y-109505146D01*
X137778694Y-109534279D01*
X137849033Y-109563415D01*
X137924516Y-109573352D01*
X137999999Y-109583290D01*
X138000000Y-109583290D01*
X138000001Y-109583290D01*
X138050322Y-109576665D01*
X138150967Y-109563415D01*
X138291645Y-109505144D01*
X138412448Y-109412448D01*
X138505144Y-109291645D01*
X138563415Y-109150967D01*
X138583290Y-109000000D01*
X138563415Y-108849033D01*
X138505144Y-108708355D01*
X138505143Y-108708353D01*
X138412448Y-108587552D01*
X138412447Y-108587551D01*
X138291646Y-108494856D01*
X138291640Y-108494853D01*
X138150970Y-108436586D01*
X138150965Y-108436584D01*
X138000001Y-108416710D01*
X137999999Y-108416710D01*
X137849034Y-108436584D01*
X137849029Y-108436586D01*
X137708359Y-108494853D01*
X137708353Y-108494856D01*
X137587552Y-108587551D01*
X137587551Y-108587552D01*
X137494856Y-108708353D01*
X137494853Y-108708359D01*
X137436586Y-108849029D01*
X137436584Y-108849034D01*
X137416710Y-108999998D01*
X137416710Y-109000001D01*
X120000500Y-109000001D01*
X120000500Y-107550001D01*
X121194318Y-107550001D01*
X121214955Y-107706760D01*
X121214956Y-107706762D01*
X121253576Y-107800000D01*
X121275464Y-107852841D01*
X121371718Y-107978282D01*
X121497159Y-108074536D01*
X121643238Y-108135044D01*
X121687246Y-108140837D01*
X121751142Y-108169102D01*
X121789614Y-108227426D01*
X121794000Y-108247590D01*
X121814956Y-108406761D01*
X121814956Y-108406762D01*
X121851444Y-108494853D01*
X121875464Y-108552841D01*
X121971718Y-108678282D01*
X122097159Y-108774536D01*
X122243238Y-108835044D01*
X122321619Y-108845363D01*
X122399999Y-108855682D01*
X122400000Y-108855682D01*
X122400001Y-108855682D01*
X122452254Y-108848802D01*
X122556762Y-108835044D01*
X122702841Y-108774536D01*
X122824515Y-108681171D01*
X122889683Y-108655979D01*
X122958127Y-108670017D01*
X122975478Y-108681167D01*
X123097159Y-108774536D01*
X123243238Y-108835044D01*
X123321619Y-108845363D01*
X123399999Y-108855682D01*
X123400000Y-108855682D01*
X123400001Y-108855682D01*
X123452254Y-108848802D01*
X123556762Y-108835044D01*
X123702841Y-108774536D01*
X123828282Y-108678282D01*
X123851625Y-108647860D01*
X123908051Y-108606658D01*
X123977797Y-108602503D01*
X124038718Y-108636714D01*
X124048368Y-108647851D01*
X124071718Y-108678282D01*
X124197159Y-108774536D01*
X124343238Y-108835044D01*
X124421619Y-108845363D01*
X124499999Y-108855682D01*
X124500000Y-108855682D01*
X124500001Y-108855682D01*
X124552254Y-108848802D01*
X124656762Y-108835044D01*
X124802841Y-108774536D01*
X124928282Y-108678282D01*
X125024536Y-108552841D01*
X125085044Y-108406762D01*
X125085934Y-108400001D01*
X161994318Y-108400001D01*
X162014955Y-108556760D01*
X162014956Y-108556762D01*
X162015617Y-108558359D01*
X162075464Y-108702841D01*
X162171718Y-108828282D01*
X162297159Y-108924536D01*
X162443238Y-108985044D01*
X162521619Y-108995363D01*
X162599999Y-109005682D01*
X162600000Y-109005682D01*
X162600001Y-109005682D01*
X162652631Y-108998753D01*
X162756762Y-108985044D01*
X162902841Y-108924536D01*
X163024515Y-108831171D01*
X163089683Y-108805979D01*
X163158127Y-108820017D01*
X163175478Y-108831167D01*
X163297159Y-108924536D01*
X163443238Y-108985044D01*
X163521619Y-108995363D01*
X163599999Y-109005682D01*
X163600000Y-109005682D01*
X163600001Y-109005682D01*
X163652631Y-108998753D01*
X163756762Y-108985044D01*
X163902841Y-108924536D01*
X164028282Y-108828282D01*
X164124536Y-108702841D01*
X164185044Y-108556762D01*
X164205682Y-108400000D01*
X164201695Y-108369718D01*
X164185044Y-108243239D01*
X164185044Y-108243238D01*
X164124536Y-108097159D01*
X164028282Y-107971718D01*
X163902841Y-107875464D01*
X163848224Y-107852841D01*
X163756762Y-107814956D01*
X163756760Y-107814955D01*
X163643169Y-107800001D01*
X176516710Y-107800001D01*
X176536584Y-107950965D01*
X176536586Y-107950970D01*
X176594853Y-108091640D01*
X176594856Y-108091646D01*
X176687551Y-108212447D01*
X176687552Y-108212448D01*
X176808353Y-108305143D01*
X176808359Y-108305146D01*
X176831693Y-108314811D01*
X176949033Y-108363415D01*
X177024516Y-108373352D01*
X177099999Y-108383290D01*
X177100000Y-108383290D01*
X177100001Y-108383290D01*
X177150322Y-108376665D01*
X177250967Y-108363415D01*
X177325032Y-108332736D01*
X177399155Y-108302034D01*
X177400364Y-108304954D01*
X177453772Y-108291980D01*
X177519807Y-108314811D01*
X177563015Y-108369718D01*
X177569679Y-108439269D01*
X177546288Y-108491327D01*
X177494856Y-108558354D01*
X177494853Y-108558359D01*
X177436586Y-108699029D01*
X177436584Y-108699034D01*
X177416710Y-108849998D01*
X177416710Y-108850001D01*
X177436584Y-109000965D01*
X177436586Y-109000970D01*
X177494853Y-109141640D01*
X177494856Y-109141646D01*
X177587551Y-109262447D01*
X177587552Y-109262448D01*
X177708353Y-109355143D01*
X177708359Y-109355146D01*
X177778694Y-109384279D01*
X177849033Y-109413415D01*
X177924516Y-109423352D01*
X177999999Y-109433290D01*
X178000000Y-109433290D01*
X178000001Y-109433290D01*
X178050322Y-109426665D01*
X178150967Y-109413415D01*
X178291645Y-109355144D01*
X178412448Y-109262448D01*
X178505144Y-109141645D01*
X178563415Y-109000967D01*
X178583290Y-108850000D01*
X178580811Y-108831173D01*
X178563415Y-108699034D01*
X178563413Y-108699029D01*
X178554819Y-108678282D01*
X178517238Y-108587552D01*
X178505146Y-108558359D01*
X178505143Y-108558353D01*
X178412448Y-108437552D01*
X178412447Y-108437551D01*
X178291646Y-108344856D01*
X178291640Y-108344853D01*
X178150970Y-108286586D01*
X178150965Y-108286584D01*
X178000001Y-108266710D01*
X177999999Y-108266710D01*
X177849034Y-108286584D01*
X177849029Y-108286586D01*
X177700845Y-108347966D01*
X177699641Y-108345061D01*
X177646114Y-108358014D01*
X177580101Y-108335123D01*
X177536942Y-108280177D01*
X177530342Y-108210620D01*
X177553709Y-108158674D01*
X177605144Y-108091645D01*
X177663415Y-107950967D01*
X177683290Y-107800000D01*
X177663415Y-107649033D01*
X177625761Y-107558128D01*
X177605146Y-107508359D01*
X177605143Y-107508353D01*
X177512448Y-107387552D01*
X177512447Y-107387551D01*
X177391646Y-107294856D01*
X177391640Y-107294853D01*
X177250970Y-107236586D01*
X177250965Y-107236584D01*
X177100001Y-107216710D01*
X177099999Y-107216710D01*
X176949034Y-107236584D01*
X176949029Y-107236586D01*
X176808359Y-107294853D01*
X176808353Y-107294856D01*
X176687552Y-107387551D01*
X176687551Y-107387552D01*
X176594856Y-107508353D01*
X176594853Y-107508359D01*
X176536586Y-107649029D01*
X176536584Y-107649034D01*
X176516710Y-107799998D01*
X176516710Y-107800001D01*
X163643169Y-107800001D01*
X163600001Y-107794318D01*
X163599999Y-107794318D01*
X163443239Y-107814955D01*
X163443237Y-107814956D01*
X163297157Y-107875464D01*
X163175486Y-107968826D01*
X163110317Y-107994020D01*
X163041872Y-107979981D01*
X163024514Y-107968826D01*
X162902842Y-107875464D01*
X162756762Y-107814956D01*
X162756760Y-107814955D01*
X162600001Y-107794318D01*
X162599999Y-107794318D01*
X162443239Y-107814955D01*
X162443237Y-107814956D01*
X162297160Y-107875463D01*
X162171718Y-107971718D01*
X162075463Y-108097160D01*
X162014956Y-108243237D01*
X162014955Y-108243239D01*
X161994318Y-108399998D01*
X161994318Y-108400001D01*
X125085934Y-108400001D01*
X125105682Y-108250000D01*
X125085044Y-108093238D01*
X125024536Y-107947159D01*
X124928282Y-107821718D01*
X124802841Y-107725464D01*
X124757690Y-107706762D01*
X124681877Y-107675359D01*
X124627474Y-107631518D01*
X124605409Y-107565224D01*
X124605748Y-107558128D01*
X124605682Y-107558128D01*
X124605682Y-107549998D01*
X124595466Y-107472403D01*
X152799500Y-107472403D01*
X152811131Y-107530880D01*
X152811132Y-107530881D01*
X152855447Y-107597203D01*
X152921769Y-107641518D01*
X152921770Y-107641519D01*
X152980247Y-107653150D01*
X152980250Y-107653151D01*
X152980252Y-107653151D01*
X154619750Y-107653151D01*
X154619751Y-107653150D01*
X154640471Y-107649029D01*
X154678229Y-107641519D01*
X154678229Y-107641518D01*
X154678231Y-107641518D01*
X154744552Y-107597203D01*
X154788867Y-107530882D01*
X154788867Y-107530880D01*
X154788868Y-107530880D01*
X154800499Y-107472403D01*
X154800500Y-107472401D01*
X154800500Y-105832900D01*
X154800499Y-105832898D01*
X154788868Y-105774421D01*
X154788867Y-105774420D01*
X154744552Y-105708098D01*
X154678230Y-105663783D01*
X154678229Y-105663782D01*
X154619752Y-105652151D01*
X154619748Y-105652151D01*
X152980252Y-105652151D01*
X152980247Y-105652151D01*
X152921770Y-105663782D01*
X152921769Y-105663783D01*
X152855447Y-105708098D01*
X152811132Y-105774420D01*
X152811131Y-105774421D01*
X152799500Y-105832898D01*
X152799500Y-107472403D01*
X124595466Y-107472403D01*
X124585044Y-107393239D01*
X124585044Y-107393238D01*
X124524536Y-107247159D01*
X124428282Y-107121718D01*
X124302841Y-107025464D01*
X124252316Y-107004536D01*
X124156762Y-106964956D01*
X124156760Y-106964955D01*
X124000001Y-106944318D01*
X123999999Y-106944318D01*
X123843239Y-106964955D01*
X123843237Y-106964956D01*
X123697160Y-107025463D01*
X123645577Y-107065044D01*
X123571718Y-107121718D01*
X123548374Y-107152140D01*
X123491948Y-107193341D01*
X123422202Y-107197496D01*
X123361281Y-107163283D01*
X123351630Y-107152146D01*
X123328282Y-107121718D01*
X123202841Y-107025464D01*
X123152316Y-107004536D01*
X123056762Y-106964956D01*
X123056760Y-106964955D01*
X122900001Y-106944318D01*
X122899999Y-106944318D01*
X122743239Y-106964955D01*
X122743237Y-106964956D01*
X122597160Y-107025463D01*
X122545577Y-107065044D01*
X122471718Y-107121718D01*
X122448374Y-107152140D01*
X122391948Y-107193341D01*
X122322202Y-107197496D01*
X122261281Y-107163283D01*
X122251630Y-107152146D01*
X122228282Y-107121718D01*
X122102841Y-107025464D01*
X122052316Y-107004536D01*
X121956762Y-106964956D01*
X121956760Y-106964955D01*
X121800001Y-106944318D01*
X121799999Y-106944318D01*
X121643239Y-106964955D01*
X121643237Y-106964956D01*
X121497160Y-107025463D01*
X121371718Y-107121718D01*
X121275463Y-107247160D01*
X121214956Y-107393237D01*
X121214955Y-107393239D01*
X121194318Y-107549998D01*
X121194318Y-107550001D01*
X120000500Y-107550001D01*
X120000500Y-106480001D01*
X144060318Y-106480001D01*
X144080955Y-106636760D01*
X144080956Y-106636762D01*
X144141464Y-106782841D01*
X144237718Y-106908282D01*
X144363159Y-107004536D01*
X144509238Y-107065044D01*
X144587619Y-107075363D01*
X144665999Y-107085682D01*
X144666000Y-107085682D01*
X144666001Y-107085682D01*
X144718254Y-107078802D01*
X144822762Y-107065044D01*
X144968841Y-107004536D01*
X145094282Y-106908282D01*
X145094284Y-106908278D01*
X145098513Y-106905034D01*
X145163682Y-106879840D01*
X145232127Y-106893878D01*
X145249487Y-106905034D01*
X145253715Y-106908278D01*
X145253718Y-106908282D01*
X145379159Y-107004536D01*
X145525238Y-107065044D01*
X145603619Y-107075363D01*
X145681999Y-107085682D01*
X145682000Y-107085682D01*
X145682001Y-107085682D01*
X145734254Y-107078802D01*
X145838762Y-107065044D01*
X145984841Y-107004536D01*
X146110282Y-106908282D01*
X146206536Y-106782841D01*
X146206541Y-106782828D01*
X146209610Y-106777515D01*
X146260175Y-106729298D01*
X146328782Y-106716072D01*
X146393648Y-106742037D01*
X146424390Y-106777515D01*
X146427461Y-106782834D01*
X146427464Y-106782841D01*
X146523718Y-106908282D01*
X146649159Y-107004536D01*
X146795238Y-107065044D01*
X146873619Y-107075363D01*
X146951999Y-107085682D01*
X146952000Y-107085682D01*
X146952001Y-107085682D01*
X147004254Y-107078802D01*
X147108762Y-107065044D01*
X147254841Y-107004536D01*
X147380282Y-106908282D01*
X147380284Y-106908278D01*
X147384513Y-106905034D01*
X147449682Y-106879840D01*
X147518127Y-106893878D01*
X147535487Y-106905034D01*
X147539715Y-106908278D01*
X147539718Y-106908282D01*
X147665159Y-107004536D01*
X147811238Y-107065044D01*
X147889619Y-107075363D01*
X147967999Y-107085682D01*
X147968000Y-107085682D01*
X147968001Y-107085682D01*
X148020254Y-107078802D01*
X148124762Y-107065044D01*
X148270841Y-107004536D01*
X148396282Y-106908282D01*
X148492536Y-106782841D01*
X148553044Y-106636762D01*
X148573682Y-106480000D01*
X148553044Y-106323238D01*
X148492536Y-106177159D01*
X148396282Y-106051718D01*
X148270841Y-105955464D01*
X148221540Y-105935043D01*
X148124762Y-105894956D01*
X148124760Y-105894955D01*
X147968001Y-105874318D01*
X147967999Y-105874318D01*
X147811239Y-105894955D01*
X147811237Y-105894956D01*
X147665157Y-105955464D01*
X147535486Y-106054965D01*
X147470317Y-106080159D01*
X147401872Y-106066121D01*
X147384514Y-106054965D01*
X147254842Y-105955464D01*
X147108762Y-105894956D01*
X147108760Y-105894955D01*
X146952001Y-105874318D01*
X146951999Y-105874318D01*
X146795239Y-105894955D01*
X146795237Y-105894956D01*
X146649160Y-105955463D01*
X146523718Y-106051718D01*
X146427458Y-106177166D01*
X146424387Y-106182487D01*
X146373821Y-106230703D01*
X146305214Y-106243927D01*
X146240349Y-106217959D01*
X146209613Y-106182487D01*
X146206541Y-106177166D01*
X146132105Y-106080159D01*
X146110282Y-106051718D01*
X145984841Y-105955464D01*
X145935540Y-105935043D01*
X145838762Y-105894956D01*
X145838760Y-105894955D01*
X145682001Y-105874318D01*
X145681999Y-105874318D01*
X145525239Y-105894955D01*
X145525237Y-105894956D01*
X145379157Y-105955464D01*
X145249486Y-106054965D01*
X145184317Y-106080159D01*
X145115872Y-106066121D01*
X145098514Y-106054965D01*
X144968842Y-105955464D01*
X144822762Y-105894956D01*
X144822760Y-105894955D01*
X144666001Y-105874318D01*
X144665999Y-105874318D01*
X144509239Y-105894955D01*
X144509237Y-105894956D01*
X144363160Y-105955463D01*
X144237718Y-106051718D01*
X144141463Y-106177160D01*
X144080956Y-106323237D01*
X144080955Y-106323239D01*
X144060318Y-106479998D01*
X144060318Y-106480001D01*
X120000500Y-106480001D01*
X120000500Y-105350001D01*
X177744318Y-105350001D01*
X177764955Y-105506760D01*
X177764956Y-105506762D01*
X177825464Y-105652841D01*
X177921718Y-105778282D01*
X178047159Y-105874536D01*
X178193238Y-105935044D01*
X178271619Y-105945363D01*
X178349999Y-105955682D01*
X178350000Y-105955682D01*
X178350001Y-105955682D01*
X178402254Y-105948802D01*
X178506762Y-105935044D01*
X178652841Y-105874536D01*
X178778282Y-105778282D01*
X178874536Y-105652841D01*
X178935044Y-105506762D01*
X178955682Y-105350000D01*
X178935044Y-105193238D01*
X178874536Y-105047159D01*
X178778282Y-104921718D01*
X178652841Y-104825464D01*
X178506762Y-104764956D01*
X178506760Y-104764955D01*
X178350001Y-104744318D01*
X178349999Y-104744318D01*
X178193239Y-104764955D01*
X178193237Y-104764956D01*
X178047160Y-104825463D01*
X177921718Y-104921718D01*
X177825463Y-105047160D01*
X177764956Y-105193237D01*
X177764955Y-105193239D01*
X177744318Y-105349998D01*
X177744318Y-105350001D01*
X120000500Y-105350001D01*
X120000500Y-104050001D01*
X141744318Y-104050001D01*
X141764955Y-104206760D01*
X141764956Y-104206762D01*
X141825464Y-104352841D01*
X141921718Y-104478282D01*
X142047159Y-104574536D01*
X142193238Y-104635044D01*
X142271619Y-104645363D01*
X142349999Y-104655682D01*
X142350000Y-104655682D01*
X142350001Y-104655682D01*
X142402254Y-104648802D01*
X142506762Y-104635044D01*
X142652841Y-104574536D01*
X142778282Y-104478282D01*
X142874536Y-104352841D01*
X142935044Y-104206762D01*
X142955682Y-104050000D01*
X142935044Y-103893238D01*
X142874536Y-103747159D01*
X142778282Y-103621718D01*
X142652841Y-103525464D01*
X142506762Y-103464956D01*
X142506760Y-103464955D01*
X142350001Y-103444318D01*
X142349999Y-103444318D01*
X142193239Y-103464955D01*
X142193237Y-103464956D01*
X142047160Y-103525463D01*
X141921718Y-103621718D01*
X141825463Y-103747160D01*
X141764956Y-103893237D01*
X141764955Y-103893239D01*
X141744318Y-104049998D01*
X141744318Y-104050001D01*
X120000500Y-104050001D01*
X120000500Y-101401590D01*
X121396700Y-101401590D01*
X121399412Y-101430520D01*
X121399412Y-101430522D01*
X121399413Y-101430525D01*
X121442056Y-101552392D01*
X121518725Y-101656275D01*
X121622608Y-101732944D01*
X121659712Y-101745927D01*
X121744467Y-101775585D01*
X121744471Y-101775585D01*
X121744475Y-101775587D01*
X121773407Y-101778300D01*
X123126592Y-101778299D01*
X123155525Y-101775587D01*
X123277392Y-101732944D01*
X123381275Y-101656275D01*
X123457944Y-101552392D01*
X123500587Y-101430525D01*
X123503300Y-101401593D01*
X123503299Y-100869752D01*
X127359500Y-100869752D01*
X127371131Y-100928229D01*
X127371132Y-100928230D01*
X127415447Y-100994552D01*
X127481769Y-101038867D01*
X127481770Y-101038868D01*
X127540247Y-101050499D01*
X127540250Y-101050500D01*
X127540252Y-101050500D01*
X129279750Y-101050500D01*
X129279751Y-101050499D01*
X129294568Y-101047552D01*
X129338229Y-101038868D01*
X129338229Y-101038867D01*
X129338231Y-101038867D01*
X129404552Y-100994552D01*
X129448867Y-100928231D01*
X129448867Y-100928229D01*
X129448868Y-100928229D01*
X129459455Y-100875000D01*
X129460500Y-100869748D01*
X129460500Y-100000000D01*
X129916724Y-100000000D01*
X129936577Y-100201580D01*
X129956439Y-100267055D01*
X129995377Y-100395418D01*
X130034496Y-100468605D01*
X130090864Y-100574060D01*
X130219363Y-100730636D01*
X130375939Y-100859135D01*
X130375943Y-100859138D01*
X130554582Y-100954623D01*
X130748418Y-101013422D01*
X130950000Y-101033276D01*
X131151582Y-101013422D01*
X131345418Y-100954623D01*
X131524057Y-100859138D01*
X131680636Y-100730636D01*
X131809138Y-100574057D01*
X131904623Y-100395418D01*
X131934525Y-100296840D01*
X131972823Y-100238403D01*
X132036635Y-100209947D01*
X132105702Y-100220507D01*
X132158095Y-100266731D01*
X132172961Y-100300744D01*
X132216566Y-100463483D01*
X132216570Y-100463492D01*
X132316399Y-100677578D01*
X132451894Y-100871082D01*
X132618917Y-101038105D01*
X132812421Y-101173600D01*
X133026507Y-101273429D01*
X133026516Y-101273433D01*
X133240000Y-101330634D01*
X133240000Y-100435501D01*
X133347685Y-100484680D01*
X133454237Y-100500000D01*
X133525763Y-100500000D01*
X133632315Y-100484680D01*
X133740000Y-100435501D01*
X133740000Y-101330633D01*
X133953483Y-101273433D01*
X133953492Y-101273429D01*
X134167578Y-101173600D01*
X134361082Y-101038105D01*
X134528105Y-100871082D01*
X134663600Y-100677578D01*
X134763429Y-100463492D01*
X134763433Y-100463483D01*
X134807038Y-100300744D01*
X134843402Y-100241084D01*
X134906249Y-100210554D01*
X134975625Y-100218848D01*
X135029503Y-100263333D01*
X135045473Y-100296841D01*
X135075376Y-100395417D01*
X135170864Y-100574060D01*
X135299363Y-100730636D01*
X135455939Y-100859135D01*
X135455943Y-100859138D01*
X135634582Y-100954623D01*
X135828418Y-101013422D01*
X136030000Y-101033276D01*
X136231582Y-101013422D01*
X136425418Y-100954623D01*
X136604057Y-100859138D01*
X136760636Y-100730636D01*
X136889138Y-100574057D01*
X136984623Y-100395418D01*
X137043422Y-100201582D01*
X137063276Y-100000000D01*
X137536724Y-100000000D01*
X137556577Y-100201580D01*
X137576439Y-100267055D01*
X137615377Y-100395418D01*
X137654496Y-100468605D01*
X137710864Y-100574060D01*
X137839363Y-100730636D01*
X137995939Y-100859135D01*
X137995943Y-100859138D01*
X138174582Y-100954623D01*
X138368418Y-101013422D01*
X138570000Y-101033276D01*
X138771582Y-101013422D01*
X138965418Y-100954623D01*
X139144057Y-100859138D01*
X139300636Y-100730636D01*
X139429138Y-100574057D01*
X139524623Y-100395418D01*
X139583422Y-100201582D01*
X139603276Y-100000000D01*
X140054417Y-100000000D01*
X140074699Y-100205932D01*
X140093241Y-100267056D01*
X140134768Y-100403954D01*
X140232315Y-100586450D01*
X140266969Y-100628677D01*
X140363589Y-100746410D01*
X140428913Y-100800019D01*
X140523550Y-100877685D01*
X140706046Y-100975232D01*
X140904066Y-101035300D01*
X140904065Y-101035300D01*
X140922529Y-101037118D01*
X141110000Y-101055583D01*
X141315934Y-101035300D01*
X141513954Y-100975232D01*
X141696450Y-100877685D01*
X141706116Y-100869752D01*
X157839500Y-100869752D01*
X157851131Y-100928229D01*
X157851132Y-100928230D01*
X157895447Y-100994552D01*
X157961769Y-101038867D01*
X157961770Y-101038868D01*
X158020247Y-101050499D01*
X158020250Y-101050500D01*
X158020252Y-101050500D01*
X159759750Y-101050500D01*
X159759751Y-101050499D01*
X159774568Y-101047552D01*
X159818229Y-101038868D01*
X159818229Y-101038867D01*
X159818231Y-101038867D01*
X159884552Y-100994552D01*
X159928867Y-100928231D01*
X159928867Y-100928229D01*
X159928868Y-100928229D01*
X159939455Y-100875000D01*
X159940500Y-100869748D01*
X159940500Y-100000000D01*
X160396724Y-100000000D01*
X160416577Y-100201580D01*
X160436439Y-100267055D01*
X160475377Y-100395418D01*
X160514496Y-100468605D01*
X160570864Y-100574060D01*
X160699363Y-100730636D01*
X160855939Y-100859135D01*
X160855943Y-100859138D01*
X161034582Y-100954623D01*
X161228418Y-101013422D01*
X161430000Y-101033276D01*
X161631582Y-101013422D01*
X161825418Y-100954623D01*
X162004057Y-100859138D01*
X162160636Y-100730636D01*
X162289138Y-100574057D01*
X162384623Y-100395418D01*
X162414525Y-100296840D01*
X162452823Y-100238403D01*
X162516635Y-100209947D01*
X162585702Y-100220507D01*
X162638095Y-100266731D01*
X162652961Y-100300744D01*
X162696566Y-100463483D01*
X162696570Y-100463492D01*
X162796399Y-100677578D01*
X162931894Y-100871082D01*
X163098917Y-101038105D01*
X163292421Y-101173600D01*
X163506507Y-101273429D01*
X163506516Y-101273433D01*
X163720000Y-101330634D01*
X163720000Y-100435501D01*
X163827685Y-100484680D01*
X163934237Y-100500000D01*
X164005763Y-100500000D01*
X164112315Y-100484680D01*
X164220000Y-100435501D01*
X164220000Y-101330633D01*
X164433483Y-101273433D01*
X164433492Y-101273429D01*
X164647578Y-101173600D01*
X164841082Y-101038105D01*
X165008105Y-100871082D01*
X165143600Y-100677578D01*
X165243429Y-100463492D01*
X165243433Y-100463483D01*
X165287038Y-100300744D01*
X165323402Y-100241084D01*
X165386249Y-100210554D01*
X165455625Y-100218848D01*
X165509503Y-100263333D01*
X165525473Y-100296841D01*
X165555376Y-100395417D01*
X165650864Y-100574060D01*
X165779363Y-100730636D01*
X165935939Y-100859135D01*
X165935943Y-100859138D01*
X166114582Y-100954623D01*
X166308418Y-101013422D01*
X166510000Y-101033276D01*
X166711582Y-101013422D01*
X166905418Y-100954623D01*
X167084057Y-100859138D01*
X167240636Y-100730636D01*
X167369138Y-100574057D01*
X167464623Y-100395418D01*
X167523422Y-100201582D01*
X167543276Y-100000000D01*
X168016724Y-100000000D01*
X168036577Y-100201580D01*
X168056439Y-100267055D01*
X168095377Y-100395418D01*
X168134496Y-100468605D01*
X168190864Y-100574060D01*
X168319363Y-100730636D01*
X168475939Y-100859135D01*
X168475943Y-100859138D01*
X168654582Y-100954623D01*
X168848418Y-101013422D01*
X169050000Y-101033276D01*
X169251582Y-101013422D01*
X169445418Y-100954623D01*
X169624057Y-100859138D01*
X169780636Y-100730636D01*
X169909138Y-100574057D01*
X170004623Y-100395418D01*
X170063422Y-100201582D01*
X170083276Y-100000000D01*
X170534417Y-100000000D01*
X170554699Y-100205932D01*
X170573241Y-100267056D01*
X170614768Y-100403954D01*
X170712315Y-100586450D01*
X170746969Y-100628677D01*
X170843589Y-100746410D01*
X170908913Y-100800019D01*
X171003550Y-100877685D01*
X171186046Y-100975232D01*
X171384066Y-101035300D01*
X171384065Y-101035300D01*
X171402529Y-101037118D01*
X171590000Y-101055583D01*
X171795934Y-101035300D01*
X171993954Y-100975232D01*
X172176450Y-100877685D01*
X172336410Y-100746410D01*
X172467685Y-100586450D01*
X172565232Y-100403954D01*
X172611933Y-100250000D01*
X175999632Y-100250000D01*
X177070440Y-100250000D01*
X177031722Y-100292059D01*
X176981449Y-100406670D01*
X176971114Y-100531395D01*
X177001837Y-100652719D01*
X177065394Y-100750000D01*
X176003742Y-100750000D01*
X176030770Y-100861409D01*
X176118040Y-101052507D01*
X176239889Y-101223619D01*
X176239895Y-101223625D01*
X176391932Y-101368592D01*
X176568657Y-101482166D01*
X176763685Y-101560244D01*
X176969962Y-101600000D01*
X177100000Y-101600000D01*
X177100000Y-100780617D01*
X177169052Y-100834363D01*
X177287424Y-100875000D01*
X177381073Y-100875000D01*
X177473446Y-100859586D01*
X177583514Y-100800019D01*
X177600000Y-100782110D01*
X177600000Y-101600000D01*
X177677398Y-101600000D01*
X177834122Y-101585034D01*
X177834126Y-101585033D01*
X178035686Y-101525850D01*
X178222414Y-101429586D01*
X178387537Y-101299731D01*
X178387540Y-101299728D01*
X178525105Y-101140969D01*
X178525114Y-101140958D01*
X178630144Y-100959039D01*
X178630147Y-100959032D01*
X178698855Y-100760517D01*
X178698855Y-100760515D01*
X178700368Y-100750000D01*
X177629560Y-100750000D01*
X177668278Y-100707941D01*
X177718551Y-100593330D01*
X177728886Y-100468605D01*
X177698163Y-100347281D01*
X177634606Y-100250000D01*
X178696257Y-100250000D01*
X178669229Y-100138590D01*
X178581959Y-99947492D01*
X178460110Y-99776380D01*
X178460104Y-99776374D01*
X178308067Y-99631407D01*
X178131340Y-99517832D01*
X177944640Y-99443088D01*
X177889719Y-99399898D01*
X177866867Y-99333871D01*
X177883340Y-99265971D01*
X177933907Y-99217755D01*
X177949772Y-99210929D01*
X177964829Y-99205661D01*
X178113333Y-99112350D01*
X178237350Y-98988333D01*
X178330661Y-98839829D01*
X178388588Y-98674284D01*
X178388589Y-98674278D01*
X178408225Y-98500003D01*
X178408225Y-98499996D01*
X178388589Y-98325721D01*
X178388588Y-98325719D01*
X178388588Y-98325716D01*
X178330661Y-98160171D01*
X178237350Y-98011667D01*
X178113333Y-97887650D01*
X177964828Y-97794338D01*
X177799278Y-97736410D01*
X177668717Y-97721700D01*
X177668711Y-97721700D01*
X177031289Y-97721700D01*
X177031282Y-97721700D01*
X176900721Y-97736410D01*
X176735171Y-97794338D01*
X176586666Y-97887650D01*
X176462650Y-98011666D01*
X176369338Y-98160171D01*
X176311410Y-98325721D01*
X176291775Y-98499996D01*
X176291775Y-98500003D01*
X176311410Y-98674278D01*
X176369338Y-98839828D01*
X176445559Y-98961133D01*
X176462650Y-98988333D01*
X176586667Y-99112350D01*
X176615158Y-99130252D01*
X176735171Y-99205661D01*
X176756041Y-99212964D01*
X176812817Y-99253686D01*
X176838565Y-99318639D01*
X176825109Y-99387200D01*
X176776722Y-99437603D01*
X176750022Y-99448983D01*
X176664313Y-99474149D01*
X176477585Y-99570413D01*
X176312462Y-99700268D01*
X176312459Y-99700271D01*
X176174894Y-99859030D01*
X176174885Y-99859041D01*
X176069855Y-100040960D01*
X176069852Y-100040967D01*
X176001144Y-100239482D01*
X176001144Y-100239484D01*
X175999632Y-100250000D01*
X172611933Y-100250000D01*
X172625300Y-100205934D01*
X172645583Y-100000000D01*
X172625300Y-99794066D01*
X172565232Y-99596046D01*
X172467685Y-99413550D01*
X172356689Y-99278300D01*
X172336410Y-99253589D01*
X172186121Y-99130252D01*
X172176450Y-99122315D01*
X171993954Y-99024768D01*
X171795934Y-98964700D01*
X171795932Y-98964699D01*
X171795934Y-98964699D01*
X171590000Y-98944417D01*
X171384067Y-98964699D01*
X171186043Y-99024769D01*
X171098114Y-99071769D01*
X171003550Y-99122315D01*
X171003548Y-99122316D01*
X171003547Y-99122317D01*
X170843589Y-99253589D01*
X170712317Y-99413547D01*
X170712315Y-99413550D01*
X170693376Y-99448983D01*
X170614769Y-99596043D01*
X170554699Y-99794067D01*
X170534417Y-100000000D01*
X170083276Y-100000000D01*
X170063422Y-99798418D01*
X170004623Y-99604582D01*
X169909138Y-99425943D01*
X169909135Y-99425939D01*
X169780636Y-99269363D01*
X169624060Y-99140864D01*
X169624058Y-99140863D01*
X169624057Y-99140862D01*
X169445418Y-99045377D01*
X169313789Y-99005448D01*
X169251580Y-98986577D01*
X169050000Y-98966724D01*
X168848419Y-98986577D01*
X168654579Y-99045378D01*
X168475939Y-99140864D01*
X168319363Y-99269363D01*
X168190864Y-99425939D01*
X168095378Y-99604579D01*
X168036577Y-99798419D01*
X168016724Y-100000000D01*
X167543276Y-100000000D01*
X167523422Y-99798418D01*
X167464623Y-99604582D01*
X167369138Y-99425943D01*
X167369135Y-99425939D01*
X167240636Y-99269363D01*
X167084060Y-99140864D01*
X167084058Y-99140863D01*
X167084057Y-99140862D01*
X166905418Y-99045377D01*
X166773789Y-99005448D01*
X166711580Y-98986577D01*
X166510000Y-98966724D01*
X166308419Y-98986577D01*
X166114579Y-99045378D01*
X165935939Y-99140864D01*
X165779363Y-99269363D01*
X165650864Y-99425939D01*
X165555376Y-99604582D01*
X165525473Y-99703158D01*
X165487175Y-99761597D01*
X165423363Y-99790053D01*
X165354296Y-99779492D01*
X165301903Y-99733267D01*
X165287038Y-99699255D01*
X165243433Y-99536516D01*
X165243429Y-99536507D01*
X165143600Y-99322422D01*
X165143599Y-99322420D01*
X165008113Y-99128926D01*
X165008108Y-99128920D01*
X164841082Y-98961894D01*
X164647578Y-98826399D01*
X164433492Y-98726570D01*
X164433486Y-98726567D01*
X164220000Y-98669364D01*
X164220000Y-99564498D01*
X164112315Y-99515320D01*
X164005763Y-99500000D01*
X163934237Y-99500000D01*
X163827685Y-99515320D01*
X163720000Y-99564498D01*
X163720000Y-98669364D01*
X163719999Y-98669364D01*
X163506513Y-98726567D01*
X163506507Y-98726570D01*
X163292422Y-98826399D01*
X163292420Y-98826400D01*
X163098926Y-98961886D01*
X163098920Y-98961891D01*
X162931891Y-99128920D01*
X162931886Y-99128926D01*
X162796400Y-99322420D01*
X162796399Y-99322422D01*
X162696570Y-99536507D01*
X162696567Y-99536513D01*
X162652961Y-99699256D01*
X162616596Y-99758916D01*
X162553749Y-99789445D01*
X162484373Y-99781150D01*
X162430496Y-99736665D01*
X162414525Y-99703157D01*
X162404225Y-99669202D01*
X162384623Y-99604582D01*
X162289138Y-99425943D01*
X162289135Y-99425939D01*
X162160636Y-99269363D01*
X162004060Y-99140864D01*
X162004058Y-99140863D01*
X162004057Y-99140862D01*
X161825418Y-99045377D01*
X161693789Y-99005448D01*
X161631580Y-98986577D01*
X161430000Y-98966724D01*
X161228419Y-98986577D01*
X161034579Y-99045378D01*
X160855939Y-99140864D01*
X160699363Y-99269363D01*
X160570864Y-99425939D01*
X160475378Y-99604579D01*
X160416577Y-99798419D01*
X160396724Y-100000000D01*
X159940500Y-100000000D01*
X159940500Y-99130252D01*
X159940500Y-99130249D01*
X159940499Y-99130247D01*
X159928868Y-99071770D01*
X159928867Y-99071769D01*
X159884552Y-99005447D01*
X159818230Y-98961132D01*
X159818229Y-98961131D01*
X159759752Y-98949500D01*
X159759748Y-98949500D01*
X158020252Y-98949500D01*
X158020247Y-98949500D01*
X157961770Y-98961131D01*
X157961769Y-98961132D01*
X157895447Y-99005447D01*
X157851132Y-99071769D01*
X157851131Y-99071770D01*
X157839500Y-99130247D01*
X157839500Y-100869752D01*
X141706116Y-100869752D01*
X141856410Y-100746410D01*
X141987685Y-100586450D01*
X142085232Y-100403954D01*
X142145300Y-100205934D01*
X142165583Y-100000000D01*
X142145300Y-99794066D01*
X142085232Y-99596046D01*
X141987685Y-99413550D01*
X141876689Y-99278300D01*
X141856410Y-99253589D01*
X141706121Y-99130252D01*
X141696450Y-99122315D01*
X141513954Y-99024768D01*
X141315934Y-98964700D01*
X141315932Y-98964699D01*
X141315934Y-98964699D01*
X141110000Y-98944417D01*
X140904067Y-98964699D01*
X140706043Y-99024769D01*
X140618114Y-99071769D01*
X140523550Y-99122315D01*
X140523548Y-99122316D01*
X140523547Y-99122317D01*
X140363589Y-99253589D01*
X140232317Y-99413547D01*
X140232315Y-99413550D01*
X140213376Y-99448983D01*
X140134769Y-99596043D01*
X140074699Y-99794067D01*
X140054417Y-100000000D01*
X139603276Y-100000000D01*
X139583422Y-99798418D01*
X139524623Y-99604582D01*
X139429138Y-99425943D01*
X139429135Y-99425939D01*
X139300636Y-99269363D01*
X139144060Y-99140864D01*
X139144058Y-99140863D01*
X139144057Y-99140862D01*
X138965418Y-99045377D01*
X138833789Y-99005448D01*
X138771580Y-98986577D01*
X138570000Y-98966724D01*
X138368419Y-98986577D01*
X138174579Y-99045378D01*
X137995939Y-99140864D01*
X137839363Y-99269363D01*
X137710864Y-99425939D01*
X137615378Y-99604579D01*
X137556577Y-99798419D01*
X137536724Y-100000000D01*
X137063276Y-100000000D01*
X137043422Y-99798418D01*
X136984623Y-99604582D01*
X136889138Y-99425943D01*
X136889135Y-99425939D01*
X136760636Y-99269363D01*
X136604060Y-99140864D01*
X136604058Y-99140863D01*
X136604057Y-99140862D01*
X136425418Y-99045377D01*
X136293789Y-99005448D01*
X136231580Y-98986577D01*
X136030000Y-98966724D01*
X135828419Y-98986577D01*
X135634579Y-99045378D01*
X135455939Y-99140864D01*
X135299363Y-99269363D01*
X135170864Y-99425939D01*
X135075376Y-99604582D01*
X135045473Y-99703158D01*
X135007175Y-99761597D01*
X134943363Y-99790053D01*
X134874296Y-99779492D01*
X134821903Y-99733267D01*
X134807038Y-99699255D01*
X134763433Y-99536516D01*
X134763429Y-99536507D01*
X134663600Y-99322422D01*
X134663599Y-99322420D01*
X134528113Y-99128926D01*
X134528108Y-99128920D01*
X134361082Y-98961894D01*
X134167578Y-98826399D01*
X133953492Y-98726570D01*
X133953486Y-98726567D01*
X133740000Y-98669364D01*
X133740000Y-99564498D01*
X133632315Y-99515320D01*
X133525763Y-99500000D01*
X133454237Y-99500000D01*
X133347685Y-99515320D01*
X133240000Y-99564498D01*
X133240000Y-98669364D01*
X133239999Y-98669364D01*
X133026513Y-98726567D01*
X133026507Y-98726570D01*
X132812422Y-98826399D01*
X132812420Y-98826400D01*
X132618926Y-98961886D01*
X132618920Y-98961891D01*
X132451891Y-99128920D01*
X132451886Y-99128926D01*
X132316400Y-99322420D01*
X132316399Y-99322422D01*
X132216570Y-99536507D01*
X132216567Y-99536513D01*
X132172961Y-99699256D01*
X132136596Y-99758916D01*
X132073749Y-99789445D01*
X132004373Y-99781150D01*
X131950496Y-99736665D01*
X131934525Y-99703157D01*
X131924225Y-99669202D01*
X131904623Y-99604582D01*
X131809138Y-99425943D01*
X131809135Y-99425939D01*
X131680636Y-99269363D01*
X131524060Y-99140864D01*
X131524058Y-99140863D01*
X131524057Y-99140862D01*
X131345418Y-99045377D01*
X131213789Y-99005448D01*
X131151580Y-98986577D01*
X130950000Y-98966724D01*
X130748419Y-98986577D01*
X130554579Y-99045378D01*
X130375939Y-99140864D01*
X130219363Y-99269363D01*
X130090864Y-99425939D01*
X129995378Y-99604579D01*
X129936577Y-99798419D01*
X129916724Y-100000000D01*
X129460500Y-100000000D01*
X129460500Y-99130252D01*
X129460500Y-99130249D01*
X129460499Y-99130247D01*
X129448868Y-99071770D01*
X129448867Y-99071769D01*
X129404552Y-99005447D01*
X129338230Y-98961132D01*
X129338229Y-98961131D01*
X129279752Y-98949500D01*
X129279748Y-98949500D01*
X127540252Y-98949500D01*
X127540247Y-98949500D01*
X127481770Y-98961131D01*
X127481769Y-98961132D01*
X127415447Y-99005447D01*
X127371132Y-99071769D01*
X127371131Y-99071770D01*
X127359500Y-99130247D01*
X127359500Y-100869752D01*
X123503299Y-100869752D01*
X123503299Y-100598408D01*
X123500587Y-100569475D01*
X123457944Y-100447608D01*
X123381275Y-100343725D01*
X123277392Y-100267056D01*
X123277390Y-100267055D01*
X123155532Y-100224414D01*
X123155520Y-100224412D01*
X123126597Y-100221700D01*
X121773409Y-100221700D01*
X121744479Y-100224412D01*
X121744476Y-100224412D01*
X121744475Y-100224413D01*
X121622608Y-100267056D01*
X121622607Y-100267056D01*
X121622606Y-100267057D01*
X121518725Y-100343725D01*
X121442055Y-100447609D01*
X121399414Y-100569467D01*
X121399412Y-100569479D01*
X121396700Y-100598402D01*
X121396700Y-101401590D01*
X120000500Y-101401590D01*
X120000500Y-99000003D01*
X121391775Y-99000003D01*
X121411410Y-99174278D01*
X121469338Y-99339828D01*
X121469339Y-99339829D01*
X121562650Y-99488333D01*
X121686667Y-99612350D01*
X121835171Y-99705661D01*
X122000716Y-99763588D01*
X122000719Y-99763588D01*
X122000721Y-99763589D01*
X122088705Y-99773502D01*
X122131283Y-99778299D01*
X122131286Y-99778300D01*
X122131289Y-99778300D01*
X122768714Y-99778300D01*
X122768715Y-99778299D01*
X122833997Y-99770944D01*
X122899278Y-99763589D01*
X122899279Y-99763588D01*
X122899284Y-99763588D01*
X123064829Y-99705661D01*
X123213333Y-99612350D01*
X123337350Y-99488333D01*
X123430661Y-99339829D01*
X123488588Y-99174284D01*
X123492354Y-99140862D01*
X123508225Y-99000003D01*
X123508225Y-98999996D01*
X123488589Y-98825721D01*
X123488588Y-98825719D01*
X123488588Y-98825716D01*
X123430661Y-98660171D01*
X123337350Y-98511667D01*
X123213333Y-98387650D01*
X123064828Y-98294338D01*
X122899278Y-98236410D01*
X122768717Y-98221700D01*
X122768711Y-98221700D01*
X122131289Y-98221700D01*
X122131282Y-98221700D01*
X122000721Y-98236410D01*
X121835171Y-98294338D01*
X121686666Y-98387650D01*
X121562650Y-98511666D01*
X121469338Y-98660171D01*
X121411410Y-98825721D01*
X121391775Y-98999996D01*
X121391775Y-99000003D01*
X120000500Y-99000003D01*
X120000500Y-94750000D01*
X121099632Y-94750000D01*
X122170440Y-94750000D01*
X122131722Y-94792059D01*
X122081449Y-94906670D01*
X122071114Y-95031395D01*
X122101837Y-95152719D01*
X122165394Y-95250000D01*
X121103742Y-95250000D01*
X121130770Y-95361409D01*
X121218040Y-95552507D01*
X121339889Y-95723619D01*
X121339895Y-95723625D01*
X121491932Y-95868592D01*
X121668657Y-95982166D01*
X121855358Y-96056910D01*
X121910279Y-96100101D01*
X121933132Y-96166128D01*
X121916659Y-96234028D01*
X121866092Y-96282244D01*
X121850230Y-96289068D01*
X121835174Y-96294336D01*
X121686666Y-96387650D01*
X121562650Y-96511666D01*
X121469338Y-96660171D01*
X121411410Y-96825721D01*
X121391775Y-96999996D01*
X121391775Y-97000003D01*
X121411410Y-97174278D01*
X121469338Y-97339828D01*
X121469339Y-97339829D01*
X121562650Y-97488333D01*
X121686667Y-97612350D01*
X121835171Y-97705661D01*
X122000716Y-97763588D01*
X122000719Y-97763588D01*
X122000721Y-97763589D01*
X122088705Y-97773502D01*
X122131283Y-97778299D01*
X122131286Y-97778300D01*
X122131289Y-97778300D01*
X122768714Y-97778300D01*
X122768715Y-97778299D01*
X122833997Y-97770944D01*
X122899278Y-97763589D01*
X122899279Y-97763588D01*
X122899284Y-97763588D01*
X123064829Y-97705661D01*
X123213333Y-97612350D01*
X123337350Y-97488333D01*
X123430661Y-97339829D01*
X123488588Y-97174284D01*
X123488589Y-97174278D01*
X123508225Y-97000003D01*
X123508225Y-96999996D01*
X123488589Y-96825721D01*
X123488588Y-96825719D01*
X123488588Y-96825716D01*
X123430661Y-96660171D01*
X123337350Y-96511667D01*
X123325686Y-96500003D01*
X176291775Y-96500003D01*
X176311410Y-96674278D01*
X176369338Y-96839828D01*
X176369339Y-96839829D01*
X176462650Y-96988333D01*
X176586667Y-97112350D01*
X176735171Y-97205661D01*
X176900716Y-97263588D01*
X176900719Y-97263588D01*
X176900721Y-97263589D01*
X176988705Y-97273502D01*
X177031283Y-97278299D01*
X177031286Y-97278300D01*
X177031289Y-97278300D01*
X177668714Y-97278300D01*
X177668715Y-97278299D01*
X177733997Y-97270944D01*
X177799278Y-97263589D01*
X177799279Y-97263588D01*
X177799284Y-97263588D01*
X177964829Y-97205661D01*
X178113333Y-97112350D01*
X178237350Y-96988333D01*
X178330661Y-96839829D01*
X178388588Y-96674284D01*
X178390178Y-96660171D01*
X178408225Y-96500003D01*
X178408225Y-96499996D01*
X178388589Y-96325721D01*
X178388588Y-96325719D01*
X178388588Y-96325716D01*
X178330661Y-96160171D01*
X178237350Y-96011667D01*
X178113333Y-95887650D01*
X178083002Y-95868592D01*
X177964828Y-95794338D01*
X177799278Y-95736410D01*
X177668717Y-95721700D01*
X177668711Y-95721700D01*
X177031289Y-95721700D01*
X177031282Y-95721700D01*
X176900721Y-95736410D01*
X176735171Y-95794338D01*
X176586666Y-95887650D01*
X176462650Y-96011666D01*
X176369338Y-96160171D01*
X176311410Y-96325721D01*
X176291775Y-96499996D01*
X176291775Y-96500003D01*
X123325686Y-96500003D01*
X123213333Y-96387650D01*
X123064828Y-96294338D01*
X123043955Y-96287034D01*
X122987180Y-96246311D01*
X122961434Y-96181358D01*
X122974891Y-96112796D01*
X123023279Y-96062395D01*
X123049979Y-96051015D01*
X123135688Y-96025849D01*
X123322414Y-95929586D01*
X123487537Y-95799731D01*
X123487540Y-95799728D01*
X123625105Y-95640969D01*
X123625114Y-95640958D01*
X123730144Y-95459039D01*
X123730147Y-95459032D01*
X123798855Y-95260517D01*
X123798855Y-95260515D01*
X123800368Y-95250000D01*
X122729560Y-95250000D01*
X122768278Y-95207941D01*
X122818551Y-95093330D01*
X122828886Y-94968605D01*
X122811916Y-94901590D01*
X176296700Y-94901590D01*
X176299412Y-94930520D01*
X176299412Y-94930522D01*
X176299413Y-94930525D01*
X176342056Y-95052392D01*
X176418725Y-95156275D01*
X176522608Y-95232944D01*
X176559712Y-95245927D01*
X176644467Y-95275585D01*
X176644471Y-95275585D01*
X176644475Y-95275587D01*
X176673407Y-95278300D01*
X178026592Y-95278299D01*
X178055525Y-95275587D01*
X178177392Y-95232944D01*
X178281275Y-95156275D01*
X178357944Y-95052392D01*
X178400587Y-94930525D01*
X178403300Y-94901593D01*
X178403299Y-94098408D01*
X178400587Y-94069475D01*
X178357944Y-93947608D01*
X178281275Y-93843725D01*
X178177392Y-93767056D01*
X178177390Y-93767055D01*
X178055532Y-93724414D01*
X178055520Y-93724412D01*
X178026597Y-93721700D01*
X176673409Y-93721700D01*
X176644479Y-93724412D01*
X176644476Y-93724412D01*
X176644475Y-93724413D01*
X176522608Y-93767056D01*
X176522607Y-93767056D01*
X176522606Y-93767057D01*
X176418725Y-93843725D01*
X176342055Y-93947609D01*
X176299414Y-94069467D01*
X176299412Y-94069479D01*
X176296700Y-94098402D01*
X176296700Y-94901590D01*
X122811916Y-94901590D01*
X122798163Y-94847281D01*
X122734606Y-94750000D01*
X123796257Y-94750000D01*
X123769229Y-94638590D01*
X123681959Y-94447492D01*
X123560110Y-94276380D01*
X123560104Y-94276374D01*
X123408067Y-94131407D01*
X123231342Y-94017833D01*
X123036314Y-93939755D01*
X122830038Y-93900000D01*
X122700000Y-93900000D01*
X122700000Y-94719382D01*
X122630948Y-94665637D01*
X122512576Y-94625000D01*
X122418927Y-94625000D01*
X122326554Y-94640414D01*
X122216486Y-94699981D01*
X122200000Y-94717889D01*
X122200000Y-93900000D01*
X122122602Y-93900000D01*
X121965877Y-93914965D01*
X121965873Y-93914966D01*
X121764313Y-93974149D01*
X121577585Y-94070413D01*
X121412462Y-94200268D01*
X121412459Y-94200271D01*
X121274894Y-94359030D01*
X121274885Y-94359041D01*
X121169855Y-94540960D01*
X121169852Y-94540967D01*
X121101144Y-94739482D01*
X121101144Y-94739484D01*
X121099632Y-94750000D01*
X120000500Y-94750000D01*
X120000500Y-93000013D01*
X129494357Y-93000013D01*
X129514890Y-93247820D01*
X129514892Y-93247832D01*
X129575936Y-93488889D01*
X129675826Y-93716614D01*
X129811833Y-93924790D01*
X129811836Y-93924793D01*
X129980256Y-94107746D01*
X130176491Y-94260482D01*
X130395190Y-94378836D01*
X130630386Y-94459579D01*
X130875665Y-94500508D01*
X131124335Y-94500508D01*
X131369614Y-94459579D01*
X131604810Y-94378836D01*
X131823509Y-94260482D01*
X132019744Y-94107746D01*
X132188164Y-93924793D01*
X132324173Y-93716615D01*
X132424063Y-93488889D01*
X132485108Y-93247829D01*
X132485109Y-93247820D01*
X132505643Y-93000013D01*
X132505643Y-93000002D01*
X132485109Y-92752195D01*
X132485107Y-92752183D01*
X132424063Y-92511126D01*
X132324173Y-92283401D01*
X132188166Y-92075225D01*
X132118915Y-91999999D01*
X132019744Y-91892270D01*
X132019739Y-91892266D01*
X132019737Y-91892264D01*
X131865674Y-91772352D01*
X131824861Y-91715642D01*
X131821186Y-91645869D01*
X131855818Y-91585186D01*
X131917759Y-91552859D01*
X131941836Y-91550499D01*
X132904258Y-91550499D01*
X132904264Y-91550499D01*
X132934698Y-91547646D01*
X133062882Y-91502793D01*
X133172150Y-91422150D01*
X133252793Y-91312882D01*
X133297646Y-91184698D01*
X133300500Y-91154265D01*
X133300499Y-90000000D01*
X134154706Y-90000000D01*
X134173853Y-90243297D01*
X134173853Y-90243300D01*
X134173854Y-90243302D01*
X134176459Y-90254154D01*
X134230830Y-90480619D01*
X134324222Y-90706089D01*
X134451737Y-90914173D01*
X134451738Y-90914176D01*
X134491398Y-90960612D01*
X134610241Y-91099759D01*
X134753897Y-91222453D01*
X134795823Y-91258261D01*
X134795826Y-91258262D01*
X134814622Y-91269781D01*
X134861497Y-91321593D01*
X134872920Y-91390523D01*
X134845262Y-91454685D01*
X134787307Y-91493710D01*
X134749832Y-91499508D01*
X134680247Y-91499508D01*
X134621770Y-91511139D01*
X134621769Y-91511140D01*
X134555447Y-91555455D01*
X134511132Y-91621777D01*
X134511131Y-91621778D01*
X134499500Y-91680255D01*
X134499500Y-94319760D01*
X134511131Y-94378237D01*
X134511132Y-94378238D01*
X134555447Y-94444560D01*
X134621769Y-94488875D01*
X134621770Y-94488876D01*
X134680247Y-94500507D01*
X134680250Y-94500508D01*
X134680252Y-94500508D01*
X137319750Y-94500508D01*
X137319751Y-94500507D01*
X137334568Y-94497560D01*
X137378229Y-94488876D01*
X137378229Y-94488875D01*
X137378231Y-94488875D01*
X137444552Y-94444560D01*
X137488867Y-94378239D01*
X137488867Y-94378237D01*
X137488868Y-94378237D01*
X137500499Y-94319760D01*
X137500500Y-94319758D01*
X137500500Y-91680257D01*
X137500499Y-91680255D01*
X137488868Y-91621778D01*
X137488867Y-91621777D01*
X137444552Y-91555455D01*
X137378230Y-91511140D01*
X137378229Y-91511139D01*
X137319752Y-91499508D01*
X137319748Y-91499508D01*
X136670168Y-91499508D01*
X136603129Y-91479823D01*
X136557374Y-91427019D01*
X136547430Y-91357861D01*
X136576455Y-91294305D01*
X136605378Y-91269781D01*
X136614978Y-91263896D01*
X136624179Y-91258259D01*
X136809759Y-91099759D01*
X136968259Y-90914179D01*
X137095777Y-90706089D01*
X137189172Y-90480612D01*
X137246146Y-90243302D01*
X137265294Y-90000004D01*
X145794732Y-90000004D01*
X145813777Y-90254154D01*
X145865466Y-90480619D01*
X145870492Y-90502637D01*
X145963607Y-90739888D01*
X146091041Y-90960612D01*
X146249950Y-91159877D01*
X146436783Y-91333232D01*
X146647366Y-91476805D01*
X146647371Y-91476807D01*
X146647372Y-91476808D01*
X146647373Y-91476809D01*
X146701029Y-91502648D01*
X146752889Y-91549470D01*
X146771202Y-91616897D01*
X146750154Y-91683521D01*
X146706247Y-91723422D01*
X146676496Y-91739522D01*
X146676494Y-91739523D01*
X146480257Y-91892261D01*
X146311833Y-92075217D01*
X146175826Y-92283393D01*
X146075936Y-92511118D01*
X146014892Y-92752175D01*
X146014890Y-92752187D01*
X145994357Y-92999994D01*
X145994357Y-93000005D01*
X146014890Y-93247812D01*
X146014892Y-93247824D01*
X146075936Y-93488881D01*
X146175826Y-93716606D01*
X146311833Y-93924782D01*
X146311843Y-93924793D01*
X146480256Y-94107738D01*
X146676491Y-94260474D01*
X146676493Y-94260475D01*
X146894101Y-94378239D01*
X146895190Y-94378828D01*
X147130386Y-94459571D01*
X147375665Y-94500500D01*
X147624335Y-94500500D01*
X147869614Y-94459571D01*
X148104810Y-94378828D01*
X148323509Y-94260474D01*
X148519744Y-94107738D01*
X148688164Y-93924785D01*
X148824173Y-93716607D01*
X148924063Y-93488881D01*
X148985108Y-93247821D01*
X149005642Y-93000013D01*
X149005643Y-93000005D01*
X162494357Y-93000005D01*
X162514890Y-93247812D01*
X162514892Y-93247824D01*
X162575936Y-93488881D01*
X162675826Y-93716606D01*
X162811833Y-93924782D01*
X162811843Y-93924793D01*
X162980256Y-94107738D01*
X163176491Y-94260474D01*
X163176493Y-94260475D01*
X163394101Y-94378239D01*
X163395190Y-94378828D01*
X163630386Y-94459571D01*
X163875665Y-94500500D01*
X164124335Y-94500500D01*
X164369614Y-94459571D01*
X164604810Y-94378828D01*
X164823509Y-94260474D01*
X165019744Y-94107738D01*
X165188164Y-93924785D01*
X165324173Y-93716607D01*
X165424063Y-93488881D01*
X165485108Y-93247821D01*
X165505642Y-93000013D01*
X165505643Y-93000005D01*
X165505643Y-92999994D01*
X165485109Y-92752187D01*
X165485107Y-92752175D01*
X165424063Y-92511118D01*
X165324173Y-92283393D01*
X165188166Y-92075217D01*
X165166557Y-92051744D01*
X165019744Y-91892262D01*
X164865682Y-91772351D01*
X164824871Y-91715642D01*
X164821196Y-91645869D01*
X164855827Y-91585186D01*
X164917769Y-91552859D01*
X164941846Y-91550499D01*
X165654258Y-91550499D01*
X165654264Y-91550499D01*
X165684698Y-91547646D01*
X165812882Y-91502793D01*
X165922150Y-91422150D01*
X166002793Y-91312882D01*
X166047646Y-91184698D01*
X166050500Y-91154265D01*
X166050499Y-90000000D01*
X166904706Y-90000000D01*
X166923853Y-90243297D01*
X166923853Y-90243300D01*
X166923854Y-90243302D01*
X166926459Y-90254154D01*
X166980830Y-90480619D01*
X167074222Y-90706089D01*
X167201737Y-90914173D01*
X167201738Y-90914176D01*
X167241398Y-90960612D01*
X167360241Y-91099759D01*
X167503897Y-91222453D01*
X167545823Y-91258261D01*
X167545826Y-91258262D01*
X167617680Y-91302295D01*
X167664555Y-91354107D01*
X167675978Y-91423036D01*
X167648321Y-91487199D01*
X167621782Y-91511123D01*
X167555448Y-91555446D01*
X167511132Y-91621769D01*
X167511131Y-91621770D01*
X167499500Y-91680247D01*
X167499500Y-94319752D01*
X167511131Y-94378229D01*
X167511132Y-94378230D01*
X167555447Y-94444552D01*
X167621769Y-94488867D01*
X167621770Y-94488868D01*
X167680247Y-94500499D01*
X167680250Y-94500500D01*
X167680252Y-94500500D01*
X170319750Y-94500500D01*
X170319751Y-94500499D01*
X170334568Y-94497552D01*
X170378229Y-94488868D01*
X170378229Y-94488867D01*
X170378231Y-94488867D01*
X170444552Y-94444552D01*
X170488867Y-94378231D01*
X170488867Y-94378229D01*
X170488868Y-94378229D01*
X170497552Y-94334568D01*
X170500500Y-94319748D01*
X170500500Y-91680252D01*
X170500500Y-91680249D01*
X170500499Y-91680247D01*
X170488868Y-91621770D01*
X170488867Y-91621769D01*
X170444552Y-91555447D01*
X170378230Y-91511132D01*
X170378229Y-91511131D01*
X170319752Y-91499500D01*
X170319748Y-91499500D01*
X169420181Y-91499500D01*
X169353142Y-91479815D01*
X169307387Y-91427011D01*
X169297443Y-91357853D01*
X169326468Y-91294297D01*
X169355391Y-91269773D01*
X169364756Y-91264033D01*
X169374179Y-91258259D01*
X169559759Y-91099759D01*
X169718259Y-90914179D01*
X169845777Y-90706089D01*
X169939172Y-90480612D01*
X169996146Y-90243302D01*
X170015294Y-90000000D01*
X169996146Y-89756698D01*
X169939172Y-89519388D01*
X169939169Y-89519380D01*
X169845777Y-89293910D01*
X169718262Y-89085826D01*
X169718261Y-89085823D01*
X169678602Y-89039388D01*
X169559759Y-88900241D01*
X169437063Y-88795449D01*
X169374176Y-88741738D01*
X169374173Y-88741737D01*
X169166089Y-88614222D01*
X168940618Y-88520830D01*
X168940621Y-88520830D01*
X168834992Y-88495470D01*
X168703302Y-88463854D01*
X168703300Y-88463853D01*
X168703297Y-88463853D01*
X168460000Y-88444706D01*
X168216702Y-88463853D01*
X168216698Y-88463854D01*
X168066142Y-88500000D01*
X167979380Y-88520830D01*
X167753910Y-88614222D01*
X167545826Y-88741737D01*
X167545823Y-88741738D01*
X167360241Y-88900241D01*
X167201738Y-89085823D01*
X167201737Y-89085826D01*
X167074222Y-89293910D01*
X166980830Y-89519380D01*
X166923853Y-89756702D01*
X166904706Y-90000000D01*
X166050499Y-90000000D01*
X166050499Y-88845736D01*
X166047646Y-88815302D01*
X166002793Y-88687118D01*
X165922150Y-88577850D01*
X165841506Y-88518332D01*
X165812881Y-88497206D01*
X165684695Y-88452353D01*
X165684698Y-88452353D01*
X165654268Y-88449500D01*
X163345741Y-88449500D01*
X163315301Y-88452354D01*
X163315300Y-88452354D01*
X163187118Y-88497206D01*
X163077850Y-88577850D01*
X162997206Y-88687118D01*
X162952353Y-88815302D01*
X162949500Y-88845731D01*
X162949500Y-91154258D01*
X162952354Y-91184698D01*
X162952354Y-91184699D01*
X162997206Y-91312881D01*
X162997207Y-91312882D01*
X163077850Y-91422150D01*
X163151911Y-91476809D01*
X163187118Y-91502793D01*
X163195337Y-91507137D01*
X163193968Y-91509725D01*
X163238397Y-91541583D01*
X163264152Y-91606533D01*
X163250703Y-91675096D01*
X163202322Y-91725504D01*
X163199696Y-91726967D01*
X163176496Y-91739522D01*
X163176494Y-91739523D01*
X162980257Y-91892261D01*
X162811833Y-92075217D01*
X162675826Y-92283393D01*
X162575936Y-92511118D01*
X162514892Y-92752175D01*
X162514890Y-92752187D01*
X162494357Y-92999994D01*
X162494357Y-93000005D01*
X149005643Y-93000005D01*
X149005643Y-92999994D01*
X148985109Y-92752187D01*
X148985107Y-92752175D01*
X148924063Y-92511118D01*
X148824173Y-92283393D01*
X148688166Y-92075217D01*
X148666557Y-92051744D01*
X148519744Y-91892262D01*
X148323509Y-91739526D01*
X148323507Y-91739525D01*
X148323506Y-91739524D01*
X148300302Y-91726967D01*
X148293752Y-91723422D01*
X148244163Y-91674203D01*
X148229055Y-91605986D01*
X148250493Y-91547844D01*
X150500000Y-91547844D01*
X150506401Y-91607372D01*
X150506403Y-91607379D01*
X150556645Y-91742086D01*
X150556649Y-91742093D01*
X150642809Y-91857187D01*
X150642812Y-91857190D01*
X150757906Y-91943350D01*
X150757913Y-91943354D01*
X150892620Y-91993596D01*
X150892627Y-91993598D01*
X150952155Y-91999999D01*
X150952172Y-92000000D01*
X152250000Y-92000000D01*
X152250000Y-90865085D01*
X152311849Y-90885182D01*
X152452836Y-90900000D01*
X152547164Y-90900000D01*
X152688151Y-90885182D01*
X152750000Y-90865085D01*
X152750000Y-92000000D01*
X154047828Y-92000000D01*
X154047844Y-91999999D01*
X154107372Y-91993598D01*
X154107379Y-91993596D01*
X154242086Y-91943354D01*
X154242093Y-91943350D01*
X154357187Y-91857190D01*
X154357190Y-91857187D01*
X154443350Y-91742093D01*
X154443354Y-91742086D01*
X154493596Y-91607379D01*
X154493598Y-91607372D01*
X154499999Y-91547844D01*
X154500000Y-91547827D01*
X154500000Y-90250000D01*
X153366967Y-90250000D01*
X153400000Y-90094594D01*
X153400000Y-89905406D01*
X153366967Y-89750000D01*
X154500000Y-89750000D01*
X154500000Y-88452172D01*
X154499999Y-88452155D01*
X154493598Y-88392627D01*
X154493596Y-88392620D01*
X154443354Y-88257913D01*
X154443350Y-88257906D01*
X154357190Y-88142812D01*
X154357187Y-88142809D01*
X154242093Y-88056649D01*
X154242086Y-88056645D01*
X154107379Y-88006403D01*
X154107372Y-88006401D01*
X154047844Y-88000000D01*
X152750000Y-88000000D01*
X152750000Y-89134914D01*
X152688151Y-89114818D01*
X152547164Y-89100000D01*
X152452836Y-89100000D01*
X152311849Y-89114818D01*
X152250000Y-89134914D01*
X152250000Y-88000000D01*
X150952155Y-88000000D01*
X150892627Y-88006401D01*
X150892620Y-88006403D01*
X150757913Y-88056645D01*
X150757906Y-88056649D01*
X150642812Y-88142809D01*
X150642809Y-88142812D01*
X150556649Y-88257906D01*
X150556645Y-88257913D01*
X150506403Y-88392620D01*
X150506401Y-88392627D01*
X150500000Y-88452155D01*
X150500000Y-89750000D01*
X151633033Y-89750000D01*
X151600000Y-89905406D01*
X151600000Y-90094594D01*
X151633033Y-90250000D01*
X150500000Y-90250000D01*
X150500000Y-91547844D01*
X148250493Y-91547844D01*
X148253226Y-91540431D01*
X148298966Y-91502649D01*
X148352634Y-91476805D01*
X148563217Y-91333232D01*
X148750050Y-91159877D01*
X148908959Y-90960612D01*
X149036393Y-90739888D01*
X149129508Y-90502637D01*
X149186222Y-90254157D01*
X149205268Y-90000000D01*
X149198179Y-89905406D01*
X149187035Y-89756698D01*
X149186222Y-89745843D01*
X149129508Y-89497363D01*
X149036393Y-89260112D01*
X148908959Y-89039388D01*
X148750050Y-88840123D01*
X148563217Y-88666768D01*
X148352634Y-88523195D01*
X148352630Y-88523193D01*
X148352627Y-88523191D01*
X148352626Y-88523190D01*
X148123006Y-88412612D01*
X148123008Y-88412612D01*
X147879466Y-88337489D01*
X147879462Y-88337488D01*
X147879458Y-88337487D01*
X147758231Y-88319214D01*
X147627440Y-88299500D01*
X147627435Y-88299500D01*
X147372565Y-88299500D01*
X147372559Y-88299500D01*
X147215609Y-88323157D01*
X147120542Y-88337487D01*
X147120539Y-88337488D01*
X147120533Y-88337489D01*
X146876992Y-88412612D01*
X146647373Y-88523190D01*
X146647372Y-88523191D01*
X146436782Y-88666768D01*
X146249952Y-88840121D01*
X146249950Y-88840123D01*
X146091041Y-89039388D01*
X145963608Y-89260109D01*
X145870492Y-89497362D01*
X145870490Y-89497369D01*
X145813777Y-89745845D01*
X145794732Y-89999995D01*
X145794732Y-90000004D01*
X137265294Y-90000004D01*
X137265294Y-90000000D01*
X137246146Y-89756698D01*
X137189172Y-89519388D01*
X137189169Y-89519380D01*
X137095777Y-89293910D01*
X136968262Y-89085826D01*
X136968261Y-89085823D01*
X136928602Y-89039388D01*
X136809759Y-88900241D01*
X136687063Y-88795449D01*
X136624176Y-88741738D01*
X136624173Y-88741737D01*
X136416089Y-88614222D01*
X136190618Y-88520830D01*
X136190621Y-88520830D01*
X136084992Y-88495470D01*
X135953302Y-88463854D01*
X135953300Y-88463853D01*
X135953297Y-88463853D01*
X135710000Y-88444706D01*
X135466702Y-88463853D01*
X135466698Y-88463854D01*
X135316142Y-88500000D01*
X135229380Y-88520830D01*
X135003910Y-88614222D01*
X134795826Y-88741737D01*
X134795823Y-88741738D01*
X134610241Y-88900241D01*
X134451738Y-89085823D01*
X134451737Y-89085826D01*
X134324222Y-89293910D01*
X134230830Y-89519380D01*
X134173853Y-89756702D01*
X134154706Y-90000000D01*
X133300499Y-90000000D01*
X133300499Y-88845736D01*
X133297646Y-88815302D01*
X133252793Y-88687118D01*
X133172150Y-88577850D01*
X133091506Y-88518332D01*
X133062881Y-88497206D01*
X132934695Y-88452353D01*
X132934698Y-88452353D01*
X132904268Y-88449500D01*
X130595741Y-88449500D01*
X130565301Y-88452354D01*
X130565300Y-88452354D01*
X130437118Y-88497206D01*
X130327850Y-88577850D01*
X130247206Y-88687118D01*
X130202353Y-88815302D01*
X130199500Y-88845731D01*
X130199500Y-91154258D01*
X130202354Y-91184698D01*
X130202354Y-91184699D01*
X130247206Y-91312881D01*
X130247207Y-91312882D01*
X130327850Y-91422150D01*
X130354865Y-91442088D01*
X130397115Y-91497733D01*
X130402574Y-91567389D01*
X130369507Y-91628939D01*
X130340249Y-91650911D01*
X130176500Y-91739527D01*
X130176494Y-91739531D01*
X129980257Y-91892269D01*
X129811833Y-92075225D01*
X129675826Y-92283401D01*
X129575936Y-92511126D01*
X129514892Y-92752183D01*
X129514890Y-92752195D01*
X129494357Y-93000002D01*
X129494357Y-93000013D01*
X120000500Y-93000013D01*
X120000500Y-88501528D01*
X120000575Y-88498486D01*
X120004793Y-88412611D01*
X120007995Y-88347421D01*
X120018164Y-88153388D01*
X120018744Y-88147594D01*
X120043858Y-87978287D01*
X120071717Y-87802396D01*
X120072801Y-87797083D01*
X120115210Y-87627776D01*
X120160529Y-87458644D01*
X120162013Y-87453891D01*
X120221338Y-87288089D01*
X120283668Y-87125717D01*
X120285492Y-87121455D01*
X120361145Y-86961499D01*
X120439877Y-86806982D01*
X120441915Y-86803299D01*
X120533192Y-86651013D01*
X120627560Y-86505701D01*
X120629724Y-86502586D01*
X120735718Y-86359670D01*
X120844785Y-86224983D01*
X120846970Y-86222434D01*
X120965703Y-86091433D01*
X120967717Y-86089318D01*
X121089318Y-85967717D01*
X121091433Y-85965703D01*
X121222434Y-85846970D01*
X121224983Y-85844785D01*
X121359656Y-85735728D01*
X121502586Y-85629724D01*
X121505701Y-85627560D01*
X121651013Y-85533192D01*
X121803299Y-85441915D01*
X121806982Y-85439877D01*
X121961499Y-85361145D01*
X122121462Y-85285488D01*
X122125717Y-85283668D01*
X122288089Y-85221338D01*
X122453891Y-85162013D01*
X122458644Y-85160529D01*
X122627776Y-85115210D01*
X122797083Y-85072801D01*
X122802396Y-85071717D01*
X122978287Y-85043858D01*
X123147594Y-85018744D01*
X123153388Y-85018164D01*
X123347421Y-85007995D01*
X123445332Y-85003185D01*
X123498487Y-85000575D01*
X123501529Y-85000500D01*
X176498471Y-85000500D01*
X176501513Y-85000575D01*
G37*
%TD.AperFunction*%
%TD*%
M02*
