%TF.GenerationSoftware,KiCad,Pcbnew,7.0.8*%
%TF.CreationDate,2024-07-02T17:24:08-04:00*%
%TF.ProjectId,motor-driver,6d6f746f-722d-4647-9269-7665722e6b69,rev?*%
%TF.SameCoordinates,Original*%
%TF.FileFunction,Soldermask,Bot*%
%TF.FilePolarity,Negative*%
%FSLAX46Y46*%
G04 Gerber Fmt 4.6, Leading zero omitted, Abs format (unit mm)*
G04 Created by KiCad (PCBNEW 7.0.8) date 2024-07-02 17:24:08*
%MOMM*%
%LPD*%
G01*
G04 APERTURE LIST*
G04 Aperture macros list*
%AMRoundRect*
0 Rectangle with rounded corners*
0 $1 Rounding radius*
0 $2 $3 $4 $5 $6 $7 $8 $9 X,Y pos of 4 corners*
0 Add a 4 corners polygon primitive as box body*
4,1,4,$2,$3,$4,$5,$6,$7,$8,$9,$2,$3,0*
0 Add four circle primitives for the rounded corners*
1,1,$1+$1,$2,$3*
1,1,$1+$1,$4,$5*
1,1,$1+$1,$6,$7*
1,1,$1+$1,$8,$9*
0 Add four rect primitives between the rounded corners*
20,1,$1+$1,$2,$3,$4,$5,0*
20,1,$1+$1,$4,$5,$6,$7,0*
20,1,$1+$1,$6,$7,$8,$9,0*
20,1,$1+$1,$8,$9,$2,$3,0*%
%AMFreePoly0*
4,1,6,1.000000,0.000000,0.500000,-0.750000,-0.500000,-0.750000,-0.500000,0.750000,0.500000,0.750000,1.000000,0.000000,1.000000,0.000000,$1*%
%AMFreePoly1*
4,1,6,0.500000,-0.750000,-0.650000,-0.750000,-0.150000,0.000000,-0.650000,0.750000,0.500000,0.750000,0.500000,-0.750000,0.500000,-0.750000,$1*%
G04 Aperture macros list end*
%ADD10RoundRect,0.250000X-0.625000X0.350000X-0.625000X-0.350000X0.625000X-0.350000X0.625000X0.350000X0*%
%ADD11O,1.750000X1.200000*%
%ADD12C,0.800000*%
%ADD13C,6.400000*%
%ADD14RoundRect,0.250000X-0.350000X-0.625000X0.350000X-0.625000X0.350000X0.625000X-0.350000X0.625000X0*%
%ADD15O,1.200000X1.750000*%
%ADD16R,3.000000X3.000000*%
%ADD17C,3.000000*%
%ADD18R,1.700000X1.700000*%
%ADD19O,1.700000X1.700000*%
%ADD20RoundRect,0.250001X-1.099999X-1.099999X1.099999X-1.099999X1.099999X1.099999X-1.099999X1.099999X0*%
%ADD21C,2.700000*%
%ADD22O,0.890000X1.550000*%
%ADD23O,1.250000X0.950000*%
%ADD24R,2.600000X2.600000*%
%ADD25C,2.600000*%
%ADD26R,1.600000X1.600000*%
%ADD27C,1.600000*%
%ADD28RoundRect,0.250000X0.625000X-0.350000X0.625000X0.350000X-0.625000X0.350000X-0.625000X-0.350000X0*%
%ADD29FreePoly0,90.000000*%
%ADD30FreePoly1,90.000000*%
G04 APERTURE END LIST*
D10*
%TO.C,J9*%
X177350000Y-94500000D03*
D11*
X177350000Y-96500000D03*
X177350000Y-98500000D03*
X177350000Y-100500000D03*
%TD*%
D12*
%TO.C,REF\u002A\u002A*%
X174100000Y-131500000D03*
X174802944Y-129802944D03*
X174802944Y-133197056D03*
X176500000Y-129100000D03*
D13*
X176500000Y-131500000D03*
X176500000Y-131500000D03*
D12*
X176500000Y-133900000D03*
X178197056Y-129802944D03*
X178197056Y-133197056D03*
X178900000Y-131500000D03*
%TD*%
D14*
%TO.C,J6*%
X163500000Y-131500000D03*
D15*
X165500000Y-131500000D03*
X167500000Y-131500000D03*
X169500000Y-131500000D03*
%TD*%
D16*
%TO.C,J12*%
X152500000Y-90000000D03*
D17*
X147500000Y-90000000D03*
%TD*%
D12*
%TO.C,REF\u002A\u002A*%
X174100000Y-88500000D03*
X174802944Y-86802944D03*
X174802944Y-90197056D03*
X176500000Y-86100000D03*
D13*
X176500000Y-88500000D03*
X176500000Y-88500000D03*
D12*
X176500000Y-90900000D03*
X178197056Y-86802944D03*
X178197056Y-90197056D03*
X178900000Y-88500000D03*
%TD*%
D18*
%TO.C,J4*%
X128410000Y-100000000D03*
D19*
X130950000Y-100000000D03*
X133490000Y-100000000D03*
X136030000Y-100000000D03*
X138570000Y-100000000D03*
X141110000Y-100000000D03*
%TD*%
D18*
%TO.C,J5*%
X158890000Y-100000000D03*
D19*
X161430000Y-100000000D03*
X163970000Y-100000000D03*
X166510000Y-100000000D03*
X169050000Y-100000000D03*
X171590000Y-100000000D03*
%TD*%
D20*
%TO.C,J11*%
X164500000Y-90000000D03*
D21*
X168460000Y-90000000D03*
%TD*%
D22*
%TO.C,J14*%
X146500000Y-133633000D03*
D23*
X147500000Y-130933000D03*
X152500000Y-130933000D03*
D22*
X153500000Y-133633000D03*
%TD*%
D12*
%TO.C,REF\u002A\u002A*%
X121100000Y-131500000D03*
X121802944Y-129802944D03*
X121802944Y-133197056D03*
X123500000Y-129100000D03*
D13*
X123500000Y-131500000D03*
X123500000Y-131500000D03*
D12*
X123500000Y-133900000D03*
X125197056Y-129802944D03*
X125197056Y-133197056D03*
X125900000Y-131500000D03*
%TD*%
D24*
%TO.C,J3*%
X152500000Y-93000000D03*
D25*
X147500000Y-93000000D03*
%TD*%
D18*
%TO.C,J13*%
X157475000Y-133400000D03*
%TD*%
D24*
%TO.C,J2*%
X169000000Y-93000000D03*
D25*
X164000000Y-93000000D03*
%TD*%
D20*
%TO.C,J10*%
X131750000Y-90000000D03*
D21*
X135710000Y-90000000D03*
%TD*%
D12*
%TO.C,REF\u002A\u002A*%
X121100000Y-88500000D03*
X121802944Y-86802944D03*
X121802944Y-90197056D03*
X123500000Y-86100000D03*
D13*
X123500000Y-88500000D03*
X123500000Y-88500000D03*
D12*
X123500000Y-90900000D03*
X125197056Y-86802944D03*
X125197056Y-90197056D03*
X125900000Y-88500000D03*
%TD*%
D24*
%TO.C,J1*%
X136000000Y-93000008D03*
D25*
X131000000Y-93000008D03*
%TD*%
D26*
%TO.C,C1*%
X153800000Y-106652651D03*
D27*
X153800000Y-103152651D03*
%TD*%
D14*
%TO.C,J7*%
X130500000Y-131500000D03*
D15*
X132500000Y-131500000D03*
X134500000Y-131500000D03*
X136500000Y-131500000D03*
%TD*%
D28*
%TO.C,J8*%
X122450000Y-101000000D03*
D11*
X122450000Y-99000000D03*
X122450000Y-97000000D03*
X122450000Y-95000000D03*
%TD*%
D29*
%TO.C,JP1*%
X134500000Y-129025000D03*
D30*
X134500000Y-127575000D03*
%TD*%
D29*
%TO.C,JP4*%
X142500000Y-122825000D03*
D30*
X142500000Y-121375000D03*
%TD*%
D29*
%TO.C,JP2*%
X167500000Y-129225000D03*
D30*
X167500000Y-127775000D03*
%TD*%
D29*
%TO.C,JP3*%
X139600000Y-122825000D03*
D30*
X139600000Y-121375000D03*
%TD*%
M02*
