%TF.GenerationSoftware,KiCad,Pcbnew,7.0.8*%
%TF.CreationDate,2024-07-02T10:47:19-04:00*%
%TF.ProjectId,motor-driver,6d6f746f-722d-4647-9269-7665722e6b69,rev?*%
%TF.SameCoordinates,Original*%
%TF.FileFunction,Soldermask,Top*%
%TF.FilePolarity,Negative*%
%FSLAX46Y46*%
G04 Gerber Fmt 4.6, Leading zero omitted, Abs format (unit mm)*
G04 Created by KiCad (PCBNEW 7.0.8) date 2024-07-02 10:47:19*
%MOMM*%
%LPD*%
G01*
G04 APERTURE LIST*
G04 Aperture macros list*
%AMRoundRect*
0 Rectangle with rounded corners*
0 $1 Rounding radius*
0 $2 $3 $4 $5 $6 $7 $8 $9 X,Y pos of 4 corners*
0 Add a 4 corners polygon primitive as box body*
4,1,4,$2,$3,$4,$5,$6,$7,$8,$9,$2,$3,0*
0 Add four circle primitives for the rounded corners*
1,1,$1+$1,$2,$3*
1,1,$1+$1,$4,$5*
1,1,$1+$1,$6,$7*
1,1,$1+$1,$8,$9*
0 Add four rect primitives between the rounded corners*
20,1,$1+$1,$2,$3,$4,$5,0*
20,1,$1+$1,$4,$5,$6,$7,0*
20,1,$1+$1,$6,$7,$8,$9,0*
20,1,$1+$1,$8,$9,$2,$3,0*%
G04 Aperture macros list end*
%ADD10RoundRect,0.140000X-0.170000X0.140000X-0.170000X-0.140000X0.170000X-0.140000X0.170000X0.140000X0*%
%ADD11RoundRect,0.140000X-0.140000X-0.170000X0.140000X-0.170000X0.140000X0.170000X-0.140000X0.170000X0*%
%ADD12R,2.460000X3.550000*%
%ADD13RoundRect,0.097500X0.690000X0.097500X-0.690000X0.097500X-0.690000X-0.097500X0.690000X-0.097500X0*%
%ADD14RoundRect,0.250000X-0.625000X0.350000X-0.625000X-0.350000X0.625000X-0.350000X0.625000X0.350000X0*%
%ADD15O,1.750000X1.200000*%
%ADD16RoundRect,0.140000X0.170000X-0.140000X0.170000X0.140000X-0.170000X0.140000X-0.170000X-0.140000X0*%
%ADD17C,0.800000*%
%ADD18C,6.400000*%
%ADD19RoundRect,0.250000X0.250000X0.475000X-0.250000X0.475000X-0.250000X-0.475000X0.250000X-0.475000X0*%
%ADD20RoundRect,0.135000X0.185000X-0.135000X0.185000X0.135000X-0.185000X0.135000X-0.185000X-0.135000X0*%
%ADD21RoundRect,0.250000X-0.350000X-0.625000X0.350000X-0.625000X0.350000X0.625000X-0.350000X0.625000X0*%
%ADD22O,1.200000X1.750000*%
%ADD23RoundRect,0.150000X0.650000X0.150000X-0.650000X0.150000X-0.650000X-0.150000X0.650000X-0.150000X0*%
%ADD24R,1.200000X1.400000*%
%ADD25RoundRect,0.150000X-0.150000X0.512500X-0.150000X-0.512500X0.150000X-0.512500X0.150000X0.512500X0*%
%ADD26R,1.050000X0.650000*%
%ADD27RoundRect,0.140000X0.140000X0.170000X-0.140000X0.170000X-0.140000X-0.170000X0.140000X-0.170000X0*%
%ADD28RoundRect,0.135000X-0.135000X-0.185000X0.135000X-0.185000X0.135000X0.185000X-0.135000X0.185000X0*%
%ADD29R,3.000000X3.000000*%
%ADD30C,3.000000*%
%ADD31R,1.700000X1.700000*%
%ADD32O,1.700000X1.700000*%
%ADD33RoundRect,0.135000X0.135000X0.185000X-0.135000X0.185000X-0.135000X-0.185000X0.135000X-0.185000X0*%
%ADD34RoundRect,0.243750X0.456250X-0.243750X0.456250X0.243750X-0.456250X0.243750X-0.456250X-0.243750X0*%
%ADD35RoundRect,0.250001X-1.099999X-1.099999X1.099999X-1.099999X1.099999X1.099999X-1.099999X1.099999X0*%
%ADD36C,2.700000*%
%ADD37R,0.400000X1.350000*%
%ADD38O,0.890000X1.550000*%
%ADD39R,1.200000X1.550000*%
%ADD40O,1.250000X0.950000*%
%ADD41R,1.500000X1.550000*%
%ADD42R,2.600000X2.600000*%
%ADD43C,2.600000*%
%ADD44RoundRect,0.135000X-0.185000X0.135000X-0.185000X-0.135000X0.185000X-0.135000X0.185000X0.135000X0*%
%ADD45RoundRect,0.150000X0.150000X-0.512500X0.150000X0.512500X-0.150000X0.512500X-0.150000X-0.512500X0*%
%ADD46R,1.100000X1.100000*%
%ADD47RoundRect,0.150000X-0.512500X-0.150000X0.512500X-0.150000X0.512500X0.150000X-0.512500X0.150000X0*%
%ADD48R,1.200000X3.700000*%
%ADD49RoundRect,0.250000X-0.325000X-0.650000X0.325000X-0.650000X0.325000X0.650000X-0.325000X0.650000X0*%
%ADD50R,1.600000X0.850000*%
%ADD51R,0.900000X1.200000*%
%ADD52RoundRect,0.150000X0.150000X-0.825000X0.150000X0.825000X-0.150000X0.825000X-0.150000X-0.825000X0*%
%ADD53R,1.200000X0.900000*%
%ADD54R,1.600000X1.600000*%
%ADD55C,1.600000*%
%ADD56RoundRect,0.250000X0.625000X-0.350000X0.625000X0.350000X-0.625000X0.350000X-0.625000X-0.350000X0*%
%ADD57RoundRect,0.050000X0.387500X0.050000X-0.387500X0.050000X-0.387500X-0.050000X0.387500X-0.050000X0*%
%ADD58RoundRect,0.050000X0.050000X0.387500X-0.050000X0.387500X-0.050000X-0.387500X0.050000X-0.387500X0*%
%ADD59RoundRect,0.144000X1.456000X1.456000X-1.456000X1.456000X-1.456000X-1.456000X1.456000X-1.456000X0*%
G04 APERTURE END LIST*
D10*
%TO.C,C9*%
X150762000Y-124995000D03*
X150762000Y-125955000D03*
%TD*%
D11*
%TO.C,C16*%
X154473000Y-121665000D03*
X155433000Y-121665000D03*
%TD*%
D12*
%TO.C,U1*%
X131000000Y-108500000D03*
D13*
X133862500Y-110775000D03*
X133862500Y-110125000D03*
X133862500Y-109475000D03*
X133862500Y-108825000D03*
X133862500Y-108175000D03*
X133862500Y-107525000D03*
X133862500Y-106875000D03*
X133862500Y-106225000D03*
X128137500Y-106225000D03*
X128137500Y-106875000D03*
X128137500Y-107525000D03*
X128137500Y-108175000D03*
X128137500Y-108825000D03*
X128137500Y-109475000D03*
X128137500Y-110125000D03*
X128137500Y-110775000D03*
%TD*%
D14*
%TO.C,J9*%
X177350000Y-94500000D03*
D15*
X177350000Y-96500000D03*
X177350000Y-98500000D03*
X177350000Y-100500000D03*
%TD*%
D16*
%TO.C,C15*%
X155400000Y-116780000D03*
X155400000Y-115820000D03*
%TD*%
D17*
%TO.C,REF\u002A\u002A*%
X174100000Y-131500000D03*
X174802944Y-129802944D03*
X174802944Y-133197056D03*
X176500000Y-129100000D03*
D18*
X176500000Y-131500000D03*
X176500000Y-131500000D03*
D17*
X176500000Y-133900000D03*
X178197056Y-129802944D03*
X178197056Y-133197056D03*
X178900000Y-131500000D03*
%TD*%
D19*
%TO.C,C3*%
X142441000Y-123951000D03*
X140541000Y-123951000D03*
%TD*%
D10*
%TO.C,C19*%
X143904000Y-114454000D03*
X143904000Y-115414000D03*
%TD*%
D20*
%TO.C,R8*%
X148730000Y-111634000D03*
X148730000Y-110614000D03*
%TD*%
D12*
%TO.C,U2*%
X169000000Y-108500000D03*
D13*
X171862500Y-110775000D03*
X171862500Y-110125000D03*
X171862500Y-109475000D03*
X171862500Y-108825000D03*
X171862500Y-108175000D03*
X171862500Y-107525000D03*
X171862500Y-106875000D03*
X171862500Y-106225000D03*
X166137500Y-106225000D03*
X166137500Y-106875000D03*
X166137500Y-107525000D03*
X166137500Y-108175000D03*
X166137500Y-108825000D03*
X166137500Y-109475000D03*
X166137500Y-110125000D03*
X166137500Y-110775000D03*
%TD*%
D21*
%TO.C,J6*%
X163500000Y-131500000D03*
D22*
X165500000Y-131500000D03*
X167500000Y-131500000D03*
X169500000Y-131500000D03*
%TD*%
D23*
%TO.C,U6*%
X161982000Y-128015000D03*
X161982000Y-126745000D03*
X161982000Y-125475000D03*
X161982000Y-124205000D03*
X154782000Y-124205000D03*
X154782000Y-125475000D03*
X154782000Y-126745000D03*
X154782000Y-128015000D03*
%TD*%
D24*
%TO.C,Y1*%
X152833000Y-110409000D03*
X152833000Y-112609000D03*
X154533000Y-112609000D03*
X154533000Y-110409000D03*
%TD*%
D25*
%TO.C,U4*%
X142450000Y-126662500D03*
X141500000Y-126662500D03*
X140550000Y-126662500D03*
X140550000Y-128937500D03*
X142450000Y-128937500D03*
%TD*%
D26*
%TO.C,SW1*%
X157325000Y-109825000D03*
X161475000Y-109825000D03*
X157325000Y-111975000D03*
X161475000Y-111975000D03*
%TD*%
D27*
%TO.C,C13*%
X144765000Y-121411000D03*
X143805000Y-121411000D03*
%TD*%
D28*
%TO.C,R2*%
X158690000Y-129600000D03*
X159710000Y-129600000D03*
%TD*%
D29*
%TO.C,J12*%
X152500000Y-90000000D03*
D30*
X147500000Y-90000000D03*
%TD*%
D16*
%TO.C,C20*%
X151143000Y-110461000D03*
X151143000Y-109501000D03*
%TD*%
D17*
%TO.C,REF\u002A\u002A*%
X174100000Y-88500000D03*
X174802944Y-86802944D03*
X174802944Y-90197056D03*
X176500000Y-86100000D03*
D18*
X176500000Y-88500000D03*
X176500000Y-88500000D03*
D17*
X176500000Y-90900000D03*
X178197056Y-86802944D03*
X178197056Y-90197056D03*
X178900000Y-88500000D03*
%TD*%
D31*
%TO.C,J4*%
X128410000Y-100000000D03*
D32*
X130950000Y-100000000D03*
X133490000Y-100000000D03*
X136030000Y-100000000D03*
X138570000Y-100000000D03*
X141110000Y-100000000D03*
%TD*%
D16*
%TO.C,C24*%
X126100000Y-110530000D03*
X126100000Y-109570000D03*
%TD*%
D33*
%TO.C,R17*%
X176360000Y-106325000D03*
X175340000Y-106325000D03*
%TD*%
D16*
%TO.C,C21*%
X156000000Y-111819000D03*
X156000000Y-110859000D03*
%TD*%
D10*
%TO.C,C17*%
X149746000Y-124995000D03*
X149746000Y-125955000D03*
%TD*%
D33*
%TO.C,R15*%
X175510000Y-108800000D03*
X174490000Y-108800000D03*
%TD*%
%TO.C,R12*%
X159910000Y-104600000D03*
X158890000Y-104600000D03*
%TD*%
D34*
%TO.C,D1*%
X138400000Y-124937500D03*
X138400000Y-123062500D03*
%TD*%
D27*
%TO.C,C18*%
X153020005Y-128040409D03*
X152060005Y-128040409D03*
%TD*%
D10*
%TO.C,C5*%
X146698000Y-123852000D03*
X146698000Y-124812000D03*
%TD*%
D16*
%TO.C,C10*%
X148857000Y-113636000D03*
X148857000Y-112676000D03*
%TD*%
D27*
%TO.C,C26*%
X163980000Y-110900000D03*
X163020000Y-110900000D03*
%TD*%
D31*
%TO.C,J5*%
X158890000Y-100000000D03*
D32*
X161430000Y-100000000D03*
X163970000Y-100000000D03*
X166510000Y-100000000D03*
X169050000Y-100000000D03*
X171590000Y-100000000D03*
%TD*%
D35*
%TO.C,J11*%
X164500000Y-90000000D03*
D36*
X168460000Y-90000000D03*
%TD*%
D33*
%TO.C,R9*%
X137310000Y-108900000D03*
X136290000Y-108900000D03*
%TD*%
D10*
%TO.C,C14*%
X144666000Y-123852000D03*
X144666000Y-124812000D03*
%TD*%
D37*
%TO.C,J14*%
X148700000Y-130933000D03*
X149350000Y-130933000D03*
X150000000Y-130933000D03*
X150650000Y-130933000D03*
X151300000Y-130933000D03*
D38*
X146500000Y-133633000D03*
D39*
X147100000Y-133633000D03*
D40*
X147500000Y-130933000D03*
D41*
X149000000Y-133633000D03*
X151000000Y-133633000D03*
D40*
X152500000Y-130933000D03*
D39*
X152900000Y-133633000D03*
D38*
X153500000Y-133633000D03*
%TD*%
D17*
%TO.C,REF\u002A\u002A*%
X121100000Y-131500000D03*
X121802944Y-129802944D03*
X121802944Y-133197056D03*
X123500000Y-129100000D03*
D18*
X123500000Y-131500000D03*
X123500000Y-131500000D03*
D17*
X123500000Y-133900000D03*
X125197056Y-129802944D03*
X125197056Y-133197056D03*
X125900000Y-131500000D03*
%TD*%
D42*
%TO.C,J3*%
X152500000Y-93000000D03*
D43*
X147500000Y-93000000D03*
%TD*%
D16*
%TO.C,C11*%
X149873000Y-113636000D03*
X149873000Y-112676000D03*
%TD*%
D20*
%TO.C,R6*%
X147714000Y-124842000D03*
X147714000Y-123822000D03*
%TD*%
D44*
%TO.C,R13*%
X140600000Y-107690000D03*
X140600000Y-108710000D03*
%TD*%
D28*
%TO.C,R3*%
X156490000Y-129600000D03*
X157510000Y-129600000D03*
%TD*%
D45*
%TO.C,U3*%
X144986000Y-113023500D03*
X145936000Y-113023500D03*
X146886000Y-113023500D03*
X146886000Y-110748500D03*
X145936000Y-110748500D03*
X144986000Y-110748500D03*
%TD*%
D33*
%TO.C,R16*%
X165010000Y-128500000D03*
X163990000Y-128500000D03*
%TD*%
D31*
%TO.C,J13*%
X157475000Y-133400000D03*
%TD*%
D42*
%TO.C,J2*%
X169000000Y-93000000D03*
D43*
X164000000Y-93000000D03*
%TD*%
D27*
%TO.C,C12*%
X144080000Y-117500000D03*
X143120000Y-117500000D03*
%TD*%
D10*
%TO.C,C25*%
X126100000Y-107570000D03*
X126100000Y-108530000D03*
%TD*%
D28*
%TO.C,R1*%
X137677000Y-126364000D03*
X138697000Y-126364000D03*
%TD*%
D46*
%TO.C,D6*%
X153800000Y-99400000D03*
X151000000Y-99400000D03*
%TD*%
D20*
%TO.C,R5*%
X148730000Y-124842000D03*
X148730000Y-123822000D03*
%TD*%
D28*
%TO.C,R7*%
X158126000Y-113410000D03*
X159146000Y-113410000D03*
%TD*%
D35*
%TO.C,J10*%
X131750000Y-90000000D03*
D36*
X135710000Y-90000000D03*
%TD*%
D47*
%TO.C,U7*%
X160462500Y-120050000D03*
X160462500Y-121000000D03*
X160462500Y-121950000D03*
X162737500Y-121950000D03*
X162737500Y-120050000D03*
%TD*%
D48*
%TO.C,L1*%
X142510000Y-113918000D03*
X139710000Y-113918000D03*
%TD*%
D20*
%TO.C,R10*%
X139000000Y-108710000D03*
X139000000Y-107690000D03*
%TD*%
D17*
%TO.C,REF\u002A\u002A*%
X121100000Y-88500000D03*
X121802944Y-86802944D03*
X121802944Y-90197056D03*
X123500000Y-86100000D03*
D18*
X123500000Y-88500000D03*
X123500000Y-88500000D03*
D17*
X123500000Y-90900000D03*
X125197056Y-86802944D03*
X125197056Y-90197056D03*
X125900000Y-88500000D03*
%TD*%
D11*
%TO.C,C7*%
X162920000Y-109600000D03*
X163880000Y-109600000D03*
%TD*%
D49*
%TO.C,C4*%
X145223000Y-108584000D03*
X148173000Y-108584000D03*
%TD*%
D50*
%TO.C,D3*%
X162350000Y-117675000D03*
X162350000Y-115925000D03*
X158850000Y-115925000D03*
X158850000Y-117675000D03*
%TD*%
D51*
%TO.C,D5*%
X158764000Y-106552000D03*
X162064000Y-106552000D03*
%TD*%
D52*
%TO.C,Q1*%
X144795000Y-104455000D03*
X146065000Y-104455000D03*
X147335000Y-104455000D03*
X148605000Y-104455000D03*
X148605000Y-99505000D03*
X147335000Y-99505000D03*
X146065000Y-99505000D03*
X144795000Y-99505000D03*
%TD*%
D53*
%TO.C,D2*%
X142888000Y-110742000D03*
X142888000Y-107442000D03*
%TD*%
D10*
%TO.C,C6*%
X145682000Y-123852000D03*
X145682000Y-124812000D03*
%TD*%
D19*
%TO.C,C22*%
X140856000Y-110362000D03*
X138956000Y-110362000D03*
%TD*%
D42*
%TO.C,J1*%
X136000000Y-93000008D03*
D43*
X131000000Y-93000008D03*
%TD*%
D44*
%TO.C,R11*%
X149746000Y-110614000D03*
X149746000Y-111634000D03*
%TD*%
D33*
%TO.C,R14*%
X136610000Y-107000000D03*
X135590000Y-107000000D03*
%TD*%
D54*
%TO.C,C1*%
X153800000Y-106652651D03*
D55*
X153800000Y-103152651D03*
%TD*%
D20*
%TO.C,R4*%
X151143000Y-112777000D03*
X151143000Y-111757000D03*
%TD*%
D21*
%TO.C,J7*%
X130500000Y-131500000D03*
D22*
X132500000Y-131500000D03*
X134500000Y-131500000D03*
X136500000Y-131500000D03*
%TD*%
D19*
%TO.C,C2*%
X142441000Y-131317000D03*
X140541000Y-131317000D03*
%TD*%
D56*
%TO.C,J8*%
X122450000Y-101000000D03*
D15*
X122450000Y-99000000D03*
X122450000Y-97000000D03*
X122450000Y-95000000D03*
%TD*%
D57*
%TO.C,U5*%
X153183500Y-121344000D03*
X153183500Y-120944000D03*
X153183500Y-120544000D03*
X153183500Y-120144000D03*
X153183500Y-119744000D03*
X153183500Y-119344000D03*
X153183500Y-118944000D03*
X153183500Y-118544000D03*
X153183500Y-118144000D03*
X153183500Y-117744000D03*
X153183500Y-117344000D03*
X153183500Y-116944000D03*
X153183500Y-116544000D03*
X153183500Y-116144000D03*
D58*
X152346000Y-115306500D03*
X151946000Y-115306500D03*
X151546000Y-115306500D03*
X151146000Y-115306500D03*
X150746000Y-115306500D03*
X150346000Y-115306500D03*
X149946000Y-115306500D03*
X149546000Y-115306500D03*
X149146000Y-115306500D03*
X148746000Y-115306500D03*
X148346000Y-115306500D03*
X147946000Y-115306500D03*
X147546000Y-115306500D03*
X147146000Y-115306500D03*
D57*
X146308500Y-116144000D03*
X146308500Y-116544000D03*
X146308500Y-116944000D03*
X146308500Y-117344000D03*
X146308500Y-117744000D03*
X146308500Y-118144000D03*
X146308500Y-118544000D03*
X146308500Y-118944000D03*
X146308500Y-119344000D03*
X146308500Y-119744000D03*
X146308500Y-120144000D03*
X146308500Y-120544000D03*
X146308500Y-120944000D03*
X146308500Y-121344000D03*
D58*
X147146000Y-122181500D03*
X147546000Y-122181500D03*
X147946000Y-122181500D03*
X148346000Y-122181500D03*
X148746000Y-122181500D03*
X149146000Y-122181500D03*
X149546000Y-122181500D03*
X149946000Y-122181500D03*
X150346000Y-122181500D03*
X150746000Y-122181500D03*
X151146000Y-122181500D03*
X151546000Y-122181500D03*
X151946000Y-122181500D03*
X152346000Y-122181500D03*
D59*
X149746000Y-118744000D03*
%TD*%
M02*
