%TF.GenerationSoftware,KiCad,Pcbnew,7.0.8*%
%TF.CreationDate,2024-07-02T17:24:08-04:00*%
%TF.ProjectId,motor-driver,6d6f746f-722d-4647-9269-7665722e6b69,rev?*%
%TF.SameCoordinates,Original*%
%TF.FileFunction,Copper,L3,Inr*%
%TF.FilePolarity,Positive*%
%FSLAX46Y46*%
G04 Gerber Fmt 4.6, Leading zero omitted, Abs format (unit mm)*
G04 Created by KiCad (PCBNEW 7.0.8) date 2024-07-02 17:24:08*
%MOMM*%
%LPD*%
G01*
G04 APERTURE LIST*
G04 Aperture macros list*
%AMRoundRect*
0 Rectangle with rounded corners*
0 $1 Rounding radius*
0 $2 $3 $4 $5 $6 $7 $8 $9 X,Y pos of 4 corners*
0 Add a 4 corners polygon primitive as box body*
4,1,4,$2,$3,$4,$5,$6,$7,$8,$9,$2,$3,0*
0 Add four circle primitives for the rounded corners*
1,1,$1+$1,$2,$3*
1,1,$1+$1,$4,$5*
1,1,$1+$1,$6,$7*
1,1,$1+$1,$8,$9*
0 Add four rect primitives between the rounded corners*
20,1,$1+$1,$2,$3,$4,$5,0*
20,1,$1+$1,$4,$5,$6,$7,0*
20,1,$1+$1,$6,$7,$8,$9,0*
20,1,$1+$1,$8,$9,$2,$3,0*%
G04 Aperture macros list end*
%TA.AperFunction,ComponentPad*%
%ADD10C,0.600000*%
%TD*%
%TA.AperFunction,ComponentPad*%
%ADD11RoundRect,0.250000X-0.625000X0.350000X-0.625000X-0.350000X0.625000X-0.350000X0.625000X0.350000X0*%
%TD*%
%TA.AperFunction,ComponentPad*%
%ADD12O,1.750000X1.200000*%
%TD*%
%TA.AperFunction,ComponentPad*%
%ADD13C,0.800000*%
%TD*%
%TA.AperFunction,ComponentPad*%
%ADD14C,6.400000*%
%TD*%
%TA.AperFunction,ComponentPad*%
%ADD15RoundRect,0.250000X-0.350000X-0.625000X0.350000X-0.625000X0.350000X0.625000X-0.350000X0.625000X0*%
%TD*%
%TA.AperFunction,ComponentPad*%
%ADD16O,1.200000X1.750000*%
%TD*%
%TA.AperFunction,ComponentPad*%
%ADD17R,3.000000X3.000000*%
%TD*%
%TA.AperFunction,ComponentPad*%
%ADD18C,3.000000*%
%TD*%
%TA.AperFunction,ComponentPad*%
%ADD19R,1.700000X1.700000*%
%TD*%
%TA.AperFunction,ComponentPad*%
%ADD20O,1.700000X1.700000*%
%TD*%
%TA.AperFunction,ComponentPad*%
%ADD21RoundRect,0.250001X-1.099999X-1.099999X1.099999X-1.099999X1.099999X1.099999X-1.099999X1.099999X0*%
%TD*%
%TA.AperFunction,ComponentPad*%
%ADD22C,2.700000*%
%TD*%
%TA.AperFunction,ComponentPad*%
%ADD23O,0.890000X1.550000*%
%TD*%
%TA.AperFunction,ComponentPad*%
%ADD24O,1.250000X0.950000*%
%TD*%
%TA.AperFunction,ComponentPad*%
%ADD25R,2.600000X2.600000*%
%TD*%
%TA.AperFunction,ComponentPad*%
%ADD26C,2.600000*%
%TD*%
%TA.AperFunction,ComponentPad*%
%ADD27R,1.600000X1.600000*%
%TD*%
%TA.AperFunction,ComponentPad*%
%ADD28C,1.600000*%
%TD*%
%TA.AperFunction,ComponentPad*%
%ADD29RoundRect,0.250000X0.625000X-0.350000X0.625000X0.350000X-0.625000X0.350000X-0.625000X-0.350000X0*%
%TD*%
%TA.AperFunction,ViaPad*%
%ADD30C,0.800000*%
%TD*%
%TA.AperFunction,Conductor*%
%ADD31C,1.524000*%
%TD*%
%TA.AperFunction,Conductor*%
%ADD32C,0.304800*%
%TD*%
%TA.AperFunction,Conductor*%
%ADD33C,0.203200*%
%TD*%
%TA.AperFunction,Conductor*%
%ADD34C,0.508000*%
%TD*%
G04 APERTURE END LIST*
D10*
%TO.N,GND*%
%TO.C,U1*%
X132000000Y-110300000D03*
X132000000Y-109100000D03*
X132000000Y-107900000D03*
X132000000Y-106700000D03*
X131000000Y-110300000D03*
X131000000Y-109100000D03*
X131000000Y-107900000D03*
X131000000Y-106700000D03*
X130000000Y-110300000D03*
X130000000Y-109100000D03*
X130000000Y-107900000D03*
X130000000Y-106700000D03*
%TD*%
D11*
%TO.N,/ENC2_B*%
%TO.C,J9*%
X177350000Y-94500000D03*
D12*
%TO.N,/ENC2_A*%
X177350000Y-96500000D03*
%TO.N,+3V3*%
X177350000Y-98500000D03*
%TO.N,GND*%
X177350000Y-100500000D03*
%TD*%
D13*
%TO.N,GND*%
%TO.C,REF\u002A\u002A*%
X174100000Y-131500000D03*
X174802944Y-129802944D03*
X174802944Y-133197056D03*
X176500000Y-129100000D03*
D14*
X176500000Y-131500000D03*
X176500000Y-131500000D03*
D13*
X176500000Y-133900000D03*
X178197056Y-129802944D03*
X178197056Y-133197056D03*
X178900000Y-131500000D03*
%TD*%
D10*
%TO.N,GND*%
%TO.C,U2*%
X170000000Y-110300000D03*
X170000000Y-109100000D03*
X170000000Y-107900000D03*
X170000000Y-106700000D03*
X169000000Y-110300000D03*
X169000000Y-109100000D03*
X169000000Y-107900000D03*
X169000000Y-106700000D03*
X168000000Y-110300000D03*
X168000000Y-109100000D03*
X168000000Y-107900000D03*
X168000000Y-106700000D03*
%TD*%
D15*
%TO.N,/TX_BUFFERED*%
%TO.C,J6*%
X163500000Y-131500000D03*
D16*
%TO.N,/RX*%
X165500000Y-131500000D03*
%TO.N,Net-(J6-Pin_3)*%
X167500000Y-131500000D03*
%TO.N,GND*%
X169500000Y-131500000D03*
%TD*%
D17*
%TO.N,GND*%
%TO.C,J12*%
X152500000Y-90000000D03*
D18*
%TO.N,VBUS*%
X147500000Y-90000000D03*
%TD*%
D13*
%TO.N,GND*%
%TO.C,REF\u002A\u002A*%
X174100000Y-88500000D03*
X174802944Y-86802944D03*
X174802944Y-90197056D03*
X176500000Y-86100000D03*
D14*
X176500000Y-88500000D03*
X176500000Y-88500000D03*
D13*
X176500000Y-90900000D03*
X178197056Y-86802944D03*
X178197056Y-90197056D03*
X178900000Y-88500000D03*
%TD*%
D19*
%TO.N,/M1B*%
%TO.C,J4*%
X128410000Y-100000000D03*
D20*
%TO.N,/ENC1_A*%
X130950000Y-100000000D03*
%TO.N,GND*%
X133490000Y-100000000D03*
%TO.N,+3V3*%
X136030000Y-100000000D03*
%TO.N,/ENC1_B*%
X138570000Y-100000000D03*
%TO.N,/M1A*%
X141110000Y-100000000D03*
%TD*%
D19*
%TO.N,/M2B*%
%TO.C,J5*%
X158890000Y-100000000D03*
D20*
%TO.N,/ENC2_A*%
X161430000Y-100000000D03*
%TO.N,GND*%
X163970000Y-100000000D03*
%TO.N,+3V3*%
X166510000Y-100000000D03*
%TO.N,/ENC2_B*%
X169050000Y-100000000D03*
%TO.N,/M2A*%
X171590000Y-100000000D03*
%TD*%
D21*
%TO.N,/M2B*%
%TO.C,J11*%
X164500000Y-90000000D03*
D22*
%TO.N,/M2A*%
X168460000Y-90000000D03*
%TD*%
D23*
%TO.N,GND*%
%TO.C,J14*%
X146500000Y-133633000D03*
D24*
X147500000Y-130933000D03*
X152500000Y-130933000D03*
D23*
X153500000Y-133633000D03*
%TD*%
D13*
%TO.N,GND*%
%TO.C,REF\u002A\u002A*%
X121100000Y-131500000D03*
X121802944Y-129802944D03*
X121802944Y-133197056D03*
X123500000Y-129100000D03*
D14*
X123500000Y-131500000D03*
X123500000Y-131500000D03*
D13*
X123500000Y-133900000D03*
X125197056Y-129802944D03*
X125197056Y-133197056D03*
X125900000Y-131500000D03*
%TD*%
D25*
%TO.N,GND*%
%TO.C,J3*%
X152500000Y-93000000D03*
D26*
%TO.N,VBUS*%
X147500000Y-93000000D03*
%TD*%
D19*
%TO.N,/~{USB_BOOT}*%
%TO.C,J13*%
X157475000Y-133400000D03*
%TD*%
D25*
%TO.N,/M2A*%
%TO.C,J2*%
X169000000Y-93000000D03*
D26*
%TO.N,/M2B*%
X164000000Y-93000000D03*
%TD*%
D21*
%TO.N,/M1B*%
%TO.C,J10*%
X131750000Y-90000000D03*
D22*
%TO.N,/M1A*%
X135710000Y-90000000D03*
%TD*%
D13*
%TO.N,GND*%
%TO.C,REF\u002A\u002A*%
X121100000Y-88500000D03*
X121802944Y-86802944D03*
X121802944Y-90197056D03*
X123500000Y-86100000D03*
D14*
X123500000Y-88500000D03*
X123500000Y-88500000D03*
D13*
X123500000Y-90900000D03*
X125197056Y-86802944D03*
X125197056Y-90197056D03*
X125900000Y-88500000D03*
%TD*%
D25*
%TO.N,/M1A*%
%TO.C,J1*%
X136000000Y-93000008D03*
D26*
%TO.N,/M1B*%
X131000000Y-93000008D03*
%TD*%
D27*
%TO.N,VCC*%
%TO.C,C1*%
X153800000Y-106652651D03*
D28*
%TO.N,GND*%
X153800000Y-103152651D03*
%TD*%
D15*
%TO.N,/TX_BUFFERED*%
%TO.C,J7*%
X130500000Y-131500000D03*
D16*
%TO.N,/RX*%
X132500000Y-131500000D03*
%TO.N,Net-(J7-Pin_3)*%
X134500000Y-131500000D03*
%TO.N,GND*%
X136500000Y-131500000D03*
%TD*%
D29*
%TO.N,/ENC1_B*%
%TO.C,J8*%
X122450000Y-101000000D03*
D12*
%TO.N,/ENC1_A*%
X122450000Y-99000000D03*
%TO.N,+3V3*%
X122450000Y-97000000D03*
%TO.N,GND*%
X122450000Y-95000000D03*
%TD*%
D10*
%TO.N,GND*%
%TO.C,U5*%
X151021000Y-120019000D03*
X151021000Y-118744000D03*
X151021000Y-117469000D03*
X149746000Y-120019000D03*
X149746000Y-118744000D03*
X149746000Y-117469000D03*
X148471000Y-120019000D03*
X148471000Y-118744000D03*
X148471000Y-117469000D03*
%TD*%
D30*
%TO.N,GND*%
X129680000Y-124840000D03*
X134760000Y-119760000D03*
X127140000Y-117220000D03*
X172860000Y-122300000D03*
X124600000Y-114680000D03*
X129680000Y-114680000D03*
X124600000Y-119760000D03*
X127140000Y-124840000D03*
X167780000Y-117220000D03*
X141831300Y-117700000D03*
X134760000Y-124840000D03*
X175400000Y-117220000D03*
X175400000Y-119760000D03*
X141500000Y-128000000D03*
X172860000Y-114680000D03*
X143805000Y-124487000D03*
X132220000Y-114680000D03*
X132220000Y-122300000D03*
X170320000Y-122300000D03*
X167780000Y-119760000D03*
X172860000Y-119760000D03*
X160287000Y-123951000D03*
X170320000Y-114680000D03*
X157100000Y-115666200D03*
X165240000Y-119760000D03*
X167780000Y-122300000D03*
X127140000Y-119760000D03*
X165240000Y-122300000D03*
X167780000Y-114680000D03*
X175400000Y-114680000D03*
X170320000Y-119760000D03*
X124600000Y-122300000D03*
X124600000Y-117220000D03*
X124600000Y-124840000D03*
X156223000Y-121622700D03*
X172860000Y-117220000D03*
X170320000Y-117220000D03*
X127140000Y-122300000D03*
X156000000Y-109850000D03*
X165240000Y-117220000D03*
X127140000Y-114680000D03*
X132220000Y-124840000D03*
X175400000Y-122300000D03*
X144800000Y-115000000D03*
X129680000Y-117220000D03*
X165240000Y-114680000D03*
X170320000Y-124840000D03*
X167780000Y-124840000D03*
X132220000Y-119760000D03*
X134760000Y-114680000D03*
X134760000Y-122300000D03*
X129680000Y-119760000D03*
X142253000Y-108965000D03*
X175400000Y-124840000D03*
X129680000Y-122300000D03*
X132220000Y-117220000D03*
X134760000Y-117220000D03*
X172860000Y-124840000D03*
%TO.N,VCC*%
X146952000Y-106480000D03*
X147968000Y-106480000D03*
X144666000Y-106480000D03*
X124500000Y-108250000D03*
X122900000Y-107550000D03*
X122400000Y-108250000D03*
X124000000Y-107550000D03*
X123400000Y-108250000D03*
X121800000Y-107550000D03*
X163600000Y-108400000D03*
X145682000Y-106480000D03*
X162600000Y-108400000D03*
%TO.N,+3V3*%
X162200000Y-120800000D03*
X146063000Y-122554000D03*
X144893234Y-117357494D03*
X153900000Y-121800000D03*
X178000000Y-108850000D03*
X157112000Y-113410000D03*
X149400000Y-121200000D03*
X149873000Y-116458000D03*
X157112000Y-128015000D03*
X156400000Y-116400000D03*
X138000000Y-109000000D03*
X145300000Y-123000000D03*
X142441000Y-129920000D03*
X165000000Y-126200000D03*
%TO.N,/M2_DIR*%
X175100000Y-109900000D03*
X157403427Y-118605405D03*
%TO.N,/M2_PWM*%
X174400000Y-111100000D03*
X161800000Y-114200000D03*
%TO.N,/ENC1_A*%
X142400000Y-116367500D03*
%TO.N,/ENC1_B*%
X145987253Y-114985253D03*
%TO.N,/ENC2_B*%
X156200000Y-118277800D03*
%TO.N,/ENC2_A*%
X155100000Y-117800000D03*
%TO.N,/M2_FLAG*%
X177100000Y-107800000D03*
X158714880Y-119214880D03*
%TO.N,+1V1*%
X150100000Y-124100000D03*
X147600000Y-120900000D03*
%TO.N,/RUN*%
X155900000Y-113400000D03*
X147950000Y-114200000D03*
%TO.N,/M2_ENABLE*%
X173300000Y-109503900D03*
X160708943Y-114208943D03*
%TO.N,/M1_SENSE*%
X137200000Y-107400000D03*
X138704247Y-118795753D03*
%TO.N,+5V*%
X141364000Y-125221000D03*
X149746000Y-109700000D03*
X141000000Y-115300000D03*
%TO.N,/VREF*%
X142350000Y-104050000D03*
X178350000Y-105350000D03*
%TO.N,/M2_SENSE*%
X145271788Y-121012617D03*
X151300000Y-105401100D03*
X177300000Y-106300000D03*
%TO.N,/RX*%
X157600000Y-120909200D03*
%TO.N,Net-(JP3-B)*%
X142800000Y-119000000D03*
%TO.N,Net-(JP4-B)*%
X143672146Y-118359241D03*
%TD*%
D31*
%TO.N,GND*%
X152500000Y-90000000D02*
X152500000Y-93000000D01*
D32*
%TO.N,+3V3*%
X177350000Y-98500000D02*
X179225000Y-100375000D01*
X168010000Y-98500000D02*
X177350000Y-98500000D01*
X122450000Y-97000000D02*
X133030000Y-97000000D01*
X121000000Y-98450000D02*
X121000000Y-114000000D01*
X179225000Y-100375000D02*
X179225000Y-107625000D01*
X122450000Y-97000000D02*
X121000000Y-98450000D01*
X179225000Y-107625000D02*
X178000000Y-108850000D01*
X178000000Y-108850000D02*
X178000000Y-117000000D01*
X133030000Y-97000000D02*
X136030000Y-100000000D01*
X166510000Y-100000000D02*
X168010000Y-98500000D01*
D33*
X138000000Y-109000000D02*
X138000000Y-110400000D01*
X138400000Y-110800000D02*
X138400000Y-114200000D01*
X138000000Y-110400000D02*
X138400000Y-110800000D01*
D31*
%TO.N,/M1A*%
X141110000Y-98110008D02*
X141110000Y-100000000D01*
X136000000Y-93000008D02*
X141110000Y-98110008D01*
X135710000Y-90000000D02*
X135710000Y-92710008D01*
%TO.N,/M1B*%
X131750000Y-92250008D02*
X131000000Y-93000008D01*
X131750000Y-90000000D02*
X131750000Y-92250008D01*
%TO.N,/M2A*%
X168460000Y-92460000D02*
X169000000Y-93000000D01*
X168460000Y-90000000D02*
X168460000Y-92460000D01*
%TO.N,/M2B*%
X158890000Y-98110000D02*
X158890000Y-100000000D01*
X164000000Y-93000000D02*
X158890000Y-98110000D01*
D33*
%TO.N,/ENC1_A*%
X122450000Y-99000000D02*
X124400000Y-99000000D01*
X130400000Y-98400000D02*
X130950000Y-98950000D01*
X124400000Y-99000000D02*
X125000000Y-98400000D01*
X130950000Y-98950000D02*
X130950000Y-100000000D01*
X125000000Y-98400000D02*
X130400000Y-98400000D01*
%TO.N,/ENC1_B*%
X124500000Y-101000000D02*
X125100000Y-101600000D01*
X122450000Y-101000000D02*
X124500000Y-101000000D01*
X137400000Y-101600000D02*
X138570000Y-100430000D01*
X125100000Y-101600000D02*
X137400000Y-101600000D01*
%TO.N,/ENC2_A*%
X164930000Y-96500000D02*
X177350000Y-96500000D01*
X161430000Y-100000000D02*
X164930000Y-96500000D01*
D31*
%TO.N,VBUS*%
X147500000Y-90000000D02*
X147500000Y-93000000D01*
D32*
%TO.N,+1V1*%
X147600000Y-121600000D02*
X150100000Y-124100000D01*
X147600000Y-120900000D02*
X147600000Y-121600000D01*
D33*
%TO.N,+5V*%
X142268000Y-115300000D02*
X147868000Y-109700000D01*
X141000000Y-115300000D02*
X142268000Y-115300000D01*
X147868000Y-109700000D02*
X149746000Y-109700000D01*
D34*
X141000000Y-115300000D02*
X141000000Y-119700000D01*
X141364000Y-120064000D02*
X141364000Y-125221000D01*
X141000000Y-119700000D02*
X141364000Y-120064000D01*
D33*
%TO.N,/VREF*%
X154249186Y-104254251D02*
X154278437Y-104225000D01*
X154278437Y-104225000D02*
X171300000Y-104225000D01*
X171300000Y-104225000D02*
X172425000Y-105350000D01*
X172425000Y-105350000D02*
X178350000Y-105350000D01*
X142554251Y-104254251D02*
X154249186Y-104254251D01*
X142350000Y-104050000D02*
X142554251Y-104254251D01*
%TO.N,/M2_SENSE*%
X154416197Y-104657451D02*
X151842549Y-104657451D01*
X154445448Y-104628200D02*
X154416197Y-104657451D01*
X176753200Y-105753200D02*
X172125000Y-105753200D01*
X151300000Y-105200000D02*
X151300000Y-105401100D01*
X177300000Y-106300000D02*
X176753200Y-105753200D01*
X151842549Y-104657451D02*
X151300000Y-105200000D01*
X172125000Y-105753200D02*
X171000000Y-104628200D01*
X171000000Y-104628200D02*
X154445448Y-104628200D01*
D32*
%TO.N,/TX_BUFFERED*%
X132100000Y-129900000D02*
X137200000Y-129900000D01*
X130500000Y-131500000D02*
X132100000Y-129900000D01*
X137200000Y-129900000D02*
X139200000Y-131900000D01*
X139200000Y-131900000D02*
X163100000Y-131900000D01*
%TD*%
%TA.AperFunction,Conductor*%
%TO.N,VCC*%
G36*
X141718421Y-104019685D02*
G01*
X141764176Y-104072489D01*
X141774321Y-104107814D01*
X141786585Y-104200966D01*
X141786586Y-104200970D01*
X141844853Y-104341640D01*
X141844856Y-104341646D01*
X141937551Y-104462447D01*
X141937552Y-104462448D01*
X142058353Y-104555143D01*
X142058359Y-104555146D01*
X142128694Y-104584279D01*
X142199033Y-104613415D01*
X142274516Y-104623352D01*
X142349999Y-104633290D01*
X142350000Y-104633290D01*
X142350001Y-104633290D01*
X142400322Y-104626665D01*
X142500967Y-104613415D01*
X142641645Y-104555144D01*
X142641649Y-104555140D01*
X142648680Y-104551082D01*
X142650396Y-104554054D01*
X142700805Y-104534579D01*
X142711096Y-104534151D01*
X151270648Y-104534151D01*
X151337687Y-104553836D01*
X151383442Y-104606640D01*
X151393386Y-104675798D01*
X151364361Y-104739354D01*
X151358328Y-104745833D01*
X151314044Y-104790116D01*
X151252721Y-104823601D01*
X151242550Y-104825373D01*
X151149033Y-104837685D01*
X151149029Y-104837686D01*
X151008359Y-104895953D01*
X151008353Y-104895956D01*
X150887552Y-104988651D01*
X150887551Y-104988652D01*
X150794856Y-105109453D01*
X150794853Y-105109459D01*
X150736586Y-105250129D01*
X150736584Y-105250134D01*
X150716710Y-105401098D01*
X150716710Y-105401101D01*
X150736584Y-105552065D01*
X150736586Y-105552070D01*
X150794853Y-105692740D01*
X150794856Y-105692746D01*
X150887551Y-105813547D01*
X150887552Y-105813548D01*
X151008353Y-105906243D01*
X151008359Y-105906246D01*
X151078694Y-105935379D01*
X151149033Y-105964515D01*
X151214524Y-105973137D01*
X151299999Y-105984390D01*
X151300000Y-105984390D01*
X151300001Y-105984390D01*
X151363425Y-105976040D01*
X151450967Y-105964515D01*
X151591645Y-105906244D01*
X151712448Y-105813548D01*
X151805144Y-105692745D01*
X151863415Y-105552067D01*
X151883290Y-105401100D01*
X151863415Y-105250133D01*
X151831356Y-105172735D01*
X151823887Y-105103266D01*
X151855162Y-105040787D01*
X151858236Y-105037601D01*
X151922169Y-104973669D01*
X151983493Y-104940185D01*
X152009850Y-104937351D01*
X154357366Y-104937351D01*
X154365942Y-104937946D01*
X154376852Y-104939467D01*
X154376857Y-104939469D01*
X154415286Y-104937692D01*
X154421243Y-104937417D01*
X154424106Y-104937351D01*
X154442124Y-104937351D01*
X154442132Y-104937351D01*
X154444297Y-104936945D01*
X154452819Y-104935956D01*
X154481390Y-104934636D01*
X154486389Y-104932428D01*
X154513693Y-104923974D01*
X154519060Y-104922971D01*
X154519061Y-104922970D01*
X154519063Y-104922970D01*
X154529777Y-104918820D01*
X154530860Y-104921616D01*
X154578359Y-104908100D01*
X170832700Y-104908100D01*
X170899739Y-104927785D01*
X170920381Y-104944419D01*
X171885480Y-105909519D01*
X171891122Y-105916002D01*
X171897764Y-105924797D01*
X171930597Y-105954729D01*
X171932647Y-105956686D01*
X171945419Y-105969458D01*
X171947241Y-105970706D01*
X171953970Y-105976036D01*
X171975099Y-105995298D01*
X171979996Y-105997195D01*
X171980187Y-105997269D01*
X172005479Y-106010600D01*
X172009984Y-106013686D01*
X172037819Y-106020232D01*
X172046012Y-106022770D01*
X172072678Y-106033100D01*
X172078146Y-106033100D01*
X172106532Y-106036393D01*
X172111844Y-106037642D01*
X172111845Y-106037642D01*
X172111849Y-106037643D01*
X172140155Y-106033694D01*
X172148727Y-106033100D01*
X176585900Y-106033100D01*
X176652939Y-106052785D01*
X176673581Y-106069419D01*
X176695277Y-106091115D01*
X176728762Y-106152438D01*
X176730535Y-106194980D01*
X176716710Y-106299997D01*
X176716710Y-106300001D01*
X176736584Y-106450965D01*
X176736586Y-106450970D01*
X176794853Y-106591640D01*
X176794856Y-106591646D01*
X176887551Y-106712447D01*
X176887552Y-106712448D01*
X177008353Y-106805143D01*
X177008359Y-106805146D01*
X177078694Y-106834279D01*
X177149033Y-106863415D01*
X177224516Y-106873352D01*
X177299999Y-106883290D01*
X177300000Y-106883290D01*
X177300001Y-106883290D01*
X177350322Y-106876665D01*
X177450967Y-106863415D01*
X177591645Y-106805144D01*
X177712448Y-106712448D01*
X177805144Y-106591645D01*
X177863415Y-106450967D01*
X177878707Y-106334810D01*
X177883290Y-106300001D01*
X177883290Y-106299998D01*
X177863415Y-106149034D01*
X177863413Y-106149029D01*
X177858549Y-106137287D01*
X177811116Y-106022773D01*
X177805146Y-106008359D01*
X177805143Y-106008353D01*
X177712448Y-105887552D01*
X177712447Y-105887551D01*
X177666475Y-105852275D01*
X177625272Y-105795847D01*
X177621118Y-105726101D01*
X177655331Y-105665181D01*
X177717049Y-105632428D01*
X177741962Y-105629900D01*
X177774694Y-105629900D01*
X177841733Y-105649585D01*
X177873069Y-105678413D01*
X177937551Y-105762447D01*
X177937552Y-105762448D01*
X178058353Y-105855143D01*
X178058359Y-105855146D01*
X178128694Y-105884279D01*
X178199033Y-105913415D01*
X178274516Y-105923352D01*
X178349999Y-105933290D01*
X178350000Y-105933290D01*
X178350001Y-105933290D01*
X178414511Y-105924797D01*
X178500967Y-105913415D01*
X178641645Y-105855144D01*
X178694814Y-105814345D01*
X178759981Y-105789151D01*
X178828426Y-105803189D01*
X178878417Y-105852002D01*
X178894300Y-105912721D01*
X178894300Y-107436657D01*
X178874615Y-107503696D01*
X178857981Y-107524338D01*
X178145399Y-108236919D01*
X178084076Y-108270404D01*
X178041535Y-108272177D01*
X178000004Y-108266710D01*
X177999999Y-108266710D01*
X177849034Y-108286584D01*
X177849029Y-108286586D01*
X177700845Y-108347966D01*
X177699641Y-108345061D01*
X177646114Y-108358014D01*
X177580101Y-108335123D01*
X177536942Y-108280177D01*
X177530342Y-108210620D01*
X177553709Y-108158674D01*
X177605144Y-108091645D01*
X177663415Y-107950967D01*
X177683290Y-107800000D01*
X177678934Y-107766916D01*
X177664104Y-107654265D01*
X177663415Y-107649033D01*
X177616101Y-107534807D01*
X177605146Y-107508359D01*
X177605143Y-107508353D01*
X177512448Y-107387552D01*
X177512447Y-107387551D01*
X177391646Y-107294856D01*
X177391640Y-107294853D01*
X177250970Y-107236586D01*
X177250965Y-107236584D01*
X177100001Y-107216710D01*
X177099999Y-107216710D01*
X176949034Y-107236584D01*
X176949029Y-107236586D01*
X176808359Y-107294853D01*
X176808353Y-107294856D01*
X176687552Y-107387551D01*
X176687551Y-107387552D01*
X176594856Y-107508353D01*
X176594853Y-107508359D01*
X176536586Y-107649029D01*
X176536584Y-107649034D01*
X176516710Y-107799998D01*
X176516710Y-107800001D01*
X176536584Y-107950965D01*
X176536586Y-107950970D01*
X176594853Y-108091640D01*
X176594856Y-108091646D01*
X176687551Y-108212447D01*
X176687552Y-108212448D01*
X176808353Y-108305143D01*
X176808359Y-108305146D01*
X176831693Y-108314811D01*
X176949033Y-108363415D01*
X177024516Y-108373352D01*
X177099999Y-108383290D01*
X177100000Y-108383290D01*
X177100001Y-108383290D01*
X177150322Y-108376665D01*
X177250967Y-108363415D01*
X177325032Y-108332736D01*
X177399155Y-108302034D01*
X177400364Y-108304954D01*
X177453772Y-108291980D01*
X177519807Y-108314811D01*
X177563015Y-108369718D01*
X177569679Y-108439269D01*
X177546288Y-108491327D01*
X177494856Y-108558354D01*
X177494853Y-108558359D01*
X177436586Y-108699029D01*
X177436584Y-108699034D01*
X177416710Y-108849998D01*
X177416710Y-108850001D01*
X177436584Y-109000965D01*
X177436586Y-109000970D01*
X177494853Y-109141640D01*
X177494856Y-109141645D01*
X177587549Y-109262445D01*
X177587550Y-109262446D01*
X177587552Y-109262448D01*
X177620787Y-109287950D01*
X177661988Y-109344374D01*
X177669300Y-109386324D01*
X177669300Y-110876000D01*
X177649615Y-110943039D01*
X177596811Y-110988794D01*
X177545300Y-111000000D01*
X175067380Y-111000000D01*
X175000341Y-110980315D01*
X174954586Y-110927511D01*
X174952819Y-110923452D01*
X174905146Y-110808359D01*
X174905143Y-110808353D01*
X174812448Y-110687552D01*
X174788491Y-110669169D01*
X174764720Y-110650929D01*
X174723519Y-110594503D01*
X174720851Y-110549732D01*
X174684706Y-110568915D01*
X174615079Y-110563102D01*
X174612340Y-110562006D01*
X174574981Y-110546532D01*
X174550967Y-110536585D01*
X174550965Y-110536584D01*
X174400001Y-110516710D01*
X174399999Y-110516710D01*
X174249034Y-110536584D01*
X174249029Y-110536586D01*
X174108359Y-110594853D01*
X174108353Y-110594856D01*
X173987552Y-110687551D01*
X173987551Y-110687552D01*
X173894856Y-110808353D01*
X173894853Y-110808359D01*
X173847181Y-110923452D01*
X173803340Y-110977856D01*
X173737046Y-110999921D01*
X173732620Y-111000000D01*
X170176168Y-111000000D01*
X170109129Y-110980315D01*
X170063374Y-110927511D01*
X170053430Y-110858353D01*
X170082455Y-110794797D01*
X170141233Y-110757023D01*
X170163297Y-110750543D01*
X170200736Y-110739551D01*
X170316440Y-110665192D01*
X170406509Y-110561247D01*
X170406658Y-110560922D01*
X170463643Y-110436140D01*
X170463644Y-110436138D01*
X170483218Y-110300000D01*
X170463644Y-110163862D01*
X170463643Y-110163859D01*
X170406511Y-110038756D01*
X170406509Y-110038754D01*
X170406509Y-110038753D01*
X170316440Y-109934808D01*
X170200736Y-109860449D01*
X170200735Y-109860448D01*
X170200734Y-109860448D01*
X170060259Y-109819201D01*
X170061203Y-109815984D01*
X170012441Y-109793721D01*
X170000000Y-109774366D01*
X169987567Y-109793713D01*
X169938796Y-109815985D01*
X169939741Y-109819201D01*
X169799265Y-109860448D01*
X169737725Y-109899998D01*
X169683560Y-109934808D01*
X169683558Y-109934809D01*
X169683558Y-109934810D01*
X169593713Y-110038497D01*
X169534934Y-110076271D01*
X169465065Y-110076271D01*
X169406287Y-110038497D01*
X169386983Y-110016219D01*
X169316440Y-109934808D01*
X169200736Y-109860449D01*
X169200735Y-109860448D01*
X169200734Y-109860448D01*
X169060259Y-109819201D01*
X169061203Y-109815984D01*
X169012441Y-109793721D01*
X169000000Y-109774366D01*
X168987567Y-109793713D01*
X168938796Y-109815985D01*
X168939741Y-109819201D01*
X168799265Y-109860448D01*
X168737725Y-109899998D01*
X168683560Y-109934808D01*
X168683558Y-109934809D01*
X168683558Y-109934810D01*
X168593713Y-110038497D01*
X168534934Y-110076271D01*
X168465065Y-110076271D01*
X168406287Y-110038497D01*
X168386983Y-110016219D01*
X168316440Y-109934808D01*
X168200736Y-109860449D01*
X168200735Y-109860448D01*
X168200734Y-109860448D01*
X168060259Y-109819201D01*
X168061203Y-109815984D01*
X168012441Y-109793721D01*
X168000000Y-109774366D01*
X167987567Y-109793713D01*
X167938796Y-109815985D01*
X167939741Y-109819201D01*
X167799265Y-109860448D01*
X167737725Y-109899998D01*
X167683560Y-109934808D01*
X167683558Y-109934809D01*
X167683558Y-109934810D01*
X167593491Y-110038753D01*
X167593488Y-110038756D01*
X167536356Y-110163859D01*
X167536356Y-110163860D01*
X167516782Y-110300000D01*
X167536356Y-110436139D01*
X167536356Y-110436140D01*
X167593488Y-110561243D01*
X167593490Y-110561245D01*
X167593491Y-110561247D01*
X167683560Y-110665192D01*
X167799264Y-110739551D01*
X167826574Y-110747570D01*
X167858767Y-110757023D01*
X167917545Y-110794797D01*
X167946570Y-110858353D01*
X167936626Y-110927511D01*
X167890872Y-110980315D01*
X167823832Y-111000000D01*
X147263200Y-111000000D01*
X147196161Y-110980315D01*
X147150406Y-110927511D01*
X147140462Y-110858353D01*
X147169487Y-110794797D01*
X147175519Y-110788319D01*
X147947619Y-110016219D01*
X148008942Y-109982734D01*
X148035300Y-109979900D01*
X149170694Y-109979900D01*
X149237733Y-109999585D01*
X149269069Y-110028413D01*
X149333551Y-110112447D01*
X149333552Y-110112448D01*
X149454353Y-110205143D01*
X149454359Y-110205146D01*
X149520881Y-110232700D01*
X149595033Y-110263415D01*
X149670516Y-110273352D01*
X149745999Y-110283290D01*
X149746000Y-110283290D01*
X149746001Y-110283290D01*
X149796322Y-110276665D01*
X149896967Y-110263415D01*
X150037645Y-110205144D01*
X150158448Y-110112448D01*
X150251144Y-109991645D01*
X150309415Y-109850967D01*
X150309542Y-109850001D01*
X155416710Y-109850001D01*
X155436584Y-110000965D01*
X155436586Y-110000970D01*
X155494853Y-110141640D01*
X155494856Y-110141646D01*
X155587551Y-110262447D01*
X155587552Y-110262448D01*
X155708353Y-110355143D01*
X155708359Y-110355146D01*
X155778694Y-110384279D01*
X155849033Y-110413415D01*
X155924516Y-110423352D01*
X155999999Y-110433290D01*
X156000000Y-110433290D01*
X156000001Y-110433290D01*
X156055867Y-110425935D01*
X156150967Y-110413415D01*
X156291645Y-110355144D01*
X156412448Y-110262448D01*
X156505144Y-110141645D01*
X156563415Y-110000967D01*
X156583290Y-109850000D01*
X156563415Y-109699033D01*
X156533011Y-109625632D01*
X156505146Y-109558359D01*
X156505143Y-109558353D01*
X156412448Y-109437552D01*
X156412447Y-109437551D01*
X156291646Y-109344856D01*
X156291640Y-109344853D01*
X156150970Y-109286586D01*
X156150965Y-109286584D01*
X156000001Y-109266710D01*
X155999999Y-109266710D01*
X155849034Y-109286584D01*
X155849029Y-109286586D01*
X155708359Y-109344853D01*
X155708353Y-109344856D01*
X155587552Y-109437551D01*
X155587551Y-109437552D01*
X155494856Y-109558353D01*
X155494853Y-109558359D01*
X155436586Y-109699029D01*
X155436584Y-109699034D01*
X155416710Y-109849998D01*
X155416710Y-109850001D01*
X150309542Y-109850001D01*
X150329290Y-109700000D01*
X150309415Y-109549033D01*
X150263238Y-109437552D01*
X150251146Y-109408359D01*
X150251143Y-109408353D01*
X150158448Y-109287552D01*
X150158447Y-109287551D01*
X150037646Y-109194856D01*
X150037640Y-109194853D01*
X149896970Y-109136586D01*
X149896965Y-109136584D01*
X149746001Y-109116710D01*
X149745999Y-109116710D01*
X149595034Y-109136584D01*
X149595029Y-109136586D01*
X149454359Y-109194853D01*
X149454353Y-109194856D01*
X149333552Y-109287551D01*
X149333551Y-109287552D01*
X149269069Y-109371587D01*
X149212641Y-109412789D01*
X149170694Y-109420100D01*
X147926831Y-109420100D01*
X147918255Y-109419505D01*
X147907340Y-109417982D01*
X147862954Y-109420034D01*
X147860091Y-109420100D01*
X147842065Y-109420100D01*
X147842047Y-109420101D01*
X147839879Y-109420506D01*
X147831369Y-109421492D01*
X147802808Y-109422813D01*
X147802802Y-109422815D01*
X147797800Y-109425024D01*
X147770516Y-109433474D01*
X147765139Y-109434479D01*
X147765133Y-109434481D01*
X147740833Y-109449527D01*
X147733232Y-109453534D01*
X147707079Y-109465082D01*
X147703210Y-109468952D01*
X147680816Y-109486690D01*
X147676166Y-109489569D01*
X147676165Y-109489569D01*
X147658937Y-109512382D01*
X147653296Y-109518865D01*
X146208480Y-110963681D01*
X146147157Y-110997166D01*
X146120799Y-111000000D01*
X138803900Y-111000000D01*
X138736861Y-110980315D01*
X138691106Y-110927511D01*
X138679900Y-110876000D01*
X138679900Y-110858822D01*
X138680495Y-110850246D01*
X138682014Y-110839346D01*
X138682017Y-110839340D01*
X138679966Y-110794965D01*
X138679900Y-110792103D01*
X138679900Y-110774067D01*
X138679900Y-110774065D01*
X138679495Y-110771905D01*
X138678504Y-110763358D01*
X138677185Y-110734807D01*
X138674979Y-110729811D01*
X138666524Y-110702506D01*
X138665520Y-110697138D01*
X138665520Y-110697137D01*
X138650468Y-110672829D01*
X138646466Y-110665238D01*
X138634916Y-110639078D01*
X138631052Y-110635214D01*
X138613306Y-110612810D01*
X138610431Y-110608167D01*
X138587620Y-110590940D01*
X138581135Y-110585297D01*
X138316219Y-110320381D01*
X138282734Y-110259058D01*
X138279900Y-110232700D01*
X138279900Y-109575306D01*
X138299585Y-109508267D01*
X138328413Y-109476931D01*
X138383734Y-109434481D01*
X138412448Y-109412448D01*
X138505144Y-109291645D01*
X138563415Y-109150967D01*
X138583290Y-109000000D01*
X138578682Y-108965001D01*
X141669710Y-108965001D01*
X141689584Y-109115965D01*
X141689586Y-109115970D01*
X141747853Y-109256640D01*
X141747856Y-109256646D01*
X141840551Y-109377447D01*
X141840552Y-109377448D01*
X141961353Y-109470143D01*
X141961359Y-109470146D01*
X142001300Y-109486690D01*
X142102033Y-109528415D01*
X142139587Y-109533359D01*
X142252999Y-109548290D01*
X142253000Y-109548290D01*
X142253001Y-109548290D01*
X142319380Y-109539551D01*
X142403967Y-109528415D01*
X142544645Y-109470144D01*
X142665448Y-109377448D01*
X142758144Y-109256645D01*
X142816415Y-109115967D01*
X142818517Y-109100000D01*
X167516782Y-109100000D01*
X167536356Y-109236139D01*
X167536356Y-109236140D01*
X167593488Y-109361243D01*
X167593490Y-109361245D01*
X167593491Y-109361247D01*
X167683560Y-109465192D01*
X167799264Y-109539551D01*
X167863298Y-109558353D01*
X167939741Y-109580799D01*
X167938796Y-109584014D01*
X167987566Y-109606287D01*
X167999998Y-109625632D01*
X168012423Y-109606295D01*
X168061202Y-109584012D01*
X168060259Y-109580799D01*
X168100895Y-109568866D01*
X168200736Y-109539551D01*
X168316440Y-109465192D01*
X168406289Y-109361500D01*
X168465065Y-109323728D01*
X168534935Y-109323728D01*
X168593710Y-109361500D01*
X168683560Y-109465192D01*
X168799264Y-109539551D01*
X168863298Y-109558353D01*
X168939741Y-109580799D01*
X168938796Y-109584014D01*
X168987566Y-109606287D01*
X168999998Y-109625632D01*
X169012423Y-109606295D01*
X169061202Y-109584012D01*
X169060259Y-109580799D01*
X169100895Y-109568866D01*
X169200736Y-109539551D01*
X169316440Y-109465192D01*
X169406289Y-109361500D01*
X169465065Y-109323728D01*
X169534935Y-109323728D01*
X169593710Y-109361500D01*
X169683560Y-109465192D01*
X169799264Y-109539551D01*
X169863298Y-109558353D01*
X169939741Y-109580799D01*
X169938796Y-109584014D01*
X169987566Y-109606287D01*
X169999998Y-109625632D01*
X170012423Y-109606295D01*
X170061202Y-109584012D01*
X170060259Y-109580799D01*
X170100895Y-109568866D01*
X170200736Y-109539551D01*
X170256208Y-109503901D01*
X172716710Y-109503901D01*
X172736584Y-109654865D01*
X172736586Y-109654870D01*
X172794853Y-109795540D01*
X172794856Y-109795546D01*
X172887551Y-109916347D01*
X172887552Y-109916348D01*
X173008353Y-110009043D01*
X173008359Y-110009046D01*
X173078694Y-110038179D01*
X173149033Y-110067315D01*
X173217061Y-110076271D01*
X173299999Y-110087190D01*
X173300000Y-110087190D01*
X173300001Y-110087190D01*
X173350322Y-110080565D01*
X173450967Y-110067315D01*
X173591645Y-110009044D01*
X173712448Y-109916348D01*
X173724992Y-109900001D01*
X174516710Y-109900001D01*
X174536584Y-110050965D01*
X174536586Y-110050970D01*
X174594853Y-110191640D01*
X174594856Y-110191646D01*
X174678000Y-110300000D01*
X174687552Y-110312448D01*
X174735278Y-110349070D01*
X174776480Y-110405495D01*
X174779147Y-110450266D01*
X174815293Y-110431084D01*
X174884921Y-110436897D01*
X174887660Y-110437994D01*
X174927704Y-110454580D01*
X174949033Y-110463415D01*
X175024516Y-110473352D01*
X175099999Y-110483290D01*
X175100000Y-110483290D01*
X175100001Y-110483290D01*
X175150322Y-110476665D01*
X175250967Y-110463415D01*
X175391645Y-110405144D01*
X175512448Y-110312448D01*
X175605144Y-110191645D01*
X175663415Y-110050967D01*
X175678707Y-109934810D01*
X175683290Y-109900001D01*
X175683290Y-109899998D01*
X175663415Y-109749034D01*
X175663413Y-109749029D01*
X175642702Y-109699029D01*
X175624409Y-109654865D01*
X175605146Y-109608359D01*
X175605143Y-109608353D01*
X175512448Y-109487552D01*
X175512447Y-109487551D01*
X175391646Y-109394856D01*
X175391640Y-109394853D01*
X175250970Y-109336586D01*
X175250965Y-109336584D01*
X175100001Y-109316710D01*
X175099999Y-109316710D01*
X174949034Y-109336584D01*
X174949029Y-109336586D01*
X174808359Y-109394853D01*
X174808353Y-109394856D01*
X174687552Y-109487551D01*
X174687551Y-109487552D01*
X174594856Y-109608353D01*
X174594853Y-109608359D01*
X174536586Y-109749029D01*
X174536584Y-109749034D01*
X174516710Y-109899998D01*
X174516710Y-109900001D01*
X173724992Y-109900001D01*
X173805144Y-109795545D01*
X173863415Y-109654867D01*
X173877446Y-109548290D01*
X173883290Y-109503901D01*
X173883290Y-109503898D01*
X173864543Y-109361502D01*
X173863415Y-109352933D01*
X173825935Y-109262448D01*
X173805146Y-109212259D01*
X173805143Y-109212253D01*
X173712448Y-109091452D01*
X173712447Y-109091451D01*
X173591646Y-108998756D01*
X173591640Y-108998753D01*
X173450970Y-108940486D01*
X173450965Y-108940484D01*
X173300001Y-108920610D01*
X173299999Y-108920610D01*
X173149034Y-108940484D01*
X173149029Y-108940486D01*
X173008359Y-108998753D01*
X173008353Y-108998756D01*
X172887552Y-109091451D01*
X172887551Y-109091452D01*
X172794856Y-109212253D01*
X172794853Y-109212259D01*
X172736586Y-109352929D01*
X172736584Y-109352934D01*
X172716710Y-109503898D01*
X172716710Y-109503901D01*
X170256208Y-109503901D01*
X170316440Y-109465192D01*
X170406509Y-109361247D01*
X170410306Y-109352934D01*
X170463643Y-109236140D01*
X170463644Y-109236138D01*
X170483218Y-109100000D01*
X170463644Y-108963862D01*
X170452969Y-108940486D01*
X170406511Y-108838756D01*
X170406509Y-108838754D01*
X170406509Y-108838753D01*
X170316440Y-108734808D01*
X170200736Y-108660449D01*
X170200735Y-108660448D01*
X170200734Y-108660448D01*
X170060259Y-108619201D01*
X170061203Y-108615984D01*
X170012441Y-108593721D01*
X170000000Y-108574366D01*
X169987567Y-108593713D01*
X169938796Y-108615985D01*
X169939741Y-108619201D01*
X169799265Y-108660448D01*
X169739233Y-108699029D01*
X169683560Y-108734808D01*
X169683558Y-108734809D01*
X169683558Y-108734810D01*
X169593713Y-108838497D01*
X169534934Y-108876271D01*
X169465065Y-108876271D01*
X169406287Y-108838497D01*
X169327731Y-108747839D01*
X169316440Y-108734808D01*
X169200736Y-108660449D01*
X169200735Y-108660448D01*
X169200734Y-108660448D01*
X169060259Y-108619201D01*
X169061203Y-108615984D01*
X169012441Y-108593721D01*
X169000000Y-108574366D01*
X168987567Y-108593713D01*
X168938796Y-108615985D01*
X168939741Y-108619201D01*
X168799265Y-108660448D01*
X168739233Y-108699029D01*
X168683560Y-108734808D01*
X168683558Y-108734809D01*
X168683558Y-108734810D01*
X168593713Y-108838497D01*
X168534934Y-108876271D01*
X168465065Y-108876271D01*
X168406287Y-108838497D01*
X168327731Y-108747839D01*
X168316440Y-108734808D01*
X168200736Y-108660449D01*
X168200735Y-108660448D01*
X168200734Y-108660448D01*
X168060259Y-108619201D01*
X168061203Y-108615984D01*
X168012441Y-108593721D01*
X168000000Y-108574366D01*
X167987567Y-108593713D01*
X167938796Y-108615985D01*
X167939741Y-108619201D01*
X167799265Y-108660448D01*
X167739233Y-108699029D01*
X167683560Y-108734808D01*
X167683558Y-108734809D01*
X167683558Y-108734810D01*
X167593491Y-108838753D01*
X167593488Y-108838756D01*
X167536356Y-108963859D01*
X167536356Y-108963860D01*
X167516782Y-109100000D01*
X142818517Y-109100000D01*
X142831682Y-109000000D01*
X142836290Y-108965001D01*
X142836290Y-108964998D01*
X142816415Y-108814034D01*
X142816413Y-108814029D01*
X142758146Y-108673359D01*
X142758143Y-108673353D01*
X142665448Y-108552552D01*
X142665447Y-108552551D01*
X142544646Y-108459856D01*
X142544640Y-108459853D01*
X142403970Y-108401586D01*
X142403965Y-108401584D01*
X142253001Y-108381710D01*
X142252999Y-108381710D01*
X142102034Y-108401584D01*
X142102029Y-108401586D01*
X141961359Y-108459853D01*
X141961353Y-108459856D01*
X141840552Y-108552551D01*
X141840551Y-108552552D01*
X141747856Y-108673353D01*
X141747853Y-108673359D01*
X141689586Y-108814029D01*
X141689584Y-108814034D01*
X141669710Y-108964998D01*
X141669710Y-108965001D01*
X138578682Y-108965001D01*
X138563415Y-108849034D01*
X138563413Y-108849029D01*
X138505146Y-108708359D01*
X138505143Y-108708353D01*
X138412448Y-108587552D01*
X138412447Y-108587551D01*
X138291646Y-108494856D01*
X138291640Y-108494853D01*
X138150970Y-108436586D01*
X138150965Y-108436584D01*
X138000001Y-108416710D01*
X137999999Y-108416710D01*
X137849034Y-108436584D01*
X137849029Y-108436586D01*
X137708359Y-108494853D01*
X137708353Y-108494856D01*
X137587552Y-108587551D01*
X137587551Y-108587552D01*
X137494856Y-108708353D01*
X137494853Y-108708359D01*
X137436586Y-108849029D01*
X137436584Y-108849034D01*
X137416710Y-108999998D01*
X137416710Y-109000001D01*
X137436584Y-109150965D01*
X137436586Y-109150970D01*
X137494853Y-109291640D01*
X137494856Y-109291646D01*
X137587551Y-109412447D01*
X137587552Y-109412448D01*
X137671587Y-109476931D01*
X137712789Y-109533359D01*
X137720100Y-109575306D01*
X137720100Y-110341166D01*
X137719505Y-110349740D01*
X137717982Y-110360656D01*
X137720034Y-110405046D01*
X137720100Y-110407909D01*
X137720100Y-110425936D01*
X137720505Y-110428105D01*
X137721493Y-110436631D01*
X137722814Y-110465192D01*
X137725024Y-110470196D01*
X137733474Y-110497485D01*
X137734479Y-110502861D01*
X137734480Y-110502865D01*
X137749529Y-110527168D01*
X137753538Y-110534773D01*
X137765084Y-110560922D01*
X137765086Y-110560924D01*
X137768946Y-110564784D01*
X137786689Y-110587182D01*
X137789569Y-110591833D01*
X137789570Y-110591834D01*
X137789569Y-110591834D01*
X137812378Y-110609058D01*
X137818856Y-110614694D01*
X137906668Y-110702506D01*
X137992481Y-110788319D01*
X138025966Y-110849642D01*
X138020982Y-110919334D01*
X137979110Y-110975267D01*
X137913646Y-110999684D01*
X137904800Y-111000000D01*
X132176168Y-111000000D01*
X132109129Y-110980315D01*
X132063374Y-110927511D01*
X132053430Y-110858353D01*
X132082455Y-110794797D01*
X132141233Y-110757023D01*
X132163297Y-110750543D01*
X132200736Y-110739551D01*
X132316440Y-110665192D01*
X132406509Y-110561247D01*
X132406658Y-110560922D01*
X132463643Y-110436140D01*
X132463644Y-110436138D01*
X132483218Y-110300000D01*
X132463644Y-110163862D01*
X132463643Y-110163859D01*
X132406511Y-110038756D01*
X132406509Y-110038754D01*
X132406509Y-110038753D01*
X132316440Y-109934808D01*
X132200736Y-109860449D01*
X132200735Y-109860448D01*
X132200734Y-109860448D01*
X132060259Y-109819201D01*
X132061203Y-109815984D01*
X132012441Y-109793721D01*
X132000000Y-109774366D01*
X131987567Y-109793713D01*
X131938796Y-109815985D01*
X131939741Y-109819201D01*
X131799265Y-109860448D01*
X131737725Y-109899998D01*
X131683560Y-109934808D01*
X131683558Y-109934809D01*
X131683558Y-109934810D01*
X131593713Y-110038497D01*
X131534934Y-110076271D01*
X131465065Y-110076271D01*
X131406287Y-110038497D01*
X131386983Y-110016219D01*
X131316440Y-109934808D01*
X131200736Y-109860449D01*
X131200735Y-109860448D01*
X131200734Y-109860448D01*
X131060259Y-109819201D01*
X131061203Y-109815984D01*
X131012441Y-109793721D01*
X131000000Y-109774366D01*
X130987567Y-109793713D01*
X130938796Y-109815985D01*
X130939741Y-109819201D01*
X130799265Y-109860448D01*
X130737725Y-109899998D01*
X130683560Y-109934808D01*
X130683558Y-109934809D01*
X130683558Y-109934810D01*
X130593713Y-110038497D01*
X130534934Y-110076271D01*
X130465065Y-110076271D01*
X130406287Y-110038497D01*
X130386983Y-110016219D01*
X130316440Y-109934808D01*
X130200736Y-109860449D01*
X130200735Y-109860448D01*
X130200734Y-109860448D01*
X130060259Y-109819201D01*
X130061203Y-109815984D01*
X130012441Y-109793721D01*
X130000000Y-109774366D01*
X129987567Y-109793713D01*
X129938796Y-109815985D01*
X129939741Y-109819201D01*
X129799265Y-109860448D01*
X129737725Y-109899998D01*
X129683560Y-109934808D01*
X129683558Y-109934809D01*
X129683558Y-109934810D01*
X129593491Y-110038753D01*
X129593488Y-110038756D01*
X129536356Y-110163859D01*
X129536356Y-110163860D01*
X129516782Y-110300000D01*
X129536356Y-110436139D01*
X129536356Y-110436140D01*
X129593488Y-110561243D01*
X129593490Y-110561245D01*
X129593491Y-110561247D01*
X129683560Y-110665192D01*
X129799264Y-110739551D01*
X129826574Y-110747570D01*
X129858767Y-110757023D01*
X129917545Y-110794797D01*
X129946570Y-110858353D01*
X129936626Y-110927511D01*
X129890872Y-110980315D01*
X129823832Y-111000000D01*
X121454700Y-111000000D01*
X121387661Y-110980315D01*
X121341906Y-110927511D01*
X121330700Y-110876000D01*
X121330700Y-109100000D01*
X129516782Y-109100000D01*
X129536356Y-109236139D01*
X129536356Y-109236140D01*
X129593488Y-109361243D01*
X129593490Y-109361245D01*
X129593491Y-109361247D01*
X129683560Y-109465192D01*
X129799264Y-109539551D01*
X129863298Y-109558353D01*
X129939741Y-109580799D01*
X129938796Y-109584014D01*
X129987566Y-109606287D01*
X129999998Y-109625632D01*
X130012423Y-109606295D01*
X130061202Y-109584012D01*
X130060259Y-109580799D01*
X130100895Y-109568866D01*
X130200736Y-109539551D01*
X130316440Y-109465192D01*
X130406289Y-109361500D01*
X130465065Y-109323728D01*
X130534935Y-109323728D01*
X130593710Y-109361500D01*
X130683560Y-109465192D01*
X130799264Y-109539551D01*
X130863298Y-109558353D01*
X130939741Y-109580799D01*
X130938796Y-109584014D01*
X130987566Y-109606287D01*
X130999998Y-109625632D01*
X131012423Y-109606295D01*
X131061202Y-109584012D01*
X131060259Y-109580799D01*
X131100895Y-109568866D01*
X131200736Y-109539551D01*
X131316440Y-109465192D01*
X131406289Y-109361500D01*
X131465065Y-109323728D01*
X131534935Y-109323728D01*
X131593710Y-109361500D01*
X131683560Y-109465192D01*
X131799264Y-109539551D01*
X131863298Y-109558353D01*
X131939741Y-109580799D01*
X131938796Y-109584014D01*
X131987566Y-109606287D01*
X131999998Y-109625632D01*
X132012423Y-109606295D01*
X132061202Y-109584012D01*
X132060259Y-109580799D01*
X132100895Y-109568866D01*
X132200736Y-109539551D01*
X132316440Y-109465192D01*
X132406509Y-109361247D01*
X132410306Y-109352934D01*
X132463643Y-109236140D01*
X132463644Y-109236138D01*
X132483218Y-109100000D01*
X132463644Y-108963862D01*
X132452969Y-108940486D01*
X132406511Y-108838756D01*
X132406509Y-108838754D01*
X132406509Y-108838753D01*
X132316440Y-108734808D01*
X132200736Y-108660449D01*
X132200735Y-108660448D01*
X132200734Y-108660448D01*
X132060259Y-108619201D01*
X132061203Y-108615984D01*
X132012441Y-108593721D01*
X132000000Y-108574366D01*
X131987567Y-108593713D01*
X131938796Y-108615985D01*
X131939741Y-108619201D01*
X131799265Y-108660448D01*
X131739233Y-108699029D01*
X131683560Y-108734808D01*
X131683558Y-108734809D01*
X131683558Y-108734810D01*
X131593713Y-108838497D01*
X131534934Y-108876271D01*
X131465065Y-108876271D01*
X131406287Y-108838497D01*
X131327731Y-108747839D01*
X131316440Y-108734808D01*
X131200736Y-108660449D01*
X131200735Y-108660448D01*
X131200734Y-108660448D01*
X131060259Y-108619201D01*
X131061203Y-108615984D01*
X131012441Y-108593721D01*
X131000000Y-108574366D01*
X130987567Y-108593713D01*
X130938796Y-108615985D01*
X130939741Y-108619201D01*
X130799265Y-108660448D01*
X130739233Y-108699029D01*
X130683560Y-108734808D01*
X130683558Y-108734809D01*
X130683558Y-108734810D01*
X130593713Y-108838497D01*
X130534934Y-108876271D01*
X130465065Y-108876271D01*
X130406287Y-108838497D01*
X130327731Y-108747839D01*
X130316440Y-108734808D01*
X130200736Y-108660449D01*
X130200735Y-108660448D01*
X130200734Y-108660448D01*
X130060259Y-108619201D01*
X130061203Y-108615984D01*
X130012441Y-108593721D01*
X130000000Y-108574366D01*
X129987567Y-108593713D01*
X129938796Y-108615985D01*
X129939741Y-108619201D01*
X129799265Y-108660448D01*
X129739233Y-108699029D01*
X129683560Y-108734808D01*
X129683558Y-108734809D01*
X129683558Y-108734810D01*
X129593491Y-108838753D01*
X129593488Y-108838756D01*
X129536356Y-108963859D01*
X129536356Y-108963860D01*
X129516782Y-109100000D01*
X121330700Y-109100000D01*
X121330700Y-107900000D01*
X129516782Y-107900000D01*
X129536356Y-108036139D01*
X129536356Y-108036140D01*
X129593488Y-108161243D01*
X129593490Y-108161245D01*
X129593491Y-108161247D01*
X129683560Y-108265192D01*
X129799264Y-108339551D01*
X129827923Y-108347966D01*
X129939741Y-108380799D01*
X129938796Y-108384014D01*
X129987566Y-108406287D01*
X129999998Y-108425632D01*
X130012423Y-108406295D01*
X130061202Y-108384012D01*
X130060259Y-108380799D01*
X130100895Y-108368866D01*
X130200736Y-108339551D01*
X130316440Y-108265192D01*
X130406289Y-108161500D01*
X130465065Y-108123728D01*
X130534935Y-108123728D01*
X130593710Y-108161500D01*
X130683560Y-108265192D01*
X130799264Y-108339551D01*
X130827923Y-108347966D01*
X130939741Y-108380799D01*
X130938796Y-108384014D01*
X130987566Y-108406287D01*
X130999998Y-108425632D01*
X131012423Y-108406295D01*
X131061202Y-108384012D01*
X131060259Y-108380799D01*
X131100895Y-108368866D01*
X131200736Y-108339551D01*
X131316440Y-108265192D01*
X131406289Y-108161500D01*
X131465065Y-108123728D01*
X131534935Y-108123728D01*
X131593710Y-108161500D01*
X131683560Y-108265192D01*
X131799264Y-108339551D01*
X131827923Y-108347966D01*
X131939741Y-108380799D01*
X131938796Y-108384014D01*
X131987566Y-108406287D01*
X131999998Y-108425632D01*
X132012423Y-108406295D01*
X132061202Y-108384012D01*
X132060259Y-108380799D01*
X132100895Y-108368866D01*
X132200736Y-108339551D01*
X132316440Y-108265192D01*
X132406509Y-108161247D01*
X132463644Y-108036138D01*
X132483218Y-107900000D01*
X132463644Y-107763862D01*
X132434162Y-107699305D01*
X132406511Y-107638756D01*
X132406509Y-107638754D01*
X132406509Y-107638753D01*
X132316440Y-107534808D01*
X132200736Y-107460449D01*
X132200735Y-107460448D01*
X132200734Y-107460448D01*
X132060259Y-107419201D01*
X132061203Y-107415984D01*
X132026196Y-107400001D01*
X136616710Y-107400001D01*
X136636584Y-107550965D01*
X136636586Y-107550970D01*
X136694853Y-107691640D01*
X136694856Y-107691646D01*
X136787551Y-107812447D01*
X136787552Y-107812448D01*
X136908353Y-107905143D01*
X136908359Y-107905146D01*
X136978694Y-107934279D01*
X137049033Y-107963415D01*
X137124516Y-107973352D01*
X137199999Y-107983290D01*
X137200000Y-107983290D01*
X137200001Y-107983290D01*
X137250322Y-107976665D01*
X137350967Y-107963415D01*
X137491645Y-107905144D01*
X137498349Y-107900000D01*
X167516782Y-107900000D01*
X167536356Y-108036139D01*
X167536356Y-108036140D01*
X167593488Y-108161243D01*
X167593490Y-108161245D01*
X167593491Y-108161247D01*
X167683560Y-108265192D01*
X167799264Y-108339551D01*
X167827923Y-108347966D01*
X167939741Y-108380799D01*
X167938796Y-108384014D01*
X167987566Y-108406287D01*
X167999998Y-108425632D01*
X168012423Y-108406295D01*
X168061202Y-108384012D01*
X168060259Y-108380799D01*
X168100895Y-108368866D01*
X168200736Y-108339551D01*
X168316440Y-108265192D01*
X168406289Y-108161500D01*
X168465065Y-108123728D01*
X168534935Y-108123728D01*
X168593710Y-108161500D01*
X168683560Y-108265192D01*
X168799264Y-108339551D01*
X168827923Y-108347966D01*
X168939741Y-108380799D01*
X168938796Y-108384014D01*
X168987566Y-108406287D01*
X168999998Y-108425632D01*
X169012423Y-108406295D01*
X169061202Y-108384012D01*
X169060259Y-108380799D01*
X169100895Y-108368866D01*
X169200736Y-108339551D01*
X169316440Y-108265192D01*
X169406289Y-108161500D01*
X169465065Y-108123728D01*
X169534935Y-108123728D01*
X169593710Y-108161500D01*
X169683560Y-108265192D01*
X169799264Y-108339551D01*
X169827923Y-108347966D01*
X169939741Y-108380799D01*
X169938796Y-108384014D01*
X169987566Y-108406287D01*
X169999998Y-108425632D01*
X170012423Y-108406295D01*
X170061202Y-108384012D01*
X170060259Y-108380799D01*
X170100895Y-108368866D01*
X170200736Y-108339551D01*
X170316440Y-108265192D01*
X170406509Y-108161247D01*
X170463644Y-108036138D01*
X170483218Y-107900000D01*
X170463644Y-107763862D01*
X170434162Y-107699305D01*
X170406511Y-107638756D01*
X170406509Y-107638754D01*
X170406509Y-107638753D01*
X170316440Y-107534808D01*
X170200736Y-107460449D01*
X170200735Y-107460448D01*
X170200734Y-107460448D01*
X170060259Y-107419201D01*
X170061203Y-107415984D01*
X170012441Y-107393721D01*
X170000000Y-107374366D01*
X169987567Y-107393713D01*
X169938796Y-107415985D01*
X169939741Y-107419201D01*
X169799265Y-107460448D01*
X169734931Y-107501793D01*
X169683560Y-107534808D01*
X169683558Y-107534809D01*
X169683558Y-107534810D01*
X169593713Y-107638497D01*
X169534934Y-107676271D01*
X169465065Y-107676271D01*
X169406287Y-107638497D01*
X169330444Y-107550970D01*
X169316440Y-107534808D01*
X169200736Y-107460449D01*
X169200735Y-107460448D01*
X169200734Y-107460448D01*
X169060259Y-107419201D01*
X169061203Y-107415984D01*
X169012441Y-107393721D01*
X169000000Y-107374366D01*
X168987567Y-107393713D01*
X168938796Y-107415985D01*
X168939741Y-107419201D01*
X168799265Y-107460448D01*
X168734931Y-107501793D01*
X168683560Y-107534808D01*
X168683558Y-107534809D01*
X168683558Y-107534810D01*
X168593713Y-107638497D01*
X168534934Y-107676271D01*
X168465065Y-107676271D01*
X168406287Y-107638497D01*
X168330444Y-107550970D01*
X168316440Y-107534808D01*
X168200736Y-107460449D01*
X168200735Y-107460448D01*
X168200734Y-107460448D01*
X168060259Y-107419201D01*
X168061203Y-107415984D01*
X168012441Y-107393721D01*
X168000000Y-107374366D01*
X167987567Y-107393713D01*
X167938796Y-107415985D01*
X167939741Y-107419201D01*
X167799265Y-107460448D01*
X167734931Y-107501793D01*
X167683560Y-107534808D01*
X167683558Y-107534809D01*
X167683558Y-107534810D01*
X167593491Y-107638753D01*
X167593488Y-107638756D01*
X167536356Y-107763859D01*
X167536356Y-107763860D01*
X167516782Y-107900000D01*
X137498349Y-107900000D01*
X137612448Y-107812448D01*
X137705144Y-107691645D01*
X137763415Y-107550967D01*
X137783290Y-107400000D01*
X137782463Y-107393721D01*
X137763415Y-107249034D01*
X137763413Y-107249029D01*
X137705146Y-107108359D01*
X137705143Y-107108353D01*
X137612448Y-106987552D01*
X137612447Y-106987551D01*
X137491646Y-106894856D01*
X137491640Y-106894853D01*
X137350970Y-106836586D01*
X137350965Y-106836584D01*
X137200001Y-106816710D01*
X137199999Y-106816710D01*
X137049034Y-106836584D01*
X137049029Y-106836586D01*
X136908359Y-106894853D01*
X136908353Y-106894856D01*
X136787552Y-106987551D01*
X136787551Y-106987552D01*
X136694856Y-107108353D01*
X136694853Y-107108359D01*
X136636586Y-107249029D01*
X136636584Y-107249034D01*
X136616710Y-107399998D01*
X136616710Y-107400001D01*
X132026196Y-107400001D01*
X132012441Y-107393721D01*
X132000000Y-107374366D01*
X131987567Y-107393713D01*
X131938796Y-107415985D01*
X131939741Y-107419201D01*
X131799265Y-107460448D01*
X131734931Y-107501793D01*
X131683560Y-107534808D01*
X131683558Y-107534809D01*
X131683558Y-107534810D01*
X131593713Y-107638497D01*
X131534934Y-107676271D01*
X131465065Y-107676271D01*
X131406287Y-107638497D01*
X131330444Y-107550970D01*
X131316440Y-107534808D01*
X131200736Y-107460449D01*
X131200735Y-107460448D01*
X131200734Y-107460448D01*
X131060259Y-107419201D01*
X131061203Y-107415984D01*
X131012441Y-107393721D01*
X131000000Y-107374366D01*
X130987567Y-107393713D01*
X130938796Y-107415985D01*
X130939741Y-107419201D01*
X130799265Y-107460448D01*
X130734931Y-107501793D01*
X130683560Y-107534808D01*
X130683558Y-107534809D01*
X130683558Y-107534810D01*
X130593713Y-107638497D01*
X130534934Y-107676271D01*
X130465065Y-107676271D01*
X130406287Y-107638497D01*
X130330444Y-107550970D01*
X130316440Y-107534808D01*
X130200736Y-107460449D01*
X130200735Y-107460448D01*
X130200734Y-107460448D01*
X130060259Y-107419201D01*
X130061203Y-107415984D01*
X130012441Y-107393721D01*
X130000000Y-107374366D01*
X129987567Y-107393713D01*
X129938796Y-107415985D01*
X129939741Y-107419201D01*
X129799265Y-107460448D01*
X129734931Y-107501793D01*
X129683560Y-107534808D01*
X129683558Y-107534809D01*
X129683558Y-107534810D01*
X129593491Y-107638753D01*
X129593488Y-107638756D01*
X129536356Y-107763859D01*
X129536356Y-107763860D01*
X129516782Y-107900000D01*
X121330700Y-107900000D01*
X121330700Y-106700000D01*
X129516782Y-106700000D01*
X129536356Y-106836139D01*
X129536356Y-106836140D01*
X129593488Y-106961243D01*
X129593490Y-106961245D01*
X129593491Y-106961247D01*
X129683560Y-107065192D01*
X129799264Y-107139551D01*
X129876703Y-107162289D01*
X129939741Y-107180799D01*
X129938796Y-107184014D01*
X129987566Y-107206287D01*
X129999998Y-107225632D01*
X130012423Y-107206295D01*
X130061202Y-107184012D01*
X130060259Y-107180799D01*
X130100895Y-107168866D01*
X130200736Y-107139551D01*
X130316440Y-107065192D01*
X130406289Y-106961500D01*
X130465065Y-106923728D01*
X130534935Y-106923728D01*
X130593710Y-106961500D01*
X130683560Y-107065192D01*
X130799264Y-107139551D01*
X130876703Y-107162289D01*
X130939741Y-107180799D01*
X130938796Y-107184014D01*
X130987566Y-107206287D01*
X130999998Y-107225632D01*
X131012423Y-107206295D01*
X131061202Y-107184012D01*
X131060259Y-107180799D01*
X131100895Y-107168866D01*
X131200736Y-107139551D01*
X131316440Y-107065192D01*
X131406289Y-106961500D01*
X131465065Y-106923728D01*
X131534935Y-106923728D01*
X131593710Y-106961500D01*
X131683560Y-107065192D01*
X131799264Y-107139551D01*
X131876703Y-107162289D01*
X131939741Y-107180799D01*
X131938796Y-107184014D01*
X131987566Y-107206287D01*
X131999998Y-107225632D01*
X132012423Y-107206295D01*
X132061202Y-107184012D01*
X132060259Y-107180799D01*
X132100895Y-107168866D01*
X132200736Y-107139551D01*
X132316440Y-107065192D01*
X132406509Y-106961247D01*
X132463644Y-106836138D01*
X132483218Y-106700000D01*
X167516782Y-106700000D01*
X167536356Y-106836139D01*
X167536356Y-106836140D01*
X167593488Y-106961243D01*
X167593490Y-106961245D01*
X167593491Y-106961247D01*
X167683560Y-107065192D01*
X167799264Y-107139551D01*
X167876703Y-107162289D01*
X167939741Y-107180799D01*
X167938796Y-107184014D01*
X167987566Y-107206287D01*
X167999998Y-107225632D01*
X168012423Y-107206295D01*
X168061202Y-107184012D01*
X168060259Y-107180799D01*
X168100895Y-107168866D01*
X168200736Y-107139551D01*
X168316440Y-107065192D01*
X168406289Y-106961500D01*
X168465065Y-106923728D01*
X168534935Y-106923728D01*
X168593710Y-106961500D01*
X168683560Y-107065192D01*
X168799264Y-107139551D01*
X168876703Y-107162289D01*
X168939741Y-107180799D01*
X168938796Y-107184014D01*
X168987566Y-107206287D01*
X168999998Y-107225632D01*
X169012423Y-107206295D01*
X169061202Y-107184012D01*
X169060259Y-107180799D01*
X169100895Y-107168866D01*
X169200736Y-107139551D01*
X169316440Y-107065192D01*
X169406289Y-106961500D01*
X169465065Y-106923728D01*
X169534935Y-106923728D01*
X169593710Y-106961500D01*
X169683560Y-107065192D01*
X169799264Y-107139551D01*
X169876703Y-107162289D01*
X169939741Y-107180799D01*
X169938796Y-107184014D01*
X169987566Y-107206287D01*
X169999998Y-107225632D01*
X170012423Y-107206295D01*
X170061202Y-107184012D01*
X170060259Y-107180799D01*
X170100895Y-107168866D01*
X170200736Y-107139551D01*
X170316440Y-107065192D01*
X170406509Y-106961247D01*
X170463644Y-106836138D01*
X170483218Y-106700000D01*
X170463644Y-106563862D01*
X170423643Y-106476271D01*
X170406511Y-106438756D01*
X170406509Y-106438754D01*
X170406509Y-106438753D01*
X170316440Y-106334808D01*
X170200736Y-106260449D01*
X170200735Y-106260448D01*
X170200734Y-106260448D01*
X170068770Y-106221700D01*
X170068769Y-106221700D01*
X169931231Y-106221700D01*
X169931230Y-106221700D01*
X169799265Y-106260448D01*
X169737727Y-106299997D01*
X169683560Y-106334808D01*
X169683558Y-106334809D01*
X169683558Y-106334810D01*
X169593713Y-106438497D01*
X169534934Y-106476271D01*
X169465065Y-106476271D01*
X169406287Y-106438497D01*
X169316440Y-106334808D01*
X169200736Y-106260449D01*
X169200735Y-106260448D01*
X169200734Y-106260448D01*
X169068770Y-106221700D01*
X169068769Y-106221700D01*
X168931231Y-106221700D01*
X168931230Y-106221700D01*
X168799265Y-106260448D01*
X168737727Y-106299997D01*
X168683560Y-106334808D01*
X168683558Y-106334809D01*
X168683558Y-106334810D01*
X168593713Y-106438497D01*
X168534934Y-106476271D01*
X168465065Y-106476271D01*
X168406287Y-106438497D01*
X168316440Y-106334808D01*
X168200736Y-106260449D01*
X168200735Y-106260448D01*
X168200734Y-106260448D01*
X168068770Y-106221700D01*
X168068769Y-106221700D01*
X167931231Y-106221700D01*
X167931230Y-106221700D01*
X167799265Y-106260448D01*
X167737727Y-106299997D01*
X167683560Y-106334808D01*
X167683558Y-106334809D01*
X167683558Y-106334810D01*
X167593491Y-106438753D01*
X167593488Y-106438756D01*
X167536356Y-106563859D01*
X167536356Y-106563860D01*
X167516782Y-106700000D01*
X132483218Y-106700000D01*
X132463644Y-106563862D01*
X132423643Y-106476271D01*
X132406511Y-106438756D01*
X132406509Y-106438754D01*
X132406509Y-106438753D01*
X132316440Y-106334808D01*
X132200736Y-106260449D01*
X132200735Y-106260448D01*
X132200734Y-106260448D01*
X132068770Y-106221700D01*
X132068769Y-106221700D01*
X131931231Y-106221700D01*
X131931230Y-106221700D01*
X131799265Y-106260448D01*
X131737727Y-106299997D01*
X131683560Y-106334808D01*
X131683558Y-106334809D01*
X131683558Y-106334810D01*
X131593713Y-106438497D01*
X131534934Y-106476271D01*
X131465065Y-106476271D01*
X131406287Y-106438497D01*
X131316440Y-106334808D01*
X131200736Y-106260449D01*
X131200735Y-106260448D01*
X131200734Y-106260448D01*
X131068770Y-106221700D01*
X131068769Y-106221700D01*
X130931231Y-106221700D01*
X130931230Y-106221700D01*
X130799265Y-106260448D01*
X130737727Y-106299997D01*
X130683560Y-106334808D01*
X130683558Y-106334809D01*
X130683558Y-106334810D01*
X130593713Y-106438497D01*
X130534934Y-106476271D01*
X130465065Y-106476271D01*
X130406287Y-106438497D01*
X130316440Y-106334808D01*
X130200736Y-106260449D01*
X130200735Y-106260448D01*
X130200734Y-106260448D01*
X130068770Y-106221700D01*
X130068769Y-106221700D01*
X129931231Y-106221700D01*
X129931230Y-106221700D01*
X129799265Y-106260448D01*
X129737727Y-106299997D01*
X129683560Y-106334808D01*
X129683558Y-106334809D01*
X129683558Y-106334810D01*
X129593491Y-106438753D01*
X129593488Y-106438756D01*
X129536356Y-106563859D01*
X129536356Y-106563860D01*
X129516782Y-106700000D01*
X121330700Y-106700000D01*
X121330700Y-104124000D01*
X121350385Y-104056961D01*
X121403189Y-104011206D01*
X121454700Y-104000000D01*
X141651382Y-104000000D01*
X141718421Y-104019685D01*
G37*
%TD.AperFunction*%
%TD*%
%TA.AperFunction,Conductor*%
%TO.N,+3V3*%
G36*
X144939839Y-112019685D02*
G01*
X144985594Y-112072489D01*
X144995538Y-112141647D01*
X144966513Y-112205203D01*
X144960481Y-112211681D01*
X142188381Y-114983781D01*
X142127058Y-115017266D01*
X142100700Y-115020100D01*
X141575306Y-115020100D01*
X141508267Y-115000415D01*
X141476931Y-114971587D01*
X141412448Y-114887552D01*
X141412447Y-114887551D01*
X141291646Y-114794856D01*
X141291640Y-114794853D01*
X141150970Y-114736586D01*
X141150965Y-114736584D01*
X141000001Y-114716710D01*
X140999999Y-114716710D01*
X140849034Y-114736584D01*
X140849029Y-114736586D01*
X140708359Y-114794853D01*
X140708353Y-114794856D01*
X140587552Y-114887551D01*
X140587551Y-114887552D01*
X140494856Y-115008353D01*
X140494853Y-115008359D01*
X140436586Y-115149029D01*
X140436584Y-115149034D01*
X140416710Y-115299998D01*
X140416710Y-115300001D01*
X140436584Y-115450965D01*
X140436586Y-115450970D01*
X140494853Y-115591640D01*
X140494856Y-115591646D01*
X140542075Y-115653181D01*
X140567270Y-115718350D01*
X140567700Y-115728668D01*
X140567700Y-119672241D01*
X140567310Y-119679189D01*
X140563122Y-119716347D01*
X140573733Y-119772427D01*
X140582239Y-119828863D01*
X140584645Y-119836661D01*
X140587349Y-119844389D01*
X140587350Y-119844392D01*
X140614019Y-119894853D01*
X140638782Y-119946274D01*
X140638783Y-119946275D01*
X140643391Y-119953035D01*
X140648244Y-119959610D01*
X140688606Y-119999972D01*
X140727423Y-120041805D01*
X140734687Y-120047598D01*
X140734137Y-120048287D01*
X140746104Y-120057469D01*
X140895381Y-120206746D01*
X140928866Y-120268069D01*
X140931700Y-120294427D01*
X140931700Y-124792330D01*
X140912015Y-124859369D01*
X140906076Y-124867816D01*
X140858856Y-124929354D01*
X140858853Y-124929359D01*
X140800586Y-125070029D01*
X140800584Y-125070034D01*
X140780710Y-125220998D01*
X140780710Y-125221001D01*
X140800584Y-125371965D01*
X140800586Y-125371970D01*
X140858853Y-125512640D01*
X140858856Y-125512646D01*
X140951551Y-125633447D01*
X140951552Y-125633448D01*
X141072353Y-125726143D01*
X141072359Y-125726146D01*
X141142694Y-125755279D01*
X141213033Y-125784415D01*
X141288516Y-125794352D01*
X141363999Y-125804290D01*
X141364000Y-125804290D01*
X141364001Y-125804290D01*
X141414322Y-125797665D01*
X141514967Y-125784415D01*
X141655645Y-125726144D01*
X141776448Y-125633448D01*
X141869144Y-125512645D01*
X141927415Y-125371967D01*
X141947290Y-125221000D01*
X141927415Y-125070033D01*
X141869144Y-124929355D01*
X141846195Y-124899447D01*
X141821924Y-124867816D01*
X141796730Y-124802647D01*
X141796300Y-124792330D01*
X141796300Y-124487001D01*
X143221710Y-124487001D01*
X143241584Y-124637965D01*
X143241586Y-124637970D01*
X143299853Y-124778640D01*
X143299856Y-124778646D01*
X143392551Y-124899447D01*
X143392552Y-124899448D01*
X143513353Y-124992143D01*
X143513359Y-124992146D01*
X143583694Y-125021279D01*
X143654033Y-125050415D01*
X143729516Y-125060352D01*
X143804999Y-125070290D01*
X143805000Y-125070290D01*
X143805001Y-125070290D01*
X143855322Y-125063665D01*
X143955967Y-125050415D01*
X144096645Y-124992144D01*
X144217448Y-124899448D01*
X144263064Y-124840001D01*
X167196710Y-124840001D01*
X167216584Y-124990965D01*
X167216586Y-124990970D01*
X167274853Y-125131640D01*
X167274856Y-125131646D01*
X167367551Y-125252447D01*
X167367552Y-125252448D01*
X167488353Y-125345143D01*
X167488359Y-125345146D01*
X167553106Y-125371965D01*
X167629033Y-125403415D01*
X167704516Y-125413352D01*
X167779999Y-125423290D01*
X167780000Y-125423290D01*
X167780001Y-125423290D01*
X167830322Y-125416665D01*
X167930967Y-125403415D01*
X168071645Y-125345144D01*
X168192448Y-125252448D01*
X168285144Y-125131645D01*
X168343415Y-124990967D01*
X168363290Y-124840001D01*
X169736710Y-124840001D01*
X169756584Y-124990965D01*
X169756586Y-124990970D01*
X169814853Y-125131640D01*
X169814856Y-125131646D01*
X169907551Y-125252447D01*
X169907552Y-125252448D01*
X170028353Y-125345143D01*
X170028359Y-125345146D01*
X170093106Y-125371965D01*
X170169033Y-125403415D01*
X170244516Y-125413352D01*
X170319999Y-125423290D01*
X170320000Y-125423290D01*
X170320001Y-125423290D01*
X170370322Y-125416665D01*
X170470967Y-125403415D01*
X170611645Y-125345144D01*
X170732448Y-125252448D01*
X170825144Y-125131645D01*
X170883415Y-124990967D01*
X170903290Y-124840001D01*
X172276710Y-124840001D01*
X172296584Y-124990965D01*
X172296586Y-124990970D01*
X172354853Y-125131640D01*
X172354856Y-125131646D01*
X172447551Y-125252447D01*
X172447552Y-125252448D01*
X172568353Y-125345143D01*
X172568359Y-125345146D01*
X172633106Y-125371965D01*
X172709033Y-125403415D01*
X172784516Y-125413352D01*
X172859999Y-125423290D01*
X172860000Y-125423290D01*
X172860001Y-125423290D01*
X172910322Y-125416665D01*
X173010967Y-125403415D01*
X173151645Y-125345144D01*
X173272448Y-125252448D01*
X173365144Y-125131645D01*
X173423415Y-124990967D01*
X173443290Y-124840001D01*
X174816710Y-124840001D01*
X174836584Y-124990965D01*
X174836586Y-124990970D01*
X174894853Y-125131640D01*
X174894856Y-125131646D01*
X174987551Y-125252447D01*
X174987552Y-125252448D01*
X175108353Y-125345143D01*
X175108359Y-125345146D01*
X175173106Y-125371965D01*
X175249033Y-125403415D01*
X175324516Y-125413352D01*
X175399999Y-125423290D01*
X175400000Y-125423290D01*
X175400001Y-125423290D01*
X175450322Y-125416665D01*
X175550967Y-125403415D01*
X175691645Y-125345144D01*
X175812448Y-125252448D01*
X175905144Y-125131645D01*
X175963415Y-124990967D01*
X175983290Y-124840000D01*
X175978372Y-124802647D01*
X175963415Y-124689034D01*
X175963413Y-124689029D01*
X175952803Y-124663415D01*
X175928667Y-124605144D01*
X175905146Y-124548359D01*
X175905143Y-124548353D01*
X175812448Y-124427552D01*
X175812447Y-124427551D01*
X175691646Y-124334856D01*
X175691640Y-124334853D01*
X175550970Y-124276586D01*
X175550965Y-124276584D01*
X175400001Y-124256710D01*
X175399999Y-124256710D01*
X175249034Y-124276584D01*
X175249029Y-124276586D01*
X175108359Y-124334853D01*
X175108353Y-124334856D01*
X174987552Y-124427551D01*
X174987551Y-124427552D01*
X174894856Y-124548353D01*
X174894853Y-124548359D01*
X174836586Y-124689029D01*
X174836584Y-124689034D01*
X174816710Y-124839998D01*
X174816710Y-124840001D01*
X173443290Y-124840001D01*
X173443290Y-124840000D01*
X173438372Y-124802647D01*
X173423415Y-124689034D01*
X173423413Y-124689029D01*
X173412803Y-124663415D01*
X173388667Y-124605144D01*
X173365146Y-124548359D01*
X173365143Y-124548353D01*
X173272448Y-124427552D01*
X173272447Y-124427551D01*
X173151646Y-124334856D01*
X173151640Y-124334853D01*
X173010970Y-124276586D01*
X173010965Y-124276584D01*
X172860001Y-124256710D01*
X172859999Y-124256710D01*
X172709034Y-124276584D01*
X172709029Y-124276586D01*
X172568359Y-124334853D01*
X172568353Y-124334856D01*
X172447552Y-124427551D01*
X172447551Y-124427552D01*
X172354856Y-124548353D01*
X172354853Y-124548359D01*
X172296586Y-124689029D01*
X172296584Y-124689034D01*
X172276710Y-124839998D01*
X172276710Y-124840001D01*
X170903290Y-124840001D01*
X170903290Y-124840000D01*
X170898372Y-124802647D01*
X170883415Y-124689034D01*
X170883413Y-124689029D01*
X170872803Y-124663415D01*
X170848667Y-124605144D01*
X170825146Y-124548359D01*
X170825143Y-124548353D01*
X170732448Y-124427552D01*
X170732447Y-124427551D01*
X170611646Y-124334856D01*
X170611640Y-124334853D01*
X170470970Y-124276586D01*
X170470965Y-124276584D01*
X170320001Y-124256710D01*
X170319999Y-124256710D01*
X170169034Y-124276584D01*
X170169029Y-124276586D01*
X170028359Y-124334853D01*
X170028353Y-124334856D01*
X169907552Y-124427551D01*
X169907551Y-124427552D01*
X169814856Y-124548353D01*
X169814853Y-124548359D01*
X169756586Y-124689029D01*
X169756584Y-124689034D01*
X169736710Y-124839998D01*
X169736710Y-124840001D01*
X168363290Y-124840001D01*
X168363290Y-124840000D01*
X168358372Y-124802647D01*
X168343415Y-124689034D01*
X168343413Y-124689029D01*
X168332803Y-124663415D01*
X168308667Y-124605144D01*
X168285146Y-124548359D01*
X168285143Y-124548353D01*
X168192448Y-124427552D01*
X168192447Y-124427551D01*
X168071646Y-124334856D01*
X168071640Y-124334853D01*
X167930970Y-124276586D01*
X167930965Y-124276584D01*
X167780001Y-124256710D01*
X167779999Y-124256710D01*
X167629034Y-124276584D01*
X167629029Y-124276586D01*
X167488359Y-124334853D01*
X167488353Y-124334856D01*
X167367552Y-124427551D01*
X167367551Y-124427552D01*
X167274856Y-124548353D01*
X167274853Y-124548359D01*
X167216586Y-124689029D01*
X167216584Y-124689034D01*
X167196710Y-124839998D01*
X167196710Y-124840001D01*
X144263064Y-124840001D01*
X144310144Y-124778645D01*
X144368415Y-124637967D01*
X144388290Y-124487000D01*
X144380463Y-124427551D01*
X144368415Y-124336034D01*
X144368413Y-124336029D01*
X144310146Y-124195359D01*
X144310143Y-124195353D01*
X144217448Y-124074552D01*
X144217447Y-124074551D01*
X144096646Y-123981856D01*
X144096640Y-123981853D01*
X143955970Y-123923586D01*
X143955965Y-123923584D01*
X143805001Y-123903710D01*
X143804999Y-123903710D01*
X143654034Y-123923584D01*
X143654029Y-123923586D01*
X143513359Y-123981853D01*
X143513353Y-123981856D01*
X143392552Y-124074551D01*
X143392551Y-124074552D01*
X143299856Y-124195353D01*
X143299853Y-124195359D01*
X143241586Y-124336029D01*
X143241584Y-124336034D01*
X143221710Y-124486998D01*
X143221710Y-124487001D01*
X141796300Y-124487001D01*
X141796300Y-121012618D01*
X144688498Y-121012618D01*
X144708372Y-121163582D01*
X144708374Y-121163587D01*
X144766641Y-121304257D01*
X144766644Y-121304263D01*
X144859339Y-121425064D01*
X144859340Y-121425065D01*
X144980141Y-121517760D01*
X144980147Y-121517763D01*
X145050482Y-121546896D01*
X145120821Y-121576032D01*
X145172602Y-121582849D01*
X145271787Y-121595907D01*
X145271788Y-121595907D01*
X145271789Y-121595907D01*
X145350412Y-121585556D01*
X145422755Y-121576032D01*
X145563433Y-121517761D01*
X145684236Y-121425065D01*
X145776932Y-121304262D01*
X145835203Y-121163584D01*
X145855078Y-121012617D01*
X145840252Y-120900001D01*
X147016710Y-120900001D01*
X147036584Y-121050965D01*
X147036586Y-121050970D01*
X147094853Y-121191640D01*
X147094856Y-121191645D01*
X147187549Y-121312445D01*
X147187550Y-121312446D01*
X147187552Y-121312448D01*
X147220787Y-121337950D01*
X147261988Y-121394374D01*
X147269300Y-121436324D01*
X147269300Y-121582849D01*
X147269064Y-121588255D01*
X147265475Y-121629267D01*
X147276129Y-121669028D01*
X147277300Y-121674310D01*
X147284449Y-121714852D01*
X147286033Y-121719204D01*
X147293702Y-121737718D01*
X147295658Y-121741912D01*
X147295659Y-121741914D01*
X147295660Y-121741916D01*
X147319279Y-121775648D01*
X147322176Y-121780196D01*
X147342761Y-121815849D01*
X147374306Y-121842319D01*
X147378289Y-121845969D01*
X149486919Y-123954599D01*
X149520404Y-124015922D01*
X149522177Y-124058463D01*
X149516710Y-124099995D01*
X149516710Y-124100001D01*
X149536584Y-124250965D01*
X149536586Y-124250970D01*
X149594853Y-124391640D01*
X149594856Y-124391646D01*
X149687551Y-124512447D01*
X149687552Y-124512448D01*
X149808353Y-124605143D01*
X149808359Y-124605146D01*
X149878694Y-124634279D01*
X149949033Y-124663415D01*
X150024516Y-124673352D01*
X150099999Y-124683290D01*
X150100000Y-124683290D01*
X150100001Y-124683290D01*
X150150322Y-124676665D01*
X150250967Y-124663415D01*
X150391645Y-124605144D01*
X150512448Y-124512448D01*
X150605144Y-124391645D01*
X150663415Y-124250967D01*
X150683290Y-124100000D01*
X150683289Y-124099995D01*
X150663674Y-123951001D01*
X159703710Y-123951001D01*
X159723584Y-124101965D01*
X159723586Y-124101970D01*
X159781853Y-124242640D01*
X159781856Y-124242646D01*
X159874551Y-124363447D01*
X159874552Y-124363448D01*
X159995353Y-124456143D01*
X159995359Y-124456146D01*
X160065694Y-124485279D01*
X160136033Y-124514415D01*
X160211516Y-124524352D01*
X160286999Y-124534290D01*
X160287000Y-124534290D01*
X160287001Y-124534290D01*
X160337322Y-124527665D01*
X160437967Y-124514415D01*
X160578645Y-124456144D01*
X160699448Y-124363448D01*
X160792144Y-124242645D01*
X160850415Y-124101967D01*
X160870290Y-123951000D01*
X160850415Y-123800033D01*
X160792144Y-123659355D01*
X160792143Y-123659353D01*
X160699448Y-123538552D01*
X160699447Y-123538551D01*
X160578646Y-123445856D01*
X160578640Y-123445853D01*
X160437970Y-123387586D01*
X160437965Y-123387584D01*
X160287001Y-123367710D01*
X160286999Y-123367710D01*
X160136034Y-123387584D01*
X160136029Y-123387586D01*
X159995359Y-123445853D01*
X159995353Y-123445856D01*
X159874552Y-123538551D01*
X159874551Y-123538552D01*
X159781856Y-123659353D01*
X159781853Y-123659359D01*
X159723586Y-123800029D01*
X159723584Y-123800034D01*
X159703710Y-123950998D01*
X159703710Y-123951001D01*
X150663674Y-123951001D01*
X150663415Y-123949034D01*
X150663413Y-123949029D01*
X150652873Y-123923584D01*
X150605144Y-123808355D01*
X150605143Y-123808353D01*
X150512448Y-123687552D01*
X150512447Y-123687551D01*
X150391646Y-123594856D01*
X150391640Y-123594853D01*
X150250970Y-123536586D01*
X150250965Y-123536584D01*
X150100002Y-123516710D01*
X150099996Y-123516710D01*
X150058463Y-123522177D01*
X149989428Y-123511410D01*
X149954599Y-123486919D01*
X148767681Y-122300001D01*
X164656710Y-122300001D01*
X164676584Y-122450965D01*
X164676586Y-122450970D01*
X164734853Y-122591640D01*
X164734856Y-122591646D01*
X164827551Y-122712447D01*
X164827552Y-122712448D01*
X164948353Y-122805143D01*
X164948359Y-122805146D01*
X165018694Y-122834279D01*
X165089033Y-122863415D01*
X165164516Y-122873352D01*
X165239999Y-122883290D01*
X165240000Y-122883290D01*
X165240001Y-122883290D01*
X165290322Y-122876665D01*
X165390967Y-122863415D01*
X165531645Y-122805144D01*
X165652448Y-122712448D01*
X165745144Y-122591645D01*
X165803415Y-122450967D01*
X165823290Y-122300001D01*
X167196710Y-122300001D01*
X167216584Y-122450965D01*
X167216586Y-122450970D01*
X167274853Y-122591640D01*
X167274856Y-122591646D01*
X167367551Y-122712447D01*
X167367552Y-122712448D01*
X167488353Y-122805143D01*
X167488359Y-122805146D01*
X167558694Y-122834279D01*
X167629033Y-122863415D01*
X167704516Y-122873352D01*
X167779999Y-122883290D01*
X167780000Y-122883290D01*
X167780001Y-122883290D01*
X167830322Y-122876665D01*
X167930967Y-122863415D01*
X168071645Y-122805144D01*
X168192448Y-122712448D01*
X168285144Y-122591645D01*
X168343415Y-122450967D01*
X168363290Y-122300001D01*
X169736710Y-122300001D01*
X169756584Y-122450965D01*
X169756586Y-122450970D01*
X169814853Y-122591640D01*
X169814856Y-122591646D01*
X169907551Y-122712447D01*
X169907552Y-122712448D01*
X170028353Y-122805143D01*
X170028359Y-122805146D01*
X170098694Y-122834279D01*
X170169033Y-122863415D01*
X170244516Y-122873352D01*
X170319999Y-122883290D01*
X170320000Y-122883290D01*
X170320001Y-122883290D01*
X170370322Y-122876665D01*
X170470967Y-122863415D01*
X170611645Y-122805144D01*
X170732448Y-122712448D01*
X170825144Y-122591645D01*
X170883415Y-122450967D01*
X170903290Y-122300001D01*
X172276710Y-122300001D01*
X172296584Y-122450965D01*
X172296586Y-122450970D01*
X172354853Y-122591640D01*
X172354856Y-122591646D01*
X172447551Y-122712447D01*
X172447552Y-122712448D01*
X172568353Y-122805143D01*
X172568359Y-122805146D01*
X172638694Y-122834279D01*
X172709033Y-122863415D01*
X172784516Y-122873352D01*
X172859999Y-122883290D01*
X172860000Y-122883290D01*
X172860001Y-122883290D01*
X172910322Y-122876665D01*
X173010967Y-122863415D01*
X173151645Y-122805144D01*
X173272448Y-122712448D01*
X173365144Y-122591645D01*
X173423415Y-122450967D01*
X173443290Y-122300001D01*
X174816710Y-122300001D01*
X174836584Y-122450965D01*
X174836586Y-122450970D01*
X174894853Y-122591640D01*
X174894856Y-122591646D01*
X174987551Y-122712447D01*
X174987552Y-122712448D01*
X175108353Y-122805143D01*
X175108359Y-122805146D01*
X175178694Y-122834279D01*
X175249033Y-122863415D01*
X175324516Y-122873352D01*
X175399999Y-122883290D01*
X175400000Y-122883290D01*
X175400001Y-122883290D01*
X175450322Y-122876665D01*
X175550967Y-122863415D01*
X175691645Y-122805144D01*
X175812448Y-122712448D01*
X175905144Y-122591645D01*
X175963415Y-122450967D01*
X175983290Y-122300000D01*
X175963415Y-122149033D01*
X175905144Y-122008355D01*
X175905143Y-122008353D01*
X175812448Y-121887552D01*
X175812447Y-121887551D01*
X175691646Y-121794856D01*
X175691640Y-121794853D01*
X175550970Y-121736586D01*
X175550965Y-121736584D01*
X175400001Y-121716710D01*
X175399999Y-121716710D01*
X175249034Y-121736584D01*
X175249029Y-121736586D01*
X175108359Y-121794853D01*
X175108353Y-121794856D01*
X174987552Y-121887551D01*
X174987551Y-121887552D01*
X174894856Y-122008353D01*
X174894853Y-122008359D01*
X174836586Y-122149029D01*
X174836584Y-122149034D01*
X174816710Y-122299998D01*
X174816710Y-122300001D01*
X173443290Y-122300001D01*
X173443290Y-122300000D01*
X173423415Y-122149033D01*
X173365144Y-122008355D01*
X173365143Y-122008353D01*
X173272448Y-121887552D01*
X173272447Y-121887551D01*
X173151646Y-121794856D01*
X173151640Y-121794853D01*
X173010970Y-121736586D01*
X173010965Y-121736584D01*
X172860001Y-121716710D01*
X172859999Y-121716710D01*
X172709034Y-121736584D01*
X172709029Y-121736586D01*
X172568359Y-121794853D01*
X172568353Y-121794856D01*
X172447552Y-121887551D01*
X172447551Y-121887552D01*
X172354856Y-122008353D01*
X172354853Y-122008359D01*
X172296586Y-122149029D01*
X172296584Y-122149034D01*
X172276710Y-122299998D01*
X172276710Y-122300001D01*
X170903290Y-122300001D01*
X170903290Y-122300000D01*
X170883415Y-122149033D01*
X170825144Y-122008355D01*
X170825143Y-122008353D01*
X170732448Y-121887552D01*
X170732447Y-121887551D01*
X170611646Y-121794856D01*
X170611640Y-121794853D01*
X170470970Y-121736586D01*
X170470965Y-121736584D01*
X170320001Y-121716710D01*
X170319999Y-121716710D01*
X170169034Y-121736584D01*
X170169029Y-121736586D01*
X170028359Y-121794853D01*
X170028353Y-121794856D01*
X169907552Y-121887551D01*
X169907551Y-121887552D01*
X169814856Y-122008353D01*
X169814853Y-122008359D01*
X169756586Y-122149029D01*
X169756584Y-122149034D01*
X169736710Y-122299998D01*
X169736710Y-122300001D01*
X168363290Y-122300001D01*
X168363290Y-122300000D01*
X168343415Y-122149033D01*
X168285144Y-122008355D01*
X168285143Y-122008353D01*
X168192448Y-121887552D01*
X168192447Y-121887551D01*
X168071646Y-121794856D01*
X168071640Y-121794853D01*
X167930970Y-121736586D01*
X167930965Y-121736584D01*
X167780001Y-121716710D01*
X167779999Y-121716710D01*
X167629034Y-121736584D01*
X167629029Y-121736586D01*
X167488359Y-121794853D01*
X167488353Y-121794856D01*
X167367552Y-121887551D01*
X167367551Y-121887552D01*
X167274856Y-122008353D01*
X167274853Y-122008359D01*
X167216586Y-122149029D01*
X167216584Y-122149034D01*
X167196710Y-122299998D01*
X167196710Y-122300001D01*
X165823290Y-122300001D01*
X165823290Y-122300000D01*
X165803415Y-122149033D01*
X165745144Y-122008355D01*
X165745143Y-122008353D01*
X165652448Y-121887552D01*
X165652447Y-121887551D01*
X165531646Y-121794856D01*
X165531640Y-121794853D01*
X165390970Y-121736586D01*
X165390965Y-121736584D01*
X165240001Y-121716710D01*
X165239999Y-121716710D01*
X165089034Y-121736584D01*
X165089029Y-121736586D01*
X164948359Y-121794853D01*
X164948353Y-121794856D01*
X164827552Y-121887551D01*
X164827551Y-121887552D01*
X164734856Y-122008353D01*
X164734853Y-122008359D01*
X164676586Y-122149029D01*
X164676584Y-122149034D01*
X164656710Y-122299998D01*
X164656710Y-122300001D01*
X148767681Y-122300001D01*
X148090381Y-121622701D01*
X155639710Y-121622701D01*
X155659584Y-121773665D01*
X155659586Y-121773670D01*
X155717853Y-121914340D01*
X155717856Y-121914346D01*
X155810551Y-122035147D01*
X155810552Y-122035148D01*
X155931353Y-122127843D01*
X155931359Y-122127846D01*
X155982512Y-122149034D01*
X156072033Y-122186115D01*
X156147516Y-122196052D01*
X156222999Y-122205990D01*
X156223000Y-122205990D01*
X156223001Y-122205990D01*
X156273322Y-122199365D01*
X156373967Y-122186115D01*
X156514645Y-122127844D01*
X156635448Y-122035148D01*
X156728144Y-121914345D01*
X156786415Y-121773667D01*
X156800191Y-121669028D01*
X156806290Y-121622701D01*
X156806290Y-121622698D01*
X156786415Y-121471734D01*
X156786413Y-121471729D01*
X156728146Y-121331059D01*
X156728143Y-121331053D01*
X156635448Y-121210252D01*
X156635447Y-121210251D01*
X156514646Y-121117556D01*
X156514640Y-121117553D01*
X156373970Y-121059286D01*
X156373965Y-121059284D01*
X156223001Y-121039410D01*
X156222999Y-121039410D01*
X156072034Y-121059284D01*
X156072029Y-121059286D01*
X155931359Y-121117553D01*
X155931353Y-121117556D01*
X155810552Y-121210251D01*
X155810551Y-121210252D01*
X155717856Y-121331053D01*
X155717853Y-121331059D01*
X155659586Y-121471729D01*
X155659584Y-121471734D01*
X155639710Y-121622698D01*
X155639710Y-121622701D01*
X148090381Y-121622701D01*
X147980976Y-121513296D01*
X147947491Y-121451973D01*
X147952475Y-121382281D01*
X147993170Y-121327240D01*
X148012448Y-121312448D01*
X148105144Y-121191645D01*
X148163415Y-121050967D01*
X148182079Y-120909201D01*
X157016710Y-120909201D01*
X157036584Y-121060165D01*
X157036586Y-121060170D01*
X157094853Y-121200840D01*
X157094856Y-121200846D01*
X157187551Y-121321647D01*
X157187552Y-121321648D01*
X157308353Y-121414343D01*
X157308359Y-121414346D01*
X157361419Y-121436324D01*
X157449033Y-121472615D01*
X157524516Y-121482552D01*
X157599999Y-121492490D01*
X157600000Y-121492490D01*
X157600001Y-121492490D01*
X157650322Y-121485865D01*
X157750967Y-121472615D01*
X157891645Y-121414344D01*
X158012448Y-121321648D01*
X158105144Y-121200845D01*
X158163415Y-121060167D01*
X158183290Y-120909200D01*
X158177029Y-120861646D01*
X158163415Y-120758234D01*
X158163413Y-120758229D01*
X158159604Y-120749034D01*
X158134279Y-120687894D01*
X158105146Y-120617559D01*
X158105143Y-120617553D01*
X158012448Y-120496752D01*
X158012447Y-120496751D01*
X157891646Y-120404056D01*
X157891640Y-120404053D01*
X157750970Y-120345786D01*
X157750965Y-120345784D01*
X157600001Y-120325910D01*
X157599999Y-120325910D01*
X157449034Y-120345784D01*
X157449029Y-120345786D01*
X157308359Y-120404053D01*
X157308353Y-120404056D01*
X157187552Y-120496751D01*
X157187551Y-120496752D01*
X157094856Y-120617553D01*
X157094853Y-120617559D01*
X157036586Y-120758229D01*
X157036584Y-120758234D01*
X157016710Y-120909198D01*
X157016710Y-120909201D01*
X148182079Y-120909201D01*
X148183290Y-120900000D01*
X148163415Y-120749033D01*
X148110700Y-120621770D01*
X148103232Y-120552301D01*
X148134507Y-120489822D01*
X148194596Y-120454170D01*
X148261605Y-120456563D01*
X148261755Y-120456053D01*
X148263754Y-120456640D01*
X148264421Y-120456664D01*
X148266140Y-120457340D01*
X148402230Y-120497300D01*
X148402231Y-120497300D01*
X148539769Y-120497300D01*
X148671736Y-120458551D01*
X148787440Y-120384192D01*
X148877509Y-120280247D01*
X148883071Y-120268069D01*
X148934643Y-120155140D01*
X148934644Y-120155138D01*
X148954218Y-120019000D01*
X149262782Y-120019000D01*
X149282356Y-120155139D01*
X149282356Y-120155140D01*
X149339488Y-120280243D01*
X149339490Y-120280245D01*
X149339491Y-120280247D01*
X149429560Y-120384192D01*
X149545264Y-120458551D01*
X149611247Y-120477925D01*
X149677230Y-120497300D01*
X149677231Y-120497300D01*
X149814769Y-120497300D01*
X149946736Y-120458551D01*
X150062440Y-120384192D01*
X150152509Y-120280247D01*
X150158071Y-120268069D01*
X150209643Y-120155140D01*
X150209644Y-120155138D01*
X150229218Y-120019000D01*
X150537782Y-120019000D01*
X150557356Y-120155139D01*
X150557356Y-120155140D01*
X150614488Y-120280243D01*
X150614490Y-120280245D01*
X150614491Y-120280247D01*
X150704560Y-120384192D01*
X150820264Y-120458551D01*
X150886247Y-120477925D01*
X150952230Y-120497300D01*
X150952231Y-120497300D01*
X151089769Y-120497300D01*
X151221736Y-120458551D01*
X151337440Y-120384192D01*
X151427509Y-120280247D01*
X151433071Y-120268069D01*
X151484643Y-120155140D01*
X151484644Y-120155138D01*
X151504218Y-120019000D01*
X151484644Y-119882862D01*
X151484643Y-119882859D01*
X151427511Y-119757756D01*
X151427509Y-119757754D01*
X151427509Y-119757753D01*
X151337440Y-119653808D01*
X151221736Y-119579449D01*
X151221735Y-119579448D01*
X151221734Y-119579448D01*
X151089770Y-119540700D01*
X151089769Y-119540700D01*
X150952231Y-119540700D01*
X150952230Y-119540700D01*
X150820265Y-119579448D01*
X150814287Y-119583290D01*
X150704560Y-119653808D01*
X150704558Y-119653809D01*
X150704558Y-119653810D01*
X150614491Y-119757753D01*
X150614488Y-119757756D01*
X150557356Y-119882859D01*
X150557356Y-119882860D01*
X150537782Y-120019000D01*
X150229218Y-120019000D01*
X150209644Y-119882862D01*
X150209643Y-119882859D01*
X150152511Y-119757756D01*
X150152509Y-119757754D01*
X150152509Y-119757753D01*
X150062440Y-119653808D01*
X149946736Y-119579449D01*
X149946735Y-119579448D01*
X149946734Y-119579448D01*
X149814770Y-119540700D01*
X149814769Y-119540700D01*
X149677231Y-119540700D01*
X149677230Y-119540700D01*
X149545265Y-119579448D01*
X149539287Y-119583290D01*
X149429560Y-119653808D01*
X149429558Y-119653809D01*
X149429558Y-119653810D01*
X149339491Y-119757753D01*
X149339488Y-119757756D01*
X149282356Y-119882859D01*
X149282356Y-119882860D01*
X149262782Y-120019000D01*
X148954218Y-120019000D01*
X148934644Y-119882862D01*
X148934643Y-119882859D01*
X148877511Y-119757756D01*
X148877509Y-119757754D01*
X148877509Y-119757753D01*
X148787440Y-119653808D01*
X148671736Y-119579449D01*
X148671735Y-119579448D01*
X148671734Y-119579448D01*
X148539770Y-119540700D01*
X148539769Y-119540700D01*
X148402231Y-119540700D01*
X148402230Y-119540700D01*
X148270265Y-119579448D01*
X148264287Y-119583290D01*
X148154560Y-119653808D01*
X148154558Y-119653809D01*
X148154558Y-119653810D01*
X148064491Y-119757753D01*
X148064488Y-119757756D01*
X148007356Y-119882859D01*
X148007356Y-119882860D01*
X147987782Y-120019000D01*
X148007355Y-120155138D01*
X148038444Y-120223212D01*
X148048388Y-120292371D01*
X148019363Y-120355927D01*
X147960585Y-120393701D01*
X147890715Y-120393701D01*
X147878198Y-120389285D01*
X147750970Y-120336586D01*
X147750965Y-120336584D01*
X147600001Y-120316710D01*
X147599999Y-120316710D01*
X147449034Y-120336584D01*
X147449029Y-120336586D01*
X147308359Y-120394853D01*
X147308353Y-120394856D01*
X147187552Y-120487551D01*
X147187551Y-120487552D01*
X147094856Y-120608353D01*
X147094853Y-120608359D01*
X147036586Y-120749029D01*
X147036584Y-120749034D01*
X147016710Y-120899998D01*
X147016710Y-120900001D01*
X145840252Y-120900001D01*
X145835203Y-120861650D01*
X145806067Y-120791311D01*
X145776934Y-120720976D01*
X145776931Y-120720970D01*
X145684236Y-120600169D01*
X145684235Y-120600168D01*
X145563434Y-120507473D01*
X145563428Y-120507470D01*
X145422758Y-120449203D01*
X145422753Y-120449201D01*
X145271789Y-120429327D01*
X145271787Y-120429327D01*
X145120822Y-120449201D01*
X145120817Y-120449203D01*
X144980147Y-120507470D01*
X144980141Y-120507473D01*
X144859340Y-120600168D01*
X144859339Y-120600169D01*
X144766644Y-120720970D01*
X144766641Y-120720976D01*
X144708374Y-120861646D01*
X144708372Y-120861651D01*
X144688498Y-121012615D01*
X144688498Y-121012618D01*
X141796300Y-121012618D01*
X141796300Y-120091764D01*
X141796690Y-120084816D01*
X141800878Y-120047653D01*
X141790263Y-119991557D01*
X141781759Y-119935134D01*
X141779352Y-119927328D01*
X141776651Y-119919611D01*
X141776650Y-119919609D01*
X141776650Y-119919608D01*
X141757228Y-119882859D01*
X141749980Y-119869145D01*
X141730581Y-119828863D01*
X141725218Y-119817726D01*
X141725216Y-119817724D01*
X141720615Y-119810974D01*
X141715757Y-119804391D01*
X141675392Y-119764027D01*
X141636578Y-119722196D01*
X141629315Y-119716404D01*
X141629863Y-119715716D01*
X141617897Y-119706532D01*
X141468619Y-119557254D01*
X141435134Y-119495931D01*
X141432300Y-119469573D01*
X141432300Y-119000001D01*
X142216710Y-119000001D01*
X142236584Y-119150965D01*
X142236586Y-119150970D01*
X142294853Y-119291640D01*
X142294856Y-119291646D01*
X142387551Y-119412447D01*
X142387552Y-119412448D01*
X142508353Y-119505143D01*
X142508359Y-119505146D01*
X142578694Y-119534279D01*
X142649033Y-119563415D01*
X142724516Y-119573352D01*
X142799999Y-119583290D01*
X142800000Y-119583290D01*
X142800001Y-119583290D01*
X142850322Y-119576665D01*
X142950967Y-119563415D01*
X143091645Y-119505144D01*
X143212448Y-119412448D01*
X143305144Y-119291645D01*
X143363415Y-119150967D01*
X143379463Y-119029067D01*
X143407729Y-118965171D01*
X143466054Y-118926700D01*
X143518588Y-118922314D01*
X143521175Y-118922654D01*
X143521179Y-118922656D01*
X143672146Y-118942531D01*
X143672147Y-118942531D01*
X143722468Y-118935906D01*
X143823113Y-118922656D01*
X143963791Y-118864385D01*
X144084594Y-118771689D01*
X144105841Y-118744000D01*
X147987782Y-118744000D01*
X148007356Y-118880139D01*
X148007356Y-118880140D01*
X148064488Y-119005243D01*
X148064490Y-119005245D01*
X148064491Y-119005247D01*
X148154560Y-119109192D01*
X148270264Y-119183551D01*
X148314654Y-119196585D01*
X148402230Y-119222300D01*
X148402231Y-119222300D01*
X148539769Y-119222300D01*
X148671736Y-119183551D01*
X148787440Y-119109192D01*
X148877509Y-119005247D01*
X148934644Y-118880138D01*
X148954218Y-118744000D01*
X149262782Y-118744000D01*
X149282356Y-118880139D01*
X149282356Y-118880140D01*
X149339488Y-119005243D01*
X149339490Y-119005245D01*
X149339491Y-119005247D01*
X149429560Y-119109192D01*
X149545264Y-119183551D01*
X149589654Y-119196585D01*
X149677230Y-119222300D01*
X149677231Y-119222300D01*
X149814769Y-119222300D01*
X149946736Y-119183551D01*
X150062440Y-119109192D01*
X150152509Y-119005247D01*
X150209644Y-118880138D01*
X150229218Y-118744000D01*
X150537782Y-118744000D01*
X150557356Y-118880139D01*
X150557356Y-118880140D01*
X150614488Y-119005243D01*
X150614490Y-119005245D01*
X150614491Y-119005247D01*
X150704560Y-119109192D01*
X150820264Y-119183551D01*
X150864654Y-119196585D01*
X150952230Y-119222300D01*
X150952231Y-119222300D01*
X151089769Y-119222300D01*
X151115036Y-119214881D01*
X158131590Y-119214881D01*
X158151464Y-119365845D01*
X158151466Y-119365850D01*
X158209733Y-119506520D01*
X158209736Y-119506526D01*
X158302431Y-119627327D01*
X158302432Y-119627328D01*
X158423233Y-119720023D01*
X158423239Y-119720026D01*
X158493574Y-119749159D01*
X158563913Y-119778295D01*
X158639396Y-119788232D01*
X158714879Y-119798170D01*
X158714880Y-119798170D01*
X158714881Y-119798170D01*
X158765202Y-119791545D01*
X158865847Y-119778295D01*
X158910012Y-119760001D01*
X164656710Y-119760001D01*
X164676584Y-119910965D01*
X164676586Y-119910970D01*
X164734853Y-120051640D01*
X164734856Y-120051646D01*
X164827551Y-120172447D01*
X164827552Y-120172448D01*
X164948353Y-120265143D01*
X164948359Y-120265146D01*
X165014086Y-120292371D01*
X165089033Y-120323415D01*
X165107985Y-120325910D01*
X165239999Y-120343290D01*
X165240000Y-120343290D01*
X165240001Y-120343290D01*
X165290938Y-120336584D01*
X165390967Y-120323415D01*
X165531645Y-120265144D01*
X165652448Y-120172448D01*
X165745144Y-120051645D01*
X165803415Y-119910967D01*
X165818265Y-119798170D01*
X165823290Y-119760001D01*
X167196710Y-119760001D01*
X167216584Y-119910965D01*
X167216586Y-119910970D01*
X167274853Y-120051640D01*
X167274856Y-120051646D01*
X167367551Y-120172447D01*
X167367552Y-120172448D01*
X167488353Y-120265143D01*
X167488359Y-120265146D01*
X167554086Y-120292371D01*
X167629033Y-120323415D01*
X167647985Y-120325910D01*
X167779999Y-120343290D01*
X167780000Y-120343290D01*
X167780001Y-120343290D01*
X167830938Y-120336584D01*
X167930967Y-120323415D01*
X168071645Y-120265144D01*
X168192448Y-120172448D01*
X168285144Y-120051645D01*
X168343415Y-119910967D01*
X168358265Y-119798170D01*
X168363290Y-119760001D01*
X169736710Y-119760001D01*
X169756584Y-119910965D01*
X169756586Y-119910970D01*
X169814853Y-120051640D01*
X169814856Y-120051646D01*
X169907551Y-120172447D01*
X169907552Y-120172448D01*
X170028353Y-120265143D01*
X170028359Y-120265146D01*
X170094086Y-120292371D01*
X170169033Y-120323415D01*
X170187985Y-120325910D01*
X170319999Y-120343290D01*
X170320000Y-120343290D01*
X170320001Y-120343290D01*
X170370938Y-120336584D01*
X170470967Y-120323415D01*
X170611645Y-120265144D01*
X170732448Y-120172448D01*
X170825144Y-120051645D01*
X170883415Y-119910967D01*
X170898265Y-119798170D01*
X170903290Y-119760001D01*
X172276710Y-119760001D01*
X172296584Y-119910965D01*
X172296586Y-119910970D01*
X172354853Y-120051640D01*
X172354856Y-120051646D01*
X172447551Y-120172447D01*
X172447552Y-120172448D01*
X172568353Y-120265143D01*
X172568359Y-120265146D01*
X172634086Y-120292371D01*
X172709033Y-120323415D01*
X172727985Y-120325910D01*
X172859999Y-120343290D01*
X172860000Y-120343290D01*
X172860001Y-120343290D01*
X172910938Y-120336584D01*
X173010967Y-120323415D01*
X173151645Y-120265144D01*
X173272448Y-120172448D01*
X173365144Y-120051645D01*
X173423415Y-119910967D01*
X173438265Y-119798170D01*
X173443290Y-119760001D01*
X174816710Y-119760001D01*
X174836584Y-119910965D01*
X174836586Y-119910970D01*
X174894853Y-120051640D01*
X174894856Y-120051646D01*
X174987551Y-120172447D01*
X174987552Y-120172448D01*
X175108353Y-120265143D01*
X175108359Y-120265146D01*
X175174086Y-120292371D01*
X175249033Y-120323415D01*
X175267985Y-120325910D01*
X175399999Y-120343290D01*
X175400000Y-120343290D01*
X175400001Y-120343290D01*
X175450938Y-120336584D01*
X175550967Y-120323415D01*
X175691645Y-120265144D01*
X175812448Y-120172448D01*
X175905144Y-120051645D01*
X175963415Y-119910967D01*
X175978265Y-119798170D01*
X175983290Y-119760001D01*
X175983290Y-119759998D01*
X175969310Y-119653807D01*
X175963415Y-119609033D01*
X175934279Y-119538694D01*
X175905146Y-119468359D01*
X175905143Y-119468353D01*
X175812448Y-119347552D01*
X175812447Y-119347551D01*
X175691646Y-119254856D01*
X175691640Y-119254853D01*
X175550970Y-119196586D01*
X175550965Y-119196584D01*
X175400001Y-119176710D01*
X175399999Y-119176710D01*
X175249034Y-119196584D01*
X175249029Y-119196586D01*
X175108359Y-119254853D01*
X175108353Y-119254856D01*
X174987552Y-119347551D01*
X174987551Y-119347552D01*
X174894856Y-119468353D01*
X174894853Y-119468359D01*
X174836586Y-119609029D01*
X174836584Y-119609034D01*
X174816710Y-119759998D01*
X174816710Y-119760001D01*
X173443290Y-119760001D01*
X173443290Y-119759998D01*
X173429310Y-119653807D01*
X173423415Y-119609033D01*
X173394279Y-119538694D01*
X173365146Y-119468359D01*
X173365143Y-119468353D01*
X173272448Y-119347552D01*
X173272447Y-119347551D01*
X173151646Y-119254856D01*
X173151640Y-119254853D01*
X173010970Y-119196586D01*
X173010965Y-119196584D01*
X172860001Y-119176710D01*
X172859999Y-119176710D01*
X172709034Y-119196584D01*
X172709029Y-119196586D01*
X172568359Y-119254853D01*
X172568353Y-119254856D01*
X172447552Y-119347551D01*
X172447551Y-119347552D01*
X172354856Y-119468353D01*
X172354853Y-119468359D01*
X172296586Y-119609029D01*
X172296584Y-119609034D01*
X172276710Y-119759998D01*
X172276710Y-119760001D01*
X170903290Y-119760001D01*
X170903290Y-119759998D01*
X170889310Y-119653807D01*
X170883415Y-119609033D01*
X170854279Y-119538694D01*
X170825146Y-119468359D01*
X170825143Y-119468353D01*
X170732448Y-119347552D01*
X170732447Y-119347551D01*
X170611646Y-119254856D01*
X170611640Y-119254853D01*
X170470970Y-119196586D01*
X170470965Y-119196584D01*
X170320001Y-119176710D01*
X170319999Y-119176710D01*
X170169034Y-119196584D01*
X170169029Y-119196586D01*
X170028359Y-119254853D01*
X170028353Y-119254856D01*
X169907552Y-119347551D01*
X169907551Y-119347552D01*
X169814856Y-119468353D01*
X169814853Y-119468359D01*
X169756586Y-119609029D01*
X169756584Y-119609034D01*
X169736710Y-119759998D01*
X169736710Y-119760001D01*
X168363290Y-119760001D01*
X168363290Y-119759998D01*
X168349310Y-119653807D01*
X168343415Y-119609033D01*
X168314279Y-119538694D01*
X168285146Y-119468359D01*
X168285143Y-119468353D01*
X168192448Y-119347552D01*
X168192447Y-119347551D01*
X168071646Y-119254856D01*
X168071640Y-119254853D01*
X167930970Y-119196586D01*
X167930965Y-119196584D01*
X167780001Y-119176710D01*
X167779999Y-119176710D01*
X167629034Y-119196584D01*
X167629029Y-119196586D01*
X167488359Y-119254853D01*
X167488353Y-119254856D01*
X167367552Y-119347551D01*
X167367551Y-119347552D01*
X167274856Y-119468353D01*
X167274853Y-119468359D01*
X167216586Y-119609029D01*
X167216584Y-119609034D01*
X167196710Y-119759998D01*
X167196710Y-119760001D01*
X165823290Y-119760001D01*
X165823290Y-119759998D01*
X165809310Y-119653807D01*
X165803415Y-119609033D01*
X165774279Y-119538694D01*
X165745146Y-119468359D01*
X165745143Y-119468353D01*
X165652448Y-119347552D01*
X165652447Y-119347551D01*
X165531646Y-119254856D01*
X165531640Y-119254853D01*
X165390970Y-119196586D01*
X165390965Y-119196584D01*
X165240001Y-119176710D01*
X165239999Y-119176710D01*
X165089034Y-119196584D01*
X165089029Y-119196586D01*
X164948359Y-119254853D01*
X164948353Y-119254856D01*
X164827552Y-119347551D01*
X164827551Y-119347552D01*
X164734856Y-119468353D01*
X164734853Y-119468359D01*
X164676586Y-119609029D01*
X164676584Y-119609034D01*
X164656710Y-119759998D01*
X164656710Y-119760001D01*
X158910012Y-119760001D01*
X159006525Y-119720024D01*
X159127328Y-119627328D01*
X159220024Y-119506525D01*
X159278295Y-119365847D01*
X159298170Y-119214880D01*
X159295761Y-119196585D01*
X159278295Y-119063914D01*
X159278293Y-119063909D01*
X159263861Y-119029068D01*
X159228017Y-118942531D01*
X159220026Y-118923239D01*
X159220023Y-118923233D01*
X159127328Y-118802432D01*
X159127327Y-118802431D01*
X159006526Y-118709736D01*
X159006520Y-118709733D01*
X158865850Y-118651466D01*
X158865845Y-118651464D01*
X158714881Y-118631590D01*
X158714879Y-118631590D01*
X158563914Y-118651464D01*
X158563909Y-118651466D01*
X158423239Y-118709733D01*
X158423233Y-118709736D01*
X158302432Y-118802431D01*
X158302431Y-118802432D01*
X158209736Y-118923233D01*
X158209733Y-118923239D01*
X158151466Y-119063909D01*
X158151464Y-119063914D01*
X158131590Y-119214878D01*
X158131590Y-119214881D01*
X151115036Y-119214881D01*
X151221736Y-119183551D01*
X151337440Y-119109192D01*
X151427509Y-119005247D01*
X151484644Y-118880138D01*
X151504218Y-118744000D01*
X151484644Y-118607862D01*
X151484643Y-118607859D01*
X151427511Y-118482756D01*
X151427509Y-118482754D01*
X151427509Y-118482753D01*
X151337440Y-118378808D01*
X151221736Y-118304449D01*
X151221735Y-118304448D01*
X151221734Y-118304448D01*
X151089770Y-118265700D01*
X151089769Y-118265700D01*
X150952231Y-118265700D01*
X150952230Y-118265700D01*
X150820265Y-118304448D01*
X150805116Y-118314184D01*
X150704560Y-118378808D01*
X150704558Y-118378809D01*
X150704558Y-118378810D01*
X150614491Y-118482753D01*
X150614488Y-118482756D01*
X150557356Y-118607859D01*
X150557356Y-118607860D01*
X150537782Y-118744000D01*
X150229218Y-118744000D01*
X150209644Y-118607862D01*
X150209643Y-118607859D01*
X150152511Y-118482756D01*
X150152509Y-118482754D01*
X150152509Y-118482753D01*
X150062440Y-118378808D01*
X149946736Y-118304449D01*
X149946735Y-118304448D01*
X149946734Y-118304448D01*
X149814770Y-118265700D01*
X149814769Y-118265700D01*
X149677231Y-118265700D01*
X149677230Y-118265700D01*
X149545265Y-118304448D01*
X149530116Y-118314184D01*
X149429560Y-118378808D01*
X149429558Y-118378809D01*
X149429558Y-118378810D01*
X149339491Y-118482753D01*
X149339488Y-118482756D01*
X149282356Y-118607859D01*
X149282356Y-118607860D01*
X149262782Y-118744000D01*
X148954218Y-118744000D01*
X148934644Y-118607862D01*
X148934643Y-118607859D01*
X148877511Y-118482756D01*
X148877509Y-118482754D01*
X148877509Y-118482753D01*
X148787440Y-118378808D01*
X148671736Y-118304449D01*
X148671735Y-118304448D01*
X148671734Y-118304448D01*
X148539770Y-118265700D01*
X148539769Y-118265700D01*
X148402231Y-118265700D01*
X148402230Y-118265700D01*
X148270265Y-118304448D01*
X148255116Y-118314184D01*
X148154560Y-118378808D01*
X148154558Y-118378809D01*
X148154558Y-118378810D01*
X148064491Y-118482753D01*
X148064488Y-118482756D01*
X148007356Y-118607859D01*
X148007356Y-118607860D01*
X147987782Y-118744000D01*
X144105841Y-118744000D01*
X144177290Y-118650886D01*
X144235561Y-118510208D01*
X144252860Y-118378807D01*
X144255436Y-118359242D01*
X144255436Y-118359239D01*
X144236112Y-118212463D01*
X144235561Y-118208274D01*
X144200143Y-118122767D01*
X144177292Y-118067600D01*
X144177289Y-118067594D01*
X144084594Y-117946793D01*
X144084593Y-117946792D01*
X143963792Y-117854097D01*
X143963786Y-117854094D01*
X143823116Y-117795827D01*
X143823111Y-117795825D01*
X143672147Y-117775951D01*
X143672145Y-117775951D01*
X143521180Y-117795825D01*
X143521175Y-117795827D01*
X143380505Y-117854094D01*
X143380499Y-117854097D01*
X143259698Y-117946792D01*
X143259697Y-117946793D01*
X143167002Y-118067594D01*
X143166999Y-118067600D01*
X143108732Y-118208270D01*
X143108731Y-118208273D01*
X143108731Y-118208274D01*
X143108180Y-118212463D01*
X143092682Y-118330173D01*
X143064415Y-118394070D01*
X143006090Y-118432540D01*
X142953558Y-118436926D01*
X142800001Y-118416710D01*
X142799999Y-118416710D01*
X142649034Y-118436584D01*
X142649029Y-118436586D01*
X142508359Y-118494853D01*
X142508353Y-118494856D01*
X142387552Y-118587551D01*
X142387551Y-118587552D01*
X142294856Y-118708353D01*
X142294853Y-118708359D01*
X142236586Y-118849029D01*
X142236584Y-118849034D01*
X142216710Y-118999998D01*
X142216710Y-119000001D01*
X141432300Y-119000001D01*
X141432300Y-118346255D01*
X141451985Y-118279216D01*
X141504789Y-118233461D01*
X141573947Y-118223517D01*
X141603750Y-118231693D01*
X141680333Y-118263415D01*
X141755816Y-118273352D01*
X141831299Y-118283290D01*
X141831300Y-118283290D01*
X141831301Y-118283290D01*
X141882663Y-118276528D01*
X141982267Y-118263415D01*
X142122945Y-118205144D01*
X142243748Y-118112448D01*
X142336444Y-117991645D01*
X142394715Y-117850967D01*
X142410608Y-117730246D01*
X142414590Y-117700001D01*
X142414590Y-117699998D01*
X142394715Y-117549034D01*
X142394713Y-117549029D01*
X142377865Y-117508355D01*
X142361564Y-117469000D01*
X147987782Y-117469000D01*
X148007356Y-117605139D01*
X148007356Y-117605140D01*
X148064488Y-117730243D01*
X148064490Y-117730245D01*
X148064491Y-117730247D01*
X148154560Y-117834192D01*
X148270264Y-117908551D01*
X148336247Y-117927925D01*
X148402230Y-117947300D01*
X148402231Y-117947300D01*
X148539769Y-117947300D01*
X148671736Y-117908551D01*
X148787440Y-117834192D01*
X148877509Y-117730247D01*
X148879840Y-117725144D01*
X148934643Y-117605140D01*
X148934644Y-117605138D01*
X148954218Y-117469000D01*
X149262782Y-117469000D01*
X149282356Y-117605139D01*
X149282356Y-117605140D01*
X149339488Y-117730243D01*
X149339490Y-117730245D01*
X149339491Y-117730247D01*
X149429560Y-117834192D01*
X149545264Y-117908551D01*
X149611247Y-117927925D01*
X149677230Y-117947300D01*
X149677231Y-117947300D01*
X149814769Y-117947300D01*
X149946736Y-117908551D01*
X150062440Y-117834192D01*
X150152509Y-117730247D01*
X150154840Y-117725144D01*
X150209643Y-117605140D01*
X150209644Y-117605138D01*
X150229218Y-117469000D01*
X150537782Y-117469000D01*
X150557356Y-117605139D01*
X150557356Y-117605140D01*
X150614488Y-117730243D01*
X150614490Y-117730245D01*
X150614491Y-117730247D01*
X150704560Y-117834192D01*
X150820264Y-117908551D01*
X150886247Y-117927925D01*
X150952230Y-117947300D01*
X150952231Y-117947300D01*
X151089769Y-117947300D01*
X151221736Y-117908551D01*
X151337440Y-117834192D01*
X151367067Y-117800001D01*
X154516710Y-117800001D01*
X154536584Y-117950965D01*
X154536586Y-117950970D01*
X154594853Y-118091640D01*
X154594856Y-118091646D01*
X154687551Y-118212447D01*
X154687552Y-118212448D01*
X154808353Y-118305143D01*
X154808359Y-118305146D01*
X154829165Y-118313764D01*
X154949033Y-118363415D01*
X155024516Y-118373352D01*
X155099999Y-118383290D01*
X155100000Y-118383290D01*
X155100001Y-118383290D01*
X155150322Y-118376665D01*
X155250967Y-118363415D01*
X155391645Y-118305144D01*
X155428939Y-118276526D01*
X155494105Y-118251333D01*
X155562550Y-118265370D01*
X155612540Y-118314184D01*
X155627363Y-118358718D01*
X155636584Y-118428765D01*
X155636586Y-118428770D01*
X155694853Y-118569440D01*
X155694856Y-118569446D01*
X155787551Y-118690247D01*
X155787552Y-118690248D01*
X155908353Y-118782943D01*
X155908359Y-118782946D01*
X155955403Y-118802432D01*
X156049033Y-118841215D01*
X156108387Y-118849029D01*
X156199999Y-118861090D01*
X156200000Y-118861090D01*
X156200001Y-118861090D01*
X156272646Y-118851526D01*
X156350967Y-118841215D01*
X156491645Y-118782944D01*
X156612448Y-118690248D01*
X156617014Y-118684296D01*
X156673439Y-118643093D01*
X156743185Y-118638936D01*
X156804107Y-118673147D01*
X156836861Y-118734863D01*
X156838330Y-118743595D01*
X156840012Y-118756370D01*
X156840013Y-118756375D01*
X156898280Y-118897045D01*
X156898283Y-118897051D01*
X156990978Y-119017852D01*
X156990979Y-119017853D01*
X157111780Y-119110548D01*
X157111786Y-119110551D01*
X157182121Y-119139684D01*
X157252460Y-119168820D01*
X157312391Y-119176710D01*
X157403426Y-119188695D01*
X157403427Y-119188695D01*
X157403428Y-119188695D01*
X157453749Y-119182070D01*
X157554394Y-119168820D01*
X157695072Y-119110549D01*
X157815875Y-119017853D01*
X157908571Y-118897050D01*
X157966842Y-118756372D01*
X157986717Y-118605405D01*
X157984366Y-118587551D01*
X157966842Y-118454439D01*
X157966840Y-118454434D01*
X157959446Y-118436584D01*
X157908571Y-118313760D01*
X157908570Y-118313758D01*
X157815875Y-118192957D01*
X157815874Y-118192956D01*
X157695073Y-118100261D01*
X157695067Y-118100258D01*
X157554397Y-118041991D01*
X157554392Y-118041989D01*
X157403428Y-118022115D01*
X157403426Y-118022115D01*
X157252461Y-118041989D01*
X157252456Y-118041991D01*
X157111786Y-118100258D01*
X157111780Y-118100261D01*
X156990979Y-118192956D01*
X156990975Y-118192960D01*
X156986406Y-118198915D01*
X156929976Y-118240115D01*
X156860230Y-118244265D01*
X156799312Y-118210049D01*
X156766562Y-118148330D01*
X156765101Y-118139640D01*
X156763415Y-118126833D01*
X156720039Y-118022115D01*
X156705146Y-117986159D01*
X156705143Y-117986153D01*
X156612448Y-117865352D01*
X156612447Y-117865351D01*
X156491646Y-117772656D01*
X156491640Y-117772653D01*
X156350970Y-117714386D01*
X156350965Y-117714384D01*
X156200001Y-117694510D01*
X156199999Y-117694510D01*
X156049034Y-117714384D01*
X156049029Y-117714386D01*
X155908359Y-117772653D01*
X155908355Y-117772655D01*
X155871060Y-117801273D01*
X155805891Y-117826466D01*
X155737446Y-117812427D01*
X155687457Y-117763613D01*
X155672637Y-117719083D01*
X155663415Y-117649033D01*
X155621994Y-117549034D01*
X155605146Y-117508359D01*
X155605143Y-117508353D01*
X155512448Y-117387552D01*
X155512447Y-117387551D01*
X155391646Y-117294856D01*
X155391640Y-117294853D01*
X155250970Y-117236586D01*
X155250965Y-117236584D01*
X155125000Y-117220001D01*
X164656710Y-117220001D01*
X164676584Y-117370965D01*
X164676586Y-117370970D01*
X164734853Y-117511640D01*
X164734856Y-117511646D01*
X164827551Y-117632447D01*
X164827552Y-117632448D01*
X164948353Y-117725143D01*
X164948359Y-117725146D01*
X165018694Y-117754279D01*
X165089033Y-117783415D01*
X165164516Y-117793352D01*
X165239999Y-117803290D01*
X165240000Y-117803290D01*
X165240001Y-117803290D01*
X165296703Y-117795825D01*
X165390967Y-117783415D01*
X165531645Y-117725144D01*
X165652448Y-117632448D01*
X165745144Y-117511645D01*
X165803415Y-117370967D01*
X165816665Y-117270322D01*
X165823290Y-117220001D01*
X167196710Y-117220001D01*
X167216584Y-117370965D01*
X167216586Y-117370970D01*
X167274853Y-117511640D01*
X167274856Y-117511646D01*
X167367551Y-117632447D01*
X167367552Y-117632448D01*
X167488353Y-117725143D01*
X167488359Y-117725146D01*
X167558694Y-117754279D01*
X167629033Y-117783415D01*
X167704516Y-117793352D01*
X167779999Y-117803290D01*
X167780000Y-117803290D01*
X167780001Y-117803290D01*
X167836703Y-117795825D01*
X167930967Y-117783415D01*
X168071645Y-117725144D01*
X168192448Y-117632448D01*
X168285144Y-117511645D01*
X168343415Y-117370967D01*
X168356665Y-117270322D01*
X168363290Y-117220001D01*
X169736710Y-117220001D01*
X169756584Y-117370965D01*
X169756586Y-117370970D01*
X169814853Y-117511640D01*
X169814856Y-117511646D01*
X169907551Y-117632447D01*
X169907552Y-117632448D01*
X170028353Y-117725143D01*
X170028359Y-117725146D01*
X170098694Y-117754279D01*
X170169033Y-117783415D01*
X170244516Y-117793352D01*
X170319999Y-117803290D01*
X170320000Y-117803290D01*
X170320001Y-117803290D01*
X170376703Y-117795825D01*
X170470967Y-117783415D01*
X170611645Y-117725144D01*
X170732448Y-117632448D01*
X170825144Y-117511645D01*
X170883415Y-117370967D01*
X170896665Y-117270322D01*
X170903290Y-117220001D01*
X172276710Y-117220001D01*
X172296584Y-117370965D01*
X172296586Y-117370970D01*
X172354853Y-117511640D01*
X172354856Y-117511646D01*
X172447551Y-117632447D01*
X172447552Y-117632448D01*
X172568353Y-117725143D01*
X172568359Y-117725146D01*
X172638694Y-117754279D01*
X172709033Y-117783415D01*
X172784516Y-117793352D01*
X172859999Y-117803290D01*
X172860000Y-117803290D01*
X172860001Y-117803290D01*
X172916703Y-117795825D01*
X173010967Y-117783415D01*
X173151645Y-117725144D01*
X173272448Y-117632448D01*
X173365144Y-117511645D01*
X173423415Y-117370967D01*
X173436665Y-117270322D01*
X173443290Y-117220001D01*
X174816710Y-117220001D01*
X174836584Y-117370965D01*
X174836586Y-117370970D01*
X174894853Y-117511640D01*
X174894856Y-117511646D01*
X174987551Y-117632447D01*
X174987552Y-117632448D01*
X175108353Y-117725143D01*
X175108359Y-117725146D01*
X175178694Y-117754279D01*
X175249033Y-117783415D01*
X175324516Y-117793352D01*
X175399999Y-117803290D01*
X175400000Y-117803290D01*
X175400001Y-117803290D01*
X175456703Y-117795825D01*
X175550967Y-117783415D01*
X175691645Y-117725144D01*
X175812448Y-117632448D01*
X175905144Y-117511645D01*
X175963415Y-117370967D01*
X175976665Y-117270322D01*
X175983290Y-117220001D01*
X175983290Y-117219998D01*
X175963415Y-117069034D01*
X175963413Y-117069029D01*
X175905146Y-116928359D01*
X175905143Y-116928353D01*
X175812448Y-116807552D01*
X175812447Y-116807551D01*
X175691646Y-116714856D01*
X175691640Y-116714853D01*
X175550970Y-116656586D01*
X175550965Y-116656584D01*
X175400001Y-116636710D01*
X175399999Y-116636710D01*
X175249034Y-116656584D01*
X175249029Y-116656586D01*
X175108359Y-116714853D01*
X175108353Y-116714856D01*
X174987552Y-116807551D01*
X174987551Y-116807552D01*
X174894856Y-116928353D01*
X174894853Y-116928359D01*
X174836586Y-117069029D01*
X174836584Y-117069034D01*
X174816710Y-117219998D01*
X174816710Y-117220001D01*
X173443290Y-117220001D01*
X173443290Y-117219998D01*
X173423415Y-117069034D01*
X173423413Y-117069029D01*
X173365146Y-116928359D01*
X173365143Y-116928353D01*
X173272448Y-116807552D01*
X173272447Y-116807551D01*
X173151646Y-116714856D01*
X173151640Y-116714853D01*
X173010970Y-116656586D01*
X173010965Y-116656584D01*
X172860001Y-116636710D01*
X172859999Y-116636710D01*
X172709034Y-116656584D01*
X172709029Y-116656586D01*
X172568359Y-116714853D01*
X172568353Y-116714856D01*
X172447552Y-116807551D01*
X172447551Y-116807552D01*
X172354856Y-116928353D01*
X172354853Y-116928359D01*
X172296586Y-117069029D01*
X172296584Y-117069034D01*
X172276710Y-117219998D01*
X172276710Y-117220001D01*
X170903290Y-117220001D01*
X170903290Y-117219998D01*
X170883415Y-117069034D01*
X170883413Y-117069029D01*
X170825146Y-116928359D01*
X170825143Y-116928353D01*
X170732448Y-116807552D01*
X170732447Y-116807551D01*
X170611646Y-116714856D01*
X170611640Y-116714853D01*
X170470970Y-116656586D01*
X170470965Y-116656584D01*
X170320001Y-116636710D01*
X170319999Y-116636710D01*
X170169034Y-116656584D01*
X170169029Y-116656586D01*
X170028359Y-116714853D01*
X170028353Y-116714856D01*
X169907552Y-116807551D01*
X169907551Y-116807552D01*
X169814856Y-116928353D01*
X169814853Y-116928359D01*
X169756586Y-117069029D01*
X169756584Y-117069034D01*
X169736710Y-117219998D01*
X169736710Y-117220001D01*
X168363290Y-117220001D01*
X168363290Y-117219998D01*
X168343415Y-117069034D01*
X168343413Y-117069029D01*
X168285146Y-116928359D01*
X168285143Y-116928353D01*
X168192448Y-116807552D01*
X168192447Y-116807551D01*
X168071646Y-116714856D01*
X168071640Y-116714853D01*
X167930970Y-116656586D01*
X167930965Y-116656584D01*
X167780001Y-116636710D01*
X167779999Y-116636710D01*
X167629034Y-116656584D01*
X167629029Y-116656586D01*
X167488359Y-116714853D01*
X167488353Y-116714856D01*
X167367552Y-116807551D01*
X167367551Y-116807552D01*
X167274856Y-116928353D01*
X167274853Y-116928359D01*
X167216586Y-117069029D01*
X167216584Y-117069034D01*
X167196710Y-117219998D01*
X167196710Y-117220001D01*
X165823290Y-117220001D01*
X165823290Y-117219998D01*
X165803415Y-117069034D01*
X165803413Y-117069029D01*
X165745146Y-116928359D01*
X165745143Y-116928353D01*
X165652448Y-116807552D01*
X165652447Y-116807551D01*
X165531646Y-116714856D01*
X165531640Y-116714853D01*
X165390970Y-116656586D01*
X165390965Y-116656584D01*
X165240001Y-116636710D01*
X165239999Y-116636710D01*
X165089034Y-116656584D01*
X165089029Y-116656586D01*
X164948359Y-116714853D01*
X164948353Y-116714856D01*
X164827552Y-116807551D01*
X164827551Y-116807552D01*
X164734856Y-116928353D01*
X164734853Y-116928359D01*
X164676586Y-117069029D01*
X164676584Y-117069034D01*
X164656710Y-117219998D01*
X164656710Y-117220001D01*
X155125000Y-117220001D01*
X155100001Y-117216710D01*
X155099999Y-117216710D01*
X154949034Y-117236584D01*
X154949029Y-117236586D01*
X154808359Y-117294853D01*
X154808353Y-117294856D01*
X154687552Y-117387551D01*
X154687551Y-117387552D01*
X154594856Y-117508353D01*
X154594853Y-117508359D01*
X154536586Y-117649029D01*
X154536584Y-117649034D01*
X154516710Y-117799998D01*
X154516710Y-117800001D01*
X151367067Y-117800001D01*
X151427509Y-117730247D01*
X151429840Y-117725144D01*
X151484643Y-117605140D01*
X151484644Y-117605138D01*
X151504218Y-117469000D01*
X151484644Y-117332862D01*
X151484643Y-117332859D01*
X151427511Y-117207756D01*
X151427509Y-117207754D01*
X151427509Y-117207753D01*
X151337440Y-117103808D01*
X151221736Y-117029449D01*
X151221735Y-117029448D01*
X151221734Y-117029448D01*
X151089770Y-116990700D01*
X151089769Y-116990700D01*
X150952231Y-116990700D01*
X150952230Y-116990700D01*
X150820265Y-117029448D01*
X150758677Y-117069029D01*
X150704560Y-117103808D01*
X150704558Y-117103809D01*
X150704558Y-117103810D01*
X150614491Y-117207753D01*
X150614488Y-117207756D01*
X150557356Y-117332859D01*
X150557356Y-117332860D01*
X150537782Y-117469000D01*
X150229218Y-117469000D01*
X150209644Y-117332862D01*
X150209643Y-117332859D01*
X150152511Y-117207756D01*
X150152509Y-117207754D01*
X150152509Y-117207753D01*
X150062440Y-117103808D01*
X149946736Y-117029449D01*
X149946735Y-117029448D01*
X149946734Y-117029448D01*
X149814770Y-116990700D01*
X149814769Y-116990700D01*
X149677231Y-116990700D01*
X149677230Y-116990700D01*
X149545265Y-117029448D01*
X149483677Y-117069029D01*
X149429560Y-117103808D01*
X149429558Y-117103809D01*
X149429558Y-117103810D01*
X149339491Y-117207753D01*
X149339488Y-117207756D01*
X149282356Y-117332859D01*
X149282356Y-117332860D01*
X149262782Y-117469000D01*
X148954218Y-117469000D01*
X148934644Y-117332862D01*
X148934643Y-117332859D01*
X148877511Y-117207756D01*
X148877509Y-117207754D01*
X148877509Y-117207753D01*
X148787440Y-117103808D01*
X148671736Y-117029449D01*
X148671735Y-117029448D01*
X148671734Y-117029448D01*
X148539770Y-116990700D01*
X148539769Y-116990700D01*
X148402231Y-116990700D01*
X148402230Y-116990700D01*
X148270265Y-117029448D01*
X148208677Y-117069029D01*
X148154560Y-117103808D01*
X148154558Y-117103809D01*
X148154558Y-117103810D01*
X148064491Y-117207753D01*
X148064488Y-117207756D01*
X148007356Y-117332859D01*
X148007356Y-117332860D01*
X147987782Y-117469000D01*
X142361564Y-117469000D01*
X142336444Y-117408355D01*
X142336443Y-117408353D01*
X142243748Y-117287552D01*
X142243747Y-117287551D01*
X142122946Y-117194856D01*
X142122940Y-117194853D01*
X141982270Y-117136586D01*
X141982265Y-117136584D01*
X141831301Y-117116710D01*
X141831299Y-117116710D01*
X141680334Y-117136584D01*
X141680329Y-117136586D01*
X141603752Y-117168305D01*
X141534282Y-117175774D01*
X141471803Y-117144498D01*
X141436152Y-117084409D01*
X141432300Y-117053744D01*
X141432300Y-115728668D01*
X141451985Y-115661629D01*
X141457925Y-115653181D01*
X141476932Y-115628410D01*
X141533361Y-115587210D01*
X141575306Y-115579900D01*
X142166874Y-115579900D01*
X142233913Y-115599585D01*
X142279668Y-115652389D01*
X142289612Y-115721547D01*
X142260587Y-115785103D01*
X142214326Y-115818461D01*
X142108359Y-115862353D01*
X142108353Y-115862356D01*
X141987552Y-115955051D01*
X141987551Y-115955052D01*
X141894856Y-116075853D01*
X141894853Y-116075859D01*
X141836586Y-116216529D01*
X141836584Y-116216534D01*
X141816710Y-116367498D01*
X141816710Y-116367501D01*
X141836584Y-116518465D01*
X141836586Y-116518470D01*
X141894853Y-116659140D01*
X141894856Y-116659146D01*
X141987551Y-116779947D01*
X141987552Y-116779948D01*
X142108353Y-116872643D01*
X142108359Y-116872646D01*
X142178694Y-116901779D01*
X142249033Y-116930915D01*
X142324516Y-116940852D01*
X142399999Y-116950790D01*
X142400000Y-116950790D01*
X142400001Y-116950790D01*
X142450322Y-116944165D01*
X142550967Y-116930915D01*
X142691645Y-116872644D01*
X142812448Y-116779948D01*
X142905144Y-116659145D01*
X142963415Y-116518467D01*
X142983290Y-116367500D01*
X142963415Y-116216533D01*
X142906301Y-116078648D01*
X142905146Y-116075859D01*
X142905143Y-116075853D01*
X142812448Y-115955052D01*
X142812447Y-115955051D01*
X142691646Y-115862356D01*
X142691640Y-115862353D01*
X142550970Y-115804086D01*
X142550968Y-115804085D01*
X142550967Y-115804085D01*
X142523720Y-115800497D01*
X142429342Y-115788072D01*
X142365445Y-115759805D01*
X142326975Y-115701480D01*
X142326555Y-115666201D01*
X156516710Y-115666201D01*
X156536584Y-115817165D01*
X156536586Y-115817170D01*
X156594853Y-115957840D01*
X156594856Y-115957846D01*
X156687551Y-116078647D01*
X156687552Y-116078648D01*
X156808353Y-116171343D01*
X156808359Y-116171346D01*
X156878694Y-116200479D01*
X156949033Y-116229615D01*
X157024516Y-116239552D01*
X157099999Y-116249490D01*
X157100000Y-116249490D01*
X157100001Y-116249490D01*
X157150322Y-116242865D01*
X157250967Y-116229615D01*
X157391645Y-116171344D01*
X157512448Y-116078648D01*
X157605144Y-115957845D01*
X157663415Y-115817167D01*
X157678645Y-115701480D01*
X157683290Y-115666201D01*
X157683290Y-115666198D01*
X157663415Y-115515234D01*
X157663413Y-115515229D01*
X157659235Y-115505143D01*
X157620840Y-115412448D01*
X157605146Y-115374559D01*
X157605143Y-115374553D01*
X157512448Y-115253752D01*
X157512447Y-115253751D01*
X157391646Y-115161056D01*
X157391640Y-115161053D01*
X157250970Y-115102786D01*
X157250965Y-115102784D01*
X157100001Y-115082910D01*
X157099999Y-115082910D01*
X156949034Y-115102784D01*
X156949029Y-115102786D01*
X156808359Y-115161053D01*
X156808353Y-115161056D01*
X156687552Y-115253751D01*
X156687551Y-115253752D01*
X156594856Y-115374553D01*
X156594853Y-115374559D01*
X156536586Y-115515229D01*
X156536584Y-115515234D01*
X156516710Y-115666198D01*
X156516710Y-115666201D01*
X142326555Y-115666201D01*
X142326144Y-115631615D01*
X142363217Y-115572392D01*
X142380237Y-115559714D01*
X142395175Y-115550464D01*
X142402773Y-115546461D01*
X142428922Y-115534916D01*
X142432787Y-115531050D01*
X142455189Y-115513306D01*
X142459833Y-115510431D01*
X142477064Y-115487612D01*
X142482694Y-115481142D01*
X142963835Y-115000001D01*
X144216710Y-115000001D01*
X144236584Y-115150965D01*
X144236586Y-115150970D01*
X144294853Y-115291640D01*
X144294856Y-115291646D01*
X144387551Y-115412447D01*
X144387552Y-115412448D01*
X144508353Y-115505143D01*
X144508359Y-115505146D01*
X144532714Y-115515234D01*
X144649033Y-115563415D01*
X144717221Y-115572392D01*
X144799999Y-115583290D01*
X144800000Y-115583290D01*
X144800001Y-115583290D01*
X144882779Y-115572392D01*
X144950967Y-115563415D01*
X145091645Y-115505144D01*
X145212448Y-115412448D01*
X145300910Y-115297162D01*
X145357336Y-115255961D01*
X145427082Y-115251806D01*
X145488002Y-115286018D01*
X145497651Y-115297152D01*
X145574805Y-115397701D01*
X145594024Y-115412448D01*
X145695606Y-115490396D01*
X145695612Y-115490399D01*
X145765947Y-115519532D01*
X145836286Y-115548668D01*
X145911769Y-115558605D01*
X145987252Y-115568543D01*
X145987253Y-115568543D01*
X145987254Y-115568543D01*
X146054362Y-115559708D01*
X146138220Y-115548668D01*
X146278898Y-115490397D01*
X146399701Y-115397701D01*
X146492397Y-115276898D01*
X146550668Y-115136220D01*
X146570543Y-114985253D01*
X146568751Y-114971645D01*
X146550668Y-114834287D01*
X146550666Y-114834282D01*
X146492399Y-114693612D01*
X146492396Y-114693606D01*
X146399701Y-114572805D01*
X146399700Y-114572804D01*
X146278899Y-114480109D01*
X146278893Y-114480106D01*
X146138223Y-114421839D01*
X146138218Y-114421837D01*
X145987254Y-114401963D01*
X145987252Y-114401963D01*
X145836287Y-114421837D01*
X145836282Y-114421839D01*
X145695612Y-114480106D01*
X145695606Y-114480109D01*
X145574805Y-114572804D01*
X145574804Y-114572805D01*
X145486343Y-114688089D01*
X145429915Y-114729292D01*
X145360169Y-114733446D01*
X145299249Y-114699233D01*
X145289602Y-114688101D01*
X145212448Y-114587552D01*
X145177251Y-114560544D01*
X145091646Y-114494856D01*
X145091640Y-114494853D01*
X144950970Y-114436586D01*
X144950965Y-114436584D01*
X144800001Y-114416710D01*
X144799999Y-114416710D01*
X144649034Y-114436584D01*
X144649029Y-114436586D01*
X144508359Y-114494853D01*
X144508353Y-114494856D01*
X144387552Y-114587551D01*
X144387551Y-114587552D01*
X144294856Y-114708353D01*
X144294853Y-114708359D01*
X144236586Y-114849029D01*
X144236584Y-114849034D01*
X144216710Y-114999998D01*
X144216710Y-115000001D01*
X142963835Y-115000001D01*
X143763835Y-114200001D01*
X147366710Y-114200001D01*
X147386584Y-114350965D01*
X147386586Y-114350970D01*
X147444853Y-114491640D01*
X147444856Y-114491646D01*
X147537551Y-114612447D01*
X147537552Y-114612448D01*
X147658353Y-114705143D01*
X147658359Y-114705146D01*
X147716653Y-114729292D01*
X147799033Y-114763415D01*
X147874516Y-114773352D01*
X147949999Y-114783290D01*
X147950000Y-114783290D01*
X147950001Y-114783290D01*
X148000322Y-114776665D01*
X148100967Y-114763415D01*
X148241645Y-114705144D01*
X148362448Y-114612448D01*
X148455144Y-114491645D01*
X148513415Y-114350967D01*
X148532113Y-114208944D01*
X160125653Y-114208944D01*
X160145527Y-114359908D01*
X160145529Y-114359913D01*
X160203796Y-114500583D01*
X160203799Y-114500589D01*
X160296494Y-114621390D01*
X160296495Y-114621391D01*
X160417296Y-114714086D01*
X160417302Y-114714089D01*
X160471610Y-114736584D01*
X160557976Y-114772358D01*
X160633459Y-114782295D01*
X160708942Y-114792233D01*
X160708943Y-114792233D01*
X160708944Y-114792233D01*
X160776872Y-114783290D01*
X160859910Y-114772358D01*
X161000588Y-114714087D01*
X161121391Y-114621391D01*
X161159528Y-114571689D01*
X161215953Y-114530488D01*
X161285699Y-114526333D01*
X161346620Y-114560544D01*
X161356277Y-114571690D01*
X161387551Y-114612447D01*
X161387552Y-114612448D01*
X161508353Y-114705143D01*
X161508359Y-114705146D01*
X161566653Y-114729292D01*
X161649033Y-114763415D01*
X161724516Y-114773352D01*
X161799999Y-114783290D01*
X161800000Y-114783290D01*
X161800001Y-114783290D01*
X161850322Y-114776665D01*
X161950967Y-114763415D01*
X162091645Y-114705144D01*
X162124412Y-114680001D01*
X164656710Y-114680001D01*
X164676584Y-114830965D01*
X164676586Y-114830970D01*
X164734853Y-114971640D01*
X164734856Y-114971646D01*
X164827551Y-115092447D01*
X164827552Y-115092448D01*
X164948353Y-115185143D01*
X164948359Y-115185146D01*
X165018694Y-115214279D01*
X165089033Y-115243415D01*
X165152770Y-115251806D01*
X165239999Y-115263290D01*
X165240000Y-115263290D01*
X165240001Y-115263290D01*
X165312449Y-115253752D01*
X165390967Y-115243415D01*
X165531645Y-115185144D01*
X165652448Y-115092448D01*
X165745144Y-114971645D01*
X165803415Y-114830967D01*
X165819557Y-114708353D01*
X165823290Y-114680001D01*
X167196710Y-114680001D01*
X167216584Y-114830965D01*
X167216586Y-114830970D01*
X167274853Y-114971640D01*
X167274856Y-114971646D01*
X167367551Y-115092447D01*
X167367552Y-115092448D01*
X167488353Y-115185143D01*
X167488359Y-115185146D01*
X167558694Y-115214279D01*
X167629033Y-115243415D01*
X167692770Y-115251806D01*
X167779999Y-115263290D01*
X167780000Y-115263290D01*
X167780001Y-115263290D01*
X167852449Y-115253752D01*
X167930967Y-115243415D01*
X168071645Y-115185144D01*
X168192448Y-115092448D01*
X168285144Y-114971645D01*
X168343415Y-114830967D01*
X168359557Y-114708353D01*
X168363290Y-114680001D01*
X169736710Y-114680001D01*
X169756584Y-114830965D01*
X169756586Y-114830970D01*
X169814853Y-114971640D01*
X169814856Y-114971646D01*
X169907551Y-115092447D01*
X169907552Y-115092448D01*
X170028353Y-115185143D01*
X170028359Y-115185146D01*
X170098694Y-115214279D01*
X170169033Y-115243415D01*
X170232770Y-115251806D01*
X170319999Y-115263290D01*
X170320000Y-115263290D01*
X170320001Y-115263290D01*
X170392449Y-115253752D01*
X170470967Y-115243415D01*
X170611645Y-115185144D01*
X170732448Y-115092448D01*
X170825144Y-114971645D01*
X170883415Y-114830967D01*
X170899557Y-114708353D01*
X170903290Y-114680001D01*
X172276710Y-114680001D01*
X172296584Y-114830965D01*
X172296586Y-114830970D01*
X172354853Y-114971640D01*
X172354856Y-114971646D01*
X172447551Y-115092447D01*
X172447552Y-115092448D01*
X172568353Y-115185143D01*
X172568359Y-115185146D01*
X172638694Y-115214279D01*
X172709033Y-115243415D01*
X172772770Y-115251806D01*
X172859999Y-115263290D01*
X172860000Y-115263290D01*
X172860001Y-115263290D01*
X172932449Y-115253752D01*
X173010967Y-115243415D01*
X173151645Y-115185144D01*
X173272448Y-115092448D01*
X173365144Y-114971645D01*
X173423415Y-114830967D01*
X173439557Y-114708353D01*
X173443290Y-114680001D01*
X174816710Y-114680001D01*
X174836584Y-114830965D01*
X174836586Y-114830970D01*
X174894853Y-114971640D01*
X174894856Y-114971646D01*
X174987551Y-115092447D01*
X174987552Y-115092448D01*
X175108353Y-115185143D01*
X175108359Y-115185146D01*
X175178694Y-115214279D01*
X175249033Y-115243415D01*
X175312770Y-115251806D01*
X175399999Y-115263290D01*
X175400000Y-115263290D01*
X175400001Y-115263290D01*
X175472449Y-115253752D01*
X175550967Y-115243415D01*
X175691645Y-115185144D01*
X175812448Y-115092448D01*
X175905144Y-114971645D01*
X175963415Y-114830967D01*
X175979557Y-114708353D01*
X175983290Y-114680001D01*
X175983290Y-114679998D01*
X175969178Y-114572805D01*
X175963415Y-114529033D01*
X175905144Y-114388355D01*
X175905143Y-114388353D01*
X175812448Y-114267552D01*
X175812447Y-114267551D01*
X175691646Y-114174856D01*
X175691640Y-114174853D01*
X175550970Y-114116586D01*
X175550965Y-114116584D01*
X175400001Y-114096710D01*
X175399999Y-114096710D01*
X175249034Y-114116584D01*
X175249029Y-114116586D01*
X175108359Y-114174853D01*
X175108353Y-114174856D01*
X174987552Y-114267551D01*
X174987551Y-114267552D01*
X174894856Y-114388353D01*
X174894853Y-114388359D01*
X174836586Y-114529029D01*
X174836584Y-114529034D01*
X174816710Y-114679998D01*
X174816710Y-114680001D01*
X173443290Y-114680001D01*
X173443290Y-114679998D01*
X173429178Y-114572805D01*
X173423415Y-114529033D01*
X173365144Y-114388355D01*
X173365143Y-114388353D01*
X173272448Y-114267552D01*
X173272447Y-114267551D01*
X173151646Y-114174856D01*
X173151640Y-114174853D01*
X173010970Y-114116586D01*
X173010965Y-114116584D01*
X172860001Y-114096710D01*
X172859999Y-114096710D01*
X172709034Y-114116584D01*
X172709029Y-114116586D01*
X172568359Y-114174853D01*
X172568353Y-114174856D01*
X172447552Y-114267551D01*
X172447551Y-114267552D01*
X172354856Y-114388353D01*
X172354853Y-114388359D01*
X172296586Y-114529029D01*
X172296584Y-114529034D01*
X172276710Y-114679998D01*
X172276710Y-114680001D01*
X170903290Y-114680001D01*
X170903290Y-114679998D01*
X170889178Y-114572805D01*
X170883415Y-114529033D01*
X170825144Y-114388355D01*
X170825143Y-114388353D01*
X170732448Y-114267552D01*
X170732447Y-114267551D01*
X170611646Y-114174856D01*
X170611640Y-114174853D01*
X170470970Y-114116586D01*
X170470965Y-114116584D01*
X170320001Y-114096710D01*
X170319999Y-114096710D01*
X170169034Y-114116584D01*
X170169029Y-114116586D01*
X170028359Y-114174853D01*
X170028353Y-114174856D01*
X169907552Y-114267551D01*
X169907551Y-114267552D01*
X169814856Y-114388353D01*
X169814853Y-114388359D01*
X169756586Y-114529029D01*
X169756584Y-114529034D01*
X169736710Y-114679998D01*
X169736710Y-114680001D01*
X168363290Y-114680001D01*
X168363290Y-114679998D01*
X168349178Y-114572805D01*
X168343415Y-114529033D01*
X168285144Y-114388355D01*
X168285143Y-114388353D01*
X168192448Y-114267552D01*
X168192447Y-114267551D01*
X168071646Y-114174856D01*
X168071640Y-114174853D01*
X167930970Y-114116586D01*
X167930965Y-114116584D01*
X167780001Y-114096710D01*
X167779999Y-114096710D01*
X167629034Y-114116584D01*
X167629029Y-114116586D01*
X167488359Y-114174853D01*
X167488353Y-114174856D01*
X167367552Y-114267551D01*
X167367551Y-114267552D01*
X167274856Y-114388353D01*
X167274853Y-114388359D01*
X167216586Y-114529029D01*
X167216584Y-114529034D01*
X167196710Y-114679998D01*
X167196710Y-114680001D01*
X165823290Y-114680001D01*
X165823290Y-114679998D01*
X165809178Y-114572805D01*
X165803415Y-114529033D01*
X165745144Y-114388355D01*
X165745143Y-114388353D01*
X165652448Y-114267552D01*
X165652447Y-114267551D01*
X165531646Y-114174856D01*
X165531640Y-114174853D01*
X165390970Y-114116586D01*
X165390965Y-114116584D01*
X165240001Y-114096710D01*
X165239999Y-114096710D01*
X165089034Y-114116584D01*
X165089029Y-114116586D01*
X164948359Y-114174853D01*
X164948353Y-114174856D01*
X164827552Y-114267551D01*
X164827551Y-114267552D01*
X164734856Y-114388353D01*
X164734853Y-114388359D01*
X164676586Y-114529029D01*
X164676584Y-114529034D01*
X164656710Y-114679998D01*
X164656710Y-114680001D01*
X162124412Y-114680001D01*
X162212448Y-114612448D01*
X162305144Y-114491645D01*
X162363415Y-114350967D01*
X162383290Y-114200000D01*
X162379979Y-114174853D01*
X162363415Y-114049034D01*
X162363413Y-114049029D01*
X162305146Y-113908359D01*
X162305143Y-113908353D01*
X162212448Y-113787552D01*
X162212447Y-113787551D01*
X162091646Y-113694856D01*
X162091640Y-113694853D01*
X161950970Y-113636586D01*
X161950965Y-113636584D01*
X161800001Y-113616710D01*
X161799999Y-113616710D01*
X161649034Y-113636584D01*
X161649029Y-113636586D01*
X161508359Y-113694853D01*
X161508353Y-113694856D01*
X161387552Y-113787551D01*
X161387551Y-113787552D01*
X161349415Y-113837252D01*
X161292987Y-113878455D01*
X161223241Y-113882609D01*
X161162321Y-113848396D01*
X161152674Y-113837263D01*
X161121391Y-113796495D01*
X161087272Y-113770314D01*
X161000589Y-113703799D01*
X161000583Y-113703796D01*
X160859913Y-113645529D01*
X160859908Y-113645527D01*
X160708944Y-113625653D01*
X160708942Y-113625653D01*
X160557977Y-113645527D01*
X160557972Y-113645529D01*
X160417302Y-113703796D01*
X160417296Y-113703799D01*
X160296495Y-113796494D01*
X160296494Y-113796495D01*
X160203799Y-113917296D01*
X160203796Y-113917302D01*
X160145529Y-114057972D01*
X160145527Y-114057977D01*
X160125653Y-114208941D01*
X160125653Y-114208944D01*
X148532113Y-114208944D01*
X148533290Y-114200000D01*
X148529979Y-114174853D01*
X148513415Y-114049034D01*
X148513413Y-114049029D01*
X148455146Y-113908359D01*
X148455143Y-113908353D01*
X148362448Y-113787552D01*
X148362447Y-113787551D01*
X148241646Y-113694856D01*
X148241640Y-113694853D01*
X148100970Y-113636586D01*
X148100965Y-113636584D01*
X147950001Y-113616710D01*
X147949999Y-113616710D01*
X147799034Y-113636584D01*
X147799029Y-113636586D01*
X147658359Y-113694853D01*
X147658353Y-113694856D01*
X147537552Y-113787551D01*
X147537551Y-113787552D01*
X147444856Y-113908353D01*
X147444853Y-113908359D01*
X147386586Y-114049029D01*
X147386584Y-114049034D01*
X147366710Y-114199998D01*
X147366710Y-114200001D01*
X143763835Y-114200001D01*
X144563836Y-113400001D01*
X155316710Y-113400001D01*
X155336584Y-113550965D01*
X155336586Y-113550970D01*
X155394853Y-113691640D01*
X155394856Y-113691646D01*
X155487551Y-113812447D01*
X155487552Y-113812448D01*
X155608353Y-113905143D01*
X155608359Y-113905146D01*
X155678694Y-113934279D01*
X155749033Y-113963415D01*
X155824516Y-113973352D01*
X155899999Y-113983290D01*
X155900000Y-113983290D01*
X155900001Y-113983290D01*
X155950322Y-113976665D01*
X156050967Y-113963415D01*
X156191645Y-113905144D01*
X156312448Y-113812448D01*
X156405144Y-113691645D01*
X156463415Y-113550967D01*
X156483290Y-113400000D01*
X156463415Y-113249033D01*
X156405144Y-113108355D01*
X156405143Y-113108353D01*
X156312448Y-112987552D01*
X156312447Y-112987551D01*
X156191646Y-112894856D01*
X156191640Y-112894853D01*
X156050970Y-112836586D01*
X156050965Y-112836584D01*
X155900001Y-112816710D01*
X155899999Y-112816710D01*
X155749034Y-112836584D01*
X155749029Y-112836586D01*
X155608359Y-112894853D01*
X155608353Y-112894856D01*
X155487552Y-112987551D01*
X155487551Y-112987552D01*
X155394856Y-113108353D01*
X155394853Y-113108359D01*
X155336586Y-113249029D01*
X155336584Y-113249034D01*
X155316710Y-113399998D01*
X155316710Y-113400001D01*
X144563836Y-113400001D01*
X144976286Y-112987551D01*
X145927519Y-112036319D01*
X145988842Y-112002834D01*
X146015200Y-112000000D01*
X179875500Y-112000000D01*
X179942539Y-112019685D01*
X179988294Y-112072489D01*
X179999500Y-112124000D01*
X179999500Y-130566127D01*
X179979815Y-130633166D01*
X179927011Y-130678921D01*
X179857853Y-130688865D01*
X179794297Y-130659840D01*
X179756523Y-130601062D01*
X179756020Y-130599300D01*
X179706162Y-130419729D01*
X179706160Y-130419722D01*
X179570569Y-130079414D01*
X179570560Y-130079396D01*
X179398971Y-129755745D01*
X179193391Y-129452537D01*
X179193387Y-129452532D01*
X179193384Y-129452528D01*
X178956233Y-129173333D01*
X178690277Y-128921406D01*
X178398643Y-128699711D01*
X178398639Y-128699708D01*
X178398633Y-128699704D01*
X178398628Y-128699700D01*
X178084752Y-128510849D01*
X178084739Y-128510842D01*
X177752284Y-128357031D01*
X177752279Y-128357030D01*
X177752276Y-128357029D01*
X177752274Y-128357028D01*
X177641619Y-128319744D01*
X177405120Y-128240058D01*
X177047348Y-128161306D01*
X176683169Y-128121700D01*
X176683166Y-128121700D01*
X176316834Y-128121700D01*
X176316830Y-128121700D01*
X175952651Y-128161306D01*
X175594879Y-128240058D01*
X175247720Y-128357030D01*
X175247715Y-128357031D01*
X174915260Y-128510842D01*
X174915247Y-128510849D01*
X174601371Y-128699700D01*
X174601366Y-128699704D01*
X174309723Y-128921405D01*
X174309723Y-128921406D01*
X174043766Y-129173333D01*
X173806615Y-129452528D01*
X173806608Y-129452538D01*
X173601028Y-129755745D01*
X173429439Y-130079396D01*
X173429430Y-130079414D01*
X173293839Y-130419722D01*
X173293837Y-130419729D01*
X173195840Y-130772685D01*
X173195834Y-130772711D01*
X173136572Y-131134190D01*
X173136571Y-131134203D01*
X173136571Y-131134205D01*
X173134019Y-131181282D01*
X173120661Y-131427653D01*
X173116738Y-131500000D01*
X173134018Y-131818717D01*
X173136571Y-131865792D01*
X173136572Y-131865809D01*
X173195834Y-132227288D01*
X173195840Y-132227314D01*
X173293837Y-132580270D01*
X173293839Y-132580277D01*
X173429430Y-132920585D01*
X173429439Y-132920603D01*
X173601028Y-133244254D01*
X173806608Y-133547461D01*
X173806615Y-133547471D01*
X173953213Y-133720059D01*
X174043767Y-133826667D01*
X174309723Y-134078594D01*
X174601357Y-134300289D01*
X174601362Y-134300292D01*
X174601366Y-134300295D01*
X174601371Y-134300299D01*
X174915247Y-134489150D01*
X174915252Y-134489153D01*
X174915256Y-134489154D01*
X174915260Y-134489157D01*
X175247715Y-134642968D01*
X175247719Y-134642968D01*
X175247726Y-134642972D01*
X175467092Y-134716885D01*
X175589090Y-134757991D01*
X175646335Y-134798051D01*
X175672835Y-134862700D01*
X175660175Y-134931414D01*
X175612376Y-134982375D01*
X175549497Y-134999500D01*
X124450503Y-134999500D01*
X124383464Y-134979815D01*
X124337709Y-134927011D01*
X124327765Y-134857853D01*
X124356790Y-134794297D01*
X124410910Y-134757991D01*
X124510799Y-134724333D01*
X124752274Y-134642972D01*
X124752281Y-134642968D01*
X124752284Y-134642968D01*
X125084739Y-134489157D01*
X125084748Y-134489153D01*
X125216754Y-134409728D01*
X125398628Y-134300299D01*
X125398633Y-134300295D01*
X125398632Y-134300295D01*
X125398643Y-134300289D01*
X125690277Y-134078594D01*
X125770901Y-134002223D01*
X145876700Y-134002223D01*
X145891484Y-134119239D01*
X145891485Y-134119245D01*
X145949455Y-134265660D01*
X145949457Y-134265664D01*
X146042023Y-134393069D01*
X146042024Y-134393070D01*
X146042025Y-134393071D01*
X146042026Y-134393072D01*
X146163363Y-134493451D01*
X146163364Y-134493451D01*
X146163365Y-134493452D01*
X146305859Y-134560505D01*
X146460552Y-134590014D01*
X146617723Y-134580126D01*
X146767498Y-134531461D01*
X146900464Y-134447078D01*
X147008268Y-134332278D01*
X147084136Y-134194276D01*
X147123300Y-134041741D01*
X147123300Y-134002223D01*
X152876700Y-134002223D01*
X152891484Y-134119239D01*
X152891485Y-134119245D01*
X152949455Y-134265660D01*
X152949457Y-134265664D01*
X153042023Y-134393069D01*
X153042024Y-134393070D01*
X153042025Y-134393071D01*
X153042026Y-134393072D01*
X153163363Y-134493451D01*
X153163364Y-134493451D01*
X153163365Y-134493452D01*
X153305859Y-134560505D01*
X153460552Y-134590014D01*
X153617723Y-134580126D01*
X153767498Y-134531461D01*
X153900464Y-134447078D01*
X154008268Y-134332278D01*
X154084136Y-134194276D01*
X154123300Y-134041741D01*
X154123300Y-133263786D01*
X154108516Y-133146760D01*
X154050543Y-133000336D01*
X153957977Y-132872931D01*
X153957974Y-132872929D01*
X153957974Y-132872928D01*
X153957973Y-132872927D01*
X153836636Y-132772548D01*
X153694139Y-132705494D01*
X153624884Y-132692283D01*
X153539448Y-132675986D01*
X153539444Y-132675986D01*
X153382277Y-132685874D01*
X153382274Y-132685874D01*
X153232499Y-132734540D01*
X153232497Y-132734541D01*
X153099535Y-132818922D01*
X152991734Y-132933718D01*
X152915864Y-133071724D01*
X152915862Y-133071730D01*
X152876700Y-133224255D01*
X152876700Y-134002223D01*
X147123300Y-134002223D01*
X147123300Y-133263786D01*
X147108516Y-133146760D01*
X147050543Y-133000336D01*
X146957977Y-132872931D01*
X146957974Y-132872929D01*
X146957974Y-132872928D01*
X146957973Y-132872927D01*
X146836636Y-132772548D01*
X146694139Y-132705494D01*
X146624884Y-132692283D01*
X146539448Y-132675986D01*
X146539444Y-132675986D01*
X146382277Y-132685874D01*
X146382274Y-132685874D01*
X146232499Y-132734540D01*
X146232497Y-132734541D01*
X146099535Y-132818922D01*
X145991734Y-132933718D01*
X145915864Y-133071724D01*
X145915862Y-133071730D01*
X145876700Y-133224255D01*
X145876700Y-134002223D01*
X125770901Y-134002223D01*
X125956233Y-133826667D01*
X126193391Y-133547463D01*
X126398972Y-133244254D01*
X126570565Y-132920595D01*
X126706159Y-132580281D01*
X126804163Y-132227301D01*
X126812477Y-132176590D01*
X129721700Y-132176590D01*
X129724412Y-132205520D01*
X129724412Y-132205522D01*
X129724413Y-132205525D01*
X129767056Y-132327392D01*
X129843725Y-132431275D01*
X129947608Y-132507944D01*
X129970205Y-132515851D01*
X130069467Y-132550585D01*
X130069471Y-132550585D01*
X130069475Y-132550587D01*
X130098407Y-132553300D01*
X130901592Y-132553299D01*
X130930525Y-132550587D01*
X131052392Y-132507944D01*
X131156275Y-132431275D01*
X131232944Y-132327392D01*
X131265440Y-132234523D01*
X131275585Y-132205532D01*
X131275585Y-132205529D01*
X131275587Y-132205525D01*
X131278300Y-132176593D01*
X131278299Y-131240741D01*
X131297983Y-131173703D01*
X131314613Y-131153066D01*
X131526540Y-130941139D01*
X131587861Y-130907656D01*
X131657553Y-130912640D01*
X131713486Y-130954512D01*
X131737903Y-131019976D01*
X131736095Y-131043671D01*
X131737191Y-131043795D01*
X131721700Y-131181282D01*
X131721700Y-131818717D01*
X131736410Y-131949278D01*
X131794338Y-132114828D01*
X131869548Y-132234524D01*
X131887650Y-132263333D01*
X132011667Y-132387350D01*
X132160171Y-132480661D01*
X132325716Y-132538588D01*
X132325719Y-132538588D01*
X132325721Y-132538589D01*
X132499996Y-132558225D01*
X132500000Y-132558225D01*
X132500004Y-132558225D01*
X132674278Y-132538589D01*
X132674279Y-132538588D01*
X132674284Y-132538588D01*
X132839829Y-132480661D01*
X132988333Y-132387350D01*
X133112350Y-132263333D01*
X133205661Y-132114829D01*
X133263588Y-131949284D01*
X133278300Y-131818711D01*
X133278300Y-131181289D01*
X133272993Y-131134190D01*
X133263589Y-131050721D01*
X133263588Y-131050719D01*
X133263588Y-131050716D01*
X133205661Y-130885171D01*
X133112350Y-130736667D01*
X132988333Y-130612650D01*
X132918427Y-130568725D01*
X132839828Y-130519338D01*
X132752874Y-130488912D01*
X132703802Y-130471741D01*
X132647028Y-130431020D01*
X132621280Y-130366068D01*
X132634736Y-130297506D01*
X132683123Y-130247103D01*
X132744758Y-130230700D01*
X134255242Y-130230700D01*
X134322281Y-130250385D01*
X134368036Y-130303189D01*
X134377980Y-130372347D01*
X134348955Y-130435903D01*
X134296197Y-130471741D01*
X134253858Y-130486556D01*
X134160171Y-130519338D01*
X134011666Y-130612650D01*
X133887650Y-130736666D01*
X133794338Y-130885171D01*
X133736410Y-131050721D01*
X133721700Y-131181282D01*
X133721700Y-131818717D01*
X133736410Y-131949278D01*
X133794338Y-132114828D01*
X133869548Y-132234524D01*
X133887650Y-132263333D01*
X134011667Y-132387350D01*
X134160171Y-132480661D01*
X134325716Y-132538588D01*
X134325719Y-132538588D01*
X134325721Y-132538589D01*
X134499996Y-132558225D01*
X134500000Y-132558225D01*
X134500004Y-132558225D01*
X134674278Y-132538589D01*
X134674279Y-132538588D01*
X134674284Y-132538588D01*
X134839829Y-132480661D01*
X134988333Y-132387350D01*
X135112350Y-132263333D01*
X135205661Y-132114829D01*
X135263588Y-131949284D01*
X135278300Y-131818711D01*
X135278300Y-131181289D01*
X135272993Y-131134190D01*
X135263589Y-131050721D01*
X135263588Y-131050719D01*
X135263588Y-131050716D01*
X135205661Y-130885171D01*
X135112350Y-130736667D01*
X134988333Y-130612650D01*
X134918427Y-130568725D01*
X134839828Y-130519338D01*
X134752874Y-130488912D01*
X134703802Y-130471741D01*
X134647028Y-130431020D01*
X134621280Y-130366068D01*
X134634736Y-130297506D01*
X134683123Y-130247103D01*
X134744758Y-130230700D01*
X136255242Y-130230700D01*
X136322281Y-130250385D01*
X136368036Y-130303189D01*
X136377980Y-130372347D01*
X136348955Y-130435903D01*
X136296197Y-130471741D01*
X136253858Y-130486556D01*
X136160171Y-130519338D01*
X136011666Y-130612650D01*
X135887650Y-130736666D01*
X135794338Y-130885171D01*
X135736410Y-131050721D01*
X135721700Y-131181282D01*
X135721700Y-131818717D01*
X135736410Y-131949278D01*
X135794338Y-132114828D01*
X135869548Y-132234524D01*
X135887650Y-132263333D01*
X136011667Y-132387350D01*
X136160171Y-132480661D01*
X136325716Y-132538588D01*
X136325719Y-132538588D01*
X136325721Y-132538589D01*
X136499996Y-132558225D01*
X136500000Y-132558225D01*
X136500004Y-132558225D01*
X136674278Y-132538589D01*
X136674279Y-132538588D01*
X136674284Y-132538588D01*
X136839829Y-132480661D01*
X136988333Y-132387350D01*
X137112350Y-132263333D01*
X137205661Y-132114829D01*
X137263588Y-131949284D01*
X137278300Y-131818711D01*
X137278300Y-131181289D01*
X137272993Y-131134190D01*
X137263589Y-131050721D01*
X137263588Y-131050719D01*
X137263588Y-131050716D01*
X137205661Y-130885171D01*
X137112350Y-130736667D01*
X136988333Y-130612650D01*
X136918427Y-130568725D01*
X136839828Y-130519338D01*
X136752874Y-130488912D01*
X136703802Y-130471741D01*
X136647028Y-130431020D01*
X136621280Y-130366068D01*
X136634736Y-130297506D01*
X136683123Y-130247103D01*
X136744758Y-130230700D01*
X137011658Y-130230700D01*
X137078697Y-130250385D01*
X137099339Y-130267019D01*
X138954029Y-132121709D01*
X138957680Y-132125693D01*
X138984151Y-132157239D01*
X138984153Y-132157240D01*
X139019793Y-132177817D01*
X139024358Y-132180725D01*
X139058083Y-132204340D01*
X139062301Y-132206307D01*
X139080764Y-132213954D01*
X139085147Y-132215550D01*
X139085149Y-132215551D01*
X139125703Y-132222700D01*
X139130969Y-132223868D01*
X139170733Y-132234524D01*
X139211747Y-132230935D01*
X139217149Y-132230700D01*
X156391923Y-132230700D01*
X156458962Y-132250385D01*
X156504717Y-132303189D01*
X156514661Y-132372347D01*
X156495025Y-132423588D01*
X156470991Y-132459557D01*
X156457044Y-132480432D01*
X156457043Y-132480433D01*
X156446700Y-132532434D01*
X156446700Y-134267558D01*
X156453212Y-134300299D01*
X156457045Y-134319569D01*
X156496453Y-134378547D01*
X156555431Y-134417955D01*
X156555432Y-134417955D01*
X156555433Y-134417956D01*
X156586578Y-134424150D01*
X156607439Y-134428300D01*
X158342560Y-134428299D01*
X158394569Y-134417955D01*
X158453547Y-134378547D01*
X158492955Y-134319569D01*
X158503300Y-134267561D01*
X158503299Y-132532440D01*
X158492955Y-132480431D01*
X158492954Y-132480429D01*
X158492953Y-132480426D01*
X158454976Y-132423592D01*
X158434097Y-132356915D01*
X158452581Y-132289535D01*
X158504559Y-132242844D01*
X158558077Y-132230700D01*
X162645239Y-132230700D01*
X162712278Y-132250385D01*
X162758033Y-132303189D01*
X162762280Y-132313743D01*
X162767056Y-132327392D01*
X162843725Y-132431275D01*
X162947608Y-132507944D01*
X162970205Y-132515851D01*
X163069467Y-132550585D01*
X163069471Y-132550585D01*
X163069475Y-132550587D01*
X163098407Y-132553300D01*
X163901592Y-132553299D01*
X163930525Y-132550587D01*
X164052392Y-132507944D01*
X164156275Y-132431275D01*
X164232944Y-132327392D01*
X164265440Y-132234523D01*
X164275585Y-132205532D01*
X164275585Y-132205529D01*
X164275587Y-132205525D01*
X164278300Y-132176593D01*
X164278300Y-131818717D01*
X164721700Y-131818717D01*
X164736410Y-131949278D01*
X164794338Y-132114828D01*
X164869548Y-132234524D01*
X164887650Y-132263333D01*
X165011667Y-132387350D01*
X165160171Y-132480661D01*
X165325716Y-132538588D01*
X165325719Y-132538588D01*
X165325721Y-132538589D01*
X165499996Y-132558225D01*
X165500000Y-132558225D01*
X165500004Y-132558225D01*
X165674278Y-132538589D01*
X165674279Y-132538588D01*
X165674284Y-132538588D01*
X165839829Y-132480661D01*
X165988333Y-132387350D01*
X166112350Y-132263333D01*
X166205661Y-132114829D01*
X166263588Y-131949284D01*
X166278299Y-131818717D01*
X166721700Y-131818717D01*
X166736410Y-131949278D01*
X166794338Y-132114828D01*
X166869548Y-132234524D01*
X166887650Y-132263333D01*
X167011667Y-132387350D01*
X167160171Y-132480661D01*
X167325716Y-132538588D01*
X167325719Y-132538588D01*
X167325721Y-132538589D01*
X167499996Y-132558225D01*
X167500000Y-132558225D01*
X167500004Y-132558225D01*
X167674278Y-132538589D01*
X167674279Y-132538588D01*
X167674284Y-132538588D01*
X167839829Y-132480661D01*
X167988333Y-132387350D01*
X168112350Y-132263333D01*
X168205661Y-132114829D01*
X168263588Y-131949284D01*
X168278299Y-131818717D01*
X168721700Y-131818717D01*
X168736410Y-131949278D01*
X168794338Y-132114828D01*
X168869548Y-132234524D01*
X168887650Y-132263333D01*
X169011667Y-132387350D01*
X169160171Y-132480661D01*
X169325716Y-132538588D01*
X169325719Y-132538588D01*
X169325721Y-132538589D01*
X169499996Y-132558225D01*
X169500000Y-132558225D01*
X169500004Y-132558225D01*
X169674278Y-132538589D01*
X169674279Y-132538588D01*
X169674284Y-132538588D01*
X169839829Y-132480661D01*
X169988333Y-132387350D01*
X170112350Y-132263333D01*
X170205661Y-132114829D01*
X170263588Y-131949284D01*
X170278300Y-131818711D01*
X170278300Y-131181289D01*
X170272993Y-131134190D01*
X170263589Y-131050721D01*
X170263588Y-131050719D01*
X170263588Y-131050716D01*
X170205661Y-130885171D01*
X170112350Y-130736667D01*
X169988333Y-130612650D01*
X169918427Y-130568725D01*
X169839828Y-130519338D01*
X169696253Y-130469099D01*
X169674284Y-130461412D01*
X169674283Y-130461411D01*
X169674278Y-130461410D01*
X169500004Y-130441775D01*
X169499996Y-130441775D01*
X169325721Y-130461410D01*
X169160171Y-130519338D01*
X169011666Y-130612650D01*
X168887650Y-130736666D01*
X168794338Y-130885171D01*
X168736410Y-131050721D01*
X168721700Y-131181282D01*
X168721700Y-131818717D01*
X168278299Y-131818717D01*
X168278300Y-131818711D01*
X168278300Y-131181289D01*
X168272993Y-131134190D01*
X168263589Y-131050721D01*
X168263588Y-131050719D01*
X168263588Y-131050716D01*
X168205661Y-130885171D01*
X168112350Y-130736667D01*
X167988333Y-130612650D01*
X167918427Y-130568725D01*
X167839828Y-130519338D01*
X167696253Y-130469099D01*
X167674284Y-130461412D01*
X167674283Y-130461411D01*
X167674278Y-130461410D01*
X167500004Y-130441775D01*
X167499996Y-130441775D01*
X167325721Y-130461410D01*
X167160171Y-130519338D01*
X167011666Y-130612650D01*
X166887650Y-130736666D01*
X166794338Y-130885171D01*
X166736410Y-131050721D01*
X166721700Y-131181282D01*
X166721700Y-131818717D01*
X166278299Y-131818717D01*
X166278300Y-131818711D01*
X166278300Y-131181289D01*
X166272993Y-131134190D01*
X166263589Y-131050721D01*
X166263588Y-131050719D01*
X166263588Y-131050716D01*
X166205661Y-130885171D01*
X166112350Y-130736667D01*
X165988333Y-130612650D01*
X165918427Y-130568725D01*
X165839828Y-130519338D01*
X165696253Y-130469099D01*
X165674284Y-130461412D01*
X165674283Y-130461411D01*
X165674278Y-130461410D01*
X165500004Y-130441775D01*
X165499996Y-130441775D01*
X165325721Y-130461410D01*
X165160171Y-130519338D01*
X165011666Y-130612650D01*
X164887650Y-130736666D01*
X164794338Y-130885171D01*
X164736410Y-131050721D01*
X164721700Y-131181282D01*
X164721700Y-131818717D01*
X164278300Y-131818717D01*
X164278299Y-130823408D01*
X164275587Y-130794475D01*
X164232944Y-130672608D01*
X164156275Y-130568725D01*
X164052392Y-130492056D01*
X164052390Y-130492055D01*
X163930532Y-130449414D01*
X163930520Y-130449412D01*
X163901597Y-130446700D01*
X163098409Y-130446700D01*
X163069479Y-130449412D01*
X163069476Y-130449412D01*
X163069475Y-130449413D01*
X162947608Y-130492056D01*
X162947607Y-130492056D01*
X162947606Y-130492057D01*
X162843725Y-130568725D01*
X162767055Y-130672609D01*
X162724414Y-130794467D01*
X162724412Y-130794479D01*
X162721700Y-130823402D01*
X162721700Y-130823407D01*
X162721700Y-131189381D01*
X162721701Y-131445300D01*
X162702017Y-131512339D01*
X162649213Y-131558094D01*
X162597701Y-131569300D01*
X153234996Y-131569300D01*
X153167957Y-131549615D01*
X153122202Y-131496811D01*
X153112258Y-131427653D01*
X153139452Y-131366260D01*
X153145663Y-131358752D01*
X153205983Y-131285838D01*
X153276263Y-131136485D01*
X153307193Y-130974347D01*
X153296828Y-130809611D01*
X153245821Y-130652628D01*
X153157377Y-130513261D01*
X153131448Y-130488912D01*
X153037055Y-130400271D01*
X153037047Y-130400265D01*
X152892410Y-130320751D01*
X152892402Y-130320748D01*
X152732533Y-130279700D01*
X152732531Y-130279700D01*
X152308902Y-130279700D01*
X152308892Y-130279700D01*
X152197391Y-130293787D01*
X152186240Y-130295196D01*
X152180406Y-130297506D01*
X152032766Y-130355959D01*
X151899233Y-130452977D01*
X151899230Y-130452979D01*
X151794017Y-130580161D01*
X151723736Y-130729517D01*
X151711345Y-130794475D01*
X151692807Y-130891653D01*
X151692807Y-130891655D01*
X151692807Y-130891656D01*
X151703172Y-131056388D01*
X151703172Y-131056391D01*
X151754179Y-131213372D01*
X151842623Y-131352739D01*
X151842624Y-131352741D01*
X151844933Y-131354909D01*
X151846195Y-131357057D01*
X151847597Y-131358752D01*
X151847323Y-131358978D01*
X151880327Y-131415151D01*
X151877533Y-131484965D01*
X151837438Y-131542185D01*
X151772773Y-131568645D01*
X151760048Y-131569300D01*
X148234996Y-131569300D01*
X148167957Y-131549615D01*
X148122202Y-131496811D01*
X148112258Y-131427653D01*
X148139452Y-131366260D01*
X148145663Y-131358752D01*
X148205983Y-131285838D01*
X148276263Y-131136485D01*
X148307193Y-130974347D01*
X148296828Y-130809611D01*
X148245821Y-130652628D01*
X148157377Y-130513261D01*
X148131448Y-130488912D01*
X148037055Y-130400271D01*
X148037047Y-130400265D01*
X147892410Y-130320751D01*
X147892402Y-130320748D01*
X147732533Y-130279700D01*
X147732531Y-130279700D01*
X147308902Y-130279700D01*
X147308892Y-130279700D01*
X147197391Y-130293787D01*
X147186240Y-130295196D01*
X147180406Y-130297506D01*
X147032766Y-130355959D01*
X146899233Y-130452977D01*
X146899230Y-130452979D01*
X146794017Y-130580161D01*
X146723736Y-130729517D01*
X146711345Y-130794475D01*
X146692807Y-130891653D01*
X146692807Y-130891655D01*
X146692807Y-130891656D01*
X146703172Y-131056388D01*
X146703172Y-131056391D01*
X146754179Y-131213372D01*
X146842623Y-131352739D01*
X146842624Y-131352741D01*
X146844933Y-131354909D01*
X146846195Y-131357057D01*
X146847597Y-131358752D01*
X146847323Y-131358978D01*
X146880327Y-131415151D01*
X146877533Y-131484965D01*
X146837438Y-131542185D01*
X146772773Y-131568645D01*
X146760048Y-131569300D01*
X139388342Y-131569300D01*
X139321303Y-131549615D01*
X139300661Y-131532981D01*
X137445969Y-129678289D01*
X137442319Y-129674306D01*
X137415849Y-129642761D01*
X137380196Y-129622176D01*
X137375646Y-129619278D01*
X137341916Y-129595660D01*
X137341914Y-129595659D01*
X137341912Y-129595658D01*
X137337718Y-129593702D01*
X137319204Y-129586033D01*
X137314852Y-129584449D01*
X137274310Y-129577300D01*
X137269028Y-129576129D01*
X137229266Y-129565475D01*
X137197098Y-129568290D01*
X137188251Y-129569064D01*
X137182851Y-129569300D01*
X132117149Y-129569300D01*
X132111748Y-129569064D01*
X132101623Y-129568178D01*
X132070732Y-129565475D01*
X132030972Y-129576129D01*
X132025689Y-129577300D01*
X131985153Y-129584447D01*
X131980823Y-129586023D01*
X131962259Y-129593712D01*
X131958084Y-129595659D01*
X131924351Y-129619278D01*
X131919791Y-129622183D01*
X131884151Y-129642760D01*
X131857692Y-129674292D01*
X131854037Y-129678281D01*
X131098501Y-130433817D01*
X131037178Y-130467302D01*
X130969867Y-130463178D01*
X130930531Y-130449414D01*
X130930520Y-130449412D01*
X130901597Y-130446700D01*
X130098409Y-130446700D01*
X130069479Y-130449412D01*
X130069476Y-130449412D01*
X130069475Y-130449413D01*
X129947608Y-130492056D01*
X129947607Y-130492056D01*
X129947606Y-130492057D01*
X129843725Y-130568725D01*
X129767055Y-130672609D01*
X129724414Y-130794467D01*
X129724412Y-130794479D01*
X129721700Y-130823402D01*
X129721700Y-132176590D01*
X126812477Y-132176590D01*
X126863429Y-131865795D01*
X126883262Y-131500000D01*
X126863429Y-131134205D01*
X126849742Y-131050721D01*
X126804165Y-130772711D01*
X126804164Y-130772710D01*
X126804163Y-130772699D01*
X126747530Y-130568725D01*
X126706162Y-130419729D01*
X126706160Y-130419722D01*
X126570569Y-130079414D01*
X126570560Y-130079396D01*
X126398971Y-129755745D01*
X126193391Y-129452537D01*
X126193387Y-129452532D01*
X126193384Y-129452528D01*
X125956233Y-129173333D01*
X125690277Y-128921406D01*
X125398643Y-128699711D01*
X125398639Y-128699708D01*
X125398633Y-128699704D01*
X125398628Y-128699700D01*
X125084752Y-128510849D01*
X125084739Y-128510842D01*
X124752284Y-128357031D01*
X124752279Y-128357030D01*
X124752276Y-128357029D01*
X124752274Y-128357028D01*
X124641619Y-128319744D01*
X124405120Y-128240058D01*
X124047348Y-128161306D01*
X123683169Y-128121700D01*
X123683166Y-128121700D01*
X123316834Y-128121700D01*
X123316830Y-128121700D01*
X122952651Y-128161306D01*
X122594879Y-128240058D01*
X122247720Y-128357030D01*
X122247715Y-128357031D01*
X121915260Y-128510842D01*
X121915247Y-128510849D01*
X121601371Y-128699700D01*
X121601366Y-128699704D01*
X121309723Y-128921405D01*
X121309723Y-128921406D01*
X121043766Y-129173333D01*
X120806615Y-129452528D01*
X120806608Y-129452538D01*
X120601028Y-129755745D01*
X120429439Y-130079396D01*
X120429430Y-130079414D01*
X120293839Y-130419722D01*
X120293837Y-130419729D01*
X120243980Y-130599300D01*
X120207078Y-130658630D01*
X120143958Y-130688591D01*
X120074660Y-130679670D01*
X120021186Y-130634700D01*
X120000514Y-130567959D01*
X120000500Y-130566127D01*
X120000500Y-128000001D01*
X140916710Y-128000001D01*
X140936584Y-128150965D01*
X140936586Y-128150970D01*
X140994853Y-128291640D01*
X140994856Y-128291646D01*
X141087551Y-128412447D01*
X141087552Y-128412448D01*
X141208353Y-128505143D01*
X141208359Y-128505146D01*
X141278694Y-128534279D01*
X141349033Y-128563415D01*
X141424516Y-128573352D01*
X141499999Y-128583290D01*
X141500000Y-128583290D01*
X141500001Y-128583290D01*
X141550322Y-128576665D01*
X141650967Y-128563415D01*
X141791645Y-128505144D01*
X141912448Y-128412448D01*
X142005144Y-128291645D01*
X142063415Y-128150967D01*
X142083290Y-128000000D01*
X142063415Y-127849033D01*
X142005144Y-127708355D01*
X142005143Y-127708353D01*
X141912448Y-127587552D01*
X141912447Y-127587551D01*
X141791646Y-127494856D01*
X141791640Y-127494853D01*
X141650970Y-127436586D01*
X141650965Y-127436584D01*
X141500001Y-127416710D01*
X141499999Y-127416710D01*
X141349034Y-127436584D01*
X141349029Y-127436586D01*
X141208359Y-127494853D01*
X141208353Y-127494856D01*
X141087552Y-127587551D01*
X141087551Y-127587552D01*
X140994856Y-127708353D01*
X140994853Y-127708359D01*
X140936586Y-127849029D01*
X140936584Y-127849034D01*
X140916710Y-127999998D01*
X140916710Y-128000001D01*
X120000500Y-128000001D01*
X120000500Y-124840001D01*
X124016710Y-124840001D01*
X124036584Y-124990965D01*
X124036586Y-124990970D01*
X124094853Y-125131640D01*
X124094856Y-125131646D01*
X124187551Y-125252447D01*
X124187552Y-125252448D01*
X124308353Y-125345143D01*
X124308359Y-125345146D01*
X124373106Y-125371965D01*
X124449033Y-125403415D01*
X124524516Y-125413352D01*
X124599999Y-125423290D01*
X124600000Y-125423290D01*
X124600001Y-125423290D01*
X124650322Y-125416665D01*
X124750967Y-125403415D01*
X124891645Y-125345144D01*
X125012448Y-125252448D01*
X125105144Y-125131645D01*
X125163415Y-124990967D01*
X125183290Y-124840001D01*
X126556710Y-124840001D01*
X126576584Y-124990965D01*
X126576586Y-124990970D01*
X126634853Y-125131640D01*
X126634856Y-125131646D01*
X126727551Y-125252447D01*
X126727552Y-125252448D01*
X126848353Y-125345143D01*
X126848359Y-125345146D01*
X126913106Y-125371965D01*
X126989033Y-125403415D01*
X127064516Y-125413352D01*
X127139999Y-125423290D01*
X127140000Y-125423290D01*
X127140001Y-125423290D01*
X127190322Y-125416665D01*
X127290967Y-125403415D01*
X127431645Y-125345144D01*
X127552448Y-125252448D01*
X127645144Y-125131645D01*
X127703415Y-124990967D01*
X127723290Y-124840001D01*
X129096710Y-124840001D01*
X129116584Y-124990965D01*
X129116586Y-124990970D01*
X129174853Y-125131640D01*
X129174856Y-125131646D01*
X129267551Y-125252447D01*
X129267552Y-125252448D01*
X129388353Y-125345143D01*
X129388359Y-125345146D01*
X129453106Y-125371965D01*
X129529033Y-125403415D01*
X129604516Y-125413352D01*
X129679999Y-125423290D01*
X129680000Y-125423290D01*
X129680001Y-125423290D01*
X129730322Y-125416665D01*
X129830967Y-125403415D01*
X129971645Y-125345144D01*
X130092448Y-125252448D01*
X130185144Y-125131645D01*
X130243415Y-124990967D01*
X130263290Y-124840001D01*
X131636710Y-124840001D01*
X131656584Y-124990965D01*
X131656586Y-124990970D01*
X131714853Y-125131640D01*
X131714856Y-125131646D01*
X131807551Y-125252447D01*
X131807552Y-125252448D01*
X131928353Y-125345143D01*
X131928359Y-125345146D01*
X131993106Y-125371965D01*
X132069033Y-125403415D01*
X132144516Y-125413352D01*
X132219999Y-125423290D01*
X132220000Y-125423290D01*
X132220001Y-125423290D01*
X132270322Y-125416665D01*
X132370967Y-125403415D01*
X132511645Y-125345144D01*
X132632448Y-125252448D01*
X132725144Y-125131645D01*
X132783415Y-124990967D01*
X132803290Y-124840001D01*
X134176710Y-124840001D01*
X134196584Y-124990965D01*
X134196586Y-124990970D01*
X134254853Y-125131640D01*
X134254856Y-125131646D01*
X134347551Y-125252447D01*
X134347552Y-125252448D01*
X134468353Y-125345143D01*
X134468359Y-125345146D01*
X134533106Y-125371965D01*
X134609033Y-125403415D01*
X134684516Y-125413352D01*
X134759999Y-125423290D01*
X134760000Y-125423290D01*
X134760001Y-125423290D01*
X134810322Y-125416665D01*
X134910967Y-125403415D01*
X135051645Y-125345144D01*
X135172448Y-125252448D01*
X135265144Y-125131645D01*
X135323415Y-124990967D01*
X135343290Y-124840000D01*
X135338372Y-124802647D01*
X135323415Y-124689034D01*
X135323413Y-124689029D01*
X135312803Y-124663415D01*
X135288667Y-124605144D01*
X135265146Y-124548359D01*
X135265143Y-124548353D01*
X135172448Y-124427552D01*
X135172447Y-124427551D01*
X135051646Y-124334856D01*
X135051640Y-124334853D01*
X134910970Y-124276586D01*
X134910965Y-124276584D01*
X134760001Y-124256710D01*
X134759999Y-124256710D01*
X134609034Y-124276584D01*
X134609029Y-124276586D01*
X134468359Y-124334853D01*
X134468353Y-124334856D01*
X134347552Y-124427551D01*
X134347551Y-124427552D01*
X134254856Y-124548353D01*
X134254853Y-124548359D01*
X134196586Y-124689029D01*
X134196584Y-124689034D01*
X134176710Y-124839998D01*
X134176710Y-124840001D01*
X132803290Y-124840001D01*
X132803290Y-124840000D01*
X132798372Y-124802647D01*
X132783415Y-124689034D01*
X132783413Y-124689029D01*
X132772803Y-124663415D01*
X132748667Y-124605144D01*
X132725146Y-124548359D01*
X132725143Y-124548353D01*
X132632448Y-124427552D01*
X132632447Y-124427551D01*
X132511646Y-124334856D01*
X132511640Y-124334853D01*
X132370970Y-124276586D01*
X132370965Y-124276584D01*
X132220001Y-124256710D01*
X132219999Y-124256710D01*
X132069034Y-124276584D01*
X132069029Y-124276586D01*
X131928359Y-124334853D01*
X131928353Y-124334856D01*
X131807552Y-124427551D01*
X131807551Y-124427552D01*
X131714856Y-124548353D01*
X131714853Y-124548359D01*
X131656586Y-124689029D01*
X131656584Y-124689034D01*
X131636710Y-124839998D01*
X131636710Y-124840001D01*
X130263290Y-124840001D01*
X130263290Y-124840000D01*
X130258372Y-124802647D01*
X130243415Y-124689034D01*
X130243413Y-124689029D01*
X130232803Y-124663415D01*
X130208667Y-124605144D01*
X130185146Y-124548359D01*
X130185143Y-124548353D01*
X130092448Y-124427552D01*
X130092447Y-124427551D01*
X129971646Y-124334856D01*
X129971640Y-124334853D01*
X129830970Y-124276586D01*
X129830965Y-124276584D01*
X129680001Y-124256710D01*
X129679999Y-124256710D01*
X129529034Y-124276584D01*
X129529029Y-124276586D01*
X129388359Y-124334853D01*
X129388353Y-124334856D01*
X129267552Y-124427551D01*
X129267551Y-124427552D01*
X129174856Y-124548353D01*
X129174853Y-124548359D01*
X129116586Y-124689029D01*
X129116584Y-124689034D01*
X129096710Y-124839998D01*
X129096710Y-124840001D01*
X127723290Y-124840001D01*
X127723290Y-124840000D01*
X127718372Y-124802647D01*
X127703415Y-124689034D01*
X127703413Y-124689029D01*
X127692803Y-124663415D01*
X127668667Y-124605144D01*
X127645146Y-124548359D01*
X127645143Y-124548353D01*
X127552448Y-124427552D01*
X127552447Y-124427551D01*
X127431646Y-124334856D01*
X127431640Y-124334853D01*
X127290970Y-124276586D01*
X127290965Y-124276584D01*
X127140001Y-124256710D01*
X127139999Y-124256710D01*
X126989034Y-124276584D01*
X126989029Y-124276586D01*
X126848359Y-124334853D01*
X126848353Y-124334856D01*
X126727552Y-124427551D01*
X126727551Y-124427552D01*
X126634856Y-124548353D01*
X126634853Y-124548359D01*
X126576586Y-124689029D01*
X126576584Y-124689034D01*
X126556710Y-124839998D01*
X126556710Y-124840001D01*
X125183290Y-124840001D01*
X125183290Y-124840000D01*
X125178372Y-124802647D01*
X125163415Y-124689034D01*
X125163413Y-124689029D01*
X125152803Y-124663415D01*
X125128667Y-124605144D01*
X125105146Y-124548359D01*
X125105143Y-124548353D01*
X125012448Y-124427552D01*
X125012447Y-124427551D01*
X124891646Y-124334856D01*
X124891640Y-124334853D01*
X124750970Y-124276586D01*
X124750965Y-124276584D01*
X124600001Y-124256710D01*
X124599999Y-124256710D01*
X124449034Y-124276584D01*
X124449029Y-124276586D01*
X124308359Y-124334853D01*
X124308353Y-124334856D01*
X124187552Y-124427551D01*
X124187551Y-124427552D01*
X124094856Y-124548353D01*
X124094853Y-124548359D01*
X124036586Y-124689029D01*
X124036584Y-124689034D01*
X124016710Y-124839998D01*
X124016710Y-124840001D01*
X120000500Y-124840001D01*
X120000500Y-122300001D01*
X124016710Y-122300001D01*
X124036584Y-122450965D01*
X124036586Y-122450970D01*
X124094853Y-122591640D01*
X124094856Y-122591646D01*
X124187551Y-122712447D01*
X124187552Y-122712448D01*
X124308353Y-122805143D01*
X124308359Y-122805146D01*
X124378694Y-122834279D01*
X124449033Y-122863415D01*
X124524516Y-122873352D01*
X124599999Y-122883290D01*
X124600000Y-122883290D01*
X124600001Y-122883290D01*
X124650322Y-122876665D01*
X124750967Y-122863415D01*
X124891645Y-122805144D01*
X125012448Y-122712448D01*
X125105144Y-122591645D01*
X125163415Y-122450967D01*
X125183290Y-122300001D01*
X126556710Y-122300001D01*
X126576584Y-122450965D01*
X126576586Y-122450970D01*
X126634853Y-122591640D01*
X126634856Y-122591646D01*
X126727551Y-122712447D01*
X126727552Y-122712448D01*
X126848353Y-122805143D01*
X126848359Y-122805146D01*
X126918694Y-122834279D01*
X126989033Y-122863415D01*
X127064516Y-122873352D01*
X127139999Y-122883290D01*
X127140000Y-122883290D01*
X127140001Y-122883290D01*
X127190322Y-122876665D01*
X127290967Y-122863415D01*
X127431645Y-122805144D01*
X127552448Y-122712448D01*
X127645144Y-122591645D01*
X127703415Y-122450967D01*
X127723290Y-122300001D01*
X129096710Y-122300001D01*
X129116584Y-122450965D01*
X129116586Y-122450970D01*
X129174853Y-122591640D01*
X129174856Y-122591646D01*
X129267551Y-122712447D01*
X129267552Y-122712448D01*
X129388353Y-122805143D01*
X129388359Y-122805146D01*
X129458694Y-122834279D01*
X129529033Y-122863415D01*
X129604516Y-122873352D01*
X129679999Y-122883290D01*
X129680000Y-122883290D01*
X129680001Y-122883290D01*
X129730322Y-122876665D01*
X129830967Y-122863415D01*
X129971645Y-122805144D01*
X130092448Y-122712448D01*
X130185144Y-122591645D01*
X130243415Y-122450967D01*
X130263290Y-122300001D01*
X131636710Y-122300001D01*
X131656584Y-122450965D01*
X131656586Y-122450970D01*
X131714853Y-122591640D01*
X131714856Y-122591646D01*
X131807551Y-122712447D01*
X131807552Y-122712448D01*
X131928353Y-122805143D01*
X131928359Y-122805146D01*
X131998694Y-122834279D01*
X132069033Y-122863415D01*
X132144516Y-122873352D01*
X132219999Y-122883290D01*
X132220000Y-122883290D01*
X132220001Y-122883290D01*
X132270322Y-122876665D01*
X132370967Y-122863415D01*
X132511645Y-122805144D01*
X132632448Y-122712448D01*
X132725144Y-122591645D01*
X132783415Y-122450967D01*
X132803290Y-122300001D01*
X134176710Y-122300001D01*
X134196584Y-122450965D01*
X134196586Y-122450970D01*
X134254853Y-122591640D01*
X134254856Y-122591646D01*
X134347551Y-122712447D01*
X134347552Y-122712448D01*
X134468353Y-122805143D01*
X134468359Y-122805146D01*
X134538694Y-122834279D01*
X134609033Y-122863415D01*
X134684516Y-122873352D01*
X134759999Y-122883290D01*
X134760000Y-122883290D01*
X134760001Y-122883290D01*
X134810322Y-122876665D01*
X134910967Y-122863415D01*
X135051645Y-122805144D01*
X135172448Y-122712448D01*
X135265144Y-122591645D01*
X135323415Y-122450967D01*
X135343290Y-122300000D01*
X135323415Y-122149033D01*
X135265144Y-122008355D01*
X135265143Y-122008353D01*
X135172448Y-121887552D01*
X135172447Y-121887551D01*
X135051646Y-121794856D01*
X135051640Y-121794853D01*
X134910970Y-121736586D01*
X134910965Y-121736584D01*
X134760001Y-121716710D01*
X134759999Y-121716710D01*
X134609034Y-121736584D01*
X134609029Y-121736586D01*
X134468359Y-121794853D01*
X134468353Y-121794856D01*
X134347552Y-121887551D01*
X134347551Y-121887552D01*
X134254856Y-122008353D01*
X134254853Y-122008359D01*
X134196586Y-122149029D01*
X134196584Y-122149034D01*
X134176710Y-122299998D01*
X134176710Y-122300001D01*
X132803290Y-122300001D01*
X132803290Y-122300000D01*
X132783415Y-122149033D01*
X132725144Y-122008355D01*
X132725143Y-122008353D01*
X132632448Y-121887552D01*
X132632447Y-121887551D01*
X132511646Y-121794856D01*
X132511640Y-121794853D01*
X132370970Y-121736586D01*
X132370965Y-121736584D01*
X132220001Y-121716710D01*
X132219999Y-121716710D01*
X132069034Y-121736584D01*
X132069029Y-121736586D01*
X131928359Y-121794853D01*
X131928353Y-121794856D01*
X131807552Y-121887551D01*
X131807551Y-121887552D01*
X131714856Y-122008353D01*
X131714853Y-122008359D01*
X131656586Y-122149029D01*
X131656584Y-122149034D01*
X131636710Y-122299998D01*
X131636710Y-122300001D01*
X130263290Y-122300001D01*
X130263290Y-122300000D01*
X130243415Y-122149033D01*
X130185144Y-122008355D01*
X130185143Y-122008353D01*
X130092448Y-121887552D01*
X130092447Y-121887551D01*
X129971646Y-121794856D01*
X129971640Y-121794853D01*
X129830970Y-121736586D01*
X129830965Y-121736584D01*
X129680001Y-121716710D01*
X129679999Y-121716710D01*
X129529034Y-121736584D01*
X129529029Y-121736586D01*
X129388359Y-121794853D01*
X129388353Y-121794856D01*
X129267552Y-121887551D01*
X129267551Y-121887552D01*
X129174856Y-122008353D01*
X129174853Y-122008359D01*
X129116586Y-122149029D01*
X129116584Y-122149034D01*
X129096710Y-122299998D01*
X129096710Y-122300001D01*
X127723290Y-122300001D01*
X127723290Y-122300000D01*
X127703415Y-122149033D01*
X127645144Y-122008355D01*
X127645143Y-122008353D01*
X127552448Y-121887552D01*
X127552447Y-121887551D01*
X127431646Y-121794856D01*
X127431640Y-121794853D01*
X127290970Y-121736586D01*
X127290965Y-121736584D01*
X127140001Y-121716710D01*
X127139999Y-121716710D01*
X126989034Y-121736584D01*
X126989029Y-121736586D01*
X126848359Y-121794853D01*
X126848353Y-121794856D01*
X126727552Y-121887551D01*
X126727551Y-121887552D01*
X126634856Y-122008353D01*
X126634853Y-122008359D01*
X126576586Y-122149029D01*
X126576584Y-122149034D01*
X126556710Y-122299998D01*
X126556710Y-122300001D01*
X125183290Y-122300001D01*
X125183290Y-122300000D01*
X125163415Y-122149033D01*
X125105144Y-122008355D01*
X125105143Y-122008353D01*
X125012448Y-121887552D01*
X125012447Y-121887551D01*
X124891646Y-121794856D01*
X124891640Y-121794853D01*
X124750970Y-121736586D01*
X124750965Y-121736584D01*
X124600001Y-121716710D01*
X124599999Y-121716710D01*
X124449034Y-121736584D01*
X124449029Y-121736586D01*
X124308359Y-121794853D01*
X124308353Y-121794856D01*
X124187552Y-121887551D01*
X124187551Y-121887552D01*
X124094856Y-122008353D01*
X124094853Y-122008359D01*
X124036586Y-122149029D01*
X124036584Y-122149034D01*
X124016710Y-122299998D01*
X124016710Y-122300001D01*
X120000500Y-122300001D01*
X120000500Y-119760001D01*
X124016710Y-119760001D01*
X124036584Y-119910965D01*
X124036586Y-119910970D01*
X124094853Y-120051640D01*
X124094856Y-120051646D01*
X124187551Y-120172447D01*
X124187552Y-120172448D01*
X124308353Y-120265143D01*
X124308359Y-120265146D01*
X124374086Y-120292371D01*
X124449033Y-120323415D01*
X124467985Y-120325910D01*
X124599999Y-120343290D01*
X124600000Y-120343290D01*
X124600001Y-120343290D01*
X124650938Y-120336584D01*
X124750967Y-120323415D01*
X124891645Y-120265144D01*
X125012448Y-120172448D01*
X125105144Y-120051645D01*
X125163415Y-119910967D01*
X125178265Y-119798170D01*
X125183290Y-119760001D01*
X126556710Y-119760001D01*
X126576584Y-119910965D01*
X126576586Y-119910970D01*
X126634853Y-120051640D01*
X126634856Y-120051646D01*
X126727551Y-120172447D01*
X126727552Y-120172448D01*
X126848353Y-120265143D01*
X126848359Y-120265146D01*
X126914086Y-120292371D01*
X126989033Y-120323415D01*
X127007985Y-120325910D01*
X127139999Y-120343290D01*
X127140000Y-120343290D01*
X127140001Y-120343290D01*
X127190938Y-120336584D01*
X127290967Y-120323415D01*
X127431645Y-120265144D01*
X127552448Y-120172448D01*
X127645144Y-120051645D01*
X127703415Y-119910967D01*
X127718265Y-119798170D01*
X127723290Y-119760001D01*
X129096710Y-119760001D01*
X129116584Y-119910965D01*
X129116586Y-119910970D01*
X129174853Y-120051640D01*
X129174856Y-120051646D01*
X129267551Y-120172447D01*
X129267552Y-120172448D01*
X129388353Y-120265143D01*
X129388359Y-120265146D01*
X129454086Y-120292371D01*
X129529033Y-120323415D01*
X129547985Y-120325910D01*
X129679999Y-120343290D01*
X129680000Y-120343290D01*
X129680001Y-120343290D01*
X129730938Y-120336584D01*
X129830967Y-120323415D01*
X129971645Y-120265144D01*
X130092448Y-120172448D01*
X130185144Y-120051645D01*
X130243415Y-119910967D01*
X130258265Y-119798170D01*
X130263290Y-119760001D01*
X131636710Y-119760001D01*
X131656584Y-119910965D01*
X131656586Y-119910970D01*
X131714853Y-120051640D01*
X131714856Y-120051646D01*
X131807551Y-120172447D01*
X131807552Y-120172448D01*
X131928353Y-120265143D01*
X131928359Y-120265146D01*
X131994086Y-120292371D01*
X132069033Y-120323415D01*
X132087985Y-120325910D01*
X132219999Y-120343290D01*
X132220000Y-120343290D01*
X132220001Y-120343290D01*
X132270938Y-120336584D01*
X132370967Y-120323415D01*
X132511645Y-120265144D01*
X132632448Y-120172448D01*
X132725144Y-120051645D01*
X132783415Y-119910967D01*
X132798265Y-119798170D01*
X132803290Y-119760001D01*
X134176710Y-119760001D01*
X134196584Y-119910965D01*
X134196586Y-119910970D01*
X134254853Y-120051640D01*
X134254856Y-120051646D01*
X134347551Y-120172447D01*
X134347552Y-120172448D01*
X134468353Y-120265143D01*
X134468359Y-120265146D01*
X134534086Y-120292371D01*
X134609033Y-120323415D01*
X134627985Y-120325910D01*
X134759999Y-120343290D01*
X134760000Y-120343290D01*
X134760001Y-120343290D01*
X134810938Y-120336584D01*
X134910967Y-120323415D01*
X135051645Y-120265144D01*
X135172448Y-120172448D01*
X135265144Y-120051645D01*
X135323415Y-119910967D01*
X135338265Y-119798170D01*
X135343290Y-119760001D01*
X135343290Y-119759998D01*
X135329310Y-119653807D01*
X135323415Y-119609033D01*
X135294279Y-119538694D01*
X135265146Y-119468359D01*
X135265143Y-119468353D01*
X135172448Y-119347552D01*
X135172447Y-119347551D01*
X135051646Y-119254856D01*
X135051640Y-119254853D01*
X134910970Y-119196586D01*
X134910965Y-119196584D01*
X134760001Y-119176710D01*
X134759999Y-119176710D01*
X134609034Y-119196584D01*
X134609029Y-119196586D01*
X134468359Y-119254853D01*
X134468353Y-119254856D01*
X134347552Y-119347551D01*
X134347551Y-119347552D01*
X134254856Y-119468353D01*
X134254853Y-119468359D01*
X134196586Y-119609029D01*
X134196584Y-119609034D01*
X134176710Y-119759998D01*
X134176710Y-119760001D01*
X132803290Y-119760001D01*
X132803290Y-119759998D01*
X132789310Y-119653807D01*
X132783415Y-119609033D01*
X132754279Y-119538694D01*
X132725146Y-119468359D01*
X132725143Y-119468353D01*
X132632448Y-119347552D01*
X132632447Y-119347551D01*
X132511646Y-119254856D01*
X132511640Y-119254853D01*
X132370970Y-119196586D01*
X132370965Y-119196584D01*
X132220001Y-119176710D01*
X132219999Y-119176710D01*
X132069034Y-119196584D01*
X132069029Y-119196586D01*
X131928359Y-119254853D01*
X131928353Y-119254856D01*
X131807552Y-119347551D01*
X131807551Y-119347552D01*
X131714856Y-119468353D01*
X131714853Y-119468359D01*
X131656586Y-119609029D01*
X131656584Y-119609034D01*
X131636710Y-119759998D01*
X131636710Y-119760001D01*
X130263290Y-119760001D01*
X130263290Y-119759998D01*
X130249310Y-119653807D01*
X130243415Y-119609033D01*
X130214279Y-119538694D01*
X130185146Y-119468359D01*
X130185143Y-119468353D01*
X130092448Y-119347552D01*
X130092447Y-119347551D01*
X129971646Y-119254856D01*
X129971640Y-119254853D01*
X129830970Y-119196586D01*
X129830965Y-119196584D01*
X129680001Y-119176710D01*
X129679999Y-119176710D01*
X129529034Y-119196584D01*
X129529029Y-119196586D01*
X129388359Y-119254853D01*
X129388353Y-119254856D01*
X129267552Y-119347551D01*
X129267551Y-119347552D01*
X129174856Y-119468353D01*
X129174853Y-119468359D01*
X129116586Y-119609029D01*
X129116584Y-119609034D01*
X129096710Y-119759998D01*
X129096710Y-119760001D01*
X127723290Y-119760001D01*
X127723290Y-119759998D01*
X127709310Y-119653807D01*
X127703415Y-119609033D01*
X127674279Y-119538694D01*
X127645146Y-119468359D01*
X127645143Y-119468353D01*
X127552448Y-119347552D01*
X127552447Y-119347551D01*
X127431646Y-119254856D01*
X127431640Y-119254853D01*
X127290970Y-119196586D01*
X127290965Y-119196584D01*
X127140001Y-119176710D01*
X127139999Y-119176710D01*
X126989034Y-119196584D01*
X126989029Y-119196586D01*
X126848359Y-119254853D01*
X126848353Y-119254856D01*
X126727552Y-119347551D01*
X126727551Y-119347552D01*
X126634856Y-119468353D01*
X126634853Y-119468359D01*
X126576586Y-119609029D01*
X126576584Y-119609034D01*
X126556710Y-119759998D01*
X126556710Y-119760001D01*
X125183290Y-119760001D01*
X125183290Y-119759998D01*
X125169310Y-119653807D01*
X125163415Y-119609033D01*
X125134279Y-119538694D01*
X125105146Y-119468359D01*
X125105143Y-119468353D01*
X125012448Y-119347552D01*
X125012447Y-119347551D01*
X124891646Y-119254856D01*
X124891640Y-119254853D01*
X124750970Y-119196586D01*
X124750965Y-119196584D01*
X124600001Y-119176710D01*
X124599999Y-119176710D01*
X124449034Y-119196584D01*
X124449029Y-119196586D01*
X124308359Y-119254853D01*
X124308353Y-119254856D01*
X124187552Y-119347551D01*
X124187551Y-119347552D01*
X124094856Y-119468353D01*
X124094853Y-119468359D01*
X124036586Y-119609029D01*
X124036584Y-119609034D01*
X124016710Y-119759998D01*
X124016710Y-119760001D01*
X120000500Y-119760001D01*
X120000500Y-118795754D01*
X138120957Y-118795754D01*
X138140831Y-118946718D01*
X138140833Y-118946723D01*
X138199100Y-119087393D01*
X138199103Y-119087399D01*
X138291798Y-119208200D01*
X138291799Y-119208201D01*
X138412600Y-119300896D01*
X138412606Y-119300899D01*
X138482941Y-119330032D01*
X138553280Y-119359168D01*
X138628763Y-119369105D01*
X138704246Y-119379043D01*
X138704247Y-119379043D01*
X138704248Y-119379043D01*
X138754569Y-119372418D01*
X138855214Y-119359168D01*
X138995892Y-119300897D01*
X139116695Y-119208201D01*
X139209391Y-119087398D01*
X139267662Y-118946720D01*
X139287537Y-118795753D01*
X139282352Y-118756372D01*
X139267662Y-118644787D01*
X139267660Y-118644782D01*
X139266960Y-118643093D01*
X139209391Y-118504108D01*
X139209390Y-118504106D01*
X139116695Y-118383305D01*
X139116694Y-118383304D01*
X138995893Y-118290609D01*
X138995887Y-118290606D01*
X138855217Y-118232339D01*
X138855212Y-118232337D01*
X138704248Y-118212463D01*
X138704246Y-118212463D01*
X138553281Y-118232337D01*
X138553276Y-118232339D01*
X138412606Y-118290606D01*
X138412600Y-118290609D01*
X138291799Y-118383304D01*
X138291798Y-118383305D01*
X138199103Y-118504106D01*
X138199100Y-118504112D01*
X138140833Y-118644782D01*
X138140831Y-118644787D01*
X138120957Y-118795751D01*
X138120957Y-118795754D01*
X120000500Y-118795754D01*
X120000500Y-117220001D01*
X124016710Y-117220001D01*
X124036584Y-117370965D01*
X124036586Y-117370970D01*
X124094853Y-117511640D01*
X124094856Y-117511646D01*
X124187551Y-117632447D01*
X124187552Y-117632448D01*
X124308353Y-117725143D01*
X124308359Y-117725146D01*
X124378694Y-117754279D01*
X124449033Y-117783415D01*
X124524516Y-117793352D01*
X124599999Y-117803290D01*
X124600000Y-117803290D01*
X124600001Y-117803290D01*
X124656703Y-117795825D01*
X124750967Y-117783415D01*
X124891645Y-117725144D01*
X125012448Y-117632448D01*
X125105144Y-117511645D01*
X125163415Y-117370967D01*
X125176665Y-117270322D01*
X125183290Y-117220001D01*
X126556710Y-117220001D01*
X126576584Y-117370965D01*
X126576586Y-117370970D01*
X126634853Y-117511640D01*
X126634856Y-117511646D01*
X126727551Y-117632447D01*
X126727552Y-117632448D01*
X126848353Y-117725143D01*
X126848359Y-117725146D01*
X126918694Y-117754279D01*
X126989033Y-117783415D01*
X127064516Y-117793352D01*
X127139999Y-117803290D01*
X127140000Y-117803290D01*
X127140001Y-117803290D01*
X127196703Y-117795825D01*
X127290967Y-117783415D01*
X127431645Y-117725144D01*
X127552448Y-117632448D01*
X127645144Y-117511645D01*
X127703415Y-117370967D01*
X127716665Y-117270322D01*
X127723290Y-117220001D01*
X129096710Y-117220001D01*
X129116584Y-117370965D01*
X129116586Y-117370970D01*
X129174853Y-117511640D01*
X129174856Y-117511646D01*
X129267551Y-117632447D01*
X129267552Y-117632448D01*
X129388353Y-117725143D01*
X129388359Y-117725146D01*
X129458694Y-117754279D01*
X129529033Y-117783415D01*
X129604516Y-117793352D01*
X129679999Y-117803290D01*
X129680000Y-117803290D01*
X129680001Y-117803290D01*
X129736703Y-117795825D01*
X129830967Y-117783415D01*
X129971645Y-117725144D01*
X130092448Y-117632448D01*
X130185144Y-117511645D01*
X130243415Y-117370967D01*
X130256665Y-117270322D01*
X130263290Y-117220001D01*
X131636710Y-117220001D01*
X131656584Y-117370965D01*
X131656586Y-117370970D01*
X131714853Y-117511640D01*
X131714856Y-117511646D01*
X131807551Y-117632447D01*
X131807552Y-117632448D01*
X131928353Y-117725143D01*
X131928359Y-117725146D01*
X131998694Y-117754279D01*
X132069033Y-117783415D01*
X132144516Y-117793352D01*
X132219999Y-117803290D01*
X132220000Y-117803290D01*
X132220001Y-117803290D01*
X132276703Y-117795825D01*
X132370967Y-117783415D01*
X132511645Y-117725144D01*
X132632448Y-117632448D01*
X132725144Y-117511645D01*
X132783415Y-117370967D01*
X132796665Y-117270322D01*
X132803290Y-117220001D01*
X134176710Y-117220001D01*
X134196584Y-117370965D01*
X134196586Y-117370970D01*
X134254853Y-117511640D01*
X134254856Y-117511646D01*
X134347551Y-117632447D01*
X134347552Y-117632448D01*
X134468353Y-117725143D01*
X134468359Y-117725146D01*
X134538694Y-117754279D01*
X134609033Y-117783415D01*
X134684516Y-117793352D01*
X134759999Y-117803290D01*
X134760000Y-117803290D01*
X134760001Y-117803290D01*
X134816703Y-117795825D01*
X134910967Y-117783415D01*
X135051645Y-117725144D01*
X135172448Y-117632448D01*
X135265144Y-117511645D01*
X135323415Y-117370967D01*
X135336665Y-117270322D01*
X135343290Y-117220001D01*
X135343290Y-117219998D01*
X135323415Y-117069034D01*
X135323413Y-117069029D01*
X135265146Y-116928359D01*
X135265143Y-116928353D01*
X135172448Y-116807552D01*
X135172447Y-116807551D01*
X135051646Y-116714856D01*
X135051640Y-116714853D01*
X134910970Y-116656586D01*
X134910965Y-116656584D01*
X134760001Y-116636710D01*
X134759999Y-116636710D01*
X134609034Y-116656584D01*
X134609029Y-116656586D01*
X134468359Y-116714853D01*
X134468353Y-116714856D01*
X134347552Y-116807551D01*
X134347551Y-116807552D01*
X134254856Y-116928353D01*
X134254853Y-116928359D01*
X134196586Y-117069029D01*
X134196584Y-117069034D01*
X134176710Y-117219998D01*
X134176710Y-117220001D01*
X132803290Y-117220001D01*
X132803290Y-117219998D01*
X132783415Y-117069034D01*
X132783413Y-117069029D01*
X132725146Y-116928359D01*
X132725143Y-116928353D01*
X132632448Y-116807552D01*
X132632447Y-116807551D01*
X132511646Y-116714856D01*
X132511640Y-116714853D01*
X132370970Y-116656586D01*
X132370965Y-116656584D01*
X132220001Y-116636710D01*
X132219999Y-116636710D01*
X132069034Y-116656584D01*
X132069029Y-116656586D01*
X131928359Y-116714853D01*
X131928353Y-116714856D01*
X131807552Y-116807551D01*
X131807551Y-116807552D01*
X131714856Y-116928353D01*
X131714853Y-116928359D01*
X131656586Y-117069029D01*
X131656584Y-117069034D01*
X131636710Y-117219998D01*
X131636710Y-117220001D01*
X130263290Y-117220001D01*
X130263290Y-117219998D01*
X130243415Y-117069034D01*
X130243413Y-117069029D01*
X130185146Y-116928359D01*
X130185143Y-116928353D01*
X130092448Y-116807552D01*
X130092447Y-116807551D01*
X129971646Y-116714856D01*
X129971640Y-116714853D01*
X129830970Y-116656586D01*
X129830965Y-116656584D01*
X129680001Y-116636710D01*
X129679999Y-116636710D01*
X129529034Y-116656584D01*
X129529029Y-116656586D01*
X129388359Y-116714853D01*
X129388353Y-116714856D01*
X129267552Y-116807551D01*
X129267551Y-116807552D01*
X129174856Y-116928353D01*
X129174853Y-116928359D01*
X129116586Y-117069029D01*
X129116584Y-117069034D01*
X129096710Y-117219998D01*
X129096710Y-117220001D01*
X127723290Y-117220001D01*
X127723290Y-117219998D01*
X127703415Y-117069034D01*
X127703413Y-117069029D01*
X127645146Y-116928359D01*
X127645143Y-116928353D01*
X127552448Y-116807552D01*
X127552447Y-116807551D01*
X127431646Y-116714856D01*
X127431640Y-116714853D01*
X127290970Y-116656586D01*
X127290965Y-116656584D01*
X127140001Y-116636710D01*
X127139999Y-116636710D01*
X126989034Y-116656584D01*
X126989029Y-116656586D01*
X126848359Y-116714853D01*
X126848353Y-116714856D01*
X126727552Y-116807551D01*
X126727551Y-116807552D01*
X126634856Y-116928353D01*
X126634853Y-116928359D01*
X126576586Y-117069029D01*
X126576584Y-117069034D01*
X126556710Y-117219998D01*
X126556710Y-117220001D01*
X125183290Y-117220001D01*
X125183290Y-117219998D01*
X125163415Y-117069034D01*
X125163413Y-117069029D01*
X125105146Y-116928359D01*
X125105143Y-116928353D01*
X125012448Y-116807552D01*
X125012447Y-116807551D01*
X124891646Y-116714856D01*
X124891640Y-116714853D01*
X124750970Y-116656586D01*
X124750965Y-116656584D01*
X124600001Y-116636710D01*
X124599999Y-116636710D01*
X124449034Y-116656584D01*
X124449029Y-116656586D01*
X124308359Y-116714853D01*
X124308353Y-116714856D01*
X124187552Y-116807551D01*
X124187551Y-116807552D01*
X124094856Y-116928353D01*
X124094853Y-116928359D01*
X124036586Y-117069029D01*
X124036584Y-117069034D01*
X124016710Y-117219998D01*
X124016710Y-117220001D01*
X120000500Y-117220001D01*
X120000500Y-114680001D01*
X124016710Y-114680001D01*
X124036584Y-114830965D01*
X124036586Y-114830970D01*
X124094853Y-114971640D01*
X124094856Y-114971646D01*
X124187551Y-115092447D01*
X124187552Y-115092448D01*
X124308353Y-115185143D01*
X124308359Y-115185146D01*
X124378694Y-115214279D01*
X124449033Y-115243415D01*
X124512770Y-115251806D01*
X124599999Y-115263290D01*
X124600000Y-115263290D01*
X124600001Y-115263290D01*
X124672449Y-115253752D01*
X124750967Y-115243415D01*
X124891645Y-115185144D01*
X125012448Y-115092448D01*
X125105144Y-114971645D01*
X125163415Y-114830967D01*
X125179557Y-114708353D01*
X125183290Y-114680001D01*
X126556710Y-114680001D01*
X126576584Y-114830965D01*
X126576586Y-114830970D01*
X126634853Y-114971640D01*
X126634856Y-114971646D01*
X126727551Y-115092447D01*
X126727552Y-115092448D01*
X126848353Y-115185143D01*
X126848359Y-115185146D01*
X126918694Y-115214279D01*
X126989033Y-115243415D01*
X127052770Y-115251806D01*
X127139999Y-115263290D01*
X127140000Y-115263290D01*
X127140001Y-115263290D01*
X127212449Y-115253752D01*
X127290967Y-115243415D01*
X127431645Y-115185144D01*
X127552448Y-115092448D01*
X127645144Y-114971645D01*
X127703415Y-114830967D01*
X127719557Y-114708353D01*
X127723290Y-114680001D01*
X129096710Y-114680001D01*
X129116584Y-114830965D01*
X129116586Y-114830970D01*
X129174853Y-114971640D01*
X129174856Y-114971646D01*
X129267551Y-115092447D01*
X129267552Y-115092448D01*
X129388353Y-115185143D01*
X129388359Y-115185146D01*
X129458694Y-115214279D01*
X129529033Y-115243415D01*
X129592770Y-115251806D01*
X129679999Y-115263290D01*
X129680000Y-115263290D01*
X129680001Y-115263290D01*
X129752449Y-115253752D01*
X129830967Y-115243415D01*
X129971645Y-115185144D01*
X130092448Y-115092448D01*
X130185144Y-114971645D01*
X130243415Y-114830967D01*
X130259557Y-114708353D01*
X130263290Y-114680001D01*
X131636710Y-114680001D01*
X131656584Y-114830965D01*
X131656586Y-114830970D01*
X131714853Y-114971640D01*
X131714856Y-114971646D01*
X131807551Y-115092447D01*
X131807552Y-115092448D01*
X131928353Y-115185143D01*
X131928359Y-115185146D01*
X131998694Y-115214279D01*
X132069033Y-115243415D01*
X132132770Y-115251806D01*
X132219999Y-115263290D01*
X132220000Y-115263290D01*
X132220001Y-115263290D01*
X132292449Y-115253752D01*
X132370967Y-115243415D01*
X132511645Y-115185144D01*
X132632448Y-115092448D01*
X132725144Y-114971645D01*
X132783415Y-114830967D01*
X132799557Y-114708353D01*
X132803290Y-114680001D01*
X134176710Y-114680001D01*
X134196584Y-114830965D01*
X134196586Y-114830970D01*
X134254853Y-114971640D01*
X134254856Y-114971646D01*
X134347551Y-115092447D01*
X134347552Y-115092448D01*
X134468353Y-115185143D01*
X134468359Y-115185146D01*
X134538694Y-115214279D01*
X134609033Y-115243415D01*
X134672770Y-115251806D01*
X134759999Y-115263290D01*
X134760000Y-115263290D01*
X134760001Y-115263290D01*
X134832449Y-115253752D01*
X134910967Y-115243415D01*
X135051645Y-115185144D01*
X135172448Y-115092448D01*
X135265144Y-114971645D01*
X135323415Y-114830967D01*
X135339557Y-114708353D01*
X135343290Y-114680001D01*
X135343290Y-114679998D01*
X135329178Y-114572805D01*
X135323415Y-114529033D01*
X135265144Y-114388355D01*
X135265143Y-114388353D01*
X135172448Y-114267552D01*
X135172447Y-114267551D01*
X135051646Y-114174856D01*
X135051640Y-114174853D01*
X134910970Y-114116586D01*
X134910965Y-114116584D01*
X134760001Y-114096710D01*
X134759999Y-114096710D01*
X134609034Y-114116584D01*
X134609029Y-114116586D01*
X134468359Y-114174853D01*
X134468353Y-114174856D01*
X134347552Y-114267551D01*
X134347551Y-114267552D01*
X134254856Y-114388353D01*
X134254853Y-114388359D01*
X134196586Y-114529029D01*
X134196584Y-114529034D01*
X134176710Y-114679998D01*
X134176710Y-114680001D01*
X132803290Y-114680001D01*
X132803290Y-114679998D01*
X132789178Y-114572805D01*
X132783415Y-114529033D01*
X132725144Y-114388355D01*
X132725143Y-114388353D01*
X132632448Y-114267552D01*
X132632447Y-114267551D01*
X132511646Y-114174856D01*
X132511640Y-114174853D01*
X132370970Y-114116586D01*
X132370965Y-114116584D01*
X132220001Y-114096710D01*
X132219999Y-114096710D01*
X132069034Y-114116584D01*
X132069029Y-114116586D01*
X131928359Y-114174853D01*
X131928353Y-114174856D01*
X131807552Y-114267551D01*
X131807551Y-114267552D01*
X131714856Y-114388353D01*
X131714853Y-114388359D01*
X131656586Y-114529029D01*
X131656584Y-114529034D01*
X131636710Y-114679998D01*
X131636710Y-114680001D01*
X130263290Y-114680001D01*
X130263290Y-114679998D01*
X130249178Y-114572805D01*
X130243415Y-114529033D01*
X130185144Y-114388355D01*
X130185143Y-114388353D01*
X130092448Y-114267552D01*
X130092447Y-114267551D01*
X129971646Y-114174856D01*
X129971640Y-114174853D01*
X129830970Y-114116586D01*
X129830965Y-114116584D01*
X129680001Y-114096710D01*
X129679999Y-114096710D01*
X129529034Y-114116584D01*
X129529029Y-114116586D01*
X129388359Y-114174853D01*
X129388353Y-114174856D01*
X129267552Y-114267551D01*
X129267551Y-114267552D01*
X129174856Y-114388353D01*
X129174853Y-114388359D01*
X129116586Y-114529029D01*
X129116584Y-114529034D01*
X129096710Y-114679998D01*
X129096710Y-114680001D01*
X127723290Y-114680001D01*
X127723290Y-114679998D01*
X127709178Y-114572805D01*
X127703415Y-114529033D01*
X127645144Y-114388355D01*
X127645143Y-114388353D01*
X127552448Y-114267552D01*
X127552447Y-114267551D01*
X127431646Y-114174856D01*
X127431640Y-114174853D01*
X127290970Y-114116586D01*
X127290965Y-114116584D01*
X127140001Y-114096710D01*
X127139999Y-114096710D01*
X126989034Y-114116584D01*
X126989029Y-114116586D01*
X126848359Y-114174853D01*
X126848353Y-114174856D01*
X126727552Y-114267551D01*
X126727551Y-114267552D01*
X126634856Y-114388353D01*
X126634853Y-114388359D01*
X126576586Y-114529029D01*
X126576584Y-114529034D01*
X126556710Y-114679998D01*
X126556710Y-114680001D01*
X125183290Y-114680001D01*
X125183290Y-114679998D01*
X125169178Y-114572805D01*
X125163415Y-114529033D01*
X125105144Y-114388355D01*
X125105143Y-114388353D01*
X125012448Y-114267552D01*
X125012447Y-114267551D01*
X124891646Y-114174856D01*
X124891640Y-114174853D01*
X124750970Y-114116586D01*
X124750965Y-114116584D01*
X124600001Y-114096710D01*
X124599999Y-114096710D01*
X124449034Y-114116584D01*
X124449029Y-114116586D01*
X124308359Y-114174853D01*
X124308353Y-114174856D01*
X124187552Y-114267551D01*
X124187551Y-114267552D01*
X124094856Y-114388353D01*
X124094853Y-114388359D01*
X124036586Y-114529029D01*
X124036584Y-114529034D01*
X124016710Y-114679998D01*
X124016710Y-114680001D01*
X120000500Y-114680001D01*
X120000500Y-112124000D01*
X120020185Y-112056961D01*
X120072989Y-112011206D01*
X120124500Y-112000000D01*
X144872800Y-112000000D01*
X144939839Y-112019685D01*
G37*
%TD.AperFunction*%
%TD*%
M02*
