%TF.GenerationSoftware,KiCad,Pcbnew,7.0.8*%
%TF.CreationDate,2024-07-05T14:08:20-04:00*%
%TF.ProjectId,motor-driver,6d6f746f-722d-4647-9269-7665722e6b69,rev?*%
%TF.SameCoordinates,Original*%
%TF.FileFunction,Copper,L4,Bot*%
%TF.FilePolarity,Positive*%
%FSLAX46Y46*%
G04 Gerber Fmt 4.6, Leading zero omitted, Abs format (unit mm)*
G04 Created by KiCad (PCBNEW 7.0.8) date 2024-07-05 14:08:20*
%MOMM*%
%LPD*%
G01*
G04 APERTURE LIST*
G04 Aperture macros list*
%AMRoundRect*
0 Rectangle with rounded corners*
0 $1 Rounding radius*
0 $2 $3 $4 $5 $6 $7 $8 $9 X,Y pos of 4 corners*
0 Add a 4 corners polygon primitive as box body*
4,1,4,$2,$3,$4,$5,$6,$7,$8,$9,$2,$3,0*
0 Add four circle primitives for the rounded corners*
1,1,$1+$1,$2,$3*
1,1,$1+$1,$4,$5*
1,1,$1+$1,$6,$7*
1,1,$1+$1,$8,$9*
0 Add four rect primitives between the rounded corners*
20,1,$1+$1,$2,$3,$4,$5,0*
20,1,$1+$1,$4,$5,$6,$7,0*
20,1,$1+$1,$6,$7,$8,$9,0*
20,1,$1+$1,$8,$9,$2,$3,0*%
%AMFreePoly0*
4,1,6,1.000000,0.000000,0.500000,-0.750000,-0.500000,-0.750000,-0.500000,0.750000,0.500000,0.750000,1.000000,0.000000,1.000000,0.000000,$1*%
%AMFreePoly1*
4,1,6,0.500000,-0.750000,-0.650000,-0.750000,-0.150000,0.000000,-0.650000,0.750000,0.500000,0.750000,0.500000,-0.750000,0.500000,-0.750000,$1*%
G04 Aperture macros list end*
%TA.AperFunction,ComponentPad*%
%ADD10C,0.600000*%
%TD*%
%TA.AperFunction,SMDPad,CuDef*%
%ADD11R,3.000000X4.500000*%
%TD*%
%TA.AperFunction,ComponentPad*%
%ADD12RoundRect,0.250000X-0.625000X0.350000X-0.625000X-0.350000X0.625000X-0.350000X0.625000X0.350000X0*%
%TD*%
%TA.AperFunction,ComponentPad*%
%ADD13O,1.750000X1.200000*%
%TD*%
%TA.AperFunction,ComponentPad*%
%ADD14C,0.800000*%
%TD*%
%TA.AperFunction,ComponentPad*%
%ADD15C,6.400000*%
%TD*%
%TA.AperFunction,ComponentPad*%
%ADD16RoundRect,0.250000X-0.350000X-0.625000X0.350000X-0.625000X0.350000X0.625000X-0.350000X0.625000X0*%
%TD*%
%TA.AperFunction,ComponentPad*%
%ADD17O,1.200000X1.750000*%
%TD*%
%TA.AperFunction,ComponentPad*%
%ADD18R,3.000000X3.000000*%
%TD*%
%TA.AperFunction,ComponentPad*%
%ADD19C,3.000000*%
%TD*%
%TA.AperFunction,ComponentPad*%
%ADD20R,1.700000X1.700000*%
%TD*%
%TA.AperFunction,ComponentPad*%
%ADD21O,1.700000X1.700000*%
%TD*%
%TA.AperFunction,ComponentPad*%
%ADD22RoundRect,0.250001X-1.099999X-1.099999X1.099999X-1.099999X1.099999X1.099999X-1.099999X1.099999X0*%
%TD*%
%TA.AperFunction,ComponentPad*%
%ADD23C,2.700000*%
%TD*%
%TA.AperFunction,ComponentPad*%
%ADD24O,0.890000X1.550000*%
%TD*%
%TA.AperFunction,ComponentPad*%
%ADD25O,1.250000X0.950000*%
%TD*%
%TA.AperFunction,ComponentPad*%
%ADD26R,2.600000X2.600000*%
%TD*%
%TA.AperFunction,ComponentPad*%
%ADD27C,2.600000*%
%TD*%
%TA.AperFunction,ComponentPad*%
%ADD28R,1.600000X1.600000*%
%TD*%
%TA.AperFunction,ComponentPad*%
%ADD29C,1.600000*%
%TD*%
%TA.AperFunction,ComponentPad*%
%ADD30RoundRect,0.250000X0.625000X-0.350000X0.625000X0.350000X-0.625000X0.350000X-0.625000X-0.350000X0*%
%TD*%
%TA.AperFunction,SMDPad,CuDef*%
%ADD31FreePoly0,90.000000*%
%TD*%
%TA.AperFunction,SMDPad,CuDef*%
%ADD32FreePoly1,90.000000*%
%TD*%
%TA.AperFunction,ViaPad*%
%ADD33C,0.800000*%
%TD*%
%TA.AperFunction,Conductor*%
%ADD34C,1.524000*%
%TD*%
%TA.AperFunction,Conductor*%
%ADD35C,0.203200*%
%TD*%
%TA.AperFunction,Conductor*%
%ADD36C,0.304800*%
%TD*%
%TA.AperFunction,Conductor*%
%ADD37C,0.177800*%
%TD*%
G04 APERTURE END LIST*
D10*
%TO.P,U1,17,PAD*%
%TO.N,GND*%
X132000000Y-110300000D03*
X132000000Y-109100000D03*
X132000000Y-107900000D03*
X132000000Y-106700000D03*
X131000000Y-110300000D03*
X131000000Y-109100000D03*
D11*
X131000000Y-108500000D03*
D10*
X131000000Y-107900000D03*
X131000000Y-106700000D03*
X130000000Y-110300000D03*
X130000000Y-109100000D03*
X130000000Y-107900000D03*
X130000000Y-106700000D03*
%TD*%
D12*
%TO.P,J9,1,Pin_1*%
%TO.N,/ENC2_B*%
X177350000Y-94500000D03*
D13*
%TO.P,J9,2,Pin_2*%
%TO.N,/ENC2_A*%
X177350000Y-96500000D03*
%TO.P,J9,3,Pin_3*%
%TO.N,+3V3*%
X177350000Y-98500000D03*
%TO.P,J9,4,Pin_4*%
%TO.N,GND*%
X177350000Y-100500000D03*
%TD*%
D14*
%TO.P,REF\u002A\u002A,1*%
%TO.N,GND*%
X174100000Y-131500000D03*
X174802944Y-129802944D03*
X174802944Y-133197056D03*
X176500000Y-129100000D03*
D15*
X176500000Y-131500000D03*
X176500000Y-131500000D03*
D14*
X176500000Y-133900000D03*
X178197056Y-129802944D03*
X178197056Y-133197056D03*
X178900000Y-131500000D03*
%TD*%
D10*
%TO.P,U2,17,PAD*%
%TO.N,GND*%
X170000000Y-110300000D03*
X170000000Y-109100000D03*
X170000000Y-107900000D03*
X170000000Y-106700000D03*
X169000000Y-110300000D03*
X169000000Y-109100000D03*
D11*
X169000000Y-108500000D03*
D10*
X169000000Y-107900000D03*
X169000000Y-106700000D03*
X168000000Y-110300000D03*
X168000000Y-109100000D03*
X168000000Y-107900000D03*
X168000000Y-106700000D03*
%TD*%
D16*
%TO.P,J6,1,Pin_1*%
%TO.N,/TX_BUFFERED*%
X163500000Y-131500000D03*
D17*
%TO.P,J6,2,Pin_2*%
%TO.N,/RX*%
X165500000Y-131500000D03*
%TO.P,J6,3,Pin_3*%
%TO.N,Net-(J6-Pin_3)*%
X167500000Y-131500000D03*
%TO.P,J6,4,Pin_4*%
%TO.N,GND*%
X169500000Y-131500000D03*
%TD*%
D18*
%TO.P,J12,1,Pin_1*%
%TO.N,GND*%
X152500000Y-90000000D03*
D19*
%TO.P,J12,2,Pin_2*%
%TO.N,VBUS*%
X147500000Y-90000000D03*
%TD*%
D14*
%TO.P,REF\u002A\u002A,1*%
%TO.N,GND*%
X174100000Y-88500000D03*
X174802944Y-86802944D03*
X174802944Y-90197056D03*
X176500000Y-86100000D03*
D15*
X176500000Y-88500000D03*
X176500000Y-88500000D03*
D14*
X176500000Y-90900000D03*
X178197056Y-86802944D03*
X178197056Y-90197056D03*
X178900000Y-88500000D03*
%TD*%
D20*
%TO.P,J4,1,Pin_1*%
%TO.N,/M1B*%
X128410000Y-100000000D03*
D21*
%TO.P,J4,2,Pin_2*%
%TO.N,/ENC1_A*%
X130950000Y-100000000D03*
%TO.P,J4,3,Pin_3*%
%TO.N,GND*%
X133490000Y-100000000D03*
%TO.P,J4,4,Pin_4*%
%TO.N,+3V3*%
X136030000Y-100000000D03*
%TO.P,J4,5,Pin_5*%
%TO.N,/ENC1_B*%
X138570000Y-100000000D03*
%TO.P,J4,6,Pin_6*%
%TO.N,/M1A*%
X141110000Y-100000000D03*
%TD*%
D20*
%TO.P,J5,1,Pin_1*%
%TO.N,/M2B*%
X158890000Y-100000000D03*
D21*
%TO.P,J5,2,Pin_2*%
%TO.N,/ENC2_A*%
X161430000Y-100000000D03*
%TO.P,J5,3,Pin_3*%
%TO.N,GND*%
X163970000Y-100000000D03*
%TO.P,J5,4,Pin_4*%
%TO.N,+3V3*%
X166510000Y-100000000D03*
%TO.P,J5,5,Pin_5*%
%TO.N,/ENC2_B*%
X169050000Y-100000000D03*
%TO.P,J5,6,Pin_6*%
%TO.N,/M2A*%
X171590000Y-100000000D03*
%TD*%
D22*
%TO.P,J11,1,Pin_1*%
%TO.N,/M2B*%
X164500000Y-90000000D03*
D23*
%TO.P,J11,2,Pin_2*%
%TO.N,/M2A*%
X168460000Y-90000000D03*
%TD*%
D24*
%TO.P,J14,6,Shield*%
%TO.N,GND*%
X146500000Y-133633000D03*
D25*
X147500000Y-130933000D03*
X152500000Y-130933000D03*
D24*
X153500000Y-133633000D03*
%TD*%
D14*
%TO.P,REF\u002A\u002A,1*%
%TO.N,GND*%
X121100000Y-131500000D03*
X121802944Y-129802944D03*
X121802944Y-133197056D03*
X123500000Y-129100000D03*
D15*
X123500000Y-131500000D03*
X123500000Y-131500000D03*
D14*
X123500000Y-133900000D03*
X125197056Y-129802944D03*
X125197056Y-133197056D03*
X125900000Y-131500000D03*
%TD*%
D26*
%TO.P,J3,1,Pin_1*%
%TO.N,GND*%
X152500000Y-93000000D03*
D27*
%TO.P,J3,2,Pin_2*%
%TO.N,VBUS*%
X147500000Y-93000000D03*
%TD*%
D20*
%TO.P,J13,1,Pin_1*%
%TO.N,/~{USB_BOOT}*%
X157475000Y-133400000D03*
%TD*%
D26*
%TO.P,J2,1,Pin_1*%
%TO.N,/M2A*%
X169000000Y-93000000D03*
D27*
%TO.P,J2,2,Pin_2*%
%TO.N,/M2B*%
X164000000Y-93000000D03*
%TD*%
D22*
%TO.P,J10,1,Pin_1*%
%TO.N,/M1B*%
X131750000Y-90000000D03*
D23*
%TO.P,J10,2,Pin_2*%
%TO.N,/M1A*%
X135710000Y-90000000D03*
%TD*%
D14*
%TO.P,REF\u002A\u002A,1*%
%TO.N,GND*%
X121100000Y-88500000D03*
X121802944Y-86802944D03*
X121802944Y-90197056D03*
X123500000Y-86100000D03*
D15*
X123500000Y-88500000D03*
X123500000Y-88500000D03*
D14*
X123500000Y-90900000D03*
X125197056Y-86802944D03*
X125197056Y-90197056D03*
X125900000Y-88500000D03*
%TD*%
D26*
%TO.P,J1,1,Pin_1*%
%TO.N,/M1A*%
X136000000Y-93000008D03*
D27*
%TO.P,J1,2,Pin_2*%
%TO.N,/M1B*%
X131000000Y-93000008D03*
%TD*%
D28*
%TO.P,C1,1*%
%TO.N,VCC*%
X153800000Y-106652651D03*
D29*
%TO.P,C1,2*%
%TO.N,GND*%
X153800000Y-103152651D03*
%TD*%
D16*
%TO.P,J7,1,Pin_1*%
%TO.N,/TX_BUFFERED*%
X130500000Y-131500000D03*
D17*
%TO.P,J7,2,Pin_2*%
%TO.N,/RX*%
X132500000Y-131500000D03*
%TO.P,J7,3,Pin_3*%
%TO.N,Net-(J7-Pin_3)*%
X134500000Y-131500000D03*
%TO.P,J7,4,Pin_4*%
%TO.N,GND*%
X136500000Y-131500000D03*
%TD*%
D30*
%TO.P,J8,1,Pin_1*%
%TO.N,/ENC1_B*%
X122450000Y-101000000D03*
D13*
%TO.P,J8,2,Pin_2*%
%TO.N,/ENC1_A*%
X122450000Y-99000000D03*
%TO.P,J8,3,Pin_3*%
%TO.N,+3V3*%
X122450000Y-97000000D03*
%TO.P,J8,4,Pin_4*%
%TO.N,GND*%
X122450000Y-95000000D03*
%TD*%
D10*
%TO.P,U5,57,GND*%
%TO.N,GND*%
X151021000Y-120019000D03*
X151021000Y-118744000D03*
X151021000Y-117469000D03*
X149746000Y-120019000D03*
X149746000Y-118744000D03*
X149746000Y-117469000D03*
X148471000Y-120019000D03*
X148471000Y-118744000D03*
X148471000Y-117469000D03*
%TD*%
D31*
%TO.P,JP1,1,A*%
%TO.N,Net-(J7-Pin_3)*%
X134500000Y-129025000D03*
D32*
%TO.P,JP1,2,B*%
%TO.N,+3V3*%
X134500000Y-127575000D03*
%TD*%
D31*
%TO.P,JP4,1,A*%
%TO.N,GND*%
X142500000Y-122825000D03*
D32*
%TO.P,JP4,2,B*%
%TO.N,Net-(JP4-B)*%
X142500000Y-121375000D03*
%TD*%
D31*
%TO.P,JP2,1,A*%
%TO.N,Net-(J6-Pin_3)*%
X167500000Y-129225000D03*
D32*
%TO.P,JP2,2,B*%
%TO.N,+3V3*%
X167500000Y-127775000D03*
%TD*%
D31*
%TO.P,JP3,1,A*%
%TO.N,GND*%
X139600000Y-122825000D03*
D32*
%TO.P,JP3,2,B*%
%TO.N,Net-(JP3-B)*%
X139600000Y-121375000D03*
%TD*%
D33*
%TO.N,VCC*%
X146700000Y-102600000D03*
X145400000Y-102600000D03*
%TO.N,GND*%
X129680000Y-124840000D03*
X134760000Y-119760000D03*
X127140000Y-117220000D03*
X172860000Y-122300000D03*
X124600000Y-114680000D03*
X129680000Y-114680000D03*
X124600000Y-119760000D03*
X127140000Y-124840000D03*
X167780000Y-117220000D03*
X141831300Y-117700000D03*
X134760000Y-124840000D03*
X175400000Y-117220000D03*
X175400000Y-119760000D03*
X172860000Y-114680000D03*
X143805000Y-124800000D03*
X137500000Y-102100000D03*
X132220000Y-114680000D03*
X132220000Y-122300000D03*
X170320000Y-122300000D03*
X167780000Y-119760000D03*
X172860000Y-119760000D03*
X160287000Y-123951000D03*
X170320000Y-114680000D03*
X157100000Y-115666200D03*
X165240000Y-119760000D03*
X167780000Y-122300000D03*
X127140000Y-119760000D03*
X165240000Y-122300000D03*
X167780000Y-114680000D03*
X175400000Y-114680000D03*
X170320000Y-119760000D03*
X124600000Y-122300000D03*
X143500000Y-110400000D03*
X124600000Y-117220000D03*
X124600000Y-124840000D03*
X156223000Y-121622700D03*
X172860000Y-117220000D03*
X170320000Y-117220000D03*
X127140000Y-122300000D03*
X156000000Y-109850000D03*
X165240000Y-117220000D03*
X127140000Y-114680000D03*
X132220000Y-124840000D03*
X175400000Y-122300000D03*
X143500000Y-108400000D03*
X129680000Y-117220000D03*
X143500000Y-109400000D03*
X165240000Y-114680000D03*
X170320000Y-124840000D03*
X167780000Y-124840000D03*
X132220000Y-119760000D03*
X134760000Y-114680000D03*
X134760000Y-122300000D03*
X129680000Y-119760000D03*
X175400000Y-124840000D03*
X129680000Y-122300000D03*
X132220000Y-117220000D03*
X134760000Y-117220000D03*
X172860000Y-124840000D03*
%TO.N,VCC*%
X147968000Y-106480000D03*
X124500000Y-108250000D03*
X122900000Y-107550000D03*
X122400000Y-108250000D03*
X149100000Y-106500000D03*
X124000000Y-107550000D03*
X123400000Y-108250000D03*
X121800000Y-107550000D03*
X163600000Y-108400000D03*
X162600000Y-108400000D03*
%TO.N,+3V3*%
X162200000Y-120800000D03*
X140900000Y-114700000D03*
X146063000Y-122554000D03*
X144893234Y-117357494D03*
X153900000Y-121800000D03*
X178000000Y-108850000D03*
X157112000Y-113410000D03*
X149400000Y-121200000D03*
X149873000Y-116458000D03*
X157112000Y-128015000D03*
X136400000Y-127600000D03*
X140900000Y-112600000D03*
X140900000Y-113700000D03*
X156400000Y-116400000D03*
X145300000Y-123000000D03*
X165000000Y-126200000D03*
X145900000Y-114700000D03*
%TO.N,/M2_DIR*%
X175100000Y-109900000D03*
X157403427Y-118605405D03*
%TO.N,/M2_PWM*%
X174400000Y-111100000D03*
X161800000Y-114200000D03*
%TO.N,/ENC1_A*%
X142400000Y-116367500D03*
%TO.N,/ENC1_B*%
X144600000Y-115600000D03*
%TO.N,/ENC2_B*%
X156200000Y-118277800D03*
%TO.N,/ENC2_A*%
X155100000Y-117800000D03*
%TO.N,/M2_FLAG*%
X177100000Y-107800000D03*
X158714880Y-119214880D03*
%TO.N,+1V1*%
X150100000Y-124100000D03*
X147600000Y-120900000D03*
%TO.N,/RUN*%
X155900000Y-113400000D03*
X147950000Y-114200000D03*
%TO.N,/M2_ENABLE*%
X173300000Y-109503900D03*
X160708943Y-114208943D03*
%TO.N,/M1_SENSE*%
X137221100Y-107000000D03*
X138704247Y-118795753D03*
%TO.N,/VREF*%
X142350000Y-104050000D03*
X178350000Y-105350000D03*
%TO.N,/M2_SENSE*%
X145271788Y-121012617D03*
X148272742Y-111700000D03*
X177300000Y-106300000D03*
%TO.N,/RX*%
X157600000Y-120909200D03*
%TO.N,Net-(JP3-B)*%
X142800000Y-119000000D03*
%TO.N,Net-(JP4-B)*%
X143672146Y-118359241D03*
%TD*%
D34*
%TO.N,VCC*%
X145400000Y-102600000D02*
X146700000Y-102600000D01*
X124500000Y-108250000D02*
X124500000Y-105400000D01*
X124500000Y-105400000D02*
X125600000Y-104300000D01*
X125600000Y-104300000D02*
X125600000Y-98900000D01*
X146700000Y-98600000D02*
X146700000Y-102600000D01*
X127700000Y-96800000D02*
X144900000Y-96800000D01*
X125600000Y-98900000D02*
X127700000Y-96800000D01*
X144900000Y-96800000D02*
X146700000Y-98600000D01*
D35*
%TO.N,+3V3*%
X167500000Y-127775000D02*
X166575000Y-127775000D01*
D36*
X136400000Y-127600000D02*
X136375000Y-127575000D01*
D35*
X166575000Y-127775000D02*
X165000000Y-126200000D01*
D36*
X136375000Y-127575000D02*
X134500000Y-127575000D01*
D35*
%TO.N,/M2_DIR*%
X157403427Y-118605405D02*
X160108832Y-115900000D01*
X163950000Y-113250000D02*
X173850000Y-113250000D01*
X175700000Y-111400000D02*
X175700000Y-110500000D01*
X175700000Y-110500000D02*
X175100000Y-109900000D01*
X160108832Y-115900000D02*
X161300000Y-115900000D01*
X173850000Y-113250000D02*
X175700000Y-111400000D01*
X161300000Y-115900000D02*
X163950000Y-113250000D01*
D37*
%TO.N,/M2_PWM*%
X172800000Y-112700000D02*
X174400000Y-111100000D01*
X163300000Y-112700000D02*
X172800000Y-112700000D01*
X161800000Y-114200000D02*
X163300000Y-112700000D01*
D35*
%TO.N,/ENC1_A*%
X139300000Y-115900000D02*
X139300000Y-112300000D01*
X137900000Y-105100000D02*
X135300000Y-102500000D01*
X135300000Y-102500000D02*
X132600000Y-102500000D01*
X132600000Y-102500000D02*
X130950000Y-100850000D01*
X142400000Y-116367500D02*
X139767500Y-116367500D01*
X139300000Y-112300000D02*
X137900000Y-110900000D01*
X137900000Y-110900000D02*
X137900000Y-105100000D01*
X130950000Y-100850000D02*
X130950000Y-100000000D01*
X139767500Y-116367500D02*
X139300000Y-115900000D01*
%TO.N,/ENC1_B*%
X140500000Y-115600000D02*
X139900000Y-115000000D01*
X139900000Y-101330000D02*
X138570000Y-100000000D01*
X144600000Y-115600000D02*
X140500000Y-115600000D01*
X139900000Y-115000000D02*
X139900000Y-101330000D01*
%TO.N,/ENC2_B*%
X156222200Y-118277800D02*
X158800000Y-115700000D01*
X158800000Y-115700000D02*
X158800000Y-110250000D01*
X177350000Y-94500000D02*
X174550000Y-94500000D01*
X174550000Y-94500000D02*
X169050000Y-100000000D01*
X158800000Y-110250000D02*
X169050000Y-100000000D01*
X156200000Y-118277800D02*
X156222200Y-118277800D01*
%TO.N,/ENC2_A*%
X155100000Y-117800000D02*
X155300000Y-117800000D01*
X155300000Y-117800000D02*
X155600000Y-117500000D01*
X158400000Y-103030000D02*
X161430000Y-100000000D01*
X156260817Y-117500000D02*
X158400000Y-115360817D01*
X155600000Y-117500000D02*
X156260817Y-117500000D01*
X158400000Y-115360817D02*
X158400000Y-103030000D01*
%TO.N,/M2_FLAG*%
X175250000Y-113750000D02*
X177100000Y-111900000D01*
X164450000Y-113750000D02*
X175250000Y-113750000D01*
X158714880Y-119214880D02*
X158985120Y-119214880D01*
X177100000Y-111900000D02*
X177100000Y-107800000D01*
X158985120Y-119214880D02*
X164450000Y-113750000D01*
D37*
%TO.N,/RUN*%
X155900000Y-113400000D02*
X155100000Y-114200000D01*
X155100000Y-114200000D02*
X147950000Y-114200000D01*
%TO.N,/M2_ENABLE*%
X160708943Y-114208943D02*
X162717886Y-112200000D01*
X170603900Y-112200000D02*
X173300000Y-109503900D01*
X162717886Y-112200000D02*
X170603900Y-112200000D01*
%TO.N,/M1_SENSE*%
X138700000Y-118791506D02*
X138704247Y-118795753D01*
X137221100Y-107000000D02*
X137200000Y-107021100D01*
X138700000Y-112900000D02*
X138700000Y-118791506D01*
X137200000Y-107021100D02*
X137200000Y-111400000D01*
X137200000Y-111400000D02*
X138700000Y-112900000D01*
D35*
%TO.N,/M2_SENSE*%
X147100000Y-115200000D02*
X145800000Y-116500000D01*
X147100000Y-112872742D02*
X147100000Y-115200000D01*
X145800000Y-120484405D02*
X145271788Y-121012617D01*
X148272742Y-111700000D02*
X147100000Y-112872742D01*
X145800000Y-116500000D02*
X145800000Y-120484405D01*
%TO.N,/RX*%
X132500000Y-131500000D02*
X132500000Y-132500000D01*
X157600000Y-123600000D02*
X165500000Y-131500000D01*
X159800000Y-133200000D02*
X164800000Y-133200000D01*
X158670600Y-132070600D02*
X159800000Y-133200000D01*
X132500000Y-132500000D02*
X133600000Y-133600000D01*
X143000000Y-133600000D02*
X144529400Y-132070600D01*
X144529400Y-132070600D02*
X158670600Y-132070600D01*
X133600000Y-133600000D02*
X143000000Y-133600000D01*
X164800000Y-133200000D02*
X165500000Y-132500000D01*
X165500000Y-132500000D02*
X165500000Y-131500000D01*
X157600000Y-120909200D02*
X157600000Y-123600000D01*
D36*
%TO.N,Net-(J6-Pin_3)*%
X167500000Y-131500000D02*
X167500000Y-129125000D01*
%TO.N,Net-(J7-Pin_3)*%
X134500000Y-129025000D02*
X134500000Y-131500000D01*
D37*
%TO.N,Net-(JP3-B)*%
X142800000Y-119000000D02*
X140000000Y-119000000D01*
X139600000Y-119400000D02*
X139600000Y-121375000D01*
X140000000Y-119000000D02*
X139600000Y-119400000D01*
%TO.N,Net-(JP4-B)*%
X142500000Y-120400000D02*
X142500000Y-121375000D01*
X143672146Y-119227854D02*
X142500000Y-120400000D01*
X143672146Y-118359241D02*
X143672146Y-119227854D01*
%TD*%
%TA.AperFunction,Conductor*%
%TO.N,GND*%
G36*
X176501544Y-85000575D02*
G01*
X176652546Y-85007994D01*
X176846574Y-85018162D01*
X176852452Y-85018751D01*
X177021733Y-85043862D01*
X177197543Y-85071708D01*
X177202985Y-85072818D01*
X177372207Y-85115206D01*
X177541290Y-85160512D01*
X177546163Y-85162033D01*
X177711894Y-85221332D01*
X177874260Y-85283659D01*
X177878559Y-85285499D01*
X178038476Y-85361134D01*
X178129436Y-85407481D01*
X178192968Y-85439852D01*
X178196747Y-85441944D01*
X178348969Y-85533182D01*
X178494256Y-85627533D01*
X178497451Y-85629752D01*
X178640331Y-85735720D01*
X178774964Y-85844744D01*
X178777597Y-85846999D01*
X178839574Y-85903172D01*
X178908503Y-85965646D01*
X178910722Y-85967758D01*
X179032239Y-86089275D01*
X179034352Y-86091495D01*
X179152990Y-86222391D01*
X179155260Y-86225041D01*
X179264283Y-86359673D01*
X179303270Y-86412240D01*
X179370238Y-86502536D01*
X179372473Y-86505754D01*
X179466822Y-86651038D01*
X179558049Y-86803242D01*
X179560146Y-86807030D01*
X179638868Y-86961529D01*
X179714493Y-87121426D01*
X179716358Y-87125786D01*
X179778672Y-87288120D01*
X179789827Y-87319295D01*
X179837956Y-87453806D01*
X179839488Y-87458713D01*
X179884790Y-87627780D01*
X179889686Y-87647323D01*
X179927178Y-87797005D01*
X179928291Y-87802459D01*
X179956145Y-87978317D01*
X179981243Y-88147512D01*
X179981839Y-88153462D01*
X179992011Y-88347561D01*
X179999424Y-88498451D01*
X179999500Y-88501543D01*
X179999500Y-131498456D01*
X179999424Y-131501548D01*
X179992011Y-131652438D01*
X179981839Y-131846536D01*
X179981243Y-131852486D01*
X179956145Y-132021682D01*
X179928291Y-132197539D01*
X179927178Y-132202992D01*
X179884793Y-132372210D01*
X179839488Y-132541285D01*
X179837952Y-132546205D01*
X179778672Y-132711879D01*
X179716358Y-132874212D01*
X179714494Y-132878572D01*
X179638868Y-133038470D01*
X179560146Y-133192968D01*
X179558049Y-133196756D01*
X179466822Y-133348961D01*
X179372472Y-133494245D01*
X179370238Y-133497462D01*
X179264285Y-133640324D01*
X179155270Y-133774946D01*
X179152990Y-133777607D01*
X179034352Y-133908503D01*
X179032220Y-133910743D01*
X178910743Y-134032220D01*
X178908503Y-134034352D01*
X178777607Y-134152990D01*
X178774946Y-134155270D01*
X178640324Y-134264285D01*
X178497462Y-134370238D01*
X178494245Y-134372472D01*
X178348961Y-134466822D01*
X178196756Y-134558049D01*
X178192968Y-134560146D01*
X178038470Y-134638868D01*
X177878572Y-134714494D01*
X177874212Y-134716358D01*
X177711879Y-134778672D01*
X177546205Y-134837952D01*
X177541285Y-134839488D01*
X177372210Y-134884793D01*
X177202992Y-134927178D01*
X177197539Y-134928291D01*
X177021682Y-134956145D01*
X176852486Y-134981243D01*
X176846536Y-134981839D01*
X176652438Y-134992011D01*
X176547311Y-134997175D01*
X176501545Y-134999424D01*
X176498457Y-134999500D01*
X158467883Y-134999500D01*
X158399762Y-134979498D01*
X158353269Y-134925842D01*
X158343165Y-134855568D01*
X158372659Y-134790988D01*
X158427248Y-134755904D01*
X158426816Y-134754744D01*
X158432152Y-134752753D01*
X158432385Y-134752604D01*
X158432966Y-134752450D01*
X158484801Y-134733116D01*
X158571204Y-134700889D01*
X158688261Y-134613261D01*
X158708457Y-134586283D01*
X158775887Y-134496207D01*
X158775887Y-134496206D01*
X158775889Y-134496204D01*
X158826989Y-134359201D01*
X158833500Y-134298638D01*
X158833500Y-133400502D01*
X158853502Y-133332381D01*
X158907158Y-133285888D01*
X158977432Y-133275784D01*
X159042012Y-133305278D01*
X159048589Y-133311401D01*
X159181406Y-133444218D01*
X159311132Y-133573944D01*
X159320859Y-133586085D01*
X159321118Y-133585872D01*
X159326173Y-133591982D01*
X159375358Y-133638170D01*
X159395728Y-133658541D01*
X159395737Y-133658549D01*
X159397002Y-133659530D01*
X159400989Y-133662622D01*
X159405502Y-133666477D01*
X159438542Y-133697504D01*
X159455307Y-133706720D01*
X159471832Y-133717573D01*
X159486966Y-133729313D01*
X159528585Y-133747323D01*
X159533884Y-133749919D01*
X159573622Y-133771765D01*
X159592161Y-133776525D01*
X159610858Y-133782926D01*
X159628435Y-133790532D01*
X159673232Y-133797626D01*
X159679017Y-133798825D01*
X159722926Y-133810100D01*
X159742064Y-133810100D01*
X159761774Y-133811650D01*
X159780684Y-133814646D01*
X159812367Y-133811651D01*
X159825817Y-133810380D01*
X159831750Y-133810100D01*
X164718736Y-133810100D01*
X164734203Y-133811807D01*
X164734235Y-133811473D01*
X164742127Y-133812219D01*
X164742127Y-133812218D01*
X164742128Y-133812219D01*
X164809568Y-133810100D01*
X164838383Y-133810100D01*
X164838384Y-133810100D01*
X164838384Y-133810099D01*
X164843675Y-133809430D01*
X164844965Y-133809268D01*
X164850883Y-133808801D01*
X164896199Y-133807378D01*
X164914583Y-133802035D01*
X164933937Y-133798027D01*
X164952932Y-133795629D01*
X164995082Y-133778939D01*
X165000693Y-133777018D01*
X165044225Y-133764372D01*
X165060699Y-133754628D01*
X165078450Y-133745932D01*
X165096254Y-133738884D01*
X165132960Y-133712214D01*
X165137870Y-133708989D01*
X165176906Y-133685905D01*
X165190436Y-133672374D01*
X165205476Y-133659530D01*
X165220954Y-133648285D01*
X165220954Y-133648284D01*
X165220962Y-133648279D01*
X165249875Y-133613327D01*
X165253842Y-133608967D01*
X165873941Y-132988868D01*
X165886091Y-132979136D01*
X165885877Y-132978877D01*
X165891984Y-132973825D01*
X165938185Y-132924625D01*
X165946568Y-132916242D01*
X165958546Y-132904265D01*
X165962611Y-132899021D01*
X165966464Y-132894509D01*
X165997504Y-132861458D01*
X166006727Y-132844679D01*
X166017586Y-132828150D01*
X166029311Y-132813035D01*
X166029310Y-132813035D01*
X166029312Y-132813034D01*
X166047320Y-132771418D01*
X166049910Y-132766130D01*
X166055815Y-132755389D01*
X166093138Y-132713457D01*
X166229215Y-132616559D01*
X166375303Y-132463346D01*
X166394679Y-132433195D01*
X166448333Y-132386703D01*
X166518607Y-132376598D01*
X166583188Y-132406090D01*
X166599719Y-132423427D01*
X166607402Y-132433197D01*
X166694094Y-132543435D01*
X166854077Y-132682061D01*
X166854088Y-132682069D01*
X167037412Y-132787910D01*
X167037415Y-132787911D01*
X167037418Y-132787913D01*
X167237473Y-132857153D01*
X167447016Y-132887281D01*
X167596290Y-132880170D01*
X167658463Y-132877209D01*
X167658467Y-132877208D01*
X167658474Y-132877208D01*
X167864204Y-132827298D01*
X168056771Y-132739356D01*
X168229215Y-132616559D01*
X168375303Y-132463346D01*
X168489756Y-132285254D01*
X168568436Y-132088721D01*
X168608500Y-131880849D01*
X168608500Y-131172197D01*
X168593419Y-131014261D01*
X168533777Y-130811138D01*
X168533776Y-130811137D01*
X168533776Y-130811135D01*
X168436772Y-130622976D01*
X168436771Y-130622974D01*
X168305908Y-130456568D01*
X168305907Y-130456567D01*
X168292374Y-130444840D01*
X168253991Y-130385113D01*
X168253991Y-130314117D01*
X168292375Y-130254391D01*
X168339387Y-130228720D01*
X168463411Y-130192304D01*
X168586421Y-130113250D01*
X168682176Y-130002743D01*
X168742919Y-129869734D01*
X168752551Y-129802743D01*
X168763729Y-129725004D01*
X168763729Y-128725000D01*
X168759657Y-128660445D01*
X168759657Y-128660443D01*
X168747074Y-128614767D01*
X168743833Y-128563374D01*
X168745476Y-128551951D01*
X168763729Y-128425000D01*
X168763729Y-127275000D01*
X168758500Y-127201889D01*
X168717304Y-127061589D01*
X168638250Y-126938579D01*
X168527743Y-126842824D01*
X168394734Y-126782081D01*
X168394727Y-126782079D01*
X168250006Y-126761271D01*
X168250000Y-126761271D01*
X166750000Y-126761271D01*
X166724173Y-126763118D01*
X166676892Y-126766499D01*
X166676884Y-126766501D01*
X166557238Y-126801633D01*
X166486241Y-126801633D01*
X166432644Y-126769832D01*
X165950409Y-126287597D01*
X165916383Y-126225285D01*
X165914368Y-126206548D01*
X165914194Y-126206567D01*
X165893542Y-126010072D01*
X165834527Y-125828444D01*
X165739040Y-125663056D01*
X165739038Y-125663054D01*
X165739034Y-125663048D01*
X165611255Y-125521135D01*
X165456752Y-125408882D01*
X165282288Y-125331206D01*
X165095487Y-125291500D01*
X164904513Y-125291500D01*
X164717711Y-125331206D01*
X164543247Y-125408882D01*
X164388744Y-125521135D01*
X164260965Y-125663048D01*
X164260958Y-125663058D01*
X164165476Y-125828438D01*
X164165473Y-125828445D01*
X164106457Y-126010072D01*
X164086496Y-126200000D01*
X164106457Y-126389927D01*
X164136526Y-126482470D01*
X164165473Y-126571556D01*
X164186339Y-126607697D01*
X164260958Y-126736941D01*
X164260965Y-126736951D01*
X164388744Y-126878864D01*
X164388747Y-126878866D01*
X164543248Y-126991118D01*
X164717712Y-127068794D01*
X164904513Y-127108500D01*
X164993499Y-127108500D01*
X165061620Y-127128502D01*
X165082594Y-127145405D01*
X166086130Y-128148941D01*
X166095864Y-128161090D01*
X166096123Y-128160877D01*
X166101174Y-128166983D01*
X166150375Y-128213186D01*
X166170735Y-128233546D01*
X166175972Y-128237608D01*
X166180491Y-128241466D01*
X166196523Y-128256522D01*
X166232489Y-128317734D01*
X166236271Y-128348372D01*
X166236271Y-128425000D01*
X166237746Y-128443447D01*
X166242800Y-128506647D01*
X166251327Y-128533977D01*
X166255762Y-128589435D01*
X166236271Y-128724993D01*
X166236271Y-128725000D01*
X166236271Y-129725000D01*
X166237230Y-129738410D01*
X166241499Y-129798107D01*
X166241500Y-129798111D01*
X166282696Y-129938411D01*
X166282697Y-129938412D01*
X166347166Y-130038729D01*
X166361750Y-130061421D01*
X166472257Y-130157176D01*
X166605266Y-130217919D01*
X166647709Y-130224021D01*
X166712287Y-130253512D01*
X166750672Y-130313238D01*
X166750673Y-130384235D01*
X166720967Y-130435687D01*
X166624698Y-130536652D01*
X166605319Y-130566806D01*
X166551662Y-130613298D01*
X166481388Y-130623400D01*
X166416808Y-130593906D01*
X166400279Y-130576571D01*
X166381162Y-130552262D01*
X166305908Y-130456568D01*
X166305907Y-130456567D01*
X166305905Y-130456564D01*
X166145922Y-130317938D01*
X166145911Y-130317930D01*
X165962587Y-130212089D01*
X165962580Y-130212086D01*
X165762530Y-130142848D01*
X165762529Y-130142847D01*
X165762527Y-130142847D01*
X165762525Y-130142846D01*
X165762519Y-130142845D01*
X165552985Y-130112718D01*
X165341536Y-130122790D01*
X165341523Y-130122792D01*
X165199794Y-130157176D01*
X165135796Y-130172702D01*
X165135795Y-130172702D01*
X165129964Y-130174117D01*
X165129690Y-130172987D01*
X165064889Y-130176061D01*
X165005525Y-130142714D01*
X161632643Y-126769832D01*
X158247005Y-123384193D01*
X158212979Y-123321881D01*
X158210100Y-123295098D01*
X158210100Y-121637713D01*
X158230102Y-121569592D01*
X158242460Y-121553406D01*
X158339040Y-121446144D01*
X158434527Y-121280756D01*
X158493542Y-121099128D01*
X158513504Y-120909200D01*
X158502027Y-120800000D01*
X161286496Y-120800000D01*
X161306457Y-120989927D01*
X161313003Y-121010072D01*
X161365473Y-121171556D01*
X161365476Y-121171561D01*
X161460958Y-121336941D01*
X161460965Y-121336951D01*
X161588744Y-121478864D01*
X161588747Y-121478866D01*
X161743248Y-121591118D01*
X161917712Y-121668794D01*
X162104513Y-121708500D01*
X162295487Y-121708500D01*
X162482288Y-121668794D01*
X162656752Y-121591118D01*
X162811253Y-121478866D01*
X162840719Y-121446141D01*
X162939034Y-121336951D01*
X162939035Y-121336949D01*
X162939040Y-121336944D01*
X163034527Y-121171556D01*
X163093542Y-120989928D01*
X163113504Y-120800000D01*
X163093542Y-120610072D01*
X163034527Y-120428444D01*
X162939040Y-120263056D01*
X162939038Y-120263054D01*
X162939034Y-120263048D01*
X162811255Y-120121135D01*
X162656752Y-120008882D01*
X162482288Y-119931206D01*
X162295487Y-119891500D01*
X162104513Y-119891500D01*
X161917711Y-119931206D01*
X161743247Y-120008882D01*
X161588744Y-120121135D01*
X161460965Y-120263048D01*
X161460958Y-120263058D01*
X161365476Y-120428438D01*
X161365473Y-120428445D01*
X161306457Y-120610072D01*
X161286496Y-120800000D01*
X158502027Y-120800000D01*
X158493542Y-120719272D01*
X158434527Y-120537644D01*
X158339040Y-120372256D01*
X158304370Y-120333751D01*
X158239384Y-120261576D01*
X158208667Y-120197568D01*
X158217432Y-120127115D01*
X158262895Y-120072584D01*
X158330623Y-120051289D01*
X158384271Y-120062160D01*
X158432589Y-120083673D01*
X158432590Y-120083673D01*
X158432592Y-120083674D01*
X158619393Y-120123380D01*
X158810367Y-120123380D01*
X158997168Y-120083674D01*
X159171632Y-120005998D01*
X159326133Y-119893746D01*
X159326135Y-119893744D01*
X159453914Y-119751831D01*
X159453915Y-119751829D01*
X159453920Y-119751824D01*
X159549407Y-119586436D01*
X159575211Y-119507018D01*
X159605946Y-119456863D01*
X164665806Y-114397005D01*
X164728118Y-114362979D01*
X164754901Y-114360100D01*
X175168736Y-114360100D01*
X175184203Y-114361807D01*
X175184235Y-114361473D01*
X175192127Y-114362219D01*
X175192127Y-114362218D01*
X175192128Y-114362219D01*
X175259568Y-114360100D01*
X175288383Y-114360100D01*
X175288384Y-114360100D01*
X175288384Y-114360099D01*
X175293675Y-114359430D01*
X175294965Y-114359268D01*
X175300883Y-114358801D01*
X175346199Y-114357378D01*
X175364583Y-114352035D01*
X175383937Y-114348027D01*
X175402932Y-114345629D01*
X175445082Y-114328939D01*
X175450693Y-114327018D01*
X175494225Y-114314372D01*
X175510699Y-114304628D01*
X175528450Y-114295932D01*
X175546254Y-114288884D01*
X175582960Y-114262214D01*
X175587870Y-114258989D01*
X175626906Y-114235905D01*
X175640436Y-114222374D01*
X175655476Y-114209530D01*
X175670954Y-114198285D01*
X175670954Y-114198284D01*
X175670962Y-114198279D01*
X175699874Y-114163328D01*
X175703841Y-114158968D01*
X177473944Y-112388865D01*
X177486094Y-112379134D01*
X177485879Y-112378874D01*
X177491978Y-112373828D01*
X177491983Y-112373826D01*
X177538170Y-112324641D01*
X177558547Y-112304265D01*
X177562629Y-112299001D01*
X177566463Y-112294512D01*
X177597504Y-112261458D01*
X177606726Y-112244681D01*
X177617581Y-112228157D01*
X177619750Y-112225360D01*
X177629312Y-112213034D01*
X177647324Y-112171407D01*
X177649909Y-112166130D01*
X177671765Y-112126378D01*
X177676524Y-112107838D01*
X177682928Y-112089135D01*
X177690532Y-112071565D01*
X177697623Y-112026792D01*
X177698824Y-112020985D01*
X177710100Y-111977074D01*
X177710100Y-111957936D01*
X177711651Y-111938225D01*
X177714646Y-111919315D01*
X177710380Y-111874181D01*
X177710100Y-111868249D01*
X177710100Y-109872773D01*
X177730102Y-109804652D01*
X177783758Y-109758159D01*
X177854032Y-109748055D01*
X177862299Y-109749527D01*
X177904510Y-109758500D01*
X177904513Y-109758500D01*
X178095487Y-109758500D01*
X178282288Y-109718794D01*
X178456752Y-109641118D01*
X178611253Y-109528866D01*
X178611633Y-109528444D01*
X178739034Y-109386951D01*
X178739035Y-109386949D01*
X178739040Y-109386944D01*
X178834527Y-109221556D01*
X178893542Y-109039928D01*
X178913504Y-108850000D01*
X178893542Y-108660072D01*
X178834527Y-108478444D01*
X178739040Y-108313056D01*
X178739038Y-108313054D01*
X178739034Y-108313048D01*
X178611255Y-108171135D01*
X178456752Y-108058882D01*
X178282288Y-107981206D01*
X178111719Y-107944950D01*
X178049245Y-107911221D01*
X178014924Y-107849072D01*
X178012607Y-107808531D01*
X178013504Y-107800000D01*
X177993542Y-107610072D01*
X177934527Y-107428444D01*
X177839040Y-107263056D01*
X177806543Y-107226964D01*
X177775827Y-107162958D01*
X177784590Y-107092505D01*
X177826120Y-107040719D01*
X177911252Y-106978867D01*
X177911255Y-106978864D01*
X178039034Y-106836951D01*
X178039035Y-106836949D01*
X178039040Y-106836944D01*
X178134527Y-106671556D01*
X178193542Y-106489928D01*
X178206007Y-106371329D01*
X178233020Y-106305673D01*
X178291241Y-106265043D01*
X178331317Y-106258500D01*
X178445487Y-106258500D01*
X178632288Y-106218794D01*
X178806752Y-106141118D01*
X178961253Y-106028866D01*
X178962946Y-106026986D01*
X179089034Y-105886951D01*
X179089035Y-105886949D01*
X179089040Y-105886944D01*
X179184527Y-105721556D01*
X179243542Y-105539928D01*
X179263504Y-105350000D01*
X179243542Y-105160072D01*
X179184527Y-104978444D01*
X179089040Y-104813056D01*
X179089038Y-104813054D01*
X179089034Y-104813048D01*
X178961255Y-104671135D01*
X178806752Y-104558882D01*
X178632288Y-104481206D01*
X178445487Y-104441500D01*
X178254513Y-104441500D01*
X178067711Y-104481206D01*
X177893247Y-104558882D01*
X177738744Y-104671135D01*
X177610965Y-104813048D01*
X177610958Y-104813058D01*
X177515476Y-104978438D01*
X177515473Y-104978445D01*
X177456457Y-105160072D01*
X177443993Y-105278670D01*
X177416980Y-105344327D01*
X177358759Y-105384957D01*
X177318683Y-105391500D01*
X177204513Y-105391500D01*
X177017711Y-105431206D01*
X176843247Y-105508882D01*
X176688744Y-105621135D01*
X176560965Y-105763048D01*
X176560958Y-105763058D01*
X176474813Y-105912266D01*
X176465473Y-105928444D01*
X176460728Y-105943048D01*
X176406457Y-106110072D01*
X176386496Y-106300000D01*
X176406457Y-106489927D01*
X176414553Y-106514843D01*
X176465473Y-106671556D01*
X176560960Y-106836944D01*
X176592129Y-106871561D01*
X176593455Y-106873033D01*
X176624172Y-106937041D01*
X176615408Y-107007494D01*
X176573881Y-107059280D01*
X176488742Y-107121137D01*
X176360965Y-107263048D01*
X176360958Y-107263058D01*
X176265476Y-107428438D01*
X176265473Y-107428445D01*
X176206457Y-107610072D01*
X176186496Y-107800000D01*
X176206457Y-107989927D01*
X176218973Y-108028445D01*
X176265473Y-108171556D01*
X176265476Y-108171561D01*
X176347163Y-108313048D01*
X176360960Y-108336944D01*
X176457536Y-108444203D01*
X176488253Y-108508210D01*
X176489900Y-108528513D01*
X176489900Y-110176542D01*
X176469898Y-110244663D01*
X176416242Y-110291156D01*
X176345968Y-110301260D01*
X176281388Y-110271766D01*
X176255470Y-110240721D01*
X176254652Y-110239339D01*
X176245929Y-110221541D01*
X176239156Y-110204434D01*
X176238884Y-110203746D01*
X176238882Y-110203743D01*
X176238881Y-110203741D01*
X176212236Y-110167068D01*
X176208974Y-110162103D01*
X176185905Y-110123094D01*
X176172372Y-110109561D01*
X176159537Y-110094534D01*
X176148279Y-110079038D01*
X176113339Y-110050133D01*
X176108957Y-110046146D01*
X176050409Y-109987598D01*
X176016383Y-109925286D01*
X176014368Y-109906548D01*
X176014194Y-109906567D01*
X176004412Y-109813500D01*
X175993542Y-109710072D01*
X175934527Y-109528444D01*
X175839040Y-109363056D01*
X175839038Y-109363054D01*
X175839034Y-109363048D01*
X175711255Y-109221135D01*
X175556752Y-109108882D01*
X175382288Y-109031206D01*
X175195487Y-108991500D01*
X175004513Y-108991500D01*
X174817711Y-109031206D01*
X174643247Y-109108882D01*
X174488746Y-109221134D01*
X174395685Y-109324489D01*
X174335239Y-109361728D01*
X174264255Y-109360376D01*
X174205271Y-109320862D01*
X174182216Y-109279115D01*
X174134527Y-109132344D01*
X174039040Y-108966956D01*
X174039038Y-108966954D01*
X174039034Y-108966948D01*
X173911255Y-108825035D01*
X173756752Y-108712782D01*
X173582288Y-108635106D01*
X173395487Y-108595400D01*
X173204513Y-108595400D01*
X173017711Y-108635106D01*
X172843247Y-108712782D01*
X172688744Y-108825035D01*
X172560965Y-108966948D01*
X172560958Y-108966958D01*
X172465476Y-109132338D01*
X172465473Y-109132345D01*
X172406457Y-109313972D01*
X172386496Y-109503901D01*
X172386744Y-109506262D01*
X172386496Y-109507617D01*
X172386496Y-109510503D01*
X172385968Y-109510503D01*
X172373967Y-109576100D01*
X172350528Y-109608519D01*
X170393354Y-111565695D01*
X170331042Y-111599720D01*
X170304259Y-111602600D01*
X162761175Y-111602600D01*
X162752943Y-111602060D01*
X162717887Y-111597445D01*
X162717886Y-111597445D01*
X162678731Y-111602600D01*
X162561932Y-111617977D01*
X162416610Y-111678170D01*
X162291814Y-111773928D01*
X162270281Y-111801990D01*
X162264842Y-111808191D01*
X160809495Y-113263539D01*
X160747185Y-113297563D01*
X160720402Y-113300443D01*
X160613456Y-113300443D01*
X160426654Y-113340149D01*
X160252190Y-113417825D01*
X160097687Y-113530078D01*
X159969908Y-113671991D01*
X159969901Y-113672001D01*
X159874419Y-113837381D01*
X159874416Y-113837387D01*
X159859942Y-113881929D01*
X159815400Y-114019015D01*
X159795439Y-114208943D01*
X159815400Y-114398870D01*
X159845469Y-114491413D01*
X159874416Y-114580499D01*
X159900727Y-114626071D01*
X159969901Y-114745884D01*
X159969908Y-114745894D01*
X160097687Y-114887807D01*
X160143556Y-114921133D01*
X160252191Y-115000061D01*
X160361646Y-115048793D01*
X160415742Y-115094773D01*
X160436391Y-115162700D01*
X160417039Y-115231008D01*
X160363828Y-115278010D01*
X160310397Y-115289900D01*
X160190095Y-115289900D01*
X160174627Y-115288192D01*
X160174596Y-115288527D01*
X160166703Y-115287780D01*
X160099264Y-115289900D01*
X160070449Y-115289900D01*
X160070445Y-115289900D01*
X160070433Y-115289901D01*
X160063847Y-115290733D01*
X160057935Y-115291198D01*
X160012633Y-115292621D01*
X159994248Y-115297963D01*
X159974892Y-115301971D01*
X159955907Y-115304369D01*
X159955894Y-115304373D01*
X159913754Y-115321056D01*
X159908140Y-115322979D01*
X159864604Y-115335628D01*
X159848119Y-115345376D01*
X159830385Y-115354064D01*
X159812577Y-115361116D01*
X159775902Y-115387762D01*
X159770949Y-115391015D01*
X159751307Y-115402632D01*
X159731924Y-115414095D01*
X159718388Y-115427631D01*
X159703362Y-115440464D01*
X159687872Y-115451718D01*
X159687870Y-115451720D01*
X159658964Y-115486660D01*
X159654969Y-115491049D01*
X159640083Y-115505936D01*
X159625194Y-115520824D01*
X159562885Y-115554849D01*
X159492070Y-115549785D01*
X159435233Y-115507240D01*
X159410421Y-115440720D01*
X159410100Y-115431729D01*
X159410100Y-110554900D01*
X159430102Y-110486779D01*
X159447000Y-110465810D01*
X161483186Y-108429623D01*
X161545496Y-108395600D01*
X161616311Y-108400664D01*
X161673147Y-108443211D01*
X161697589Y-108505549D01*
X161706457Y-108589927D01*
X161721137Y-108635106D01*
X161765473Y-108771556D01*
X161765476Y-108771561D01*
X161860958Y-108936941D01*
X161860965Y-108936951D01*
X161988744Y-109078864D01*
X161988747Y-109078866D01*
X162143248Y-109191118D01*
X162317712Y-109268794D01*
X162504513Y-109308500D01*
X162695487Y-109308500D01*
X162882288Y-109268794D01*
X163048755Y-109194678D01*
X163119118Y-109185245D01*
X163151240Y-109194676D01*
X163317712Y-109268794D01*
X163504513Y-109308500D01*
X163695487Y-109308500D01*
X163882288Y-109268794D01*
X164056752Y-109191118D01*
X164211253Y-109078866D01*
X164290409Y-108990954D01*
X164339034Y-108936951D01*
X164339035Y-108936949D01*
X164339040Y-108936944D01*
X164434527Y-108771556D01*
X164493542Y-108589928D01*
X164513504Y-108400000D01*
X164493542Y-108210072D01*
X164434527Y-108028444D01*
X164339040Y-107863056D01*
X164339038Y-107863054D01*
X164339034Y-107863048D01*
X164211255Y-107721135D01*
X164056752Y-107608882D01*
X163882288Y-107531206D01*
X163695487Y-107491500D01*
X163504513Y-107491500D01*
X163317711Y-107531206D01*
X163248873Y-107561855D01*
X163151248Y-107605320D01*
X163080882Y-107614754D01*
X163048752Y-107605320D01*
X162882288Y-107531206D01*
X162801143Y-107513958D01*
X162696363Y-107491686D01*
X162633889Y-107457957D01*
X162599568Y-107395808D01*
X162604296Y-107324969D01*
X162633463Y-107279346D01*
X168567442Y-101345368D01*
X168629752Y-101311344D01*
X168697450Y-101315293D01*
X168715365Y-101321444D01*
X168937431Y-101358500D01*
X168937435Y-101358500D01*
X169162565Y-101358500D01*
X169162569Y-101358500D01*
X169384635Y-101321444D01*
X169597574Y-101248342D01*
X169795576Y-101141189D01*
X169973240Y-101002906D01*
X170125722Y-100837268D01*
X170125927Y-100836955D01*
X170174626Y-100762415D01*
X170214518Y-100701354D01*
X170268520Y-100655268D01*
X170338868Y-100645692D01*
X170403225Y-100675669D01*
X170425480Y-100701353D01*
X170429785Y-100707941D01*
X170514275Y-100837265D01*
X170514279Y-100837270D01*
X170666762Y-101002908D01*
X170699212Y-101028165D01*
X170844424Y-101141189D01*
X171042426Y-101248342D01*
X171042427Y-101248342D01*
X171042428Y-101248343D01*
X171148086Y-101284615D01*
X171255365Y-101321444D01*
X171477431Y-101358500D01*
X171477435Y-101358500D01*
X171702565Y-101358500D01*
X171702569Y-101358500D01*
X171924635Y-101321444D01*
X172137574Y-101248342D01*
X172335576Y-101141189D01*
X172513240Y-101002906D01*
X172665722Y-100837268D01*
X172665927Y-100836955D01*
X172717842Y-100757492D01*
X172788860Y-100648791D01*
X172879296Y-100442616D01*
X172934564Y-100224368D01*
X172953156Y-100000000D01*
X172934564Y-99775632D01*
X172922808Y-99729208D01*
X172879297Y-99557387D01*
X172879296Y-99557386D01*
X172879296Y-99557384D01*
X172788860Y-99351209D01*
X172771500Y-99324637D01*
X172665724Y-99162734D01*
X172665720Y-99162729D01*
X172536220Y-99022057D01*
X172513240Y-98997094D01*
X172513239Y-98997093D01*
X172513237Y-98997091D01*
X172431382Y-98933381D01*
X172335576Y-98858811D01*
X172137574Y-98751658D01*
X172137572Y-98751657D01*
X172137571Y-98751656D01*
X171924639Y-98678557D01*
X171924630Y-98678555D01*
X171847029Y-98665606D01*
X171702569Y-98641500D01*
X171575500Y-98641500D01*
X171507379Y-98621498D01*
X171460886Y-98567842D01*
X171450782Y-98497568D01*
X171480276Y-98432988D01*
X171486405Y-98426405D01*
X172130335Y-97782476D01*
X174765807Y-95147005D01*
X174828119Y-95112979D01*
X174854902Y-95110100D01*
X175923927Y-95110100D01*
X175992048Y-95130102D01*
X176031168Y-95169953D01*
X176032884Y-95172735D01*
X176032885Y-95172738D01*
X176054599Y-95207941D01*
X176125970Y-95323652D01*
X176125975Y-95323658D01*
X176251341Y-95449024D01*
X176251347Y-95449029D01*
X176251348Y-95449030D01*
X176272987Y-95462377D01*
X176303350Y-95481105D01*
X176350828Y-95533891D01*
X176362231Y-95603966D01*
X176333938Y-95669082D01*
X176315096Y-95687384D01*
X176306576Y-95694084D01*
X176306556Y-95694103D01*
X176167938Y-95854077D01*
X176167930Y-95854088D01*
X176062089Y-96037412D01*
X176062086Y-96037419D01*
X175992848Y-96237469D01*
X175992845Y-96237480D01*
X175962718Y-96447014D01*
X175972790Y-96658463D01*
X175972792Y-96658476D01*
X176022700Y-96864198D01*
X176022702Y-96864204D01*
X176110644Y-97056771D01*
X176110648Y-97056778D01*
X176233435Y-97229208D01*
X176233439Y-97229213D01*
X176233441Y-97229215D01*
X176386654Y-97375303D01*
X176386656Y-97375304D01*
X176416804Y-97394679D01*
X176463297Y-97448335D01*
X176473401Y-97518609D01*
X176443907Y-97583189D01*
X176426571Y-97599720D01*
X176306564Y-97694094D01*
X176167938Y-97854077D01*
X176167930Y-97854088D01*
X176062089Y-98037412D01*
X176062086Y-98037419D01*
X175992848Y-98237469D01*
X175992845Y-98237480D01*
X175962718Y-98447014D01*
X175972790Y-98658463D01*
X175972792Y-98658476D01*
X176022700Y-98864198D01*
X176022702Y-98864204D01*
X176110644Y-99056771D01*
X176110648Y-99056778D01*
X176233435Y-99229208D01*
X176233439Y-99229213D01*
X176233441Y-99229215D01*
X176386654Y-99375303D01*
X176386656Y-99375304D01*
X176417249Y-99394965D01*
X176463742Y-99448621D01*
X176473846Y-99518895D01*
X176444352Y-99583475D01*
X176427016Y-99600006D01*
X176306914Y-99694455D01*
X176306908Y-99694460D01*
X176168343Y-99854374D01*
X176168342Y-99854375D01*
X176062545Y-100037622D01*
X176062541Y-100037631D01*
X175993337Y-100237584D01*
X175993335Y-100237590D01*
X175992126Y-100246000D01*
X177074122Y-100246000D01*
X177031722Y-100292059D01*
X176981449Y-100406670D01*
X176971114Y-100531395D01*
X177001837Y-100652719D01*
X177068008Y-100754000D01*
X175996480Y-100754000D01*
X176023175Y-100864038D01*
X176023177Y-100864045D01*
X176111077Y-101056515D01*
X176111079Y-101056519D01*
X176233821Y-101228887D01*
X176233822Y-101228888D01*
X176386964Y-101374909D01*
X176386965Y-101374910D01*
X176564975Y-101489308D01*
X176564980Y-101489311D01*
X176761414Y-101567952D01*
X176761420Y-101567953D01*
X176969194Y-101607999D01*
X176969203Y-101608000D01*
X177096000Y-101608000D01*
X177096000Y-100777503D01*
X177169052Y-100834363D01*
X177287424Y-100875000D01*
X177381073Y-100875000D01*
X177473446Y-100859586D01*
X177583514Y-100800019D01*
X177604000Y-100777765D01*
X177604000Y-101608000D01*
X177677779Y-101608000D01*
X177677800Y-101607998D01*
X177835633Y-101592927D01*
X177835648Y-101592924D01*
X178038677Y-101533310D01*
X178226754Y-101436349D01*
X178393085Y-101305544D01*
X178393091Y-101305539D01*
X178531656Y-101145625D01*
X178531657Y-101145624D01*
X178637454Y-100962377D01*
X178637458Y-100962368D01*
X178706662Y-100762415D01*
X178706664Y-100762409D01*
X178707873Y-100754000D01*
X177625878Y-100754000D01*
X177668278Y-100707941D01*
X177718551Y-100593330D01*
X177728886Y-100468605D01*
X177698163Y-100347281D01*
X177631992Y-100246000D01*
X178703519Y-100246000D01*
X178703519Y-100245999D01*
X178676824Y-100135961D01*
X178676822Y-100135954D01*
X178588922Y-99943484D01*
X178588920Y-99943480D01*
X178466178Y-99771112D01*
X178466177Y-99771111D01*
X178313035Y-99625090D01*
X178313034Y-99625089D01*
X178282781Y-99605647D01*
X178236288Y-99551992D01*
X178226183Y-99481718D01*
X178255676Y-99417137D01*
X178273010Y-99400608D01*
X178393432Y-99305908D01*
X178399331Y-99299101D01*
X178517225Y-99163044D01*
X178532065Y-99145918D01*
X178637913Y-98962582D01*
X178707153Y-98762527D01*
X178737281Y-98552984D01*
X178732053Y-98443228D01*
X178727209Y-98341536D01*
X178727208Y-98341531D01*
X178727208Y-98341526D01*
X178677298Y-98135796D01*
X178589356Y-97943229D01*
X178589353Y-97943225D01*
X178589351Y-97943221D01*
X178466564Y-97770791D01*
X178466555Y-97770781D01*
X178422965Y-97729218D01*
X178313346Y-97624697D01*
X178313343Y-97624695D01*
X178313340Y-97624692D01*
X178283195Y-97605319D01*
X178236702Y-97551664D01*
X178226599Y-97481389D01*
X178256092Y-97416809D01*
X178273429Y-97400279D01*
X178319303Y-97364204D01*
X178393432Y-97305908D01*
X178431020Y-97262530D01*
X178521185Y-97158474D01*
X178532065Y-97145918D01*
X178637913Y-96962582D01*
X178707153Y-96762527D01*
X178737281Y-96552984D01*
X178732053Y-96443228D01*
X178727209Y-96341536D01*
X178727208Y-96341531D01*
X178727208Y-96341526D01*
X178677298Y-96135796D01*
X178589356Y-95943229D01*
X178589353Y-95943225D01*
X178589351Y-95943221D01*
X178466564Y-95770791D01*
X178466555Y-95770781D01*
X178446248Y-95751419D01*
X178372817Y-95681402D01*
X178337320Y-95619919D01*
X178340698Y-95549003D01*
X178381880Y-95491171D01*
X178393597Y-95482987D01*
X178448652Y-95449030D01*
X178574030Y-95323652D01*
X178667115Y-95172738D01*
X178722887Y-95004426D01*
X178733500Y-94900545D01*
X178733499Y-94099456D01*
X178722887Y-93995574D01*
X178667115Y-93827262D01*
X178574030Y-93676348D01*
X178574029Y-93676347D01*
X178574024Y-93676341D01*
X178448658Y-93550975D01*
X178448652Y-93550970D01*
X178297738Y-93457885D01*
X178213582Y-93429999D01*
X178129427Y-93402113D01*
X178129420Y-93402112D01*
X178025553Y-93391500D01*
X176674455Y-93391500D01*
X176570574Y-93402112D01*
X176402261Y-93457885D01*
X176251347Y-93550970D01*
X176251341Y-93550975D01*
X176125975Y-93676341D01*
X176125970Y-93676347D01*
X176085015Y-93742746D01*
X176032885Y-93827262D01*
X176032884Y-93827264D01*
X176031168Y-93830047D01*
X175978382Y-93877525D01*
X175923927Y-93889900D01*
X174631267Y-93889900D01*
X174615796Y-93888191D01*
X174615765Y-93888526D01*
X174607872Y-93887779D01*
X174542470Y-93889835D01*
X174540414Y-93889900D01*
X174511617Y-93889900D01*
X174505017Y-93890732D01*
X174499110Y-93891197D01*
X174453801Y-93892621D01*
X174453798Y-93892622D01*
X174435411Y-93897964D01*
X174416053Y-93901972D01*
X174397077Y-93904369D01*
X174397060Y-93904373D01*
X174354919Y-93921056D01*
X174349307Y-93922978D01*
X174305775Y-93935626D01*
X174289288Y-93945376D01*
X174271544Y-93954068D01*
X174253747Y-93961115D01*
X174217065Y-93987763D01*
X174212106Y-93991020D01*
X174173094Y-94014093D01*
X174159555Y-94027631D01*
X174144531Y-94040463D01*
X174129038Y-94051720D01*
X174100132Y-94086660D01*
X174096136Y-94091051D01*
X169532558Y-98654628D01*
X169470246Y-98688654D01*
X169402554Y-98684707D01*
X169384641Y-98678558D01*
X169384640Y-98678557D01*
X169384635Y-98678556D01*
X169384631Y-98678555D01*
X169384630Y-98678555D01*
X169307029Y-98665606D01*
X169162569Y-98641500D01*
X168937431Y-98641500D01*
X168792971Y-98665606D01*
X168715369Y-98678555D01*
X168715360Y-98678557D01*
X168502428Y-98751656D01*
X168502426Y-98751658D01*
X168304426Y-98858810D01*
X168304424Y-98858811D01*
X168126762Y-98997091D01*
X167974279Y-99162729D01*
X167885483Y-99298643D01*
X167831479Y-99344731D01*
X167761131Y-99354306D01*
X167696774Y-99324329D01*
X167674517Y-99298643D01*
X167585720Y-99162729D01*
X167456220Y-99022057D01*
X167433240Y-98997094D01*
X167433239Y-98997093D01*
X167433237Y-98997091D01*
X167351382Y-98933381D01*
X167255576Y-98858811D01*
X167057574Y-98751658D01*
X167057572Y-98751657D01*
X167057571Y-98751656D01*
X166844639Y-98678557D01*
X166844630Y-98678555D01*
X166767029Y-98665606D01*
X166622569Y-98641500D01*
X166397431Y-98641500D01*
X166252971Y-98665606D01*
X166175369Y-98678555D01*
X166175360Y-98678557D01*
X165962428Y-98751656D01*
X165962426Y-98751658D01*
X165764426Y-98858810D01*
X165764424Y-98858811D01*
X165586762Y-98997091D01*
X165434279Y-99162729D01*
X165345183Y-99299101D01*
X165291179Y-99345189D01*
X165220831Y-99354764D01*
X165156474Y-99324786D01*
X165134217Y-99299100D01*
X165045327Y-99163044D01*
X164892902Y-98997465D01*
X164715301Y-98859232D01*
X164715300Y-98859231D01*
X164517371Y-98752117D01*
X164517369Y-98752116D01*
X164304512Y-98679043D01*
X164304501Y-98679040D01*
X164224000Y-98665606D01*
X164224000Y-99566325D01*
X164112315Y-99515320D01*
X164005763Y-99500000D01*
X163934237Y-99500000D01*
X163827685Y-99515320D01*
X163716000Y-99566325D01*
X163716000Y-98665607D01*
X163715999Y-98665606D01*
X163635498Y-98679040D01*
X163635487Y-98679043D01*
X163422630Y-98752116D01*
X163422628Y-98752117D01*
X163224699Y-98859231D01*
X163224698Y-98859232D01*
X163047097Y-98997465D01*
X162894670Y-99163045D01*
X162805780Y-99299101D01*
X162751776Y-99345189D01*
X162681428Y-99354764D01*
X162617071Y-99324786D01*
X162594816Y-99299101D01*
X162555884Y-99239511D01*
X162505724Y-99162734D01*
X162505720Y-99162729D01*
X162376220Y-99022057D01*
X162353240Y-98997094D01*
X162353239Y-98997093D01*
X162353237Y-98997091D01*
X162271382Y-98933381D01*
X162175576Y-98858811D01*
X161977574Y-98751658D01*
X161977572Y-98751657D01*
X161977571Y-98751656D01*
X161764639Y-98678557D01*
X161764630Y-98678555D01*
X161687029Y-98665606D01*
X161542569Y-98641500D01*
X161317431Y-98641500D01*
X161172971Y-98665606D01*
X161095369Y-98678555D01*
X161095360Y-98678557D01*
X160882428Y-98751656D01*
X160882426Y-98751658D01*
X160684426Y-98858810D01*
X160684424Y-98858811D01*
X160506762Y-98997091D01*
X160445754Y-99063363D01*
X160384901Y-99099933D01*
X160313936Y-99097798D01*
X160255391Y-99057636D01*
X160234999Y-99022057D01*
X160207009Y-98947014D01*
X160190889Y-98903796D01*
X160190888Y-98903794D01*
X160190887Y-98903792D01*
X160103261Y-98786738D01*
X159986207Y-98699112D01*
X159986202Y-98699110D01*
X159849204Y-98648011D01*
X159849196Y-98648009D01*
X159788649Y-98641500D01*
X159788638Y-98641500D01*
X157991362Y-98641500D01*
X157991350Y-98641500D01*
X157930803Y-98648009D01*
X157930795Y-98648011D01*
X157793797Y-98699110D01*
X157793792Y-98699112D01*
X157676738Y-98786738D01*
X157589112Y-98903792D01*
X157589110Y-98903797D01*
X157538011Y-99040795D01*
X157538009Y-99040803D01*
X157531500Y-99101350D01*
X157531500Y-100898649D01*
X157538009Y-100959196D01*
X157538011Y-100959204D01*
X157589110Y-101096202D01*
X157589112Y-101096207D01*
X157676738Y-101213261D01*
X157793792Y-101300887D01*
X157793794Y-101300888D01*
X157793796Y-101300889D01*
X157847600Y-101320957D01*
X157930795Y-101351988D01*
X157930803Y-101351990D01*
X157991350Y-101358499D01*
X157991355Y-101358499D01*
X157991362Y-101358500D01*
X158904498Y-101358500D01*
X158972619Y-101378502D01*
X159019112Y-101432158D01*
X159029216Y-101502432D01*
X158999722Y-101567012D01*
X158993608Y-101573578D01*
X158138422Y-102428765D01*
X158026054Y-102541133D01*
X158013911Y-102550862D01*
X158014125Y-102551120D01*
X158008017Y-102556172D01*
X157961828Y-102605358D01*
X157941453Y-102625734D01*
X157941452Y-102625734D01*
X157937374Y-102630992D01*
X157933523Y-102635500D01*
X157902499Y-102668537D01*
X157902495Y-102668542D01*
X157893277Y-102685311D01*
X157882424Y-102701833D01*
X157870686Y-102716965D01*
X157852681Y-102758572D01*
X157850070Y-102763902D01*
X157828235Y-102803620D01*
X157823473Y-102822165D01*
X157817074Y-102840855D01*
X157809468Y-102858434D01*
X157802377Y-102903200D01*
X157801173Y-102909014D01*
X157789900Y-102952924D01*
X157789900Y-102972063D01*
X157788349Y-102991773D01*
X157785354Y-103010683D01*
X157785354Y-103010684D01*
X157789620Y-103055816D01*
X157789900Y-103061749D01*
X157789900Y-112532266D01*
X157769898Y-112600387D01*
X157716242Y-112646880D01*
X157645968Y-112656984D01*
X157589841Y-112634204D01*
X157586911Y-112632075D01*
X157568752Y-112618882D01*
X157394288Y-112541206D01*
X157207487Y-112501500D01*
X157016513Y-112501500D01*
X156829711Y-112541206D01*
X156655247Y-112618882D01*
X156586941Y-112668509D01*
X156520073Y-112692367D01*
X156450922Y-112676285D01*
X156438820Y-112668508D01*
X156356752Y-112608882D01*
X156182288Y-112531206D01*
X155995487Y-112491500D01*
X155804513Y-112491500D01*
X155617711Y-112531206D01*
X155443247Y-112608882D01*
X155288744Y-112721135D01*
X155160965Y-112863048D01*
X155160958Y-112863058D01*
X155065476Y-113028438D01*
X155065473Y-113028445D01*
X155006457Y-113210072D01*
X154986496Y-113400000D01*
X154986744Y-113402360D01*
X154986496Y-113403715D01*
X154986496Y-113406603D01*
X154985968Y-113406603D01*
X154973968Y-113472197D01*
X154950530Y-113504617D01*
X154889455Y-113565694D01*
X154827143Y-113599720D01*
X154800358Y-113602600D01*
X148690704Y-113602600D01*
X148622583Y-113582598D01*
X148597067Y-113560910D01*
X148561252Y-113521133D01*
X148406752Y-113408882D01*
X148232288Y-113331206D01*
X148045487Y-113291500D01*
X147854513Y-113291500D01*
X147848244Y-113291500D01*
X147780123Y-113271498D01*
X147733630Y-113217842D01*
X147723526Y-113147568D01*
X147753020Y-113082988D01*
X147759149Y-113076404D01*
X147972496Y-112863058D01*
X148190150Y-112645404D01*
X148252462Y-112611379D01*
X148279245Y-112608500D01*
X148368229Y-112608500D01*
X148555030Y-112568794D01*
X148729494Y-112491118D01*
X148883995Y-112378866D01*
X148888538Y-112373821D01*
X149011776Y-112236951D01*
X149011777Y-112236949D01*
X149011782Y-112236944D01*
X149107269Y-112071556D01*
X149166284Y-111889928D01*
X149186246Y-111700000D01*
X149166284Y-111510072D01*
X149107269Y-111328444D01*
X149011782Y-111163056D01*
X149011780Y-111163054D01*
X149011776Y-111163048D01*
X148883997Y-111021135D01*
X148729494Y-110908882D01*
X148555030Y-110831206D01*
X148368229Y-110791500D01*
X148177255Y-110791500D01*
X147990453Y-110831206D01*
X147815989Y-110908882D01*
X147661486Y-111021135D01*
X147533707Y-111163048D01*
X147533700Y-111163058D01*
X147484881Y-111247616D01*
X147438215Y-111328444D01*
X147423741Y-111372986D01*
X147379199Y-111510072D01*
X147358548Y-111706567D01*
X147356919Y-111706395D01*
X147339236Y-111766622D01*
X147322337Y-111787591D01*
X147020802Y-112089127D01*
X146726054Y-112383875D01*
X146713911Y-112393604D01*
X146714125Y-112393862D01*
X146708017Y-112398914D01*
X146661828Y-112448100D01*
X146641453Y-112468476D01*
X146641452Y-112468476D01*
X146637374Y-112473734D01*
X146633523Y-112478242D01*
X146602499Y-112511279D01*
X146602495Y-112511284D01*
X146593277Y-112528053D01*
X146582424Y-112544575D01*
X146570686Y-112559707D01*
X146552681Y-112601314D01*
X146550070Y-112606644D01*
X146528235Y-112646362D01*
X146523473Y-112664907D01*
X146517074Y-112683597D01*
X146509468Y-112701176D01*
X146502377Y-112745942D01*
X146501173Y-112751756D01*
X146489900Y-112795666D01*
X146489900Y-112814805D01*
X146488349Y-112834515D01*
X146485354Y-112853425D01*
X146485354Y-112853426D01*
X146489620Y-112898558D01*
X146489900Y-112904491D01*
X146489900Y-113774140D01*
X146469898Y-113842261D01*
X146416242Y-113888754D01*
X146345968Y-113898858D01*
X146312651Y-113889247D01*
X146182288Y-113831206D01*
X145995487Y-113791500D01*
X145804513Y-113791500D01*
X145617711Y-113831206D01*
X145443247Y-113908882D01*
X145288744Y-114021135D01*
X145160965Y-114163048D01*
X145160958Y-114163058D01*
X145065818Y-114327846D01*
X145065473Y-114328444D01*
X145058706Y-114349270D01*
X145006457Y-114510072D01*
X144995637Y-114613019D01*
X144968623Y-114678676D01*
X144910402Y-114719305D01*
X144844130Y-114723095D01*
X144695487Y-114691500D01*
X144504513Y-114691500D01*
X144317711Y-114731206D01*
X144143247Y-114808882D01*
X143988747Y-114921133D01*
X143964368Y-114948210D01*
X143903922Y-114985450D01*
X143870731Y-114989900D01*
X141922972Y-114989900D01*
X141854851Y-114969898D01*
X141808358Y-114916242D01*
X141797662Y-114850730D01*
X141808680Y-114745894D01*
X141813504Y-114700000D01*
X141793542Y-114510072D01*
X141734527Y-114328444D01*
X141696742Y-114263000D01*
X141680005Y-114194005D01*
X141696743Y-114136999D01*
X141698641Y-114133711D01*
X141734527Y-114071556D01*
X141793542Y-113889928D01*
X141813504Y-113700000D01*
X141793542Y-113510072D01*
X141734527Y-113328444D01*
X141667874Y-113212999D01*
X141651137Y-113144005D01*
X141667875Y-113087000D01*
X141734527Y-112971556D01*
X141793542Y-112789928D01*
X141813504Y-112600000D01*
X141793542Y-112410072D01*
X141734527Y-112228444D01*
X141639040Y-112063056D01*
X141639038Y-112063054D01*
X141639034Y-112063048D01*
X141511255Y-111921135D01*
X141356752Y-111808882D01*
X141182288Y-111731206D01*
X140995487Y-111691500D01*
X140804513Y-111691500D01*
X140662297Y-111721729D01*
X140591506Y-111716327D01*
X140534874Y-111673510D01*
X140510380Y-111606873D01*
X140510100Y-111598482D01*
X140510100Y-107501300D01*
X152491500Y-107501300D01*
X152498009Y-107561847D01*
X152498011Y-107561855D01*
X152549110Y-107698853D01*
X152549112Y-107698858D01*
X152636738Y-107815912D01*
X152753792Y-107903538D01*
X152753794Y-107903539D01*
X152753796Y-107903540D01*
X152812875Y-107925575D01*
X152890795Y-107954639D01*
X152890803Y-107954641D01*
X152951350Y-107961150D01*
X152951355Y-107961150D01*
X152951362Y-107961151D01*
X152951368Y-107961151D01*
X154648632Y-107961151D01*
X154648638Y-107961151D01*
X154648645Y-107961150D01*
X154648649Y-107961150D01*
X154709196Y-107954641D01*
X154709199Y-107954640D01*
X154709201Y-107954640D01*
X154846204Y-107903540D01*
X154900282Y-107863058D01*
X154963261Y-107815912D01*
X155050887Y-107698858D01*
X155050887Y-107698857D01*
X155050889Y-107698855D01*
X155101989Y-107561852D01*
X155108500Y-107501289D01*
X155108500Y-105804013D01*
X155108191Y-105801135D01*
X155101990Y-105743454D01*
X155101988Y-105743446D01*
X155050889Y-105606448D01*
X155050887Y-105606443D01*
X154963261Y-105489389D01*
X154846207Y-105401763D01*
X154846202Y-105401761D01*
X154709204Y-105350662D01*
X154709196Y-105350660D01*
X154648649Y-105344151D01*
X154648638Y-105344151D01*
X152951362Y-105344151D01*
X152951350Y-105344151D01*
X152890803Y-105350660D01*
X152890795Y-105350662D01*
X152753797Y-105401761D01*
X152753792Y-105401763D01*
X152636738Y-105489389D01*
X152549112Y-105606443D01*
X152549110Y-105606448D01*
X152498011Y-105743446D01*
X152498009Y-105743454D01*
X152491500Y-105804001D01*
X152491500Y-107501300D01*
X140510100Y-107501300D01*
X140510100Y-106480000D01*
X147054496Y-106480000D01*
X147074457Y-106669927D01*
X147080956Y-106689927D01*
X147133473Y-106851556D01*
X147133476Y-106851561D01*
X147228958Y-107016941D01*
X147228965Y-107016951D01*
X147356744Y-107158864D01*
X147399499Y-107189927D01*
X147511248Y-107271118D01*
X147685712Y-107348794D01*
X147872513Y-107388500D01*
X148063487Y-107388500D01*
X148250288Y-107348794D01*
X148424752Y-107271118D01*
X148446175Y-107255552D01*
X148513039Y-107231694D01*
X148582191Y-107247772D01*
X148594291Y-107255548D01*
X148604627Y-107263058D01*
X148643246Y-107291117D01*
X148643247Y-107291117D01*
X148643248Y-107291118D01*
X148817712Y-107368794D01*
X149004513Y-107408500D01*
X149195487Y-107408500D01*
X149382288Y-107368794D01*
X149556752Y-107291118D01*
X149711253Y-107178866D01*
X149729263Y-107158864D01*
X149839034Y-107036951D01*
X149839035Y-107036949D01*
X149839040Y-107036944D01*
X149934527Y-106871556D01*
X149993542Y-106689928D01*
X150013504Y-106500000D01*
X149993542Y-106310072D01*
X149934527Y-106128444D01*
X149839040Y-105963056D01*
X149839038Y-105963054D01*
X149839034Y-105963048D01*
X149711255Y-105821135D01*
X149556752Y-105708882D01*
X149382288Y-105631206D01*
X149195487Y-105591500D01*
X149004513Y-105591500D01*
X148817711Y-105631206D01*
X148643248Y-105708882D01*
X148621821Y-105724449D01*
X148554952Y-105748305D01*
X148485801Y-105732222D01*
X148473703Y-105724447D01*
X148468118Y-105720389D01*
X148424752Y-105688882D01*
X148250288Y-105611206D01*
X148063487Y-105571500D01*
X147872513Y-105571500D01*
X147685711Y-105611206D01*
X147511247Y-105688882D01*
X147356744Y-105801135D01*
X147228965Y-105943048D01*
X147228958Y-105943058D01*
X147133476Y-106108438D01*
X147133473Y-106108444D01*
X147118999Y-106152986D01*
X147074457Y-106290072D01*
X147054496Y-106480000D01*
X140510100Y-106480000D01*
X140510100Y-104050000D01*
X141436496Y-104050000D01*
X141456457Y-104239927D01*
X141471346Y-104285748D01*
X141515473Y-104421556D01*
X141515476Y-104421561D01*
X141610958Y-104586941D01*
X141610965Y-104586951D01*
X141738744Y-104728864D01*
X141791327Y-104767068D01*
X141893248Y-104841118D01*
X142067712Y-104918794D01*
X142254513Y-104958500D01*
X142445487Y-104958500D01*
X142632288Y-104918794D01*
X142806752Y-104841118D01*
X142961253Y-104728866D01*
X142992170Y-104694529D01*
X143089034Y-104586951D01*
X143089035Y-104586949D01*
X143089040Y-104586944D01*
X143184527Y-104421556D01*
X143243542Y-104239928D01*
X143263504Y-104050000D01*
X143243542Y-103860072D01*
X143184527Y-103678444D01*
X143089040Y-103513056D01*
X143089038Y-103513054D01*
X143089034Y-103513048D01*
X142961255Y-103371135D01*
X142806752Y-103258882D01*
X142632288Y-103181206D01*
X142445487Y-103141500D01*
X142254513Y-103141500D01*
X142067711Y-103181206D01*
X141893247Y-103258882D01*
X141738744Y-103371135D01*
X141610965Y-103513048D01*
X141610958Y-103513058D01*
X141515610Y-103678206D01*
X141515473Y-103678444D01*
X141510072Y-103695066D01*
X141456457Y-103860072D01*
X141436496Y-104050000D01*
X140510100Y-104050000D01*
X140510100Y-101411263D01*
X140511781Y-101396030D01*
X140511451Y-101396000D01*
X140511495Y-101395525D01*
X140511969Y-101394330D01*
X140513135Y-101383772D01*
X140513949Y-101380131D01*
X140517309Y-101380882D01*
X140537695Y-101329540D01*
X140595410Y-101288194D01*
X140666317Y-101284615D01*
X140677870Y-101287974D01*
X140688482Y-101291617D01*
X140775365Y-101321444D01*
X140997431Y-101358500D01*
X140997435Y-101358500D01*
X141222565Y-101358500D01*
X141222569Y-101358500D01*
X141444635Y-101321444D01*
X141657574Y-101248342D01*
X141855576Y-101141189D01*
X142033240Y-101002906D01*
X142185722Y-100837268D01*
X142185927Y-100836955D01*
X142237842Y-100757492D01*
X142308860Y-100648791D01*
X142399296Y-100442616D01*
X142454564Y-100224368D01*
X142473156Y-100000000D01*
X142454564Y-99775632D01*
X142442808Y-99729208D01*
X142399297Y-99557387D01*
X142399296Y-99557386D01*
X142399296Y-99557384D01*
X142308860Y-99351209D01*
X142291500Y-99324637D01*
X142185724Y-99162734D01*
X142185720Y-99162729D01*
X142056220Y-99022057D01*
X142033240Y-98997094D01*
X142033239Y-98997093D01*
X142033237Y-98997091D01*
X141951382Y-98933381D01*
X141855576Y-98858811D01*
X141657574Y-98751658D01*
X141657572Y-98751657D01*
X141657571Y-98751656D01*
X141444639Y-98678557D01*
X141444630Y-98678555D01*
X141367029Y-98665606D01*
X141222569Y-98641500D01*
X140997431Y-98641500D01*
X140852971Y-98665606D01*
X140775369Y-98678555D01*
X140775360Y-98678557D01*
X140562428Y-98751656D01*
X140562426Y-98751658D01*
X140364426Y-98858810D01*
X140364424Y-98858811D01*
X140186762Y-98997091D01*
X140034279Y-99162729D01*
X139945483Y-99298643D01*
X139891479Y-99344731D01*
X139821131Y-99354306D01*
X139756774Y-99324329D01*
X139734517Y-99298643D01*
X139645720Y-99162729D01*
X139516220Y-99022057D01*
X139493240Y-98997094D01*
X139493239Y-98997093D01*
X139493237Y-98997091D01*
X139411382Y-98933381D01*
X139315576Y-98858811D01*
X139117574Y-98751658D01*
X139117572Y-98751657D01*
X139117571Y-98751656D01*
X138904639Y-98678557D01*
X138904630Y-98678555D01*
X138827029Y-98665606D01*
X138682569Y-98641500D01*
X138457431Y-98641500D01*
X138312971Y-98665606D01*
X138235369Y-98678555D01*
X138235360Y-98678557D01*
X138022428Y-98751656D01*
X138022426Y-98751658D01*
X137824426Y-98858810D01*
X137824424Y-98858811D01*
X137646762Y-98997091D01*
X137494279Y-99162729D01*
X137405483Y-99298643D01*
X137351479Y-99344731D01*
X137281131Y-99354306D01*
X137216774Y-99324329D01*
X137194517Y-99298643D01*
X137105720Y-99162729D01*
X136976220Y-99022057D01*
X136953240Y-98997094D01*
X136953239Y-98997093D01*
X136953237Y-98997091D01*
X136871382Y-98933381D01*
X136775576Y-98858811D01*
X136577574Y-98751658D01*
X136577572Y-98751657D01*
X136577571Y-98751656D01*
X136364639Y-98678557D01*
X136364630Y-98678555D01*
X136287029Y-98665606D01*
X136142569Y-98641500D01*
X135917431Y-98641500D01*
X135772971Y-98665606D01*
X135695369Y-98678555D01*
X135695360Y-98678557D01*
X135482428Y-98751656D01*
X135482426Y-98751658D01*
X135284426Y-98858810D01*
X135284424Y-98858811D01*
X135106762Y-98997091D01*
X134954279Y-99162729D01*
X134865183Y-99299101D01*
X134811179Y-99345189D01*
X134740831Y-99354764D01*
X134676474Y-99324786D01*
X134654217Y-99299100D01*
X134565327Y-99163044D01*
X134412902Y-98997465D01*
X134235301Y-98859232D01*
X134235300Y-98859231D01*
X134037371Y-98752117D01*
X134037369Y-98752116D01*
X133824512Y-98679043D01*
X133824501Y-98679040D01*
X133744000Y-98665606D01*
X133744000Y-99566325D01*
X133632315Y-99515320D01*
X133525763Y-99500000D01*
X133454237Y-99500000D01*
X133347685Y-99515320D01*
X133236000Y-99566325D01*
X133236000Y-98665607D01*
X133235999Y-98665606D01*
X133155498Y-98679040D01*
X133155487Y-98679043D01*
X132942630Y-98752116D01*
X132942628Y-98752117D01*
X132744699Y-98859231D01*
X132744698Y-98859232D01*
X132567097Y-98997465D01*
X132414670Y-99163045D01*
X132325780Y-99299101D01*
X132271776Y-99345189D01*
X132201428Y-99354764D01*
X132137071Y-99324786D01*
X132114816Y-99299101D01*
X132075884Y-99239511D01*
X132025724Y-99162734D01*
X132025720Y-99162729D01*
X131896220Y-99022057D01*
X131873240Y-98997094D01*
X131873239Y-98997093D01*
X131873237Y-98997091D01*
X131791382Y-98933381D01*
X131695576Y-98858811D01*
X131497574Y-98751658D01*
X131497572Y-98751657D01*
X131497571Y-98751656D01*
X131284639Y-98678557D01*
X131284630Y-98678555D01*
X131207029Y-98665606D01*
X131062569Y-98641500D01*
X130837431Y-98641500D01*
X130692971Y-98665606D01*
X130615369Y-98678555D01*
X130615360Y-98678557D01*
X130402428Y-98751656D01*
X130402426Y-98751658D01*
X130204426Y-98858810D01*
X130204424Y-98858811D01*
X130026762Y-98997091D01*
X129965754Y-99063363D01*
X129904901Y-99099933D01*
X129833936Y-99097798D01*
X129775391Y-99057636D01*
X129754999Y-99022057D01*
X129727009Y-98947014D01*
X129710889Y-98903796D01*
X129710888Y-98903794D01*
X129710887Y-98903792D01*
X129623261Y-98786738D01*
X129506207Y-98699112D01*
X129506202Y-98699110D01*
X129369204Y-98648011D01*
X129369196Y-98648009D01*
X129308649Y-98641500D01*
X129308638Y-98641500D01*
X127959448Y-98641500D01*
X127891327Y-98621498D01*
X127844834Y-98567842D01*
X127834730Y-98497568D01*
X127864224Y-98432988D01*
X127870353Y-98426405D01*
X128189353Y-98107405D01*
X128251665Y-98073379D01*
X128278448Y-98070500D01*
X144321551Y-98070500D01*
X144389672Y-98090502D01*
X144410646Y-98107405D01*
X145392595Y-99089353D01*
X145426620Y-99151665D01*
X145429500Y-99178448D01*
X145429500Y-101206541D01*
X145409498Y-101274662D01*
X145355842Y-101321155D01*
X145314795Y-101332033D01*
X145288614Y-101334390D01*
X145172226Y-101344864D01*
X145172224Y-101344865D01*
X144951782Y-101405703D01*
X144951768Y-101405708D01*
X144745734Y-101504929D01*
X144745727Y-101504933D01*
X144560709Y-101639356D01*
X144560708Y-101639357D01*
X144402669Y-101804652D01*
X144276684Y-101995512D01*
X144276680Y-101995520D01*
X144186799Y-102205806D01*
X144186798Y-102205808D01*
X144135910Y-102428765D01*
X144135910Y-102428767D01*
X144127064Y-102625735D01*
X144125649Y-102657231D01*
X144156348Y-102883855D01*
X144156349Y-102883859D01*
X144227017Y-103101355D01*
X144335385Y-103302737D01*
X144335389Y-103302744D01*
X144477979Y-103481545D01*
X144650199Y-103632009D01*
X144846515Y-103749303D01*
X144846520Y-103749305D01*
X144846523Y-103749307D01*
X144846526Y-103749308D01*
X145060633Y-103829665D01*
X145285650Y-103870500D01*
X145285653Y-103870500D01*
X146670076Y-103870500D01*
X146672876Y-103870562D01*
X146757231Y-103874351D01*
X146840905Y-103863015D01*
X146843673Y-103862703D01*
X146927773Y-103855135D01*
X146951331Y-103848632D01*
X146959634Y-103846932D01*
X146983855Y-103843652D01*
X147064155Y-103817560D01*
X147066839Y-103816755D01*
X147090191Y-103810310D01*
X147148226Y-103794294D01*
X147170247Y-103783688D01*
X147178117Y-103780532D01*
X147201350Y-103772984D01*
X147201350Y-103772983D01*
X147201356Y-103772982D01*
X147275735Y-103732955D01*
X147278161Y-103731719D01*
X147354272Y-103695067D01*
X147374048Y-103680698D01*
X147381211Y-103676197D01*
X147402743Y-103664611D01*
X147468772Y-103611953D01*
X147470962Y-103610285D01*
X147539290Y-103560644D01*
X147556189Y-103542967D01*
X147562425Y-103537268D01*
X147581544Y-103522022D01*
X147637074Y-103458461D01*
X147638978Y-103456378D01*
X147652083Y-103442670D01*
X147697332Y-103395345D01*
X147710799Y-103374942D01*
X147715929Y-103368203D01*
X147732010Y-103349799D01*
X147775327Y-103277295D01*
X147776776Y-103274990D01*
X147823318Y-103204483D01*
X147832919Y-103182019D01*
X147836773Y-103174454D01*
X147837598Y-103173071D01*
X147849307Y-103153477D01*
X147878979Y-103074414D01*
X147880010Y-103071843D01*
X147913201Y-102994193D01*
X147918639Y-102970361D01*
X147921077Y-102962248D01*
X147922660Y-102958029D01*
X147929665Y-102939366D01*
X147944746Y-102856255D01*
X147945305Y-102853532D01*
X147964090Y-102771233D01*
X147965186Y-102746809D01*
X147966132Y-102738412D01*
X147970500Y-102714347D01*
X147970500Y-102629923D01*
X147970562Y-102627122D01*
X147974351Y-102542769D01*
X147972694Y-102530539D01*
X147971071Y-102518549D01*
X147970500Y-102510084D01*
X147970500Y-98674881D01*
X147970896Y-98667823D01*
X147971949Y-98658476D01*
X147975313Y-98628622D01*
X147972595Y-98588309D01*
X147970643Y-98559343D01*
X147970500Y-98555104D01*
X147970500Y-98542949D01*
X147970499Y-98542935D01*
X147966659Y-98500279D01*
X147962813Y-98443228D01*
X147959929Y-98400446D01*
X147959928Y-98400443D01*
X147959928Y-98400439D01*
X147958846Y-98396145D01*
X147955533Y-98376646D01*
X147955135Y-98372228D01*
X147955134Y-98372225D01*
X147951749Y-98359960D01*
X147928501Y-98275721D01*
X147918865Y-98237480D01*
X147904050Y-98178683D01*
X147902217Y-98174649D01*
X147895473Y-98156049D01*
X147894294Y-98151774D01*
X147893537Y-98150202D01*
X147850867Y-98061596D01*
X147809473Y-97970466D01*
X147809472Y-97970463D01*
X147806940Y-97966809D01*
X147796992Y-97949726D01*
X147795067Y-97945728D01*
X147736243Y-97864763D01*
X147679234Y-97782476D01*
X147679233Y-97782475D01*
X147679231Y-97782472D01*
X147676095Y-97779336D01*
X147663255Y-97764303D01*
X147660645Y-97760711D01*
X147660642Y-97760708D01*
X147588301Y-97691543D01*
X146738281Y-96841523D01*
X145851329Y-95954571D01*
X145846626Y-95949308D01*
X145822023Y-95918457D01*
X145822022Y-95918456D01*
X145800889Y-95899993D01*
X145769720Y-95872761D01*
X145766638Y-95869880D01*
X145758036Y-95861278D01*
X145758035Y-95861277D01*
X145758033Y-95861275D01*
X145725172Y-95833841D01*
X145713809Y-95823913D01*
X145649799Y-95767990D01*
X145645983Y-95765710D01*
X145629863Y-95754271D01*
X145626459Y-95751429D01*
X145626444Y-95751419D01*
X145539382Y-95702019D01*
X145453473Y-95650690D01*
X145449317Y-95649131D01*
X145431415Y-95640756D01*
X145427554Y-95638565D01*
X145427545Y-95638561D01*
X145333086Y-95605509D01*
X145239371Y-95570336D01*
X145239366Y-95570335D01*
X145234980Y-95569539D01*
X145215875Y-95564495D01*
X145211696Y-95563032D01*
X145170550Y-95556515D01*
X145112858Y-95547377D01*
X145072604Y-95540072D01*
X145014349Y-95529500D01*
X145014347Y-95529500D01*
X145009909Y-95529500D01*
X144990201Y-95527949D01*
X144985816Y-95527254D01*
X144985807Y-95527254D01*
X144885748Y-95529500D01*
X127774882Y-95529500D01*
X127767826Y-95529104D01*
X127728622Y-95524687D01*
X127659346Y-95529357D01*
X127655108Y-95529500D01*
X127642946Y-95529500D01*
X127600279Y-95533340D01*
X127500442Y-95540071D01*
X127500439Y-95540072D01*
X127496132Y-95541157D01*
X127476664Y-95544465D01*
X127472232Y-95544864D01*
X127472229Y-95544864D01*
X127472227Y-95544865D01*
X127406402Y-95563031D01*
X127375721Y-95571498D01*
X127278680Y-95595951D01*
X127278671Y-95595954D01*
X127274632Y-95597789D01*
X127256064Y-95604521D01*
X127251777Y-95605704D01*
X127161596Y-95649133D01*
X127070460Y-95690529D01*
X127070453Y-95690533D01*
X127066796Y-95693067D01*
X127049735Y-95703003D01*
X127045728Y-95704932D01*
X126964763Y-95763756D01*
X126882472Y-95820768D01*
X126879328Y-95823913D01*
X126864306Y-95836743D01*
X126860715Y-95839351D01*
X126860707Y-95839358D01*
X126791543Y-95911698D01*
X124754575Y-97948666D01*
X124749304Y-97953377D01*
X124718453Y-97977979D01*
X124672772Y-98030266D01*
X124669881Y-98033359D01*
X124661279Y-98041962D01*
X124633840Y-98074828D01*
X124567992Y-98150197D01*
X124567989Y-98150202D01*
X124565711Y-98154015D01*
X124554278Y-98170127D01*
X124551429Y-98173539D01*
X124502019Y-98260617D01*
X124450696Y-98346516D01*
X124450688Y-98346534D01*
X124449127Y-98350692D01*
X124440761Y-98368575D01*
X124438563Y-98372448D01*
X124438562Y-98372451D01*
X124405509Y-98466913D01*
X124370336Y-98560627D01*
X124370336Y-98560629D01*
X124369541Y-98565011D01*
X124364498Y-98584117D01*
X124363031Y-98588309D01*
X124363031Y-98588311D01*
X124347377Y-98687141D01*
X124335669Y-98751658D01*
X124329500Y-98785651D01*
X124329500Y-98790092D01*
X124327949Y-98809800D01*
X124327254Y-98814183D01*
X124327254Y-98814193D01*
X124329500Y-98914251D01*
X124329500Y-103721549D01*
X124309498Y-103789670D01*
X124292595Y-103810645D01*
X123654572Y-104448667D01*
X123649302Y-104453377D01*
X123618455Y-104477978D01*
X123572772Y-104530266D01*
X123569881Y-104533359D01*
X123561279Y-104541962D01*
X123533840Y-104574828D01*
X123467992Y-104650197D01*
X123467989Y-104650202D01*
X123465711Y-104654015D01*
X123454278Y-104670127D01*
X123451429Y-104673539D01*
X123402019Y-104760617D01*
X123350696Y-104846516D01*
X123350688Y-104846534D01*
X123349127Y-104850692D01*
X123340761Y-104868575D01*
X123338563Y-104872448D01*
X123338562Y-104872451D01*
X123305509Y-104966913D01*
X123270336Y-105060627D01*
X123270336Y-105060629D01*
X123269541Y-105065011D01*
X123264498Y-105084117D01*
X123263031Y-105088309D01*
X123263031Y-105088311D01*
X123247377Y-105187141D01*
X123235727Y-105251338D01*
X123229500Y-105285651D01*
X123229500Y-105290092D01*
X123227949Y-105309800D01*
X123227254Y-105314183D01*
X123227254Y-105314193D01*
X123229500Y-105414251D01*
X123229500Y-105860500D01*
X123209498Y-105928621D01*
X123155842Y-105975114D01*
X123103500Y-105986500D01*
X121023992Y-105986500D01*
X120930104Y-105996595D01*
X120914843Y-105998236D01*
X120914841Y-105998236D01*
X120914835Y-105998237D01*
X120863332Y-106009441D01*
X120759174Y-106044109D01*
X120636215Y-106123130D01*
X120636213Y-106123131D01*
X120583417Y-106168880D01*
X120487704Y-106279337D01*
X120487703Y-106279338D01*
X120426986Y-106412285D01*
X120407302Y-106479319D01*
X120407301Y-106479326D01*
X120407300Y-106479330D01*
X120386502Y-106623992D01*
X120386500Y-106624003D01*
X120386500Y-109176007D01*
X120391398Y-109221556D01*
X120397586Y-109279115D01*
X120398237Y-109285164D01*
X120409441Y-109336667D01*
X120444109Y-109440825D01*
X120523130Y-109563784D01*
X120523131Y-109563786D01*
X120568880Y-109616582D01*
X120568882Y-109616583D01*
X120568884Y-109616586D01*
X120679339Y-109712297D01*
X120812287Y-109773014D01*
X120879326Y-109792699D01*
X120879330Y-109792700D01*
X121024000Y-109813500D01*
X121024004Y-109813500D01*
X125875995Y-109813500D01*
X125876000Y-109813500D01*
X125985157Y-109801764D01*
X126036668Y-109790558D01*
X126140827Y-109755890D01*
X126263782Y-109676871D01*
X126263784Y-109676868D01*
X126263786Y-109676868D01*
X126305044Y-109641117D01*
X126316586Y-109631116D01*
X126412297Y-109520661D01*
X126473014Y-109387713D01*
X126492699Y-109320674D01*
X126492700Y-109320670D01*
X126513500Y-109176000D01*
X126513500Y-106624000D01*
X126501764Y-106514843D01*
X126490558Y-106463332D01*
X126455890Y-106359173D01*
X126376871Y-106236218D01*
X126376870Y-106236217D01*
X126376869Y-106236215D01*
X126376868Y-106236213D01*
X126331119Y-106183417D01*
X126314347Y-106168884D01*
X126220661Y-106087703D01*
X126204044Y-106080114D01*
X126087714Y-106026986D01*
X126020674Y-106007300D01*
X125980243Y-106001487D01*
X125915663Y-105971993D01*
X125877280Y-105912266D01*
X125877281Y-105841270D01*
X125909080Y-105787677D01*
X126445436Y-105251321D01*
X126450677Y-105246636D01*
X126481544Y-105222022D01*
X126527244Y-105169712D01*
X126530098Y-105166658D01*
X126538722Y-105158036D01*
X126566159Y-105125171D01*
X126632010Y-105049799D01*
X126634283Y-105045993D01*
X126645731Y-105029858D01*
X126648574Y-105026455D01*
X126697980Y-104939382D01*
X126749307Y-104853477D01*
X126750863Y-104849330D01*
X126759244Y-104831414D01*
X126761437Y-104827550D01*
X126794497Y-104733069D01*
X126829665Y-104639366D01*
X126830455Y-104635010D01*
X126835507Y-104615871D01*
X126836968Y-104611695D01*
X126836968Y-104611694D01*
X126836970Y-104611689D01*
X126852627Y-104512833D01*
X126870500Y-104414347D01*
X126870500Y-104409908D01*
X126872051Y-104390198D01*
X126872075Y-104390045D01*
X126872746Y-104385810D01*
X126870500Y-104285748D01*
X126870500Y-101152883D01*
X126890502Y-101084762D01*
X126944158Y-101038269D01*
X127014432Y-101028165D01*
X127079012Y-101057659D01*
X127107091Y-101092504D01*
X127109113Y-101096207D01*
X127196738Y-101213261D01*
X127313792Y-101300887D01*
X127313794Y-101300888D01*
X127313796Y-101300889D01*
X127367600Y-101320957D01*
X127450795Y-101351988D01*
X127450803Y-101351990D01*
X127511350Y-101358499D01*
X127511355Y-101358499D01*
X127511362Y-101358500D01*
X127511368Y-101358500D01*
X129308632Y-101358500D01*
X129308638Y-101358500D01*
X129308645Y-101358499D01*
X129308649Y-101358499D01*
X129369196Y-101351990D01*
X129369199Y-101351989D01*
X129369201Y-101351989D01*
X129506204Y-101300889D01*
X129523163Y-101288194D01*
X129623261Y-101213261D01*
X129710886Y-101096208D01*
X129710885Y-101096208D01*
X129710889Y-101096204D01*
X129754999Y-100977939D01*
X129797545Y-100921107D01*
X129864066Y-100896296D01*
X129933440Y-100911388D01*
X129965753Y-100936635D01*
X129986529Y-100959204D01*
X130026762Y-101002908D01*
X130059212Y-101028165D01*
X130204424Y-101141189D01*
X130402426Y-101248342D01*
X130402432Y-101248344D01*
X130501404Y-101282321D01*
X130549588Y-101312399D01*
X132111130Y-102873941D01*
X132120864Y-102886090D01*
X132121123Y-102885877D01*
X132126174Y-102891983D01*
X132175375Y-102938186D01*
X132195726Y-102958537D01*
X132195732Y-102958544D01*
X132195735Y-102958546D01*
X132200979Y-102962613D01*
X132205493Y-102966468D01*
X132211451Y-102972063D01*
X132238542Y-102997504D01*
X132238544Y-102997505D01*
X132255318Y-103006727D01*
X132271845Y-103017583D01*
X132286966Y-103029312D01*
X132286968Y-103029313D01*
X132328559Y-103047311D01*
X132333884Y-103049919D01*
X132373622Y-103071765D01*
X132392165Y-103076525D01*
X132410875Y-103082932D01*
X132428432Y-103090531D01*
X132473200Y-103097621D01*
X132479011Y-103098823D01*
X132522926Y-103110100D01*
X132542064Y-103110100D01*
X132561775Y-103111651D01*
X132580684Y-103114646D01*
X132625817Y-103110380D01*
X132631750Y-103110100D01*
X134995099Y-103110100D01*
X135063220Y-103130102D01*
X135084194Y-103147005D01*
X137252995Y-105315806D01*
X137287021Y-105378118D01*
X137289900Y-105404901D01*
X137289900Y-105965500D01*
X137269898Y-106033621D01*
X137216242Y-106080114D01*
X137163900Y-106091500D01*
X137125613Y-106091500D01*
X136938811Y-106131206D01*
X136764347Y-106208882D01*
X136609844Y-106321135D01*
X136482065Y-106463048D01*
X136482058Y-106463058D01*
X136386576Y-106628438D01*
X136386573Y-106628445D01*
X136327557Y-106810072D01*
X136307596Y-107000000D01*
X136327557Y-107189927D01*
X136353938Y-107271117D01*
X136386573Y-107371556D01*
X136386576Y-107371561D01*
X136461474Y-107501289D01*
X136482060Y-107536944D01*
X136547905Y-107610072D01*
X136570236Y-107634873D01*
X136600953Y-107698881D01*
X136602600Y-107719184D01*
X136602600Y-111356711D01*
X136602060Y-111364943D01*
X136597445Y-111399999D01*
X136602600Y-111439155D01*
X136617977Y-111555953D01*
X136678169Y-111701273D01*
X136678171Y-111701276D01*
X136678172Y-111701277D01*
X136760209Y-111808191D01*
X136773931Y-111826073D01*
X136801991Y-111847604D01*
X136808184Y-111853035D01*
X137446266Y-112491117D01*
X138065695Y-113110546D01*
X138099721Y-113172858D01*
X138102600Y-113199641D01*
X138102600Y-118057851D01*
X138082598Y-118125972D01*
X138070236Y-118142161D01*
X137965212Y-118258801D01*
X137965205Y-118258811D01*
X137869723Y-118424191D01*
X137869720Y-118424198D01*
X137810704Y-118605825D01*
X137790743Y-118795753D01*
X137810704Y-118985680D01*
X137840773Y-119078223D01*
X137869720Y-119167309D01*
X137882065Y-119188691D01*
X137965205Y-119332694D01*
X137965212Y-119332704D01*
X138092991Y-119474617D01*
X138092994Y-119474619D01*
X138247495Y-119586871D01*
X138421959Y-119664547D01*
X138608760Y-119704253D01*
X138799734Y-119704253D01*
X138850403Y-119693483D01*
X138921194Y-119698885D01*
X138977826Y-119741702D01*
X139002320Y-119808339D01*
X139002600Y-119816730D01*
X139002600Y-120235271D01*
X138982598Y-120303392D01*
X138928942Y-120349885D01*
X138876600Y-120361271D01*
X138850000Y-120361271D01*
X138824173Y-120363118D01*
X138776892Y-120366499D01*
X138776884Y-120366501D01*
X138636589Y-120407696D01*
X138636587Y-120407697D01*
X138513579Y-120486749D01*
X138417824Y-120597256D01*
X138357081Y-120730265D01*
X138357079Y-120730272D01*
X138336271Y-120874993D01*
X138336271Y-120875000D01*
X138336271Y-122025000D01*
X138342800Y-122106645D01*
X138361902Y-122167875D01*
X138366445Y-122182438D01*
X138386348Y-122246233D01*
X138467457Y-122367897D01*
X138467458Y-122367898D01*
X138467459Y-122367899D01*
X138542191Y-122430487D01*
X138579558Y-122461782D01*
X138713569Y-122520282D01*
X138775738Y-122528156D01*
X138858628Y-122538656D01*
X138858629Y-122538655D01*
X138858632Y-122538656D01*
X139002996Y-122515418D01*
X139134966Y-122452448D01*
X139530111Y-122189017D01*
X139597881Y-122167875D01*
X139666329Y-122186729D01*
X139669888Y-122189017D01*
X140065034Y-122452448D01*
X140065038Y-122452450D01*
X140065037Y-122452450D01*
X140112463Y-122478866D01*
X140136589Y-122492304D01*
X140276889Y-122533500D01*
X140276892Y-122533500D01*
X140423108Y-122533500D01*
X140423111Y-122533500D01*
X140563411Y-122492304D01*
X140686421Y-122413250D01*
X140782176Y-122302743D01*
X140842919Y-122169734D01*
X140848752Y-122129165D01*
X140863729Y-122025004D01*
X140863729Y-120875006D01*
X140859987Y-120822689D01*
X140858500Y-120801889D01*
X140817304Y-120661589D01*
X140738250Y-120538579D01*
X140627743Y-120442824D01*
X140494734Y-120382081D01*
X140494727Y-120382079D01*
X140350006Y-120361271D01*
X140350000Y-120361271D01*
X140323400Y-120361271D01*
X140255279Y-120341269D01*
X140208786Y-120287613D01*
X140197400Y-120235271D01*
X140197400Y-119723400D01*
X140217402Y-119655279D01*
X140271058Y-119608786D01*
X140323400Y-119597400D01*
X142059296Y-119597400D01*
X142127417Y-119617402D01*
X142152931Y-119639088D01*
X142175854Y-119664547D01*
X142188749Y-119678868D01*
X142188753Y-119678872D01*
X142188754Y-119678874D01*
X142193166Y-119683774D01*
X142192270Y-119684580D01*
X142225995Y-119739317D01*
X142224646Y-119810301D01*
X142193541Y-119861606D01*
X142108191Y-119946957D01*
X142101990Y-119952395D01*
X142073932Y-119973925D01*
X142073928Y-119973930D01*
X141983714Y-120091500D01*
X141978171Y-120098723D01*
X141917977Y-120244047D01*
X141916967Y-120251719D01*
X141888243Y-120316646D01*
X141828978Y-120355737D01*
X141792045Y-120361271D01*
X141750000Y-120361271D01*
X141724173Y-120363118D01*
X141676892Y-120366499D01*
X141676884Y-120366501D01*
X141536589Y-120407696D01*
X141536587Y-120407697D01*
X141413579Y-120486749D01*
X141317824Y-120597256D01*
X141257081Y-120730265D01*
X141257079Y-120730272D01*
X141236271Y-120874993D01*
X141236271Y-120875000D01*
X141236271Y-122025000D01*
X141242800Y-122106645D01*
X141261902Y-122167875D01*
X141266445Y-122182438D01*
X141286348Y-122246233D01*
X141367457Y-122367897D01*
X141367458Y-122367898D01*
X141367459Y-122367899D01*
X141442191Y-122430487D01*
X141479558Y-122461782D01*
X141613569Y-122520282D01*
X141675738Y-122528156D01*
X141758628Y-122538656D01*
X141758629Y-122538655D01*
X141758632Y-122538656D01*
X141902996Y-122515418D01*
X142034966Y-122452448D01*
X142430111Y-122189017D01*
X142497881Y-122167875D01*
X142566329Y-122186729D01*
X142569888Y-122189017D01*
X142965034Y-122452448D01*
X142965038Y-122452450D01*
X142965037Y-122452450D01*
X143012463Y-122478866D01*
X143036589Y-122492304D01*
X143176889Y-122533500D01*
X143176892Y-122533500D01*
X143323108Y-122533500D01*
X143323111Y-122533500D01*
X143463411Y-122492304D01*
X143586421Y-122413250D01*
X143682176Y-122302743D01*
X143742919Y-122169734D01*
X143748752Y-122129165D01*
X143763729Y-122025004D01*
X143763729Y-120875006D01*
X143759987Y-120822689D01*
X143758500Y-120801889D01*
X143717304Y-120661589D01*
X143638250Y-120538579D01*
X143527743Y-120442824D01*
X143521869Y-120439049D01*
X143475376Y-120385393D01*
X143465272Y-120315119D01*
X143494766Y-120250539D01*
X143500895Y-120243956D01*
X143770926Y-119973925D01*
X144063971Y-119680879D01*
X144070161Y-119675452D01*
X144098217Y-119653925D01*
X144149289Y-119587367D01*
X144193974Y-119529131D01*
X144254169Y-119383807D01*
X144274702Y-119227854D01*
X144270086Y-119192789D01*
X144269546Y-119184557D01*
X144269546Y-119101859D01*
X144289548Y-119033738D01*
X144301910Y-119017549D01*
X144411180Y-118896192D01*
X144411181Y-118896190D01*
X144411186Y-118896185D01*
X144506673Y-118730797D01*
X144565688Y-118549169D01*
X144585244Y-118363102D01*
X144612256Y-118297448D01*
X144670477Y-118256818D01*
X144736751Y-118253029D01*
X144797743Y-118265994D01*
X144797747Y-118265994D01*
X144988725Y-118265994D01*
X145037702Y-118255583D01*
X145108493Y-118260984D01*
X145165126Y-118303800D01*
X145189620Y-118370437D01*
X145189900Y-118378829D01*
X145189900Y-119999193D01*
X145169898Y-120067314D01*
X145116242Y-120113807D01*
X145090097Y-120122439D01*
X144989504Y-120143821D01*
X144815035Y-120221499D01*
X144660532Y-120333752D01*
X144532753Y-120475665D01*
X144532746Y-120475675D01*
X144437264Y-120641055D01*
X144437261Y-120641062D01*
X144378245Y-120822689D01*
X144358284Y-121012617D01*
X144378245Y-121202544D01*
X144403660Y-121280761D01*
X144437261Y-121384173D01*
X144437264Y-121384178D01*
X144532746Y-121549558D01*
X144532753Y-121549568D01*
X144660532Y-121691481D01*
X144660535Y-121691483D01*
X144815036Y-121803735D01*
X144989500Y-121881411D01*
X145011368Y-121886059D01*
X145073842Y-121919785D01*
X145108165Y-121981934D01*
X145103439Y-122052773D01*
X145061165Y-122109812D01*
X145023367Y-122127243D01*
X145023992Y-122129165D01*
X145017716Y-122131203D01*
X144843247Y-122208882D01*
X144688744Y-122321135D01*
X144560965Y-122463048D01*
X144560958Y-122463058D01*
X144465476Y-122628438D01*
X144465473Y-122628445D01*
X144406457Y-122810072D01*
X144386496Y-123000000D01*
X144406457Y-123189927D01*
X144436526Y-123282470D01*
X144465473Y-123371556D01*
X144465476Y-123371561D01*
X144560958Y-123536941D01*
X144560965Y-123536951D01*
X144688744Y-123678864D01*
X144688747Y-123678866D01*
X144843248Y-123791118D01*
X145017712Y-123868794D01*
X145204513Y-123908500D01*
X145395487Y-123908500D01*
X145582288Y-123868794D01*
X145756752Y-123791118D01*
X145911253Y-123678866D01*
X145911255Y-123678864D01*
X146039036Y-123536949D01*
X146039037Y-123536947D01*
X146039036Y-123536947D01*
X146039040Y-123536944D01*
X146045647Y-123525499D01*
X146097027Y-123476508D01*
X146154766Y-123462500D01*
X146158487Y-123462500D01*
X146345288Y-123422794D01*
X146519752Y-123345118D01*
X146674253Y-123232866D01*
X146712915Y-123189928D01*
X146802034Y-123090951D01*
X146802035Y-123090949D01*
X146802040Y-123090944D01*
X146897527Y-122925556D01*
X146956542Y-122743928D01*
X146976504Y-122554000D01*
X146956542Y-122364072D01*
X146897527Y-122182444D01*
X146802040Y-122017056D01*
X146802038Y-122017054D01*
X146802034Y-122017048D01*
X146674255Y-121875135D01*
X146519752Y-121762882D01*
X146345288Y-121685206D01*
X146152028Y-121644127D01*
X146152370Y-121642516D01*
X146094353Y-121618644D01*
X146053726Y-121560421D01*
X146051025Y-121489476D01*
X146064064Y-121457353D01*
X146106315Y-121384173D01*
X146165330Y-121202545D01*
X146185292Y-121012617D01*
X146185291Y-121012616D01*
X146185982Y-121006050D01*
X146187930Y-121006254D01*
X146205294Y-120947121D01*
X146219440Y-120928991D01*
X146238171Y-120909045D01*
X146247216Y-120900000D01*
X146686496Y-120900000D01*
X146706457Y-121089927D01*
X146732980Y-121171554D01*
X146765473Y-121271556D01*
X146770785Y-121280756D01*
X146860958Y-121436941D01*
X146860965Y-121436951D01*
X146988744Y-121578864D01*
X147005609Y-121591117D01*
X147143248Y-121691118D01*
X147317712Y-121768794D01*
X147504513Y-121808500D01*
X147695487Y-121808500D01*
X147882288Y-121768794D01*
X148056752Y-121691118D01*
X148211253Y-121578866D01*
X148327260Y-121450026D01*
X148387704Y-121412788D01*
X148458688Y-121414139D01*
X148517673Y-121453653D01*
X148540728Y-121495400D01*
X148565473Y-121571556D01*
X148575005Y-121588066D01*
X148660958Y-121736941D01*
X148660965Y-121736951D01*
X148788744Y-121878864D01*
X148788747Y-121878866D01*
X148943248Y-121991118D01*
X149117712Y-122068794D01*
X149304513Y-122108500D01*
X149495487Y-122108500D01*
X149682288Y-122068794D01*
X149856752Y-121991118D01*
X150011253Y-121878866D01*
X150011255Y-121878864D01*
X150082264Y-121800000D01*
X152986496Y-121800000D01*
X153006457Y-121989927D01*
X153017855Y-122025004D01*
X153065473Y-122171556D01*
X153065476Y-122171561D01*
X153160958Y-122336941D01*
X153160965Y-122336951D01*
X153288744Y-122478864D01*
X153288747Y-122478866D01*
X153443248Y-122591118D01*
X153617712Y-122668794D01*
X153804513Y-122708500D01*
X153995487Y-122708500D01*
X154182288Y-122668794D01*
X154356752Y-122591118D01*
X154511253Y-122478866D01*
X154525487Y-122463058D01*
X154639034Y-122336951D01*
X154639035Y-122336949D01*
X154639040Y-122336944D01*
X154734527Y-122171556D01*
X154793542Y-121989928D01*
X154813504Y-121800000D01*
X154793542Y-121610072D01*
X154734527Y-121428444D01*
X154639040Y-121263056D01*
X154639038Y-121263054D01*
X154639034Y-121263048D01*
X154511255Y-121121135D01*
X154356752Y-121008882D01*
X154182288Y-120931206D01*
X153995487Y-120891500D01*
X153804513Y-120891500D01*
X153617711Y-120931206D01*
X153443247Y-121008882D01*
X153288744Y-121121135D01*
X153160965Y-121263048D01*
X153160958Y-121263058D01*
X153065476Y-121428438D01*
X153065473Y-121428445D01*
X153006457Y-121610072D01*
X152986496Y-121800000D01*
X150082264Y-121800000D01*
X150139034Y-121736951D01*
X150139035Y-121736949D01*
X150139040Y-121736944D01*
X150234527Y-121571556D01*
X150293542Y-121389928D01*
X150313504Y-121200000D01*
X150293542Y-121010072D01*
X150234527Y-120828444D01*
X150139040Y-120663056D01*
X150139038Y-120663054D01*
X150139034Y-120663048D01*
X150011255Y-120521135D01*
X149856752Y-120408882D01*
X149682288Y-120331206D01*
X149495487Y-120291500D01*
X149304513Y-120291500D01*
X149117711Y-120331206D01*
X148943247Y-120408882D01*
X148788746Y-120521134D01*
X148672740Y-120649972D01*
X148612294Y-120687211D01*
X148541310Y-120685859D01*
X148482326Y-120646345D01*
X148459271Y-120604598D01*
X148456886Y-120597257D01*
X148434527Y-120528444D01*
X148339040Y-120363056D01*
X148339038Y-120363054D01*
X148339034Y-120363048D01*
X148211255Y-120221135D01*
X148056752Y-120108882D01*
X147882288Y-120031206D01*
X147695487Y-119991500D01*
X147504513Y-119991500D01*
X147317711Y-120031206D01*
X147143247Y-120108882D01*
X146988744Y-120221135D01*
X146860965Y-120363048D01*
X146860958Y-120363058D01*
X146768826Y-120522636D01*
X146765473Y-120528444D01*
X146762180Y-120538579D01*
X146706457Y-120710072D01*
X146686496Y-120900000D01*
X146247216Y-120900000D01*
X146258547Y-120888670D01*
X146262628Y-120883407D01*
X146266460Y-120878920D01*
X146297504Y-120845863D01*
X146306725Y-120829087D01*
X146317575Y-120812570D01*
X146329313Y-120797439D01*
X146347323Y-120755817D01*
X146349919Y-120750520D01*
X146371765Y-120710783D01*
X146376525Y-120692241D01*
X146382930Y-120673537D01*
X146384502Y-120669903D01*
X146390532Y-120655970D01*
X146397625Y-120611188D01*
X146398830Y-120605371D01*
X146410100Y-120561479D01*
X146410100Y-120542347D01*
X146411651Y-120522636D01*
X146414647Y-120503720D01*
X146410380Y-120458577D01*
X146410100Y-120452644D01*
X146410100Y-116804901D01*
X146430102Y-116736780D01*
X146447005Y-116715806D01*
X146704811Y-116458000D01*
X148959496Y-116458000D01*
X148979457Y-116647927D01*
X148981441Y-116654032D01*
X149038473Y-116829556D01*
X149038476Y-116829561D01*
X149133958Y-116994941D01*
X149133965Y-116994951D01*
X149261744Y-117136864D01*
X149291686Y-117158618D01*
X149416248Y-117249118D01*
X149590712Y-117326794D01*
X149777513Y-117366500D01*
X149968487Y-117366500D01*
X150155288Y-117326794D01*
X150329752Y-117249118D01*
X150484253Y-117136866D01*
X150498418Y-117121134D01*
X150612034Y-116994951D01*
X150612035Y-116994949D01*
X150612040Y-116994944D01*
X150707527Y-116829556D01*
X150766542Y-116647928D01*
X150786504Y-116458000D01*
X150766542Y-116268072D01*
X150707527Y-116086444D01*
X150612040Y-115921056D01*
X150612038Y-115921054D01*
X150612034Y-115921048D01*
X150484255Y-115779135D01*
X150329752Y-115666882D01*
X150155288Y-115589206D01*
X149968487Y-115549500D01*
X149777513Y-115549500D01*
X149590711Y-115589206D01*
X149416247Y-115666882D01*
X149261744Y-115779135D01*
X149133965Y-115921048D01*
X149133958Y-115921058D01*
X149038476Y-116086438D01*
X149038473Y-116086445D01*
X148979457Y-116268072D01*
X148959496Y-116458000D01*
X146704811Y-116458000D01*
X146952739Y-116210072D01*
X147473945Y-115688865D01*
X147486094Y-115679134D01*
X147485879Y-115678874D01*
X147491978Y-115673828D01*
X147491983Y-115673826D01*
X147494426Y-115671225D01*
X147538169Y-115624642D01*
X147558542Y-115604270D01*
X147558542Y-115604269D01*
X147558547Y-115604265D01*
X147562628Y-115599002D01*
X147566460Y-115594515D01*
X147597504Y-115561458D01*
X147606725Y-115544682D01*
X147617575Y-115528165D01*
X147629313Y-115513034D01*
X147647323Y-115471412D01*
X147649919Y-115466115D01*
X147671765Y-115426378D01*
X147676525Y-115407836D01*
X147682930Y-115389132D01*
X147683700Y-115387350D01*
X147690532Y-115371565D01*
X147695417Y-115340716D01*
X147697623Y-115326792D01*
X147698824Y-115320985D01*
X147710100Y-115277074D01*
X147710100Y-115257936D01*
X147711651Y-115238228D01*
X147715495Y-115213954D01*
X147745905Y-115149801D01*
X147806173Y-115112272D01*
X147847909Y-115108789D01*
X147847909Y-115108500D01*
X147851378Y-115108500D01*
X147853128Y-115108354D01*
X147854510Y-115108499D01*
X147854513Y-115108500D01*
X147854516Y-115108500D01*
X148045487Y-115108500D01*
X148232288Y-115068794D01*
X148406752Y-114991118D01*
X148561253Y-114878866D01*
X148597067Y-114839089D01*
X148657513Y-114801850D01*
X148690704Y-114797400D01*
X155056711Y-114797400D01*
X155064943Y-114797940D01*
X155099999Y-114802555D01*
X155100000Y-114802555D01*
X155255953Y-114782023D01*
X155379992Y-114730644D01*
X155401275Y-114721829D01*
X155401275Y-114721828D01*
X155401277Y-114721828D01*
X155412957Y-114712865D01*
X155429725Y-114700000D01*
X155477897Y-114663035D01*
X155526071Y-114626071D01*
X155547607Y-114598002D01*
X155553029Y-114591820D01*
X155799447Y-114345404D01*
X155861759Y-114311379D01*
X155888542Y-114308500D01*
X155995487Y-114308500D01*
X156182288Y-114268794D01*
X156356752Y-114191118D01*
X156425058Y-114141490D01*
X156491923Y-114117632D01*
X156561075Y-114133711D01*
X156573169Y-114141484D01*
X156655248Y-114201118D01*
X156829712Y-114278794D01*
X157016513Y-114318500D01*
X157207487Y-114318500D01*
X157394288Y-114278794D01*
X157568752Y-114201118D01*
X157589839Y-114185796D01*
X157656706Y-114161939D01*
X157725858Y-114178019D01*
X157775338Y-114228932D01*
X157789900Y-114287733D01*
X157789900Y-115055913D01*
X157769898Y-115124034D01*
X157752995Y-115145009D01*
X157182949Y-115715054D01*
X157120637Y-115749079D01*
X157049821Y-115744014D01*
X157017172Y-115724220D01*
X157016595Y-115725015D01*
X156856752Y-115608882D01*
X156682288Y-115531206D01*
X156495487Y-115491500D01*
X156304513Y-115491500D01*
X156117711Y-115531206D01*
X155943247Y-115608882D01*
X155788744Y-115721135D01*
X155660965Y-115863048D01*
X155660958Y-115863058D01*
X155565476Y-116028438D01*
X155565473Y-116028445D01*
X155506457Y-116210072D01*
X155486496Y-116400000D01*
X155506457Y-116589927D01*
X155535279Y-116678629D01*
X155554912Y-116739054D01*
X155555191Y-116739911D01*
X155557219Y-116810879D01*
X155520556Y-116871677D01*
X155456844Y-116903002D01*
X155451158Y-116903853D01*
X155447081Y-116904368D01*
X155447066Y-116904371D01*
X155415704Y-116916788D01*
X155345004Y-116923264D01*
X155343129Y-116922881D01*
X155195489Y-116891500D01*
X155195487Y-116891500D01*
X155004513Y-116891500D01*
X154817711Y-116931206D01*
X154643247Y-117008882D01*
X154488744Y-117121135D01*
X154360965Y-117263048D01*
X154360958Y-117263058D01*
X154265476Y-117428438D01*
X154265473Y-117428445D01*
X154206457Y-117610072D01*
X154186496Y-117800000D01*
X154206457Y-117989927D01*
X154228528Y-118057851D01*
X154265473Y-118171556D01*
X154265476Y-118171561D01*
X154360958Y-118336941D01*
X154360965Y-118336951D01*
X154488744Y-118478864D01*
X154488747Y-118478866D01*
X154643248Y-118591118D01*
X154817712Y-118668794D01*
X155004513Y-118708500D01*
X155195485Y-118708500D01*
X155195487Y-118708500D01*
X155287764Y-118688885D01*
X155358551Y-118694286D01*
X155415184Y-118737102D01*
X155423073Y-118749123D01*
X155460960Y-118814744D01*
X155460962Y-118814747D01*
X155460965Y-118814751D01*
X155588744Y-118956664D01*
X155649999Y-119001168D01*
X155743248Y-119068918D01*
X155917712Y-119146594D01*
X156104513Y-119186300D01*
X156295487Y-119186300D01*
X156482288Y-119146594D01*
X156531375Y-119124738D01*
X156601739Y-119115304D01*
X156666037Y-119145409D01*
X156676259Y-119155535D01*
X156792171Y-119284269D01*
X156792174Y-119284271D01*
X156946675Y-119396523D01*
X157121139Y-119474199D01*
X157307940Y-119513905D01*
X157498914Y-119513905D01*
X157685715Y-119474199D01*
X157696054Y-119469595D01*
X157766418Y-119460159D01*
X157830716Y-119490263D01*
X157867137Y-119545763D01*
X157880352Y-119586435D01*
X157880353Y-119586437D01*
X157975838Y-119751821D01*
X157975841Y-119751825D01*
X158075495Y-119862503D01*
X158106212Y-119926511D01*
X158097447Y-119996964D01*
X158051984Y-120051495D01*
X157984256Y-120072790D01*
X157930609Y-120061920D01*
X157906731Y-120051289D01*
X157882288Y-120040406D01*
X157695487Y-120000700D01*
X157504513Y-120000700D01*
X157317711Y-120040406D01*
X157143247Y-120118082D01*
X156988744Y-120230335D01*
X156860965Y-120372248D01*
X156860958Y-120372258D01*
X156770784Y-120528445D01*
X156765473Y-120537644D01*
X156757728Y-120561481D01*
X156706457Y-120719272D01*
X156686496Y-120909200D01*
X156706457Y-121099127D01*
X156729991Y-121171554D01*
X156765473Y-121280756D01*
X156765476Y-121280761D01*
X156855646Y-121436941D01*
X156860960Y-121446144D01*
X156957536Y-121553403D01*
X156988253Y-121617410D01*
X156989900Y-121637713D01*
X156989900Y-123518738D01*
X156988192Y-123534208D01*
X156988527Y-123534240D01*
X156987781Y-123542130D01*
X156989900Y-123609567D01*
X156989900Y-123638378D01*
X156989901Y-123638395D01*
X156990733Y-123644984D01*
X156991198Y-123650897D01*
X156992622Y-123696202D01*
X156997962Y-123714581D01*
X157001971Y-123733936D01*
X157003980Y-123749839D01*
X157004371Y-123752933D01*
X157021059Y-123795082D01*
X157022983Y-123800700D01*
X157035626Y-123844222D01*
X157035629Y-123844229D01*
X157045371Y-123860703D01*
X157054065Y-123878448D01*
X157061116Y-123896255D01*
X157087764Y-123932933D01*
X157091025Y-123937897D01*
X157114092Y-123976903D01*
X157114097Y-123976909D01*
X157127623Y-123990435D01*
X157140461Y-124005465D01*
X157151719Y-124020959D01*
X157151723Y-124020964D01*
X157186660Y-124049866D01*
X157191041Y-124053852D01*
X160128306Y-126991117D01*
X163053108Y-129915919D01*
X163087134Y-129978231D01*
X163082069Y-130049046D01*
X163039522Y-130105882D01*
X163001514Y-130123165D01*
X163002105Y-130124949D01*
X162827261Y-130182885D01*
X162676347Y-130275970D01*
X162676341Y-130275975D01*
X162550975Y-130401341D01*
X162550970Y-130401347D01*
X162457885Y-130552262D01*
X162402113Y-130720572D01*
X162402112Y-130720579D01*
X162391500Y-130824446D01*
X162391500Y-132175544D01*
X162399790Y-132256690D01*
X162402113Y-132279426D01*
X162444084Y-132406090D01*
X162450108Y-132424268D01*
X162452548Y-132495222D01*
X162416240Y-132556232D01*
X162352711Y-132587928D01*
X162330503Y-132589900D01*
X160104902Y-132589900D01*
X160036781Y-132569898D01*
X160015807Y-132552995D01*
X159159468Y-131696656D01*
X159149735Y-131684508D01*
X159149476Y-131684723D01*
X159144428Y-131678620D01*
X159144426Y-131678617D01*
X159124116Y-131659545D01*
X159095241Y-131632429D01*
X159074869Y-131612056D01*
X159069608Y-131607975D01*
X159065095Y-131604120D01*
X159032060Y-131573098D01*
X159032055Y-131573094D01*
X159015285Y-131563875D01*
X158998757Y-131553018D01*
X158983635Y-131541288D01*
X158983636Y-131541288D01*
X158983634Y-131541287D01*
X158983630Y-131541285D01*
X158983628Y-131541284D01*
X158945224Y-131524665D01*
X158942030Y-131523282D01*
X158936703Y-131520673D01*
X158896979Y-131498835D01*
X158878430Y-131494072D01*
X158859733Y-131487670D01*
X158842164Y-131480067D01*
X158797388Y-131472975D01*
X158791574Y-131471771D01*
X158767752Y-131465655D01*
X158747674Y-131460500D01*
X158747673Y-131460500D01*
X158728536Y-131460500D01*
X158708825Y-131458949D01*
X158705239Y-131458381D01*
X158689916Y-131455954D01*
X158689915Y-131455954D01*
X158644783Y-131460220D01*
X158638850Y-131460500D01*
X144610664Y-131460500D01*
X144595196Y-131458792D01*
X144595165Y-131459127D01*
X144587272Y-131458380D01*
X144519832Y-131460500D01*
X144491017Y-131460500D01*
X144491013Y-131460500D01*
X144491001Y-131460501D01*
X144484415Y-131461333D01*
X144478503Y-131461798D01*
X144433201Y-131463221D01*
X144414816Y-131468563D01*
X144395460Y-131472571D01*
X144376475Y-131474969D01*
X144376462Y-131474973D01*
X144334322Y-131491656D01*
X144328708Y-131493579D01*
X144301282Y-131501548D01*
X144285174Y-131506228D01*
X144285171Y-131506229D01*
X144285165Y-131506232D01*
X144268699Y-131515970D01*
X144250952Y-131524665D01*
X144233148Y-131531714D01*
X144196466Y-131558364D01*
X144191505Y-131561622D01*
X144152493Y-131584695D01*
X144138956Y-131598231D01*
X144123931Y-131611064D01*
X144108438Y-131622321D01*
X144079534Y-131657259D01*
X144075538Y-131661650D01*
X142784193Y-132952995D01*
X142721881Y-132987020D01*
X142695098Y-132989900D01*
X135087368Y-132989900D01*
X135019247Y-132969898D01*
X134972754Y-132916242D01*
X134962650Y-132845968D01*
X134992144Y-132781388D01*
X135035024Y-132749287D01*
X135056771Y-132739356D01*
X135229215Y-132616559D01*
X135375303Y-132463346D01*
X135489756Y-132285254D01*
X135568436Y-132088721D01*
X135608500Y-131880849D01*
X135608500Y-131172197D01*
X135593419Y-131014261D01*
X135533777Y-130811138D01*
X135533776Y-130811137D01*
X135533776Y-130811135D01*
X135436772Y-130622976D01*
X135436771Y-130622974D01*
X135305908Y-130456568D01*
X135305907Y-130456567D01*
X135204387Y-130368598D01*
X135166004Y-130308872D01*
X135160900Y-130273374D01*
X135160900Y-130162411D01*
X135180902Y-130094290D01*
X135234558Y-130047797D01*
X135277909Y-130036732D01*
X135323111Y-130033500D01*
X135463411Y-129992304D01*
X135586421Y-129913250D01*
X135682176Y-129802743D01*
X135742919Y-129669734D01*
X135743151Y-129668117D01*
X135763729Y-129525004D01*
X135763729Y-128525003D01*
X135763729Y-128525000D01*
X135762952Y-128512689D01*
X135778624Y-128443447D01*
X135829245Y-128393667D01*
X135898743Y-128379157D01*
X135939951Y-128389649D01*
X135943244Y-128391115D01*
X135943248Y-128391118D01*
X136117712Y-128468794D01*
X136304513Y-128508500D01*
X136495487Y-128508500D01*
X136682288Y-128468794D01*
X136856752Y-128391118D01*
X137011253Y-128278866D01*
X137011255Y-128278864D01*
X137139034Y-128136951D01*
X137139035Y-128136949D01*
X137139040Y-128136944D01*
X137209445Y-128015000D01*
X156198496Y-128015000D01*
X156218457Y-128204927D01*
X156240415Y-128272504D01*
X156277473Y-128386556D01*
X156277476Y-128386561D01*
X156372958Y-128551941D01*
X156372965Y-128551951D01*
X156500744Y-128693864D01*
X156500747Y-128693866D01*
X156655248Y-128806118D01*
X156829712Y-128883794D01*
X157016513Y-128923500D01*
X157207487Y-128923500D01*
X157394288Y-128883794D01*
X157568752Y-128806118D01*
X157723253Y-128693866D01*
X157723255Y-128693864D01*
X157851034Y-128551951D01*
X157851035Y-128551949D01*
X157851040Y-128551944D01*
X157946527Y-128386556D01*
X158005542Y-128204928D01*
X158025504Y-128015000D01*
X158005542Y-127825072D01*
X157946527Y-127643444D01*
X157851040Y-127478056D01*
X157851038Y-127478054D01*
X157851034Y-127478048D01*
X157723255Y-127336135D01*
X157568752Y-127223882D01*
X157394288Y-127146206D01*
X157207487Y-127106500D01*
X157016513Y-127106500D01*
X156829711Y-127146206D01*
X156655247Y-127223882D01*
X156500744Y-127336135D01*
X156372965Y-127478048D01*
X156372958Y-127478058D01*
X156277476Y-127643438D01*
X156277473Y-127643445D01*
X156218457Y-127825072D01*
X156198496Y-128015000D01*
X137209445Y-128015000D01*
X137234527Y-127971556D01*
X137293542Y-127789928D01*
X137313504Y-127600000D01*
X137293542Y-127410072D01*
X137234527Y-127228444D01*
X137139040Y-127063056D01*
X137139038Y-127063054D01*
X137139034Y-127063048D01*
X137011255Y-126921135D01*
X136856752Y-126808882D01*
X136682288Y-126731206D01*
X136495487Y-126691500D01*
X136304513Y-126691500D01*
X136117711Y-126731206D01*
X135943244Y-126808883D01*
X135874061Y-126859148D01*
X135807193Y-126883006D01*
X135738042Y-126866925D01*
X135694003Y-126825332D01*
X135638250Y-126738579D01*
X135527743Y-126642824D01*
X135394734Y-126582081D01*
X135394727Y-126582079D01*
X135250006Y-126561271D01*
X135250000Y-126561271D01*
X133750000Y-126561271D01*
X133724173Y-126563118D01*
X133676892Y-126566499D01*
X133676884Y-126566501D01*
X133536589Y-126607696D01*
X133536587Y-126607697D01*
X133413579Y-126686749D01*
X133317824Y-126797256D01*
X133257081Y-126930265D01*
X133257079Y-126930272D01*
X133236271Y-127074993D01*
X133236271Y-127075000D01*
X133236271Y-128225000D01*
X133238792Y-128256521D01*
X133242800Y-128306647D01*
X133251327Y-128333977D01*
X133255762Y-128389435D01*
X133236271Y-128524993D01*
X133236271Y-128525000D01*
X133236271Y-129525000D01*
X133238233Y-129552442D01*
X133241499Y-129598107D01*
X133241500Y-129598111D01*
X133282696Y-129738411D01*
X133361750Y-129861421D01*
X133472257Y-129957176D01*
X133605266Y-130017919D01*
X133605271Y-130017919D01*
X133605272Y-130017920D01*
X133731032Y-130036002D01*
X133795613Y-130065495D01*
X133833996Y-130125221D01*
X133839100Y-130160719D01*
X133839100Y-130269836D01*
X133819098Y-130337957D01*
X133786190Y-130372471D01*
X133770785Y-130383440D01*
X133770781Y-130383444D01*
X133624696Y-130536655D01*
X133605319Y-130566806D01*
X133551662Y-130613298D01*
X133481388Y-130623400D01*
X133416808Y-130593906D01*
X133400279Y-130576571D01*
X133381162Y-130552262D01*
X133305908Y-130456568D01*
X133305907Y-130456567D01*
X133305905Y-130456564D01*
X133145922Y-130317938D01*
X133145911Y-130317930D01*
X132962587Y-130212089D01*
X132962580Y-130212086D01*
X132762530Y-130142848D01*
X132762529Y-130142847D01*
X132762527Y-130142847D01*
X132762525Y-130142846D01*
X132762519Y-130142845D01*
X132552985Y-130112718D01*
X132341536Y-130122790D01*
X132341523Y-130122792D01*
X132135801Y-130172700D01*
X132135795Y-130172702D01*
X131943228Y-130260644D01*
X131943221Y-130260648D01*
X131770791Y-130383435D01*
X131770775Y-130383449D01*
X131681403Y-130477181D01*
X131619919Y-130512679D01*
X131549002Y-130509301D01*
X131491170Y-130468119D01*
X131482972Y-130456377D01*
X131470210Y-130435687D01*
X131449030Y-130401348D01*
X131449027Y-130401345D01*
X131449024Y-130401341D01*
X131323658Y-130275975D01*
X131323652Y-130275970D01*
X131263275Y-130238729D01*
X131172738Y-130182885D01*
X131051508Y-130142714D01*
X131004427Y-130127113D01*
X131004420Y-130127112D01*
X130900553Y-130116500D01*
X130099455Y-130116500D01*
X129995574Y-130127112D01*
X129827261Y-130182885D01*
X129676347Y-130275970D01*
X129676341Y-130275975D01*
X129550975Y-130401341D01*
X129550970Y-130401347D01*
X129457885Y-130552262D01*
X129402113Y-130720572D01*
X129402112Y-130720579D01*
X129391500Y-130824446D01*
X129391500Y-132175544D01*
X129402112Y-132279425D01*
X129457885Y-132447738D01*
X129550970Y-132598652D01*
X129550975Y-132598658D01*
X129676341Y-132724024D01*
X129676347Y-132724029D01*
X129676348Y-132724030D01*
X129827262Y-132817115D01*
X129995574Y-132872887D01*
X130099455Y-132883500D01*
X130900544Y-132883499D01*
X131004426Y-132872887D01*
X131172738Y-132817115D01*
X131323652Y-132724030D01*
X131449030Y-132598652D01*
X131481105Y-132546649D01*
X131533890Y-132499171D01*
X131603965Y-132487768D01*
X131669081Y-132516060D01*
X131687387Y-132534906D01*
X131694092Y-132543432D01*
X131694095Y-132543435D01*
X131694103Y-132543443D01*
X131852507Y-132680700D01*
X131854082Y-132682065D01*
X131893458Y-132704798D01*
X131938916Y-132749785D01*
X131945372Y-132760703D01*
X131954065Y-132778449D01*
X131961114Y-132796252D01*
X131961115Y-132796254D01*
X131987764Y-132832933D01*
X131991025Y-132837897D01*
X132014092Y-132876903D01*
X132014093Y-132876904D01*
X132014094Y-132876905D01*
X132014095Y-132876906D01*
X132027626Y-132890437D01*
X132040464Y-132905468D01*
X132051720Y-132920961D01*
X132086659Y-132949865D01*
X132091040Y-132953851D01*
X132857247Y-133720059D01*
X133111129Y-133973941D01*
X133120859Y-133986085D01*
X133121118Y-133985872D01*
X133126173Y-133991982D01*
X133126174Y-133991983D01*
X133148922Y-134013345D01*
X133175358Y-134038170D01*
X133195728Y-134058541D01*
X133195737Y-134058549D01*
X133197002Y-134059530D01*
X133200989Y-134062622D01*
X133205502Y-134066477D01*
X133238542Y-134097504D01*
X133255307Y-134106720D01*
X133271832Y-134117573D01*
X133286966Y-134129313D01*
X133328585Y-134147323D01*
X133333884Y-134149919D01*
X133373622Y-134171765D01*
X133392161Y-134176525D01*
X133410858Y-134182926D01*
X133428435Y-134190532D01*
X133473232Y-134197626D01*
X133479017Y-134198825D01*
X133522926Y-134210100D01*
X133542064Y-134210100D01*
X133561774Y-134211650D01*
X133580684Y-134214646D01*
X133612367Y-134211651D01*
X133625817Y-134210380D01*
X133631750Y-134210100D01*
X142918736Y-134210100D01*
X142934203Y-134211807D01*
X142934235Y-134211473D01*
X142942127Y-134212219D01*
X142942127Y-134212218D01*
X142942128Y-134212219D01*
X143009568Y-134210100D01*
X143038383Y-134210100D01*
X143038384Y-134210100D01*
X143038384Y-134210099D01*
X143043675Y-134209430D01*
X143044965Y-134209268D01*
X143050883Y-134208801D01*
X143096199Y-134207378D01*
X143114583Y-134202035D01*
X143133937Y-134198027D01*
X143152932Y-134195629D01*
X143195082Y-134178939D01*
X143200693Y-134177018D01*
X143244225Y-134164372D01*
X143260699Y-134154628D01*
X143278450Y-134145932D01*
X143296254Y-134138884D01*
X143332960Y-134112214D01*
X143337870Y-134108989D01*
X143376906Y-134085905D01*
X143390436Y-134072374D01*
X143405476Y-134059530D01*
X143420954Y-134048285D01*
X143420954Y-134048284D01*
X143420962Y-134048279D01*
X143449868Y-134013335D01*
X143453847Y-134008962D01*
X144745208Y-132717604D01*
X144807520Y-132683579D01*
X144834303Y-132680700D01*
X155990500Y-132680700D01*
X156058621Y-132700702D01*
X156105114Y-132754358D01*
X156116500Y-132806700D01*
X156116500Y-134298649D01*
X156123009Y-134359196D01*
X156123011Y-134359204D01*
X156174110Y-134496202D01*
X156174112Y-134496207D01*
X156261738Y-134613261D01*
X156378792Y-134700887D01*
X156378794Y-134700888D01*
X156378796Y-134700889D01*
X156415272Y-134714494D01*
X156523184Y-134754744D01*
X156522255Y-134757232D01*
X156572792Y-134786012D01*
X156605697Y-134848923D01*
X156599366Y-134919637D01*
X156555810Y-134975703D01*
X156488856Y-134999320D01*
X156482117Y-134999500D01*
X123501543Y-134999500D01*
X123498454Y-134999424D01*
X123444409Y-134996769D01*
X123347561Y-134992011D01*
X123153462Y-134981839D01*
X123147512Y-134981243D01*
X122978317Y-134956145D01*
X122802459Y-134928291D01*
X122797005Y-134927178D01*
X122627798Y-134884795D01*
X122601713Y-134877805D01*
X122458713Y-134839488D01*
X122453806Y-134837956D01*
X122308633Y-134786012D01*
X122288120Y-134778672D01*
X122125786Y-134716358D01*
X122121426Y-134714493D01*
X121961529Y-134638868D01*
X121807030Y-134560146D01*
X121803242Y-134558049D01*
X121651038Y-134466822D01*
X121505754Y-134372473D01*
X121502536Y-134370238D01*
X121428082Y-134315019D01*
X121359673Y-134264283D01*
X121225041Y-134155260D01*
X121222391Y-134152990D01*
X121214599Y-134145928D01*
X121148378Y-134085908D01*
X121091495Y-134034352D01*
X121089275Y-134032239D01*
X120967758Y-133910722D01*
X120965646Y-133908503D01*
X120915909Y-133853627D01*
X120846999Y-133777597D01*
X120844744Y-133774964D01*
X120735714Y-133640324D01*
X120629752Y-133497451D01*
X120627526Y-133494245D01*
X120533177Y-133348961D01*
X120441944Y-133196747D01*
X120439852Y-133192968D01*
X120361131Y-133038470D01*
X120338159Y-132989900D01*
X120285499Y-132878559D01*
X120283659Y-132874260D01*
X120221327Y-132711879D01*
X120162033Y-132546163D01*
X120160512Y-132541290D01*
X120115206Y-132372207D01*
X120072818Y-132202985D01*
X120071707Y-132197538D01*
X120043854Y-132021682D01*
X120018751Y-131852452D01*
X120018162Y-131846574D01*
X120007994Y-131652546D01*
X120000575Y-131501544D01*
X120000500Y-131498458D01*
X120000500Y-124100000D01*
X149186496Y-124100000D01*
X149206457Y-124289927D01*
X149236526Y-124382470D01*
X149265473Y-124471556D01*
X149265476Y-124471561D01*
X149360958Y-124636941D01*
X149360965Y-124636951D01*
X149488744Y-124778864D01*
X149488747Y-124778866D01*
X149643248Y-124891118D01*
X149817712Y-124968794D01*
X150004513Y-125008500D01*
X150195487Y-125008500D01*
X150382288Y-124968794D01*
X150556752Y-124891118D01*
X150711253Y-124778866D01*
X150839040Y-124636944D01*
X150934527Y-124471556D01*
X150993542Y-124289928D01*
X151013504Y-124100000D01*
X150993542Y-123910072D01*
X150934527Y-123728444D01*
X150839040Y-123563056D01*
X150839038Y-123563054D01*
X150839034Y-123563048D01*
X150711255Y-123421135D01*
X150556752Y-123308882D01*
X150382288Y-123231206D01*
X150195487Y-123191500D01*
X150004513Y-123191500D01*
X149817711Y-123231206D01*
X149643247Y-123308882D01*
X149488744Y-123421135D01*
X149360965Y-123563048D01*
X149360958Y-123563058D01*
X149265476Y-123728438D01*
X149265473Y-123728445D01*
X149206457Y-123910072D01*
X149186496Y-124100000D01*
X120000500Y-124100000D01*
X120000500Y-98947014D01*
X121062718Y-98947014D01*
X121072790Y-99158463D01*
X121072792Y-99158476D01*
X121122700Y-99364198D01*
X121122702Y-99364204D01*
X121210644Y-99556771D01*
X121210648Y-99556778D01*
X121333435Y-99729208D01*
X121333439Y-99729213D01*
X121333441Y-99729215D01*
X121427181Y-99818596D01*
X121462679Y-99880080D01*
X121459301Y-99950996D01*
X121418120Y-100008828D01*
X121406379Y-100017026D01*
X121351349Y-100050968D01*
X121351341Y-100050975D01*
X121225975Y-100176341D01*
X121225970Y-100176347D01*
X121132885Y-100327262D01*
X121077113Y-100495572D01*
X121077112Y-100495579D01*
X121066500Y-100599446D01*
X121066500Y-101400544D01*
X121077112Y-101504425D01*
X121132885Y-101672738D01*
X121225970Y-101823652D01*
X121225975Y-101823658D01*
X121351341Y-101949024D01*
X121351347Y-101949029D01*
X121351348Y-101949030D01*
X121502262Y-102042115D01*
X121670574Y-102097887D01*
X121774455Y-102108500D01*
X123125544Y-102108499D01*
X123229426Y-102097887D01*
X123397738Y-102042115D01*
X123548652Y-101949030D01*
X123674030Y-101823652D01*
X123767115Y-101672738D01*
X123822887Y-101504426D01*
X123833500Y-101400545D01*
X123833499Y-100599456D01*
X123822887Y-100495574D01*
X123767115Y-100327262D01*
X123674030Y-100176348D01*
X123674029Y-100176347D01*
X123674024Y-100176341D01*
X123548658Y-100050975D01*
X123548649Y-100050968D01*
X123496650Y-100018895D01*
X123449171Y-99966110D01*
X123437768Y-99896035D01*
X123466060Y-99830919D01*
X123484911Y-99812609D01*
X123493435Y-99805906D01*
X123611889Y-99669202D01*
X123632065Y-99645918D01*
X123737913Y-99462582D01*
X123807153Y-99262527D01*
X123837281Y-99052984D01*
X123834619Y-98997094D01*
X123827209Y-98841536D01*
X123827208Y-98841531D01*
X123827208Y-98841526D01*
X123777298Y-98635796D01*
X123689356Y-98443229D01*
X123689353Y-98443225D01*
X123689351Y-98443221D01*
X123566564Y-98270791D01*
X123566555Y-98270781D01*
X123531618Y-98237469D01*
X123413346Y-98124697D01*
X123413343Y-98124695D01*
X123413340Y-98124692D01*
X123383195Y-98105319D01*
X123336702Y-98051664D01*
X123326599Y-97981389D01*
X123356092Y-97916809D01*
X123373429Y-97900279D01*
X123493431Y-97805909D01*
X123493434Y-97805906D01*
X123590320Y-97694094D01*
X123632065Y-97645918D01*
X123737913Y-97462582D01*
X123807153Y-97262527D01*
X123837281Y-97052984D01*
X123832233Y-96947014D01*
X123827209Y-96841536D01*
X123827208Y-96841531D01*
X123827208Y-96841526D01*
X123777298Y-96635796D01*
X123689356Y-96443229D01*
X123689353Y-96443225D01*
X123689351Y-96443221D01*
X123566564Y-96270791D01*
X123566555Y-96270781D01*
X123531618Y-96237469D01*
X123413346Y-96124697D01*
X123413343Y-96124695D01*
X123413340Y-96124692D01*
X123382750Y-96105033D01*
X123336257Y-96051377D01*
X123326154Y-95981103D01*
X123355647Y-95916523D01*
X123372984Y-95899993D01*
X123493081Y-95805548D01*
X123493091Y-95805539D01*
X123631656Y-95645625D01*
X123631657Y-95645624D01*
X123737454Y-95462377D01*
X123737458Y-95462368D01*
X123806662Y-95262415D01*
X123806664Y-95262409D01*
X123807873Y-95254000D01*
X122725878Y-95254000D01*
X122768278Y-95207941D01*
X122818551Y-95093330D01*
X122828886Y-94968605D01*
X122798163Y-94847281D01*
X122731992Y-94746000D01*
X123803519Y-94746000D01*
X123803519Y-94745999D01*
X123776824Y-94635961D01*
X123776822Y-94635954D01*
X123688922Y-94443484D01*
X123688920Y-94443480D01*
X123566178Y-94271112D01*
X123566177Y-94271111D01*
X123413035Y-94125090D01*
X123413034Y-94125089D01*
X123235024Y-94010691D01*
X123235019Y-94010688D01*
X123038585Y-93932047D01*
X123038579Y-93932046D01*
X122830805Y-93892000D01*
X122704000Y-93892000D01*
X122704000Y-94722496D01*
X122630948Y-94665637D01*
X122512576Y-94625000D01*
X122418927Y-94625000D01*
X122326554Y-94640414D01*
X122216486Y-94699981D01*
X122196000Y-94722234D01*
X122196000Y-93892000D01*
X122122221Y-93892000D01*
X122122199Y-93892001D01*
X121964366Y-93907072D01*
X121964351Y-93907075D01*
X121761322Y-93966689D01*
X121573245Y-94063650D01*
X121406914Y-94194455D01*
X121406908Y-94194460D01*
X121268343Y-94354374D01*
X121268342Y-94354375D01*
X121162545Y-94537622D01*
X121162541Y-94537631D01*
X121093337Y-94737584D01*
X121093335Y-94737590D01*
X121092126Y-94746000D01*
X122174122Y-94746000D01*
X122131722Y-94792059D01*
X122081449Y-94906670D01*
X122071114Y-95031395D01*
X122101837Y-95152719D01*
X122168008Y-95254000D01*
X121096480Y-95254000D01*
X121123175Y-95364038D01*
X121123177Y-95364045D01*
X121211077Y-95556515D01*
X121211079Y-95556519D01*
X121333821Y-95728887D01*
X121333822Y-95728888D01*
X121486961Y-95874907D01*
X121517218Y-95894351D01*
X121563711Y-95948007D01*
X121573816Y-96018280D01*
X121544323Y-96082861D01*
X121526987Y-96099392D01*
X121406565Y-96194093D01*
X121267938Y-96354077D01*
X121267930Y-96354088D01*
X121162089Y-96537412D01*
X121162086Y-96537419D01*
X121092848Y-96737469D01*
X121092845Y-96737480D01*
X121062718Y-96947014D01*
X121072790Y-97158463D01*
X121072792Y-97158476D01*
X121122700Y-97364198D01*
X121122702Y-97364204D01*
X121210644Y-97556771D01*
X121210648Y-97556778D01*
X121333435Y-97729208D01*
X121333439Y-97729213D01*
X121333441Y-97729215D01*
X121486654Y-97875303D01*
X121486656Y-97875304D01*
X121516804Y-97894679D01*
X121563297Y-97948335D01*
X121573401Y-98018609D01*
X121543907Y-98083189D01*
X121526571Y-98099720D01*
X121406564Y-98194094D01*
X121267938Y-98354077D01*
X121267930Y-98354088D01*
X121162089Y-98537412D01*
X121162086Y-98537419D01*
X121092848Y-98737469D01*
X121092845Y-98737480D01*
X121062718Y-98947014D01*
X120000500Y-98947014D01*
X120000500Y-93000008D01*
X129186429Y-93000008D01*
X129206685Y-93270310D01*
X129267001Y-93534568D01*
X129267002Y-93534570D01*
X129366027Y-93786883D01*
X129366030Y-93786891D01*
X129501554Y-94021625D01*
X129501556Y-94021628D01*
X129501557Y-94021629D01*
X129511933Y-94034640D01*
X129670561Y-94233554D01*
X129794587Y-94348632D01*
X129869257Y-94417915D01*
X129869263Y-94417919D01*
X130093205Y-94570601D01*
X130093212Y-94570605D01*
X130093215Y-94570607D01*
X130206163Y-94625000D01*
X130337423Y-94688212D01*
X130337436Y-94688217D01*
X130596431Y-94768106D01*
X130596433Y-94768106D01*
X130596442Y-94768109D01*
X130864472Y-94808508D01*
X130864476Y-94808508D01*
X131135524Y-94808508D01*
X131135528Y-94808508D01*
X131403558Y-94768109D01*
X131486555Y-94742508D01*
X131662563Y-94688217D01*
X131662565Y-94688215D01*
X131662572Y-94688214D01*
X131662577Y-94688211D01*
X131662581Y-94688210D01*
X131906780Y-94570610D01*
X131906780Y-94570609D01*
X131906786Y-94570607D01*
X132130743Y-94417915D01*
X132329442Y-94233550D01*
X132498443Y-94021629D01*
X132633971Y-93786887D01*
X132732999Y-93534567D01*
X132793315Y-93270307D01*
X132813571Y-93000008D01*
X132793315Y-92729709D01*
X132732999Y-92465449D01*
X132633971Y-92213129D01*
X132633970Y-92213128D01*
X132633969Y-92213124D01*
X132538346Y-92047500D01*
X132521608Y-91978505D01*
X132544829Y-91911413D01*
X132600636Y-91867526D01*
X132647465Y-91858500D01*
X132900552Y-91858500D01*
X132969798Y-91851424D01*
X133004425Y-91847887D01*
X133172738Y-91792115D01*
X133323651Y-91699030D01*
X133449030Y-91573651D01*
X133542115Y-91422738D01*
X133597887Y-91254425D01*
X133603651Y-91198009D01*
X133608500Y-91150552D01*
X133608500Y-90196710D01*
X133628502Y-90128589D01*
X133682158Y-90082096D01*
X133752432Y-90071992D01*
X133817012Y-90101486D01*
X133855396Y-90161212D01*
X133860179Y-90187721D01*
X133865718Y-90265171D01*
X133922225Y-90524928D01*
X133922225Y-90524929D01*
X134015130Y-90774020D01*
X134030440Y-90802058D01*
X134142537Y-91007347D01*
X134301852Y-91220167D01*
X134301853Y-91220168D01*
X134304549Y-91223769D01*
X134303434Y-91224603D01*
X134330394Y-91283679D01*
X134320271Y-91353950D01*
X134306541Y-91377085D01*
X134249112Y-91453801D01*
X134249110Y-91453805D01*
X134198011Y-91590803D01*
X134198009Y-91590811D01*
X134191500Y-91651358D01*
X134191500Y-94348657D01*
X134198009Y-94409204D01*
X134198011Y-94409212D01*
X134249110Y-94546210D01*
X134249112Y-94546215D01*
X134336738Y-94663269D01*
X134453792Y-94750895D01*
X134453794Y-94750896D01*
X134453796Y-94750897D01*
X134499913Y-94768098D01*
X134590795Y-94801996D01*
X134590803Y-94801998D01*
X134651350Y-94808507D01*
X134651355Y-94808507D01*
X134651362Y-94808508D01*
X134651368Y-94808508D01*
X137348632Y-94808508D01*
X137348638Y-94808508D01*
X137348645Y-94808507D01*
X137348649Y-94808507D01*
X137409196Y-94801998D01*
X137409199Y-94801997D01*
X137409201Y-94801997D01*
X137409223Y-94801989D01*
X137428045Y-94794968D01*
X137546204Y-94750897D01*
X137546218Y-94750887D01*
X137663261Y-94663269D01*
X137750887Y-94546215D01*
X137750887Y-94546214D01*
X137750889Y-94546212D01*
X137801989Y-94409209D01*
X137801991Y-94409196D01*
X137808499Y-94348657D01*
X137808499Y-94348653D01*
X137808500Y-94348646D01*
X137808500Y-91651370D01*
X137803955Y-91609093D01*
X137801990Y-91590811D01*
X137801988Y-91590803D01*
X137750889Y-91453805D01*
X137750887Y-91453800D01*
X137663261Y-91336746D01*
X137546207Y-91249120D01*
X137546202Y-91249118D01*
X137409204Y-91198019D01*
X137409196Y-91198017D01*
X137373918Y-91194225D01*
X137308326Y-91167056D01*
X137267835Y-91108737D01*
X137265301Y-91037786D01*
X137276800Y-91008561D01*
X137277463Y-91007347D01*
X137404869Y-90774021D01*
X137497772Y-90524937D01*
X137554282Y-90265168D01*
X137573247Y-90000004D01*
X145486807Y-90000004D01*
X145505556Y-90274116D01*
X145505557Y-90274122D01*
X145505558Y-90274130D01*
X145536217Y-90421670D01*
X145561460Y-90543146D01*
X145561462Y-90543153D01*
X145653477Y-90802058D01*
X145759848Y-91007346D01*
X145779892Y-91046028D01*
X145824157Y-91108737D01*
X145938343Y-91270502D01*
X146125889Y-91471314D01*
X146206713Y-91537069D01*
X146246931Y-91595574D01*
X146249135Y-91666537D01*
X146212897Y-91727172D01*
X146170562Y-91766453D01*
X146001554Y-91978382D01*
X145866030Y-92213116D01*
X145866027Y-92213124D01*
X145767002Y-92465437D01*
X145767001Y-92465439D01*
X145706685Y-92729697D01*
X145686429Y-93000000D01*
X145706685Y-93270302D01*
X145767001Y-93534560D01*
X145767002Y-93534562D01*
X145866027Y-93786875D01*
X145866030Y-93786883D01*
X146001554Y-94021617D01*
X146001556Y-94021620D01*
X146001557Y-94021621D01*
X146063627Y-94099455D01*
X146170561Y-94233546D01*
X146317106Y-94369518D01*
X146369257Y-94417907D01*
X146369263Y-94417911D01*
X146593205Y-94570593D01*
X146593212Y-94570597D01*
X146593215Y-94570599D01*
X146706180Y-94625000D01*
X146837423Y-94688204D01*
X146837436Y-94688209D01*
X147096431Y-94768098D01*
X147096433Y-94768098D01*
X147096442Y-94768101D01*
X147364472Y-94808500D01*
X147364476Y-94808500D01*
X147635524Y-94808500D01*
X147635528Y-94808500D01*
X147903558Y-94768101D01*
X147903568Y-94768098D01*
X148162563Y-94688209D01*
X148162565Y-94688207D01*
X148162572Y-94688206D01*
X148162577Y-94688203D01*
X148162581Y-94688202D01*
X148406780Y-94570602D01*
X148406780Y-94570601D01*
X148406786Y-94570599D01*
X148630743Y-94417907D01*
X148829429Y-94233554D01*
X148829438Y-94233546D01*
X148829438Y-94233544D01*
X148829442Y-94233542D01*
X148998443Y-94021621D01*
X149133964Y-93786891D01*
X149133969Y-93786883D01*
X149133971Y-93786879D01*
X149232999Y-93534559D01*
X149293315Y-93270299D01*
X149313571Y-93000000D01*
X162186429Y-93000000D01*
X162206685Y-93270302D01*
X162267001Y-93534560D01*
X162267002Y-93534562D01*
X162366027Y-93786875D01*
X162366030Y-93786883D01*
X162501554Y-94021617D01*
X162501556Y-94021620D01*
X162501557Y-94021621D01*
X162563627Y-94099455D01*
X162670561Y-94233546D01*
X162817106Y-94369518D01*
X162869257Y-94417907D01*
X162869263Y-94417911D01*
X163093205Y-94570593D01*
X163093212Y-94570597D01*
X163093215Y-94570599D01*
X163206180Y-94625000D01*
X163337423Y-94688204D01*
X163337436Y-94688209D01*
X163596431Y-94768098D01*
X163596433Y-94768098D01*
X163596442Y-94768101D01*
X163864472Y-94808500D01*
X163864476Y-94808500D01*
X164135524Y-94808500D01*
X164135528Y-94808500D01*
X164403558Y-94768101D01*
X164403568Y-94768098D01*
X164662563Y-94688209D01*
X164662565Y-94688207D01*
X164662572Y-94688206D01*
X164662577Y-94688203D01*
X164662581Y-94688202D01*
X164906780Y-94570602D01*
X164906780Y-94570601D01*
X164906786Y-94570599D01*
X165130743Y-94417907D01*
X165329429Y-94233554D01*
X165329438Y-94233546D01*
X165329438Y-94233544D01*
X165329442Y-94233542D01*
X165498443Y-94021621D01*
X165633964Y-93786891D01*
X165633969Y-93786883D01*
X165633971Y-93786879D01*
X165732999Y-93534559D01*
X165793315Y-93270299D01*
X165813571Y-93000000D01*
X165793315Y-92729701D01*
X165732999Y-92465441D01*
X165633971Y-92213121D01*
X165633970Y-92213120D01*
X165633969Y-92213116D01*
X165538350Y-92047500D01*
X165521612Y-91978505D01*
X165544832Y-91911413D01*
X165600639Y-91867526D01*
X165647469Y-91858500D01*
X165650552Y-91858500D01*
X165719798Y-91851424D01*
X165754425Y-91847887D01*
X165922738Y-91792115D01*
X166073651Y-91699030D01*
X166199030Y-91573651D01*
X166292115Y-91422738D01*
X166347887Y-91254425D01*
X166353651Y-91198009D01*
X166358500Y-91150552D01*
X166358500Y-90196710D01*
X166378502Y-90128589D01*
X166432158Y-90082096D01*
X166502432Y-90071992D01*
X166567012Y-90101486D01*
X166605396Y-90161212D01*
X166610179Y-90187721D01*
X166615718Y-90265171D01*
X166672225Y-90524928D01*
X166672225Y-90524929D01*
X166765130Y-90774020D01*
X166780440Y-90802058D01*
X166892537Y-91007347D01*
X167051852Y-91220167D01*
X167051853Y-91220168D01*
X167051861Y-91220177D01*
X167201732Y-91370048D01*
X167235758Y-91432360D01*
X167230693Y-91503175D01*
X167198010Y-91590799D01*
X167198009Y-91590803D01*
X167191500Y-91651350D01*
X167191500Y-94348649D01*
X167198009Y-94409196D01*
X167198011Y-94409204D01*
X167249110Y-94546202D01*
X167249112Y-94546207D01*
X167336738Y-94663261D01*
X167453792Y-94750887D01*
X167453794Y-94750888D01*
X167453796Y-94750889D01*
X167499964Y-94768109D01*
X167590795Y-94801988D01*
X167590803Y-94801990D01*
X167651350Y-94808499D01*
X167651355Y-94808499D01*
X167651362Y-94808500D01*
X167651368Y-94808500D01*
X170348632Y-94808500D01*
X170348638Y-94808500D01*
X170348645Y-94808499D01*
X170348649Y-94808499D01*
X170409196Y-94801990D01*
X170409199Y-94801989D01*
X170409201Y-94801989D01*
X170546204Y-94750889D01*
X170552737Y-94745999D01*
X170663261Y-94663261D01*
X170750887Y-94546207D01*
X170750887Y-94546206D01*
X170750889Y-94546204D01*
X170801989Y-94409201D01*
X170807884Y-94354374D01*
X170808499Y-94348649D01*
X170808500Y-94348632D01*
X170808500Y-91651367D01*
X170808499Y-91651358D01*
X170806049Y-91628563D01*
X170801990Y-91590803D01*
X170801988Y-91590795D01*
X170750892Y-91453804D01*
X170750889Y-91453796D01*
X170750888Y-91453794D01*
X170750887Y-91453792D01*
X170663261Y-91336738D01*
X170546207Y-91249112D01*
X170546202Y-91249110D01*
X170409204Y-91198011D01*
X170409196Y-91198009D01*
X170348649Y-91191500D01*
X170348638Y-91191500D01*
X170139270Y-91191500D01*
X170071149Y-91171498D01*
X170024656Y-91117842D01*
X170014552Y-91047568D01*
X170028682Y-91005115D01*
X170094170Y-90885182D01*
X170154869Y-90774021D01*
X170247772Y-90524937D01*
X170304282Y-90265168D01*
X170323247Y-90000000D01*
X170304282Y-89734832D01*
X170263535Y-89547522D01*
X170247774Y-89475071D01*
X170247774Y-89475070D01*
X170247772Y-89475066D01*
X170247772Y-89475063D01*
X170154869Y-89225979D01*
X170027463Y-88992653D01*
X169868148Y-88779833D01*
X169868146Y-88779831D01*
X169868138Y-88779822D01*
X169680177Y-88591861D01*
X169680168Y-88591853D01*
X169660674Y-88577260D01*
X169467347Y-88432537D01*
X169325869Y-88355284D01*
X169234020Y-88305130D01*
X168984929Y-88212225D01*
X168725170Y-88155718D01*
X168725172Y-88155718D01*
X168460000Y-88136753D01*
X168194828Y-88155718D01*
X167935071Y-88212225D01*
X167935070Y-88212225D01*
X167685979Y-88305130D01*
X167452653Y-88432537D01*
X167239831Y-88591853D01*
X167239822Y-88591861D01*
X167051861Y-88779822D01*
X167051853Y-88779831D01*
X166892537Y-88992653D01*
X166765130Y-89225979D01*
X166672225Y-89475070D01*
X166672225Y-89475071D01*
X166615718Y-89734828D01*
X166610179Y-89812278D01*
X166585368Y-89878798D01*
X166528533Y-89921345D01*
X166457717Y-89926410D01*
X166395405Y-89892384D01*
X166361380Y-89830072D01*
X166358500Y-89803289D01*
X166358500Y-88849447D01*
X166347887Y-88745578D01*
X166347887Y-88745575D01*
X166292115Y-88577262D01*
X166199030Y-88426349D01*
X166199029Y-88426348D01*
X166199024Y-88426342D01*
X166073657Y-88300975D01*
X166073651Y-88300970D01*
X165997558Y-88254035D01*
X165922738Y-88207885D01*
X165754425Y-88152113D01*
X165754423Y-88152112D01*
X165754421Y-88152112D01*
X165650552Y-88141500D01*
X165650544Y-88141500D01*
X163349456Y-88141500D01*
X163349448Y-88141500D01*
X163245578Y-88152112D01*
X163077262Y-88207885D01*
X163077260Y-88207886D01*
X162926348Y-88300970D01*
X162926342Y-88300975D01*
X162800975Y-88426342D01*
X162800970Y-88426348D01*
X162707886Y-88577260D01*
X162707885Y-88577262D01*
X162652112Y-88745578D01*
X162641500Y-88849447D01*
X162641500Y-91150552D01*
X162641499Y-91150552D01*
X162652112Y-91254421D01*
X162652112Y-91254423D01*
X162652113Y-91254425D01*
X162707885Y-91422738D01*
X162737849Y-91471317D01*
X162774794Y-91531213D01*
X162793531Y-91599692D01*
X162772272Y-91667431D01*
X162753256Y-91689724D01*
X162670559Y-91766456D01*
X162501554Y-91978382D01*
X162366030Y-92213116D01*
X162366027Y-92213124D01*
X162267002Y-92465437D01*
X162267001Y-92465439D01*
X162206685Y-92729697D01*
X162186429Y-93000000D01*
X149313571Y-93000000D01*
X149293315Y-92729701D01*
X149232999Y-92465441D01*
X149133971Y-92213121D01*
X149133970Y-92213120D01*
X149133969Y-92213116D01*
X148998445Y-91978382D01*
X148976165Y-91950444D01*
X148829442Y-91766458D01*
X148829440Y-91766456D01*
X148829438Y-91766453D01*
X148787103Y-91727173D01*
X148750771Y-91666177D01*
X148753184Y-91595221D01*
X148785336Y-91548597D01*
X150492000Y-91548597D01*
X150498505Y-91609093D01*
X150549555Y-91745964D01*
X150549555Y-91745965D01*
X150637095Y-91862904D01*
X150754034Y-91950444D01*
X150890906Y-92001494D01*
X150951402Y-92007999D01*
X150951415Y-92008000D01*
X152246000Y-92008000D01*
X152246000Y-90863786D01*
X152311849Y-90885182D01*
X152452836Y-90900000D01*
X152547164Y-90900000D01*
X152688151Y-90885182D01*
X152754000Y-90863786D01*
X152754000Y-92008000D01*
X154048585Y-92008000D01*
X154048597Y-92007999D01*
X154109093Y-92001494D01*
X154245964Y-91950444D01*
X154245965Y-91950444D01*
X154362904Y-91862904D01*
X154450444Y-91745965D01*
X154450444Y-91745964D01*
X154501494Y-91609093D01*
X154507999Y-91548597D01*
X154508000Y-91548585D01*
X154508000Y-90254000D01*
X153366117Y-90254000D01*
X153400000Y-90094594D01*
X153400000Y-89905406D01*
X153366117Y-89746000D01*
X154508000Y-89746000D01*
X154508000Y-88451414D01*
X154507999Y-88451402D01*
X154501494Y-88390906D01*
X154450444Y-88254035D01*
X154450444Y-88254034D01*
X154362904Y-88137095D01*
X154245965Y-88049555D01*
X154109093Y-87998505D01*
X154048597Y-87992000D01*
X152754000Y-87992000D01*
X152754000Y-89136213D01*
X152688151Y-89114818D01*
X152547164Y-89100000D01*
X152452836Y-89100000D01*
X152311849Y-89114818D01*
X152246000Y-89136213D01*
X152246000Y-87992000D01*
X150951402Y-87992000D01*
X150890906Y-87998505D01*
X150754035Y-88049555D01*
X150754034Y-88049555D01*
X150637095Y-88137095D01*
X150549555Y-88254034D01*
X150549555Y-88254035D01*
X150498505Y-88390906D01*
X150492000Y-88451402D01*
X150492000Y-89746000D01*
X151633883Y-89746000D01*
X151600000Y-89905406D01*
X151600000Y-90094594D01*
X151633883Y-90254000D01*
X150492000Y-90254000D01*
X150492000Y-91548597D01*
X148785336Y-91548597D01*
X148793285Y-91537070D01*
X148874111Y-91471314D01*
X149061657Y-91270502D01*
X149220111Y-91046023D01*
X149346523Y-90802058D01*
X149438538Y-90543153D01*
X149494442Y-90274130D01*
X149506723Y-90094594D01*
X149513193Y-90000004D01*
X149513193Y-89999995D01*
X149494443Y-89725883D01*
X149494442Y-89725877D01*
X149494442Y-89725870D01*
X149438538Y-89456847D01*
X149346523Y-89197942D01*
X149220111Y-88953977D01*
X149061657Y-88729498D01*
X148874111Y-88528686D01*
X148660969Y-88355282D01*
X148426200Y-88212516D01*
X148426201Y-88212516D01*
X148426197Y-88212514D01*
X148174180Y-88103048D01*
X148174178Y-88103047D01*
X148174177Y-88103047D01*
X147983261Y-88049555D01*
X147909593Y-88028914D01*
X147637395Y-87991500D01*
X147637385Y-87991500D01*
X147362615Y-87991500D01*
X147362604Y-87991500D01*
X147090406Y-88028914D01*
X146825819Y-88103048D01*
X146573802Y-88212514D01*
X146339028Y-88355284D01*
X146125886Y-88528688D01*
X145938343Y-88729498D01*
X145779892Y-88953971D01*
X145653477Y-89197941D01*
X145561462Y-89456845D01*
X145561460Y-89456853D01*
X145542619Y-89547522D01*
X145506705Y-89720353D01*
X145505557Y-89725877D01*
X145505556Y-89725883D01*
X145486807Y-89999995D01*
X145486807Y-90000004D01*
X137573247Y-90000004D01*
X137573247Y-90000000D01*
X137554282Y-89734832D01*
X137513535Y-89547522D01*
X137497774Y-89475071D01*
X137497774Y-89475070D01*
X137497772Y-89475066D01*
X137497772Y-89475063D01*
X137404869Y-89225979D01*
X137277463Y-88992653D01*
X137118148Y-88779833D01*
X137118146Y-88779831D01*
X137118138Y-88779822D01*
X136930177Y-88591861D01*
X136930168Y-88591853D01*
X136910674Y-88577260D01*
X136717347Y-88432537D01*
X136575869Y-88355284D01*
X136484020Y-88305130D01*
X136234929Y-88212225D01*
X135975170Y-88155718D01*
X135975172Y-88155718D01*
X135710000Y-88136753D01*
X135444828Y-88155718D01*
X135185071Y-88212225D01*
X135185070Y-88212225D01*
X134935979Y-88305130D01*
X134702653Y-88432537D01*
X134489831Y-88591853D01*
X134489822Y-88591861D01*
X134301861Y-88779822D01*
X134301853Y-88779831D01*
X134142537Y-88992653D01*
X134015130Y-89225979D01*
X133922225Y-89475070D01*
X133922225Y-89475071D01*
X133865718Y-89734828D01*
X133860179Y-89812278D01*
X133835368Y-89878798D01*
X133778533Y-89921345D01*
X133707717Y-89926410D01*
X133645405Y-89892384D01*
X133611380Y-89830072D01*
X133608500Y-89803289D01*
X133608500Y-88849447D01*
X133597887Y-88745578D01*
X133597887Y-88745575D01*
X133542115Y-88577262D01*
X133449030Y-88426349D01*
X133449029Y-88426348D01*
X133449024Y-88426342D01*
X133323657Y-88300975D01*
X133323651Y-88300970D01*
X133247558Y-88254035D01*
X133172738Y-88207885D01*
X133004425Y-88152113D01*
X133004423Y-88152112D01*
X133004421Y-88152112D01*
X132900552Y-88141500D01*
X132900544Y-88141500D01*
X130599456Y-88141500D01*
X130599448Y-88141500D01*
X130495578Y-88152112D01*
X130327262Y-88207885D01*
X130327260Y-88207886D01*
X130176348Y-88300970D01*
X130176342Y-88300975D01*
X130050975Y-88426342D01*
X130050970Y-88426348D01*
X129957886Y-88577260D01*
X129957885Y-88577262D01*
X129902112Y-88745578D01*
X129891500Y-88849447D01*
X129891500Y-91150552D01*
X129891499Y-91150552D01*
X129902112Y-91254421D01*
X129902112Y-91254423D01*
X129902113Y-91254425D01*
X129954737Y-91413237D01*
X129957177Y-91484191D01*
X129920868Y-91545201D01*
X129906112Y-91556973D01*
X129869260Y-91582098D01*
X129869251Y-91582106D01*
X129670561Y-91766461D01*
X129501554Y-91978390D01*
X129366030Y-92213124D01*
X129366027Y-92213132D01*
X129267002Y-92465445D01*
X129267001Y-92465447D01*
X129206685Y-92729705D01*
X129186429Y-93000008D01*
X120000500Y-93000008D01*
X120000500Y-88501541D01*
X120000576Y-88498449D01*
X120007998Y-88347372D01*
X120018163Y-88153421D01*
X120018750Y-88147551D01*
X120043858Y-87978287D01*
X120071709Y-87802447D01*
X120072816Y-87797023D01*
X120115213Y-87627762D01*
X120160515Y-87458694D01*
X120162028Y-87453850D01*
X120221338Y-87288089D01*
X120283667Y-87125719D01*
X120285490Y-87121459D01*
X120361145Y-86961499D01*
X120439862Y-86807011D01*
X120441929Y-86803276D01*
X120533192Y-86651013D01*
X120627553Y-86505712D01*
X120629730Y-86502578D01*
X120735719Y-86359669D01*
X120844773Y-86224998D01*
X120846968Y-86222437D01*
X120965677Y-86091461D01*
X120967718Y-86089317D01*
X121089317Y-85967718D01*
X121091461Y-85965677D01*
X121222437Y-85846968D01*
X121224998Y-85844773D01*
X121359669Y-85735719D01*
X121502578Y-85629730D01*
X121505712Y-85627553D01*
X121651013Y-85533192D01*
X121803276Y-85441929D01*
X121807011Y-85439862D01*
X121961499Y-85361145D01*
X122121459Y-85285490D01*
X122125719Y-85283667D01*
X122288089Y-85221338D01*
X122453850Y-85162028D01*
X122458694Y-85160515D01*
X122627762Y-85115213D01*
X122797023Y-85072816D01*
X122802447Y-85071709D01*
X122978287Y-85043858D01*
X123147551Y-85018750D01*
X123153421Y-85018163D01*
X123347372Y-85007998D01*
X123498455Y-85000575D01*
X123501542Y-85000500D01*
X176498458Y-85000500D01*
X176501544Y-85000575D01*
G37*
%TD.AperFunction*%
%TA.AperFunction,Conductor*%
G36*
X143938852Y-116230102D02*
G01*
X143964366Y-116251789D01*
X143988747Y-116278866D01*
X144143248Y-116391118D01*
X144275260Y-116449893D01*
X144329356Y-116495873D01*
X144350005Y-116563800D01*
X144330653Y-116632108D01*
X144298075Y-116666934D01*
X144281978Y-116678629D01*
X144154199Y-116820542D01*
X144154192Y-116820552D01*
X144060896Y-116982146D01*
X144058707Y-116985938D01*
X144054917Y-116997602D01*
X143999691Y-117167566D01*
X143980136Y-117353629D01*
X143953123Y-117419286D01*
X143894901Y-117459916D01*
X143828629Y-117463706D01*
X143767633Y-117450741D01*
X143576659Y-117450741D01*
X143389857Y-117490447D01*
X143215393Y-117568123D01*
X143060890Y-117680376D01*
X142933111Y-117822289D01*
X142933104Y-117822299D01*
X142837622Y-117987679D01*
X142837616Y-117987692D01*
X142832175Y-118004438D01*
X142792101Y-118063043D01*
X142726704Y-118090679D01*
X142712343Y-118091500D01*
X142704513Y-118091500D01*
X142517711Y-118131206D01*
X142343247Y-118208882D01*
X142188747Y-118321133D01*
X142174505Y-118336951D01*
X142154436Y-118359241D01*
X142152933Y-118360910D01*
X142092487Y-118398150D01*
X142059296Y-118402600D01*
X140043289Y-118402600D01*
X140035057Y-118402060D01*
X140000001Y-118397445D01*
X140000000Y-118397445D01*
X139960845Y-118402600D01*
X139844046Y-118417977D01*
X139696877Y-118478935D01*
X139626287Y-118486524D01*
X139562800Y-118454744D01*
X139539541Y-118425526D01*
X139538770Y-118424191D01*
X139443287Y-118258809D01*
X139443285Y-118258807D01*
X139443281Y-118258801D01*
X139329764Y-118132728D01*
X139299046Y-118068721D01*
X139297400Y-118048418D01*
X139297400Y-117020661D01*
X139317402Y-116952540D01*
X139371058Y-116906047D01*
X139441332Y-116895943D01*
X139473434Y-116905021D01*
X139496077Y-116914820D01*
X139501384Y-116917419D01*
X139541122Y-116939265D01*
X139559661Y-116944025D01*
X139578358Y-116950426D01*
X139595935Y-116958032D01*
X139640732Y-116965126D01*
X139646517Y-116966325D01*
X139690426Y-116977600D01*
X139709564Y-116977600D01*
X139729274Y-116979150D01*
X139748184Y-116982146D01*
X139779867Y-116979151D01*
X139793317Y-116977880D01*
X139799250Y-116977600D01*
X141670731Y-116977600D01*
X141738852Y-116997602D01*
X141764366Y-117019289D01*
X141788747Y-117046366D01*
X141943248Y-117158618D01*
X142117712Y-117236294D01*
X142304513Y-117276000D01*
X142495487Y-117276000D01*
X142682288Y-117236294D01*
X142856752Y-117158618D01*
X143011253Y-117046366D01*
X143034398Y-117020661D01*
X143139034Y-116904451D01*
X143139035Y-116904449D01*
X143139040Y-116904444D01*
X143234527Y-116739056D01*
X143293542Y-116557428D01*
X143313504Y-116367500D01*
X143311588Y-116349269D01*
X143324361Y-116279431D01*
X143372863Y-116227585D01*
X143436898Y-116210100D01*
X143870731Y-116210100D01*
X143938852Y-116230102D01*
G37*
%TD.AperFunction*%
%TA.AperFunction,Conductor*%
G36*
X133744000Y-101334390D02*
G01*
X133824507Y-101320957D01*
X133824516Y-101320955D01*
X134037369Y-101247883D01*
X134037371Y-101247882D01*
X134235300Y-101140768D01*
X134235301Y-101140767D01*
X134412902Y-101002534D01*
X134565327Y-100836955D01*
X134654217Y-100700899D01*
X134708220Y-100654810D01*
X134778568Y-100645235D01*
X134842925Y-100675212D01*
X134865183Y-100700898D01*
X134954279Y-100837270D01*
X135106762Y-101002908D01*
X135139212Y-101028165D01*
X135284424Y-101141189D01*
X135482426Y-101248342D01*
X135482427Y-101248342D01*
X135482428Y-101248343D01*
X135588086Y-101284615D01*
X135695365Y-101321444D01*
X135917431Y-101358500D01*
X135917435Y-101358500D01*
X136142565Y-101358500D01*
X136142569Y-101358500D01*
X136364635Y-101321444D01*
X136577574Y-101248342D01*
X136775576Y-101141189D01*
X136953240Y-101002906D01*
X137105722Y-100837268D01*
X137105927Y-100836955D01*
X137154626Y-100762415D01*
X137194518Y-100701354D01*
X137248520Y-100655268D01*
X137318868Y-100645692D01*
X137383225Y-100675669D01*
X137405480Y-100701353D01*
X137409785Y-100707941D01*
X137494275Y-100837265D01*
X137494279Y-100837270D01*
X137646762Y-101002908D01*
X137679212Y-101028165D01*
X137824424Y-101141189D01*
X138022426Y-101248342D01*
X138022427Y-101248342D01*
X138022428Y-101248343D01*
X138128086Y-101284615D01*
X138235365Y-101321444D01*
X138457431Y-101358500D01*
X138457435Y-101358500D01*
X138682565Y-101358500D01*
X138682569Y-101358500D01*
X138904635Y-101321444D01*
X138922548Y-101315293D01*
X138993472Y-101312092D01*
X139052558Y-101345370D01*
X139252995Y-101545806D01*
X139287020Y-101608118D01*
X139289900Y-101634902D01*
X139289900Y-111122898D01*
X139269898Y-111191019D01*
X139216242Y-111237512D01*
X139145968Y-111247616D01*
X139081388Y-111218122D01*
X139074805Y-111211993D01*
X138547005Y-110684193D01*
X138512979Y-110621881D01*
X138510100Y-110595098D01*
X138510100Y-105181261D01*
X138511808Y-105165790D01*
X138511473Y-105165759D01*
X138512219Y-105157871D01*
X138510100Y-105090432D01*
X138510100Y-105061622D01*
X138510100Y-105061617D01*
X138509265Y-105055015D01*
X138508801Y-105049119D01*
X138507378Y-105003801D01*
X138502036Y-104985416D01*
X138498028Y-104966063D01*
X138495629Y-104947068D01*
X138478933Y-104904901D01*
X138477017Y-104899301D01*
X138464372Y-104855773D01*
X138454630Y-104839301D01*
X138445929Y-104821541D01*
X138438884Y-104803746D01*
X138438882Y-104803743D01*
X138438881Y-104803741D01*
X138412236Y-104767068D01*
X138408974Y-104762103D01*
X138385905Y-104723094D01*
X138372372Y-104709561D01*
X138359537Y-104694534D01*
X138348279Y-104679038D01*
X138313339Y-104650133D01*
X138308957Y-104646146D01*
X135788868Y-102126056D01*
X135779135Y-102113908D01*
X135778876Y-102114123D01*
X135773828Y-102108020D01*
X135773826Y-102108017D01*
X135724641Y-102061829D01*
X135704269Y-102041456D01*
X135699008Y-102037375D01*
X135694495Y-102033520D01*
X135661460Y-102002498D01*
X135661455Y-102002494D01*
X135644685Y-101993275D01*
X135628157Y-101982418D01*
X135613035Y-101970688D01*
X135613036Y-101970688D01*
X135613034Y-101970687D01*
X135613030Y-101970685D01*
X135613028Y-101970684D01*
X135588260Y-101959966D01*
X135571430Y-101952682D01*
X135566103Y-101950073D01*
X135526379Y-101928235D01*
X135507830Y-101923472D01*
X135489133Y-101917070D01*
X135471564Y-101909467D01*
X135426788Y-101902375D01*
X135420974Y-101901171D01*
X135397152Y-101895055D01*
X135377074Y-101889900D01*
X135377073Y-101889900D01*
X135357936Y-101889900D01*
X135338225Y-101888349D01*
X135319316Y-101885354D01*
X135319315Y-101885354D01*
X135274183Y-101889620D01*
X135268250Y-101889900D01*
X132904902Y-101889900D01*
X132836781Y-101869898D01*
X132815807Y-101852995D01*
X132003053Y-101040241D01*
X131969027Y-100977929D01*
X131974092Y-100907114D01*
X131999446Y-100865810D01*
X132025722Y-100837268D01*
X132114816Y-100700898D01*
X132168819Y-100654810D01*
X132239167Y-100645235D01*
X132303525Y-100675212D01*
X132325782Y-100700898D01*
X132414674Y-100836958D01*
X132567097Y-101002534D01*
X132744698Y-101140767D01*
X132744699Y-101140768D01*
X132942628Y-101247882D01*
X132942630Y-101247883D01*
X133155483Y-101320955D01*
X133155492Y-101320957D01*
X133236000Y-101334391D01*
X133236000Y-100433674D01*
X133347685Y-100484680D01*
X133454237Y-100500000D01*
X133525763Y-100500000D01*
X133632315Y-100484680D01*
X133744000Y-100433674D01*
X133744000Y-101334390D01*
G37*
%TD.AperFunction*%
%TA.AperFunction,Conductor*%
G36*
X164224000Y-101334390D02*
G01*
X164304507Y-101320957D01*
X164304516Y-101320955D01*
X164517369Y-101247883D01*
X164517371Y-101247882D01*
X164715300Y-101140768D01*
X164715301Y-101140767D01*
X164892902Y-101002534D01*
X165045327Y-100836955D01*
X165134217Y-100700899D01*
X165188220Y-100654810D01*
X165258568Y-100645235D01*
X165322925Y-100675212D01*
X165345183Y-100700898D01*
X165434279Y-100837270D01*
X165586762Y-101002908D01*
X165619212Y-101028165D01*
X165764424Y-101141189D01*
X165962426Y-101248342D01*
X165962427Y-101248342D01*
X165962428Y-101248343D01*
X166068086Y-101284615D01*
X166175365Y-101321444D01*
X166397431Y-101358500D01*
X166397435Y-101358500D01*
X166524498Y-101358500D01*
X166592619Y-101378502D01*
X166639112Y-101432158D01*
X166649216Y-101502432D01*
X166619722Y-101567012D01*
X166613593Y-101573595D01*
X159225195Y-108961993D01*
X159162883Y-108996019D01*
X159092068Y-108990954D01*
X159035232Y-108948407D01*
X159010421Y-108881887D01*
X159010100Y-108872898D01*
X159010100Y-103334901D01*
X159030102Y-103266780D01*
X159047005Y-103245806D01*
X159864046Y-102428765D01*
X160947442Y-101345368D01*
X161009752Y-101311345D01*
X161077450Y-101315293D01*
X161095365Y-101321444D01*
X161317431Y-101358500D01*
X161317435Y-101358500D01*
X161542565Y-101358500D01*
X161542569Y-101358500D01*
X161764635Y-101321444D01*
X161977574Y-101248342D01*
X162175576Y-101141189D01*
X162353240Y-101002906D01*
X162505722Y-100837268D01*
X162505927Y-100836955D01*
X162590215Y-100707941D01*
X162594816Y-100700898D01*
X162648819Y-100654810D01*
X162719167Y-100645235D01*
X162783524Y-100675212D01*
X162805782Y-100700898D01*
X162894674Y-100836958D01*
X163047097Y-101002534D01*
X163224698Y-101140767D01*
X163224699Y-101140768D01*
X163422628Y-101247882D01*
X163422630Y-101247883D01*
X163635483Y-101320955D01*
X163635492Y-101320957D01*
X163716000Y-101334391D01*
X163716000Y-100433674D01*
X163827685Y-100484680D01*
X163934237Y-100500000D01*
X164005763Y-100500000D01*
X164112315Y-100484680D01*
X164224000Y-100433674D01*
X164224000Y-101334390D01*
G37*
%TD.AperFunction*%
%TD*%
%TA.AperFunction,Conductor*%
%TO.N,VCC*%
G36*
X125943039Y-106519685D02*
G01*
X125988794Y-106572489D01*
X126000000Y-106624000D01*
X126000000Y-109176000D01*
X125980315Y-109243039D01*
X125927511Y-109288794D01*
X125876000Y-109300000D01*
X121024000Y-109300000D01*
X120956961Y-109280315D01*
X120911206Y-109227511D01*
X120900000Y-109176000D01*
X120900000Y-106624000D01*
X120919685Y-106556961D01*
X120972489Y-106511206D01*
X121024000Y-106500000D01*
X125876000Y-106500000D01*
X125943039Y-106519685D01*
G37*
%TD.AperFunction*%
%TD*%
M02*
