%TF.GenerationSoftware,KiCad,Pcbnew,7.0.8*%
%TF.CreationDate,2024-07-02T17:24:08-04:00*%
%TF.ProjectId,motor-driver,6d6f746f-722d-4647-9269-7665722e6b69,rev?*%
%TF.SameCoordinates,Original*%
%TF.FileFunction,Copper,L1,Top*%
%TF.FilePolarity,Positive*%
%FSLAX46Y46*%
G04 Gerber Fmt 4.6, Leading zero omitted, Abs format (unit mm)*
G04 Created by KiCad (PCBNEW 7.0.8) date 2024-07-02 17:24:08*
%MOMM*%
%LPD*%
G01*
G04 APERTURE LIST*
G04 Aperture macros list*
%AMRoundRect*
0 Rectangle with rounded corners*
0 $1 Rounding radius*
0 $2 $3 $4 $5 $6 $7 $8 $9 X,Y pos of 4 corners*
0 Add a 4 corners polygon primitive as box body*
4,1,4,$2,$3,$4,$5,$6,$7,$8,$9,$2,$3,0*
0 Add four circle primitives for the rounded corners*
1,1,$1+$1,$2,$3*
1,1,$1+$1,$4,$5*
1,1,$1+$1,$6,$7*
1,1,$1+$1,$8,$9*
0 Add four rect primitives between the rounded corners*
20,1,$1+$1,$2,$3,$4,$5,0*
20,1,$1+$1,$4,$5,$6,$7,0*
20,1,$1+$1,$6,$7,$8,$9,0*
20,1,$1+$1,$8,$9,$2,$3,0*%
G04 Aperture macros list end*
%TA.AperFunction,SMDPad,CuDef*%
%ADD10RoundRect,0.140000X-0.170000X0.140000X-0.170000X-0.140000X0.170000X-0.140000X0.170000X0.140000X0*%
%TD*%
%TA.AperFunction,SMDPad,CuDef*%
%ADD11RoundRect,0.140000X-0.140000X-0.170000X0.140000X-0.170000X0.140000X0.170000X-0.140000X0.170000X0*%
%TD*%
%TA.AperFunction,SMDPad,CuDef*%
%ADD12RoundRect,0.097500X0.690000X0.097500X-0.690000X0.097500X-0.690000X-0.097500X0.690000X-0.097500X0*%
%TD*%
%TA.AperFunction,ComponentPad*%
%ADD13C,0.600000*%
%TD*%
%TA.AperFunction,SMDPad,CuDef*%
%ADD14R,3.400000X5.000000*%
%TD*%
%TA.AperFunction,ComponentPad*%
%ADD15RoundRect,0.250000X-0.625000X0.350000X-0.625000X-0.350000X0.625000X-0.350000X0.625000X0.350000X0*%
%TD*%
%TA.AperFunction,ComponentPad*%
%ADD16O,1.750000X1.200000*%
%TD*%
%TA.AperFunction,SMDPad,CuDef*%
%ADD17RoundRect,0.140000X0.170000X-0.140000X0.170000X0.140000X-0.170000X0.140000X-0.170000X-0.140000X0*%
%TD*%
%TA.AperFunction,ComponentPad*%
%ADD18C,0.800000*%
%TD*%
%TA.AperFunction,ComponentPad*%
%ADD19C,6.400000*%
%TD*%
%TA.AperFunction,SMDPad,CuDef*%
%ADD20RoundRect,0.250000X0.250000X0.475000X-0.250000X0.475000X-0.250000X-0.475000X0.250000X-0.475000X0*%
%TD*%
%TA.AperFunction,SMDPad,CuDef*%
%ADD21RoundRect,0.135000X0.185000X-0.135000X0.185000X0.135000X-0.185000X0.135000X-0.185000X-0.135000X0*%
%TD*%
%TA.AperFunction,ComponentPad*%
%ADD22RoundRect,0.250000X-0.350000X-0.625000X0.350000X-0.625000X0.350000X0.625000X-0.350000X0.625000X0*%
%TD*%
%TA.AperFunction,ComponentPad*%
%ADD23O,1.200000X1.750000*%
%TD*%
%TA.AperFunction,SMDPad,CuDef*%
%ADD24RoundRect,0.150000X0.650000X0.150000X-0.650000X0.150000X-0.650000X-0.150000X0.650000X-0.150000X0*%
%TD*%
%TA.AperFunction,SMDPad,CuDef*%
%ADD25R,1.200000X1.400000*%
%TD*%
%TA.AperFunction,SMDPad,CuDef*%
%ADD26RoundRect,0.150000X-0.150000X0.512500X-0.150000X-0.512500X0.150000X-0.512500X0.150000X0.512500X0*%
%TD*%
%TA.AperFunction,SMDPad,CuDef*%
%ADD27R,1.050000X0.650000*%
%TD*%
%TA.AperFunction,SMDPad,CuDef*%
%ADD28RoundRect,0.140000X0.140000X0.170000X-0.140000X0.170000X-0.140000X-0.170000X0.140000X-0.170000X0*%
%TD*%
%TA.AperFunction,SMDPad,CuDef*%
%ADD29RoundRect,0.135000X-0.135000X-0.185000X0.135000X-0.185000X0.135000X0.185000X-0.135000X0.185000X0*%
%TD*%
%TA.AperFunction,ComponentPad*%
%ADD30R,3.000000X3.000000*%
%TD*%
%TA.AperFunction,ComponentPad*%
%ADD31C,3.000000*%
%TD*%
%TA.AperFunction,ComponentPad*%
%ADD32R,1.700000X1.700000*%
%TD*%
%TA.AperFunction,ComponentPad*%
%ADD33O,1.700000X1.700000*%
%TD*%
%TA.AperFunction,SMDPad,CuDef*%
%ADD34RoundRect,0.135000X0.135000X0.185000X-0.135000X0.185000X-0.135000X-0.185000X0.135000X-0.185000X0*%
%TD*%
%TA.AperFunction,SMDPad,CuDef*%
%ADD35RoundRect,0.243750X0.456250X-0.243750X0.456250X0.243750X-0.456250X0.243750X-0.456250X-0.243750X0*%
%TD*%
%TA.AperFunction,ComponentPad*%
%ADD36RoundRect,0.250001X-1.099999X-1.099999X1.099999X-1.099999X1.099999X1.099999X-1.099999X1.099999X0*%
%TD*%
%TA.AperFunction,ComponentPad*%
%ADD37C,2.700000*%
%TD*%
%TA.AperFunction,SMDPad,CuDef*%
%ADD38R,0.400000X1.350000*%
%TD*%
%TA.AperFunction,ComponentPad*%
%ADD39O,0.890000X1.550000*%
%TD*%
%TA.AperFunction,SMDPad,CuDef*%
%ADD40R,1.200000X1.550000*%
%TD*%
%TA.AperFunction,ComponentPad*%
%ADD41O,1.250000X0.950000*%
%TD*%
%TA.AperFunction,SMDPad,CuDef*%
%ADD42R,1.500000X1.550000*%
%TD*%
%TA.AperFunction,ComponentPad*%
%ADD43R,2.600000X2.600000*%
%TD*%
%TA.AperFunction,ComponentPad*%
%ADD44C,2.600000*%
%TD*%
%TA.AperFunction,SMDPad,CuDef*%
%ADD45RoundRect,0.135000X-0.185000X0.135000X-0.185000X-0.135000X0.185000X-0.135000X0.185000X0.135000X0*%
%TD*%
%TA.AperFunction,SMDPad,CuDef*%
%ADD46RoundRect,0.150000X0.150000X-0.512500X0.150000X0.512500X-0.150000X0.512500X-0.150000X-0.512500X0*%
%TD*%
%TA.AperFunction,SMDPad,CuDef*%
%ADD47R,1.100000X1.100000*%
%TD*%
%TA.AperFunction,SMDPad,CuDef*%
%ADD48RoundRect,0.150000X-0.512500X-0.150000X0.512500X-0.150000X0.512500X0.150000X-0.512500X0.150000X0*%
%TD*%
%TA.AperFunction,SMDPad,CuDef*%
%ADD49R,1.100000X3.700000*%
%TD*%
%TA.AperFunction,SMDPad,CuDef*%
%ADD50RoundRect,0.250000X-0.325000X-0.650000X0.325000X-0.650000X0.325000X0.650000X-0.325000X0.650000X0*%
%TD*%
%TA.AperFunction,SMDPad,CuDef*%
%ADD51R,1.600000X0.850000*%
%TD*%
%TA.AperFunction,SMDPad,CuDef*%
%ADD52R,0.900000X1.200000*%
%TD*%
%TA.AperFunction,SMDPad,CuDef*%
%ADD53RoundRect,0.150000X0.150000X-0.825000X0.150000X0.825000X-0.150000X0.825000X-0.150000X-0.825000X0*%
%TD*%
%TA.AperFunction,SMDPad,CuDef*%
%ADD54R,1.200000X0.900000*%
%TD*%
%TA.AperFunction,ComponentPad*%
%ADD55R,1.600000X1.600000*%
%TD*%
%TA.AperFunction,ComponentPad*%
%ADD56C,1.600000*%
%TD*%
%TA.AperFunction,ComponentPad*%
%ADD57RoundRect,0.250000X0.625000X-0.350000X0.625000X0.350000X-0.625000X0.350000X-0.625000X-0.350000X0*%
%TD*%
%TA.AperFunction,SMDPad,CuDef*%
%ADD58RoundRect,0.050000X0.387500X0.050000X-0.387500X0.050000X-0.387500X-0.050000X0.387500X-0.050000X0*%
%TD*%
%TA.AperFunction,SMDPad,CuDef*%
%ADD59RoundRect,0.050000X0.050000X0.387500X-0.050000X0.387500X-0.050000X-0.387500X0.050000X-0.387500X0*%
%TD*%
%TA.AperFunction,SMDPad,CuDef*%
%ADD60RoundRect,0.144000X1.456000X1.456000X-1.456000X1.456000X-1.456000X-1.456000X1.456000X-1.456000X0*%
%TD*%
%TA.AperFunction,ViaPad*%
%ADD61C,0.800000*%
%TD*%
%TA.AperFunction,Conductor*%
%ADD62C,0.203200*%
%TD*%
%TA.AperFunction,Conductor*%
%ADD63C,0.177800*%
%TD*%
%TA.AperFunction,Conductor*%
%ADD64C,0.304800*%
%TD*%
%TA.AperFunction,Conductor*%
%ADD65C,1.524000*%
%TD*%
%TA.AperFunction,Conductor*%
%ADD66C,0.508000*%
%TD*%
%TA.AperFunction,Conductor*%
%ADD67C,0.400000*%
%TD*%
%TA.AperFunction,Conductor*%
%ADD68C,0.800000*%
%TD*%
%TA.AperFunction,Conductor*%
%ADD69C,0.250000*%
%TD*%
G04 APERTURE END LIST*
D10*
%TO.P,C9,1*%
%TO.N,+1V1*%
X150762000Y-124995000D03*
%TO.P,C9,2*%
%TO.N,GND*%
X150762000Y-125955000D03*
%TD*%
D11*
%TO.P,C16,1*%
%TO.N,+3V3*%
X154473000Y-121665000D03*
%TO.P,C16,2*%
%TO.N,GND*%
X155433000Y-121665000D03*
%TD*%
D12*
%TO.P,U1,1,EN_IN1*%
%TO.N,/M1_PWM*%
X133862500Y-110775000D03*
%TO.P,U1,2,PH_IN2*%
%TO.N,/M1_DIR*%
X133862500Y-110125000D03*
%TO.P,U1,3,SLEEP_N*%
%TO.N,/M1_ENABLE*%
X133862500Y-109475000D03*
%TO.P,U1,4,FAULT_N*%
%TO.N,/M1_FLAG*%
X133862500Y-108825000D03*
%TO.P,U1,5,VREF*%
%TO.N,/VREF*%
X133862500Y-108175000D03*
%TO.P,U1,6,IPROPI*%
%TO.N,/M1_SENSE*%
X133862500Y-107525000D03*
%TO.P,U1,7,IMODE*%
%TO.N,GND*%
X133862500Y-106875000D03*
%TO.P,U1,8,OUT1*%
%TO.N,/M1A*%
X133862500Y-106225000D03*
%TO.P,U1,9,PGND*%
%TO.N,GND*%
X128137500Y-106225000D03*
%TO.P,U1,10,OUT2*%
%TO.N,/M1B*%
X128137500Y-106875000D03*
%TO.P,U1,11,VM*%
%TO.N,VCC*%
X128137500Y-107525000D03*
%TO.P,U1,12,VCP*%
%TO.N,Net-(U1-VCP)*%
X128137500Y-108175000D03*
%TO.P,U1,13,CPH*%
%TO.N,Net-(U1-CPH)*%
X128137500Y-108825000D03*
%TO.P,U1,14,CPL*%
%TO.N,Net-(U1-CPL)*%
X128137500Y-109475000D03*
%TO.P,U1,15,GND*%
%TO.N,GND*%
X128137500Y-110125000D03*
%TO.P,U1,16,PMODE*%
X128137500Y-110775000D03*
D13*
%TO.P,U1,17,PAD*%
X132000000Y-110300000D03*
X132000000Y-109100000D03*
X132000000Y-107900000D03*
X132000000Y-106700000D03*
X131000000Y-110300000D03*
X131000000Y-109100000D03*
D14*
X131000000Y-108500000D03*
D13*
X131000000Y-107900000D03*
X131000000Y-106700000D03*
X130000000Y-110300000D03*
X130000000Y-109100000D03*
X130000000Y-107900000D03*
X130000000Y-106700000D03*
%TD*%
D15*
%TO.P,J9,1,Pin_1*%
%TO.N,/ENC2_B*%
X177350000Y-94500000D03*
D16*
%TO.P,J9,2,Pin_2*%
%TO.N,/ENC2_A*%
X177350000Y-96500000D03*
%TO.P,J9,3,Pin_3*%
%TO.N,+3V3*%
X177350000Y-98500000D03*
%TO.P,J9,4,Pin_4*%
%TO.N,GND*%
X177350000Y-100500000D03*
%TD*%
D17*
%TO.P,C15,1*%
%TO.N,+3V3*%
X155400000Y-116780000D03*
%TO.P,C15,2*%
%TO.N,GND*%
X155400000Y-115820000D03*
%TD*%
D18*
%TO.P,REF\u002A\u002A,1*%
%TO.N,GND*%
X174100000Y-131500000D03*
X174802944Y-129802944D03*
X174802944Y-133197056D03*
X176500000Y-129100000D03*
D19*
X176500000Y-131500000D03*
X176500000Y-131500000D03*
D18*
X176500000Y-133900000D03*
X178197056Y-129802944D03*
X178197056Y-133197056D03*
X178900000Y-131500000D03*
%TD*%
D20*
%TO.P,C3,1*%
%TO.N,GND*%
X142441000Y-123951000D03*
%TO.P,C3,2*%
%TO.N,+5V*%
X140541000Y-123951000D03*
%TD*%
D10*
%TO.P,C19,1*%
%TO.N,Net-(U3-BOOST)*%
X143904000Y-114454000D03*
%TO.P,C19,2*%
%TO.N,Net-(D2-K)*%
X143904000Y-115414000D03*
%TD*%
D21*
%TO.P,R8,1*%
%TO.N,Net-(U3-FB)*%
X148730000Y-111634000D03*
%TO.P,R8,2*%
%TO.N,GND*%
X148730000Y-110614000D03*
%TD*%
D12*
%TO.P,U2,1,EN_IN1*%
%TO.N,/M2_PWM*%
X171862500Y-110775000D03*
%TO.P,U2,2,PH_IN2*%
%TO.N,/M2_DIR*%
X171862500Y-110125000D03*
%TO.P,U2,3,SLEEP_N*%
%TO.N,/M2_ENABLE*%
X171862500Y-109475000D03*
%TO.P,U2,4,FAULT_N*%
%TO.N,/M2_FLAG*%
X171862500Y-108825000D03*
%TO.P,U2,5,VREF*%
%TO.N,/VREF*%
X171862500Y-108175000D03*
%TO.P,U2,6,IPROPI*%
%TO.N,/M2_SENSE*%
X171862500Y-107525000D03*
%TO.P,U2,7,IMODE*%
%TO.N,GND*%
X171862500Y-106875000D03*
%TO.P,U2,8,OUT1*%
%TO.N,/M2A*%
X171862500Y-106225000D03*
%TO.P,U2,9,PGND*%
%TO.N,GND*%
X166137500Y-106225000D03*
%TO.P,U2,10,OUT2*%
%TO.N,/M2B*%
X166137500Y-106875000D03*
%TO.P,U2,11,VM*%
%TO.N,VCC*%
X166137500Y-107525000D03*
%TO.P,U2,12,VCP*%
%TO.N,Net-(U2-VCP)*%
X166137500Y-108175000D03*
%TO.P,U2,13,CPH*%
%TO.N,Net-(U2-CPH)*%
X166137500Y-108825000D03*
%TO.P,U2,14,CPL*%
%TO.N,Net-(U2-CPL)*%
X166137500Y-109475000D03*
%TO.P,U2,15,GND*%
%TO.N,GND*%
X166137500Y-110125000D03*
%TO.P,U2,16,PMODE*%
X166137500Y-110775000D03*
D13*
%TO.P,U2,17,PAD*%
X170000000Y-110300000D03*
X170000000Y-109100000D03*
X170000000Y-107900000D03*
X170000000Y-106700000D03*
X169000000Y-110300000D03*
X169000000Y-109100000D03*
D14*
X169000000Y-108500000D03*
D13*
X169000000Y-107900000D03*
X169000000Y-106700000D03*
X168000000Y-110300000D03*
X168000000Y-109100000D03*
X168000000Y-107900000D03*
X168000000Y-106700000D03*
%TD*%
D22*
%TO.P,J6,1,Pin_1*%
%TO.N,/TX_BUFFERED*%
X163500000Y-131500000D03*
D23*
%TO.P,J6,2,Pin_2*%
%TO.N,/RX*%
X165500000Y-131500000D03*
%TO.P,J6,3,Pin_3*%
%TO.N,Net-(J6-Pin_3)*%
X167500000Y-131500000D03*
%TO.P,J6,4,Pin_4*%
%TO.N,GND*%
X169500000Y-131500000D03*
%TD*%
D24*
%TO.P,U6,1,~{CS}*%
%TO.N,/QSPI_SS*%
X161982000Y-128015000D03*
%TO.P,U6,2,DO(IO1)*%
%TO.N,/QSPI_SD1*%
X161982000Y-126745000D03*
%TO.P,U6,3,IO2*%
%TO.N,/QSPI_SD2*%
X161982000Y-125475000D03*
%TO.P,U6,4,GND*%
%TO.N,GND*%
X161982000Y-124205000D03*
%TO.P,U6,5,DI(IO0)*%
%TO.N,/QSPI_SD0*%
X154782000Y-124205000D03*
%TO.P,U6,6,CLK*%
%TO.N,/QSPI_SCLK*%
X154782000Y-125475000D03*
%TO.P,U6,7,IO3*%
%TO.N,/QSPI_SD3*%
X154782000Y-126745000D03*
%TO.P,U6,8,VCC*%
%TO.N,+3V3*%
X154782000Y-128015000D03*
%TD*%
D25*
%TO.P,Y1,1,1*%
%TO.N,Net-(C20-Pad1)*%
X152833000Y-110409000D03*
%TO.P,Y1,2,2*%
%TO.N,GND*%
X152833000Y-112609000D03*
%TO.P,Y1,3,3*%
%TO.N,/XIN*%
X154533000Y-112609000D03*
%TO.P,Y1,4,4*%
%TO.N,GND*%
X154533000Y-110409000D03*
%TD*%
D26*
%TO.P,U4,1,VIN*%
%TO.N,+5V*%
X142450000Y-126662500D03*
%TO.P,U4,2,GND*%
%TO.N,GND*%
X141500000Y-126662500D03*
%TO.P,U4,3,EN*%
%TO.N,+5V*%
X140550000Y-126662500D03*
%TO.P,U4,4,NC*%
%TO.N,unconnected-(U4-NC-Pad4)*%
X140550000Y-128937500D03*
%TO.P,U4,5,VOUT*%
%TO.N,+3V3*%
X142450000Y-128937500D03*
%TD*%
D27*
%TO.P,SW1,1,1*%
%TO.N,GND*%
X157325000Y-109825000D03*
X161475000Y-109825000D03*
%TO.P,SW1,2,2*%
%TO.N,/RUN*%
X157325000Y-111975000D03*
X161475000Y-111975000D03*
%TD*%
D28*
%TO.P,C13,1*%
%TO.N,+3V3*%
X144765000Y-122200000D03*
%TO.P,C13,2*%
%TO.N,GND*%
X143805000Y-122200000D03*
%TD*%
D29*
%TO.P,R2,1*%
%TO.N,/QSPI_SS*%
X158690000Y-129600000D03*
%TO.P,R2,2*%
%TO.N,/~{USB_BOOT}*%
X159710000Y-129600000D03*
%TD*%
D30*
%TO.P,J12,1,Pin_1*%
%TO.N,GND*%
X152500000Y-90000000D03*
D31*
%TO.P,J12,2,Pin_2*%
%TO.N,VBUS*%
X147500000Y-90000000D03*
%TD*%
D17*
%TO.P,C20,1*%
%TO.N,Net-(C20-Pad1)*%
X151143000Y-110461000D03*
%TO.P,C20,2*%
%TO.N,GND*%
X151143000Y-109501000D03*
%TD*%
D18*
%TO.P,REF\u002A\u002A,1*%
%TO.N,GND*%
X174100000Y-88500000D03*
X174802944Y-86802944D03*
X174802944Y-90197056D03*
X176500000Y-86100000D03*
D19*
X176500000Y-88500000D03*
X176500000Y-88500000D03*
D18*
X176500000Y-90900000D03*
X178197056Y-86802944D03*
X178197056Y-90197056D03*
X178900000Y-88500000D03*
%TD*%
D32*
%TO.P,J4,1,Pin_1*%
%TO.N,/M1B*%
X128410000Y-100000000D03*
D33*
%TO.P,J4,2,Pin_2*%
%TO.N,/ENC1_A*%
X130950000Y-100000000D03*
%TO.P,J4,3,Pin_3*%
%TO.N,GND*%
X133490000Y-100000000D03*
%TO.P,J4,4,Pin_4*%
%TO.N,+3V3*%
X136030000Y-100000000D03*
%TO.P,J4,5,Pin_5*%
%TO.N,/ENC1_B*%
X138570000Y-100000000D03*
%TO.P,J4,6,Pin_6*%
%TO.N,/M1A*%
X141110000Y-100000000D03*
%TD*%
D17*
%TO.P,C24,1*%
%TO.N,Net-(U1-CPL)*%
X126100000Y-110530000D03*
%TO.P,C24,2*%
%TO.N,Net-(U1-CPH)*%
X126100000Y-109570000D03*
%TD*%
D34*
%TO.P,R17,1*%
%TO.N,/M2_SENSE*%
X176360000Y-106325000D03*
%TO.P,R17,2*%
%TO.N,GND*%
X175340000Y-106325000D03*
%TD*%
D17*
%TO.P,C21,1*%
%TO.N,/XIN*%
X156000000Y-111819000D03*
%TO.P,C21,2*%
%TO.N,GND*%
X156000000Y-110859000D03*
%TD*%
D10*
%TO.P,C17,1*%
%TO.N,+3V3*%
X149746000Y-124995000D03*
%TO.P,C17,2*%
%TO.N,GND*%
X149746000Y-125955000D03*
%TD*%
D34*
%TO.P,R15,1*%
%TO.N,+3V3*%
X175510000Y-108800000D03*
%TO.P,R15,2*%
%TO.N,/M2_FLAG*%
X174490000Y-108800000D03*
%TD*%
%TO.P,R12,1*%
%TO.N,Net-(D5-A)*%
X159910000Y-104600000D03*
%TO.P,R12,2*%
%TO.N,GND*%
X158890000Y-104600000D03*
%TD*%
D35*
%TO.P,D1,1,K*%
%TO.N,Net-(D1-K)*%
X138400000Y-124937500D03*
%TO.P,D1,2,A*%
%TO.N,+5V*%
X138400000Y-123062500D03*
%TD*%
D28*
%TO.P,C18,1*%
%TO.N,+3V3*%
X153020005Y-128040409D03*
%TO.P,C18,2*%
%TO.N,GND*%
X152060005Y-128040409D03*
%TD*%
D10*
%TO.P,C5,1*%
%TO.N,+1V1*%
X146698000Y-123852000D03*
%TO.P,C5,2*%
%TO.N,GND*%
X146698000Y-124812000D03*
%TD*%
D17*
%TO.P,C10,1*%
%TO.N,+1V1*%
X148857000Y-113636000D03*
%TO.P,C10,2*%
%TO.N,GND*%
X148857000Y-112676000D03*
%TD*%
D28*
%TO.P,C26,1*%
%TO.N,Net-(U2-CPL)*%
X163980000Y-110900000D03*
%TO.P,C26,2*%
%TO.N,Net-(U2-CPH)*%
X163020000Y-110900000D03*
%TD*%
D32*
%TO.P,J5,1,Pin_1*%
%TO.N,/M2B*%
X158890000Y-100000000D03*
D33*
%TO.P,J5,2,Pin_2*%
%TO.N,/ENC2_A*%
X161430000Y-100000000D03*
%TO.P,J5,3,Pin_3*%
%TO.N,GND*%
X163970000Y-100000000D03*
%TO.P,J5,4,Pin_4*%
%TO.N,+3V3*%
X166510000Y-100000000D03*
%TO.P,J5,5,Pin_5*%
%TO.N,/ENC2_B*%
X169050000Y-100000000D03*
%TO.P,J5,6,Pin_6*%
%TO.N,/M2A*%
X171590000Y-100000000D03*
%TD*%
D36*
%TO.P,J11,1,Pin_1*%
%TO.N,/M2B*%
X164500000Y-90000000D03*
D37*
%TO.P,J11,2,Pin_2*%
%TO.N,/M2A*%
X168460000Y-90000000D03*
%TD*%
D34*
%TO.P,R9,1*%
%TO.N,+3V3*%
X137310000Y-108900000D03*
%TO.P,R9,2*%
%TO.N,/M1_FLAG*%
X136290000Y-108900000D03*
%TD*%
D10*
%TO.P,C14,1*%
%TO.N,+3V3*%
X144666000Y-123852000D03*
%TO.P,C14,2*%
%TO.N,GND*%
X144666000Y-124812000D03*
%TD*%
D38*
%TO.P,J14,1,VBUS*%
%TO.N,+5V*%
X148700000Y-130933000D03*
%TO.P,J14,2,D-*%
%TO.N,/USB_D-*%
X149350000Y-130933000D03*
%TO.P,J14,3,D+*%
%TO.N,/USB_D+*%
X150000000Y-130933000D03*
%TO.P,J14,4,ID*%
%TO.N,unconnected-(J14-ID-Pad4)*%
X150650000Y-130933000D03*
%TO.P,J14,5,GND*%
%TO.N,GND*%
X151300000Y-130933000D03*
D39*
%TO.P,J14,6,Shield*%
X146500000Y-133633000D03*
D40*
X147100000Y-133633000D03*
D41*
X147500000Y-130933000D03*
D42*
X149000000Y-133633000D03*
X151000000Y-133633000D03*
D41*
X152500000Y-130933000D03*
D40*
X152900000Y-133633000D03*
D39*
X153500000Y-133633000D03*
%TD*%
D18*
%TO.P,REF\u002A\u002A,1*%
%TO.N,GND*%
X121100000Y-131500000D03*
X121802944Y-129802944D03*
X121802944Y-133197056D03*
X123500000Y-129100000D03*
D19*
X123500000Y-131500000D03*
X123500000Y-131500000D03*
D18*
X123500000Y-133900000D03*
X125197056Y-129802944D03*
X125197056Y-133197056D03*
X125900000Y-131500000D03*
%TD*%
D43*
%TO.P,J3,1,Pin_1*%
%TO.N,GND*%
X152500000Y-93000000D03*
D44*
%TO.P,J3,2,Pin_2*%
%TO.N,VBUS*%
X147500000Y-93000000D03*
%TD*%
D17*
%TO.P,C11,1*%
%TO.N,+3V3*%
X149873000Y-113636000D03*
%TO.P,C11,2*%
%TO.N,GND*%
X149873000Y-112676000D03*
%TD*%
D21*
%TO.P,R6,1*%
%TO.N,/USB_D-*%
X147714000Y-124842000D03*
%TO.P,R6,2*%
%TO.N,Net-(U5-USB_DM)*%
X147714000Y-123822000D03*
%TD*%
D45*
%TO.P,R13,1*%
%TO.N,/VREF*%
X140600000Y-107690000D03*
%TO.P,R13,2*%
%TO.N,GND*%
X140600000Y-108710000D03*
%TD*%
D29*
%TO.P,R3,1*%
%TO.N,+3V3*%
X156490000Y-129600000D03*
%TO.P,R3,2*%
%TO.N,/QSPI_SS*%
X157510000Y-129600000D03*
%TD*%
D46*
%TO.P,U3,1,BOOST*%
%TO.N,Net-(U3-BOOST)*%
X144986000Y-113023500D03*
%TO.P,U3,2,GND*%
%TO.N,GND*%
X145936000Y-113023500D03*
%TO.P,U3,3,FB*%
%TO.N,Net-(U3-FB)*%
X146886000Y-113023500D03*
%TO.P,U3,4,EN*%
%TO.N,VCC*%
X146886000Y-110748500D03*
%TO.P,U3,5,VIN*%
X145936000Y-110748500D03*
%TO.P,U3,6,SW*%
%TO.N,Net-(D2-K)*%
X144986000Y-110748500D03*
%TD*%
D34*
%TO.P,R16,1*%
%TO.N,+3V3*%
X165010000Y-128500000D03*
%TO.P,R16,2*%
%TO.N,/TX_BUFFERED*%
X163990000Y-128500000D03*
%TD*%
D32*
%TO.P,J13,1,Pin_1*%
%TO.N,/~{USB_BOOT}*%
X157475000Y-133400000D03*
%TD*%
D43*
%TO.P,J2,1,Pin_1*%
%TO.N,/M2A*%
X169000000Y-93000000D03*
D44*
%TO.P,J2,2,Pin_2*%
%TO.N,/M2B*%
X164000000Y-93000000D03*
%TD*%
D28*
%TO.P,C12,1*%
%TO.N,+3V3*%
X144080000Y-117500000D03*
%TO.P,C12,2*%
%TO.N,GND*%
X143120000Y-117500000D03*
%TD*%
D10*
%TO.P,C25,1*%
%TO.N,VCC*%
X126100000Y-107570000D03*
%TO.P,C25,2*%
%TO.N,Net-(U1-VCP)*%
X126100000Y-108530000D03*
%TD*%
D29*
%TO.P,R1,1*%
%TO.N,GND*%
X137677000Y-126364000D03*
%TO.P,R1,2*%
%TO.N,Net-(D1-K)*%
X138697000Y-126364000D03*
%TD*%
D47*
%TO.P,D6,1,A1*%
%TO.N,GND*%
X153800000Y-99400000D03*
%TO.P,D6,2,A2*%
%TO.N,VBUS*%
X151000000Y-99400000D03*
%TD*%
D21*
%TO.P,R5,1*%
%TO.N,/USB_D+*%
X148730000Y-124842000D03*
%TO.P,R5,2*%
%TO.N,Net-(U5-USB_DP)*%
X148730000Y-123822000D03*
%TD*%
D29*
%TO.P,R7,1*%
%TO.N,+3V3*%
X158126000Y-113410000D03*
%TO.P,R7,2*%
%TO.N,/RUN*%
X159146000Y-113410000D03*
%TD*%
D36*
%TO.P,J10,1,Pin_1*%
%TO.N,/M1B*%
X131750000Y-90000000D03*
D37*
%TO.P,J10,2,Pin_2*%
%TO.N,/M1A*%
X135710000Y-90000000D03*
%TD*%
D48*
%TO.P,U7,1*%
%TO.N,/TX_CTRL*%
X160462500Y-120050000D03*
%TO.P,U7,2*%
%TO.N,/TX*%
X160462500Y-121000000D03*
%TO.P,U7,3,GND*%
%TO.N,GND*%
X160462500Y-121950000D03*
%TO.P,U7,4*%
%TO.N,/TX_BUFFERED*%
X162737500Y-121950000D03*
%TO.P,U7,5,VCC*%
%TO.N,+3V3*%
X162737500Y-120050000D03*
%TD*%
D49*
%TO.P,L1,1*%
%TO.N,Net-(D2-K)*%
X142610000Y-113918000D03*
%TO.P,L1,2*%
%TO.N,+5V*%
X139610000Y-113918000D03*
%TD*%
D21*
%TO.P,R10,1*%
%TO.N,+3V3*%
X139000000Y-108710000D03*
%TO.P,R10,2*%
%TO.N,/VREF*%
X139000000Y-107690000D03*
%TD*%
D18*
%TO.P,REF\u002A\u002A,1*%
%TO.N,GND*%
X121100000Y-88500000D03*
X121802944Y-86802944D03*
X121802944Y-90197056D03*
X123500000Y-86100000D03*
D19*
X123500000Y-88500000D03*
X123500000Y-88500000D03*
D18*
X123500000Y-90900000D03*
X125197056Y-86802944D03*
X125197056Y-90197056D03*
X125900000Y-88500000D03*
%TD*%
D11*
%TO.P,C7,1*%
%TO.N,VCC*%
X162920000Y-109600000D03*
%TO.P,C7,2*%
%TO.N,Net-(U2-VCP)*%
X163880000Y-109600000D03*
%TD*%
D50*
%TO.P,C4,1*%
%TO.N,GND*%
X145223000Y-108584000D03*
%TO.P,C4,2*%
%TO.N,VCC*%
X148173000Y-108584000D03*
%TD*%
D51*
%TO.P,D3,1,DOUT*%
%TO.N,unconnected-(D3-DOUT-Pad1)*%
X162350000Y-117675000D03*
%TO.P,D3,2,VSS*%
%TO.N,GND*%
X162350000Y-115925000D03*
%TO.P,D3,3,DIN*%
%TO.N,/NEOPIXEL*%
X158850000Y-115925000D03*
%TO.P,D3,4,VDD*%
%TO.N,+3V3*%
X158850000Y-117675000D03*
%TD*%
D52*
%TO.P,D5,1,K*%
%TO.N,VCC*%
X158764000Y-106552000D03*
%TO.P,D5,2,A*%
%TO.N,Net-(D5-A)*%
X162064000Y-106552000D03*
%TD*%
D53*
%TO.P,Q1,1,S*%
%TO.N,VCC*%
X144795000Y-104455000D03*
%TO.P,Q1,2,S*%
X146065000Y-104455000D03*
%TO.P,Q1,3,S*%
X147335000Y-104455000D03*
%TO.P,Q1,4,G*%
%TO.N,Net-(D5-A)*%
X148605000Y-104455000D03*
%TO.P,Q1,5,D*%
%TO.N,VBUS*%
X148605000Y-99505000D03*
%TO.P,Q1,6,D*%
X147335000Y-99505000D03*
%TO.P,Q1,7,D*%
X146065000Y-99505000D03*
%TO.P,Q1,8,D*%
X144795000Y-99505000D03*
%TD*%
D54*
%TO.P,D2,1,K*%
%TO.N,Net-(D2-K)*%
X142888000Y-110742000D03*
%TO.P,D2,2,A*%
%TO.N,GND*%
X142888000Y-107442000D03*
%TD*%
D10*
%TO.P,C6,1*%
%TO.N,+3V3*%
X145682000Y-123852000D03*
%TO.P,C6,2*%
%TO.N,GND*%
X145682000Y-124812000D03*
%TD*%
D20*
%TO.P,C22,1*%
%TO.N,GND*%
X140856000Y-110362000D03*
%TO.P,C22,2*%
%TO.N,+5V*%
X138956000Y-110362000D03*
%TD*%
D43*
%TO.P,J1,1,Pin_1*%
%TO.N,/M1A*%
X136000000Y-93000008D03*
D44*
%TO.P,J1,2,Pin_2*%
%TO.N,/M1B*%
X131000000Y-93000008D03*
%TD*%
D45*
%TO.P,R11,1*%
%TO.N,+5V*%
X149746000Y-110614000D03*
%TO.P,R11,2*%
%TO.N,Net-(U3-FB)*%
X149746000Y-111634000D03*
%TD*%
D34*
%TO.P,R14,1*%
%TO.N,/M1_SENSE*%
X136610000Y-107000000D03*
%TO.P,R14,2*%
%TO.N,GND*%
X135590000Y-107000000D03*
%TD*%
D55*
%TO.P,C1,1*%
%TO.N,VCC*%
X153800000Y-106652651D03*
D56*
%TO.P,C1,2*%
%TO.N,GND*%
X153800000Y-103152651D03*
%TD*%
D21*
%TO.P,R4,1*%
%TO.N,/XOUT*%
X151143000Y-112777000D03*
%TO.P,R4,2*%
%TO.N,Net-(C20-Pad1)*%
X151143000Y-111757000D03*
%TD*%
D22*
%TO.P,J7,1,Pin_1*%
%TO.N,/TX_BUFFERED*%
X130500000Y-131500000D03*
D23*
%TO.P,J7,2,Pin_2*%
%TO.N,/RX*%
X132500000Y-131500000D03*
%TO.P,J7,3,Pin_3*%
%TO.N,Net-(J7-Pin_3)*%
X134500000Y-131500000D03*
%TO.P,J7,4,Pin_4*%
%TO.N,GND*%
X136500000Y-131500000D03*
%TD*%
D20*
%TO.P,C2,1*%
%TO.N,+3V3*%
X142441000Y-131317000D03*
%TO.P,C2,2*%
%TO.N,GND*%
X140541000Y-131317000D03*
%TD*%
D57*
%TO.P,J8,1,Pin_1*%
%TO.N,/ENC1_B*%
X122450000Y-101000000D03*
D16*
%TO.P,J8,2,Pin_2*%
%TO.N,/ENC1_A*%
X122450000Y-99000000D03*
%TO.P,J8,3,Pin_3*%
%TO.N,+3V3*%
X122450000Y-97000000D03*
%TO.P,J8,4,Pin_4*%
%TO.N,GND*%
X122450000Y-95000000D03*
%TD*%
D58*
%TO.P,U5,1,IOVDD*%
%TO.N,+3V3*%
X153183500Y-121344000D03*
%TO.P,U5,2,GPIO0*%
%TO.N,/TX*%
X153183500Y-120944000D03*
%TO.P,U5,3,GPIO1*%
%TO.N,/RX*%
X153183500Y-120544000D03*
%TO.P,U5,4,GPIO2*%
%TO.N,/TX_CTRL*%
X153183500Y-120144000D03*
%TO.P,U5,5,GPIO3*%
%TO.N,/M2_FLAG*%
X153183500Y-119744000D03*
%TO.P,U5,6,GPIO4*%
%TO.N,/NEOPIXEL*%
X153183500Y-119344000D03*
%TO.P,U5,7,GPIO5*%
%TO.N,/M2_DIR*%
X153183500Y-118944000D03*
%TO.P,U5,8,GPIO6*%
%TO.N,/ENC2_B*%
X153183500Y-118544000D03*
%TO.P,U5,9,GPIO7*%
%TO.N,/ENC2_A*%
X153183500Y-118144000D03*
%TO.P,U5,10,IOVDD*%
%TO.N,+3V3*%
X153183500Y-117744000D03*
%TO.P,U5,11,GPIO8*%
%TO.N,unconnected-(U5-GPIO8-Pad11)*%
X153183500Y-117344000D03*
%TO.P,U5,12,GPIO9*%
%TO.N,unconnected-(U5-GPIO9-Pad12)*%
X153183500Y-116944000D03*
%TO.P,U5,13,GPIO10*%
%TO.N,/M2_PWM*%
X153183500Y-116544000D03*
%TO.P,U5,14,GPIO11*%
%TO.N,/M2_ENABLE*%
X153183500Y-116144000D03*
D59*
%TO.P,U5,15,GPIO12*%
%TO.N,/ADDR_0*%
X152346000Y-115306500D03*
%TO.P,U5,16,GPIO13*%
%TO.N,/ADDR_1*%
X151946000Y-115306500D03*
%TO.P,U5,17,GPIO14*%
%TO.N,/ADDR_2*%
X151546000Y-115306500D03*
%TO.P,U5,18,GPIO15*%
%TO.N,unconnected-(U5-GPIO15-Pad18)*%
X151146000Y-115306500D03*
%TO.P,U5,19,TESTEN*%
%TO.N,GND*%
X150746000Y-115306500D03*
%TO.P,U5,20,XIN*%
%TO.N,/XIN*%
X150346000Y-115306500D03*
%TO.P,U5,21,XOUT*%
%TO.N,/XOUT*%
X149946000Y-115306500D03*
%TO.P,U5,22,IOVDD*%
%TO.N,+3V3*%
X149546000Y-115306500D03*
%TO.P,U5,23,DVDD*%
%TO.N,+1V1*%
X149146000Y-115306500D03*
%TO.P,U5,24,SWCLK*%
%TO.N,unconnected-(U5-SWCLK-Pad24)*%
X148746000Y-115306500D03*
%TO.P,U5,25,SWD*%
%TO.N,unconnected-(U5-SWD-Pad25)*%
X148346000Y-115306500D03*
%TO.P,U5,26,RUN*%
%TO.N,/RUN*%
X147946000Y-115306500D03*
%TO.P,U5,27,GPIO16*%
%TO.N,unconnected-(U5-GPIO16-Pad27)*%
X147546000Y-115306500D03*
%TO.P,U5,28,GPIO17*%
%TO.N,unconnected-(U5-GPIO17-Pad28)*%
X147146000Y-115306500D03*
D58*
%TO.P,U5,29,GPIO18*%
%TO.N,/ENC1_B*%
X146308500Y-116144000D03*
%TO.P,U5,30,GPIO19*%
%TO.N,/ENC1_A*%
X146308500Y-116544000D03*
%TO.P,U5,31,GPIO20*%
%TO.N,/M1_FLAG*%
X146308500Y-116944000D03*
%TO.P,U5,32,GPIO21*%
%TO.N,unconnected-(U5-GPIO21-Pad32)*%
X146308500Y-117344000D03*
%TO.P,U5,33,IOVDD*%
%TO.N,+3V3*%
X146308500Y-117744000D03*
%TO.P,U5,34,GPIO22*%
%TO.N,Net-(JP4-B)*%
X146308500Y-118144000D03*
%TO.P,U5,35,GPIO23*%
%TO.N,Net-(JP3-B)*%
X146308500Y-118544000D03*
%TO.P,U5,36,GPIO24*%
%TO.N,/M1_ENABLE*%
X146308500Y-118944000D03*
%TO.P,U5,37,GPIO25*%
%TO.N,/M1_DIR*%
X146308500Y-119344000D03*
%TO.P,U5,38,GPIO26_ADC0*%
%TO.N,/M1_PWM*%
X146308500Y-119744000D03*
%TO.P,U5,39,GPIO27_ADC1*%
%TO.N,/M1_SENSE*%
X146308500Y-120144000D03*
%TO.P,U5,40,GPIO28_ADC2*%
%TO.N,/M2_SENSE*%
X146308500Y-120544000D03*
%TO.P,U5,41,GPIO29_ADC3*%
%TO.N,unconnected-(U5-GPIO29_ADC3-Pad41)*%
X146308500Y-120944000D03*
%TO.P,U5,42,IOVDD*%
%TO.N,+3V3*%
X146308500Y-121344000D03*
D59*
%TO.P,U5,43,ADC_AVDD*%
X147146000Y-122181500D03*
%TO.P,U5,44,VREG_IN*%
X147546000Y-122181500D03*
%TO.P,U5,45,VREG_VOUT*%
%TO.N,+1V1*%
X147946000Y-122181500D03*
%TO.P,U5,46,USB_DM*%
%TO.N,Net-(U5-USB_DM)*%
X148346000Y-122181500D03*
%TO.P,U5,47,USB_DP*%
%TO.N,Net-(U5-USB_DP)*%
X148746000Y-122181500D03*
%TO.P,U5,48,USB_VDD*%
%TO.N,+3V3*%
X149146000Y-122181500D03*
%TO.P,U5,49,IOVDD*%
X149546000Y-122181500D03*
%TO.P,U5,50,DVDD*%
%TO.N,+1V1*%
X149946000Y-122181500D03*
%TO.P,U5,51,QSPI_SD3*%
%TO.N,/QSPI_SD3*%
X150346000Y-122181500D03*
%TO.P,U5,52,QSPI_SCLK*%
%TO.N,/QSPI_SCLK*%
X150746000Y-122181500D03*
%TO.P,U5,53,QSPI_SD0*%
%TO.N,/QSPI_SD0*%
X151146000Y-122181500D03*
%TO.P,U5,54,QSPI_SD2*%
%TO.N,/QSPI_SD2*%
X151546000Y-122181500D03*
%TO.P,U5,55,QSPI_SD1*%
%TO.N,/QSPI_SD1*%
X151946000Y-122181500D03*
%TO.P,U5,56,QSPI_SS*%
%TO.N,/QSPI_SS*%
X152346000Y-122181500D03*
D13*
%TO.P,U5,57,GND*%
%TO.N,GND*%
X151021000Y-120019000D03*
X151021000Y-118744000D03*
X151021000Y-117469000D03*
X149746000Y-120019000D03*
X149746000Y-118744000D03*
D60*
X149746000Y-118744000D03*
D13*
X149746000Y-117469000D03*
X148471000Y-120019000D03*
X148471000Y-118744000D03*
X148471000Y-117469000D03*
%TD*%
D61*
%TO.N,GND*%
X129680000Y-124840000D03*
X134760000Y-119760000D03*
X127140000Y-117220000D03*
X172860000Y-122300000D03*
X124600000Y-114680000D03*
X129680000Y-114680000D03*
X124600000Y-119760000D03*
X127140000Y-124840000D03*
X167780000Y-117220000D03*
X141831300Y-117700000D03*
X134760000Y-124840000D03*
X175400000Y-117220000D03*
X175400000Y-119760000D03*
X141500000Y-128000000D03*
X172860000Y-114680000D03*
X143805000Y-124487000D03*
X132220000Y-114680000D03*
X132220000Y-122300000D03*
X170320000Y-122300000D03*
X167780000Y-119760000D03*
X172860000Y-119760000D03*
X160287000Y-123951000D03*
X170320000Y-114680000D03*
X157100000Y-115666200D03*
X165240000Y-119760000D03*
X167780000Y-122300000D03*
X127140000Y-119760000D03*
X165240000Y-122300000D03*
X167780000Y-114680000D03*
X175400000Y-114680000D03*
X170320000Y-119760000D03*
X124600000Y-122300000D03*
X124600000Y-117220000D03*
X124600000Y-124840000D03*
X156223000Y-121622700D03*
X172860000Y-117220000D03*
X170320000Y-117220000D03*
X127140000Y-122300000D03*
X156000000Y-109850000D03*
X165240000Y-117220000D03*
X127140000Y-114680000D03*
X132220000Y-124840000D03*
X175400000Y-122300000D03*
X144800000Y-115000000D03*
X129680000Y-117220000D03*
X165240000Y-114680000D03*
X170320000Y-124840000D03*
X167780000Y-124840000D03*
X132220000Y-119760000D03*
X134760000Y-114680000D03*
X134760000Y-122300000D03*
X129680000Y-119760000D03*
X142253000Y-108965000D03*
X175400000Y-124840000D03*
X129680000Y-122300000D03*
X132220000Y-117220000D03*
X134760000Y-117220000D03*
X172860000Y-124840000D03*
%TO.N,VCC*%
X146952000Y-106480000D03*
X147968000Y-106480000D03*
X144666000Y-106480000D03*
X124500000Y-108250000D03*
X122900000Y-107550000D03*
X122400000Y-108250000D03*
X124000000Y-107550000D03*
X123400000Y-108250000D03*
X121800000Y-107550000D03*
X163600000Y-108400000D03*
X145682000Y-106480000D03*
X162600000Y-108400000D03*
%TO.N,+3V3*%
X162200000Y-120800000D03*
X146063000Y-122554000D03*
X144893234Y-117357494D03*
X153900000Y-121800000D03*
X178000000Y-108850000D03*
X157112000Y-113410000D03*
X149400000Y-121200000D03*
X149873000Y-116458000D03*
X157112000Y-128015000D03*
X156400000Y-116400000D03*
X138000000Y-109000000D03*
X145300000Y-123000000D03*
X142441000Y-129920000D03*
X165000000Y-126200000D03*
%TO.N,/M2_DIR*%
X175100000Y-109900000D03*
X157403427Y-118605405D03*
%TO.N,/M2_PWM*%
X174400000Y-111100000D03*
X161800000Y-114200000D03*
%TO.N,/ENC1_A*%
X142400000Y-116367500D03*
%TO.N,/ENC1_B*%
X145987253Y-114985253D03*
%TO.N,/ENC2_B*%
X156200000Y-118277800D03*
%TO.N,/ENC2_A*%
X155100000Y-117800000D03*
%TO.N,/M2_FLAG*%
X177100000Y-107800000D03*
X158714880Y-119214880D03*
%TO.N,+1V1*%
X150100000Y-124100000D03*
X147600000Y-120900000D03*
%TO.N,/RUN*%
X155900000Y-113400000D03*
X147950000Y-114200000D03*
%TO.N,/M2_ENABLE*%
X173300000Y-109503900D03*
X160708943Y-114208943D03*
%TO.N,/M1_SENSE*%
X137200000Y-107400000D03*
X138704247Y-118795753D03*
%TO.N,+5V*%
X141364000Y-125221000D03*
X149746000Y-109700000D03*
X141000000Y-115300000D03*
%TO.N,/VREF*%
X142350000Y-104050000D03*
X178350000Y-105350000D03*
%TO.N,/M2_SENSE*%
X145271788Y-121012617D03*
X151300000Y-105401100D03*
X177300000Y-106300000D03*
%TO.N,/RX*%
X157600000Y-120909200D03*
%TO.N,Net-(JP3-B)*%
X142800000Y-119000000D03*
%TO.N,Net-(JP4-B)*%
X143672146Y-118359241D03*
%TD*%
D62*
%TO.N,GND*%
X141998000Y-108710000D02*
X142253000Y-108965000D01*
D63*
X152060005Y-128932005D02*
X152500000Y-129372000D01*
D62*
X147206000Y-111886000D02*
X146190000Y-111886000D01*
X151344000Y-109300000D02*
X154150000Y-109300000D01*
D64*
X171862500Y-106875000D02*
X170175000Y-106875000D01*
X151021000Y-117469000D02*
X150762000Y-117210000D01*
D63*
X144130000Y-124812000D02*
X143805000Y-124487000D01*
D64*
X150762000Y-117210000D02*
X150762000Y-115950000D01*
X129325000Y-106225000D02*
X129800000Y-106700000D01*
D62*
X149972000Y-112676000D02*
X150508000Y-112140000D01*
D63*
X143777000Y-123951000D02*
X143805000Y-123979000D01*
D65*
X152500000Y-89999988D02*
X152500000Y-93000008D01*
D62*
X154150000Y-109300000D02*
X154533000Y-109683000D01*
D63*
X156000000Y-109825000D02*
X156000000Y-109850000D01*
X157325000Y-109825000D02*
X156000000Y-109825000D01*
D62*
X142031300Y-117500000D02*
X143120000Y-117500000D01*
D63*
X156223000Y-121622700D02*
X156550300Y-121950000D01*
D62*
X150508000Y-112140000D02*
X150508000Y-110136000D01*
D63*
X156000000Y-109850000D02*
X156000000Y-110859000D01*
X143805000Y-122200000D02*
X143805000Y-123979000D01*
D62*
X148730000Y-110614000D02*
X148478000Y-110614000D01*
D63*
X157325000Y-109825000D02*
X161475000Y-109825000D01*
X152750000Y-133184000D02*
X151237500Y-133184000D01*
D62*
X144854000Y-115000000D02*
X145936000Y-113918000D01*
X144800000Y-115000000D02*
X144854000Y-115000000D01*
D63*
X145682000Y-124812000D02*
X144666000Y-124812000D01*
D62*
X158890000Y-104600000D02*
X158300000Y-104600000D01*
D63*
X142441000Y-123951000D02*
X143777000Y-123951000D01*
D64*
X140856000Y-110362000D02*
X142253000Y-108965000D01*
D62*
X141831300Y-117700000D02*
X142031300Y-117500000D01*
D63*
X147300000Y-133184000D02*
X148812500Y-133184000D01*
D66*
X141500000Y-126662500D02*
X141500000Y-128000000D01*
D62*
X148478000Y-110614000D02*
X147206000Y-111886000D01*
X148857000Y-112676000D02*
X149873000Y-112676000D01*
D63*
X160541000Y-124205000D02*
X160287000Y-123951000D01*
D62*
X150508000Y-110136000D02*
X151143000Y-109501000D01*
D63*
X155117000Y-109825000D02*
X154533000Y-110409000D01*
X155306000Y-121665000D02*
X156180700Y-121665000D01*
X152500000Y-129372000D02*
X152500000Y-130933000D01*
X137677000Y-126364000D02*
X136284000Y-126364000D01*
D66*
X152500000Y-97100000D02*
X152500000Y-93000000D01*
D63*
X150988000Y-125955000D02*
X152060005Y-127027005D01*
D62*
X134760000Y-119760000D02*
X134820000Y-119700000D01*
D64*
X142888000Y-108584000D02*
X145223000Y-108584000D01*
D62*
X157100000Y-115666200D02*
X155553800Y-115666200D01*
D63*
X143805000Y-123979000D02*
X143805000Y-124487000D01*
X156180700Y-121665000D02*
X156223000Y-121622700D01*
D62*
X145936000Y-112140000D02*
X145936000Y-113023500D01*
D64*
X142888000Y-107442000D02*
X142888000Y-108584000D01*
D62*
X145936000Y-113918000D02*
X145936000Y-113023500D01*
D63*
X150762000Y-125955000D02*
X150988000Y-125955000D01*
D66*
X153800000Y-99400000D02*
X153800000Y-98400000D01*
D62*
X158300000Y-104600000D02*
X156852651Y-103152651D01*
X151143000Y-109501000D02*
X151344000Y-109300000D01*
X156852651Y-103152651D02*
X153800000Y-103152651D01*
D64*
X166137500Y-106225000D02*
X167525000Y-106225000D01*
D63*
X156550300Y-121950000D02*
X160462500Y-121950000D01*
X152500000Y-130933000D02*
X151300000Y-130933000D01*
D62*
X154533000Y-109683000D02*
X154533000Y-110409000D01*
X135175000Y-106875000D02*
X133862500Y-106875000D01*
D64*
X133862500Y-106875000D02*
X132075000Y-106875000D01*
D62*
X146190000Y-111886000D02*
X145936000Y-112140000D01*
D66*
X153800000Y-98400000D02*
X152500000Y-97100000D01*
D63*
X156000000Y-109825000D02*
X155117000Y-109825000D01*
D64*
X128137500Y-106225000D02*
X129325000Y-106225000D01*
D62*
X135300000Y-107000000D02*
X135175000Y-106875000D01*
D63*
X146698000Y-124812000D02*
X145682000Y-124812000D01*
D62*
X175340000Y-106325000D02*
X174865000Y-106800000D01*
X150744880Y-115932880D02*
X150744880Y-115306500D01*
X140600000Y-108710000D02*
X141998000Y-108710000D01*
D63*
X144666000Y-124812000D02*
X144130000Y-124812000D01*
X152060005Y-127027005D02*
X152060005Y-128040409D01*
X152060005Y-128040409D02*
X152060005Y-128932005D01*
D64*
X142253000Y-108965000D02*
X142634000Y-108584000D01*
D62*
X174865000Y-106800000D02*
X171937500Y-106800000D01*
X150762000Y-115950000D02*
X150744880Y-115932880D01*
D64*
X142634000Y-108584000D02*
X142888000Y-108584000D01*
D63*
X161982000Y-124205000D02*
X160541000Y-124205000D01*
X154533000Y-110528000D02*
X152833000Y-112228000D01*
D62*
X135590000Y-107000000D02*
X135300000Y-107000000D01*
D63*
X149746000Y-125955000D02*
X150762000Y-125955000D01*
D62*
%TO.N,VCC*%
X162900000Y-109600000D02*
X162600000Y-109300000D01*
X163420000Y-108580000D02*
X163600000Y-108400000D01*
X162600000Y-109300000D02*
X162600000Y-108400000D01*
D67*
X128137500Y-107525000D02*
X126145000Y-107525000D01*
D64*
X164475000Y-107525000D02*
X163600000Y-108400000D01*
X166137500Y-107525000D02*
X164475000Y-107525000D01*
D63*
%TO.N,+3V3*%
X149365000Y-124332000D02*
X149365000Y-122902750D01*
D62*
X156490000Y-129600000D02*
X156490000Y-128105000D01*
D63*
X158126000Y-113410000D02*
X157112000Y-113410000D01*
X153183500Y-121344000D02*
X153183500Y-121546500D01*
X149365000Y-122902750D02*
X149332750Y-122902750D01*
X153183500Y-117744000D02*
X154203000Y-117744000D01*
X153900000Y-121800000D02*
X154035000Y-121665000D01*
X149546000Y-121346000D02*
X149400000Y-121200000D01*
D62*
X144893234Y-117357494D02*
X144750728Y-117500000D01*
D63*
X153765000Y-121665000D02*
X153900000Y-121800000D01*
X154035000Y-121665000D02*
X154549200Y-121665000D01*
D62*
X165010000Y-126210000D02*
X165000000Y-126200000D01*
D63*
X149746000Y-124995000D02*
X149746000Y-124713000D01*
D62*
X138000000Y-109000000D02*
X137410000Y-109000000D01*
D63*
X153183500Y-121546500D02*
X153302000Y-121665000D01*
X149546000Y-115791202D02*
X149873000Y-116118202D01*
X149146000Y-121454000D02*
X149400000Y-121200000D01*
X149546000Y-115306500D02*
X149546000Y-114372000D01*
D62*
X162737500Y-120262500D02*
X162200000Y-120800000D01*
D63*
X149546000Y-115306500D02*
X149546000Y-115791202D01*
D62*
X156400000Y-116400000D02*
X156400000Y-116780000D01*
D63*
X149146000Y-122181500D02*
X149146000Y-121454000D01*
X153302000Y-121665000D02*
X153765000Y-121665000D01*
X157112000Y-128015000D02*
X156400000Y-128015000D01*
D62*
X162737500Y-120050000D02*
X162737500Y-120262500D01*
D63*
X149546000Y-114372000D02*
X149873000Y-114045000D01*
D62*
X138710000Y-109000000D02*
X138000000Y-109000000D01*
X156490000Y-128105000D02*
X156400000Y-128015000D01*
D63*
X149546000Y-122721750D02*
X149546000Y-122181500D01*
X149546000Y-122181500D02*
X149546000Y-121346000D01*
D66*
X142441000Y-129920000D02*
X142441000Y-131317000D01*
D63*
X144893234Y-117357494D02*
X145279740Y-117744000D01*
X145279740Y-117744000D02*
X146308500Y-117744000D01*
X149873000Y-116118202D02*
X149873000Y-116458000D01*
X149146000Y-122716000D02*
X149146000Y-122181500D01*
X153020005Y-128040409D02*
X154756591Y-128040409D01*
D62*
X139000000Y-108710000D02*
X138710000Y-109000000D01*
D63*
X157775000Y-117675000D02*
X158850000Y-117675000D01*
D62*
X165010000Y-128500000D02*
X165010000Y-126210000D01*
D63*
X155167000Y-116780000D02*
X156400000Y-116780000D01*
D64*
X142450000Y-129911000D02*
X142441000Y-129920000D01*
D63*
X156880000Y-116780000D02*
X157775000Y-117675000D01*
X149873000Y-114045000D02*
X149873000Y-113636000D01*
D62*
X178000000Y-108850000D02*
X177950000Y-108800000D01*
D63*
X156400000Y-116780000D02*
X156880000Y-116780000D01*
X149365000Y-122902750D02*
X149546000Y-122721750D01*
D62*
X144750728Y-117500000D02*
X144080000Y-117500000D01*
D63*
X149400000Y-121200000D02*
X149546000Y-121157000D01*
X149746000Y-124713000D02*
X149365000Y-124332000D01*
D64*
X142450000Y-128937500D02*
X142450000Y-129911000D01*
D63*
X156400000Y-128015000D02*
X154782000Y-128015000D01*
X154203000Y-117744000D02*
X155167000Y-116780000D01*
D62*
X177950000Y-108800000D02*
X175510000Y-108800000D01*
D63*
X149332750Y-122902750D02*
X149146000Y-122716000D01*
D65*
%TO.N,/M1A*%
X135710000Y-90000000D02*
X135710000Y-92710000D01*
D67*
%TO.N,/M1B*%
X128137500Y-106875000D02*
X126975000Y-106875000D01*
X126975000Y-106875000D02*
X126300000Y-106200000D01*
D65*
X131750000Y-92250000D02*
X131000000Y-93000000D01*
X131750000Y-90000000D02*
X131750000Y-92250000D01*
D64*
%TO.N,/M2A*%
X173675000Y-106225000D02*
X173700000Y-106200000D01*
D65*
X169000000Y-93000000D02*
X169000000Y-90119000D01*
D64*
X171862500Y-106225000D02*
X173675000Y-106225000D01*
D67*
%TO.N,/M2B*%
X165075000Y-106875000D02*
X166137500Y-106875000D01*
D65*
X164500000Y-90000000D02*
X164500000Y-92500000D01*
D68*
X164800000Y-106600000D02*
X164500000Y-106300000D01*
D65*
X164500000Y-92500000D02*
X164000000Y-93000000D01*
D68*
X164500000Y-106300000D02*
X164500000Y-105500000D01*
D67*
X164800000Y-106600000D02*
X165075000Y-106875000D01*
D62*
%TO.N,/M1_DIR*%
X137100000Y-111350000D02*
X137100000Y-115661184D01*
D63*
X146308500Y-119344000D02*
X144930225Y-119344000D01*
D62*
X133862500Y-110125000D02*
X135875000Y-110125000D01*
X141582816Y-120144000D02*
X144100000Y-120144000D01*
X137100000Y-115661184D02*
X141582816Y-120144000D01*
X135875000Y-110125000D02*
X137100000Y-111350000D01*
D63*
X144930225Y-119344000D02*
X144130225Y-120144000D01*
X144130225Y-120144000D02*
X144100000Y-120144000D01*
D62*
%TO.N,/M1_PWM*%
X136700000Y-111500000D02*
X136700000Y-115800000D01*
X133862500Y-110775000D02*
X135975000Y-110775000D01*
X136700000Y-115800000D02*
X141444000Y-120544000D01*
D63*
X144233119Y-120544000D02*
X143501000Y-120544000D01*
D62*
X141444000Y-120544000D02*
X143501000Y-120544000D01*
D63*
X146308500Y-119744000D02*
X145033119Y-119744000D01*
D62*
X135975000Y-110775000D02*
X136700000Y-111500000D01*
D63*
X145033119Y-119744000D02*
X144233119Y-120544000D01*
D62*
%TO.N,/M2_DIR*%
X171920800Y-110183300D02*
X174816700Y-110183300D01*
X174816700Y-110183300D02*
X175100000Y-109900000D01*
D63*
X157064832Y-118944000D02*
X153183500Y-118944000D01*
X157403427Y-118605405D02*
X157064832Y-118944000D01*
D62*
%TO.N,/M2_PWM*%
X171862500Y-110775000D02*
X174075000Y-110775000D01*
D63*
X161800000Y-114200000D02*
X161000000Y-115000000D01*
X161000000Y-115000000D02*
X155300000Y-115000000D01*
X155300000Y-115000000D02*
X153756000Y-116544000D01*
X153756000Y-116544000D02*
X153183500Y-116544000D01*
D62*
X174075000Y-110775000D02*
X174400000Y-111100000D01*
D63*
%TO.N,/XIN*%
X154318000Y-113664000D02*
X154533000Y-113449000D01*
X154533000Y-112609000D02*
X155210000Y-112609000D01*
X150346000Y-114715000D02*
X151397000Y-113664000D01*
X155210000Y-112609000D02*
X156000000Y-111819000D01*
X154533000Y-113449000D02*
X154533000Y-112609000D01*
X151397000Y-113664000D02*
X154318000Y-113664000D01*
X150346000Y-115306500D02*
X150346000Y-114715000D01*
%TO.N,/ENC1_A*%
X145435694Y-116335694D02*
X145644000Y-116544000D01*
X142400000Y-116367500D02*
X142431806Y-116335694D01*
X145644000Y-116544000D02*
X146308500Y-116544000D01*
X142431806Y-116335694D02*
X145435694Y-116335694D01*
%TO.N,/ENC1_B*%
X146308500Y-115306500D02*
X145987253Y-114985253D01*
X146308500Y-116144000D02*
X146308500Y-115306500D01*
%TO.N,/ENC2_B*%
X156200000Y-118277800D02*
X155933800Y-118544000D01*
X155933800Y-118544000D02*
X153183500Y-118544000D01*
%TO.N,/ENC2_A*%
X155100000Y-117800000D02*
X154756000Y-118144000D01*
X154756000Y-118144000D02*
X153183500Y-118144000D01*
%TO.N,/M1_FLAG*%
X141389643Y-116300000D02*
X140288000Y-116300000D01*
X143019063Y-116691294D02*
X142676157Y-117034200D01*
D62*
X138100000Y-110710000D02*
X138100000Y-115203132D01*
X138100000Y-115203132D02*
X139196868Y-116300000D01*
X136215000Y-108825000D02*
X138100000Y-110710000D01*
D63*
X145541106Y-116944000D02*
X145288400Y-116691294D01*
X142676157Y-117034200D02*
X142123843Y-117034200D01*
D62*
X133862500Y-108825000D02*
X136215000Y-108825000D01*
D63*
X142123843Y-117034200D02*
X141389643Y-116300000D01*
X145288400Y-116691294D02*
X143019063Y-116691294D01*
X146308500Y-116944000D02*
X145541106Y-116944000D01*
D62*
X139196868Y-116300000D02*
X140288000Y-116300000D01*
D63*
%TO.N,/M2_FLAG*%
X158174160Y-119755600D02*
X153195100Y-119755600D01*
X158714880Y-119214880D02*
X158174160Y-119755600D01*
D62*
X175165000Y-108125000D02*
X176775000Y-108125000D01*
X176775000Y-108125000D02*
X177100000Y-107800000D01*
X171862500Y-108825000D02*
X174465000Y-108825000D01*
X174490000Y-108800000D02*
X175165000Y-108125000D01*
%TO.N,VBUS*%
X150632000Y-99440000D02*
X148414000Y-99440000D01*
D64*
%TO.N,+1V1*%
X147333000Y-116966000D02*
X147968000Y-116331000D01*
D63*
X149146000Y-115306500D02*
X149146000Y-114334000D01*
X147946000Y-122181500D02*
X147946000Y-121433000D01*
X150100000Y-124100000D02*
X150155928Y-124100000D01*
D64*
X148730000Y-116331000D02*
X149146000Y-115915000D01*
D63*
X149946000Y-123890072D02*
X149946000Y-122181500D01*
X150100000Y-124044072D02*
X150100000Y-124100000D01*
X150155928Y-124100000D02*
X150762000Y-124706072D01*
D64*
X147946000Y-121433000D02*
X147600000Y-121087000D01*
X147413000Y-120900000D02*
X147333000Y-120820000D01*
X147600000Y-120900000D02*
X147413000Y-120900000D01*
D63*
X147946000Y-122681900D02*
X147527900Y-123100000D01*
X147182000Y-123100000D02*
X146698000Y-123584000D01*
X149146000Y-114334000D02*
X148857000Y-114045000D01*
D64*
X147600000Y-121087000D02*
X147600000Y-120900000D01*
D63*
X147527900Y-123100000D02*
X147182000Y-123100000D01*
D64*
X147968005Y-116331009D02*
X148729991Y-116331009D01*
X147333000Y-120820000D02*
X147333000Y-116966000D01*
X148729991Y-116331009D02*
X148730000Y-116331000D01*
D63*
X147946000Y-121700000D02*
X147946000Y-122681900D01*
X149946000Y-123890072D02*
X150100000Y-124044072D01*
X146698000Y-123584000D02*
X146698000Y-123852000D01*
X150762000Y-124706072D02*
X150762000Y-124995000D01*
X149146000Y-115915000D02*
X149146000Y-115306500D01*
X148857000Y-114045000D02*
X148857000Y-113636000D01*
D62*
%TO.N,/~{USB_BOOT}*%
X159710000Y-129600000D02*
X159710000Y-130965000D01*
X159710000Y-130965000D02*
X157475000Y-133200000D01*
D63*
%TO.N,/QSPI_SS*%
X152346000Y-122181500D02*
X152722180Y-122557680D01*
X152722180Y-122557680D02*
X152900000Y-122557680D01*
X163585320Y-126647292D02*
X162217612Y-128015000D01*
X162602291Y-122557680D02*
X163585320Y-123540709D01*
X163585320Y-123540709D02*
X163585320Y-126647292D01*
X152346000Y-122181500D02*
X152346000Y-122325400D01*
X152900000Y-122557680D02*
X162602291Y-122557680D01*
X158690000Y-128910000D02*
X158690000Y-129600000D01*
X159585000Y-128015000D02*
X158690000Y-128910000D01*
X161982000Y-128015000D02*
X159585000Y-128015000D01*
D62*
X157510000Y-129600000D02*
X158690000Y-129600000D01*
D63*
%TO.N,/XOUT*%
X149946000Y-114480000D02*
X151143000Y-113283000D01*
X149946000Y-115306500D02*
X149946000Y-114480000D01*
X151143000Y-113283000D02*
X151143000Y-112777000D01*
D64*
%TO.N,/USB_D+*%
X148730000Y-126364000D02*
X148730000Y-124842000D01*
X150025000Y-127659000D02*
X148730000Y-126364000D01*
X150025000Y-130359000D02*
X150025000Y-127659000D01*
%TO.N,Net-(U3-BOOST)*%
X144864500Y-112902000D02*
X144158000Y-112902000D01*
X144158000Y-112902000D02*
X143904000Y-113156000D01*
X143904000Y-113156000D02*
X143904000Y-114454000D01*
%TO.N,/USB_D-*%
X147714000Y-124842000D02*
X147714000Y-126364000D01*
X149375000Y-128025000D02*
X149375000Y-130359000D01*
X147714000Y-126364000D02*
X149375000Y-128025000D01*
D69*
%TO.N,Net-(D2-K)*%
X143714000Y-115414000D02*
X142510000Y-114210000D01*
D64*
X142888000Y-110742000D02*
X142888000Y-111124000D01*
X142510000Y-111502000D02*
X142510000Y-113918000D01*
D69*
X143904000Y-115414000D02*
X143714000Y-115414000D01*
D64*
X142888000Y-111124000D02*
X142510000Y-111502000D01*
X142888000Y-110742000D02*
X144979500Y-110742000D01*
D63*
%TO.N,/QSPI_SD1*%
X152159000Y-122935000D02*
X162446000Y-122935000D01*
X162446000Y-122935000D02*
X163208000Y-123697000D01*
X151946000Y-122722000D02*
X152159000Y-122935000D01*
X163208000Y-123697000D02*
X163208000Y-126491000D01*
X163208000Y-126491000D02*
X162954000Y-126745000D01*
X162954000Y-126745000D02*
X161982000Y-126745000D01*
X151946000Y-122181500D02*
X151946000Y-122722000D01*
%TO.N,/QSPI_SD2*%
X161982000Y-125475000D02*
X160160000Y-125475000D01*
X160160000Y-125475000D02*
X158128000Y-123443000D01*
X151546000Y-122855612D02*
X151546000Y-122181500D01*
X158128000Y-123443000D02*
X152133388Y-123443000D01*
X152133388Y-123443000D02*
X151546000Y-122855612D01*
%TO.N,/QSPI_SD0*%
X154782000Y-124205000D02*
X152286000Y-124205000D01*
X152286000Y-124205000D02*
X151146000Y-123065000D01*
X151146000Y-123065000D02*
X151146000Y-122181500D01*
%TO.N,/QSPI_SCLK*%
X150746000Y-122181500D02*
X150746000Y-123198612D01*
X153022388Y-125475000D02*
X154782000Y-125475000D01*
X150746000Y-123198612D02*
X153022388Y-125475000D01*
%TO.N,/QSPI_SD3*%
X153758776Y-126745000D02*
X154782000Y-126745000D01*
X150346000Y-122181500D02*
X150346000Y-123332224D01*
X150346000Y-123332224D02*
X153758776Y-126745000D01*
D62*
%TO.N,Net-(U1-CPL)*%
X126370000Y-110530000D02*
X126100000Y-110530000D01*
X128137500Y-109475000D02*
X127425000Y-109475000D01*
X127425000Y-109475000D02*
X126370000Y-110530000D01*
%TO.N,Net-(U1-CPH)*%
X126430000Y-109570000D02*
X127175000Y-108825000D01*
X126100000Y-109570000D02*
X126430000Y-109570000D01*
X127175000Y-108825000D02*
X128137500Y-108825000D01*
%TO.N,Net-(U1-VCP)*%
X128137500Y-108175000D02*
X127125000Y-108175000D01*
X126770000Y-108530000D02*
X126100000Y-108530000D01*
X127125000Y-108175000D02*
X126770000Y-108530000D01*
D63*
%TO.N,Net-(D1-K)*%
X138697000Y-125234500D02*
X138697000Y-126364000D01*
%TO.N,/RUN*%
X147946000Y-115306500D02*
X147946000Y-114204000D01*
D62*
X157325000Y-111975000D02*
X159200000Y-111975000D01*
X155900000Y-113400000D02*
X157325000Y-111975000D01*
D63*
X147946000Y-114204000D02*
X147950000Y-114200000D01*
D62*
X159146000Y-112029000D02*
X159200000Y-111975000D01*
X159146000Y-113410000D02*
X159146000Y-112029000D01*
X159200000Y-111975000D02*
X161475000Y-111975000D01*
%TO.N,Net-(D5-A)*%
X159900000Y-105500000D02*
X160400000Y-105500000D01*
X159910000Y-104600000D02*
X159910000Y-105490000D01*
X160400000Y-105500000D02*
X161452000Y-106552000D01*
X148594000Y-104700000D02*
X157292000Y-104700000D01*
X161452000Y-106552000D02*
X162064000Y-106552000D01*
X157292000Y-104700000D02*
X158092000Y-105500000D01*
X159910000Y-105490000D02*
X159900000Y-105500000D01*
X158092000Y-105500000D02*
X159900000Y-105500000D01*
D63*
%TO.N,Net-(U5-USB_DP)*%
X148746000Y-122181500D02*
X148746000Y-123806000D01*
%TO.N,Net-(U5-USB_DM)*%
X148346000Y-122181500D02*
X148346000Y-123190000D01*
X148346000Y-123190000D02*
X147714000Y-123822000D01*
D62*
%TO.N,Net-(U3-FB)*%
X148730000Y-111634000D02*
X149746000Y-111634000D01*
X147084500Y-113023500D02*
X148474000Y-111634000D01*
X148474000Y-111634000D02*
X148730000Y-111634000D01*
D63*
%TO.N,/M2_ENABLE*%
X153183500Y-115516500D02*
X153183500Y-116144000D01*
X160669629Y-114208943D02*
X160397285Y-114481287D01*
D62*
X171862500Y-109475000D02*
X173271100Y-109475000D01*
X173271100Y-109475000D02*
X173300000Y-109503900D01*
D63*
X154218713Y-114481287D02*
X153183500Y-115516500D01*
X160397285Y-114481287D02*
X154218713Y-114481287D01*
X160708943Y-114208943D02*
X160669629Y-114208943D01*
D62*
%TO.N,/M1_ENABLE*%
X135825000Y-109475000D02*
X133862500Y-109475000D01*
D63*
X144827331Y-118944000D02*
X144008331Y-119763000D01*
D62*
X141863000Y-119763000D02*
X137600000Y-115500000D01*
X143700000Y-119763000D02*
X141863000Y-119763000D01*
D63*
X144008331Y-119763000D02*
X143700000Y-119763000D01*
D62*
X137600000Y-111250000D02*
X135825000Y-109475000D01*
D63*
X146308500Y-118944000D02*
X144827331Y-118944000D01*
D62*
X137600000Y-115500000D02*
X137600000Y-111250000D01*
%TO.N,Net-(U2-VCP)*%
X163925000Y-109600000D02*
X165350000Y-108175000D01*
X165350000Y-108175000D02*
X166137500Y-108175000D01*
%TO.N,/M1_SENSE*%
X137200000Y-107400000D02*
X137010000Y-107400000D01*
X135125000Y-107525000D02*
X135221600Y-107621600D01*
D63*
X145167409Y-120144000D02*
X146308500Y-120144000D01*
D62*
X135221600Y-107621600D02*
X136378400Y-107621600D01*
X136378400Y-107621600D02*
X136610000Y-107390000D01*
D63*
X140842994Y-120934500D02*
X144376909Y-120934500D01*
D62*
X137010000Y-107400000D02*
X136610000Y-107000000D01*
X136610000Y-107390000D02*
X136610000Y-107000000D01*
X133862500Y-107525000D02*
X135125000Y-107525000D01*
D63*
X138704247Y-118795753D02*
X140842994Y-120934500D01*
X144376909Y-120934500D02*
X145167409Y-120144000D01*
D66*
%TO.N,+5V*%
X141364000Y-125221000D02*
X142221000Y-125221000D01*
X140550000Y-125450000D02*
X140779000Y-125221000D01*
D64*
X139710000Y-113918000D02*
X139710000Y-111502000D01*
D63*
X138400000Y-123062500D02*
X139652500Y-123062500D01*
D66*
X142221000Y-125221000D02*
X142450000Y-125450000D01*
D64*
X146234500Y-126662500D02*
X142450000Y-126662500D01*
D63*
X141364000Y-125221000D02*
X140541000Y-124398000D01*
D64*
X148725000Y-129153000D02*
X146234500Y-126662500D01*
D62*
X149746000Y-109700000D02*
X149746000Y-110614000D01*
D64*
X148725000Y-130359000D02*
X148725000Y-129153000D01*
D63*
X139652500Y-123062500D02*
X140541000Y-123951000D01*
D66*
X140550000Y-126662500D02*
X140550000Y-125450000D01*
X141000000Y-115300000D02*
X140000000Y-115300000D01*
X142450000Y-125450000D02*
X142450000Y-126662500D01*
X140779000Y-125221000D02*
X141364000Y-125221000D01*
D64*
X139710000Y-111502000D02*
X138956000Y-110748000D01*
D63*
%TO.N,Net-(C20-Pad1)*%
X152833000Y-110409000D02*
X151195000Y-110409000D01*
X151143000Y-110461000D02*
X151143000Y-111757000D01*
D62*
%TO.N,/NEOPIXEL*%
X160300000Y-118100000D02*
X160000000Y-118400000D01*
D63*
X157625649Y-119344000D02*
X157669649Y-119300000D01*
D62*
X160000000Y-118400000D02*
X158569649Y-118400000D01*
X160300000Y-116300000D02*
X160300000Y-118100000D01*
D63*
X153183500Y-119344000D02*
X157625649Y-119344000D01*
D62*
X159925000Y-115925000D02*
X160300000Y-116300000D01*
X158850000Y-115925000D02*
X159925000Y-115925000D01*
X158569649Y-118400000D02*
X157669649Y-119300000D01*
%TO.N,Net-(U2-CPL)*%
X163980000Y-110900000D02*
X164400000Y-110900000D01*
X165328200Y-109475000D02*
X166137500Y-109475000D01*
X164903200Y-110396800D02*
X164903200Y-109900000D01*
X164400000Y-110900000D02*
X164903200Y-110396800D01*
X164903200Y-109900000D02*
X165328200Y-109475000D01*
%TO.N,Net-(U2-CPH)*%
X166137500Y-108825000D02*
X165350000Y-108825000D01*
X164311600Y-110288400D02*
X164500000Y-110100000D01*
X163211600Y-110288400D02*
X164311600Y-110288400D01*
X163020000Y-110900000D02*
X163020000Y-110480000D01*
X163020000Y-110480000D02*
X163211600Y-110288400D01*
X164500000Y-110100000D02*
X164500000Y-109595210D01*
X164500000Y-109595210D02*
X165270210Y-108825000D01*
X165270210Y-108825000D02*
X166137500Y-108825000D01*
%TO.N,/VREF*%
X140600000Y-107690000D02*
X140600000Y-105800000D01*
X177901600Y-107098400D02*
X178350000Y-106650000D01*
X139000000Y-107690000D02*
X140600000Y-107690000D01*
X133862500Y-108175000D02*
X137925000Y-108175000D01*
X171862500Y-108175000D02*
X173450000Y-108175000D01*
X138410000Y-107690000D02*
X139000000Y-107690000D01*
X173921800Y-107703200D02*
X176204587Y-107703200D01*
X176204587Y-107703200D02*
X176809387Y-107098400D01*
X178350000Y-106650000D02*
X178350000Y-105350000D01*
X173450000Y-108175000D02*
X173921800Y-107703200D01*
X176809387Y-107098400D02*
X177901600Y-107098400D01*
X140600000Y-105800000D02*
X142350000Y-104050000D01*
X137925000Y-108175000D02*
X138410000Y-107690000D01*
%TO.N,/M2_SENSE*%
X177275000Y-106325000D02*
X177300000Y-106300000D01*
X172875000Y-107525000D02*
X173100000Y-107300000D01*
X175325000Y-106950000D02*
X175735000Y-106950000D01*
X173100000Y-107300000D02*
X174975000Y-107300000D01*
X175735000Y-106950000D02*
X176360000Y-106325000D01*
X171862500Y-107525000D02*
X172875000Y-107525000D01*
D63*
X146308500Y-120544000D02*
X145740405Y-120544000D01*
X145740405Y-120544000D02*
X145271788Y-121012617D01*
D62*
X176360000Y-106325000D02*
X177275000Y-106325000D01*
X174975000Y-107300000D02*
X175325000Y-106950000D01*
D63*
%TO.N,/TX*%
X158500000Y-121000000D02*
X160462500Y-121000000D01*
X156544000Y-120944000D02*
X157184900Y-121584900D01*
X157915100Y-121584900D02*
X158500000Y-121000000D01*
X157184900Y-121584900D02*
X157915100Y-121584900D01*
X153183500Y-120944000D02*
X156544000Y-120944000D01*
%TO.N,/RX*%
X157600000Y-120909200D02*
X157234800Y-120544000D01*
X157234800Y-120544000D02*
X153183500Y-120544000D01*
D62*
%TO.N,/TX_BUFFERED*%
X163975820Y-123188320D02*
X162737500Y-121950000D01*
X163975820Y-123188320D02*
X163975820Y-131499180D01*
D63*
%TO.N,/TX_CTRL*%
X153183500Y-120144000D02*
X160368500Y-120144000D01*
%TO.N,Net-(JP3-B)*%
X144693041Y-118544000D02*
X144188900Y-119048141D01*
X144188900Y-119048141D02*
X142848141Y-119048141D01*
X142848141Y-119048141D02*
X142800000Y-119000000D01*
X146308500Y-118544000D02*
X144693041Y-118544000D01*
%TO.N,Net-(JP4-B)*%
X143887387Y-118144000D02*
X143672146Y-118359241D01*
X146308500Y-118144000D02*
X143887387Y-118144000D01*
%TD*%
%TA.AperFunction,Conductor*%
%TO.N,GND*%
G36*
X140066060Y-130017546D02*
G01*
X140136399Y-130059145D01*
X140296169Y-130105562D01*
X140303634Y-130106149D01*
X140333494Y-130108500D01*
X140333498Y-130108500D01*
X140766506Y-130108500D01*
X140791388Y-130106541D01*
X140803831Y-130105562D01*
X140963601Y-130059145D01*
X141033939Y-130017546D01*
X141098079Y-130000000D01*
X141422454Y-130000000D01*
X141490575Y-130020002D01*
X141537068Y-130073658D01*
X141545256Y-130103652D01*
X141546087Y-130103476D01*
X141547458Y-130109929D01*
X141558950Y-130145297D01*
X141579762Y-130209350D01*
X141599793Y-130270996D01*
X141601821Y-130341964D01*
X141587201Y-130376080D01*
X141498885Y-130519262D01*
X141443113Y-130687572D01*
X141443112Y-130687579D01*
X141432500Y-130791446D01*
X141432500Y-131842544D01*
X141443112Y-131946425D01*
X141498885Y-132114738D01*
X141591970Y-132265652D01*
X141591975Y-132265658D01*
X141717341Y-132391024D01*
X141717347Y-132391029D01*
X141717348Y-132391030D01*
X141868262Y-132484115D01*
X142036574Y-132539887D01*
X142140455Y-132550500D01*
X142741544Y-132550499D01*
X142845426Y-132539887D01*
X143013738Y-132484115D01*
X143164652Y-132391030D01*
X143290030Y-132265652D01*
X143383115Y-132114738D01*
X143438887Y-131946426D01*
X143449500Y-131842545D01*
X143449499Y-130791456D01*
X143438887Y-130687574D01*
X143383115Y-130519262D01*
X143294797Y-130376076D01*
X143276061Y-130307601D01*
X143282204Y-130271004D01*
X143334542Y-130109928D01*
X143334542Y-130109920D01*
X143335913Y-130103476D01*
X143337912Y-130103900D01*
X143361243Y-130047181D01*
X143419461Y-130006546D01*
X143459546Y-130000000D01*
X147873928Y-130000000D01*
X147942049Y-130020002D01*
X147988542Y-130073658D01*
X147998208Y-130140891D01*
X147998853Y-130140961D01*
X147998581Y-130143484D01*
X147998646Y-130143932D01*
X147998386Y-130145297D01*
X147991500Y-130209350D01*
X147991500Y-131656649D01*
X147998009Y-131717196D01*
X147998011Y-131717204D01*
X148049110Y-131854202D01*
X148049112Y-131854207D01*
X148136738Y-131971261D01*
X148253792Y-132058887D01*
X148253794Y-132058888D01*
X148253796Y-132058889D01*
X148312875Y-132080924D01*
X148390795Y-132109988D01*
X148390803Y-132109990D01*
X148451350Y-132116499D01*
X148451355Y-132116499D01*
X148451362Y-132116500D01*
X148451368Y-132116500D01*
X148948632Y-132116500D01*
X148948638Y-132116500D01*
X148948645Y-132116499D01*
X148948649Y-132116499D01*
X149011532Y-132109739D01*
X149038468Y-132109739D01*
X149101350Y-132116499D01*
X149101355Y-132116499D01*
X149101362Y-132116500D01*
X149101368Y-132116500D01*
X149598632Y-132116500D01*
X149598638Y-132116500D01*
X149598645Y-132116499D01*
X149598649Y-132116499D01*
X149661532Y-132109739D01*
X149688468Y-132109739D01*
X149751350Y-132116499D01*
X149751355Y-132116499D01*
X149751362Y-132116500D01*
X149751368Y-132116500D01*
X150248632Y-132116500D01*
X150248638Y-132116500D01*
X150248645Y-132116499D01*
X150248649Y-132116499D01*
X150311532Y-132109739D01*
X150338468Y-132109739D01*
X150401350Y-132116499D01*
X150401355Y-132116499D01*
X150401362Y-132116500D01*
X150401368Y-132116500D01*
X150898632Y-132116500D01*
X150898638Y-132116500D01*
X150898645Y-132116499D01*
X150898649Y-132116499D01*
X150959196Y-132109990D01*
X150959199Y-132109989D01*
X150959201Y-132109989D01*
X150959872Y-132109739D01*
X150988368Y-132099110D01*
X151096204Y-132058889D01*
X151110736Y-132048011D01*
X151213261Y-131971261D01*
X151300887Y-131854207D01*
X151300887Y-131854206D01*
X151300889Y-131854204D01*
X151351989Y-131717201D01*
X151358500Y-131656638D01*
X151358500Y-130209362D01*
X151358499Y-130209350D01*
X151351147Y-130140961D01*
X151354220Y-130140630D01*
X151357244Y-130084096D01*
X151398762Y-130026505D01*
X151464826Y-130000503D01*
X151476072Y-130000000D01*
X155662670Y-130000000D01*
X155730791Y-130020002D01*
X155771123Y-130061860D01*
X155842495Y-130182542D01*
X155842498Y-130182546D01*
X155957453Y-130297501D01*
X155957460Y-130297507D01*
X156097399Y-130380267D01*
X156097402Y-130380267D01*
X156097404Y-130380269D01*
X156241253Y-130422061D01*
X156253534Y-130425629D01*
X156290007Y-130428500D01*
X156290010Y-130428499D01*
X156290011Y-130428500D01*
X156556662Y-130428499D01*
X156689990Y-130428499D01*
X156708227Y-130427064D01*
X156726466Y-130425629D01*
X156882596Y-130380269D01*
X156935862Y-130348767D01*
X157004675Y-130331308D01*
X157064137Y-130348766D01*
X157117404Y-130380269D01*
X157261253Y-130422061D01*
X157273534Y-130425629D01*
X157310007Y-130428500D01*
X157310010Y-130428499D01*
X157310011Y-130428500D01*
X157576662Y-130428499D01*
X157709990Y-130428499D01*
X157728227Y-130427064D01*
X157746466Y-130425629D01*
X157902596Y-130380269D01*
X158035863Y-130301455D01*
X158104676Y-130283996D01*
X158164136Y-130301454D01*
X158297404Y-130380269D01*
X158453534Y-130425629D01*
X158490007Y-130428500D01*
X158490010Y-130428499D01*
X158490011Y-130428500D01*
X158756662Y-130428499D01*
X158889990Y-130428499D01*
X158902147Y-130427542D01*
X158926466Y-130425629D01*
X158938747Y-130422061D01*
X159009739Y-130422261D01*
X159069357Y-130460813D01*
X159098668Y-130525477D01*
X159099900Y-130543057D01*
X159099900Y-130660098D01*
X159079898Y-130728219D01*
X159062995Y-130749193D01*
X157807593Y-132004595D01*
X157745281Y-132038621D01*
X157718498Y-132041500D01*
X156576350Y-132041500D01*
X156515803Y-132048009D01*
X156515795Y-132048011D01*
X156378797Y-132099110D01*
X156378792Y-132099112D01*
X156261738Y-132186738D01*
X156174112Y-132303792D01*
X156174110Y-132303797D01*
X156123011Y-132440795D01*
X156123009Y-132440803D01*
X156116500Y-132501350D01*
X156116500Y-134298649D01*
X156123009Y-134359196D01*
X156123011Y-134359204D01*
X156174110Y-134496202D01*
X156174112Y-134496207D01*
X156261738Y-134613261D01*
X156378792Y-134700887D01*
X156378794Y-134700888D01*
X156378796Y-134700889D01*
X156439841Y-134723658D01*
X156523184Y-134754744D01*
X156522255Y-134757232D01*
X156572792Y-134786012D01*
X156605697Y-134848923D01*
X156599366Y-134919637D01*
X156555810Y-134975703D01*
X156488856Y-134999320D01*
X156482117Y-134999500D01*
X136000000Y-134999500D01*
X136000000Y-130000000D01*
X137000000Y-130000000D01*
X140001921Y-130000000D01*
X140066060Y-130017546D01*
G37*
%TD.AperFunction*%
%TA.AperFunction,Conductor*%
G36*
X162500000Y-130483982D02*
G01*
X162457885Y-130552262D01*
X162402113Y-130720572D01*
X162402112Y-130720579D01*
X162391500Y-130824446D01*
X162391500Y-132175544D01*
X162402112Y-132279425D01*
X162439092Y-132391024D01*
X162457885Y-132447738D01*
X162500000Y-132516016D01*
X162500000Y-134999500D01*
X158467883Y-134999500D01*
X158399762Y-134979498D01*
X158353269Y-134925842D01*
X158343165Y-134855568D01*
X158372659Y-134790988D01*
X158427248Y-134755904D01*
X158426816Y-134754744D01*
X158432152Y-134752753D01*
X158432385Y-134752604D01*
X158432966Y-134752450D01*
X158478307Y-134735538D01*
X158571204Y-134700889D01*
X158688261Y-134613261D01*
X158775889Y-134496204D01*
X158826989Y-134359201D01*
X158833500Y-134298638D01*
X158833500Y-132756501D01*
X158853502Y-132688380D01*
X158870405Y-132667406D01*
X159438701Y-132099110D01*
X160083945Y-131453865D01*
X160096094Y-131444134D01*
X160095879Y-131443874D01*
X160101978Y-131438828D01*
X160101983Y-131438826D01*
X160148170Y-131389641D01*
X160168547Y-131369265D01*
X160172629Y-131364001D01*
X160176463Y-131359512D01*
X160207504Y-131326458D01*
X160216726Y-131309681D01*
X160227581Y-131293157D01*
X160229077Y-131291227D01*
X160239312Y-131278034D01*
X160257318Y-131236423D01*
X160259923Y-131231107D01*
X160262625Y-131226190D01*
X160281765Y-131191378D01*
X160286525Y-131172835D01*
X160292926Y-131154139D01*
X160300532Y-131136566D01*
X160307625Y-131091777D01*
X160308823Y-131085988D01*
X160320100Y-131042074D01*
X160320100Y-131022936D01*
X160321651Y-131003225D01*
X160324646Y-130984315D01*
X160320380Y-130939181D01*
X160320100Y-130933249D01*
X160320100Y-130272137D01*
X160340102Y-130204016D01*
X160357007Y-130183039D01*
X160357506Y-130182541D01*
X160415726Y-130084096D01*
X160428877Y-130061860D01*
X160480770Y-130013408D01*
X160537330Y-130000000D01*
X161800000Y-130000000D01*
X162500000Y-130000000D01*
X162500000Y-130483982D01*
G37*
%TD.AperFunction*%
%TD*%
%TA.AperFunction,Conductor*%
%TO.N,GND*%
G36*
X170643039Y-109919685D02*
G01*
X170688794Y-109972489D01*
X170700000Y-110024000D01*
X170700000Y-112000000D01*
X165300000Y-111900000D01*
X165300000Y-110024000D01*
X165319685Y-109956961D01*
X165372489Y-109911206D01*
X165424000Y-109900000D01*
X170576000Y-109900000D01*
X170643039Y-109919685D01*
G37*
%TD.AperFunction*%
%TD*%
%TA.AperFunction,Conductor*%
%TO.N,VCC*%
G36*
X126343039Y-107169685D02*
G01*
X126388794Y-107222489D01*
X126400000Y-107274000D01*
X126400000Y-107726000D01*
X126380315Y-107793039D01*
X126327511Y-107838794D01*
X126276000Y-107850000D01*
X125900000Y-107850000D01*
X125033583Y-108523880D01*
X124968580Y-108549500D01*
X124957454Y-108550000D01*
X121424000Y-108550000D01*
X121356961Y-108530315D01*
X121311206Y-108477511D01*
X121300000Y-108426000D01*
X121300000Y-107274000D01*
X121319685Y-107206961D01*
X121372489Y-107161206D01*
X121424000Y-107150000D01*
X126276000Y-107150000D01*
X126343039Y-107169685D01*
G37*
%TD.AperFunction*%
%TD*%
%TA.AperFunction,Conductor*%
%TO.N,GND*%
G36*
X127300000Y-113750000D02*
G01*
X132675000Y-113350000D01*
X132688158Y-111600000D01*
X135884999Y-111600000D01*
X135953120Y-111620002D01*
X135974094Y-111636905D01*
X136052995Y-111715806D01*
X136087021Y-111778118D01*
X136089900Y-111804901D01*
X136089900Y-115718738D01*
X136088192Y-115734208D01*
X136088527Y-115734240D01*
X136087781Y-115742130D01*
X136089900Y-115809567D01*
X136089900Y-115838378D01*
X136089901Y-115838395D01*
X136090733Y-115844984D01*
X136091198Y-115850897D01*
X136092622Y-115896202D01*
X136097962Y-115914581D01*
X136101971Y-115933936D01*
X136103980Y-115949839D01*
X136104371Y-115952933D01*
X136121059Y-115995082D01*
X136122983Y-116000700D01*
X136135626Y-116044222D01*
X136135629Y-116044229D01*
X136145371Y-116060703D01*
X136154065Y-116078448D01*
X136161116Y-116096255D01*
X136187764Y-116132933D01*
X136191025Y-116137897D01*
X136214092Y-116176903D01*
X136214097Y-116176909D01*
X136227623Y-116190435D01*
X136240461Y-116205465D01*
X136251719Y-116220959D01*
X136251723Y-116220964D01*
X136286660Y-116249866D01*
X136291041Y-116253852D01*
X136963095Y-116925906D01*
X136997121Y-116988218D01*
X137000000Y-117015001D01*
X137000000Y-134999500D01*
X123501543Y-134999500D01*
X123498454Y-134999424D01*
X123444409Y-134996769D01*
X123347561Y-134992011D01*
X123153462Y-134981839D01*
X123147512Y-134981243D01*
X122978317Y-134956145D01*
X122802459Y-134928291D01*
X122797005Y-134927178D01*
X122627798Y-134884795D01*
X122585644Y-134873500D01*
X122458713Y-134839488D01*
X122453806Y-134837956D01*
X122347307Y-134799850D01*
X122288120Y-134778672D01*
X122125786Y-134716358D01*
X122121426Y-134714493D01*
X121961529Y-134638868D01*
X121807030Y-134560146D01*
X121803242Y-134558049D01*
X121651038Y-134466822D01*
X121505754Y-134372473D01*
X121502536Y-134370238D01*
X121359675Y-134264285D01*
X121225041Y-134155260D01*
X121222391Y-134152990D01*
X121091495Y-134034352D01*
X121089275Y-134032239D01*
X120967758Y-133910722D01*
X120965646Y-133908503D01*
X120847008Y-133777607D01*
X120844744Y-133774964D01*
X120735720Y-133640331D01*
X120629752Y-133497451D01*
X120627533Y-133494256D01*
X120533182Y-133348969D01*
X120441944Y-133196747D01*
X120439852Y-133192968D01*
X120361131Y-133038470D01*
X120289624Y-132887281D01*
X120285499Y-132878559D01*
X120283659Y-132874260D01*
X120221332Y-132711894D01*
X120162033Y-132546163D01*
X120160510Y-132541284D01*
X120158801Y-132534906D01*
X120115206Y-132372207D01*
X120072818Y-132202985D01*
X120071707Y-132197538D01*
X120068223Y-132175544D01*
X129391500Y-132175544D01*
X129402112Y-132279425D01*
X129457885Y-132447738D01*
X129550970Y-132598652D01*
X129550975Y-132598658D01*
X129676341Y-132724024D01*
X129676347Y-132724029D01*
X129676348Y-132724030D01*
X129827262Y-132817115D01*
X129995574Y-132872887D01*
X130099455Y-132883500D01*
X130900544Y-132883499D01*
X131004426Y-132872887D01*
X131172738Y-132817115D01*
X131323652Y-132724030D01*
X131449030Y-132598652D01*
X131481105Y-132546649D01*
X131533890Y-132499171D01*
X131603965Y-132487768D01*
X131669081Y-132516060D01*
X131687387Y-132534906D01*
X131694092Y-132543432D01*
X131694095Y-132543435D01*
X131694103Y-132543443D01*
X131854077Y-132682061D01*
X131854088Y-132682069D01*
X132037412Y-132787910D01*
X132037415Y-132787911D01*
X132037418Y-132787913D01*
X132237473Y-132857153D01*
X132447016Y-132887281D01*
X132596290Y-132880170D01*
X132658463Y-132877209D01*
X132658467Y-132877208D01*
X132658474Y-132877208D01*
X132864204Y-132827298D01*
X133056771Y-132739356D01*
X133229215Y-132616559D01*
X133375303Y-132463346D01*
X133394679Y-132433195D01*
X133448333Y-132386703D01*
X133518607Y-132376598D01*
X133583188Y-132406090D01*
X133599720Y-132423428D01*
X133694094Y-132543435D01*
X133854077Y-132682061D01*
X133854088Y-132682069D01*
X134037412Y-132787910D01*
X134037415Y-132787911D01*
X134037418Y-132787913D01*
X134237473Y-132857153D01*
X134447016Y-132887281D01*
X134596290Y-132880170D01*
X134658463Y-132877209D01*
X134658467Y-132877208D01*
X134658474Y-132877208D01*
X134864204Y-132827298D01*
X135056771Y-132739356D01*
X135229215Y-132616559D01*
X135375303Y-132463346D01*
X135489756Y-132285254D01*
X135568436Y-132088721D01*
X135608500Y-131880849D01*
X135608500Y-131172197D01*
X135593419Y-131014261D01*
X135533777Y-130811138D01*
X135533776Y-130811137D01*
X135533776Y-130811135D01*
X135436772Y-130622976D01*
X135436771Y-130622974D01*
X135305908Y-130456568D01*
X135305905Y-130456564D01*
X135145922Y-130317938D01*
X135145911Y-130317930D01*
X134962587Y-130212089D01*
X134962580Y-130212086D01*
X134762530Y-130142848D01*
X134762529Y-130142847D01*
X134762527Y-130142847D01*
X134762525Y-130142846D01*
X134762519Y-130142845D01*
X134552985Y-130112718D01*
X134341536Y-130122790D01*
X134341523Y-130122792D01*
X134135801Y-130172700D01*
X134135795Y-130172702D01*
X133943228Y-130260644D01*
X133943221Y-130260648D01*
X133770791Y-130383435D01*
X133770781Y-130383444D01*
X133624696Y-130536655D01*
X133605319Y-130566806D01*
X133551662Y-130613298D01*
X133481388Y-130623400D01*
X133416808Y-130593906D01*
X133400279Y-130576571D01*
X133381162Y-130552262D01*
X133305908Y-130456568D01*
X133305905Y-130456564D01*
X133145922Y-130317938D01*
X133145911Y-130317930D01*
X132962587Y-130212089D01*
X132962580Y-130212086D01*
X132762530Y-130142848D01*
X132762529Y-130142847D01*
X132762527Y-130142847D01*
X132762525Y-130142846D01*
X132762519Y-130142845D01*
X132552985Y-130112718D01*
X132341536Y-130122790D01*
X132341523Y-130122792D01*
X132135801Y-130172700D01*
X132135795Y-130172702D01*
X131943228Y-130260644D01*
X131943221Y-130260648D01*
X131770791Y-130383435D01*
X131770775Y-130383449D01*
X131681403Y-130477181D01*
X131619919Y-130512679D01*
X131549002Y-130509301D01*
X131491170Y-130468119D01*
X131482972Y-130456377D01*
X131449031Y-130401350D01*
X131449030Y-130401348D01*
X131449027Y-130401345D01*
X131449024Y-130401341D01*
X131323658Y-130275975D01*
X131323652Y-130275970D01*
X131298805Y-130260644D01*
X131172738Y-130182885D01*
X131051903Y-130142845D01*
X131004427Y-130127113D01*
X131004420Y-130127112D01*
X130900553Y-130116500D01*
X130099455Y-130116500D01*
X129995574Y-130127112D01*
X129827261Y-130182885D01*
X129676347Y-130275970D01*
X129676341Y-130275975D01*
X129550975Y-130401341D01*
X129550970Y-130401347D01*
X129457885Y-130552262D01*
X129402113Y-130720572D01*
X129402112Y-130720579D01*
X129391500Y-130824446D01*
X129391500Y-132175544D01*
X120068223Y-132175544D01*
X120043862Y-132021733D01*
X120018751Y-131852452D01*
X120018162Y-131846574D01*
X120007994Y-131652546D01*
X120000575Y-131501544D01*
X120000500Y-131498458D01*
X120000500Y-111726000D01*
X120020502Y-111657879D01*
X120074158Y-111611386D01*
X120126500Y-111600000D01*
X127300000Y-111600000D01*
X127300000Y-113750000D01*
G37*
%TD.AperFunction*%
%TD*%
%TA.AperFunction,Conductor*%
%TO.N,/M2B*%
G36*
X165944091Y-85020502D02*
G01*
X165990584Y-85074158D01*
X166001970Y-85126523D01*
X166001437Y-88060024D01*
X165981423Y-88128141D01*
X165927758Y-88174624D01*
X165857483Y-88184715D01*
X165835805Y-88179606D01*
X165754325Y-88152606D01*
X165754318Y-88152605D01*
X165650515Y-88142000D01*
X164754000Y-88142000D01*
X164754000Y-89241316D01*
X164679143Y-89215123D01*
X164544926Y-89200000D01*
X164455074Y-89200000D01*
X164320857Y-89215123D01*
X164246000Y-89241316D01*
X164246000Y-88142000D01*
X163349492Y-88142000D01*
X163245681Y-88152605D01*
X163077474Y-88208342D01*
X162926660Y-88301366D01*
X162926654Y-88301371D01*
X162801371Y-88426654D01*
X162801366Y-88426660D01*
X162708342Y-88577474D01*
X162652606Y-88745678D01*
X162652605Y-88745681D01*
X162642000Y-88849484D01*
X162642000Y-89746000D01*
X163741316Y-89746000D01*
X163715123Y-89820857D01*
X163694938Y-90000000D01*
X163715123Y-90179143D01*
X163741316Y-90254000D01*
X162642001Y-90254000D01*
X162642001Y-91150507D01*
X162652605Y-91254318D01*
X162708342Y-91422525D01*
X162801366Y-91573339D01*
X162801371Y-91573345D01*
X162807279Y-91579253D01*
X162826815Y-91579253D01*
X162846083Y-91568731D01*
X162916899Y-91573794D01*
X162961966Y-91602756D01*
X163756518Y-92397308D01*
X163684371Y-92425874D01*
X163551508Y-92522405D01*
X163446825Y-92648945D01*
X163396558Y-92755767D01*
X162554093Y-91913302D01*
X162554091Y-91913302D01*
X162501968Y-91978664D01*
X162366480Y-92213335D01*
X162267481Y-92465583D01*
X162267480Y-92465586D01*
X162207180Y-92729772D01*
X162186930Y-93000000D01*
X162207180Y-93270227D01*
X162267480Y-93534413D01*
X162267481Y-93534416D01*
X162366480Y-93786664D01*
X162501968Y-94021335D01*
X162554092Y-94086696D01*
X162554093Y-94086696D01*
X163396065Y-93244724D01*
X163407188Y-93278956D01*
X163495186Y-93417619D01*
X163614903Y-93530040D01*
X163753160Y-93606048D01*
X162912455Y-94446752D01*
X162912455Y-94446753D01*
X163093469Y-94570167D01*
X163093470Y-94570168D01*
X163337602Y-94687735D01*
X163596547Y-94767611D01*
X163596555Y-94767612D01*
X163864513Y-94808000D01*
X164135487Y-94808000D01*
X164403444Y-94767612D01*
X164403452Y-94767611D01*
X164662397Y-94687735D01*
X164906529Y-94570168D01*
X164906530Y-94570167D01*
X165087544Y-94446753D01*
X164243482Y-93602691D01*
X164315629Y-93574126D01*
X164448492Y-93477595D01*
X164553175Y-93351055D01*
X164603441Y-93244232D01*
X165445906Y-94086697D01*
X165445907Y-94086696D01*
X165498025Y-94021343D01*
X165498031Y-94021335D01*
X165633519Y-93786664D01*
X165732518Y-93534416D01*
X165732520Y-93534410D01*
X165751615Y-93450750D01*
X165786273Y-93388788D01*
X165848929Y-93355400D01*
X165919690Y-93361186D01*
X165976089Y-93404310D01*
X166000220Y-93471080D01*
X166000456Y-93478810D01*
X166000011Y-95936652D01*
X165979997Y-96004769D01*
X165949148Y-96037775D01*
X162533457Y-98575146D01*
X162466846Y-98599711D01*
X162458320Y-98600000D01*
X159999999Y-98600000D01*
X159980934Y-98619065D01*
X159918621Y-98653090D01*
X159857149Y-98648694D01*
X159856766Y-98650318D01*
X159849096Y-98648505D01*
X159788597Y-98642000D01*
X159144000Y-98642000D01*
X159144000Y-99566325D01*
X159032315Y-99515320D01*
X158925763Y-99500000D01*
X158854237Y-99500000D01*
X158747685Y-99515320D01*
X158636000Y-99566325D01*
X158636000Y-98642000D01*
X157991402Y-98642000D01*
X157930906Y-98648505D01*
X157794035Y-98699555D01*
X157794034Y-98699555D01*
X157677095Y-98787095D01*
X157589555Y-98904034D01*
X157589555Y-98904035D01*
X157538505Y-99040906D01*
X157532000Y-99101402D01*
X157532000Y-99746000D01*
X158458884Y-99746000D01*
X158430507Y-99790156D01*
X158390000Y-99928111D01*
X158390000Y-100071889D01*
X158430507Y-100209844D01*
X158458884Y-100254000D01*
X157532000Y-100254000D01*
X157532000Y-100898597D01*
X157538505Y-100959093D01*
X157589555Y-101095964D01*
X157589555Y-101095965D01*
X157677095Y-101212904D01*
X157794034Y-101300444D01*
X157930906Y-101351494D01*
X157991402Y-101357999D01*
X157991415Y-101358000D01*
X158636000Y-101358000D01*
X158636000Y-100433674D01*
X158747685Y-100484680D01*
X158854237Y-100500000D01*
X158925763Y-100500000D01*
X159032315Y-100484680D01*
X159144000Y-100433674D01*
X159144000Y-101358000D01*
X159788585Y-101358000D01*
X159788597Y-101357999D01*
X159856930Y-101350652D01*
X159857194Y-101353110D01*
X159915909Y-101356253D01*
X159973498Y-101397774D01*
X159999498Y-101463839D01*
X160000000Y-101475079D01*
X160000000Y-101500000D01*
X165128596Y-103965671D01*
X165181322Y-104013213D01*
X165200000Y-104079228D01*
X165200000Y-105491861D01*
X165179998Y-105559982D01*
X165147082Y-105591367D01*
X165148437Y-105593132D01*
X165015295Y-105695295D01*
X164918164Y-105821878D01*
X164918159Y-105821886D01*
X164857097Y-105969303D01*
X164841500Y-106087779D01*
X164841500Y-106362227D01*
X164841733Y-106365773D01*
X164826221Y-106435055D01*
X164775716Y-106484952D01*
X164716002Y-106500000D01*
X163148500Y-106500000D01*
X163080379Y-106479998D01*
X163033886Y-106426342D01*
X163022500Y-106374000D01*
X163022500Y-105903367D01*
X163022499Y-105903350D01*
X163015990Y-105842803D01*
X163015988Y-105842795D01*
X162964889Y-105705797D01*
X162964887Y-105705792D01*
X162877261Y-105588738D01*
X162760207Y-105501112D01*
X162760202Y-105501110D01*
X162623204Y-105450011D01*
X162623196Y-105450009D01*
X162562649Y-105443500D01*
X162562638Y-105443500D01*
X162237450Y-105443500D01*
X162178244Y-105428723D01*
X160755293Y-104671257D01*
X160704560Y-104621592D01*
X160688499Y-104560034D01*
X160688499Y-104350010D01*
X160685629Y-104313535D01*
X160676889Y-104283452D01*
X160640269Y-104157404D01*
X160640267Y-104157402D01*
X160640267Y-104157399D01*
X160557507Y-104017460D01*
X160557501Y-104017453D01*
X160442546Y-103902498D01*
X160442539Y-103902492D01*
X160302600Y-103819732D01*
X160146465Y-103774370D01*
X160109993Y-103771500D01*
X160109989Y-103771500D01*
X159843337Y-103771500D01*
X159710010Y-103771501D01*
X159673535Y-103774370D01*
X159517400Y-103819732D01*
X159464138Y-103851231D01*
X159395321Y-103868690D01*
X159335862Y-103851231D01*
X159282599Y-103819732D01*
X159126465Y-103774370D01*
X159089977Y-103771499D01*
X159091831Y-103771572D01*
X159037595Y-103756893D01*
X157519186Y-102948613D01*
X157489297Y-102926485D01*
X157341519Y-102778707D01*
X157331786Y-102766559D01*
X157331527Y-102766774D01*
X157326479Y-102760671D01*
X157326477Y-102760668D01*
X157277292Y-102714480D01*
X157267184Y-102704372D01*
X157256920Y-102694107D01*
X157251659Y-102690026D01*
X157247146Y-102686171D01*
X157214111Y-102655149D01*
X157214106Y-102655145D01*
X157197336Y-102645926D01*
X157180808Y-102635069D01*
X157165686Y-102623339D01*
X157165687Y-102623339D01*
X157165685Y-102623338D01*
X157165681Y-102623336D01*
X157165679Y-102623335D01*
X157140911Y-102612617D01*
X157124081Y-102605333D01*
X157118754Y-102602724D01*
X157079030Y-102580886D01*
X157060481Y-102576123D01*
X157041784Y-102569721D01*
X157024215Y-102562118D01*
X156979439Y-102555026D01*
X156973625Y-102553822D01*
X156949803Y-102547706D01*
X156929725Y-102542551D01*
X156929724Y-102542551D01*
X156910587Y-102542551D01*
X156890876Y-102541000D01*
X156871967Y-102538005D01*
X156871966Y-102538005D01*
X156826834Y-102542271D01*
X156820901Y-102542551D01*
X156787815Y-102542551D01*
X156728610Y-102527774D01*
X156280090Y-102289018D01*
X155527794Y-101888555D01*
X155477061Y-101838889D01*
X155461000Y-101777332D01*
X155461000Y-92121343D01*
X155481002Y-92053222D01*
X155492175Y-92038371D01*
X155578029Y-91940253D01*
X161612663Y-85043528D01*
X161672574Y-85005434D01*
X161707488Y-85000500D01*
X165875970Y-85000500D01*
X165944091Y-85020502D01*
G37*
%TD.AperFunction*%
%TD*%
%TA.AperFunction,Conductor*%
%TO.N,VBUS*%
G36*
X149942121Y-85020502D02*
G01*
X149988614Y-85074158D01*
X150000000Y-85126500D01*
X150000000Y-100374000D01*
X149979998Y-100442121D01*
X149926342Y-100488614D01*
X149874000Y-100500000D01*
X144527626Y-100500000D01*
X144459505Y-100479998D01*
X144413012Y-100426342D01*
X144401636Y-100372385D01*
X144476024Y-94570168D01*
X144534615Y-90000004D01*
X145487308Y-90000004D01*
X145506052Y-90274048D01*
X145506053Y-90274054D01*
X145561942Y-90543011D01*
X145561944Y-90543019D01*
X145653938Y-90801865D01*
X145780314Y-91045756D01*
X145780316Y-91045759D01*
X145910541Y-91230248D01*
X146707666Y-90433123D01*
X146716284Y-90452478D01*
X146827486Y-90605534D01*
X146968080Y-90732126D01*
X147068883Y-90790324D01*
X146270714Y-91588493D01*
X146285780Y-91600751D01*
X146287619Y-91600657D01*
X146346086Y-91568731D01*
X146416902Y-91573795D01*
X146461966Y-91602756D01*
X147256518Y-92397308D01*
X147184371Y-92425874D01*
X147051508Y-92522405D01*
X146946825Y-92648945D01*
X146896558Y-92755767D01*
X146054093Y-91913302D01*
X146054091Y-91913302D01*
X146001968Y-91978664D01*
X145866480Y-92213335D01*
X145767481Y-92465583D01*
X145767480Y-92465586D01*
X145707180Y-92729772D01*
X145686930Y-93000000D01*
X145707180Y-93270227D01*
X145767480Y-93534413D01*
X145767481Y-93534416D01*
X145866480Y-93786664D01*
X146001968Y-94021335D01*
X146054092Y-94086696D01*
X146054093Y-94086696D01*
X146896065Y-93244724D01*
X146907188Y-93278956D01*
X146995186Y-93417619D01*
X147114903Y-93530040D01*
X147253160Y-93606048D01*
X146412455Y-94446752D01*
X146412455Y-94446753D01*
X146593469Y-94570167D01*
X146593470Y-94570168D01*
X146837602Y-94687735D01*
X147096547Y-94767611D01*
X147096555Y-94767612D01*
X147364513Y-94808000D01*
X147635487Y-94808000D01*
X147903444Y-94767612D01*
X147903452Y-94767611D01*
X148162397Y-94687735D01*
X148406529Y-94570168D01*
X148406530Y-94570167D01*
X148587544Y-94446753D01*
X147743482Y-93602691D01*
X147815629Y-93574126D01*
X147948492Y-93477595D01*
X148053175Y-93351055D01*
X148103441Y-93244232D01*
X148945906Y-94086697D01*
X148945907Y-94086696D01*
X148998025Y-94021343D01*
X148998031Y-94021335D01*
X149133519Y-93786664D01*
X149232518Y-93534416D01*
X149232519Y-93534413D01*
X149292819Y-93270227D01*
X149313069Y-93000000D01*
X149292819Y-92729772D01*
X149232519Y-92465586D01*
X149232518Y-92465583D01*
X149133519Y-92213335D01*
X148998031Y-91978664D01*
X148945906Y-91913302D01*
X148945905Y-91913302D01*
X148103933Y-92755273D01*
X148092812Y-92721044D01*
X148004814Y-92582381D01*
X147885097Y-92469960D01*
X147746838Y-92393951D01*
X148538031Y-91602757D01*
X148600344Y-91568732D01*
X148671159Y-91573796D01*
X148713002Y-91600688D01*
X148714217Y-91600750D01*
X148729283Y-91588494D01*
X148729284Y-91588493D01*
X147931115Y-90790324D01*
X148031920Y-90732126D01*
X148172514Y-90605534D01*
X148283716Y-90452479D01*
X148292333Y-90433123D01*
X149089457Y-91230247D01*
X149219682Y-91045762D01*
X149219685Y-91045756D01*
X149346061Y-90801865D01*
X149438055Y-90543019D01*
X149438057Y-90543011D01*
X149493946Y-90274054D01*
X149493947Y-90274048D01*
X149512692Y-90000004D01*
X149512692Y-89999995D01*
X149493947Y-89725951D01*
X149493946Y-89725945D01*
X149438057Y-89456988D01*
X149438055Y-89456980D01*
X149346061Y-89198134D01*
X149219685Y-88954243D01*
X149219681Y-88954237D01*
X149089457Y-88769750D01*
X148292332Y-89566875D01*
X148283716Y-89547522D01*
X148172514Y-89394466D01*
X148031920Y-89267874D01*
X147931114Y-89209674D01*
X148729283Y-88411504D01*
X148660680Y-88355691D01*
X148425969Y-88212961D01*
X148174010Y-88103519D01*
X147909490Y-88029404D01*
X147637364Y-87992000D01*
X147362635Y-87992000D01*
X147090509Y-88029404D01*
X146825989Y-88103519D01*
X146574030Y-88212961D01*
X146339325Y-88355687D01*
X146270715Y-88411505D01*
X146270714Y-88411505D01*
X147068884Y-89209675D01*
X146968080Y-89267874D01*
X146827486Y-89394466D01*
X146716284Y-89547521D01*
X146707666Y-89566875D01*
X145910541Y-88769750D01*
X145780317Y-88954236D01*
X145653938Y-89198134D01*
X145561944Y-89456980D01*
X145561942Y-89456988D01*
X145506053Y-89725945D01*
X145506052Y-89725951D01*
X145487308Y-89999995D01*
X145487308Y-90000004D01*
X144534615Y-90000004D01*
X144534615Y-89999998D01*
X144597117Y-85124885D01*
X144617991Y-85057026D01*
X144672238Y-85011225D01*
X144723107Y-85000500D01*
X149874000Y-85000500D01*
X149942121Y-85020502D01*
G37*
%TD.AperFunction*%
%TD*%
%TA.AperFunction,Conductor*%
%TO.N,VCC*%
G36*
X148730000Y-109285441D02*
G01*
X148709998Y-109353562D01*
X148682712Y-109383830D01*
X147460000Y-110361999D01*
X147460000Y-111183970D01*
X147439998Y-111252091D01*
X147423096Y-111273065D01*
X147379636Y-111316526D01*
X147355067Y-111341095D01*
X147292755Y-111375120D01*
X147265971Y-111378000D01*
X145808000Y-111378000D01*
X145739879Y-111357998D01*
X145693386Y-111304342D01*
X145682000Y-111252000D01*
X145682000Y-110142899D01*
X145699956Y-110078073D01*
X146300274Y-109077541D01*
X148730000Y-109067245D01*
X148730000Y-109285441D01*
G37*
%TD.AperFunction*%
%TD*%
%TA.AperFunction,Conductor*%
%TO.N,/M1B*%
G36*
X132878121Y-85020502D02*
G01*
X132924614Y-85074158D01*
X132936000Y-85126500D01*
X132936000Y-88016000D01*
X132915998Y-88084121D01*
X132862342Y-88130614D01*
X132810000Y-88142000D01*
X132004000Y-88142000D01*
X132004000Y-89241316D01*
X131929143Y-89215123D01*
X131794926Y-89200000D01*
X131705074Y-89200000D01*
X131570857Y-89215123D01*
X131496000Y-89241316D01*
X131496000Y-88142000D01*
X130599492Y-88142000D01*
X130495681Y-88152605D01*
X130327474Y-88208342D01*
X130176660Y-88301366D01*
X130176654Y-88301371D01*
X130051371Y-88426654D01*
X130051366Y-88426660D01*
X129958342Y-88577474D01*
X129902606Y-88745678D01*
X129902605Y-88745681D01*
X129892000Y-88849484D01*
X129892000Y-89746000D01*
X130991316Y-89746000D01*
X130965123Y-89820857D01*
X130944938Y-90000000D01*
X130965123Y-90179143D01*
X130991316Y-90254000D01*
X129892001Y-90254000D01*
X129892001Y-91150507D01*
X129902605Y-91254320D01*
X129955330Y-91413435D01*
X129957770Y-91484389D01*
X129921461Y-91545399D01*
X129912523Y-91552529D01*
X129912455Y-91553254D01*
X130756518Y-92397316D01*
X130684371Y-92425882D01*
X130551508Y-92522413D01*
X130446825Y-92648953D01*
X130396558Y-92755775D01*
X129554093Y-91913310D01*
X129554091Y-91913310D01*
X129501968Y-91978672D01*
X129366480Y-92213343D01*
X129267481Y-92465591D01*
X129267480Y-92465594D01*
X129207180Y-92729780D01*
X129186930Y-93000008D01*
X129207180Y-93270235D01*
X129267480Y-93534421D01*
X129267481Y-93534424D01*
X129366480Y-93786672D01*
X129501968Y-94021343D01*
X129554092Y-94086704D01*
X129554093Y-94086704D01*
X130396065Y-93244732D01*
X130407188Y-93278964D01*
X130495186Y-93417627D01*
X130614903Y-93530048D01*
X130753160Y-93606056D01*
X129912455Y-94446760D01*
X129912455Y-94446761D01*
X130093469Y-94570175D01*
X130093470Y-94570176D01*
X130337602Y-94687743D01*
X130596547Y-94767619D01*
X130596555Y-94767620D01*
X130864513Y-94808008D01*
X131135487Y-94808008D01*
X131403444Y-94767620D01*
X131403452Y-94767619D01*
X131662397Y-94687743D01*
X131906529Y-94570176D01*
X131906530Y-94570175D01*
X132087544Y-94446761D01*
X131243482Y-93602699D01*
X131315629Y-93574134D01*
X131448492Y-93477603D01*
X131553175Y-93351063D01*
X131603441Y-93244240D01*
X132445906Y-94086705D01*
X132445907Y-94086704D01*
X132498025Y-94021351D01*
X132498031Y-94021343D01*
X132633519Y-93786672D01*
X132692710Y-93635855D01*
X132736216Y-93579751D01*
X132803149Y-93556074D01*
X132872256Y-93572343D01*
X132921598Y-93623391D01*
X132936000Y-93681888D01*
X132936000Y-96979282D01*
X132915998Y-97047403D01*
X132875634Y-97086837D01*
X129867010Y-98922807D01*
X129798442Y-98941218D01*
X129730806Y-98919635D01*
X129700508Y-98890762D01*
X129622902Y-98787094D01*
X129505965Y-98699555D01*
X129369093Y-98648505D01*
X129308597Y-98642000D01*
X128664000Y-98642000D01*
X128664000Y-99566325D01*
X128552315Y-99515320D01*
X128445763Y-99500000D01*
X128374237Y-99500000D01*
X128267685Y-99515320D01*
X128156000Y-99566325D01*
X128156000Y-98642000D01*
X127511402Y-98642000D01*
X127450906Y-98648505D01*
X127314035Y-98699555D01*
X127314034Y-98699555D01*
X127197095Y-98787095D01*
X127109555Y-98904034D01*
X127109555Y-98904035D01*
X127058505Y-99040906D01*
X127052000Y-99101402D01*
X127052000Y-99746000D01*
X127978884Y-99746000D01*
X127950507Y-99790156D01*
X127910000Y-99928111D01*
X127910000Y-100071889D01*
X127950507Y-100209844D01*
X127978884Y-100254000D01*
X127052000Y-100254000D01*
X127052000Y-100898597D01*
X127058505Y-100959093D01*
X127109555Y-101095964D01*
X127109555Y-101095965D01*
X127197095Y-101212904D01*
X127314034Y-101300444D01*
X127450906Y-101351494D01*
X127511402Y-101357999D01*
X127511415Y-101358000D01*
X128156000Y-101358000D01*
X128156000Y-100433674D01*
X128267685Y-100484680D01*
X128374237Y-100500000D01*
X128445763Y-100500000D01*
X128552315Y-100484680D01*
X128664000Y-100433674D01*
X128664000Y-101358000D01*
X129254000Y-101358000D01*
X129322121Y-101378002D01*
X129368614Y-101431658D01*
X129380000Y-101484000D01*
X129380000Y-101787223D01*
X129359998Y-101855344D01*
X129306342Y-101901837D01*
X129253226Y-101913221D01*
X127100000Y-101900000D01*
X127021102Y-105647572D01*
X126999671Y-105715257D01*
X126995093Y-105721624D01*
X126918161Y-105821883D01*
X126918159Y-105821886D01*
X126857097Y-105969303D01*
X126841500Y-106087779D01*
X126841500Y-106362217D01*
X126841501Y-106362226D01*
X126857099Y-106480704D01*
X126859009Y-106487834D01*
X126857316Y-106558810D01*
X126817519Y-106617604D01*
X126752253Y-106645548D01*
X126735598Y-106646426D01*
X126308613Y-106640656D01*
X126300492Y-106640021D01*
X126276001Y-106636500D01*
X126276000Y-106636500D01*
X126001004Y-106636500D01*
X120124797Y-106557090D01*
X120056953Y-106536170D01*
X120011190Y-106481891D01*
X120000500Y-106431102D01*
X120000500Y-94176000D01*
X120020502Y-94107879D01*
X120074158Y-94061386D01*
X120126500Y-94050000D01*
X121255522Y-94050000D01*
X121323643Y-94070002D01*
X121370136Y-94123658D01*
X121380240Y-94193932D01*
X121350747Y-94258512D01*
X121267934Y-94354083D01*
X121267930Y-94354088D01*
X121162089Y-94537412D01*
X121162086Y-94537419D01*
X121092848Y-94737469D01*
X121092845Y-94737480D01*
X121062718Y-94947014D01*
X121072790Y-95158463D01*
X121072792Y-95158476D01*
X121122700Y-95364198D01*
X121122702Y-95364204D01*
X121210644Y-95556771D01*
X121210648Y-95556778D01*
X121333435Y-95729208D01*
X121333439Y-95729213D01*
X121333441Y-95729215D01*
X121486654Y-95875303D01*
X121486656Y-95875304D01*
X121516804Y-95894679D01*
X121563297Y-95948335D01*
X121573401Y-96018609D01*
X121543907Y-96083189D01*
X121526571Y-96099720D01*
X121406564Y-96194094D01*
X121267938Y-96354077D01*
X121267930Y-96354088D01*
X121162089Y-96537412D01*
X121162086Y-96537419D01*
X121092848Y-96737469D01*
X121092845Y-96737480D01*
X121062718Y-96947014D01*
X121072790Y-97158463D01*
X121072792Y-97158476D01*
X121122700Y-97364198D01*
X121122702Y-97364204D01*
X121210644Y-97556771D01*
X121210648Y-97556778D01*
X121333435Y-97729208D01*
X121333439Y-97729213D01*
X121333441Y-97729215D01*
X121486654Y-97875303D01*
X121486656Y-97875304D01*
X121516804Y-97894679D01*
X121563297Y-97948335D01*
X121573401Y-98018609D01*
X121543907Y-98083189D01*
X121526571Y-98099720D01*
X121406564Y-98194094D01*
X121267938Y-98354077D01*
X121267930Y-98354088D01*
X121162089Y-98537412D01*
X121162086Y-98537419D01*
X121092848Y-98737469D01*
X121092845Y-98737480D01*
X121062718Y-98947014D01*
X121072790Y-99158463D01*
X121072792Y-99158476D01*
X121122700Y-99364198D01*
X121122702Y-99364204D01*
X121210644Y-99556771D01*
X121210648Y-99556778D01*
X121333435Y-99729208D01*
X121333439Y-99729213D01*
X121333441Y-99729215D01*
X121427181Y-99818596D01*
X121462679Y-99880080D01*
X121459301Y-99950996D01*
X121418120Y-100008828D01*
X121406379Y-100017026D01*
X121351349Y-100050968D01*
X121351341Y-100050975D01*
X121225975Y-100176341D01*
X121225970Y-100176347D01*
X121132885Y-100327262D01*
X121077113Y-100495572D01*
X121077112Y-100495579D01*
X121066500Y-100599446D01*
X121066500Y-101400544D01*
X121077112Y-101504425D01*
X121132885Y-101672738D01*
X121225970Y-101823652D01*
X121225975Y-101823658D01*
X121351341Y-101949024D01*
X121351347Y-101949029D01*
X121351348Y-101949030D01*
X121502262Y-102042115D01*
X121670574Y-102097887D01*
X121774455Y-102108500D01*
X123125544Y-102108499D01*
X123229426Y-102097887D01*
X123397738Y-102042115D01*
X123548652Y-101949030D01*
X123674030Y-101823652D01*
X123767115Y-101672738D01*
X123822887Y-101504426D01*
X123833500Y-101400545D01*
X123833499Y-100599456D01*
X123822887Y-100495574D01*
X123767115Y-100327262D01*
X123674030Y-100176348D01*
X123674029Y-100176347D01*
X123674024Y-100176341D01*
X123548658Y-100050975D01*
X123548649Y-100050968D01*
X123496650Y-100018895D01*
X123449171Y-99966110D01*
X123437768Y-99896035D01*
X123466060Y-99830919D01*
X123484911Y-99812609D01*
X123493435Y-99805906D01*
X123611889Y-99669202D01*
X123632065Y-99645918D01*
X123737913Y-99462582D01*
X123807153Y-99262527D01*
X123822548Y-99155451D01*
X123837281Y-99052985D01*
X123827209Y-98841536D01*
X123827208Y-98841531D01*
X123827208Y-98841526D01*
X123777298Y-98635796D01*
X123689356Y-98443229D01*
X123689353Y-98443225D01*
X123689351Y-98443221D01*
X123566564Y-98270791D01*
X123566555Y-98270781D01*
X123535132Y-98240819D01*
X123413346Y-98124697D01*
X123413343Y-98124695D01*
X123413340Y-98124692D01*
X123383195Y-98105319D01*
X123336702Y-98051664D01*
X123326599Y-97981389D01*
X123356092Y-97916809D01*
X123373429Y-97900279D01*
X123493431Y-97805909D01*
X123493434Y-97805906D01*
X123559893Y-97729208D01*
X123632065Y-97645918D01*
X123737913Y-97462582D01*
X123807153Y-97262527D01*
X123837281Y-97052984D01*
X123832233Y-96947014D01*
X123827209Y-96841536D01*
X123827208Y-96841531D01*
X123827208Y-96841526D01*
X123777298Y-96635796D01*
X123689356Y-96443229D01*
X123689353Y-96443225D01*
X123689351Y-96443221D01*
X123566564Y-96270791D01*
X123566555Y-96270781D01*
X123535132Y-96240819D01*
X123413346Y-96124697D01*
X123413343Y-96124695D01*
X123413340Y-96124692D01*
X123383195Y-96105319D01*
X123336702Y-96051664D01*
X123326599Y-95981389D01*
X123356092Y-95916809D01*
X123373429Y-95900279D01*
X123493431Y-95805909D01*
X123493434Y-95805906D01*
X123559893Y-95729208D01*
X123632065Y-95645918D01*
X123737913Y-95462582D01*
X123807153Y-95262527D01*
X123837281Y-95052984D01*
X123832233Y-94947014D01*
X123827209Y-94841536D01*
X123827208Y-94841531D01*
X123827208Y-94841526D01*
X123777298Y-94635796D01*
X123689356Y-94443229D01*
X123689353Y-94443225D01*
X123689351Y-94443221D01*
X123566564Y-94270791D01*
X123566554Y-94270780D01*
X123562788Y-94267189D01*
X123527291Y-94205703D01*
X123530671Y-94134787D01*
X123571854Y-94076956D01*
X123637765Y-94050570D01*
X123649740Y-94050000D01*
X125699999Y-94050000D01*
X125700000Y-94050000D01*
X127886444Y-88426660D01*
X129187353Y-85080839D01*
X129230681Y-85024597D01*
X129297538Y-85000709D01*
X129304788Y-85000500D01*
X132810000Y-85000500D01*
X132878121Y-85020502D01*
G37*
%TD.AperFunction*%
%TD*%
%TA.AperFunction,Conductor*%
%TO.N,/M1A*%
G36*
X138597039Y-85020502D02*
G01*
X138633405Y-85056084D01*
X143628565Y-92468194D01*
X143650048Y-92535862D01*
X143650078Y-92538351D01*
X143668875Y-101665415D01*
X143649013Y-101733576D01*
X143618033Y-101766804D01*
X143601326Y-101779219D01*
X143586552Y-101793891D01*
X143582324Y-101797724D01*
X137934956Y-106471073D01*
X137869723Y-106499092D01*
X137854626Y-106500000D01*
X137378189Y-106500000D01*
X137310068Y-106479998D01*
X137269737Y-106438141D01*
X137257506Y-106417459D01*
X137257503Y-106417456D01*
X137257502Y-106417454D01*
X137142546Y-106302498D01*
X137142539Y-106302492D01*
X137002600Y-106219732D01*
X136846465Y-106174370D01*
X136809993Y-106171500D01*
X136809989Y-106171500D01*
X136543337Y-106171500D01*
X136410010Y-106171501D01*
X136373535Y-106174370D01*
X136217400Y-106219732D01*
X136164138Y-106251231D01*
X136095321Y-106268690D01*
X136035862Y-106251231D01*
X135982599Y-106219732D01*
X135826465Y-106174370D01*
X135789993Y-106171500D01*
X135789989Y-106171500D01*
X135523337Y-106171500D01*
X135390010Y-106171501D01*
X135353535Y-106174370D01*
X135197402Y-106219731D01*
X135150696Y-106247354D01*
X135086557Y-106264900D01*
X134920871Y-106264900D01*
X134866189Y-106250248D01*
X134865745Y-106251321D01*
X134858116Y-106248161D01*
X134858115Y-106248160D01*
X134710698Y-106187098D01*
X134710696Y-106187097D01*
X134592221Y-106171500D01*
X134592219Y-106171500D01*
X133334500Y-106171500D01*
X133266379Y-106151498D01*
X133219886Y-106097842D01*
X133208500Y-106045500D01*
X133208500Y-105951367D01*
X133208499Y-105951350D01*
X133201990Y-105890803D01*
X133201988Y-105890795D01*
X133158492Y-105774181D01*
X133150889Y-105753796D01*
X133150888Y-105753794D01*
X133150887Y-105753792D01*
X133105306Y-105692904D01*
X133080495Y-105626384D01*
X133095586Y-105557010D01*
X133138115Y-105511358D01*
X139700000Y-101300000D01*
X139700000Y-100791700D01*
X139720002Y-100723579D01*
X139720396Y-100722969D01*
X139734817Y-100700896D01*
X139788820Y-100654810D01*
X139859168Y-100645235D01*
X139923525Y-100675213D01*
X139945782Y-100700898D01*
X140034674Y-100836958D01*
X140187097Y-101002534D01*
X140364698Y-101140767D01*
X140364699Y-101140768D01*
X140562628Y-101247882D01*
X140562630Y-101247883D01*
X140775483Y-101320955D01*
X140775492Y-101320957D01*
X140856000Y-101334391D01*
X140856000Y-100433674D01*
X140967685Y-100484680D01*
X141074237Y-100500000D01*
X141145763Y-100500000D01*
X141252315Y-100484680D01*
X141364000Y-100433674D01*
X141364000Y-101334390D01*
X141444507Y-101320957D01*
X141444516Y-101320955D01*
X141657369Y-101247883D01*
X141657371Y-101247882D01*
X141855300Y-101140768D01*
X141855301Y-101140767D01*
X142032902Y-101002534D01*
X142185325Y-100836958D01*
X142308419Y-100648548D01*
X142398820Y-100442456D01*
X142398823Y-100442449D01*
X142446544Y-100254000D01*
X141541116Y-100254000D01*
X141569493Y-100209844D01*
X141610000Y-100071889D01*
X141610000Y-99928111D01*
X141569493Y-99790156D01*
X141541116Y-99746000D01*
X142446544Y-99746000D01*
X142446544Y-99745999D01*
X142398823Y-99557550D01*
X142398820Y-99557543D01*
X142308419Y-99351451D01*
X142185325Y-99163041D01*
X142032902Y-98997465D01*
X141855301Y-98859232D01*
X141855300Y-98859231D01*
X141657371Y-98752117D01*
X141657369Y-98752116D01*
X141444512Y-98679043D01*
X141444501Y-98679040D01*
X141364000Y-98665606D01*
X141364000Y-99566325D01*
X141252315Y-99515320D01*
X141145763Y-99500000D01*
X141074237Y-99500000D01*
X140967685Y-99515320D01*
X140856000Y-99566325D01*
X140856000Y-98665607D01*
X140855999Y-98665606D01*
X140775498Y-98679040D01*
X140775487Y-98679043D01*
X140562630Y-98752116D01*
X140562628Y-98752117D01*
X140364699Y-98859231D01*
X140364698Y-98859232D01*
X140187097Y-98997465D01*
X140034674Y-99163042D01*
X139945782Y-99299101D01*
X139891778Y-99345189D01*
X139821430Y-99354764D01*
X139757073Y-99324786D01*
X139734815Y-99299099D01*
X139720516Y-99277212D01*
X139700004Y-99209243D01*
X139700000Y-99208298D01*
X139700000Y-98500000D01*
X137540378Y-98500000D01*
X137472257Y-98479998D01*
X137467142Y-98476530D01*
X134052752Y-96037680D01*
X134008946Y-95981810D01*
X133999988Y-95935173D01*
X133999741Y-94574587D01*
X134019731Y-94506466D01*
X134073378Y-94459963D01*
X134143650Y-94449846D01*
X134208236Y-94479328D01*
X134243796Y-94530532D01*
X134249555Y-94545972D01*
X134249555Y-94545973D01*
X134337095Y-94662912D01*
X134454034Y-94750452D01*
X134590906Y-94801502D01*
X134651402Y-94808007D01*
X134651415Y-94808008D01*
X135746000Y-94808008D01*
X135746000Y-93602119D01*
X135758817Y-93609166D01*
X135917886Y-93650008D01*
X136040894Y-93650008D01*
X136162933Y-93634591D01*
X136254000Y-93598534D01*
X136254000Y-94808008D01*
X137348585Y-94808008D01*
X137348597Y-94808007D01*
X137409093Y-94801502D01*
X137545964Y-94750452D01*
X137545965Y-94750452D01*
X137662904Y-94662912D01*
X137750444Y-94545973D01*
X137750444Y-94545972D01*
X137801494Y-94409101D01*
X137807999Y-94348605D01*
X137808000Y-94348593D01*
X137808000Y-93254008D01*
X136598846Y-93254008D01*
X136623100Y-93202465D01*
X136653873Y-93041146D01*
X136643561Y-92877242D01*
X136600921Y-92746008D01*
X137808000Y-92746008D01*
X137808000Y-91651422D01*
X137807999Y-91651410D01*
X137801494Y-91590914D01*
X137750444Y-91454043D01*
X137750444Y-91454042D01*
X137662904Y-91337103D01*
X137545965Y-91249563D01*
X137409094Y-91198513D01*
X137373118Y-91194645D01*
X137307526Y-91167474D01*
X137267036Y-91109156D01*
X137264503Y-91038204D01*
X137276001Y-91008982D01*
X137404412Y-90773814D01*
X137497292Y-90524793D01*
X137553786Y-90265092D01*
X137572745Y-90000000D01*
X137553786Y-89734907D01*
X137497292Y-89475206D01*
X137404412Y-89226185D01*
X137277039Y-88992919D01*
X137191096Y-88878113D01*
X137191095Y-88878112D01*
X136428843Y-89640364D01*
X136339423Y-89498052D01*
X136211948Y-89370577D01*
X136069634Y-89281155D01*
X136831886Y-88518903D01*
X136717076Y-88432958D01*
X136483814Y-88305587D01*
X136234793Y-88212707D01*
X135975092Y-88156213D01*
X135710000Y-88137254D01*
X135444907Y-88156213D01*
X135185206Y-88212707D01*
X134936185Y-88305587D01*
X134702924Y-88432957D01*
X134588113Y-88518902D01*
X134588112Y-88518903D01*
X135350365Y-89281156D01*
X135208052Y-89370577D01*
X135080577Y-89498052D01*
X134991155Y-89640365D01*
X134228903Y-88878112D01*
X134228901Y-88878113D01*
X134225562Y-88882574D01*
X134168726Y-88925119D01*
X134097910Y-88930183D01*
X134035598Y-88896157D01*
X134001574Y-88833844D01*
X133998696Y-88807102D01*
X133998030Y-85126523D01*
X134018020Y-85058398D01*
X134071667Y-85011896D01*
X134124030Y-85000500D01*
X138528918Y-85000500D01*
X138597039Y-85020502D01*
G37*
%TD.AperFunction*%
%TD*%
%TA.AperFunction,Conductor*%
%TO.N,GND*%
G36*
X132575642Y-110024424D02*
G01*
X132642590Y-110044419D01*
X132688100Y-110097434D01*
X132699064Y-110149355D01*
X132688157Y-111599999D01*
X132688158Y-111600000D01*
X132675000Y-113350000D01*
X127300000Y-113750000D01*
X127300000Y-110124575D01*
X127319685Y-110057536D01*
X127372489Y-110011781D01*
X127424570Y-110000576D01*
X132575642Y-110024424D01*
G37*
%TD.AperFunction*%
%TD*%
%TA.AperFunction,Conductor*%
%TO.N,/M2A*%
G36*
X171575900Y-85020502D02*
G01*
X171622393Y-85074158D01*
X171628471Y-85090313D01*
X172849862Y-89163987D01*
X172851743Y-89172233D01*
X172867562Y-89272098D01*
X172867563Y-89272106D01*
X172968168Y-89647568D01*
X173089204Y-89962877D01*
X173090735Y-89967362D01*
X173860759Y-92535595D01*
X174000000Y-93000000D01*
X179873500Y-93000000D01*
X179941621Y-93020002D01*
X179988114Y-93073658D01*
X179999500Y-93126000D01*
X179999500Y-104118827D01*
X179979498Y-104186948D01*
X179925842Y-104233441D01*
X179925300Y-104233687D01*
X179025659Y-104639407D01*
X178955338Y-104649178D01*
X178899798Y-104626483D01*
X178806756Y-104558884D01*
X178632288Y-104481206D01*
X178445487Y-104441500D01*
X178254513Y-104441500D01*
X178067711Y-104481206D01*
X177893247Y-104558882D01*
X177738744Y-104671135D01*
X177610965Y-104813048D01*
X177610958Y-104813058D01*
X177515476Y-104978438D01*
X177515473Y-104978445D01*
X177456457Y-105160072D01*
X177443993Y-105278670D01*
X177416980Y-105344327D01*
X177358759Y-105384957D01*
X177318683Y-105391500D01*
X177204513Y-105391500D01*
X177017711Y-105431206D01*
X176843243Y-105508884D01*
X176832043Y-105517022D01*
X176765175Y-105540881D01*
X176722829Y-105536083D01*
X176596465Y-105499370D01*
X176559993Y-105496500D01*
X176559989Y-105496500D01*
X176293337Y-105496500D01*
X176160010Y-105496501D01*
X176123535Y-105499370D01*
X175967400Y-105544732D01*
X175914138Y-105576231D01*
X175845321Y-105593690D01*
X175785862Y-105576231D01*
X175732599Y-105544732D01*
X175576465Y-105499370D01*
X175539993Y-105496500D01*
X175539989Y-105496500D01*
X175273337Y-105496500D01*
X175140010Y-105496501D01*
X175103535Y-105499370D01*
X174947399Y-105544732D01*
X174807460Y-105627492D01*
X174807453Y-105627498D01*
X174692498Y-105742453D01*
X174692492Y-105742460D01*
X174609732Y-105882399D01*
X174564370Y-106038534D01*
X174564370Y-106038535D01*
X174561596Y-106073787D01*
X174536311Y-106140128D01*
X174479172Y-106182267D01*
X174435985Y-106189900D01*
X172737742Y-106189900D01*
X172718983Y-106187430D01*
X172718885Y-106188176D01*
X172710698Y-106187098D01*
X172670108Y-106181754D01*
X172592221Y-106171500D01*
X172592219Y-106171500D01*
X171334500Y-106171500D01*
X171266379Y-106151498D01*
X171219886Y-106097842D01*
X171208500Y-106045500D01*
X171208500Y-105951367D01*
X171208499Y-105951350D01*
X171201990Y-105890803D01*
X171201988Y-105890795D01*
X171150889Y-105753797D01*
X171150887Y-105753792D01*
X171125132Y-105719388D01*
X171100321Y-105652868D01*
X171100000Y-105643879D01*
X171100000Y-104728004D01*
X171100000Y-104728000D01*
X170501999Y-101411087D01*
X170500000Y-101388731D01*
X170500000Y-101130214D01*
X170520002Y-101062093D01*
X170573658Y-101015600D01*
X170643932Y-101005496D01*
X170703391Y-101030783D01*
X170844690Y-101140762D01*
X170844699Y-101140768D01*
X171042628Y-101247882D01*
X171042630Y-101247883D01*
X171255483Y-101320955D01*
X171255492Y-101320957D01*
X171336000Y-101334391D01*
X171336000Y-100433674D01*
X171447685Y-100484680D01*
X171554237Y-100500000D01*
X171625763Y-100500000D01*
X171732315Y-100484680D01*
X171844000Y-100433674D01*
X171844000Y-101334390D01*
X171924507Y-101320957D01*
X171924516Y-101320955D01*
X172137369Y-101247883D01*
X172137371Y-101247882D01*
X172335300Y-101140768D01*
X172335301Y-101140767D01*
X172512902Y-101002534D01*
X172665325Y-100836958D01*
X172788419Y-100648548D01*
X172876821Y-100447014D01*
X175962718Y-100447014D01*
X175972790Y-100658463D01*
X175972792Y-100658476D01*
X176022700Y-100864198D01*
X176022702Y-100864204D01*
X176110644Y-101056771D01*
X176110648Y-101056778D01*
X176233435Y-101229208D01*
X176233439Y-101229213D01*
X176233441Y-101229215D01*
X176386654Y-101375303D01*
X176564746Y-101489756D01*
X176761279Y-101568436D01*
X176969151Y-101608500D01*
X176969155Y-101608500D01*
X177677801Y-101608500D01*
X177677803Y-101608500D01*
X177835739Y-101593419D01*
X178038862Y-101533777D01*
X178227026Y-101436771D01*
X178393432Y-101305908D01*
X178532065Y-101145918D01*
X178637913Y-100962582D01*
X178707153Y-100762527D01*
X178737281Y-100552984D01*
X178731182Y-100424952D01*
X178727209Y-100341536D01*
X178727208Y-100341531D01*
X178727208Y-100341526D01*
X178677298Y-100135796D01*
X178589356Y-99943229D01*
X178589353Y-99943225D01*
X178589351Y-99943221D01*
X178466564Y-99770791D01*
X178466555Y-99770781D01*
X178435132Y-99740819D01*
X178313346Y-99624697D01*
X178313343Y-99624695D01*
X178313340Y-99624692D01*
X178283195Y-99605319D01*
X178236702Y-99551664D01*
X178226599Y-99481389D01*
X178256092Y-99416809D01*
X178273429Y-99400279D01*
X178393431Y-99305909D01*
X178393434Y-99305906D01*
X178459893Y-99229208D01*
X178532065Y-99145918D01*
X178637913Y-98962582D01*
X178707153Y-98762527D01*
X178737281Y-98552984D01*
X178732233Y-98447014D01*
X178727209Y-98341536D01*
X178727208Y-98341531D01*
X178727208Y-98341526D01*
X178677298Y-98135796D01*
X178589356Y-97943229D01*
X178589353Y-97943225D01*
X178589351Y-97943221D01*
X178466564Y-97770791D01*
X178466555Y-97770781D01*
X178435132Y-97740819D01*
X178313346Y-97624697D01*
X178313343Y-97624695D01*
X178313340Y-97624692D01*
X178283195Y-97605319D01*
X178236702Y-97551664D01*
X178226599Y-97481389D01*
X178256092Y-97416809D01*
X178273429Y-97400279D01*
X178393431Y-97305909D01*
X178393434Y-97305906D01*
X178459893Y-97229208D01*
X178532065Y-97145918D01*
X178637913Y-96962582D01*
X178707153Y-96762527D01*
X178737281Y-96552984D01*
X178732233Y-96447014D01*
X178727209Y-96341536D01*
X178727208Y-96341531D01*
X178727208Y-96341526D01*
X178677298Y-96135796D01*
X178589356Y-95943229D01*
X178589353Y-95943225D01*
X178589351Y-95943221D01*
X178466564Y-95770791D01*
X178466555Y-95770781D01*
X178446401Y-95751564D01*
X178372817Y-95681402D01*
X178337320Y-95619919D01*
X178340698Y-95549003D01*
X178381880Y-95491171D01*
X178393597Y-95482987D01*
X178448652Y-95449030D01*
X178574030Y-95323652D01*
X178667115Y-95172738D01*
X178722887Y-95004426D01*
X178733500Y-94900545D01*
X178733499Y-94099456D01*
X178722887Y-93995574D01*
X178667115Y-93827262D01*
X178574030Y-93676348D01*
X178574029Y-93676347D01*
X178574024Y-93676341D01*
X178448658Y-93550975D01*
X178448652Y-93550970D01*
X178414719Y-93530040D01*
X178297738Y-93457885D01*
X178176221Y-93417619D01*
X178129427Y-93402113D01*
X178129420Y-93402112D01*
X178025553Y-93391500D01*
X176674455Y-93391500D01*
X176570574Y-93402112D01*
X176402261Y-93457885D01*
X176251347Y-93550970D01*
X176251341Y-93550975D01*
X176125975Y-93676341D01*
X176125970Y-93676347D01*
X176032885Y-93827262D01*
X175977113Y-93995572D01*
X175977112Y-93995579D01*
X175966500Y-94099446D01*
X175966500Y-94900544D01*
X175977112Y-95004425D01*
X176032885Y-95172738D01*
X176125970Y-95323652D01*
X176125975Y-95323658D01*
X176251341Y-95449024D01*
X176251347Y-95449029D01*
X176251348Y-95449030D01*
X176303350Y-95481105D01*
X176350828Y-95533891D01*
X176362231Y-95603966D01*
X176333938Y-95669082D01*
X176315096Y-95687384D01*
X176306576Y-95694084D01*
X176306556Y-95694103D01*
X176167938Y-95854077D01*
X176167930Y-95854088D01*
X176062089Y-96037412D01*
X176062086Y-96037419D01*
X175992848Y-96237469D01*
X175992845Y-96237480D01*
X175962718Y-96447014D01*
X175972790Y-96658463D01*
X175972792Y-96658476D01*
X176022700Y-96864198D01*
X176022702Y-96864204D01*
X176110644Y-97056771D01*
X176110648Y-97056778D01*
X176233435Y-97229208D01*
X176233439Y-97229213D01*
X176233441Y-97229215D01*
X176386654Y-97375303D01*
X176386656Y-97375304D01*
X176416804Y-97394679D01*
X176463297Y-97448335D01*
X176473401Y-97518609D01*
X176443907Y-97583189D01*
X176426571Y-97599720D01*
X176306564Y-97694094D01*
X176167938Y-97854077D01*
X176167930Y-97854088D01*
X176062089Y-98037412D01*
X176062086Y-98037419D01*
X175992848Y-98237469D01*
X175992845Y-98237480D01*
X175962718Y-98447014D01*
X175972790Y-98658463D01*
X175972792Y-98658476D01*
X176022700Y-98864198D01*
X176022702Y-98864204D01*
X176110644Y-99056771D01*
X176110648Y-99056778D01*
X176233435Y-99229208D01*
X176233439Y-99229213D01*
X176233441Y-99229215D01*
X176386654Y-99375303D01*
X176386656Y-99375304D01*
X176416804Y-99394679D01*
X176463297Y-99448335D01*
X176473401Y-99518609D01*
X176443907Y-99583189D01*
X176426571Y-99599720D01*
X176306564Y-99694094D01*
X176167938Y-99854077D01*
X176167930Y-99854088D01*
X176062089Y-100037412D01*
X176062086Y-100037419D01*
X175992848Y-100237469D01*
X175992845Y-100237480D01*
X175962718Y-100447014D01*
X172876821Y-100447014D01*
X172878820Y-100442456D01*
X172878823Y-100442449D01*
X172926544Y-100254000D01*
X172021116Y-100254000D01*
X172049493Y-100209844D01*
X172090000Y-100071889D01*
X172090000Y-99928111D01*
X172049493Y-99790156D01*
X172021116Y-99746000D01*
X172926544Y-99746000D01*
X172926544Y-99745999D01*
X172878823Y-99557550D01*
X172878820Y-99557543D01*
X172788419Y-99351451D01*
X172665325Y-99163041D01*
X172512902Y-98997465D01*
X172335301Y-98859232D01*
X172335300Y-98859231D01*
X172137371Y-98752117D01*
X172137369Y-98752116D01*
X171924512Y-98679043D01*
X171924501Y-98679040D01*
X171844000Y-98665606D01*
X171844000Y-99566325D01*
X171732315Y-99515320D01*
X171625763Y-99500000D01*
X171554237Y-99500000D01*
X171447685Y-99515320D01*
X171336000Y-99566325D01*
X171336000Y-98665607D01*
X171335999Y-98665606D01*
X171255498Y-98679040D01*
X171255487Y-98679043D01*
X171042630Y-98752116D01*
X171042628Y-98752117D01*
X170844699Y-98859231D01*
X170844698Y-98859232D01*
X170703391Y-98969217D01*
X170637349Y-98995273D01*
X170567703Y-98981488D01*
X170516567Y-98932238D01*
X170500000Y-98869785D01*
X170500000Y-98500000D01*
X170499999Y-98499998D01*
X167774179Y-96552985D01*
X167052868Y-96037763D01*
X167009063Y-95981894D01*
X167000105Y-95935032D01*
X167002313Y-94581245D01*
X167022426Y-94513160D01*
X167076158Y-94466755D01*
X167146448Y-94456766D01*
X167210981Y-94486364D01*
X167246368Y-94537420D01*
X167249554Y-94545962D01*
X167249555Y-94545965D01*
X167337095Y-94662904D01*
X167454034Y-94750444D01*
X167590906Y-94801494D01*
X167651402Y-94807999D01*
X167651415Y-94808000D01*
X168746000Y-94808000D01*
X168746000Y-93602111D01*
X168758817Y-93609158D01*
X168917886Y-93650000D01*
X169040894Y-93650000D01*
X169162933Y-93634583D01*
X169254000Y-93598526D01*
X169254000Y-94808000D01*
X170348585Y-94808000D01*
X170348597Y-94807999D01*
X170409093Y-94801494D01*
X170545964Y-94750444D01*
X170545965Y-94750444D01*
X170662904Y-94662904D01*
X170750444Y-94545965D01*
X170750444Y-94545964D01*
X170801494Y-94409093D01*
X170807999Y-94348597D01*
X170808000Y-94348585D01*
X170808000Y-93254000D01*
X169598846Y-93254000D01*
X169623100Y-93202457D01*
X169653873Y-93041138D01*
X169643561Y-92877234D01*
X169600921Y-92746000D01*
X170808000Y-92746000D01*
X170808000Y-91651414D01*
X170807999Y-91651402D01*
X170801494Y-91590906D01*
X170750444Y-91454035D01*
X170750444Y-91454034D01*
X170662904Y-91337095D01*
X170545965Y-91249555D01*
X170409093Y-91198505D01*
X170348597Y-91192000D01*
X170138428Y-91192000D01*
X170070307Y-91171998D01*
X170023814Y-91118342D01*
X170013710Y-91048068D01*
X170027840Y-91005615D01*
X170154412Y-90773814D01*
X170247292Y-90524793D01*
X170303786Y-90265092D01*
X170322745Y-90000000D01*
X170303786Y-89734907D01*
X170247292Y-89475206D01*
X170154412Y-89226185D01*
X170027039Y-88992919D01*
X169941096Y-88878113D01*
X169941095Y-88878112D01*
X169178843Y-89640364D01*
X169089423Y-89498052D01*
X168961948Y-89370577D01*
X168819634Y-89281155D01*
X169581886Y-88518903D01*
X169467076Y-88432958D01*
X169233814Y-88305587D01*
X168984793Y-88212707D01*
X168725092Y-88156213D01*
X168460000Y-88137254D01*
X168194907Y-88156213D01*
X167935206Y-88212707D01*
X167686185Y-88305587D01*
X167452923Y-88432958D01*
X167240162Y-88592230D01*
X167227297Y-88605095D01*
X167164983Y-88639118D01*
X167094168Y-88634051D01*
X167037333Y-88591503D01*
X167012525Y-88524982D01*
X167012204Y-88515811D01*
X167017732Y-85126294D01*
X167037845Y-85058206D01*
X167091577Y-85011801D01*
X167143732Y-85000500D01*
X171507779Y-85000500D01*
X171575900Y-85020502D01*
G37*
%TD.AperFunction*%
%TD*%
%TA.AperFunction,Conductor*%
%TO.N,+3V3*%
G36*
X144764250Y-121304565D02*
G01*
X144777484Y-121318389D01*
X144859340Y-121425065D01*
X144980143Y-121517761D01*
X145120821Y-121576032D01*
X145271788Y-121595907D01*
X145422755Y-121576032D01*
X145563433Y-121517761D01*
X145684236Y-121425065D01*
X145766092Y-121318389D01*
X145816802Y-121286083D01*
X145835827Y-121284000D01*
X146674656Y-121284000D01*
X146718267Y-121295581D01*
X147542711Y-121766692D01*
X147581564Y-121812580D01*
X147587000Y-121843011D01*
X147587000Y-122626611D01*
X147566435Y-122683112D01*
X147561255Y-122688765D01*
X147442967Y-122807054D01*
X147388473Y-122832465D01*
X147380812Y-122832800D01*
X147216976Y-122832800D01*
X147199828Y-122831111D01*
X147182000Y-122827565D01*
X147077743Y-122848302D01*
X147039591Y-122873795D01*
X146989359Y-122907358D01*
X146989358Y-122907359D01*
X146979260Y-122922472D01*
X146968330Y-122935790D01*
X146534508Y-123369612D01*
X146483827Y-123394605D01*
X146444345Y-123399803D01*
X146342613Y-123447242D01*
X146263242Y-123526613D01*
X146215803Y-123628345D01*
X146209700Y-123674702D01*
X146209700Y-124029297D01*
X146215803Y-124075654D01*
X146263242Y-124177386D01*
X146342613Y-124256757D01*
X146347236Y-124259994D01*
X146381726Y-124309246D01*
X146376488Y-124369144D01*
X146347236Y-124404006D01*
X146342613Y-124407242D01*
X146316601Y-124433255D01*
X146262107Y-124458666D01*
X146254446Y-124459000D01*
X146125554Y-124459000D01*
X146069053Y-124438435D01*
X146063399Y-124433255D01*
X146037386Y-124407242D01*
X145935654Y-124359803D01*
X145889298Y-124353700D01*
X145889296Y-124353700D01*
X145474704Y-124353700D01*
X145474702Y-124353700D01*
X145428345Y-124359803D01*
X145326613Y-124407242D01*
X145300601Y-124433255D01*
X145246107Y-124458666D01*
X145238446Y-124459000D01*
X145109554Y-124459000D01*
X145053053Y-124438435D01*
X145047399Y-124433255D01*
X145021386Y-124407242D01*
X144919654Y-124359803D01*
X144873298Y-124353700D01*
X144873296Y-124353700D01*
X144458704Y-124353700D01*
X144458697Y-124353700D01*
X144446892Y-124355254D01*
X144388190Y-124342239D01*
X144354212Y-124301743D01*
X144345691Y-124281171D01*
X144339000Y-124247534D01*
X144339000Y-121371900D01*
X144359565Y-121315399D01*
X144411636Y-121285335D01*
X144426900Y-121284000D01*
X144707749Y-121284000D01*
X144764250Y-121304565D01*
G37*
%TD.AperFunction*%
%TD*%
%TA.AperFunction,Conductor*%
%TO.N,VCC*%
G36*
X147656121Y-102127002D02*
G01*
X147702614Y-102180658D01*
X147714000Y-102233000D01*
X147714000Y-104647000D01*
X147731532Y-104664748D01*
X147739906Y-104667318D01*
X147785742Y-104721536D01*
X147796500Y-104772479D01*
X147796500Y-105346506D01*
X147799437Y-105383829D01*
X147845856Y-105543605D01*
X147930544Y-105686803D01*
X147930549Y-105686810D01*
X148048189Y-105804450D01*
X148048196Y-105804455D01*
X148191394Y-105889143D01*
X148191397Y-105889143D01*
X148191399Y-105889145D01*
X148351169Y-105935562D01*
X148358634Y-105936149D01*
X148388494Y-105938500D01*
X148388498Y-105938500D01*
X148821506Y-105938500D01*
X148846388Y-105936541D01*
X148858831Y-105935562D01*
X149018601Y-105889145D01*
X149018603Y-105889143D01*
X149018605Y-105889143D01*
X149096968Y-105842799D01*
X149161807Y-105804453D01*
X149279453Y-105686807D01*
X149336097Y-105591027D01*
X149364143Y-105543605D01*
X149364143Y-105543603D01*
X149364145Y-105543601D01*
X149405589Y-105400945D01*
X149443802Y-105341112D01*
X149508298Y-105311434D01*
X149526586Y-105310100D01*
X150263481Y-105310100D01*
X150331602Y-105330102D01*
X150378095Y-105383758D01*
X150388790Y-105422926D01*
X150395521Y-105486966D01*
X150406457Y-105591027D01*
X150418612Y-105628435D01*
X150465473Y-105772656D01*
X150465476Y-105772661D01*
X150560958Y-105938041D01*
X150560965Y-105938051D01*
X150688744Y-106079964D01*
X150688747Y-106079966D01*
X150843248Y-106192218D01*
X151017712Y-106269894D01*
X151204513Y-106309600D01*
X151395487Y-106309600D01*
X151582288Y-106269894D01*
X151756752Y-106192218D01*
X151911253Y-106079966D01*
X151918638Y-106071764D01*
X152039034Y-105938051D01*
X152039035Y-105938049D01*
X152039040Y-105938044D01*
X152134527Y-105772656D01*
X152193542Y-105591028D01*
X152211209Y-105422928D01*
X152238222Y-105357273D01*
X152296443Y-105316643D01*
X152336519Y-105310100D01*
X152519862Y-105310100D01*
X152587983Y-105330102D01*
X152634476Y-105383758D01*
X152644580Y-105454032D01*
X152620730Y-105511609D01*
X152549555Y-105606685D01*
X152549555Y-105606686D01*
X152498505Y-105743557D01*
X152492000Y-105804053D01*
X152492000Y-106398651D01*
X153488314Y-106398651D01*
X153472359Y-106414606D01*
X153414835Y-106527503D01*
X153395014Y-106652651D01*
X153414835Y-106777799D01*
X153472359Y-106890696D01*
X153488314Y-106906651D01*
X152492000Y-106906651D01*
X152492000Y-107501248D01*
X152498505Y-107561744D01*
X152549555Y-107698615D01*
X152549555Y-107698616D01*
X152637095Y-107815555D01*
X152754034Y-107903095D01*
X152890906Y-107954145D01*
X152951402Y-107960650D01*
X152951415Y-107960651D01*
X153546000Y-107960651D01*
X153546000Y-106964337D01*
X153561955Y-106980292D01*
X153674852Y-107037816D01*
X153768519Y-107052651D01*
X153831481Y-107052651D01*
X153925148Y-107037816D01*
X154038045Y-106980292D01*
X154054000Y-106964337D01*
X154054000Y-107960651D01*
X154648585Y-107960651D01*
X154648597Y-107960650D01*
X154709093Y-107954145D01*
X154845964Y-107903095D01*
X154845965Y-107903095D01*
X154962904Y-107815555D01*
X155050444Y-107698616D01*
X155050444Y-107698615D01*
X155101494Y-107561744D01*
X155107999Y-107501248D01*
X155108000Y-107501236D01*
X155108000Y-106906651D01*
X154111686Y-106906651D01*
X154127641Y-106890696D01*
X154185165Y-106777799D01*
X154204986Y-106652651D01*
X154185165Y-106527503D01*
X154127641Y-106414606D01*
X154111686Y-106398651D01*
X155108000Y-106398651D01*
X155108000Y-105804065D01*
X155107999Y-105804053D01*
X155101494Y-105743557D01*
X155050444Y-105606686D01*
X155050444Y-105606685D01*
X154979270Y-105511609D01*
X154954459Y-105445089D01*
X154969550Y-105375715D01*
X155019752Y-105325513D01*
X155080138Y-105310100D01*
X156987098Y-105310100D01*
X157055219Y-105330102D01*
X157076193Y-105347004D01*
X157357623Y-105628435D01*
X157603132Y-105873944D01*
X157612859Y-105886085D01*
X157613118Y-105885872D01*
X157618173Y-105891982D01*
X157667358Y-105938170D01*
X157687728Y-105958541D01*
X157687737Y-105958549D01*
X157690224Y-105960477D01*
X157692989Y-105962622D01*
X157697502Y-105966477D01*
X157730542Y-105997504D01*
X157735082Y-106000000D01*
X157747307Y-106006720D01*
X157763832Y-106017573D01*
X157778966Y-106029313D01*
X157820585Y-106047323D01*
X157825884Y-106049919D01*
X157865622Y-106071765D01*
X157884161Y-106076525D01*
X157902858Y-106082926D01*
X157920435Y-106090532D01*
X157965232Y-106097626D01*
X157971017Y-106098825D01*
X158014926Y-106110100D01*
X158034064Y-106110100D01*
X158053774Y-106111650D01*
X158072684Y-106114646D01*
X158104367Y-106111651D01*
X158117817Y-106110380D01*
X158123750Y-106110100D01*
X159818736Y-106110100D01*
X159834203Y-106111807D01*
X159834235Y-106111473D01*
X159842127Y-106112219D01*
X159842127Y-106112218D01*
X159842128Y-106112219D01*
X159909568Y-106110100D01*
X160095098Y-106110100D01*
X160163219Y-106130102D01*
X160184193Y-106147004D01*
X160578298Y-106541110D01*
X160963132Y-106925944D01*
X160972859Y-106938085D01*
X160973118Y-106937872D01*
X160978173Y-106943982D01*
X161027358Y-106990170D01*
X161047728Y-107010541D01*
X161047738Y-107010550D01*
X161052980Y-107014615D01*
X161057494Y-107018470D01*
X161060901Y-107021668D01*
X161065744Y-107026216D01*
X161101715Y-107087424D01*
X161105500Y-107118074D01*
X161105500Y-107200649D01*
X161112009Y-107261196D01*
X161112011Y-107261204D01*
X161163110Y-107398202D01*
X161163112Y-107398207D01*
X161250738Y-107515261D01*
X161367792Y-107602887D01*
X161367794Y-107602888D01*
X161367796Y-107602889D01*
X161426875Y-107624924D01*
X161504795Y-107653988D01*
X161504803Y-107653990D01*
X161565350Y-107660499D01*
X161565355Y-107660499D01*
X161565362Y-107660500D01*
X161565368Y-107660500D01*
X162562632Y-107660500D01*
X162562638Y-107660500D01*
X162562645Y-107660499D01*
X162562649Y-107660499D01*
X162623196Y-107653990D01*
X162623199Y-107653989D01*
X162623201Y-107653989D01*
X162760204Y-107602889D01*
X162796454Y-107575753D01*
X162877261Y-107515261D01*
X162964887Y-107398207D01*
X162964887Y-107398206D01*
X162964889Y-107398204D01*
X163015989Y-107261201D01*
X163017792Y-107244433D01*
X163044959Y-107178840D01*
X163103276Y-107138348D01*
X163174228Y-107135812D01*
X163196422Y-107143753D01*
X164527367Y-107766040D01*
X164580604Y-107813011D01*
X164600000Y-107880180D01*
X164600000Y-108009998D01*
X164579998Y-108078119D01*
X164563095Y-108099093D01*
X163917593Y-108744595D01*
X163855281Y-108778621D01*
X163828498Y-108781500D01*
X163674512Y-108781500D01*
X163637747Y-108784393D01*
X163480400Y-108830107D01*
X163339369Y-108913513D01*
X163283832Y-108969049D01*
X163221519Y-109003073D01*
X163195272Y-109005951D01*
X162165460Y-109010315D01*
X162120897Y-109002373D01*
X162109201Y-108998011D01*
X162109195Y-108998009D01*
X162048649Y-108991500D01*
X162048638Y-108991500D01*
X160901362Y-108991500D01*
X160901350Y-108991500D01*
X160840802Y-108998010D01*
X160813247Y-109008287D01*
X160769752Y-109016229D01*
X158062077Y-109027702D01*
X158017512Y-109019759D01*
X157959202Y-108998011D01*
X157959195Y-108998009D01*
X157898649Y-108991500D01*
X157898638Y-108991500D01*
X156751362Y-108991500D01*
X156751350Y-108991500D01*
X156690804Y-108998009D01*
X156690800Y-108998010D01*
X156615561Y-109026073D01*
X156572062Y-109034016D01*
X156429575Y-109034619D01*
X156377794Y-109023727D01*
X156282290Y-108981206D01*
X156095487Y-108941500D01*
X155904513Y-108941500D01*
X155717709Y-108981206D01*
X155613959Y-109027398D01*
X155563245Y-109038290D01*
X154807031Y-109041494D01*
X154738826Y-109021781D01*
X154717402Y-109004590D01*
X154638868Y-108926056D01*
X154629135Y-108913908D01*
X154628876Y-108914123D01*
X154623828Y-108908020D01*
X154623826Y-108908017D01*
X154574641Y-108861829D01*
X154554269Y-108841456D01*
X154549008Y-108837375D01*
X154544495Y-108833520D01*
X154511460Y-108802498D01*
X154511455Y-108802494D01*
X154494685Y-108793275D01*
X154478157Y-108782418D01*
X154463035Y-108770688D01*
X154463036Y-108770688D01*
X154463034Y-108770687D01*
X154463030Y-108770685D01*
X154463028Y-108770684D01*
X154438260Y-108759966D01*
X154421430Y-108752682D01*
X154416103Y-108750073D01*
X154376379Y-108728235D01*
X154357830Y-108723472D01*
X154339133Y-108717070D01*
X154321564Y-108709467D01*
X154276788Y-108702375D01*
X154270974Y-108701171D01*
X154247152Y-108695055D01*
X154227074Y-108689900D01*
X154227073Y-108689900D01*
X154207936Y-108689900D01*
X154188225Y-108688349D01*
X154184639Y-108687781D01*
X154169316Y-108685354D01*
X154169315Y-108685354D01*
X154124183Y-108689620D01*
X154118250Y-108689900D01*
X151425264Y-108689900D01*
X151409796Y-108688192D01*
X151409765Y-108688527D01*
X151401872Y-108687780D01*
X151334432Y-108689900D01*
X151305617Y-108689900D01*
X151305613Y-108689900D01*
X151305601Y-108689901D01*
X151299015Y-108690733D01*
X151293103Y-108691198D01*
X151247801Y-108692621D01*
X151229416Y-108697963D01*
X151210060Y-108701971D01*
X151191070Y-108704370D01*
X151183392Y-108706342D01*
X151183176Y-108705503D01*
X151146501Y-108712500D01*
X150907512Y-108712500D01*
X150870747Y-108715393D01*
X150713400Y-108761107D01*
X150572369Y-108844513D01*
X150455643Y-108961239D01*
X150393331Y-108995264D01*
X150322515Y-108990198D01*
X150292489Y-108974080D01*
X150202752Y-108908882D01*
X150028288Y-108831206D01*
X149841487Y-108791500D01*
X149650513Y-108791500D01*
X149463711Y-108831206D01*
X149289247Y-108908882D01*
X149134749Y-109021132D01*
X149134744Y-109021136D01*
X149131938Y-109024253D01*
X149129865Y-109025529D01*
X149129843Y-109025550D01*
X149129839Y-109025545D01*
X149071490Y-109061489D01*
X149038841Y-109065936D01*
X148730000Y-109067245D01*
X146306499Y-109077513D01*
X146306499Y-107883456D01*
X146295887Y-107779574D01*
X146240115Y-107611262D01*
X146147030Y-107460348D01*
X146147029Y-107460347D01*
X146147024Y-107460341D01*
X146021658Y-107334975D01*
X146021652Y-107334970D01*
X145870738Y-107241885D01*
X145746294Y-107200649D01*
X145702427Y-107186113D01*
X145702420Y-107186112D01*
X145598553Y-107175500D01*
X144847455Y-107175500D01*
X144743574Y-107186112D01*
X144575261Y-107241885D01*
X144424347Y-107334970D01*
X144424341Y-107334975D01*
X144298975Y-107460341D01*
X144298970Y-107460347D01*
X144270342Y-107506761D01*
X144237325Y-107560291D01*
X144229741Y-107572586D01*
X144176955Y-107620064D01*
X144106880Y-107631467D01*
X144041764Y-107603174D01*
X144002282Y-107544169D01*
X143996500Y-107506439D01*
X143996500Y-106943367D01*
X143996499Y-106943350D01*
X143989990Y-106882803D01*
X143989988Y-106882795D01*
X143954993Y-106788972D01*
X143938889Y-106745796D01*
X143938888Y-106745794D01*
X143938887Y-106745792D01*
X143851261Y-106628738D01*
X143734207Y-106541112D01*
X143734202Y-106541110D01*
X143597204Y-106490011D01*
X143597196Y-106490009D01*
X143536649Y-106483500D01*
X143536638Y-106483500D01*
X143113132Y-106483500D01*
X143045011Y-106463498D01*
X142998518Y-106409842D01*
X142987215Y-106352941D01*
X143000000Y-106000000D01*
X143000000Y-104734199D01*
X143020002Y-104666078D01*
X143032358Y-104649895D01*
X143089040Y-104586944D01*
X143184527Y-104421556D01*
X143243542Y-104239928D01*
X143263504Y-104050000D01*
X143243542Y-103860072D01*
X143184527Y-103678444D01*
X143089040Y-103513056D01*
X143060058Y-103480868D01*
X143032363Y-103450109D01*
X143001646Y-103386101D01*
X143000000Y-103365799D01*
X143000000Y-103152450D01*
X143020002Y-103084329D01*
X143037215Y-103063044D01*
X143963150Y-102143591D01*
X144025581Y-102109786D01*
X144051932Y-102107000D01*
X147588000Y-102107000D01*
X147656121Y-102127002D01*
G37*
%TD.AperFunction*%
%TD*%
%TA.AperFunction,Conductor*%
%TO.N,GND*%
G36*
X165300000Y-111900000D02*
G01*
X170700000Y-112000000D01*
X170700000Y-111400000D01*
X170837379Y-111400000D01*
X170885597Y-111409591D01*
X170920541Y-111424065D01*
X171014302Y-111462902D01*
X171132781Y-111478500D01*
X172592218Y-111478499D01*
X172710698Y-111462902D01*
X172837237Y-111410488D01*
X172839403Y-111409591D01*
X172887621Y-111400000D01*
X173451789Y-111400000D01*
X173519910Y-111420002D01*
X173560474Y-111466816D01*
X173562171Y-111465837D01*
X173660958Y-111636941D01*
X173660965Y-111636951D01*
X173788744Y-111778864D01*
X173788747Y-111778866D01*
X173943248Y-111891118D01*
X174117712Y-111968794D01*
X174304513Y-112008500D01*
X174495487Y-112008500D01*
X174682288Y-111968794D01*
X174856752Y-111891118D01*
X175011253Y-111778866D01*
X175065607Y-111718500D01*
X175139034Y-111636951D01*
X175139035Y-111636949D01*
X175139040Y-111636944D01*
X175230518Y-111478500D01*
X175237829Y-111465837D01*
X175239743Y-111466942D01*
X175279081Y-111420658D01*
X175347007Y-111400006D01*
X175348211Y-111400000D01*
X179873500Y-111400000D01*
X179941621Y-111420002D01*
X179988114Y-111473658D01*
X179999500Y-111526000D01*
X179999500Y-131498456D01*
X179999424Y-131501548D01*
X179992011Y-131652438D01*
X179981839Y-131846536D01*
X179981243Y-131852486D01*
X179956145Y-132021682D01*
X179928291Y-132197539D01*
X179927178Y-132202992D01*
X179884793Y-132372210D01*
X179839488Y-132541285D01*
X179837952Y-132546205D01*
X179778672Y-132711879D01*
X179716358Y-132874212D01*
X179714494Y-132878572D01*
X179638868Y-133038470D01*
X179560146Y-133192968D01*
X179558049Y-133196756D01*
X179466822Y-133348961D01*
X179372472Y-133494245D01*
X179370238Y-133497462D01*
X179264285Y-133640324D01*
X179155270Y-133774946D01*
X179152990Y-133777607D01*
X179034352Y-133908503D01*
X179032220Y-133910743D01*
X178910743Y-134032220D01*
X178908503Y-134034352D01*
X178777607Y-134152990D01*
X178774946Y-134155270D01*
X178640324Y-134264285D01*
X178497462Y-134370238D01*
X178494245Y-134372472D01*
X178348961Y-134466822D01*
X178196756Y-134558049D01*
X178192968Y-134560146D01*
X178038470Y-134638868D01*
X177878572Y-134714494D01*
X177874212Y-134716358D01*
X177711879Y-134778672D01*
X177546205Y-134837952D01*
X177541285Y-134839488D01*
X177372210Y-134884793D01*
X177202992Y-134927178D01*
X177197539Y-134928291D01*
X177021682Y-134956145D01*
X176852486Y-134981243D01*
X176846536Y-134981839D01*
X176652438Y-134992011D01*
X176547311Y-134997175D01*
X176501545Y-134999424D01*
X176498457Y-134999500D01*
X161800000Y-134999500D01*
X161800000Y-128949500D01*
X161820002Y-128881379D01*
X161873658Y-128834886D01*
X161926000Y-128823500D01*
X162698506Y-128823500D01*
X162723388Y-128821541D01*
X162735831Y-128820562D01*
X162895601Y-128774145D01*
X163025657Y-128697229D01*
X163094472Y-128679770D01*
X163161804Y-128702286D01*
X163206273Y-128757631D01*
X163213744Y-128783036D01*
X163214369Y-128786460D01*
X163259732Y-128942600D01*
X163346529Y-129089364D01*
X163344138Y-129090777D01*
X163365225Y-129144469D01*
X163365720Y-129155622D01*
X163365720Y-129990500D01*
X163345718Y-130058621D01*
X163292062Y-130105114D01*
X163239721Y-130116500D01*
X163099455Y-130116500D01*
X162995574Y-130127112D01*
X162827261Y-130182885D01*
X162676347Y-130275970D01*
X162676341Y-130275975D01*
X162550975Y-130401341D01*
X162550970Y-130401347D01*
X162457885Y-130552262D01*
X162402113Y-130720572D01*
X162402112Y-130720579D01*
X162391500Y-130824446D01*
X162391500Y-132175544D01*
X162402112Y-132279425D01*
X162457885Y-132447738D01*
X162550970Y-132598652D01*
X162550975Y-132598658D01*
X162676341Y-132724024D01*
X162676347Y-132724029D01*
X162676348Y-132724030D01*
X162827262Y-132817115D01*
X162995574Y-132872887D01*
X163099455Y-132883500D01*
X163900544Y-132883499D01*
X164004426Y-132872887D01*
X164172738Y-132817115D01*
X164323652Y-132724030D01*
X164449030Y-132598652D01*
X164481105Y-132546649D01*
X164533890Y-132499171D01*
X164603965Y-132487768D01*
X164669081Y-132516060D01*
X164687387Y-132534906D01*
X164694092Y-132543432D01*
X164694095Y-132543435D01*
X164694103Y-132543443D01*
X164854077Y-132682061D01*
X164854088Y-132682069D01*
X165037412Y-132787910D01*
X165037415Y-132787911D01*
X165037418Y-132787913D01*
X165237473Y-132857153D01*
X165447016Y-132887281D01*
X165596290Y-132880170D01*
X165658463Y-132877209D01*
X165658467Y-132877208D01*
X165658474Y-132877208D01*
X165864204Y-132827298D01*
X166056771Y-132739356D01*
X166229215Y-132616559D01*
X166375303Y-132463346D01*
X166394679Y-132433195D01*
X166448333Y-132386703D01*
X166518607Y-132376598D01*
X166583188Y-132406090D01*
X166599720Y-132423428D01*
X166694094Y-132543435D01*
X166854077Y-132682061D01*
X166854088Y-132682069D01*
X167037412Y-132787910D01*
X167037415Y-132787911D01*
X167037418Y-132787913D01*
X167237473Y-132857153D01*
X167447016Y-132887281D01*
X167596290Y-132880170D01*
X167658463Y-132877209D01*
X167658467Y-132877208D01*
X167658474Y-132877208D01*
X167864204Y-132827298D01*
X168056771Y-132739356D01*
X168229215Y-132616559D01*
X168375303Y-132463346D01*
X168489756Y-132285254D01*
X168568436Y-132088721D01*
X168608500Y-131880849D01*
X168608500Y-131172197D01*
X168593419Y-131014261D01*
X168533777Y-130811138D01*
X168533776Y-130811137D01*
X168533776Y-130811135D01*
X168436772Y-130622976D01*
X168436771Y-130622974D01*
X168305908Y-130456568D01*
X168305905Y-130456564D01*
X168145922Y-130317938D01*
X168145911Y-130317930D01*
X167962587Y-130212089D01*
X167962580Y-130212086D01*
X167762530Y-130142848D01*
X167762529Y-130142847D01*
X167762527Y-130142847D01*
X167762525Y-130142846D01*
X167762519Y-130142845D01*
X167552985Y-130112718D01*
X167341536Y-130122790D01*
X167341523Y-130122792D01*
X167135801Y-130172700D01*
X167135795Y-130172702D01*
X166943228Y-130260644D01*
X166943221Y-130260648D01*
X166770791Y-130383435D01*
X166770781Y-130383444D01*
X166624696Y-130536655D01*
X166605319Y-130566806D01*
X166551662Y-130613298D01*
X166481388Y-130623400D01*
X166416808Y-130593906D01*
X166400279Y-130576571D01*
X166381162Y-130552262D01*
X166305908Y-130456568D01*
X166305905Y-130456564D01*
X166145922Y-130317938D01*
X166145911Y-130317930D01*
X165962587Y-130212089D01*
X165962580Y-130212086D01*
X165762530Y-130142848D01*
X165762529Y-130142847D01*
X165762527Y-130142847D01*
X165762525Y-130142846D01*
X165762519Y-130142845D01*
X165552985Y-130112718D01*
X165341536Y-130122790D01*
X165341523Y-130122792D01*
X165135801Y-130172700D01*
X165135795Y-130172702D01*
X164943228Y-130260644D01*
X164862782Y-130317930D01*
X164785005Y-130373314D01*
X164717915Y-130396534D01*
X164648920Y-130379796D01*
X164599927Y-130328414D01*
X164585920Y-130270677D01*
X164585920Y-129438938D01*
X164605922Y-129370817D01*
X164659578Y-129324324D01*
X164729852Y-129314220D01*
X164747065Y-129317939D01*
X164773534Y-129325629D01*
X164810007Y-129328500D01*
X164810010Y-129328499D01*
X164810011Y-129328500D01*
X165076662Y-129328499D01*
X165209990Y-129328499D01*
X165228227Y-129327064D01*
X165246466Y-129325629D01*
X165402596Y-129280269D01*
X165402598Y-129280267D01*
X165402600Y-129280267D01*
X165542539Y-129197507D01*
X165542538Y-129197507D01*
X165542541Y-129197506D01*
X165657506Y-129082541D01*
X165740269Y-128942596D01*
X165785629Y-128786466D01*
X165788500Y-128749989D01*
X165788499Y-128250012D01*
X165785629Y-128213534D01*
X165740269Y-128057404D01*
X165740267Y-128057402D01*
X165740267Y-128057399D01*
X165657507Y-127917460D01*
X165657501Y-127917453D01*
X165657005Y-127916957D01*
X165656739Y-127916471D01*
X165652645Y-127911192D01*
X165653496Y-127910531D01*
X165622979Y-127854645D01*
X165620100Y-127827862D01*
X165620100Y-126917407D01*
X165640102Y-126849286D01*
X165652464Y-126833096D01*
X165739040Y-126736944D01*
X165834527Y-126571556D01*
X165893542Y-126389928D01*
X165913504Y-126200000D01*
X165893542Y-126010072D01*
X165834527Y-125828444D01*
X165739040Y-125663056D01*
X165739038Y-125663054D01*
X165739034Y-125663048D01*
X165611255Y-125521135D01*
X165456752Y-125408882D01*
X165282288Y-125331206D01*
X165095487Y-125291500D01*
X164904513Y-125291500D01*
X164904512Y-125291500D01*
X164738117Y-125326868D01*
X164667326Y-125321466D01*
X164610693Y-125278649D01*
X164586200Y-125212011D01*
X164585920Y-125203621D01*
X164585920Y-123269583D01*
X164587627Y-123254116D01*
X164587293Y-123254085D01*
X164588039Y-123246192D01*
X164585920Y-123178752D01*
X164585920Y-123149942D01*
X164585920Y-123149937D01*
X164585085Y-123143335D01*
X164584621Y-123137439D01*
X164583198Y-123092121D01*
X164577856Y-123073736D01*
X164573847Y-123054380D01*
X164571449Y-123035388D01*
X164554752Y-122993219D01*
X164552835Y-122987616D01*
X164540193Y-122944098D01*
X164540192Y-122944097D01*
X164540192Y-122944095D01*
X164530444Y-122927611D01*
X164521753Y-122909871D01*
X164514704Y-122892066D01*
X164488052Y-122855382D01*
X164484796Y-122850426D01*
X164461725Y-122811414D01*
X164448192Y-122797881D01*
X164435357Y-122782854D01*
X164424099Y-122767358D01*
X164389165Y-122738458D01*
X164384772Y-122734461D01*
X163942883Y-122292571D01*
X163908858Y-122230259D01*
X163906368Y-122193586D01*
X163908500Y-122166505D01*
X163908500Y-121733494D01*
X163905562Y-121696170D01*
X163905562Y-121696169D01*
X163859145Y-121536399D01*
X163859143Y-121536397D01*
X163859143Y-121536394D01*
X163774455Y-121393196D01*
X163774450Y-121393189D01*
X163656810Y-121275549D01*
X163656803Y-121275544D01*
X163513605Y-121190856D01*
X163353829Y-121144437D01*
X163316506Y-121141500D01*
X163316502Y-121141500D01*
X163216922Y-121141500D01*
X163148801Y-121121498D01*
X163102308Y-121067842D01*
X163092204Y-120997568D01*
X163093510Y-120990225D01*
X163093540Y-120989931D01*
X163093542Y-120989928D01*
X163095497Y-120971329D01*
X163122510Y-120905672D01*
X163180732Y-120865043D01*
X163220807Y-120858500D01*
X163316506Y-120858500D01*
X163341388Y-120856541D01*
X163353831Y-120855562D01*
X163513601Y-120809145D01*
X163513603Y-120809143D01*
X163513605Y-120809143D01*
X163585204Y-120766799D01*
X163656807Y-120724453D01*
X163774453Y-120606807D01*
X163859145Y-120463601D01*
X163905562Y-120303831D01*
X163908500Y-120266502D01*
X163908500Y-119833498D01*
X163905562Y-119796169D01*
X163859145Y-119636399D01*
X163859143Y-119636397D01*
X163859143Y-119636394D01*
X163774455Y-119493196D01*
X163774450Y-119493189D01*
X163656810Y-119375549D01*
X163656803Y-119375544D01*
X163513605Y-119290856D01*
X163353829Y-119244437D01*
X163316506Y-119241500D01*
X163316502Y-119241500D01*
X162158498Y-119241500D01*
X162158494Y-119241500D01*
X162121170Y-119244437D01*
X162121167Y-119244438D01*
X161961152Y-119290926D01*
X161890156Y-119290723D01*
X161830540Y-119252168D01*
X161801232Y-119187504D01*
X161800000Y-119169929D01*
X161800000Y-118734500D01*
X161820002Y-118666379D01*
X161873658Y-118619886D01*
X161926000Y-118608500D01*
X163198632Y-118608500D01*
X163198638Y-118608500D01*
X163198645Y-118608499D01*
X163198649Y-118608499D01*
X163259196Y-118601990D01*
X163259199Y-118601989D01*
X163259201Y-118601989D01*
X163396204Y-118550889D01*
X163513261Y-118463261D01*
X163600889Y-118346204D01*
X163651989Y-118209201D01*
X163658500Y-118148638D01*
X163658500Y-117201362D01*
X163658499Y-117201350D01*
X163651990Y-117140803D01*
X163651988Y-117140795D01*
X163600889Y-117003797D01*
X163600887Y-117003792D01*
X163513261Y-116886738D01*
X163396207Y-116799112D01*
X163396202Y-116799110D01*
X163259204Y-116748011D01*
X163259196Y-116748009D01*
X163198649Y-116741500D01*
X163198638Y-116741500D01*
X161926000Y-116741500D01*
X161857879Y-116721498D01*
X161811386Y-116667842D01*
X161800000Y-116615500D01*
X161800000Y-115230829D01*
X161820002Y-115162708D01*
X161873658Y-115116215D01*
X161899797Y-115107583D01*
X162082288Y-115068794D01*
X162256752Y-114991118D01*
X162411253Y-114878866D01*
X162539040Y-114736944D01*
X162634527Y-114571556D01*
X162693542Y-114389928D01*
X162713504Y-114200000D01*
X162693542Y-114010072D01*
X162634527Y-113828444D01*
X162539040Y-113663056D01*
X162539038Y-113663054D01*
X162539034Y-113663048D01*
X162411255Y-113521135D01*
X162256752Y-113408882D01*
X162082288Y-113331206D01*
X161899803Y-113292417D01*
X161837329Y-113258688D01*
X161803008Y-113196539D01*
X161800000Y-113169170D01*
X161800000Y-112934500D01*
X161820002Y-112866379D01*
X161873658Y-112819886D01*
X161926000Y-112808500D01*
X162048632Y-112808500D01*
X162048638Y-112808500D01*
X162048645Y-112808499D01*
X162048649Y-112808499D01*
X162109196Y-112801990D01*
X162109199Y-112801989D01*
X162109201Y-112801989D01*
X162246204Y-112750889D01*
X162363261Y-112663261D01*
X162450889Y-112546204D01*
X162501989Y-112409201D01*
X162508500Y-112348638D01*
X162508500Y-111805198D01*
X162528502Y-111737077D01*
X162582158Y-111690584D01*
X162652432Y-111680480D01*
X162669632Y-111684196D01*
X162777746Y-111715606D01*
X162785100Y-111716184D01*
X162814512Y-111718500D01*
X162814516Y-111718500D01*
X163225488Y-111718500D01*
X163249997Y-111716570D01*
X163262254Y-111715606D01*
X163419597Y-111669894D01*
X163435860Y-111660275D01*
X163504675Y-111642816D01*
X163564139Y-111660275D01*
X163580403Y-111669894D01*
X163737746Y-111715606D01*
X163745100Y-111716184D01*
X163774512Y-111718500D01*
X163774516Y-111718500D01*
X164185488Y-111718500D01*
X164209997Y-111716570D01*
X164222254Y-111715606D01*
X164379597Y-111669894D01*
X164520629Y-111586488D01*
X164629352Y-111477764D01*
X164654294Y-111458416D01*
X164660709Y-111454622D01*
X164678445Y-111445934D01*
X164696254Y-111438884D01*
X164716650Y-111424064D01*
X164783518Y-111400206D01*
X164790712Y-111400000D01*
X165300000Y-111400000D01*
X165300000Y-111900000D01*
G37*
%TD.AperFunction*%
%TA.AperFunction,Conductor*%
G36*
X162214480Y-123552402D02*
G01*
X162235454Y-123569305D01*
X162573695Y-123907546D01*
X162607721Y-123969858D01*
X162610600Y-123996641D01*
X162610600Y-124540500D01*
X162590598Y-124608621D01*
X162536942Y-124655114D01*
X162484600Y-124666500D01*
X161926000Y-124666500D01*
X161857879Y-124646498D01*
X161811386Y-124592842D01*
X161800000Y-124540500D01*
X161800000Y-123658400D01*
X161820002Y-123590279D01*
X161873658Y-123543786D01*
X161926000Y-123532400D01*
X162146359Y-123532400D01*
X162214480Y-123552402D01*
G37*
%TD.AperFunction*%
%TD*%
M02*
