%TF.GenerationSoftware,KiCad,Pcbnew,7.0.8*%
%TF.CreationDate,2024-07-02T10:47:19-04:00*%
%TF.ProjectId,motor-driver,6d6f746f-722d-4647-9269-7665722e6b69,rev?*%
%TF.SameCoordinates,Original*%
%TF.FileFunction,Legend,Top*%
%TF.FilePolarity,Positive*%
%FSLAX46Y46*%
G04 Gerber Fmt 4.6, Leading zero omitted, Abs format (unit mm)*
G04 Created by KiCad (PCBNEW 7.0.8) date 2024-07-02 10:47:19*
%MOMM*%
%LPD*%
G01*
G04 APERTURE LIST*
G04 Aperture macros list*
%AMRoundRect*
0 Rectangle with rounded corners*
0 $1 Rounding radius*
0 $2 $3 $4 $5 $6 $7 $8 $9 X,Y pos of 4 corners*
0 Add a 4 corners polygon primitive as box body*
4,1,4,$2,$3,$4,$5,$6,$7,$8,$9,$2,$3,0*
0 Add four circle primitives for the rounded corners*
1,1,$1+$1,$2,$3*
1,1,$1+$1,$4,$5*
1,1,$1+$1,$6,$7*
1,1,$1+$1,$8,$9*
0 Add four rect primitives between the rounded corners*
20,1,$1+$1,$2,$3,$4,$5,0*
20,1,$1+$1,$4,$5,$6,$7,0*
20,1,$1+$1,$6,$7,$8,$9,0*
20,1,$1+$1,$8,$9,$2,$3,0*%
G04 Aperture macros list end*
%ADD10C,0.150000*%
%ADD11C,0.120000*%
%ADD12C,0.300000*%
%ADD13C,0.250000*%
%ADD14C,0.400000*%
%ADD15RoundRect,0.140000X-0.170000X0.140000X-0.170000X-0.140000X0.170000X-0.140000X0.170000X0.140000X0*%
%ADD16RoundRect,0.140000X-0.140000X-0.170000X0.140000X-0.170000X0.140000X0.170000X-0.140000X0.170000X0*%
%ADD17R,2.460000X3.550000*%
%ADD18RoundRect,0.097500X0.690000X0.097500X-0.690000X0.097500X-0.690000X-0.097500X0.690000X-0.097500X0*%
%ADD19RoundRect,0.250000X-0.625000X0.350000X-0.625000X-0.350000X0.625000X-0.350000X0.625000X0.350000X0*%
%ADD20O,1.750000X1.200000*%
%ADD21RoundRect,0.140000X0.170000X-0.140000X0.170000X0.140000X-0.170000X0.140000X-0.170000X-0.140000X0*%
%ADD22C,0.800000*%
%ADD23C,6.400000*%
%ADD24RoundRect,0.250000X0.250000X0.475000X-0.250000X0.475000X-0.250000X-0.475000X0.250000X-0.475000X0*%
%ADD25RoundRect,0.135000X0.185000X-0.135000X0.185000X0.135000X-0.185000X0.135000X-0.185000X-0.135000X0*%
%ADD26RoundRect,0.250000X-0.350000X-0.625000X0.350000X-0.625000X0.350000X0.625000X-0.350000X0.625000X0*%
%ADD27O,1.200000X1.750000*%
%ADD28RoundRect,0.150000X0.650000X0.150000X-0.650000X0.150000X-0.650000X-0.150000X0.650000X-0.150000X0*%
%ADD29R,1.200000X1.400000*%
%ADD30RoundRect,0.150000X-0.150000X0.512500X-0.150000X-0.512500X0.150000X-0.512500X0.150000X0.512500X0*%
%ADD31R,1.050000X0.650000*%
%ADD32RoundRect,0.140000X0.140000X0.170000X-0.140000X0.170000X-0.140000X-0.170000X0.140000X-0.170000X0*%
%ADD33RoundRect,0.135000X-0.135000X-0.185000X0.135000X-0.185000X0.135000X0.185000X-0.135000X0.185000X0*%
%ADD34R,3.000000X3.000000*%
%ADD35C,3.000000*%
%ADD36R,1.700000X1.700000*%
%ADD37O,1.700000X1.700000*%
%ADD38RoundRect,0.135000X0.135000X0.185000X-0.135000X0.185000X-0.135000X-0.185000X0.135000X-0.185000X0*%
%ADD39RoundRect,0.243750X0.456250X-0.243750X0.456250X0.243750X-0.456250X0.243750X-0.456250X-0.243750X0*%
%ADD40RoundRect,0.250001X-1.099999X-1.099999X1.099999X-1.099999X1.099999X1.099999X-1.099999X1.099999X0*%
%ADD41C,2.700000*%
%ADD42R,0.400000X1.350000*%
%ADD43O,0.890000X1.550000*%
%ADD44R,1.200000X1.550000*%
%ADD45O,1.250000X0.950000*%
%ADD46R,1.500000X1.550000*%
%ADD47R,2.600000X2.600000*%
%ADD48C,2.600000*%
%ADD49RoundRect,0.135000X-0.185000X0.135000X-0.185000X-0.135000X0.185000X-0.135000X0.185000X0.135000X0*%
%ADD50RoundRect,0.150000X0.150000X-0.512500X0.150000X0.512500X-0.150000X0.512500X-0.150000X-0.512500X0*%
%ADD51R,1.100000X1.100000*%
%ADD52RoundRect,0.150000X-0.512500X-0.150000X0.512500X-0.150000X0.512500X0.150000X-0.512500X0.150000X0*%
%ADD53R,1.200000X3.700000*%
%ADD54RoundRect,0.250000X-0.325000X-0.650000X0.325000X-0.650000X0.325000X0.650000X-0.325000X0.650000X0*%
%ADD55R,1.600000X0.850000*%
%ADD56R,0.900000X1.200000*%
%ADD57RoundRect,0.150000X0.150000X-0.825000X0.150000X0.825000X-0.150000X0.825000X-0.150000X-0.825000X0*%
%ADD58R,1.200000X0.900000*%
%ADD59R,1.600000X1.600000*%
%ADD60C,1.600000*%
%ADD61RoundRect,0.250000X0.625000X-0.350000X0.625000X0.350000X-0.625000X0.350000X-0.625000X-0.350000X0*%
%ADD62RoundRect,0.050000X0.387500X0.050000X-0.387500X0.050000X-0.387500X-0.050000X0.387500X-0.050000X0*%
%ADD63RoundRect,0.050000X0.050000X0.387500X-0.050000X0.387500X-0.050000X-0.387500X0.050000X-0.387500X0*%
%ADD64RoundRect,0.144000X1.456000X1.456000X-1.456000X1.456000X-1.456000X-1.456000X1.456000X-1.456000X0*%
G04 APERTURE END LIST*
D10*
X164000000Y-113000000D02*
X178000000Y-113000000D01*
X178000000Y-127000000D01*
X164000000Y-127000000D01*
X164000000Y-113000000D01*
X122000000Y-113000000D02*
X136000000Y-113000000D01*
X136000000Y-127000000D01*
X122000000Y-127000000D01*
X122000000Y-113000000D01*
X159000000Y-96750000D02*
X159000000Y-92574000D01*
X172606000Y-96750000D02*
X172606000Y-92074000D01*
X172606000Y-92074000D02*
X171848000Y-91316000D01*
X140000000Y-91312000D02*
X139000000Y-91312000D01*
X127750000Y-92070000D02*
X128250000Y-91570000D01*
X141000000Y-92320000D02*
X140000000Y-91320000D01*
X141000000Y-96750000D02*
X141000000Y-92320000D01*
X160000000Y-91566000D02*
X161000000Y-91566000D01*
X159000000Y-92574000D02*
X160000000Y-91574000D01*
X127750000Y-96900000D02*
X127750000Y-92070000D01*
D11*
X138625192Y-102037142D02*
X138587097Y-102151428D01*
X138587097Y-102151428D02*
X138549001Y-102189523D01*
X138549001Y-102189523D02*
X138472811Y-102227619D01*
X138472811Y-102227619D02*
X138358525Y-102227619D01*
X138358525Y-102227619D02*
X138282335Y-102189523D01*
X138282335Y-102189523D02*
X138244240Y-102151428D01*
X138244240Y-102151428D02*
X138206144Y-102075238D01*
X138206144Y-102075238D02*
X138206144Y-101770476D01*
X138206144Y-101770476D02*
X139006144Y-101770476D01*
X139006144Y-101770476D02*
X139006144Y-102037142D01*
X139006144Y-102037142D02*
X138968049Y-102113333D01*
X138968049Y-102113333D02*
X138929954Y-102151428D01*
X138929954Y-102151428D02*
X138853763Y-102189523D01*
X138853763Y-102189523D02*
X138777573Y-102189523D01*
X138777573Y-102189523D02*
X138701382Y-102151428D01*
X138701382Y-102151428D02*
X138663287Y-102113333D01*
X138663287Y-102113333D02*
X138625192Y-102037142D01*
X138625192Y-102037142D02*
X138625192Y-101770476D01*
X172226950Y-132134523D02*
X172188855Y-132210713D01*
X172188855Y-132210713D02*
X172188855Y-132324999D01*
X172188855Y-132324999D02*
X172226950Y-132439285D01*
X172226950Y-132439285D02*
X172303140Y-132515475D01*
X172303140Y-132515475D02*
X172379331Y-132553570D01*
X172379331Y-132553570D02*
X172531712Y-132591666D01*
X172531712Y-132591666D02*
X172645998Y-132591666D01*
X172645998Y-132591666D02*
X172798379Y-132553570D01*
X172798379Y-132553570D02*
X172874569Y-132515475D01*
X172874569Y-132515475D02*
X172950760Y-132439285D01*
X172950760Y-132439285D02*
X172988855Y-132324999D01*
X172988855Y-132324999D02*
X172988855Y-132248808D01*
X172988855Y-132248808D02*
X172950760Y-132134523D01*
X172950760Y-132134523D02*
X172912664Y-132096427D01*
X172912664Y-132096427D02*
X172645998Y-132096427D01*
X172645998Y-132096427D02*
X172645998Y-132248808D01*
X172988855Y-131753570D02*
X172188855Y-131753570D01*
X172188855Y-131753570D02*
X172988855Y-131296427D01*
X172988855Y-131296427D02*
X172188855Y-131296427D01*
X172988855Y-130915475D02*
X172188855Y-130915475D01*
X172188855Y-130915475D02*
X172188855Y-130724999D01*
X172188855Y-130724999D02*
X172226950Y-130610713D01*
X172226950Y-130610713D02*
X172303140Y-130534523D01*
X172303140Y-130534523D02*
X172379331Y-130496428D01*
X172379331Y-130496428D02*
X172531712Y-130458332D01*
X172531712Y-130458332D02*
X172645998Y-130458332D01*
X172645998Y-130458332D02*
X172798379Y-130496428D01*
X172798379Y-130496428D02*
X172874569Y-130534523D01*
X172874569Y-130534523D02*
X172950760Y-130610713D01*
X172950760Y-130610713D02*
X172988855Y-130724999D01*
X172988855Y-130724999D02*
X172988855Y-130915475D01*
X141871904Y-97171144D02*
X141871904Y-97971144D01*
X141871904Y-97971144D02*
X141605238Y-97399716D01*
X141605238Y-97399716D02*
X141338571Y-97971144D01*
X141338571Y-97971144D02*
X141338571Y-97171144D01*
X140957618Y-97475906D02*
X140348095Y-97475906D01*
X140652856Y-97171144D02*
X140652856Y-97780668D01*
D12*
X131407142Y-127578328D02*
X131407142Y-128792614D01*
X131407142Y-128792614D02*
X131478571Y-128935471D01*
X131478571Y-128935471D02*
X131550000Y-129006900D01*
X131550000Y-129006900D02*
X131692857Y-129078328D01*
X131692857Y-129078328D02*
X131978571Y-129078328D01*
X131978571Y-129078328D02*
X132121428Y-129006900D01*
X132121428Y-129006900D02*
X132192857Y-128935471D01*
X132192857Y-128935471D02*
X132264285Y-128792614D01*
X132264285Y-128792614D02*
X132264285Y-127578328D01*
X132907143Y-128649757D02*
X133621429Y-128649757D01*
X132764286Y-129078328D02*
X133264286Y-127578328D01*
X133264286Y-127578328D02*
X133764286Y-129078328D01*
X135121428Y-129078328D02*
X134621428Y-128364042D01*
X134264285Y-129078328D02*
X134264285Y-127578328D01*
X134264285Y-127578328D02*
X134835714Y-127578328D01*
X134835714Y-127578328D02*
X134978571Y-127649757D01*
X134978571Y-127649757D02*
X135050000Y-127721185D01*
X135050000Y-127721185D02*
X135121428Y-127864042D01*
X135121428Y-127864042D02*
X135121428Y-128078328D01*
X135121428Y-128078328D02*
X135050000Y-128221185D01*
X135050000Y-128221185D02*
X134978571Y-128292614D01*
X134978571Y-128292614D02*
X134835714Y-128364042D01*
X134835714Y-128364042D02*
X134264285Y-128364042D01*
X135550000Y-127578328D02*
X136407143Y-127578328D01*
X135978571Y-129078328D02*
X135978571Y-127578328D01*
D10*
X158580618Y-108784819D02*
X158247285Y-108308628D01*
X158009190Y-108784819D02*
X158009190Y-107784819D01*
X158009190Y-107784819D02*
X158390142Y-107784819D01*
X158390142Y-107784819D02*
X158485380Y-107832438D01*
X158485380Y-107832438D02*
X158532999Y-107880057D01*
X158532999Y-107880057D02*
X158580618Y-107975295D01*
X158580618Y-107975295D02*
X158580618Y-108118152D01*
X158580618Y-108118152D02*
X158532999Y-108213390D01*
X158532999Y-108213390D02*
X158485380Y-108261009D01*
X158485380Y-108261009D02*
X158390142Y-108308628D01*
X158390142Y-108308628D02*
X158009190Y-108308628D01*
X159009190Y-108261009D02*
X159342523Y-108261009D01*
X159485380Y-108784819D02*
X159009190Y-108784819D01*
X159009190Y-108784819D02*
X159009190Y-107784819D01*
X159009190Y-107784819D02*
X159485380Y-107784819D01*
X159866333Y-108737200D02*
X160009190Y-108784819D01*
X160009190Y-108784819D02*
X160247285Y-108784819D01*
X160247285Y-108784819D02*
X160342523Y-108737200D01*
X160342523Y-108737200D02*
X160390142Y-108689580D01*
X160390142Y-108689580D02*
X160437761Y-108594342D01*
X160437761Y-108594342D02*
X160437761Y-108499104D01*
X160437761Y-108499104D02*
X160390142Y-108403866D01*
X160390142Y-108403866D02*
X160342523Y-108356247D01*
X160342523Y-108356247D02*
X160247285Y-108308628D01*
X160247285Y-108308628D02*
X160056809Y-108261009D01*
X160056809Y-108261009D02*
X159961571Y-108213390D01*
X159961571Y-108213390D02*
X159913952Y-108165771D01*
X159913952Y-108165771D02*
X159866333Y-108070533D01*
X159866333Y-108070533D02*
X159866333Y-107975295D01*
X159866333Y-107975295D02*
X159913952Y-107880057D01*
X159913952Y-107880057D02*
X159961571Y-107832438D01*
X159961571Y-107832438D02*
X160056809Y-107784819D01*
X160056809Y-107784819D02*
X160294904Y-107784819D01*
X160294904Y-107784819D02*
X160437761Y-107832438D01*
X160866333Y-108261009D02*
X161199666Y-108261009D01*
X161342523Y-108784819D02*
X160866333Y-108784819D01*
X160866333Y-108784819D02*
X160866333Y-107784819D01*
X160866333Y-107784819D02*
X161342523Y-107784819D01*
X161628238Y-107784819D02*
X162199666Y-107784819D01*
X161913952Y-108784819D02*
X161913952Y-107784819D01*
D11*
X169105192Y-102037142D02*
X169067097Y-102151428D01*
X169067097Y-102151428D02*
X169029001Y-102189523D01*
X169029001Y-102189523D02*
X168952811Y-102227619D01*
X168952811Y-102227619D02*
X168838525Y-102227619D01*
X168838525Y-102227619D02*
X168762335Y-102189523D01*
X168762335Y-102189523D02*
X168724240Y-102151428D01*
X168724240Y-102151428D02*
X168686144Y-102075238D01*
X168686144Y-102075238D02*
X168686144Y-101770476D01*
X168686144Y-101770476D02*
X169486144Y-101770476D01*
X169486144Y-101770476D02*
X169486144Y-102037142D01*
X169486144Y-102037142D02*
X169448049Y-102113333D01*
X169448049Y-102113333D02*
X169409954Y-102151428D01*
X169409954Y-102151428D02*
X169333763Y-102189523D01*
X169333763Y-102189523D02*
X169257573Y-102189523D01*
X169257573Y-102189523D02*
X169181382Y-102151428D01*
X169181382Y-102151428D02*
X169143287Y-102113333D01*
X169143287Y-102113333D02*
X169105192Y-102037142D01*
X169105192Y-102037142D02*
X169105192Y-101770476D01*
D13*
X137303523Y-96311595D02*
X137303523Y-97611595D01*
X137303523Y-97611595D02*
X136870189Y-96683023D01*
X136870189Y-96683023D02*
X136436856Y-97611595D01*
X136436856Y-97611595D02*
X136436856Y-96311595D01*
X135570190Y-97611595D02*
X135322571Y-97611595D01*
X135322571Y-97611595D02*
X135198761Y-97549690D01*
X135198761Y-97549690D02*
X135074952Y-97425880D01*
X135074952Y-97425880D02*
X135013047Y-97178261D01*
X135013047Y-97178261D02*
X135013047Y-96744928D01*
X135013047Y-96744928D02*
X135074952Y-96497309D01*
X135074952Y-96497309D02*
X135198761Y-96373500D01*
X135198761Y-96373500D02*
X135322571Y-96311595D01*
X135322571Y-96311595D02*
X135570190Y-96311595D01*
X135570190Y-96311595D02*
X135693999Y-96373500D01*
X135693999Y-96373500D02*
X135817809Y-96497309D01*
X135817809Y-96497309D02*
X135879713Y-96744928D01*
X135879713Y-96744928D02*
X135879713Y-97178261D01*
X135879713Y-97178261D02*
X135817809Y-97425880D01*
X135817809Y-97425880D02*
X135693999Y-97549690D01*
X135693999Y-97549690D02*
X135570190Y-97611595D01*
X134641618Y-97611595D02*
X133898761Y-97611595D01*
X134270189Y-96311595D02*
X134270189Y-97611595D01*
X133217809Y-97611595D02*
X132970190Y-97611595D01*
X132970190Y-97611595D02*
X132846380Y-97549690D01*
X132846380Y-97549690D02*
X132722571Y-97425880D01*
X132722571Y-97425880D02*
X132660666Y-97178261D01*
X132660666Y-97178261D02*
X132660666Y-96744928D01*
X132660666Y-96744928D02*
X132722571Y-96497309D01*
X132722571Y-96497309D02*
X132846380Y-96373500D01*
X132846380Y-96373500D02*
X132970190Y-96311595D01*
X132970190Y-96311595D02*
X133217809Y-96311595D01*
X133217809Y-96311595D02*
X133341618Y-96373500D01*
X133341618Y-96373500D02*
X133465428Y-96497309D01*
X133465428Y-96497309D02*
X133527332Y-96744928D01*
X133527332Y-96744928D02*
X133527332Y-97178261D01*
X133527332Y-97178261D02*
X133465428Y-97425880D01*
X133465428Y-97425880D02*
X133341618Y-97549690D01*
X133341618Y-97549690D02*
X133217809Y-97611595D01*
X131360666Y-96311595D02*
X131793999Y-96930642D01*
X132103523Y-96311595D02*
X132103523Y-97611595D01*
X132103523Y-97611595D02*
X131608285Y-97611595D01*
X131608285Y-97611595D02*
X131484475Y-97549690D01*
X131484475Y-97549690D02*
X131422570Y-97487785D01*
X131422570Y-97487785D02*
X131360666Y-97363976D01*
X131360666Y-97363976D02*
X131360666Y-97178261D01*
X131360666Y-97178261D02*
X131422570Y-97054452D01*
X131422570Y-97054452D02*
X131484475Y-96992547D01*
X131484475Y-96992547D02*
X131608285Y-96930642D01*
X131608285Y-96930642D02*
X132103523Y-96930642D01*
X130122570Y-96311595D02*
X130865427Y-96311595D01*
X130493999Y-96311595D02*
X130493999Y-97611595D01*
X130493999Y-97611595D02*
X130617808Y-97425880D01*
X130617808Y-97425880D02*
X130741618Y-97302071D01*
X130741618Y-97302071D02*
X130865427Y-97240166D01*
D10*
X155347618Y-131093247D02*
X155461904Y-131131342D01*
X155461904Y-131131342D02*
X155499999Y-131169438D01*
X155499999Y-131169438D02*
X155538095Y-131245628D01*
X155538095Y-131245628D02*
X155538095Y-131359914D01*
X155538095Y-131359914D02*
X155499999Y-131436104D01*
X155499999Y-131436104D02*
X155461904Y-131474200D01*
X155461904Y-131474200D02*
X155385714Y-131512295D01*
X155385714Y-131512295D02*
X155080952Y-131512295D01*
X155080952Y-131512295D02*
X155080952Y-130712295D01*
X155080952Y-130712295D02*
X155347618Y-130712295D01*
X155347618Y-130712295D02*
X155423809Y-130750390D01*
X155423809Y-130750390D02*
X155461904Y-130788485D01*
X155461904Y-130788485D02*
X155499999Y-130864676D01*
X155499999Y-130864676D02*
X155499999Y-130940866D01*
X155499999Y-130940866D02*
X155461904Y-131017057D01*
X155461904Y-131017057D02*
X155423809Y-131055152D01*
X155423809Y-131055152D02*
X155347618Y-131093247D01*
X155347618Y-131093247D02*
X155080952Y-131093247D01*
X156033333Y-130712295D02*
X156185714Y-130712295D01*
X156185714Y-130712295D02*
X156261904Y-130750390D01*
X156261904Y-130750390D02*
X156338095Y-130826580D01*
X156338095Y-130826580D02*
X156376190Y-130978961D01*
X156376190Y-130978961D02*
X156376190Y-131245628D01*
X156376190Y-131245628D02*
X156338095Y-131398009D01*
X156338095Y-131398009D02*
X156261904Y-131474200D01*
X156261904Y-131474200D02*
X156185714Y-131512295D01*
X156185714Y-131512295D02*
X156033333Y-131512295D01*
X156033333Y-131512295D02*
X155957142Y-131474200D01*
X155957142Y-131474200D02*
X155880952Y-131398009D01*
X155880952Y-131398009D02*
X155842856Y-131245628D01*
X155842856Y-131245628D02*
X155842856Y-130978961D01*
X155842856Y-130978961D02*
X155880952Y-130826580D01*
X155880952Y-130826580D02*
X155957142Y-130750390D01*
X155957142Y-130750390D02*
X156033333Y-130712295D01*
X156871428Y-130712295D02*
X157023809Y-130712295D01*
X157023809Y-130712295D02*
X157099999Y-130750390D01*
X157099999Y-130750390D02*
X157176190Y-130826580D01*
X157176190Y-130826580D02*
X157214285Y-130978961D01*
X157214285Y-130978961D02*
X157214285Y-131245628D01*
X157214285Y-131245628D02*
X157176190Y-131398009D01*
X157176190Y-131398009D02*
X157099999Y-131474200D01*
X157099999Y-131474200D02*
X157023809Y-131512295D01*
X157023809Y-131512295D02*
X156871428Y-131512295D01*
X156871428Y-131512295D02*
X156795237Y-131474200D01*
X156795237Y-131474200D02*
X156719047Y-131398009D01*
X156719047Y-131398009D02*
X156680951Y-131245628D01*
X156680951Y-131245628D02*
X156680951Y-130978961D01*
X156680951Y-130978961D02*
X156719047Y-130826580D01*
X156719047Y-130826580D02*
X156795237Y-130750390D01*
X156795237Y-130750390D02*
X156871428Y-130712295D01*
X157442856Y-130712295D02*
X157899999Y-130712295D01*
X157671427Y-131512295D02*
X157671427Y-130712295D01*
X158128570Y-131474200D02*
X158242856Y-131512295D01*
X158242856Y-131512295D02*
X158433332Y-131512295D01*
X158433332Y-131512295D02*
X158509523Y-131474200D01*
X158509523Y-131474200D02*
X158547618Y-131436104D01*
X158547618Y-131436104D02*
X158585713Y-131359914D01*
X158585713Y-131359914D02*
X158585713Y-131283723D01*
X158585713Y-131283723D02*
X158547618Y-131207533D01*
X158547618Y-131207533D02*
X158509523Y-131169438D01*
X158509523Y-131169438D02*
X158433332Y-131131342D01*
X158433332Y-131131342D02*
X158280951Y-131093247D01*
X158280951Y-131093247D02*
X158204761Y-131055152D01*
X158204761Y-131055152D02*
X158166666Y-131017057D01*
X158166666Y-131017057D02*
X158128570Y-130940866D01*
X158128570Y-130940866D02*
X158128570Y-130864676D01*
X158128570Y-130864676D02*
X158166666Y-130788485D01*
X158166666Y-130788485D02*
X158204761Y-130750390D01*
X158204761Y-130750390D02*
X158280951Y-130712295D01*
X158280951Y-130712295D02*
X158471428Y-130712295D01*
X158471428Y-130712295D02*
X158585713Y-130750390D01*
X158928571Y-131093247D02*
X159195237Y-131093247D01*
X159309523Y-131512295D02*
X158928571Y-131512295D01*
X158928571Y-131512295D02*
X158928571Y-130712295D01*
X158928571Y-130712295D02*
X159309523Y-130712295D01*
X160033333Y-131512295D02*
X159652381Y-131512295D01*
X159652381Y-131512295D02*
X159652381Y-130712295D01*
D11*
X133888049Y-102005476D02*
X133926144Y-101929286D01*
X133926144Y-101929286D02*
X133926144Y-101815000D01*
X133926144Y-101815000D02*
X133888049Y-101700714D01*
X133888049Y-101700714D02*
X133811859Y-101624524D01*
X133811859Y-101624524D02*
X133735668Y-101586429D01*
X133735668Y-101586429D02*
X133583287Y-101548333D01*
X133583287Y-101548333D02*
X133469001Y-101548333D01*
X133469001Y-101548333D02*
X133316620Y-101586429D01*
X133316620Y-101586429D02*
X133240430Y-101624524D01*
X133240430Y-101624524D02*
X133164240Y-101700714D01*
X133164240Y-101700714D02*
X133126144Y-101815000D01*
X133126144Y-101815000D02*
X133126144Y-101891191D01*
X133126144Y-101891191D02*
X133164240Y-102005476D01*
X133164240Y-102005476D02*
X133202335Y-102043572D01*
X133202335Y-102043572D02*
X133469001Y-102043572D01*
X133469001Y-102043572D02*
X133469001Y-101891191D01*
X133126144Y-102386429D02*
X133926144Y-102386429D01*
X133926144Y-102386429D02*
X133126144Y-102843572D01*
X133126144Y-102843572D02*
X133926144Y-102843572D01*
X133126144Y-103224524D02*
X133926144Y-103224524D01*
X133926144Y-103224524D02*
X133926144Y-103415000D01*
X133926144Y-103415000D02*
X133888049Y-103529286D01*
X133888049Y-103529286D02*
X133811859Y-103605476D01*
X133811859Y-103605476D02*
X133735668Y-103643571D01*
X133735668Y-103643571D02*
X133583287Y-103681667D01*
X133583287Y-103681667D02*
X133469001Y-103681667D01*
X133469001Y-103681667D02*
X133316620Y-103643571D01*
X133316620Y-103643571D02*
X133240430Y-103605476D01*
X133240430Y-103605476D02*
X133164240Y-103529286D01*
X133164240Y-103529286D02*
X133126144Y-103415000D01*
X133126144Y-103415000D02*
X133126144Y-103224524D01*
X166936144Y-101569047D02*
X166936144Y-102064285D01*
X166936144Y-102064285D02*
X166631382Y-101797619D01*
X166631382Y-101797619D02*
X166631382Y-101911904D01*
X166631382Y-101911904D02*
X166593287Y-101988095D01*
X166593287Y-101988095D02*
X166555192Y-102026190D01*
X166555192Y-102026190D02*
X166479001Y-102064285D01*
X166479001Y-102064285D02*
X166288525Y-102064285D01*
X166288525Y-102064285D02*
X166212335Y-102026190D01*
X166212335Y-102026190D02*
X166174240Y-101988095D01*
X166174240Y-101988095D02*
X166136144Y-101911904D01*
X166136144Y-101911904D02*
X166136144Y-101683333D01*
X166136144Y-101683333D02*
X166174240Y-101607142D01*
X166174240Y-101607142D02*
X166212335Y-101569047D01*
X166212335Y-102407143D02*
X166174240Y-102445238D01*
X166174240Y-102445238D02*
X166136144Y-102407143D01*
X166136144Y-102407143D02*
X166174240Y-102369047D01*
X166174240Y-102369047D02*
X166212335Y-102407143D01*
X166212335Y-102407143D02*
X166136144Y-102407143D01*
X166936144Y-102711904D02*
X166936144Y-103207142D01*
X166936144Y-103207142D02*
X166631382Y-102940476D01*
X166631382Y-102940476D02*
X166631382Y-103054761D01*
X166631382Y-103054761D02*
X166593287Y-103130952D01*
X166593287Y-103130952D02*
X166555192Y-103169047D01*
X166555192Y-103169047D02*
X166479001Y-103207142D01*
X166479001Y-103207142D02*
X166288525Y-103207142D01*
X166288525Y-103207142D02*
X166212335Y-103169047D01*
X166212335Y-103169047D02*
X166174240Y-103130952D01*
X166174240Y-103130952D02*
X166136144Y-103054761D01*
X166136144Y-103054761D02*
X166136144Y-102826190D01*
X166136144Y-102826190D02*
X166174240Y-102749999D01*
X166174240Y-102749999D02*
X166212335Y-102711904D01*
X166936144Y-103435714D02*
X166136144Y-103702381D01*
X166136144Y-103702381D02*
X166936144Y-103969047D01*
X173240904Y-97171144D02*
X173240904Y-97971144D01*
X173240904Y-97971144D02*
X172974238Y-97399716D01*
X172974238Y-97399716D02*
X172707571Y-97971144D01*
X172707571Y-97971144D02*
X172707571Y-97171144D01*
X172326618Y-97475906D02*
X171717095Y-97475906D01*
X172021856Y-97171144D02*
X172021856Y-97780668D01*
D12*
X166107142Y-127678328D02*
X166107142Y-128892614D01*
X166107142Y-128892614D02*
X166178571Y-129035471D01*
X166178571Y-129035471D02*
X166250000Y-129106900D01*
X166250000Y-129106900D02*
X166392857Y-129178328D01*
X166392857Y-129178328D02*
X166678571Y-129178328D01*
X166678571Y-129178328D02*
X166821428Y-129106900D01*
X166821428Y-129106900D02*
X166892857Y-129035471D01*
X166892857Y-129035471D02*
X166964285Y-128892614D01*
X166964285Y-128892614D02*
X166964285Y-127678328D01*
X167607143Y-128749757D02*
X168321429Y-128749757D01*
X167464286Y-129178328D02*
X167964286Y-127678328D01*
X167964286Y-127678328D02*
X168464286Y-129178328D01*
X169821428Y-129178328D02*
X169321428Y-128464042D01*
X168964285Y-129178328D02*
X168964285Y-127678328D01*
X168964285Y-127678328D02*
X169535714Y-127678328D01*
X169535714Y-127678328D02*
X169678571Y-127749757D01*
X169678571Y-127749757D02*
X169750000Y-127821185D01*
X169750000Y-127821185D02*
X169821428Y-127964042D01*
X169821428Y-127964042D02*
X169821428Y-128178328D01*
X169821428Y-128178328D02*
X169750000Y-128321185D01*
X169750000Y-128321185D02*
X169678571Y-128392614D01*
X169678571Y-128392614D02*
X169535714Y-128464042D01*
X169535714Y-128464042D02*
X168964285Y-128464042D01*
X170250000Y-127678328D02*
X171107143Y-127678328D01*
X170678571Y-129178328D02*
X170678571Y-127678328D01*
D11*
X128028904Y-97171144D02*
X128028904Y-97971144D01*
X128028904Y-97971144D02*
X127762238Y-97399716D01*
X127762238Y-97399716D02*
X127495571Y-97971144D01*
X127495571Y-97971144D02*
X127495571Y-97171144D01*
X127114618Y-97475906D02*
X126505095Y-97475906D01*
X159651904Y-97171144D02*
X159651904Y-97971144D01*
X159651904Y-97971144D02*
X159385238Y-97399716D01*
X159385238Y-97399716D02*
X159118571Y-97971144D01*
X159118571Y-97971144D02*
X159118571Y-97171144D01*
X158737618Y-97475906D02*
X158128095Y-97475906D01*
D12*
X166653427Y-119230828D02*
X166653427Y-117730828D01*
X166653427Y-118445114D02*
X167510570Y-118445114D01*
X167510570Y-119230828D02*
X167510570Y-117730828D01*
X168796285Y-119159400D02*
X168653428Y-119230828D01*
X168653428Y-119230828D02*
X168367714Y-119230828D01*
X168367714Y-119230828D02*
X168224856Y-119159400D01*
X168224856Y-119159400D02*
X168153428Y-119016542D01*
X168153428Y-119016542D02*
X168153428Y-118445114D01*
X168153428Y-118445114D02*
X168224856Y-118302257D01*
X168224856Y-118302257D02*
X168367714Y-118230828D01*
X168367714Y-118230828D02*
X168653428Y-118230828D01*
X168653428Y-118230828D02*
X168796285Y-118302257D01*
X168796285Y-118302257D02*
X168867714Y-118445114D01*
X168867714Y-118445114D02*
X168867714Y-118587971D01*
X168867714Y-118587971D02*
X168153428Y-118730828D01*
X170153428Y-119230828D02*
X170153428Y-118445114D01*
X170153428Y-118445114D02*
X170081999Y-118302257D01*
X170081999Y-118302257D02*
X169939142Y-118230828D01*
X169939142Y-118230828D02*
X169653428Y-118230828D01*
X169653428Y-118230828D02*
X169510570Y-118302257D01*
X170153428Y-119159400D02*
X170010570Y-119230828D01*
X170010570Y-119230828D02*
X169653428Y-119230828D01*
X169653428Y-119230828D02*
X169510570Y-119159400D01*
X169510570Y-119159400D02*
X169439142Y-119016542D01*
X169439142Y-119016542D02*
X169439142Y-118873685D01*
X169439142Y-118873685D02*
X169510570Y-118730828D01*
X169510570Y-118730828D02*
X169653428Y-118659400D01*
X169653428Y-118659400D02*
X170010570Y-118659400D01*
X170010570Y-118659400D02*
X170153428Y-118587971D01*
X170653428Y-118230828D02*
X171224856Y-118230828D01*
X170867713Y-117730828D02*
X170867713Y-119016542D01*
X170867713Y-119016542D02*
X170939142Y-119159400D01*
X170939142Y-119159400D02*
X171081999Y-119230828D01*
X171081999Y-119230828D02*
X171224856Y-119230828D01*
X171653428Y-119159400D02*
X171796285Y-119230828D01*
X171796285Y-119230828D02*
X172081999Y-119230828D01*
X172081999Y-119230828D02*
X172224856Y-119159400D01*
X172224856Y-119159400D02*
X172296285Y-119016542D01*
X172296285Y-119016542D02*
X172296285Y-118945114D01*
X172296285Y-118945114D02*
X172224856Y-118802257D01*
X172224856Y-118802257D02*
X172081999Y-118730828D01*
X172081999Y-118730828D02*
X171867714Y-118730828D01*
X171867714Y-118730828D02*
X171724856Y-118659400D01*
X171724856Y-118659400D02*
X171653428Y-118516542D01*
X171653428Y-118516542D02*
X171653428Y-118445114D01*
X171653428Y-118445114D02*
X171724856Y-118302257D01*
X171724856Y-118302257D02*
X171867714Y-118230828D01*
X171867714Y-118230828D02*
X172081999Y-118230828D01*
X172081999Y-118230828D02*
X172224856Y-118302257D01*
X172939142Y-119230828D02*
X172939142Y-118230828D01*
X172939142Y-117730828D02*
X172867714Y-117802257D01*
X172867714Y-117802257D02*
X172939142Y-117873685D01*
X172939142Y-117873685D02*
X173010571Y-117802257D01*
X173010571Y-117802257D02*
X172939142Y-117730828D01*
X172939142Y-117730828D02*
X172939142Y-117873685D01*
X173653428Y-118230828D02*
X173653428Y-119230828D01*
X173653428Y-118373685D02*
X173724857Y-118302257D01*
X173724857Y-118302257D02*
X173867714Y-118230828D01*
X173867714Y-118230828D02*
X174082000Y-118230828D01*
X174082000Y-118230828D02*
X174224857Y-118302257D01*
X174224857Y-118302257D02*
X174296286Y-118445114D01*
X174296286Y-118445114D02*
X174296286Y-119230828D01*
X175010571Y-119230828D02*
X175010571Y-117730828D01*
X175153429Y-118659400D02*
X175582000Y-119230828D01*
X175582000Y-118230828D02*
X175010571Y-118802257D01*
X169617715Y-121645828D02*
X169617715Y-120860114D01*
X169617715Y-120860114D02*
X169546286Y-120717257D01*
X169546286Y-120717257D02*
X169403429Y-120645828D01*
X169403429Y-120645828D02*
X169117715Y-120645828D01*
X169117715Y-120645828D02*
X168974857Y-120717257D01*
X169617715Y-121574400D02*
X169474857Y-121645828D01*
X169474857Y-121645828D02*
X169117715Y-121645828D01*
X169117715Y-121645828D02*
X168974857Y-121574400D01*
X168974857Y-121574400D02*
X168903429Y-121431542D01*
X168903429Y-121431542D02*
X168903429Y-121288685D01*
X168903429Y-121288685D02*
X168974857Y-121145828D01*
X168974857Y-121145828D02*
X169117715Y-121074400D01*
X169117715Y-121074400D02*
X169474857Y-121074400D01*
X169474857Y-121074400D02*
X169617715Y-121002971D01*
X170332000Y-121645828D02*
X170332000Y-120645828D01*
X170332000Y-120931542D02*
X170403429Y-120788685D01*
X170403429Y-120788685D02*
X170474858Y-120717257D01*
X170474858Y-120717257D02*
X170617715Y-120645828D01*
X170617715Y-120645828D02*
X170760572Y-120645828D01*
X171832000Y-121574400D02*
X171689143Y-121645828D01*
X171689143Y-121645828D02*
X171403429Y-121645828D01*
X171403429Y-121645828D02*
X171260571Y-121574400D01*
X171260571Y-121574400D02*
X171189143Y-121431542D01*
X171189143Y-121431542D02*
X171189143Y-120860114D01*
X171189143Y-120860114D02*
X171260571Y-120717257D01*
X171260571Y-120717257D02*
X171403429Y-120645828D01*
X171403429Y-120645828D02*
X171689143Y-120645828D01*
X171689143Y-120645828D02*
X171832000Y-120717257D01*
X171832000Y-120717257D02*
X171903429Y-120860114D01*
X171903429Y-120860114D02*
X171903429Y-121002971D01*
X171903429Y-121002971D02*
X171189143Y-121145828D01*
X173189143Y-121645828D02*
X173189143Y-120860114D01*
X173189143Y-120860114D02*
X173117714Y-120717257D01*
X173117714Y-120717257D02*
X172974857Y-120645828D01*
X172974857Y-120645828D02*
X172689143Y-120645828D01*
X172689143Y-120645828D02*
X172546285Y-120717257D01*
X173189143Y-121574400D02*
X173046285Y-121645828D01*
X173046285Y-121645828D02*
X172689143Y-121645828D01*
X172689143Y-121645828D02*
X172546285Y-121574400D01*
X172546285Y-121574400D02*
X172474857Y-121431542D01*
X172474857Y-121431542D02*
X172474857Y-121288685D01*
X172474857Y-121288685D02*
X172546285Y-121145828D01*
X172546285Y-121145828D02*
X172689143Y-121074400D01*
X172689143Y-121074400D02*
X173046285Y-121074400D01*
X173046285Y-121074400D02*
X173189143Y-121002971D01*
X124235427Y-118976828D02*
X124235427Y-117476828D01*
X124235427Y-118191114D02*
X125092570Y-118191114D01*
X125092570Y-118976828D02*
X125092570Y-117476828D01*
X126378285Y-118905400D02*
X126235428Y-118976828D01*
X126235428Y-118976828D02*
X125949714Y-118976828D01*
X125949714Y-118976828D02*
X125806856Y-118905400D01*
X125806856Y-118905400D02*
X125735428Y-118762542D01*
X125735428Y-118762542D02*
X125735428Y-118191114D01*
X125735428Y-118191114D02*
X125806856Y-118048257D01*
X125806856Y-118048257D02*
X125949714Y-117976828D01*
X125949714Y-117976828D02*
X126235428Y-117976828D01*
X126235428Y-117976828D02*
X126378285Y-118048257D01*
X126378285Y-118048257D02*
X126449714Y-118191114D01*
X126449714Y-118191114D02*
X126449714Y-118333971D01*
X126449714Y-118333971D02*
X125735428Y-118476828D01*
X127735428Y-118976828D02*
X127735428Y-118191114D01*
X127735428Y-118191114D02*
X127663999Y-118048257D01*
X127663999Y-118048257D02*
X127521142Y-117976828D01*
X127521142Y-117976828D02*
X127235428Y-117976828D01*
X127235428Y-117976828D02*
X127092570Y-118048257D01*
X127735428Y-118905400D02*
X127592570Y-118976828D01*
X127592570Y-118976828D02*
X127235428Y-118976828D01*
X127235428Y-118976828D02*
X127092570Y-118905400D01*
X127092570Y-118905400D02*
X127021142Y-118762542D01*
X127021142Y-118762542D02*
X127021142Y-118619685D01*
X127021142Y-118619685D02*
X127092570Y-118476828D01*
X127092570Y-118476828D02*
X127235428Y-118405400D01*
X127235428Y-118405400D02*
X127592570Y-118405400D01*
X127592570Y-118405400D02*
X127735428Y-118333971D01*
X128235428Y-117976828D02*
X128806856Y-117976828D01*
X128449713Y-117476828D02*
X128449713Y-118762542D01*
X128449713Y-118762542D02*
X128521142Y-118905400D01*
X128521142Y-118905400D02*
X128663999Y-118976828D01*
X128663999Y-118976828D02*
X128806856Y-118976828D01*
X129235428Y-118905400D02*
X129378285Y-118976828D01*
X129378285Y-118976828D02*
X129663999Y-118976828D01*
X129663999Y-118976828D02*
X129806856Y-118905400D01*
X129806856Y-118905400D02*
X129878285Y-118762542D01*
X129878285Y-118762542D02*
X129878285Y-118691114D01*
X129878285Y-118691114D02*
X129806856Y-118548257D01*
X129806856Y-118548257D02*
X129663999Y-118476828D01*
X129663999Y-118476828D02*
X129449714Y-118476828D01*
X129449714Y-118476828D02*
X129306856Y-118405400D01*
X129306856Y-118405400D02*
X129235428Y-118262542D01*
X129235428Y-118262542D02*
X129235428Y-118191114D01*
X129235428Y-118191114D02*
X129306856Y-118048257D01*
X129306856Y-118048257D02*
X129449714Y-117976828D01*
X129449714Y-117976828D02*
X129663999Y-117976828D01*
X129663999Y-117976828D02*
X129806856Y-118048257D01*
X130521142Y-118976828D02*
X130521142Y-117976828D01*
X130521142Y-117476828D02*
X130449714Y-117548257D01*
X130449714Y-117548257D02*
X130521142Y-117619685D01*
X130521142Y-117619685D02*
X130592571Y-117548257D01*
X130592571Y-117548257D02*
X130521142Y-117476828D01*
X130521142Y-117476828D02*
X130521142Y-117619685D01*
X131235428Y-117976828D02*
X131235428Y-118976828D01*
X131235428Y-118119685D02*
X131306857Y-118048257D01*
X131306857Y-118048257D02*
X131449714Y-117976828D01*
X131449714Y-117976828D02*
X131664000Y-117976828D01*
X131664000Y-117976828D02*
X131806857Y-118048257D01*
X131806857Y-118048257D02*
X131878286Y-118191114D01*
X131878286Y-118191114D02*
X131878286Y-118976828D01*
X132592571Y-118976828D02*
X132592571Y-117476828D01*
X132735429Y-118405400D02*
X133164000Y-118976828D01*
X133164000Y-117976828D02*
X132592571Y-118548257D01*
X127199715Y-121391828D02*
X127199715Y-120606114D01*
X127199715Y-120606114D02*
X127128286Y-120463257D01*
X127128286Y-120463257D02*
X126985429Y-120391828D01*
X126985429Y-120391828D02*
X126699715Y-120391828D01*
X126699715Y-120391828D02*
X126556857Y-120463257D01*
X127199715Y-121320400D02*
X127056857Y-121391828D01*
X127056857Y-121391828D02*
X126699715Y-121391828D01*
X126699715Y-121391828D02*
X126556857Y-121320400D01*
X126556857Y-121320400D02*
X126485429Y-121177542D01*
X126485429Y-121177542D02*
X126485429Y-121034685D01*
X126485429Y-121034685D02*
X126556857Y-120891828D01*
X126556857Y-120891828D02*
X126699715Y-120820400D01*
X126699715Y-120820400D02*
X127056857Y-120820400D01*
X127056857Y-120820400D02*
X127199715Y-120748971D01*
X127914000Y-121391828D02*
X127914000Y-120391828D01*
X127914000Y-120677542D02*
X127985429Y-120534685D01*
X127985429Y-120534685D02*
X128056858Y-120463257D01*
X128056858Y-120463257D02*
X128199715Y-120391828D01*
X128199715Y-120391828D02*
X128342572Y-120391828D01*
X129414000Y-121320400D02*
X129271143Y-121391828D01*
X129271143Y-121391828D02*
X128985429Y-121391828D01*
X128985429Y-121391828D02*
X128842571Y-121320400D01*
X128842571Y-121320400D02*
X128771143Y-121177542D01*
X128771143Y-121177542D02*
X128771143Y-120606114D01*
X128771143Y-120606114D02*
X128842571Y-120463257D01*
X128842571Y-120463257D02*
X128985429Y-120391828D01*
X128985429Y-120391828D02*
X129271143Y-120391828D01*
X129271143Y-120391828D02*
X129414000Y-120463257D01*
X129414000Y-120463257D02*
X129485429Y-120606114D01*
X129485429Y-120606114D02*
X129485429Y-120748971D01*
X129485429Y-120748971D02*
X128771143Y-120891828D01*
X130771143Y-121391828D02*
X130771143Y-120606114D01*
X130771143Y-120606114D02*
X130699714Y-120463257D01*
X130699714Y-120463257D02*
X130556857Y-120391828D01*
X130556857Y-120391828D02*
X130271143Y-120391828D01*
X130271143Y-120391828D02*
X130128285Y-120463257D01*
X130771143Y-121320400D02*
X130628285Y-121391828D01*
X130628285Y-121391828D02*
X130271143Y-121391828D01*
X130271143Y-121391828D02*
X130128285Y-121320400D01*
X130128285Y-121320400D02*
X130056857Y-121177542D01*
X130056857Y-121177542D02*
X130056857Y-121034685D01*
X130056857Y-121034685D02*
X130128285Y-120891828D01*
X130128285Y-120891828D02*
X130271143Y-120820400D01*
X130271143Y-120820400D02*
X130628285Y-120820400D01*
X130628285Y-120820400D02*
X130771143Y-120748971D01*
D11*
X130814716Y-101789523D02*
X130814716Y-102170476D01*
X130586144Y-101713333D02*
X131386144Y-101980000D01*
X131386144Y-101980000D02*
X130586144Y-102246666D01*
D13*
X137303523Y-85911595D02*
X137303523Y-87211595D01*
X137303523Y-87211595D02*
X136870189Y-86283023D01*
X136870189Y-86283023D02*
X136436856Y-87211595D01*
X136436856Y-87211595D02*
X136436856Y-85911595D01*
X135570190Y-87211595D02*
X135322571Y-87211595D01*
X135322571Y-87211595D02*
X135198761Y-87149690D01*
X135198761Y-87149690D02*
X135074952Y-87025880D01*
X135074952Y-87025880D02*
X135013047Y-86778261D01*
X135013047Y-86778261D02*
X135013047Y-86344928D01*
X135013047Y-86344928D02*
X135074952Y-86097309D01*
X135074952Y-86097309D02*
X135198761Y-85973500D01*
X135198761Y-85973500D02*
X135322571Y-85911595D01*
X135322571Y-85911595D02*
X135570190Y-85911595D01*
X135570190Y-85911595D02*
X135693999Y-85973500D01*
X135693999Y-85973500D02*
X135817809Y-86097309D01*
X135817809Y-86097309D02*
X135879713Y-86344928D01*
X135879713Y-86344928D02*
X135879713Y-86778261D01*
X135879713Y-86778261D02*
X135817809Y-87025880D01*
X135817809Y-87025880D02*
X135693999Y-87149690D01*
X135693999Y-87149690D02*
X135570190Y-87211595D01*
X134641618Y-87211595D02*
X133898761Y-87211595D01*
X134270189Y-85911595D02*
X134270189Y-87211595D01*
X133217809Y-87211595D02*
X132970190Y-87211595D01*
X132970190Y-87211595D02*
X132846380Y-87149690D01*
X132846380Y-87149690D02*
X132722571Y-87025880D01*
X132722571Y-87025880D02*
X132660666Y-86778261D01*
X132660666Y-86778261D02*
X132660666Y-86344928D01*
X132660666Y-86344928D02*
X132722571Y-86097309D01*
X132722571Y-86097309D02*
X132846380Y-85973500D01*
X132846380Y-85973500D02*
X132970190Y-85911595D01*
X132970190Y-85911595D02*
X133217809Y-85911595D01*
X133217809Y-85911595D02*
X133341618Y-85973500D01*
X133341618Y-85973500D02*
X133465428Y-86097309D01*
X133465428Y-86097309D02*
X133527332Y-86344928D01*
X133527332Y-86344928D02*
X133527332Y-86778261D01*
X133527332Y-86778261D02*
X133465428Y-87025880D01*
X133465428Y-87025880D02*
X133341618Y-87149690D01*
X133341618Y-87149690D02*
X133217809Y-87211595D01*
X131360666Y-85911595D02*
X131793999Y-86530642D01*
X132103523Y-85911595D02*
X132103523Y-87211595D01*
X132103523Y-87211595D02*
X131608285Y-87211595D01*
X131608285Y-87211595D02*
X131484475Y-87149690D01*
X131484475Y-87149690D02*
X131422570Y-87087785D01*
X131422570Y-87087785D02*
X131360666Y-86963976D01*
X131360666Y-86963976D02*
X131360666Y-86778261D01*
X131360666Y-86778261D02*
X131422570Y-86654452D01*
X131422570Y-86654452D02*
X131484475Y-86592547D01*
X131484475Y-86592547D02*
X131608285Y-86530642D01*
X131608285Y-86530642D02*
X132103523Y-86530642D01*
X130122570Y-85911595D02*
X130865427Y-85911595D01*
X130493999Y-85911595D02*
X130493999Y-87211595D01*
X130493999Y-87211595D02*
X130617808Y-87025880D01*
X130617808Y-87025880D02*
X130741618Y-86902071D01*
X130741618Y-86902071D02*
X130865427Y-86840166D01*
D12*
X157111856Y-86982242D02*
X157254714Y-87053671D01*
X157254714Y-87053671D02*
X157468999Y-87053671D01*
X157468999Y-87053671D02*
X157683285Y-86982242D01*
X157683285Y-86982242D02*
X157826142Y-86839385D01*
X157826142Y-86839385D02*
X157897571Y-86696528D01*
X157897571Y-86696528D02*
X157968999Y-86410814D01*
X157968999Y-86410814D02*
X157968999Y-86196528D01*
X157968999Y-86196528D02*
X157897571Y-85910814D01*
X157897571Y-85910814D02*
X157826142Y-85767957D01*
X157826142Y-85767957D02*
X157683285Y-85625100D01*
X157683285Y-85625100D02*
X157468999Y-85553671D01*
X157468999Y-85553671D02*
X157326142Y-85553671D01*
X157326142Y-85553671D02*
X157111856Y-85625100D01*
X157111856Y-85625100D02*
X157040428Y-85696528D01*
X157040428Y-85696528D02*
X157040428Y-86196528D01*
X157040428Y-86196528D02*
X157326142Y-86196528D01*
X156397571Y-85553671D02*
X156397571Y-87053671D01*
X156397571Y-87053671D02*
X155540428Y-85553671D01*
X155540428Y-85553671D02*
X155540428Y-87053671D01*
X154826142Y-85553671D02*
X154826142Y-87053671D01*
X154826142Y-87053671D02*
X154468999Y-87053671D01*
X154468999Y-87053671D02*
X154254713Y-86982242D01*
X154254713Y-86982242D02*
X154111856Y-86839385D01*
X154111856Y-86839385D02*
X154040427Y-86696528D01*
X154040427Y-86696528D02*
X153968999Y-86410814D01*
X153968999Y-86410814D02*
X153968999Y-86196528D01*
X153968999Y-86196528D02*
X154040427Y-85910814D01*
X154040427Y-85910814D02*
X154111856Y-85767957D01*
X154111856Y-85767957D02*
X154254713Y-85625100D01*
X154254713Y-85625100D02*
X154468999Y-85553671D01*
X154468999Y-85553671D02*
X154826142Y-85553671D01*
D11*
X122609523Y-92648049D02*
X122685713Y-92686144D01*
X122685713Y-92686144D02*
X122799999Y-92686144D01*
X122799999Y-92686144D02*
X122914285Y-92648049D01*
X122914285Y-92648049D02*
X122990475Y-92571859D01*
X122990475Y-92571859D02*
X123028570Y-92495668D01*
X123028570Y-92495668D02*
X123066666Y-92343287D01*
X123066666Y-92343287D02*
X123066666Y-92229001D01*
X123066666Y-92229001D02*
X123028570Y-92076620D01*
X123028570Y-92076620D02*
X122990475Y-92000430D01*
X122990475Y-92000430D02*
X122914285Y-91924240D01*
X122914285Y-91924240D02*
X122799999Y-91886144D01*
X122799999Y-91886144D02*
X122723808Y-91886144D01*
X122723808Y-91886144D02*
X122609523Y-91924240D01*
X122609523Y-91924240D02*
X122571427Y-91962335D01*
X122571427Y-91962335D02*
X122571427Y-92229001D01*
X122571427Y-92229001D02*
X122723808Y-92229001D01*
X122228570Y-91886144D02*
X122228570Y-92686144D01*
X122228570Y-92686144D02*
X121771427Y-91886144D01*
X121771427Y-91886144D02*
X121771427Y-92686144D01*
X121390475Y-91886144D02*
X121390475Y-92686144D01*
X121390475Y-92686144D02*
X121199999Y-92686144D01*
X121199999Y-92686144D02*
X121085713Y-92648049D01*
X121085713Y-92648049D02*
X121009523Y-92571859D01*
X121009523Y-92571859D02*
X120971428Y-92495668D01*
X120971428Y-92495668D02*
X120933332Y-92343287D01*
X120933332Y-92343287D02*
X120933332Y-92229001D01*
X120933332Y-92229001D02*
X120971428Y-92076620D01*
X120971428Y-92076620D02*
X121009523Y-92000430D01*
X121009523Y-92000430D02*
X121085713Y-91924240D01*
X121085713Y-91924240D02*
X121199999Y-91886144D01*
X121199999Y-91886144D02*
X121390475Y-91886144D01*
X164368049Y-102005476D02*
X164406144Y-101929286D01*
X164406144Y-101929286D02*
X164406144Y-101815000D01*
X164406144Y-101815000D02*
X164368049Y-101700714D01*
X164368049Y-101700714D02*
X164291859Y-101624524D01*
X164291859Y-101624524D02*
X164215668Y-101586429D01*
X164215668Y-101586429D02*
X164063287Y-101548333D01*
X164063287Y-101548333D02*
X163949001Y-101548333D01*
X163949001Y-101548333D02*
X163796620Y-101586429D01*
X163796620Y-101586429D02*
X163720430Y-101624524D01*
X163720430Y-101624524D02*
X163644240Y-101700714D01*
X163644240Y-101700714D02*
X163606144Y-101815000D01*
X163606144Y-101815000D02*
X163606144Y-101891191D01*
X163606144Y-101891191D02*
X163644240Y-102005476D01*
X163644240Y-102005476D02*
X163682335Y-102043572D01*
X163682335Y-102043572D02*
X163949001Y-102043572D01*
X163949001Y-102043572D02*
X163949001Y-101891191D01*
X163606144Y-102386429D02*
X164406144Y-102386429D01*
X164406144Y-102386429D02*
X163606144Y-102843572D01*
X163606144Y-102843572D02*
X164406144Y-102843572D01*
X163606144Y-103224524D02*
X164406144Y-103224524D01*
X164406144Y-103224524D02*
X164406144Y-103415000D01*
X164406144Y-103415000D02*
X164368049Y-103529286D01*
X164368049Y-103529286D02*
X164291859Y-103605476D01*
X164291859Y-103605476D02*
X164215668Y-103643571D01*
X164215668Y-103643571D02*
X164063287Y-103681667D01*
X164063287Y-103681667D02*
X163949001Y-103681667D01*
X163949001Y-103681667D02*
X163796620Y-103643571D01*
X163796620Y-103643571D02*
X163720430Y-103605476D01*
X163720430Y-103605476D02*
X163644240Y-103529286D01*
X163644240Y-103529286D02*
X163606144Y-103415000D01*
X163606144Y-103415000D02*
X163606144Y-103224524D01*
X136466144Y-101569047D02*
X136466144Y-102064285D01*
X136466144Y-102064285D02*
X136161382Y-101797619D01*
X136161382Y-101797619D02*
X136161382Y-101911904D01*
X136161382Y-101911904D02*
X136123287Y-101988095D01*
X136123287Y-101988095D02*
X136085192Y-102026190D01*
X136085192Y-102026190D02*
X136009001Y-102064285D01*
X136009001Y-102064285D02*
X135818525Y-102064285D01*
X135818525Y-102064285D02*
X135742335Y-102026190D01*
X135742335Y-102026190D02*
X135704240Y-101988095D01*
X135704240Y-101988095D02*
X135666144Y-101911904D01*
X135666144Y-101911904D02*
X135666144Y-101683333D01*
X135666144Y-101683333D02*
X135704240Y-101607142D01*
X135704240Y-101607142D02*
X135742335Y-101569047D01*
X135742335Y-102407143D02*
X135704240Y-102445238D01*
X135704240Y-102445238D02*
X135666144Y-102407143D01*
X135666144Y-102407143D02*
X135704240Y-102369047D01*
X135704240Y-102369047D02*
X135742335Y-102407143D01*
X135742335Y-102407143D02*
X135666144Y-102407143D01*
X136466144Y-102711904D02*
X136466144Y-103207142D01*
X136466144Y-103207142D02*
X136161382Y-102940476D01*
X136161382Y-102940476D02*
X136161382Y-103054761D01*
X136161382Y-103054761D02*
X136123287Y-103130952D01*
X136123287Y-103130952D02*
X136085192Y-103169047D01*
X136085192Y-103169047D02*
X136009001Y-103207142D01*
X136009001Y-103207142D02*
X135818525Y-103207142D01*
X135818525Y-103207142D02*
X135742335Y-103169047D01*
X135742335Y-103169047D02*
X135704240Y-103130952D01*
X135704240Y-103130952D02*
X135666144Y-103054761D01*
X135666144Y-103054761D02*
X135666144Y-102826190D01*
X135666144Y-102826190D02*
X135704240Y-102749999D01*
X135704240Y-102749999D02*
X135742335Y-102711904D01*
X136466144Y-103435714D02*
X135666144Y-103702381D01*
X135666144Y-103702381D02*
X136466144Y-103969047D01*
X178109523Y-103898049D02*
X178185713Y-103936144D01*
X178185713Y-103936144D02*
X178299999Y-103936144D01*
X178299999Y-103936144D02*
X178414285Y-103898049D01*
X178414285Y-103898049D02*
X178490475Y-103821859D01*
X178490475Y-103821859D02*
X178528570Y-103745668D01*
X178528570Y-103745668D02*
X178566666Y-103593287D01*
X178566666Y-103593287D02*
X178566666Y-103479001D01*
X178566666Y-103479001D02*
X178528570Y-103326620D01*
X178528570Y-103326620D02*
X178490475Y-103250430D01*
X178490475Y-103250430D02*
X178414285Y-103174240D01*
X178414285Y-103174240D02*
X178299999Y-103136144D01*
X178299999Y-103136144D02*
X178223808Y-103136144D01*
X178223808Y-103136144D02*
X178109523Y-103174240D01*
X178109523Y-103174240D02*
X178071427Y-103212335D01*
X178071427Y-103212335D02*
X178071427Y-103479001D01*
X178071427Y-103479001D02*
X178223808Y-103479001D01*
X177728570Y-103136144D02*
X177728570Y-103936144D01*
X177728570Y-103936144D02*
X177271427Y-103136144D01*
X177271427Y-103136144D02*
X177271427Y-103936144D01*
X176890475Y-103136144D02*
X176890475Y-103936144D01*
X176890475Y-103936144D02*
X176699999Y-103936144D01*
X176699999Y-103936144D02*
X176585713Y-103898049D01*
X176585713Y-103898049D02*
X176509523Y-103821859D01*
X176509523Y-103821859D02*
X176471428Y-103745668D01*
X176471428Y-103745668D02*
X176433332Y-103593287D01*
X176433332Y-103593287D02*
X176433332Y-103479001D01*
X176433332Y-103479001D02*
X176471428Y-103326620D01*
X176471428Y-103326620D02*
X176509523Y-103250430D01*
X176509523Y-103250430D02*
X176585713Y-103174240D01*
X176585713Y-103174240D02*
X176699999Y-103136144D01*
X176699999Y-103136144D02*
X176890475Y-103136144D01*
D10*
X137266667Y-122154819D02*
X137266667Y-121154819D01*
X137266667Y-121154819D02*
X137647619Y-121154819D01*
X137647619Y-121154819D02*
X137742857Y-121202438D01*
X137742857Y-121202438D02*
X137790476Y-121250057D01*
X137790476Y-121250057D02*
X137838095Y-121345295D01*
X137838095Y-121345295D02*
X137838095Y-121488152D01*
X137838095Y-121488152D02*
X137790476Y-121583390D01*
X137790476Y-121583390D02*
X137742857Y-121631009D01*
X137742857Y-121631009D02*
X137647619Y-121678628D01*
X137647619Y-121678628D02*
X137266667Y-121678628D01*
X138171429Y-121154819D02*
X138409524Y-122154819D01*
X138409524Y-122154819D02*
X138600000Y-121440533D01*
X138600000Y-121440533D02*
X138790476Y-122154819D01*
X138790476Y-122154819D02*
X139028572Y-121154819D01*
X139980952Y-122154819D02*
X139647619Y-121678628D01*
X139409524Y-122154819D02*
X139409524Y-121154819D01*
X139409524Y-121154819D02*
X139790476Y-121154819D01*
X139790476Y-121154819D02*
X139885714Y-121202438D01*
X139885714Y-121202438D02*
X139933333Y-121250057D01*
X139933333Y-121250057D02*
X139980952Y-121345295D01*
X139980952Y-121345295D02*
X139980952Y-121488152D01*
X139980952Y-121488152D02*
X139933333Y-121583390D01*
X139933333Y-121583390D02*
X139885714Y-121631009D01*
X139885714Y-121631009D02*
X139790476Y-121678628D01*
X139790476Y-121678628D02*
X139409524Y-121678628D01*
D11*
X161294716Y-101789523D02*
X161294716Y-102170476D01*
X161066144Y-101713333D02*
X161866144Y-101980000D01*
X161866144Y-101980000D02*
X161066144Y-102246666D01*
D12*
X145268999Y-86926671D02*
X144768999Y-85426671D01*
X144768999Y-85426671D02*
X144268999Y-86926671D01*
X142911857Y-85569528D02*
X142983285Y-85498100D01*
X142983285Y-85498100D02*
X143197571Y-85426671D01*
X143197571Y-85426671D02*
X143340428Y-85426671D01*
X143340428Y-85426671D02*
X143554714Y-85498100D01*
X143554714Y-85498100D02*
X143697571Y-85640957D01*
X143697571Y-85640957D02*
X143769000Y-85783814D01*
X143769000Y-85783814D02*
X143840428Y-86069528D01*
X143840428Y-86069528D02*
X143840428Y-86283814D01*
X143840428Y-86283814D02*
X143769000Y-86569528D01*
X143769000Y-86569528D02*
X143697571Y-86712385D01*
X143697571Y-86712385D02*
X143554714Y-86855242D01*
X143554714Y-86855242D02*
X143340428Y-86926671D01*
X143340428Y-86926671D02*
X143197571Y-86926671D01*
X143197571Y-86926671D02*
X142983285Y-86855242D01*
X142983285Y-86855242D02*
X142911857Y-86783814D01*
X141411857Y-85569528D02*
X141483285Y-85498100D01*
X141483285Y-85498100D02*
X141697571Y-85426671D01*
X141697571Y-85426671D02*
X141840428Y-85426671D01*
X141840428Y-85426671D02*
X142054714Y-85498100D01*
X142054714Y-85498100D02*
X142197571Y-85640957D01*
X142197571Y-85640957D02*
X142269000Y-85783814D01*
X142269000Y-85783814D02*
X142340428Y-86069528D01*
X142340428Y-86069528D02*
X142340428Y-86283814D01*
X142340428Y-86283814D02*
X142269000Y-86569528D01*
X142269000Y-86569528D02*
X142197571Y-86712385D01*
X142197571Y-86712385D02*
X142054714Y-86855242D01*
X142054714Y-86855242D02*
X141840428Y-86926671D01*
X141840428Y-86926671D02*
X141697571Y-86926671D01*
X141697571Y-86926671D02*
X141483285Y-86855242D01*
X141483285Y-86855242D02*
X141411857Y-86783814D01*
D13*
X169942523Y-96057595D02*
X169942523Y-97357595D01*
X169942523Y-97357595D02*
X169509189Y-96429023D01*
X169509189Y-96429023D02*
X169075856Y-97357595D01*
X169075856Y-97357595D02*
X169075856Y-96057595D01*
X168209190Y-97357595D02*
X167961571Y-97357595D01*
X167961571Y-97357595D02*
X167837761Y-97295690D01*
X167837761Y-97295690D02*
X167713952Y-97171880D01*
X167713952Y-97171880D02*
X167652047Y-96924261D01*
X167652047Y-96924261D02*
X167652047Y-96490928D01*
X167652047Y-96490928D02*
X167713952Y-96243309D01*
X167713952Y-96243309D02*
X167837761Y-96119500D01*
X167837761Y-96119500D02*
X167961571Y-96057595D01*
X167961571Y-96057595D02*
X168209190Y-96057595D01*
X168209190Y-96057595D02*
X168332999Y-96119500D01*
X168332999Y-96119500D02*
X168456809Y-96243309D01*
X168456809Y-96243309D02*
X168518713Y-96490928D01*
X168518713Y-96490928D02*
X168518713Y-96924261D01*
X168518713Y-96924261D02*
X168456809Y-97171880D01*
X168456809Y-97171880D02*
X168332999Y-97295690D01*
X168332999Y-97295690D02*
X168209190Y-97357595D01*
X167280618Y-97357595D02*
X166537761Y-97357595D01*
X166909189Y-96057595D02*
X166909189Y-97357595D01*
X165856809Y-97357595D02*
X165609190Y-97357595D01*
X165609190Y-97357595D02*
X165485380Y-97295690D01*
X165485380Y-97295690D02*
X165361571Y-97171880D01*
X165361571Y-97171880D02*
X165299666Y-96924261D01*
X165299666Y-96924261D02*
X165299666Y-96490928D01*
X165299666Y-96490928D02*
X165361571Y-96243309D01*
X165361571Y-96243309D02*
X165485380Y-96119500D01*
X165485380Y-96119500D02*
X165609190Y-96057595D01*
X165609190Y-96057595D02*
X165856809Y-96057595D01*
X165856809Y-96057595D02*
X165980618Y-96119500D01*
X165980618Y-96119500D02*
X166104428Y-96243309D01*
X166104428Y-96243309D02*
X166166332Y-96490928D01*
X166166332Y-96490928D02*
X166166332Y-96924261D01*
X166166332Y-96924261D02*
X166104428Y-97171880D01*
X166104428Y-97171880D02*
X165980618Y-97295690D01*
X165980618Y-97295690D02*
X165856809Y-97357595D01*
X163999666Y-96057595D02*
X164432999Y-96676642D01*
X164742523Y-96057595D02*
X164742523Y-97357595D01*
X164742523Y-97357595D02*
X164247285Y-97357595D01*
X164247285Y-97357595D02*
X164123475Y-97295690D01*
X164123475Y-97295690D02*
X164061570Y-97233785D01*
X164061570Y-97233785D02*
X163999666Y-97109976D01*
X163999666Y-97109976D02*
X163999666Y-96924261D01*
X163999666Y-96924261D02*
X164061570Y-96800452D01*
X164061570Y-96800452D02*
X164123475Y-96738547D01*
X164123475Y-96738547D02*
X164247285Y-96676642D01*
X164247285Y-96676642D02*
X164742523Y-96676642D01*
X163504427Y-97233785D02*
X163442523Y-97295690D01*
X163442523Y-97295690D02*
X163318713Y-97357595D01*
X163318713Y-97357595D02*
X163009189Y-97357595D01*
X163009189Y-97357595D02*
X162885380Y-97295690D01*
X162885380Y-97295690D02*
X162823475Y-97233785D01*
X162823475Y-97233785D02*
X162761570Y-97109976D01*
X162761570Y-97109976D02*
X162761570Y-96986166D01*
X162761570Y-96986166D02*
X162823475Y-96800452D01*
X162823475Y-96800452D02*
X163566332Y-96057595D01*
X163566332Y-96057595D02*
X162761570Y-96057595D01*
X169942523Y-85911595D02*
X169942523Y-87211595D01*
X169942523Y-87211595D02*
X169509189Y-86283023D01*
X169509189Y-86283023D02*
X169075856Y-87211595D01*
X169075856Y-87211595D02*
X169075856Y-85911595D01*
X168209190Y-87211595D02*
X167961571Y-87211595D01*
X167961571Y-87211595D02*
X167837761Y-87149690D01*
X167837761Y-87149690D02*
X167713952Y-87025880D01*
X167713952Y-87025880D02*
X167652047Y-86778261D01*
X167652047Y-86778261D02*
X167652047Y-86344928D01*
X167652047Y-86344928D02*
X167713952Y-86097309D01*
X167713952Y-86097309D02*
X167837761Y-85973500D01*
X167837761Y-85973500D02*
X167961571Y-85911595D01*
X167961571Y-85911595D02*
X168209190Y-85911595D01*
X168209190Y-85911595D02*
X168332999Y-85973500D01*
X168332999Y-85973500D02*
X168456809Y-86097309D01*
X168456809Y-86097309D02*
X168518713Y-86344928D01*
X168518713Y-86344928D02*
X168518713Y-86778261D01*
X168518713Y-86778261D02*
X168456809Y-87025880D01*
X168456809Y-87025880D02*
X168332999Y-87149690D01*
X168332999Y-87149690D02*
X168209190Y-87211595D01*
X167280618Y-87211595D02*
X166537761Y-87211595D01*
X166909189Y-85911595D02*
X166909189Y-87211595D01*
X165856809Y-87211595D02*
X165609190Y-87211595D01*
X165609190Y-87211595D02*
X165485380Y-87149690D01*
X165485380Y-87149690D02*
X165361571Y-87025880D01*
X165361571Y-87025880D02*
X165299666Y-86778261D01*
X165299666Y-86778261D02*
X165299666Y-86344928D01*
X165299666Y-86344928D02*
X165361571Y-86097309D01*
X165361571Y-86097309D02*
X165485380Y-85973500D01*
X165485380Y-85973500D02*
X165609190Y-85911595D01*
X165609190Y-85911595D02*
X165856809Y-85911595D01*
X165856809Y-85911595D02*
X165980618Y-85973500D01*
X165980618Y-85973500D02*
X166104428Y-86097309D01*
X166104428Y-86097309D02*
X166166332Y-86344928D01*
X166166332Y-86344928D02*
X166166332Y-86778261D01*
X166166332Y-86778261D02*
X166104428Y-87025880D01*
X166104428Y-87025880D02*
X165980618Y-87149690D01*
X165980618Y-87149690D02*
X165856809Y-87211595D01*
X163999666Y-85911595D02*
X164432999Y-86530642D01*
X164742523Y-85911595D02*
X164742523Y-87211595D01*
X164742523Y-87211595D02*
X164247285Y-87211595D01*
X164247285Y-87211595D02*
X164123475Y-87149690D01*
X164123475Y-87149690D02*
X164061570Y-87087785D01*
X164061570Y-87087785D02*
X163999666Y-86963976D01*
X163999666Y-86963976D02*
X163999666Y-86778261D01*
X163999666Y-86778261D02*
X164061570Y-86654452D01*
X164061570Y-86654452D02*
X164123475Y-86592547D01*
X164123475Y-86592547D02*
X164247285Y-86530642D01*
X164247285Y-86530642D02*
X164742523Y-86530642D01*
X163504427Y-87087785D02*
X163442523Y-87149690D01*
X163442523Y-87149690D02*
X163318713Y-87211595D01*
X163318713Y-87211595D02*
X163009189Y-87211595D01*
X163009189Y-87211595D02*
X162885380Y-87149690D01*
X162885380Y-87149690D02*
X162823475Y-87087785D01*
X162823475Y-87087785D02*
X162761570Y-86963976D01*
X162761570Y-86963976D02*
X162761570Y-86840166D01*
X162761570Y-86840166D02*
X162823475Y-86654452D01*
X162823475Y-86654452D02*
X163566332Y-85911595D01*
X163566332Y-85911595D02*
X162761570Y-85911595D01*
D14*
X155738095Y-90142533D02*
X157261905Y-90142533D01*
X142738095Y-90142533D02*
X144261905Y-90142533D01*
X143500000Y-90904438D02*
X143500000Y-89380628D01*
D11*
%TO.C,C9*%
X151122000Y-125367164D02*
X151122000Y-125582836D01*
X150402000Y-125367164D02*
X150402000Y-125582836D01*
%TO.C,C16*%
X154845164Y-121305000D02*
X155060836Y-121305000D01*
X154845164Y-122025000D02*
X155060836Y-122025000D01*
%TO.C,U1*%
X131000000Y-111260000D02*
X134650000Y-111260000D01*
X131000000Y-111260000D02*
X128800000Y-111260000D01*
X131000000Y-105740000D02*
X133200000Y-105740000D01*
X131000000Y-105740000D02*
X128800000Y-105740000D01*
%TO.C,J9*%
X179460000Y-92140000D02*
X178210000Y-92140000D01*
X179160000Y-92440000D02*
X174440000Y-92440000D01*
X177850000Y-92440000D02*
X177850000Y-93050000D01*
X176550000Y-92440000D02*
X176550000Y-93050000D01*
X174440000Y-92440000D02*
X174440000Y-102560000D01*
X178550000Y-93050000D02*
X175050000Y-93050000D01*
X175050000Y-93050000D02*
X175050000Y-101950000D01*
X179460000Y-93390000D02*
X179460000Y-92140000D01*
X179360000Y-93900000D02*
X179160000Y-93900000D01*
X179360000Y-94200000D02*
X179360000Y-93900000D01*
X179260000Y-94200000D02*
X179260000Y-93900000D01*
X179160000Y-94200000D02*
X179360000Y-94200000D01*
X179160000Y-95000000D02*
X178550000Y-95000000D01*
X178550000Y-95000000D02*
X178550000Y-93050000D01*
X175550000Y-95400000D02*
X175550000Y-95600000D01*
X175050000Y-95400000D02*
X175550000Y-95400000D01*
X175050000Y-95500000D02*
X175550000Y-95500000D01*
X175550000Y-95600000D02*
X175050000Y-95600000D01*
X175550000Y-97400000D02*
X175550000Y-97600000D01*
X175050000Y-97400000D02*
X175550000Y-97400000D01*
X175050000Y-97500000D02*
X175550000Y-97500000D01*
X175550000Y-97600000D02*
X175050000Y-97600000D01*
X175550000Y-99400000D02*
X175550000Y-99600000D01*
X175050000Y-99400000D02*
X175550000Y-99400000D01*
X175050000Y-99500000D02*
X175550000Y-99500000D01*
X175550000Y-99600000D02*
X175050000Y-99600000D01*
X178550000Y-100000000D02*
X179160000Y-100000000D01*
X178550000Y-101950000D02*
X178550000Y-100000000D01*
X175050000Y-101950000D02*
X178550000Y-101950000D01*
X179160000Y-102560000D02*
X179160000Y-92440000D01*
X177850000Y-102560000D02*
X177850000Y-101950000D01*
X176550000Y-102560000D02*
X176550000Y-101950000D01*
X174440000Y-102560000D02*
X179160000Y-102560000D01*
%TO.C,C15*%
X155040000Y-116407836D02*
X155040000Y-116192164D01*
X155760000Y-116407836D02*
X155760000Y-116192164D01*
%TO.C,C3*%
X141752252Y-124686000D02*
X141229748Y-124686000D01*
X141752252Y-123216000D02*
X141229748Y-123216000D01*
%TO.C,C19*%
X144264000Y-114826164D02*
X144264000Y-115041836D01*
X143544000Y-114826164D02*
X143544000Y-115041836D01*
%TO.C,R8*%
X148350000Y-111277641D02*
X148350000Y-110970359D01*
X149110000Y-111277641D02*
X149110000Y-110970359D01*
%TO.C,U2*%
X169000000Y-111260000D02*
X172650000Y-111260000D01*
X169000000Y-111260000D02*
X166800000Y-111260000D01*
X169000000Y-105740000D02*
X171200000Y-105740000D01*
X169000000Y-105740000D02*
X166800000Y-105740000D01*
%TO.C,J6*%
X161140000Y-129390000D02*
X161140000Y-130640000D01*
X161440000Y-129690000D02*
X161440000Y-134410000D01*
X161440000Y-131000000D02*
X162050000Y-131000000D01*
X161440000Y-132300000D02*
X162050000Y-132300000D01*
X161440000Y-134410000D02*
X171560000Y-134410000D01*
X162050000Y-130300000D02*
X162050000Y-133800000D01*
X162050000Y-133800000D02*
X170950000Y-133800000D01*
X162390000Y-129390000D02*
X161140000Y-129390000D01*
X162900000Y-129490000D02*
X162900000Y-129690000D01*
X163200000Y-129490000D02*
X162900000Y-129490000D01*
X163200000Y-129590000D02*
X162900000Y-129590000D01*
X163200000Y-129690000D02*
X163200000Y-129490000D01*
X164000000Y-129690000D02*
X164000000Y-130300000D01*
X164000000Y-130300000D02*
X162050000Y-130300000D01*
X164400000Y-133300000D02*
X164600000Y-133300000D01*
X164400000Y-133800000D02*
X164400000Y-133300000D01*
X164500000Y-133800000D02*
X164500000Y-133300000D01*
X164600000Y-133300000D02*
X164600000Y-133800000D01*
X166400000Y-133300000D02*
X166600000Y-133300000D01*
X166400000Y-133800000D02*
X166400000Y-133300000D01*
X166500000Y-133800000D02*
X166500000Y-133300000D01*
X166600000Y-133300000D02*
X166600000Y-133800000D01*
X168400000Y-133300000D02*
X168600000Y-133300000D01*
X168400000Y-133800000D02*
X168400000Y-133300000D01*
X168500000Y-133800000D02*
X168500000Y-133300000D01*
X168600000Y-133300000D02*
X168600000Y-133800000D01*
X169000000Y-130300000D02*
X169000000Y-129690000D01*
X170950000Y-130300000D02*
X169000000Y-130300000D01*
X170950000Y-133800000D02*
X170950000Y-130300000D01*
X171560000Y-129690000D02*
X161440000Y-129690000D01*
X171560000Y-131000000D02*
X170950000Y-131000000D01*
X171560000Y-132300000D02*
X170950000Y-132300000D01*
X171560000Y-134410000D02*
X171560000Y-129690000D01*
%TO.C,U6*%
X161107000Y-128835000D02*
X161107000Y-128575000D01*
X161107000Y-128575000D02*
X162782000Y-128575000D01*
X161107000Y-123385000D02*
X161107000Y-123645000D01*
X158382000Y-128835000D02*
X161107000Y-128835000D01*
X158382000Y-128835000D02*
X155657000Y-128835000D01*
X158382000Y-123385000D02*
X161107000Y-123385000D01*
X158382000Y-123385000D02*
X155657000Y-123385000D01*
X155657000Y-128835000D02*
X155657000Y-128575000D01*
X155657000Y-123385000D02*
X155657000Y-123645000D01*
%TO.C,Y1*%
X155333000Y-109509000D02*
X152033000Y-109509000D01*
X152033000Y-109509000D02*
X152033000Y-113509000D01*
%TO.C,U4*%
X143060000Y-127800000D02*
X143060000Y-126000000D01*
X143060000Y-127800000D02*
X143060000Y-128600000D01*
X139940000Y-127800000D02*
X139940000Y-127000000D01*
X139940000Y-127800000D02*
X139940000Y-128600000D01*
%TO.C,SW1*%
X157200000Y-109200000D02*
X157200000Y-109320000D01*
X157200000Y-110330000D02*
X157200000Y-111470000D01*
X157200000Y-112480000D02*
X157200000Y-112600000D01*
X157200000Y-112600000D02*
X161600000Y-112600000D01*
X161600000Y-109200000D02*
X157200000Y-109200000D01*
X161600000Y-109320000D02*
X161600000Y-109200000D01*
X161600000Y-111470000D02*
X161600000Y-110330000D01*
X161600000Y-112600000D02*
X161600000Y-112480000D01*
%TO.C,C13*%
X144392836Y-121771000D02*
X144177164Y-121771000D01*
X144392836Y-121051000D02*
X144177164Y-121051000D01*
%TO.C,R2*%
X159046359Y-129220000D02*
X159353641Y-129220000D01*
X159046359Y-129980000D02*
X159353641Y-129980000D01*
%TO.C,J12*%
X155210000Y-91410000D02*
X155210000Y-88590000D01*
X155210000Y-91410000D02*
X153510000Y-92710000D01*
X155210000Y-88590000D02*
X153510000Y-87290000D01*
X153510000Y-92710000D02*
X144790000Y-92710000D01*
X153510000Y-87290000D02*
X144790000Y-87290000D01*
X144790000Y-92710000D02*
X144790000Y-87290000D01*
%TO.C,C20*%
X150783000Y-110088836D02*
X150783000Y-109873164D01*
X151503000Y-110088836D02*
X151503000Y-109873164D01*
%TO.C,J4*%
X127080000Y-101330000D02*
X127080000Y-100000000D01*
X128410000Y-101330000D02*
X127080000Y-101330000D01*
X129680000Y-101330000D02*
X142440000Y-101330000D01*
X129680000Y-101330000D02*
X129680000Y-98670000D01*
X142440000Y-101330000D02*
X142440000Y-98670000D01*
X129680000Y-98670000D02*
X142440000Y-98670000D01*
%TO.C,C24*%
X125740000Y-110157836D02*
X125740000Y-109942164D01*
X126460000Y-110157836D02*
X126460000Y-109942164D01*
%TO.C,R17*%
X176003641Y-106705000D02*
X175696359Y-106705000D01*
X176003641Y-105945000D02*
X175696359Y-105945000D01*
%TO.C,C21*%
X155640000Y-111446836D02*
X155640000Y-111231164D01*
X156360000Y-111446836D02*
X156360000Y-111231164D01*
%TO.C,C17*%
X150106000Y-125367164D02*
X150106000Y-125582836D01*
X149386000Y-125367164D02*
X149386000Y-125582836D01*
%TO.C,R15*%
X175153641Y-109180000D02*
X174846359Y-109180000D01*
X175153641Y-108420000D02*
X174846359Y-108420000D01*
%TO.C,R12*%
X159553641Y-104980000D02*
X159246359Y-104980000D01*
X159553641Y-104220000D02*
X159246359Y-104220000D01*
%TO.C,D1*%
X137440000Y-125685000D02*
X139360000Y-125685000D01*
X139360000Y-125685000D02*
X139360000Y-123000000D01*
X137440000Y-123000000D02*
X137440000Y-125685000D01*
%TO.C,C18*%
X152647841Y-128400409D02*
X152432169Y-128400409D01*
X152647841Y-127680409D02*
X152432169Y-127680409D01*
%TO.C,C5*%
X147058000Y-124224164D02*
X147058000Y-124439836D01*
X146338000Y-124224164D02*
X146338000Y-124439836D01*
%TO.C,C10*%
X148497000Y-113263836D02*
X148497000Y-113048164D01*
X149217000Y-113263836D02*
X149217000Y-113048164D01*
%TO.C,C26*%
X163607836Y-111260000D02*
X163392164Y-111260000D01*
X163607836Y-110540000D02*
X163392164Y-110540000D01*
%TO.C,J5*%
X157560000Y-101330000D02*
X157560000Y-100000000D01*
X158890000Y-101330000D02*
X157560000Y-101330000D01*
X160160000Y-101330000D02*
X172920000Y-101330000D01*
X160160000Y-101330000D02*
X160160000Y-98670000D01*
X172920000Y-101330000D02*
X172920000Y-98670000D01*
X160160000Y-98670000D02*
X172920000Y-98670000D01*
%TO.C,R9*%
X136953641Y-109280000D02*
X136646359Y-109280000D01*
X136953641Y-108520000D02*
X136646359Y-108520000D01*
%TO.C,C14*%
X145026000Y-124224164D02*
X145026000Y-124439836D01*
X144306000Y-124224164D02*
X144306000Y-124439836D01*
%TO.C,J14*%
X146240000Y-130673000D02*
X146660000Y-130673000D01*
X146240000Y-132653000D02*
X146240000Y-130673000D01*
X146240000Y-135023000D02*
X146240000Y-134623000D01*
X148240000Y-130443000D02*
X148240000Y-129993000D01*
X148690000Y-129993000D02*
X148240000Y-129993000D01*
X153760000Y-130673000D02*
X153340000Y-130673000D01*
X153760000Y-132653000D02*
X153760000Y-130673000D01*
X153760000Y-134623000D02*
X153760000Y-135023000D01*
%TO.C,C11*%
X149513000Y-113263836D02*
X149513000Y-113048164D01*
X150233000Y-113263836D02*
X150233000Y-113048164D01*
%TO.C,R6*%
X147334000Y-124485641D02*
X147334000Y-124178359D01*
X148094000Y-124485641D02*
X148094000Y-124178359D01*
%TO.C,R13*%
X140980000Y-108046359D02*
X140980000Y-108353641D01*
X140220000Y-108046359D02*
X140220000Y-108353641D01*
%TO.C,R3*%
X156846359Y-129220000D02*
X157153641Y-129220000D01*
X156846359Y-129980000D02*
X157153641Y-129980000D01*
%TO.C,U3*%
X144376000Y-111886000D02*
X144376000Y-113686000D01*
X144376000Y-111886000D02*
X144376000Y-111086000D01*
X147496000Y-111886000D02*
X147496000Y-112686000D01*
X147496000Y-111886000D02*
X147496000Y-111086000D01*
%TO.C,R16*%
X164653641Y-128880000D02*
X164346359Y-128880000D01*
X164653641Y-128120000D02*
X164346359Y-128120000D01*
%TO.C,J13*%
X156145000Y-132070000D02*
X157475000Y-132070000D01*
X156145000Y-133400000D02*
X156145000Y-132070000D01*
X156145000Y-134670000D02*
X156145000Y-134730000D01*
X156145000Y-134670000D02*
X158805000Y-134670000D01*
X156145000Y-134730000D02*
X158805000Y-134730000D01*
X158805000Y-134670000D02*
X158805000Y-134730000D01*
%TO.C,C12*%
X143707836Y-117860000D02*
X143492164Y-117860000D01*
X143707836Y-117140000D02*
X143492164Y-117140000D01*
%TO.C,C25*%
X126460000Y-107942164D02*
X126460000Y-108157836D01*
X125740000Y-107942164D02*
X125740000Y-108157836D01*
%TO.C,R1*%
X138033359Y-125984000D02*
X138340641Y-125984000D01*
X138033359Y-126744000D02*
X138340641Y-126744000D01*
%TO.C,D6*%
X154600000Y-100400000D02*
X154600000Y-98400000D01*
X154600000Y-100400000D02*
X150750000Y-100400000D01*
X154600000Y-98400000D02*
X150750000Y-98400000D01*
%TO.C,R5*%
X148350000Y-124485641D02*
X148350000Y-124178359D01*
X149110000Y-124485641D02*
X149110000Y-124178359D01*
%TO.C,R7*%
X158482359Y-113030000D02*
X158789641Y-113030000D01*
X158482359Y-113790000D02*
X158789641Y-113790000D01*
%TO.C,U7*%
X161600000Y-119440000D02*
X159800000Y-119440000D01*
X161600000Y-119440000D02*
X162400000Y-119440000D01*
X161600000Y-122560000D02*
X160800000Y-122560000D01*
X161600000Y-122560000D02*
X162400000Y-122560000D01*
%TO.C,L1*%
X143110000Y-116018000D02*
X139110000Y-116018000D01*
X143110000Y-111818000D02*
X139110000Y-111818000D01*
%TO.C,R10*%
X138620000Y-108353641D02*
X138620000Y-108046359D01*
X139380000Y-108353641D02*
X139380000Y-108046359D01*
%TO.C,C7*%
X163292164Y-109240000D02*
X163507836Y-109240000D01*
X163292164Y-109960000D02*
X163507836Y-109960000D01*
%TO.C,C4*%
X145986748Y-107674000D02*
X147409252Y-107674000D01*
X145986748Y-109494000D02*
X147409252Y-109494000D01*
%TO.C,D3*%
X163550000Y-118750000D02*
X157650000Y-118750000D01*
X163550000Y-114850000D02*
X157650000Y-114850000D01*
X157650000Y-114850000D02*
X157650000Y-115925000D01*
%TO.C,D5*%
X158164000Y-105552000D02*
X158164000Y-107552000D01*
X158164000Y-105552000D02*
X162064000Y-105552000D01*
X158164000Y-107552000D02*
X162064000Y-107552000D01*
%TO.C,Q1*%
X144140000Y-101980000D02*
X144140000Y-105430000D01*
X144140000Y-101980000D02*
X144140000Y-100030000D01*
X149260000Y-101980000D02*
X149260000Y-103930000D01*
X149260000Y-101980000D02*
X149260000Y-100030000D01*
%TO.C,D2*%
X141888000Y-111342000D02*
X143888000Y-111342000D01*
X141888000Y-111342000D02*
X141888000Y-107442000D01*
X143888000Y-111342000D02*
X143888000Y-107442000D01*
%TO.C,C6*%
X146042000Y-124224164D02*
X146042000Y-124439836D01*
X145322000Y-124224164D02*
X145322000Y-124439836D01*
%TO.C,C22*%
X140167252Y-111097000D02*
X139644748Y-111097000D01*
X140167252Y-109627000D02*
X139644748Y-109627000D01*
%TO.C,R11*%
X150126000Y-110970359D02*
X150126000Y-111277641D01*
X149366000Y-110970359D02*
X149366000Y-111277641D01*
%TO.C,R14*%
X136253641Y-107380000D02*
X135946359Y-107380000D01*
X136253641Y-106620000D02*
X135946359Y-106620000D01*
%TO.C,C1*%
X151485000Y-109312349D02*
X151485000Y-108512349D01*
X151085000Y-108912349D02*
X151885000Y-108912349D01*
X149720000Y-104902651D02*
X157880000Y-104902651D01*
X149720000Y-104862651D02*
X157880000Y-104862651D01*
X149720000Y-104822651D02*
X157880000Y-104822651D01*
X149721000Y-104782651D02*
X157879000Y-104782651D01*
X149723000Y-104742651D02*
X157877000Y-104742651D01*
X149724000Y-104702651D02*
X157876000Y-104702651D01*
X149726000Y-104662651D02*
X157874000Y-104662651D01*
X149729000Y-104622651D02*
X157871000Y-104622651D01*
X149732000Y-104582651D02*
X157868000Y-104582651D01*
X149735000Y-104542651D02*
X157865000Y-104542651D01*
X149739000Y-104502651D02*
X157861000Y-104502651D01*
X149743000Y-104462651D02*
X157857000Y-104462651D01*
X149748000Y-104422651D02*
X157852000Y-104422651D01*
X149752000Y-104382651D02*
X157848000Y-104382651D01*
X149758000Y-104342651D02*
X157842000Y-104342651D01*
X149763000Y-104302651D02*
X157837000Y-104302651D01*
X149770000Y-104262651D02*
X157830000Y-104262651D01*
X149776000Y-104222651D02*
X157824000Y-104222651D01*
X149783000Y-104181651D02*
X152760000Y-104181651D01*
X154840000Y-104181651D02*
X157817000Y-104181651D01*
X149790000Y-104141651D02*
X152760000Y-104141651D01*
X154840000Y-104141651D02*
X157810000Y-104141651D01*
X149798000Y-104101651D02*
X152760000Y-104101651D01*
X154840000Y-104101651D02*
X157802000Y-104101651D01*
X149806000Y-104061651D02*
X152760000Y-104061651D01*
X154840000Y-104061651D02*
X157794000Y-104061651D01*
X149815000Y-104021651D02*
X152760000Y-104021651D01*
X154840000Y-104021651D02*
X157785000Y-104021651D01*
X149824000Y-103981651D02*
X152760000Y-103981651D01*
X154840000Y-103981651D02*
X157776000Y-103981651D01*
X149833000Y-103941651D02*
X152760000Y-103941651D01*
X154840000Y-103941651D02*
X157767000Y-103941651D01*
X149843000Y-103901651D02*
X152760000Y-103901651D01*
X154840000Y-103901651D02*
X157757000Y-103901651D01*
X149853000Y-103861651D02*
X152760000Y-103861651D01*
X154840000Y-103861651D02*
X157747000Y-103861651D01*
X149864000Y-103821651D02*
X152760000Y-103821651D01*
X154840000Y-103821651D02*
X157736000Y-103821651D01*
X149875000Y-103781651D02*
X152760000Y-103781651D01*
X154840000Y-103781651D02*
X157725000Y-103781651D01*
X149886000Y-103741651D02*
X152760000Y-103741651D01*
X154840000Y-103741651D02*
X157714000Y-103741651D01*
X149898000Y-103701651D02*
X152760000Y-103701651D01*
X154840000Y-103701651D02*
X157702000Y-103701651D01*
X149911000Y-103661651D02*
X152760000Y-103661651D01*
X154840000Y-103661651D02*
X157689000Y-103661651D01*
X149923000Y-103621651D02*
X152760000Y-103621651D01*
X154840000Y-103621651D02*
X157677000Y-103621651D01*
X149937000Y-103581651D02*
X152760000Y-103581651D01*
X154840000Y-103581651D02*
X157663000Y-103581651D01*
X149950000Y-103541651D02*
X152760000Y-103541651D01*
X154840000Y-103541651D02*
X157650000Y-103541651D01*
X149965000Y-103501651D02*
X152760000Y-103501651D01*
X154840000Y-103501651D02*
X157635000Y-103501651D01*
X149979000Y-103461651D02*
X152760000Y-103461651D01*
X154840000Y-103461651D02*
X157621000Y-103461651D01*
X149995000Y-103421651D02*
X152760000Y-103421651D01*
X154840000Y-103421651D02*
X157605000Y-103421651D01*
X150010000Y-103381651D02*
X152760000Y-103381651D01*
X154840000Y-103381651D02*
X157590000Y-103381651D01*
X150026000Y-103341651D02*
X152760000Y-103341651D01*
X154840000Y-103341651D02*
X157574000Y-103341651D01*
X150043000Y-103301651D02*
X152760000Y-103301651D01*
X154840000Y-103301651D02*
X157557000Y-103301651D01*
X150060000Y-103261651D02*
X152760000Y-103261651D01*
X154840000Y-103261651D02*
X157540000Y-103261651D01*
X150078000Y-103221651D02*
X152760000Y-103221651D01*
X154840000Y-103221651D02*
X157522000Y-103221651D01*
X150096000Y-103181651D02*
X152760000Y-103181651D01*
X154840000Y-103181651D02*
X157504000Y-103181651D01*
X150114000Y-103141651D02*
X152760000Y-103141651D01*
X154840000Y-103141651D02*
X157486000Y-103141651D01*
X150134000Y-103101651D02*
X152760000Y-103101651D01*
X154840000Y-103101651D02*
X157466000Y-103101651D01*
X150153000Y-103061651D02*
X152760000Y-103061651D01*
X154840000Y-103061651D02*
X157447000Y-103061651D01*
X150173000Y-103021651D02*
X152760000Y-103021651D01*
X154840000Y-103021651D02*
X157427000Y-103021651D01*
X150194000Y-102981651D02*
X152760000Y-102981651D01*
X154840000Y-102981651D02*
X157406000Y-102981651D01*
X150216000Y-102941651D02*
X152760000Y-102941651D01*
X154840000Y-102941651D02*
X157384000Y-102941651D01*
X150238000Y-102901651D02*
X152760000Y-102901651D01*
X154840000Y-102901651D02*
X157362000Y-102901651D01*
X150260000Y-102861651D02*
X152760000Y-102861651D01*
X154840000Y-102861651D02*
X157340000Y-102861651D01*
X150283000Y-102821651D02*
X152760000Y-102821651D01*
X154840000Y-102821651D02*
X157317000Y-102821651D01*
X150307000Y-102781651D02*
X152760000Y-102781651D01*
X154840000Y-102781651D02*
X157293000Y-102781651D01*
X150331000Y-102741651D02*
X152760000Y-102741651D01*
X154840000Y-102741651D02*
X157269000Y-102741651D01*
X150356000Y-102701651D02*
X152760000Y-102701651D01*
X154840000Y-102701651D02*
X157244000Y-102701651D01*
X150382000Y-102661651D02*
X152760000Y-102661651D01*
X154840000Y-102661651D02*
X157218000Y-102661651D01*
X150408000Y-102621651D02*
X152760000Y-102621651D01*
X154840000Y-102621651D02*
X157192000Y-102621651D01*
X150435000Y-102581651D02*
X152760000Y-102581651D01*
X154840000Y-102581651D02*
X157165000Y-102581651D01*
X150462000Y-102541651D02*
X152760000Y-102541651D01*
X154840000Y-102541651D02*
X157138000Y-102541651D01*
X150491000Y-102501651D02*
X152760000Y-102501651D01*
X154840000Y-102501651D02*
X157109000Y-102501651D01*
X150520000Y-102461651D02*
X152760000Y-102461651D01*
X154840000Y-102461651D02*
X157080000Y-102461651D01*
X150550000Y-102421651D02*
X152760000Y-102421651D01*
X154840000Y-102421651D02*
X157050000Y-102421651D01*
X150580000Y-102381651D02*
X152760000Y-102381651D01*
X154840000Y-102381651D02*
X157020000Y-102381651D01*
X150611000Y-102341651D02*
X152760000Y-102341651D01*
X154840000Y-102341651D02*
X156989000Y-102341651D01*
X150644000Y-102301651D02*
X152760000Y-102301651D01*
X154840000Y-102301651D02*
X156956000Y-102301651D01*
X150676000Y-102261651D02*
X152760000Y-102261651D01*
X154840000Y-102261651D02*
X156924000Y-102261651D01*
X150710000Y-102221651D02*
X152760000Y-102221651D01*
X154840000Y-102221651D02*
X156890000Y-102221651D01*
X150745000Y-102181651D02*
X152760000Y-102181651D01*
X154840000Y-102181651D02*
X156855000Y-102181651D01*
X150781000Y-102141651D02*
X152760000Y-102141651D01*
X154840000Y-102141651D02*
X156819000Y-102141651D01*
X150817000Y-102101651D02*
X156783000Y-102101651D01*
X150855000Y-102061651D02*
X156745000Y-102061651D01*
X150893000Y-102021651D02*
X156707000Y-102021651D01*
X150933000Y-101981651D02*
X156667000Y-101981651D01*
X150974000Y-101941651D02*
X156626000Y-101941651D01*
X151016000Y-101901651D02*
X156584000Y-101901651D01*
X151059000Y-101861651D02*
X156541000Y-101861651D01*
X151103000Y-101821651D02*
X156497000Y-101821651D01*
X151149000Y-101781651D02*
X156451000Y-101781651D01*
X151196000Y-101741651D02*
X156404000Y-101741651D01*
X151244000Y-101701651D02*
X156356000Y-101701651D01*
X151295000Y-101661651D02*
X156305000Y-101661651D01*
X151346000Y-101621651D02*
X156254000Y-101621651D01*
X151400000Y-101581651D02*
X156200000Y-101581651D01*
X151455000Y-101541651D02*
X156145000Y-101541651D01*
X151513000Y-101501651D02*
X156087000Y-101501651D01*
X151572000Y-101461651D02*
X156028000Y-101461651D01*
X151634000Y-101421651D02*
X155966000Y-101421651D01*
X151698000Y-101381651D02*
X155902000Y-101381651D01*
X151766000Y-101341651D02*
X155834000Y-101341651D01*
X151836000Y-101301651D02*
X155764000Y-101301651D01*
X151910000Y-101261651D02*
X155690000Y-101261651D01*
X151987000Y-101221651D02*
X155613000Y-101221651D01*
X152069000Y-101181651D02*
X155531000Y-101181651D01*
X152155000Y-101141651D02*
X155445000Y-101141651D01*
X152248000Y-101101651D02*
X155352000Y-101101651D01*
X152347000Y-101061651D02*
X155253000Y-101061651D01*
X152454000Y-101021651D02*
X155146000Y-101021651D01*
X152571000Y-100981651D02*
X155029000Y-100981651D01*
X152702000Y-100941651D02*
X154898000Y-100941651D01*
X152852000Y-100901651D02*
X154748000Y-100901651D01*
X153032000Y-100861651D02*
X154568000Y-100861651D01*
X153267000Y-100821651D02*
X154333000Y-100821651D01*
X157920000Y-104902651D02*
G75*
G03*
X157920000Y-104902651I-4120000J0D01*
G01*
%TO.C,R4*%
X150763000Y-112420641D02*
X150763000Y-112113359D01*
X151523000Y-112420641D02*
X151523000Y-112113359D01*
%TO.C,J7*%
X128140000Y-129390000D02*
X128140000Y-130640000D01*
X128440000Y-129690000D02*
X128440000Y-134410000D01*
X128440000Y-131000000D02*
X129050000Y-131000000D01*
X128440000Y-132300000D02*
X129050000Y-132300000D01*
X128440000Y-134410000D02*
X138560000Y-134410000D01*
X129050000Y-130300000D02*
X129050000Y-133800000D01*
X129050000Y-133800000D02*
X137950000Y-133800000D01*
X129390000Y-129390000D02*
X128140000Y-129390000D01*
X129900000Y-129490000D02*
X129900000Y-129690000D01*
X130200000Y-129490000D02*
X129900000Y-129490000D01*
X130200000Y-129590000D02*
X129900000Y-129590000D01*
X130200000Y-129690000D02*
X130200000Y-129490000D01*
X131000000Y-129690000D02*
X131000000Y-130300000D01*
X131000000Y-130300000D02*
X129050000Y-130300000D01*
X131400000Y-133300000D02*
X131600000Y-133300000D01*
X131400000Y-133800000D02*
X131400000Y-133300000D01*
X131500000Y-133800000D02*
X131500000Y-133300000D01*
X131600000Y-133300000D02*
X131600000Y-133800000D01*
X133400000Y-133300000D02*
X133600000Y-133300000D01*
X133400000Y-133800000D02*
X133400000Y-133300000D01*
X133500000Y-133800000D02*
X133500000Y-133300000D01*
X133600000Y-133300000D02*
X133600000Y-133800000D01*
X135400000Y-133300000D02*
X135600000Y-133300000D01*
X135400000Y-133800000D02*
X135400000Y-133300000D01*
X135500000Y-133800000D02*
X135500000Y-133300000D01*
X135600000Y-133300000D02*
X135600000Y-133800000D01*
X136000000Y-130300000D02*
X136000000Y-129690000D01*
X137950000Y-130300000D02*
X136000000Y-130300000D01*
X137950000Y-133800000D02*
X137950000Y-130300000D01*
X138560000Y-129690000D02*
X128440000Y-129690000D01*
X138560000Y-131000000D02*
X137950000Y-131000000D01*
X138560000Y-132300000D02*
X137950000Y-132300000D01*
X138560000Y-134410000D02*
X138560000Y-129690000D01*
%TO.C,C2*%
X141752252Y-132052000D02*
X141229748Y-132052000D01*
X141752252Y-130582000D02*
X141229748Y-130582000D01*
%TO.C,J8*%
X120340000Y-103360000D02*
X121590000Y-103360000D01*
X120640000Y-103060000D02*
X125360000Y-103060000D01*
X121950000Y-103060000D02*
X121950000Y-102450000D01*
X123250000Y-103060000D02*
X123250000Y-102450000D01*
X125360000Y-103060000D02*
X125360000Y-92940000D01*
X121250000Y-102450000D02*
X124750000Y-102450000D01*
X124750000Y-102450000D02*
X124750000Y-93550000D01*
X120340000Y-102110000D02*
X120340000Y-103360000D01*
X120440000Y-101600000D02*
X120640000Y-101600000D01*
X120440000Y-101300000D02*
X120440000Y-101600000D01*
X120540000Y-101300000D02*
X120540000Y-101600000D01*
X120640000Y-101300000D02*
X120440000Y-101300000D01*
X120640000Y-100500000D02*
X121250000Y-100500000D01*
X121250000Y-100500000D02*
X121250000Y-102450000D01*
X124250000Y-100100000D02*
X124250000Y-99900000D01*
X124750000Y-100100000D02*
X124250000Y-100100000D01*
X124750000Y-100000000D02*
X124250000Y-100000000D01*
X124250000Y-99900000D02*
X124750000Y-99900000D01*
X124250000Y-98100000D02*
X124250000Y-97900000D01*
X124750000Y-98100000D02*
X124250000Y-98100000D01*
X124750000Y-98000000D02*
X124250000Y-98000000D01*
X124250000Y-97900000D02*
X124750000Y-97900000D01*
X124250000Y-96100000D02*
X124250000Y-95900000D01*
X124750000Y-96100000D02*
X124250000Y-96100000D01*
X124750000Y-96000000D02*
X124250000Y-96000000D01*
X124250000Y-95900000D02*
X124750000Y-95900000D01*
X121250000Y-95500000D02*
X120640000Y-95500000D01*
X121250000Y-93550000D02*
X121250000Y-95500000D01*
X124750000Y-93550000D02*
X121250000Y-93550000D01*
X120640000Y-92940000D02*
X120640000Y-103060000D01*
X121950000Y-92940000D02*
X121950000Y-93550000D01*
X123250000Y-92940000D02*
X123250000Y-93550000D01*
X125360000Y-92940000D02*
X120640000Y-92940000D01*
%TO.C,U5*%
X153356000Y-115134000D02*
X153356000Y-115784000D01*
X152706000Y-122354000D02*
X153356000Y-122354000D01*
X152706000Y-115134000D02*
X153356000Y-115134000D01*
X146786000Y-122354000D02*
X146136000Y-122354000D01*
X146786000Y-115134000D02*
X146136000Y-115134000D01*
X146136000Y-122354000D02*
X146136000Y-121704000D01*
X146136000Y-115134000D02*
X146136000Y-115784000D01*
%TD*%
%LPC*%
D15*
%TO.C,C9*%
X150762000Y-124995000D03*
X150762000Y-125955000D03*
%TD*%
D16*
%TO.C,C16*%
X154473000Y-121665000D03*
X155433000Y-121665000D03*
%TD*%
D17*
%TO.C,U1*%
X131000000Y-108500000D03*
D18*
X133862500Y-110775000D03*
X133862500Y-110125000D03*
X133862500Y-109475000D03*
X133862500Y-108825000D03*
X133862500Y-108175000D03*
X133862500Y-107525000D03*
X133862500Y-106875000D03*
X133862500Y-106225000D03*
X128137500Y-106225000D03*
X128137500Y-106875000D03*
X128137500Y-107525000D03*
X128137500Y-108175000D03*
X128137500Y-108825000D03*
X128137500Y-109475000D03*
X128137500Y-110125000D03*
X128137500Y-110775000D03*
%TD*%
D19*
%TO.C,J9*%
X177350000Y-94500000D03*
D20*
X177350000Y-96500000D03*
X177350000Y-98500000D03*
X177350000Y-100500000D03*
%TD*%
D21*
%TO.C,C15*%
X155400000Y-116780000D03*
X155400000Y-115820000D03*
%TD*%
D22*
%TO.C,REF\u002A\u002A*%
X174100000Y-131500000D03*
X174802944Y-129802944D03*
X174802944Y-133197056D03*
X176500000Y-129100000D03*
D23*
X176500000Y-131500000D03*
X176500000Y-131500000D03*
D22*
X176500000Y-133900000D03*
X178197056Y-129802944D03*
X178197056Y-133197056D03*
X178900000Y-131500000D03*
%TD*%
D24*
%TO.C,C3*%
X142441000Y-123951000D03*
X140541000Y-123951000D03*
%TD*%
D15*
%TO.C,C19*%
X143904000Y-114454000D03*
X143904000Y-115414000D03*
%TD*%
D25*
%TO.C,R8*%
X148730000Y-111634000D03*
X148730000Y-110614000D03*
%TD*%
D17*
%TO.C,U2*%
X169000000Y-108500000D03*
D18*
X171862500Y-110775000D03*
X171862500Y-110125000D03*
X171862500Y-109475000D03*
X171862500Y-108825000D03*
X171862500Y-108175000D03*
X171862500Y-107525000D03*
X171862500Y-106875000D03*
X171862500Y-106225000D03*
X166137500Y-106225000D03*
X166137500Y-106875000D03*
X166137500Y-107525000D03*
X166137500Y-108175000D03*
X166137500Y-108825000D03*
X166137500Y-109475000D03*
X166137500Y-110125000D03*
X166137500Y-110775000D03*
%TD*%
D26*
%TO.C,J6*%
X163500000Y-131500000D03*
D27*
X165500000Y-131500000D03*
X167500000Y-131500000D03*
X169500000Y-131500000D03*
%TD*%
D28*
%TO.C,U6*%
X161982000Y-128015000D03*
X161982000Y-126745000D03*
X161982000Y-125475000D03*
X161982000Y-124205000D03*
X154782000Y-124205000D03*
X154782000Y-125475000D03*
X154782000Y-126745000D03*
X154782000Y-128015000D03*
%TD*%
D29*
%TO.C,Y1*%
X152833000Y-110409000D03*
X152833000Y-112609000D03*
X154533000Y-112609000D03*
X154533000Y-110409000D03*
%TD*%
D30*
%TO.C,U4*%
X142450000Y-126662500D03*
X141500000Y-126662500D03*
X140550000Y-126662500D03*
X140550000Y-128937500D03*
X142450000Y-128937500D03*
%TD*%
D31*
%TO.C,SW1*%
X157325000Y-109825000D03*
X161475000Y-109825000D03*
X157325000Y-111975000D03*
X161475000Y-111975000D03*
%TD*%
D32*
%TO.C,C13*%
X144765000Y-121411000D03*
X143805000Y-121411000D03*
%TD*%
D33*
%TO.C,R2*%
X158690000Y-129600000D03*
X159710000Y-129600000D03*
%TD*%
D34*
%TO.C,J12*%
X152500000Y-90000000D03*
D35*
X147500000Y-90000000D03*
%TD*%
D21*
%TO.C,C20*%
X151143000Y-110461000D03*
X151143000Y-109501000D03*
%TD*%
D22*
%TO.C,REF\u002A\u002A*%
X174100000Y-88500000D03*
X174802944Y-86802944D03*
X174802944Y-90197056D03*
X176500000Y-86100000D03*
D23*
X176500000Y-88500000D03*
X176500000Y-88500000D03*
D22*
X176500000Y-90900000D03*
X178197056Y-86802944D03*
X178197056Y-90197056D03*
X178900000Y-88500000D03*
%TD*%
D36*
%TO.C,J4*%
X128410000Y-100000000D03*
D37*
X130950000Y-100000000D03*
X133490000Y-100000000D03*
X136030000Y-100000000D03*
X138570000Y-100000000D03*
X141110000Y-100000000D03*
%TD*%
D21*
%TO.C,C24*%
X126100000Y-110530000D03*
X126100000Y-109570000D03*
%TD*%
D38*
%TO.C,R17*%
X176360000Y-106325000D03*
X175340000Y-106325000D03*
%TD*%
D21*
%TO.C,C21*%
X156000000Y-111819000D03*
X156000000Y-110859000D03*
%TD*%
D15*
%TO.C,C17*%
X149746000Y-124995000D03*
X149746000Y-125955000D03*
%TD*%
D38*
%TO.C,R15*%
X175510000Y-108800000D03*
X174490000Y-108800000D03*
%TD*%
%TO.C,R12*%
X159910000Y-104600000D03*
X158890000Y-104600000D03*
%TD*%
D39*
%TO.C,D1*%
X138400000Y-124937500D03*
X138400000Y-123062500D03*
%TD*%
D32*
%TO.C,C18*%
X153020005Y-128040409D03*
X152060005Y-128040409D03*
%TD*%
D15*
%TO.C,C5*%
X146698000Y-123852000D03*
X146698000Y-124812000D03*
%TD*%
D21*
%TO.C,C10*%
X148857000Y-113636000D03*
X148857000Y-112676000D03*
%TD*%
D32*
%TO.C,C26*%
X163980000Y-110900000D03*
X163020000Y-110900000D03*
%TD*%
D36*
%TO.C,J5*%
X158890000Y-100000000D03*
D37*
X161430000Y-100000000D03*
X163970000Y-100000000D03*
X166510000Y-100000000D03*
X169050000Y-100000000D03*
X171590000Y-100000000D03*
%TD*%
D40*
%TO.C,J11*%
X164500000Y-90000000D03*
D41*
X168460000Y-90000000D03*
%TD*%
D38*
%TO.C,R9*%
X137310000Y-108900000D03*
X136290000Y-108900000D03*
%TD*%
D15*
%TO.C,C14*%
X144666000Y-123852000D03*
X144666000Y-124812000D03*
%TD*%
D42*
%TO.C,J14*%
X148700000Y-130933000D03*
X149350000Y-130933000D03*
X150000000Y-130933000D03*
X150650000Y-130933000D03*
X151300000Y-130933000D03*
D43*
X146500000Y-133633000D03*
D44*
X147100000Y-133633000D03*
D45*
X147500000Y-130933000D03*
D46*
X149000000Y-133633000D03*
X151000000Y-133633000D03*
D45*
X152500000Y-130933000D03*
D44*
X152900000Y-133633000D03*
D43*
X153500000Y-133633000D03*
%TD*%
D22*
%TO.C,REF\u002A\u002A*%
X121100000Y-131500000D03*
X121802944Y-129802944D03*
X121802944Y-133197056D03*
X123500000Y-129100000D03*
D23*
X123500000Y-131500000D03*
X123500000Y-131500000D03*
D22*
X123500000Y-133900000D03*
X125197056Y-129802944D03*
X125197056Y-133197056D03*
X125900000Y-131500000D03*
%TD*%
D47*
%TO.C,J3*%
X152500000Y-93000000D03*
D48*
X147500000Y-93000000D03*
%TD*%
D21*
%TO.C,C11*%
X149873000Y-113636000D03*
X149873000Y-112676000D03*
%TD*%
D25*
%TO.C,R6*%
X147714000Y-124842000D03*
X147714000Y-123822000D03*
%TD*%
D49*
%TO.C,R13*%
X140600000Y-107690000D03*
X140600000Y-108710000D03*
%TD*%
D33*
%TO.C,R3*%
X156490000Y-129600000D03*
X157510000Y-129600000D03*
%TD*%
D50*
%TO.C,U3*%
X144986000Y-113023500D03*
X145936000Y-113023500D03*
X146886000Y-113023500D03*
X146886000Y-110748500D03*
X145936000Y-110748500D03*
X144986000Y-110748500D03*
%TD*%
D38*
%TO.C,R16*%
X165010000Y-128500000D03*
X163990000Y-128500000D03*
%TD*%
D36*
%TO.C,J13*%
X157475000Y-133400000D03*
%TD*%
D47*
%TO.C,J2*%
X169000000Y-93000000D03*
D48*
X164000000Y-93000000D03*
%TD*%
D32*
%TO.C,C12*%
X144080000Y-117500000D03*
X143120000Y-117500000D03*
%TD*%
D15*
%TO.C,C25*%
X126100000Y-107570000D03*
X126100000Y-108530000D03*
%TD*%
D33*
%TO.C,R1*%
X137677000Y-126364000D03*
X138697000Y-126364000D03*
%TD*%
D51*
%TO.C,D6*%
X153800000Y-99400000D03*
X151000000Y-99400000D03*
%TD*%
D25*
%TO.C,R5*%
X148730000Y-124842000D03*
X148730000Y-123822000D03*
%TD*%
D33*
%TO.C,R7*%
X158126000Y-113410000D03*
X159146000Y-113410000D03*
%TD*%
D40*
%TO.C,J10*%
X131750000Y-90000000D03*
D41*
X135710000Y-90000000D03*
%TD*%
D52*
%TO.C,U7*%
X160462500Y-120050000D03*
X160462500Y-121000000D03*
X160462500Y-121950000D03*
X162737500Y-121950000D03*
X162737500Y-120050000D03*
%TD*%
D53*
%TO.C,L1*%
X142510000Y-113918000D03*
X139710000Y-113918000D03*
%TD*%
D25*
%TO.C,R10*%
X139000000Y-108710000D03*
X139000000Y-107690000D03*
%TD*%
D22*
%TO.C,REF\u002A\u002A*%
X121100000Y-88500000D03*
X121802944Y-86802944D03*
X121802944Y-90197056D03*
X123500000Y-86100000D03*
D23*
X123500000Y-88500000D03*
X123500000Y-88500000D03*
D22*
X123500000Y-90900000D03*
X125197056Y-86802944D03*
X125197056Y-90197056D03*
X125900000Y-88500000D03*
%TD*%
D16*
%TO.C,C7*%
X162920000Y-109600000D03*
X163880000Y-109600000D03*
%TD*%
D54*
%TO.C,C4*%
X145223000Y-108584000D03*
X148173000Y-108584000D03*
%TD*%
D55*
%TO.C,D3*%
X162350000Y-117675000D03*
X162350000Y-115925000D03*
X158850000Y-115925000D03*
X158850000Y-117675000D03*
%TD*%
D56*
%TO.C,D5*%
X158764000Y-106552000D03*
X162064000Y-106552000D03*
%TD*%
D57*
%TO.C,Q1*%
X144795000Y-104455000D03*
X146065000Y-104455000D03*
X147335000Y-104455000D03*
X148605000Y-104455000D03*
X148605000Y-99505000D03*
X147335000Y-99505000D03*
X146065000Y-99505000D03*
X144795000Y-99505000D03*
%TD*%
D58*
%TO.C,D2*%
X142888000Y-110742000D03*
X142888000Y-107442000D03*
%TD*%
D15*
%TO.C,C6*%
X145682000Y-123852000D03*
X145682000Y-124812000D03*
%TD*%
D24*
%TO.C,C22*%
X140856000Y-110362000D03*
X138956000Y-110362000D03*
%TD*%
D47*
%TO.C,J1*%
X136000000Y-93000008D03*
D48*
X131000000Y-93000008D03*
%TD*%
D49*
%TO.C,R11*%
X149746000Y-110614000D03*
X149746000Y-111634000D03*
%TD*%
D38*
%TO.C,R14*%
X136610000Y-107000000D03*
X135590000Y-107000000D03*
%TD*%
D59*
%TO.C,C1*%
X153800000Y-106652651D03*
D60*
X153800000Y-103152651D03*
%TD*%
D25*
%TO.C,R4*%
X151143000Y-112777000D03*
X151143000Y-111757000D03*
%TD*%
D26*
%TO.C,J7*%
X130500000Y-131500000D03*
D27*
X132500000Y-131500000D03*
X134500000Y-131500000D03*
X136500000Y-131500000D03*
%TD*%
D24*
%TO.C,C2*%
X142441000Y-131317000D03*
X140541000Y-131317000D03*
%TD*%
D61*
%TO.C,J8*%
X122450000Y-101000000D03*
D20*
X122450000Y-99000000D03*
X122450000Y-97000000D03*
X122450000Y-95000000D03*
%TD*%
D62*
%TO.C,U5*%
X153183500Y-121344000D03*
X153183500Y-120944000D03*
X153183500Y-120544000D03*
X153183500Y-120144000D03*
X153183500Y-119744000D03*
X153183500Y-119344000D03*
X153183500Y-118944000D03*
X153183500Y-118544000D03*
X153183500Y-118144000D03*
X153183500Y-117744000D03*
X153183500Y-117344000D03*
X153183500Y-116944000D03*
X153183500Y-116544000D03*
X153183500Y-116144000D03*
D63*
X152346000Y-115306500D03*
X151946000Y-115306500D03*
X151546000Y-115306500D03*
X151146000Y-115306500D03*
X150746000Y-115306500D03*
X150346000Y-115306500D03*
X149946000Y-115306500D03*
X149546000Y-115306500D03*
X149146000Y-115306500D03*
X148746000Y-115306500D03*
X148346000Y-115306500D03*
X147946000Y-115306500D03*
X147546000Y-115306500D03*
X147146000Y-115306500D03*
D62*
X146308500Y-116144000D03*
X146308500Y-116544000D03*
X146308500Y-116944000D03*
X146308500Y-117344000D03*
X146308500Y-117744000D03*
X146308500Y-118144000D03*
X146308500Y-118544000D03*
X146308500Y-118944000D03*
X146308500Y-119344000D03*
X146308500Y-119744000D03*
X146308500Y-120144000D03*
X146308500Y-120544000D03*
X146308500Y-120944000D03*
X146308500Y-121344000D03*
D63*
X147146000Y-122181500D03*
X147546000Y-122181500D03*
X147946000Y-122181500D03*
X148346000Y-122181500D03*
X148746000Y-122181500D03*
X149146000Y-122181500D03*
X149546000Y-122181500D03*
X149946000Y-122181500D03*
X150346000Y-122181500D03*
X150746000Y-122181500D03*
X151146000Y-122181500D03*
X151546000Y-122181500D03*
X151946000Y-122181500D03*
X152346000Y-122181500D03*
D64*
X149746000Y-118744000D03*
%TD*%
%LPD*%
M02*
