%TF.GenerationSoftware,KiCad,Pcbnew,7.0.8*%
%TF.CreationDate,2024-07-05T14:08:20-04:00*%
%TF.ProjectId,motor-driver,6d6f746f-722d-4647-9269-7665722e6b69,rev?*%
%TF.SameCoordinates,Original*%
%TF.FileFunction,Legend,Bot*%
%TF.FilePolarity,Positive*%
%FSLAX46Y46*%
G04 Gerber Fmt 4.6, Leading zero omitted, Abs format (unit mm)*
G04 Created by KiCad (PCBNEW 7.0.8) date 2024-07-05 14:08:20*
%MOMM*%
%LPD*%
G01*
G04 APERTURE LIST*
G04 Aperture macros list*
%AMRoundRect*
0 Rectangle with rounded corners*
0 $1 Rounding radius*
0 $2 $3 $4 $5 $6 $7 $8 $9 X,Y pos of 4 corners*
0 Add a 4 corners polygon primitive as box body*
4,1,4,$2,$3,$4,$5,$6,$7,$8,$9,$2,$3,0*
0 Add four circle primitives for the rounded corners*
1,1,$1+$1,$2,$3*
1,1,$1+$1,$4,$5*
1,1,$1+$1,$6,$7*
1,1,$1+$1,$8,$9*
0 Add four rect primitives between the rounded corners*
20,1,$1+$1,$2,$3,$4,$5,0*
20,1,$1+$1,$4,$5,$6,$7,0*
20,1,$1+$1,$6,$7,$8,$9,0*
20,1,$1+$1,$8,$9,$2,$3,0*%
%AMFreePoly0*
4,1,6,1.000000,0.000000,0.500000,-0.750000,-0.500000,-0.750000,-0.500000,0.750000,0.500000,0.750000,1.000000,0.000000,1.000000,0.000000,$1*%
%AMFreePoly1*
4,1,6,0.500000,-0.750000,-0.650000,-0.750000,-0.150000,0.000000,-0.650000,0.750000,0.500000,0.750000,0.500000,-0.750000,0.500000,-0.750000,$1*%
G04 Aperture macros list end*
%ADD10C,0.120000*%
%ADD11C,0.150000*%
%ADD12RoundRect,0.250000X-0.625000X0.350000X-0.625000X-0.350000X0.625000X-0.350000X0.625000X0.350000X0*%
%ADD13O,1.750000X1.200000*%
%ADD14C,0.800000*%
%ADD15C,6.400000*%
%ADD16RoundRect,0.250000X-0.350000X-0.625000X0.350000X-0.625000X0.350000X0.625000X-0.350000X0.625000X0*%
%ADD17O,1.200000X1.750000*%
%ADD18R,3.000000X3.000000*%
%ADD19C,3.000000*%
%ADD20R,1.700000X1.700000*%
%ADD21O,1.700000X1.700000*%
%ADD22RoundRect,0.250001X-1.099999X-1.099999X1.099999X-1.099999X1.099999X1.099999X-1.099999X1.099999X0*%
%ADD23C,2.700000*%
%ADD24O,0.890000X1.550000*%
%ADD25O,1.250000X0.950000*%
%ADD26R,2.600000X2.600000*%
%ADD27C,2.600000*%
%ADD28R,1.600000X1.600000*%
%ADD29C,1.600000*%
%ADD30RoundRect,0.250000X0.625000X-0.350000X0.625000X0.350000X-0.625000X0.350000X-0.625000X-0.350000X0*%
%ADD31FreePoly0,90.000000*%
%ADD32FreePoly1,90.000000*%
G04 APERTURE END LIST*
D10*
X169898049Y-134209523D02*
X169936144Y-134285713D01*
X169936144Y-134285713D02*
X169936144Y-134399999D01*
X169936144Y-134399999D02*
X169898049Y-134514285D01*
X169898049Y-134514285D02*
X169821859Y-134590475D01*
X169821859Y-134590475D02*
X169745668Y-134628570D01*
X169745668Y-134628570D02*
X169593287Y-134666666D01*
X169593287Y-134666666D02*
X169479001Y-134666666D01*
X169479001Y-134666666D02*
X169326620Y-134628570D01*
X169326620Y-134628570D02*
X169250430Y-134590475D01*
X169250430Y-134590475D02*
X169174240Y-134514285D01*
X169174240Y-134514285D02*
X169136144Y-134399999D01*
X169136144Y-134399999D02*
X169136144Y-134323808D01*
X169136144Y-134323808D02*
X169174240Y-134209523D01*
X169174240Y-134209523D02*
X169212335Y-134171427D01*
X169212335Y-134171427D02*
X169479001Y-134171427D01*
X169479001Y-134171427D02*
X169479001Y-134323808D01*
X169136144Y-133828570D02*
X169936144Y-133828570D01*
X169936144Y-133828570D02*
X169136144Y-133371427D01*
X169136144Y-133371427D02*
X169936144Y-133371427D01*
X169136144Y-132990475D02*
X169936144Y-132990475D01*
X169936144Y-132990475D02*
X169936144Y-132799999D01*
X169936144Y-132799999D02*
X169898049Y-132685713D01*
X169898049Y-132685713D02*
X169821859Y-132609523D01*
X169821859Y-132609523D02*
X169745668Y-132571428D01*
X169745668Y-132571428D02*
X169593287Y-132533332D01*
X169593287Y-132533332D02*
X169479001Y-132533332D01*
X169479001Y-132533332D02*
X169326620Y-132571428D01*
X169326620Y-132571428D02*
X169250430Y-132609523D01*
X169250430Y-132609523D02*
X169174240Y-132685713D01*
X169174240Y-132685713D02*
X169136144Y-132799999D01*
X169136144Y-132799999D02*
X169136144Y-132990475D01*
X122623144Y-121931238D02*
X122051716Y-121931238D01*
X122051716Y-121931238D02*
X121937430Y-121969333D01*
X121937430Y-121969333D02*
X121861240Y-122045524D01*
X121861240Y-122045524D02*
X121823144Y-122159809D01*
X121823144Y-122159809D02*
X121823144Y-122236000D01*
X121823144Y-121169333D02*
X121823144Y-121550285D01*
X121823144Y-121550285D02*
X122623144Y-121550285D01*
X121899335Y-120445523D02*
X121861240Y-120483619D01*
X121861240Y-120483619D02*
X121823144Y-120597904D01*
X121823144Y-120597904D02*
X121823144Y-120674095D01*
X121823144Y-120674095D02*
X121861240Y-120788381D01*
X121861240Y-120788381D02*
X121937430Y-120864571D01*
X121937430Y-120864571D02*
X122013620Y-120902666D01*
X122013620Y-120902666D02*
X122166001Y-120940762D01*
X122166001Y-120940762D02*
X122280287Y-120940762D01*
X122280287Y-120940762D02*
X122432668Y-120902666D01*
X122432668Y-120902666D02*
X122508859Y-120864571D01*
X122508859Y-120864571D02*
X122585049Y-120788381D01*
X122585049Y-120788381D02*
X122623144Y-120674095D01*
X122623144Y-120674095D02*
X122623144Y-120597904D01*
X122623144Y-120597904D02*
X122585049Y-120483619D01*
X122585049Y-120483619D02*
X122546954Y-120445523D01*
X122623144Y-119874095D02*
X122051716Y-119874095D01*
X122051716Y-119874095D02*
X121937430Y-119912190D01*
X121937430Y-119912190D02*
X121861240Y-119988381D01*
X121861240Y-119988381D02*
X121823144Y-120102666D01*
X121823144Y-120102666D02*
X121823144Y-120178857D01*
X121823144Y-119112190D02*
X121823144Y-119493142D01*
X121823144Y-119493142D02*
X122623144Y-119493142D01*
X121899335Y-118388380D02*
X121861240Y-118426476D01*
X121861240Y-118426476D02*
X121823144Y-118540761D01*
X121823144Y-118540761D02*
X121823144Y-118616952D01*
X121823144Y-118616952D02*
X121861240Y-118731238D01*
X121861240Y-118731238D02*
X121937430Y-118807428D01*
X121937430Y-118807428D02*
X122013620Y-118845523D01*
X122013620Y-118845523D02*
X122166001Y-118883619D01*
X122166001Y-118883619D02*
X122280287Y-118883619D01*
X122280287Y-118883619D02*
X122432668Y-118845523D01*
X122432668Y-118845523D02*
X122508859Y-118807428D01*
X122508859Y-118807428D02*
X122585049Y-118731238D01*
X122585049Y-118731238D02*
X122623144Y-118616952D01*
X122623144Y-118616952D02*
X122623144Y-118540761D01*
X122623144Y-118540761D02*
X122585049Y-118426476D01*
X122585049Y-118426476D02*
X122546954Y-118388380D01*
X122623144Y-117816952D02*
X122051716Y-117816952D01*
X122051716Y-117816952D02*
X121937430Y-117855047D01*
X121937430Y-117855047D02*
X121861240Y-117931238D01*
X121861240Y-117931238D02*
X121823144Y-118045523D01*
X121823144Y-118045523D02*
X121823144Y-118121714D01*
X121823144Y-117055047D02*
X121823144Y-117435999D01*
X121823144Y-117435999D02*
X122623144Y-117435999D01*
X121899335Y-116331237D02*
X121861240Y-116369333D01*
X121861240Y-116369333D02*
X121823144Y-116483618D01*
X121823144Y-116483618D02*
X121823144Y-116559809D01*
X121823144Y-116559809D02*
X121861240Y-116674095D01*
X121861240Y-116674095D02*
X121937430Y-116750285D01*
X121937430Y-116750285D02*
X122013620Y-116788380D01*
X122013620Y-116788380D02*
X122166001Y-116826476D01*
X122166001Y-116826476D02*
X122280287Y-116826476D01*
X122280287Y-116826476D02*
X122432668Y-116788380D01*
X122432668Y-116788380D02*
X122508859Y-116750285D01*
X122508859Y-116750285D02*
X122585049Y-116674095D01*
X122585049Y-116674095D02*
X122623144Y-116559809D01*
X122623144Y-116559809D02*
X122623144Y-116483618D01*
X122623144Y-116483618D02*
X122585049Y-116369333D01*
X122585049Y-116369333D02*
X122546954Y-116331237D01*
X122623144Y-115759809D02*
X122051716Y-115759809D01*
X122051716Y-115759809D02*
X121937430Y-115797904D01*
X121937430Y-115797904D02*
X121861240Y-115874095D01*
X121861240Y-115874095D02*
X121823144Y-115988380D01*
X121823144Y-115988380D02*
X121823144Y-116064571D01*
X121823144Y-114997904D02*
X121823144Y-115378856D01*
X121823144Y-115378856D02*
X122623144Y-115378856D01*
X121899335Y-114274094D02*
X121861240Y-114312190D01*
X121861240Y-114312190D02*
X121823144Y-114426475D01*
X121823144Y-114426475D02*
X121823144Y-114502666D01*
X121823144Y-114502666D02*
X121861240Y-114616952D01*
X121861240Y-114616952D02*
X121937430Y-114693142D01*
X121937430Y-114693142D02*
X122013620Y-114731237D01*
X122013620Y-114731237D02*
X122166001Y-114769333D01*
X122166001Y-114769333D02*
X122280287Y-114769333D01*
X122280287Y-114769333D02*
X122432668Y-114731237D01*
X122432668Y-114731237D02*
X122508859Y-114693142D01*
X122508859Y-114693142D02*
X122585049Y-114616952D01*
X122585049Y-114616952D02*
X122623144Y-114502666D01*
X122623144Y-114502666D02*
X122623144Y-114426475D01*
X122623144Y-114426475D02*
X122585049Y-114312190D01*
X122585049Y-114312190D02*
X122546954Y-114274094D01*
X167811144Y-134640476D02*
X167811144Y-134145238D01*
X167811144Y-134145238D02*
X167506382Y-134411904D01*
X167506382Y-134411904D02*
X167506382Y-134297619D01*
X167506382Y-134297619D02*
X167468287Y-134221428D01*
X167468287Y-134221428D02*
X167430192Y-134183333D01*
X167430192Y-134183333D02*
X167354001Y-134145238D01*
X167354001Y-134145238D02*
X167163525Y-134145238D01*
X167163525Y-134145238D02*
X167087335Y-134183333D01*
X167087335Y-134183333D02*
X167049240Y-134221428D01*
X167049240Y-134221428D02*
X167011144Y-134297619D01*
X167011144Y-134297619D02*
X167011144Y-134526190D01*
X167011144Y-134526190D02*
X167049240Y-134602381D01*
X167049240Y-134602381D02*
X167087335Y-134640476D01*
X167811144Y-133916666D02*
X167011144Y-133649999D01*
X167011144Y-133649999D02*
X167811144Y-133383333D01*
X167811144Y-133192857D02*
X167811144Y-132697619D01*
X167811144Y-132697619D02*
X167506382Y-132964285D01*
X167506382Y-132964285D02*
X167506382Y-132850000D01*
X167506382Y-132850000D02*
X167468287Y-132773809D01*
X167468287Y-132773809D02*
X167430192Y-132735714D01*
X167430192Y-132735714D02*
X167354001Y-132697619D01*
X167354001Y-132697619D02*
X167163525Y-132697619D01*
X167163525Y-132697619D02*
X167087335Y-132735714D01*
X167087335Y-132735714D02*
X167049240Y-132773809D01*
X167049240Y-132773809D02*
X167011144Y-132850000D01*
X167011144Y-132850000D02*
X167011144Y-133078571D01*
X167011144Y-133078571D02*
X167049240Y-133154762D01*
X167049240Y-133154762D02*
X167087335Y-133192857D01*
X130936144Y-134409523D02*
X130936144Y-133952380D01*
X130136144Y-134180952D02*
X130936144Y-134180952D01*
X130936144Y-133761904D02*
X130136144Y-133228570D01*
X130936144Y-133228570D02*
X130136144Y-133761904D01*
X140330576Y-120395855D02*
X140330576Y-119595855D01*
X139949624Y-120395855D02*
X139949624Y-119595855D01*
X139949624Y-119595855D02*
X139759148Y-119595855D01*
X139759148Y-119595855D02*
X139644862Y-119633950D01*
X139644862Y-119633950D02*
X139568672Y-119710140D01*
X139568672Y-119710140D02*
X139530577Y-119786331D01*
X139530577Y-119786331D02*
X139492481Y-119938712D01*
X139492481Y-119938712D02*
X139492481Y-120052998D01*
X139492481Y-120052998D02*
X139530577Y-120205379D01*
X139530577Y-120205379D02*
X139568672Y-120281569D01*
X139568672Y-120281569D02*
X139644862Y-120357760D01*
X139644862Y-120357760D02*
X139759148Y-120395855D01*
X139759148Y-120395855D02*
X139949624Y-120395855D01*
X138997243Y-119595855D02*
X138921053Y-119595855D01*
X138921053Y-119595855D02*
X138844862Y-119633950D01*
X138844862Y-119633950D02*
X138806767Y-119672045D01*
X138806767Y-119672045D02*
X138768672Y-119748236D01*
X138768672Y-119748236D02*
X138730577Y-119900617D01*
X138730577Y-119900617D02*
X138730577Y-120091093D01*
X138730577Y-120091093D02*
X138768672Y-120243474D01*
X138768672Y-120243474D02*
X138806767Y-120319664D01*
X138806767Y-120319664D02*
X138844862Y-120357760D01*
X138844862Y-120357760D02*
X138921053Y-120395855D01*
X138921053Y-120395855D02*
X138997243Y-120395855D01*
X138997243Y-120395855D02*
X139073434Y-120357760D01*
X139073434Y-120357760D02*
X139111529Y-120319664D01*
X139111529Y-120319664D02*
X139149624Y-120243474D01*
X139149624Y-120243474D02*
X139187720Y-120091093D01*
X139187720Y-120091093D02*
X139187720Y-119900617D01*
X139187720Y-119900617D02*
X139149624Y-119748236D01*
X139149624Y-119748236D02*
X139111529Y-119672045D01*
X139111529Y-119672045D02*
X139073434Y-119633950D01*
X139073434Y-119633950D02*
X138997243Y-119595855D01*
D11*
X159452381Y-131643247D02*
X159338095Y-131681342D01*
X159338095Y-131681342D02*
X159300000Y-131719438D01*
X159300000Y-131719438D02*
X159261904Y-131795628D01*
X159261904Y-131795628D02*
X159261904Y-131909914D01*
X159261904Y-131909914D02*
X159300000Y-131986104D01*
X159300000Y-131986104D02*
X159338095Y-132024200D01*
X159338095Y-132024200D02*
X159414285Y-132062295D01*
X159414285Y-132062295D02*
X159719047Y-132062295D01*
X159719047Y-132062295D02*
X159719047Y-131262295D01*
X159719047Y-131262295D02*
X159452381Y-131262295D01*
X159452381Y-131262295D02*
X159376190Y-131300390D01*
X159376190Y-131300390D02*
X159338095Y-131338485D01*
X159338095Y-131338485D02*
X159300000Y-131414676D01*
X159300000Y-131414676D02*
X159300000Y-131490866D01*
X159300000Y-131490866D02*
X159338095Y-131567057D01*
X159338095Y-131567057D02*
X159376190Y-131605152D01*
X159376190Y-131605152D02*
X159452381Y-131643247D01*
X159452381Y-131643247D02*
X159719047Y-131643247D01*
X158766666Y-131262295D02*
X158614285Y-131262295D01*
X158614285Y-131262295D02*
X158538095Y-131300390D01*
X158538095Y-131300390D02*
X158461904Y-131376580D01*
X158461904Y-131376580D02*
X158423809Y-131528961D01*
X158423809Y-131528961D02*
X158423809Y-131795628D01*
X158423809Y-131795628D02*
X158461904Y-131948009D01*
X158461904Y-131948009D02*
X158538095Y-132024200D01*
X158538095Y-132024200D02*
X158614285Y-132062295D01*
X158614285Y-132062295D02*
X158766666Y-132062295D01*
X158766666Y-132062295D02*
X158842857Y-132024200D01*
X158842857Y-132024200D02*
X158919047Y-131948009D01*
X158919047Y-131948009D02*
X158957143Y-131795628D01*
X158957143Y-131795628D02*
X158957143Y-131528961D01*
X158957143Y-131528961D02*
X158919047Y-131376580D01*
X158919047Y-131376580D02*
X158842857Y-131300390D01*
X158842857Y-131300390D02*
X158766666Y-131262295D01*
X157928571Y-131262295D02*
X157776190Y-131262295D01*
X157776190Y-131262295D02*
X157700000Y-131300390D01*
X157700000Y-131300390D02*
X157623809Y-131376580D01*
X157623809Y-131376580D02*
X157585714Y-131528961D01*
X157585714Y-131528961D02*
X157585714Y-131795628D01*
X157585714Y-131795628D02*
X157623809Y-131948009D01*
X157623809Y-131948009D02*
X157700000Y-132024200D01*
X157700000Y-132024200D02*
X157776190Y-132062295D01*
X157776190Y-132062295D02*
X157928571Y-132062295D01*
X157928571Y-132062295D02*
X158004762Y-132024200D01*
X158004762Y-132024200D02*
X158080952Y-131948009D01*
X158080952Y-131948009D02*
X158119048Y-131795628D01*
X158119048Y-131795628D02*
X158119048Y-131528961D01*
X158119048Y-131528961D02*
X158080952Y-131376580D01*
X158080952Y-131376580D02*
X158004762Y-131300390D01*
X158004762Y-131300390D02*
X157928571Y-131262295D01*
X157357143Y-131262295D02*
X156900000Y-131262295D01*
X157128572Y-132062295D02*
X157128572Y-131262295D01*
X156671429Y-132024200D02*
X156557143Y-132062295D01*
X156557143Y-132062295D02*
X156366667Y-132062295D01*
X156366667Y-132062295D02*
X156290476Y-132024200D01*
X156290476Y-132024200D02*
X156252381Y-131986104D01*
X156252381Y-131986104D02*
X156214286Y-131909914D01*
X156214286Y-131909914D02*
X156214286Y-131833723D01*
X156214286Y-131833723D02*
X156252381Y-131757533D01*
X156252381Y-131757533D02*
X156290476Y-131719438D01*
X156290476Y-131719438D02*
X156366667Y-131681342D01*
X156366667Y-131681342D02*
X156519048Y-131643247D01*
X156519048Y-131643247D02*
X156595238Y-131605152D01*
X156595238Y-131605152D02*
X156633333Y-131567057D01*
X156633333Y-131567057D02*
X156671429Y-131490866D01*
X156671429Y-131490866D02*
X156671429Y-131414676D01*
X156671429Y-131414676D02*
X156633333Y-131338485D01*
X156633333Y-131338485D02*
X156595238Y-131300390D01*
X156595238Y-131300390D02*
X156519048Y-131262295D01*
X156519048Y-131262295D02*
X156328571Y-131262295D01*
X156328571Y-131262295D02*
X156214286Y-131300390D01*
X155871428Y-131643247D02*
X155604762Y-131643247D01*
X155490476Y-132062295D02*
X155871428Y-132062295D01*
X155871428Y-132062295D02*
X155871428Y-131262295D01*
X155871428Y-131262295D02*
X155490476Y-131262295D01*
X154766666Y-132062295D02*
X155147618Y-132062295D01*
X155147618Y-132062295D02*
X155147618Y-131262295D01*
D10*
X136848049Y-134334523D02*
X136886144Y-134410713D01*
X136886144Y-134410713D02*
X136886144Y-134524999D01*
X136886144Y-134524999D02*
X136848049Y-134639285D01*
X136848049Y-134639285D02*
X136771859Y-134715475D01*
X136771859Y-134715475D02*
X136695668Y-134753570D01*
X136695668Y-134753570D02*
X136543287Y-134791666D01*
X136543287Y-134791666D02*
X136429001Y-134791666D01*
X136429001Y-134791666D02*
X136276620Y-134753570D01*
X136276620Y-134753570D02*
X136200430Y-134715475D01*
X136200430Y-134715475D02*
X136124240Y-134639285D01*
X136124240Y-134639285D02*
X136086144Y-134524999D01*
X136086144Y-134524999D02*
X136086144Y-134448808D01*
X136086144Y-134448808D02*
X136124240Y-134334523D01*
X136124240Y-134334523D02*
X136162335Y-134296427D01*
X136162335Y-134296427D02*
X136429001Y-134296427D01*
X136429001Y-134296427D02*
X136429001Y-134448808D01*
X136086144Y-133953570D02*
X136886144Y-133953570D01*
X136886144Y-133953570D02*
X136086144Y-133496427D01*
X136086144Y-133496427D02*
X136886144Y-133496427D01*
X136086144Y-133115475D02*
X136886144Y-133115475D01*
X136886144Y-133115475D02*
X136886144Y-132924999D01*
X136886144Y-132924999D02*
X136848049Y-132810713D01*
X136848049Y-132810713D02*
X136771859Y-132734523D01*
X136771859Y-132734523D02*
X136695668Y-132696428D01*
X136695668Y-132696428D02*
X136543287Y-132658332D01*
X136543287Y-132658332D02*
X136429001Y-132658332D01*
X136429001Y-132658332D02*
X136276620Y-132696428D01*
X136276620Y-132696428D02*
X136200430Y-132734523D01*
X136200430Y-132734523D02*
X136124240Y-132810713D01*
X136124240Y-132810713D02*
X136086144Y-132924999D01*
X136086144Y-132924999D02*
X136086144Y-133115475D01*
X131961144Y-133908332D02*
X132342097Y-134174999D01*
X131961144Y-134365475D02*
X132761144Y-134365475D01*
X132761144Y-134365475D02*
X132761144Y-134060713D01*
X132761144Y-134060713D02*
X132723049Y-133984523D01*
X132723049Y-133984523D02*
X132684954Y-133946428D01*
X132684954Y-133946428D02*
X132608763Y-133908332D01*
X132608763Y-133908332D02*
X132494478Y-133908332D01*
X132494478Y-133908332D02*
X132418287Y-133946428D01*
X132418287Y-133946428D02*
X132380192Y-133984523D01*
X132380192Y-133984523D02*
X132342097Y-134060713D01*
X132342097Y-134060713D02*
X132342097Y-134365475D01*
X132761144Y-133641666D02*
X131961144Y-133108332D01*
X132761144Y-133108332D02*
X131961144Y-133641666D01*
X143230576Y-120395855D02*
X143230576Y-119595855D01*
X142849624Y-120395855D02*
X142849624Y-119595855D01*
X142849624Y-119595855D02*
X142659148Y-119595855D01*
X142659148Y-119595855D02*
X142544862Y-119633950D01*
X142544862Y-119633950D02*
X142468672Y-119710140D01*
X142468672Y-119710140D02*
X142430577Y-119786331D01*
X142430577Y-119786331D02*
X142392481Y-119938712D01*
X142392481Y-119938712D02*
X142392481Y-120052998D01*
X142392481Y-120052998D02*
X142430577Y-120205379D01*
X142430577Y-120205379D02*
X142468672Y-120281569D01*
X142468672Y-120281569D02*
X142544862Y-120357760D01*
X142544862Y-120357760D02*
X142659148Y-120395855D01*
X142659148Y-120395855D02*
X142849624Y-120395855D01*
X141630577Y-120395855D02*
X142087720Y-120395855D01*
X141859148Y-120395855D02*
X141859148Y-119595855D01*
X141859148Y-119595855D02*
X141935339Y-119710140D01*
X141935339Y-119710140D02*
X142011529Y-119786331D01*
X142011529Y-119786331D02*
X142087720Y-119824426D01*
D11*
X156190476Y-99788152D02*
X155952381Y-100454819D01*
X155952381Y-100454819D02*
X155714286Y-99788152D01*
X154666666Y-99454819D02*
X154047619Y-99454819D01*
X154047619Y-99454819D02*
X154380952Y-99835771D01*
X154380952Y-99835771D02*
X154238095Y-99835771D01*
X154238095Y-99835771D02*
X154142857Y-99883390D01*
X154142857Y-99883390D02*
X154095238Y-99931009D01*
X154095238Y-99931009D02*
X154047619Y-100026247D01*
X154047619Y-100026247D02*
X154047619Y-100264342D01*
X154047619Y-100264342D02*
X154095238Y-100359580D01*
X154095238Y-100359580D02*
X154142857Y-100407200D01*
X154142857Y-100407200D02*
X154238095Y-100454819D01*
X154238095Y-100454819D02*
X154523809Y-100454819D01*
X154523809Y-100454819D02*
X154619047Y-100407200D01*
X154619047Y-100407200D02*
X154666666Y-100359580D01*
X153619047Y-100359580D02*
X153571428Y-100407200D01*
X153571428Y-100407200D02*
X153619047Y-100454819D01*
X153619047Y-100454819D02*
X153666666Y-100407200D01*
X153666666Y-100407200D02*
X153619047Y-100359580D01*
X153619047Y-100359580D02*
X153619047Y-100454819D01*
X152952381Y-99454819D02*
X152857143Y-99454819D01*
X152857143Y-99454819D02*
X152761905Y-99502438D01*
X152761905Y-99502438D02*
X152714286Y-99550057D01*
X152714286Y-99550057D02*
X152666667Y-99645295D01*
X152666667Y-99645295D02*
X152619048Y-99835771D01*
X152619048Y-99835771D02*
X152619048Y-100073866D01*
X152619048Y-100073866D02*
X152666667Y-100264342D01*
X152666667Y-100264342D02*
X152714286Y-100359580D01*
X152714286Y-100359580D02*
X152761905Y-100407200D01*
X152761905Y-100407200D02*
X152857143Y-100454819D01*
X152857143Y-100454819D02*
X152952381Y-100454819D01*
X152952381Y-100454819D02*
X153047619Y-100407200D01*
X153047619Y-100407200D02*
X153095238Y-100359580D01*
X153095238Y-100359580D02*
X153142857Y-100264342D01*
X153142857Y-100264342D02*
X153190476Y-100073866D01*
X153190476Y-100073866D02*
X153190476Y-99835771D01*
X153190476Y-99835771D02*
X153142857Y-99645295D01*
X153142857Y-99645295D02*
X153095238Y-99550057D01*
X153095238Y-99550057D02*
X153047619Y-99502438D01*
X153047619Y-99502438D02*
X152952381Y-99454819D01*
X152142857Y-100407200D02*
X152142857Y-100454819D01*
X152142857Y-100454819D02*
X152190476Y-100550057D01*
X152190476Y-100550057D02*
X152238095Y-100597676D01*
X150666667Y-99454819D02*
X150666667Y-100169104D01*
X150666667Y-100169104D02*
X150714286Y-100311961D01*
X150714286Y-100311961D02*
X150809524Y-100407200D01*
X150809524Y-100407200D02*
X150952381Y-100454819D01*
X150952381Y-100454819D02*
X151047619Y-100454819D01*
X149761905Y-99788152D02*
X149761905Y-100454819D01*
X150190476Y-99788152D02*
X150190476Y-100311961D01*
X150190476Y-100311961D02*
X150142857Y-100407200D01*
X150142857Y-100407200D02*
X150047619Y-100454819D01*
X150047619Y-100454819D02*
X149904762Y-100454819D01*
X149904762Y-100454819D02*
X149809524Y-100407200D01*
X149809524Y-100407200D02*
X149761905Y-100359580D01*
X149142857Y-100454819D02*
X149238095Y-100407200D01*
X149238095Y-100407200D02*
X149285714Y-100311961D01*
X149285714Y-100311961D02*
X149285714Y-99454819D01*
X148857142Y-99788152D02*
X148619047Y-100454819D01*
X148380952Y-99788152D02*
X148619047Y-100454819D01*
X148619047Y-100454819D02*
X148714285Y-100692914D01*
X148714285Y-100692914D02*
X148761904Y-100740533D01*
X148761904Y-100740533D02*
X148857142Y-100788152D01*
X147285713Y-99550057D02*
X147238094Y-99502438D01*
X147238094Y-99502438D02*
X147142856Y-99454819D01*
X147142856Y-99454819D02*
X146904761Y-99454819D01*
X146904761Y-99454819D02*
X146809523Y-99502438D01*
X146809523Y-99502438D02*
X146761904Y-99550057D01*
X146761904Y-99550057D02*
X146714285Y-99645295D01*
X146714285Y-99645295D02*
X146714285Y-99740533D01*
X146714285Y-99740533D02*
X146761904Y-99883390D01*
X146761904Y-99883390D02*
X147333332Y-100454819D01*
X147333332Y-100454819D02*
X146714285Y-100454819D01*
X146095237Y-99454819D02*
X145999999Y-99454819D01*
X145999999Y-99454819D02*
X145904761Y-99502438D01*
X145904761Y-99502438D02*
X145857142Y-99550057D01*
X145857142Y-99550057D02*
X145809523Y-99645295D01*
X145809523Y-99645295D02*
X145761904Y-99835771D01*
X145761904Y-99835771D02*
X145761904Y-100073866D01*
X145761904Y-100073866D02*
X145809523Y-100264342D01*
X145809523Y-100264342D02*
X145857142Y-100359580D01*
X145857142Y-100359580D02*
X145904761Y-100407200D01*
X145904761Y-100407200D02*
X145999999Y-100454819D01*
X145999999Y-100454819D02*
X146095237Y-100454819D01*
X146095237Y-100454819D02*
X146190475Y-100407200D01*
X146190475Y-100407200D02*
X146238094Y-100359580D01*
X146238094Y-100359580D02*
X146285713Y-100264342D01*
X146285713Y-100264342D02*
X146333332Y-100073866D01*
X146333332Y-100073866D02*
X146333332Y-99835771D01*
X146333332Y-99835771D02*
X146285713Y-99645295D01*
X146285713Y-99645295D02*
X146238094Y-99550057D01*
X146238094Y-99550057D02*
X146190475Y-99502438D01*
X146190475Y-99502438D02*
X146095237Y-99454819D01*
X145380951Y-99550057D02*
X145333332Y-99502438D01*
X145333332Y-99502438D02*
X145238094Y-99454819D01*
X145238094Y-99454819D02*
X144999999Y-99454819D01*
X144999999Y-99454819D02*
X144904761Y-99502438D01*
X144904761Y-99502438D02*
X144857142Y-99550057D01*
X144857142Y-99550057D02*
X144809523Y-99645295D01*
X144809523Y-99645295D02*
X144809523Y-99740533D01*
X144809523Y-99740533D02*
X144857142Y-99883390D01*
X144857142Y-99883390D02*
X145428570Y-100454819D01*
X145428570Y-100454819D02*
X144809523Y-100454819D01*
X143952380Y-99788152D02*
X143952380Y-100454819D01*
X144190475Y-99407200D02*
X144428570Y-100121485D01*
X144428570Y-100121485D02*
X143809523Y-100121485D01*
D10*
X134761144Y-134765476D02*
X134761144Y-134270238D01*
X134761144Y-134270238D02*
X134456382Y-134536904D01*
X134456382Y-134536904D02*
X134456382Y-134422619D01*
X134456382Y-134422619D02*
X134418287Y-134346428D01*
X134418287Y-134346428D02*
X134380192Y-134308333D01*
X134380192Y-134308333D02*
X134304001Y-134270238D01*
X134304001Y-134270238D02*
X134113525Y-134270238D01*
X134113525Y-134270238D02*
X134037335Y-134308333D01*
X134037335Y-134308333D02*
X133999240Y-134346428D01*
X133999240Y-134346428D02*
X133961144Y-134422619D01*
X133961144Y-134422619D02*
X133961144Y-134651190D01*
X133961144Y-134651190D02*
X133999240Y-134727381D01*
X133999240Y-134727381D02*
X134037335Y-134765476D01*
X134761144Y-134041666D02*
X133961144Y-133774999D01*
X133961144Y-133774999D02*
X134761144Y-133508333D01*
X134761144Y-133317857D02*
X134761144Y-132822619D01*
X134761144Y-132822619D02*
X134456382Y-133089285D01*
X134456382Y-133089285D02*
X134456382Y-132975000D01*
X134456382Y-132975000D02*
X134418287Y-132898809D01*
X134418287Y-132898809D02*
X134380192Y-132860714D01*
X134380192Y-132860714D02*
X134304001Y-132822619D01*
X134304001Y-132822619D02*
X134113525Y-132822619D01*
X134113525Y-132822619D02*
X134037335Y-132860714D01*
X134037335Y-132860714D02*
X133999240Y-132898809D01*
X133999240Y-132898809D02*
X133961144Y-132975000D01*
X133961144Y-132975000D02*
X133961144Y-133203571D01*
X133961144Y-133203571D02*
X133999240Y-133279762D01*
X133999240Y-133279762D02*
X134037335Y-133317857D01*
X165011144Y-133783332D02*
X165392097Y-134049999D01*
X165011144Y-134240475D02*
X165811144Y-134240475D01*
X165811144Y-134240475D02*
X165811144Y-133935713D01*
X165811144Y-133935713D02*
X165773049Y-133859523D01*
X165773049Y-133859523D02*
X165734954Y-133821428D01*
X165734954Y-133821428D02*
X165658763Y-133783332D01*
X165658763Y-133783332D02*
X165544478Y-133783332D01*
X165544478Y-133783332D02*
X165468287Y-133821428D01*
X165468287Y-133821428D02*
X165430192Y-133859523D01*
X165430192Y-133859523D02*
X165392097Y-133935713D01*
X165392097Y-133935713D02*
X165392097Y-134240475D01*
X165811144Y-133516666D02*
X165011144Y-132983332D01*
X165811144Y-132983332D02*
X165011144Y-133516666D01*
D11*
X162166669Y-96649819D02*
X162166669Y-95649819D01*
X162166669Y-95649819D02*
X161785717Y-95649819D01*
X161785717Y-95649819D02*
X161690479Y-95697438D01*
X161690479Y-95697438D02*
X161642860Y-95745057D01*
X161642860Y-95745057D02*
X161595241Y-95840295D01*
X161595241Y-95840295D02*
X161595241Y-95983152D01*
X161595241Y-95983152D02*
X161642860Y-96078390D01*
X161642860Y-96078390D02*
X161690479Y-96126009D01*
X161690479Y-96126009D02*
X161785717Y-96173628D01*
X161785717Y-96173628D02*
X162166669Y-96173628D01*
X160785717Y-96602200D02*
X160880955Y-96649819D01*
X160880955Y-96649819D02*
X161071431Y-96649819D01*
X161071431Y-96649819D02*
X161166669Y-96602200D01*
X161166669Y-96602200D02*
X161214288Y-96506961D01*
X161214288Y-96506961D02*
X161214288Y-96126009D01*
X161214288Y-96126009D02*
X161166669Y-96030771D01*
X161166669Y-96030771D02*
X161071431Y-95983152D01*
X161071431Y-95983152D02*
X160880955Y-95983152D01*
X160880955Y-95983152D02*
X160785717Y-96030771D01*
X160785717Y-96030771D02*
X160738098Y-96126009D01*
X160738098Y-96126009D02*
X160738098Y-96221247D01*
X160738098Y-96221247D02*
X161214288Y-96316485D01*
X160309526Y-96649819D02*
X160309526Y-95983152D01*
X160309526Y-96173628D02*
X160261907Y-96078390D01*
X160261907Y-96078390D02*
X160214288Y-96030771D01*
X160214288Y-96030771D02*
X160119050Y-95983152D01*
X160119050Y-95983152D02*
X160023812Y-95983152D01*
X159738097Y-96602200D02*
X159642859Y-96649819D01*
X159642859Y-96649819D02*
X159452383Y-96649819D01*
X159452383Y-96649819D02*
X159357145Y-96602200D01*
X159357145Y-96602200D02*
X159309526Y-96506961D01*
X159309526Y-96506961D02*
X159309526Y-96459342D01*
X159309526Y-96459342D02*
X159357145Y-96364104D01*
X159357145Y-96364104D02*
X159452383Y-96316485D01*
X159452383Y-96316485D02*
X159595240Y-96316485D01*
X159595240Y-96316485D02*
X159690478Y-96268866D01*
X159690478Y-96268866D02*
X159738097Y-96173628D01*
X159738097Y-96173628D02*
X159738097Y-96126009D01*
X159738097Y-96126009D02*
X159690478Y-96030771D01*
X159690478Y-96030771D02*
X159595240Y-95983152D01*
X159595240Y-95983152D02*
X159452383Y-95983152D01*
X159452383Y-95983152D02*
X159357145Y-96030771D01*
X158738097Y-96649819D02*
X158833335Y-96602200D01*
X158833335Y-96602200D02*
X158880954Y-96554580D01*
X158880954Y-96554580D02*
X158928573Y-96459342D01*
X158928573Y-96459342D02*
X158928573Y-96173628D01*
X158928573Y-96173628D02*
X158880954Y-96078390D01*
X158880954Y-96078390D02*
X158833335Y-96030771D01*
X158833335Y-96030771D02*
X158738097Y-95983152D01*
X158738097Y-95983152D02*
X158595240Y-95983152D01*
X158595240Y-95983152D02*
X158500002Y-96030771D01*
X158500002Y-96030771D02*
X158452383Y-96078390D01*
X158452383Y-96078390D02*
X158404764Y-96173628D01*
X158404764Y-96173628D02*
X158404764Y-96459342D01*
X158404764Y-96459342D02*
X158452383Y-96554580D01*
X158452383Y-96554580D02*
X158500002Y-96602200D01*
X158500002Y-96602200D02*
X158595240Y-96649819D01*
X158595240Y-96649819D02*
X158738097Y-96649819D01*
X157976192Y-95983152D02*
X157976192Y-96649819D01*
X157976192Y-96078390D02*
X157928573Y-96030771D01*
X157928573Y-96030771D02*
X157833335Y-95983152D01*
X157833335Y-95983152D02*
X157690478Y-95983152D01*
X157690478Y-95983152D02*
X157595240Y-96030771D01*
X157595240Y-96030771D02*
X157547621Y-96126009D01*
X157547621Y-96126009D02*
X157547621Y-96649819D01*
X156642859Y-96649819D02*
X156642859Y-96126009D01*
X156642859Y-96126009D02*
X156690478Y-96030771D01*
X156690478Y-96030771D02*
X156785716Y-95983152D01*
X156785716Y-95983152D02*
X156976192Y-95983152D01*
X156976192Y-95983152D02*
X157071430Y-96030771D01*
X156642859Y-96602200D02*
X156738097Y-96649819D01*
X156738097Y-96649819D02*
X156976192Y-96649819D01*
X156976192Y-96649819D02*
X157071430Y-96602200D01*
X157071430Y-96602200D02*
X157119049Y-96506961D01*
X157119049Y-96506961D02*
X157119049Y-96411723D01*
X157119049Y-96411723D02*
X157071430Y-96316485D01*
X157071430Y-96316485D02*
X156976192Y-96268866D01*
X156976192Y-96268866D02*
X156738097Y-96268866D01*
X156738097Y-96268866D02*
X156642859Y-96221247D01*
X156023811Y-96649819D02*
X156119049Y-96602200D01*
X156119049Y-96602200D02*
X156166668Y-96506961D01*
X156166668Y-96506961D02*
X156166668Y-95649819D01*
X154309525Y-96649819D02*
X154642858Y-96173628D01*
X154880953Y-96649819D02*
X154880953Y-95649819D01*
X154880953Y-95649819D02*
X154500001Y-95649819D01*
X154500001Y-95649819D02*
X154404763Y-95697438D01*
X154404763Y-95697438D02*
X154357144Y-95745057D01*
X154357144Y-95745057D02*
X154309525Y-95840295D01*
X154309525Y-95840295D02*
X154309525Y-95983152D01*
X154309525Y-95983152D02*
X154357144Y-96078390D01*
X154357144Y-96078390D02*
X154404763Y-96126009D01*
X154404763Y-96126009D02*
X154500001Y-96173628D01*
X154500001Y-96173628D02*
X154880953Y-96173628D01*
X153738096Y-96649819D02*
X153833334Y-96602200D01*
X153833334Y-96602200D02*
X153880953Y-96554580D01*
X153880953Y-96554580D02*
X153928572Y-96459342D01*
X153928572Y-96459342D02*
X153928572Y-96173628D01*
X153928572Y-96173628D02*
X153880953Y-96078390D01*
X153880953Y-96078390D02*
X153833334Y-96030771D01*
X153833334Y-96030771D02*
X153738096Y-95983152D01*
X153738096Y-95983152D02*
X153595239Y-95983152D01*
X153595239Y-95983152D02*
X153500001Y-96030771D01*
X153500001Y-96030771D02*
X153452382Y-96078390D01*
X153452382Y-96078390D02*
X153404763Y-96173628D01*
X153404763Y-96173628D02*
X153404763Y-96459342D01*
X153404763Y-96459342D02*
X153452382Y-96554580D01*
X153452382Y-96554580D02*
X153500001Y-96602200D01*
X153500001Y-96602200D02*
X153595239Y-96649819D01*
X153595239Y-96649819D02*
X153738096Y-96649819D01*
X152976191Y-96649819D02*
X152976191Y-95649819D01*
X152976191Y-96030771D02*
X152880953Y-95983152D01*
X152880953Y-95983152D02*
X152690477Y-95983152D01*
X152690477Y-95983152D02*
X152595239Y-96030771D01*
X152595239Y-96030771D02*
X152547620Y-96078390D01*
X152547620Y-96078390D02*
X152500001Y-96173628D01*
X152500001Y-96173628D02*
X152500001Y-96459342D01*
X152500001Y-96459342D02*
X152547620Y-96554580D01*
X152547620Y-96554580D02*
X152595239Y-96602200D01*
X152595239Y-96602200D02*
X152690477Y-96649819D01*
X152690477Y-96649819D02*
X152880953Y-96649819D01*
X152880953Y-96649819D02*
X152976191Y-96602200D01*
X151928572Y-96649819D02*
X152023810Y-96602200D01*
X152023810Y-96602200D02*
X152071429Y-96554580D01*
X152071429Y-96554580D02*
X152119048Y-96459342D01*
X152119048Y-96459342D02*
X152119048Y-96173628D01*
X152119048Y-96173628D02*
X152071429Y-96078390D01*
X152071429Y-96078390D02*
X152023810Y-96030771D01*
X152023810Y-96030771D02*
X151928572Y-95983152D01*
X151928572Y-95983152D02*
X151785715Y-95983152D01*
X151785715Y-95983152D02*
X151690477Y-96030771D01*
X151690477Y-96030771D02*
X151642858Y-96078390D01*
X151642858Y-96078390D02*
X151595239Y-96173628D01*
X151595239Y-96173628D02*
X151595239Y-96459342D01*
X151595239Y-96459342D02*
X151642858Y-96554580D01*
X151642858Y-96554580D02*
X151690477Y-96602200D01*
X151690477Y-96602200D02*
X151785715Y-96649819D01*
X151785715Y-96649819D02*
X151928572Y-96649819D01*
X151309524Y-95983152D02*
X150928572Y-95983152D01*
X151166667Y-95649819D02*
X151166667Y-96506961D01*
X151166667Y-96506961D02*
X151119048Y-96602200D01*
X151119048Y-96602200D02*
X151023810Y-96649819D01*
X151023810Y-96649819D02*
X150928572Y-96649819D01*
X150595238Y-96649819D02*
X150595238Y-95983152D01*
X150595238Y-95649819D02*
X150642857Y-95697438D01*
X150642857Y-95697438D02*
X150595238Y-95745057D01*
X150595238Y-95745057D02*
X150547619Y-95697438D01*
X150547619Y-95697438D02*
X150595238Y-95649819D01*
X150595238Y-95649819D02*
X150595238Y-95745057D01*
X149690477Y-96602200D02*
X149785715Y-96649819D01*
X149785715Y-96649819D02*
X149976191Y-96649819D01*
X149976191Y-96649819D02*
X150071429Y-96602200D01*
X150071429Y-96602200D02*
X150119048Y-96554580D01*
X150119048Y-96554580D02*
X150166667Y-96459342D01*
X150166667Y-96459342D02*
X150166667Y-96173628D01*
X150166667Y-96173628D02*
X150119048Y-96078390D01*
X150119048Y-96078390D02*
X150071429Y-96030771D01*
X150071429Y-96030771D02*
X149976191Y-95983152D01*
X149976191Y-95983152D02*
X149785715Y-95983152D01*
X149785715Y-95983152D02*
X149690477Y-96030771D01*
X149309524Y-96602200D02*
X149214286Y-96649819D01*
X149214286Y-96649819D02*
X149023810Y-96649819D01*
X149023810Y-96649819D02*
X148928572Y-96602200D01*
X148928572Y-96602200D02*
X148880953Y-96506961D01*
X148880953Y-96506961D02*
X148880953Y-96459342D01*
X148880953Y-96459342D02*
X148928572Y-96364104D01*
X148928572Y-96364104D02*
X149023810Y-96316485D01*
X149023810Y-96316485D02*
X149166667Y-96316485D01*
X149166667Y-96316485D02*
X149261905Y-96268866D01*
X149261905Y-96268866D02*
X149309524Y-96173628D01*
X149309524Y-96173628D02*
X149309524Y-96126009D01*
X149309524Y-96126009D02*
X149261905Y-96030771D01*
X149261905Y-96030771D02*
X149166667Y-95983152D01*
X149166667Y-95983152D02*
X149023810Y-95983152D01*
X149023810Y-95983152D02*
X148928572Y-96030771D01*
X147690476Y-96649819D02*
X147690476Y-95649819D01*
X147690476Y-95649819D02*
X147357143Y-96364104D01*
X147357143Y-96364104D02*
X147023810Y-95649819D01*
X147023810Y-95649819D02*
X147023810Y-96649819D01*
X146404762Y-96649819D02*
X146500000Y-96602200D01*
X146500000Y-96602200D02*
X146547619Y-96554580D01*
X146547619Y-96554580D02*
X146595238Y-96459342D01*
X146595238Y-96459342D02*
X146595238Y-96173628D01*
X146595238Y-96173628D02*
X146547619Y-96078390D01*
X146547619Y-96078390D02*
X146500000Y-96030771D01*
X146500000Y-96030771D02*
X146404762Y-95983152D01*
X146404762Y-95983152D02*
X146261905Y-95983152D01*
X146261905Y-95983152D02*
X146166667Y-96030771D01*
X146166667Y-96030771D02*
X146119048Y-96078390D01*
X146119048Y-96078390D02*
X146071429Y-96173628D01*
X146071429Y-96173628D02*
X146071429Y-96459342D01*
X146071429Y-96459342D02*
X146119048Y-96554580D01*
X146119048Y-96554580D02*
X146166667Y-96602200D01*
X146166667Y-96602200D02*
X146261905Y-96649819D01*
X146261905Y-96649819D02*
X146404762Y-96649819D01*
X145785714Y-95983152D02*
X145404762Y-95983152D01*
X145642857Y-95649819D02*
X145642857Y-96506961D01*
X145642857Y-96506961D02*
X145595238Y-96602200D01*
X145595238Y-96602200D02*
X145500000Y-96649819D01*
X145500000Y-96649819D02*
X145404762Y-96649819D01*
X144928571Y-96649819D02*
X145023809Y-96602200D01*
X145023809Y-96602200D02*
X145071428Y-96554580D01*
X145071428Y-96554580D02*
X145119047Y-96459342D01*
X145119047Y-96459342D02*
X145119047Y-96173628D01*
X145119047Y-96173628D02*
X145071428Y-96078390D01*
X145071428Y-96078390D02*
X145023809Y-96030771D01*
X145023809Y-96030771D02*
X144928571Y-95983152D01*
X144928571Y-95983152D02*
X144785714Y-95983152D01*
X144785714Y-95983152D02*
X144690476Y-96030771D01*
X144690476Y-96030771D02*
X144642857Y-96078390D01*
X144642857Y-96078390D02*
X144595238Y-96173628D01*
X144595238Y-96173628D02*
X144595238Y-96459342D01*
X144595238Y-96459342D02*
X144642857Y-96554580D01*
X144642857Y-96554580D02*
X144690476Y-96602200D01*
X144690476Y-96602200D02*
X144785714Y-96649819D01*
X144785714Y-96649819D02*
X144928571Y-96649819D01*
X144166666Y-96649819D02*
X144166666Y-95983152D01*
X144166666Y-96173628D02*
X144119047Y-96078390D01*
X144119047Y-96078390D02*
X144071428Y-96030771D01*
X144071428Y-96030771D02*
X143976190Y-95983152D01*
X143976190Y-95983152D02*
X143880952Y-95983152D01*
X142214285Y-96554580D02*
X142261904Y-96602200D01*
X142261904Y-96602200D02*
X142404761Y-96649819D01*
X142404761Y-96649819D02*
X142499999Y-96649819D01*
X142499999Y-96649819D02*
X142642856Y-96602200D01*
X142642856Y-96602200D02*
X142738094Y-96506961D01*
X142738094Y-96506961D02*
X142785713Y-96411723D01*
X142785713Y-96411723D02*
X142833332Y-96221247D01*
X142833332Y-96221247D02*
X142833332Y-96078390D01*
X142833332Y-96078390D02*
X142785713Y-95887914D01*
X142785713Y-95887914D02*
X142738094Y-95792676D01*
X142738094Y-95792676D02*
X142642856Y-95697438D01*
X142642856Y-95697438D02*
X142499999Y-95649819D01*
X142499999Y-95649819D02*
X142404761Y-95649819D01*
X142404761Y-95649819D02*
X142261904Y-95697438D01*
X142261904Y-95697438D02*
X142214285Y-95745057D01*
X141642856Y-96649819D02*
X141738094Y-96602200D01*
X141738094Y-96602200D02*
X141785713Y-96554580D01*
X141785713Y-96554580D02*
X141833332Y-96459342D01*
X141833332Y-96459342D02*
X141833332Y-96173628D01*
X141833332Y-96173628D02*
X141785713Y-96078390D01*
X141785713Y-96078390D02*
X141738094Y-96030771D01*
X141738094Y-96030771D02*
X141642856Y-95983152D01*
X141642856Y-95983152D02*
X141499999Y-95983152D01*
X141499999Y-95983152D02*
X141404761Y-96030771D01*
X141404761Y-96030771D02*
X141357142Y-96078390D01*
X141357142Y-96078390D02*
X141309523Y-96173628D01*
X141309523Y-96173628D02*
X141309523Y-96459342D01*
X141309523Y-96459342D02*
X141357142Y-96554580D01*
X141357142Y-96554580D02*
X141404761Y-96602200D01*
X141404761Y-96602200D02*
X141499999Y-96649819D01*
X141499999Y-96649819D02*
X141642856Y-96649819D01*
X140880951Y-95983152D02*
X140880951Y-96649819D01*
X140880951Y-96078390D02*
X140833332Y-96030771D01*
X140833332Y-96030771D02*
X140738094Y-95983152D01*
X140738094Y-95983152D02*
X140595237Y-95983152D01*
X140595237Y-95983152D02*
X140499999Y-96030771D01*
X140499999Y-96030771D02*
X140452380Y-96126009D01*
X140452380Y-96126009D02*
X140452380Y-96649819D01*
X140119046Y-95983152D02*
X139738094Y-95983152D01*
X139976189Y-95649819D02*
X139976189Y-96506961D01*
X139976189Y-96506961D02*
X139928570Y-96602200D01*
X139928570Y-96602200D02*
X139833332Y-96649819D01*
X139833332Y-96649819D02*
X139738094Y-96649819D01*
X139404760Y-96649819D02*
X139404760Y-95983152D01*
X139404760Y-96173628D02*
X139357141Y-96078390D01*
X139357141Y-96078390D02*
X139309522Y-96030771D01*
X139309522Y-96030771D02*
X139214284Y-95983152D01*
X139214284Y-95983152D02*
X139119046Y-95983152D01*
X138642855Y-96649819D02*
X138738093Y-96602200D01*
X138738093Y-96602200D02*
X138785712Y-96554580D01*
X138785712Y-96554580D02*
X138833331Y-96459342D01*
X138833331Y-96459342D02*
X138833331Y-96173628D01*
X138833331Y-96173628D02*
X138785712Y-96078390D01*
X138785712Y-96078390D02*
X138738093Y-96030771D01*
X138738093Y-96030771D02*
X138642855Y-95983152D01*
X138642855Y-95983152D02*
X138499998Y-95983152D01*
X138499998Y-95983152D02*
X138404760Y-96030771D01*
X138404760Y-96030771D02*
X138357141Y-96078390D01*
X138357141Y-96078390D02*
X138309522Y-96173628D01*
X138309522Y-96173628D02*
X138309522Y-96459342D01*
X138309522Y-96459342D02*
X138357141Y-96554580D01*
X138357141Y-96554580D02*
X138404760Y-96602200D01*
X138404760Y-96602200D02*
X138499998Y-96649819D01*
X138499998Y-96649819D02*
X138642855Y-96649819D01*
X137738093Y-96649819D02*
X137833331Y-96602200D01*
X137833331Y-96602200D02*
X137880950Y-96506961D01*
X137880950Y-96506961D02*
X137880950Y-95649819D01*
X137214283Y-96649819D02*
X137309521Y-96602200D01*
X137309521Y-96602200D02*
X137357140Y-96506961D01*
X137357140Y-96506961D02*
X137357140Y-95649819D01*
X136452378Y-96602200D02*
X136547616Y-96649819D01*
X136547616Y-96649819D02*
X136738092Y-96649819D01*
X136738092Y-96649819D02*
X136833330Y-96602200D01*
X136833330Y-96602200D02*
X136880949Y-96506961D01*
X136880949Y-96506961D02*
X136880949Y-96126009D01*
X136880949Y-96126009D02*
X136833330Y-96030771D01*
X136833330Y-96030771D02*
X136738092Y-95983152D01*
X136738092Y-95983152D02*
X136547616Y-95983152D01*
X136547616Y-95983152D02*
X136452378Y-96030771D01*
X136452378Y-96030771D02*
X136404759Y-96126009D01*
X136404759Y-96126009D02*
X136404759Y-96221247D01*
X136404759Y-96221247D02*
X136880949Y-96316485D01*
X135976187Y-96649819D02*
X135976187Y-95983152D01*
X135976187Y-96173628D02*
X135928568Y-96078390D01*
X135928568Y-96078390D02*
X135880949Y-96030771D01*
X135880949Y-96030771D02*
X135785711Y-95983152D01*
X135785711Y-95983152D02*
X135690473Y-95983152D01*
X157690477Y-98259819D02*
X157690477Y-97593152D01*
X157690477Y-97688390D02*
X157642858Y-97640771D01*
X157642858Y-97640771D02*
X157547620Y-97593152D01*
X157547620Y-97593152D02*
X157404763Y-97593152D01*
X157404763Y-97593152D02*
X157309525Y-97640771D01*
X157309525Y-97640771D02*
X157261906Y-97736009D01*
X157261906Y-97736009D02*
X157261906Y-98259819D01*
X157261906Y-97736009D02*
X157214287Y-97640771D01*
X157214287Y-97640771D02*
X157119049Y-97593152D01*
X157119049Y-97593152D02*
X156976192Y-97593152D01*
X156976192Y-97593152D02*
X156880953Y-97640771D01*
X156880953Y-97640771D02*
X156833334Y-97736009D01*
X156833334Y-97736009D02*
X156833334Y-98259819D01*
X156214287Y-98259819D02*
X156309525Y-98212200D01*
X156309525Y-98212200D02*
X156357144Y-98164580D01*
X156357144Y-98164580D02*
X156404763Y-98069342D01*
X156404763Y-98069342D02*
X156404763Y-97783628D01*
X156404763Y-97783628D02*
X156357144Y-97688390D01*
X156357144Y-97688390D02*
X156309525Y-97640771D01*
X156309525Y-97640771D02*
X156214287Y-97593152D01*
X156214287Y-97593152D02*
X156071430Y-97593152D01*
X156071430Y-97593152D02*
X155976192Y-97640771D01*
X155976192Y-97640771D02*
X155928573Y-97688390D01*
X155928573Y-97688390D02*
X155880954Y-97783628D01*
X155880954Y-97783628D02*
X155880954Y-98069342D01*
X155880954Y-98069342D02*
X155928573Y-98164580D01*
X155928573Y-98164580D02*
X155976192Y-98212200D01*
X155976192Y-98212200D02*
X156071430Y-98259819D01*
X156071430Y-98259819D02*
X156214287Y-98259819D01*
X155595239Y-97593152D02*
X155214287Y-97593152D01*
X155452382Y-97259819D02*
X155452382Y-98116961D01*
X155452382Y-98116961D02*
X155404763Y-98212200D01*
X155404763Y-98212200D02*
X155309525Y-98259819D01*
X155309525Y-98259819D02*
X155214287Y-98259819D01*
X154738096Y-98259819D02*
X154833334Y-98212200D01*
X154833334Y-98212200D02*
X154880953Y-98164580D01*
X154880953Y-98164580D02*
X154928572Y-98069342D01*
X154928572Y-98069342D02*
X154928572Y-97783628D01*
X154928572Y-97783628D02*
X154880953Y-97688390D01*
X154880953Y-97688390D02*
X154833334Y-97640771D01*
X154833334Y-97640771D02*
X154738096Y-97593152D01*
X154738096Y-97593152D02*
X154595239Y-97593152D01*
X154595239Y-97593152D02*
X154500001Y-97640771D01*
X154500001Y-97640771D02*
X154452382Y-97688390D01*
X154452382Y-97688390D02*
X154404763Y-97783628D01*
X154404763Y-97783628D02*
X154404763Y-98069342D01*
X154404763Y-98069342D02*
X154452382Y-98164580D01*
X154452382Y-98164580D02*
X154500001Y-98212200D01*
X154500001Y-98212200D02*
X154595239Y-98259819D01*
X154595239Y-98259819D02*
X154738096Y-98259819D01*
X153976191Y-98259819D02*
X153976191Y-97593152D01*
X153976191Y-97783628D02*
X153928572Y-97688390D01*
X153928572Y-97688390D02*
X153880953Y-97640771D01*
X153880953Y-97640771D02*
X153785715Y-97593152D01*
X153785715Y-97593152D02*
X153690477Y-97593152D01*
X153357143Y-97878866D02*
X152595239Y-97878866D01*
X151690477Y-98212200D02*
X151785715Y-98259819D01*
X151785715Y-98259819D02*
X151976191Y-98259819D01*
X151976191Y-98259819D02*
X152071429Y-98212200D01*
X152071429Y-98212200D02*
X152119048Y-98164580D01*
X152119048Y-98164580D02*
X152166667Y-98069342D01*
X152166667Y-98069342D02*
X152166667Y-97783628D01*
X152166667Y-97783628D02*
X152119048Y-97688390D01*
X152119048Y-97688390D02*
X152071429Y-97640771D01*
X152071429Y-97640771D02*
X151976191Y-97593152D01*
X151976191Y-97593152D02*
X151785715Y-97593152D01*
X151785715Y-97593152D02*
X151690477Y-97640771D01*
X151119048Y-98259819D02*
X151214286Y-98212200D01*
X151214286Y-98212200D02*
X151261905Y-98164580D01*
X151261905Y-98164580D02*
X151309524Y-98069342D01*
X151309524Y-98069342D02*
X151309524Y-97783628D01*
X151309524Y-97783628D02*
X151261905Y-97688390D01*
X151261905Y-97688390D02*
X151214286Y-97640771D01*
X151214286Y-97640771D02*
X151119048Y-97593152D01*
X151119048Y-97593152D02*
X150976191Y-97593152D01*
X150976191Y-97593152D02*
X150880953Y-97640771D01*
X150880953Y-97640771D02*
X150833334Y-97688390D01*
X150833334Y-97688390D02*
X150785715Y-97783628D01*
X150785715Y-97783628D02*
X150785715Y-98069342D01*
X150785715Y-98069342D02*
X150833334Y-98164580D01*
X150833334Y-98164580D02*
X150880953Y-98212200D01*
X150880953Y-98212200D02*
X150976191Y-98259819D01*
X150976191Y-98259819D02*
X151119048Y-98259819D01*
X150357143Y-97593152D02*
X150357143Y-98259819D01*
X150357143Y-97688390D02*
X150309524Y-97640771D01*
X150309524Y-97640771D02*
X150214286Y-97593152D01*
X150214286Y-97593152D02*
X150071429Y-97593152D01*
X150071429Y-97593152D02*
X149976191Y-97640771D01*
X149976191Y-97640771D02*
X149928572Y-97736009D01*
X149928572Y-97736009D02*
X149928572Y-98259819D01*
X149595238Y-97593152D02*
X149214286Y-97593152D01*
X149452381Y-97259819D02*
X149452381Y-98116961D01*
X149452381Y-98116961D02*
X149404762Y-98212200D01*
X149404762Y-98212200D02*
X149309524Y-98259819D01*
X149309524Y-98259819D02*
X149214286Y-98259819D01*
X148880952Y-98259819D02*
X148880952Y-97593152D01*
X148880952Y-97783628D02*
X148833333Y-97688390D01*
X148833333Y-97688390D02*
X148785714Y-97640771D01*
X148785714Y-97640771D02*
X148690476Y-97593152D01*
X148690476Y-97593152D02*
X148595238Y-97593152D01*
X148119047Y-98259819D02*
X148214285Y-98212200D01*
X148214285Y-98212200D02*
X148261904Y-98164580D01*
X148261904Y-98164580D02*
X148309523Y-98069342D01*
X148309523Y-98069342D02*
X148309523Y-97783628D01*
X148309523Y-97783628D02*
X148261904Y-97688390D01*
X148261904Y-97688390D02*
X148214285Y-97640771D01*
X148214285Y-97640771D02*
X148119047Y-97593152D01*
X148119047Y-97593152D02*
X147976190Y-97593152D01*
X147976190Y-97593152D02*
X147880952Y-97640771D01*
X147880952Y-97640771D02*
X147833333Y-97688390D01*
X147833333Y-97688390D02*
X147785714Y-97783628D01*
X147785714Y-97783628D02*
X147785714Y-98069342D01*
X147785714Y-98069342D02*
X147833333Y-98164580D01*
X147833333Y-98164580D02*
X147880952Y-98212200D01*
X147880952Y-98212200D02*
X147976190Y-98259819D01*
X147976190Y-98259819D02*
X148119047Y-98259819D01*
X147214285Y-98259819D02*
X147309523Y-98212200D01*
X147309523Y-98212200D02*
X147357142Y-98116961D01*
X147357142Y-98116961D02*
X147357142Y-97259819D01*
X146690475Y-98259819D02*
X146785713Y-98212200D01*
X146785713Y-98212200D02*
X146833332Y-98116961D01*
X146833332Y-98116961D02*
X146833332Y-97259819D01*
X145928570Y-98212200D02*
X146023808Y-98259819D01*
X146023808Y-98259819D02*
X146214284Y-98259819D01*
X146214284Y-98259819D02*
X146309522Y-98212200D01*
X146309522Y-98212200D02*
X146357141Y-98116961D01*
X146357141Y-98116961D02*
X146357141Y-97736009D01*
X146357141Y-97736009D02*
X146309522Y-97640771D01*
X146309522Y-97640771D02*
X146214284Y-97593152D01*
X146214284Y-97593152D02*
X146023808Y-97593152D01*
X146023808Y-97593152D02*
X145928570Y-97640771D01*
X145928570Y-97640771D02*
X145880951Y-97736009D01*
X145880951Y-97736009D02*
X145880951Y-97831247D01*
X145880951Y-97831247D02*
X146357141Y-97926485D01*
X145452379Y-98259819D02*
X145452379Y-97593152D01*
X145452379Y-97783628D02*
X145404760Y-97688390D01*
X145404760Y-97688390D02*
X145357141Y-97640771D01*
X145357141Y-97640771D02*
X145261903Y-97593152D01*
X145261903Y-97593152D02*
X145166665Y-97593152D01*
X144833331Y-98164580D02*
X144785712Y-98212200D01*
X144785712Y-98212200D02*
X144833331Y-98259819D01*
X144833331Y-98259819D02*
X144880950Y-98212200D01*
X144880950Y-98212200D02*
X144833331Y-98164580D01*
X144833331Y-98164580D02*
X144833331Y-98259819D01*
X144357141Y-98259819D02*
X144357141Y-97593152D01*
X144357141Y-97783628D02*
X144309522Y-97688390D01*
X144309522Y-97688390D02*
X144261903Y-97640771D01*
X144261903Y-97640771D02*
X144166665Y-97593152D01*
X144166665Y-97593152D02*
X144071427Y-97593152D01*
X143880950Y-97593152D02*
X143499998Y-97593152D01*
X143738093Y-97259819D02*
X143738093Y-98116961D01*
X143738093Y-98116961D02*
X143690474Y-98212200D01*
X143690474Y-98212200D02*
X143595236Y-98259819D01*
X143595236Y-98259819D02*
X143499998Y-98259819D01*
X143309521Y-97593152D02*
X142928569Y-97593152D01*
X143166664Y-98259819D02*
X143166664Y-97402676D01*
X143166664Y-97402676D02*
X143119045Y-97307438D01*
X143119045Y-97307438D02*
X143023807Y-97259819D01*
X143023807Y-97259819D02*
X142928569Y-97259819D01*
X142166664Y-98259819D02*
X142166664Y-97259819D01*
X142166664Y-98212200D02*
X142261902Y-98259819D01*
X142261902Y-98259819D02*
X142452378Y-98259819D01*
X142452378Y-98259819D02*
X142547616Y-98212200D01*
X142547616Y-98212200D02*
X142595235Y-98164580D01*
X142595235Y-98164580D02*
X142642854Y-98069342D01*
X142642854Y-98069342D02*
X142642854Y-97783628D01*
X142642854Y-97783628D02*
X142595235Y-97688390D01*
X142595235Y-97688390D02*
X142547616Y-97640771D01*
X142547616Y-97640771D02*
X142452378Y-97593152D01*
X142452378Y-97593152D02*
X142261902Y-97593152D01*
X142261902Y-97593152D02*
X142166664Y-97640771D01*
X141690473Y-98164580D02*
X141642854Y-98212200D01*
X141642854Y-98212200D02*
X141690473Y-98259819D01*
X141690473Y-98259819D02*
X141738092Y-98212200D01*
X141738092Y-98212200D02*
X141690473Y-98164580D01*
X141690473Y-98164580D02*
X141690473Y-98259819D01*
X141214283Y-98259819D02*
X141214283Y-97593152D01*
X141214283Y-97259819D02*
X141261902Y-97307438D01*
X141261902Y-97307438D02*
X141214283Y-97355057D01*
X141214283Y-97355057D02*
X141166664Y-97307438D01*
X141166664Y-97307438D02*
X141214283Y-97259819D01*
X141214283Y-97259819D02*
X141214283Y-97355057D01*
X140595236Y-98259819D02*
X140690474Y-98212200D01*
X140690474Y-98212200D02*
X140738093Y-98164580D01*
X140738093Y-98164580D02*
X140785712Y-98069342D01*
X140785712Y-98069342D02*
X140785712Y-97783628D01*
X140785712Y-97783628D02*
X140738093Y-97688390D01*
X140738093Y-97688390D02*
X140690474Y-97640771D01*
X140690474Y-97640771D02*
X140595236Y-97593152D01*
X140595236Y-97593152D02*
X140452379Y-97593152D01*
X140452379Y-97593152D02*
X140357141Y-97640771D01*
X140357141Y-97640771D02*
X140309522Y-97688390D01*
X140309522Y-97688390D02*
X140261903Y-97783628D01*
X140261903Y-97783628D02*
X140261903Y-98069342D01*
X140261903Y-98069342D02*
X140309522Y-98164580D01*
X140309522Y-98164580D02*
X140357141Y-98212200D01*
X140357141Y-98212200D02*
X140452379Y-98259819D01*
X140452379Y-98259819D02*
X140595236Y-98259819D01*
D10*
X163986144Y-134284523D02*
X163986144Y-133827380D01*
X163186144Y-134055952D02*
X163986144Y-134055952D01*
X163986144Y-133636904D02*
X163186144Y-133103570D01*
X163986144Y-133103570D02*
X163186144Y-133636904D01*
%TO.C,G\u002A\u002A\u002A*%
G36*
X157200577Y-128959584D02*
G01*
X156848614Y-128959584D01*
X156848614Y-129619515D01*
X156657967Y-129619515D01*
X156657967Y-128798267D01*
X157200577Y-128798267D01*
X157200577Y-128959584D01*
G37*
G36*
X145061337Y-128405604D02*
G01*
X145111878Y-128428358D01*
X145146350Y-128467248D01*
X145161869Y-128515762D01*
X145155551Y-128567389D01*
X145124511Y-128615620D01*
X145085121Y-128641762D01*
X145028736Y-128653630D01*
X144972034Y-128644542D01*
X144925489Y-128614552D01*
X144906583Y-128589662D01*
X144889490Y-128538083D01*
X144896216Y-128487607D01*
X144923830Y-128444186D01*
X144969404Y-128413770D01*
X145030006Y-128402309D01*
X145061337Y-128405604D01*
G37*
G36*
X145453810Y-128959584D02*
G01*
X145116512Y-128959584D01*
X145116512Y-129279772D01*
X145116433Y-129319249D01*
X145115624Y-129409816D01*
X145114049Y-129488597D01*
X145111848Y-129551204D01*
X145109157Y-129593253D01*
X145106115Y-129610358D01*
X145092084Y-129614548D01*
X145055802Y-129617146D01*
X145007126Y-129616468D01*
X144918533Y-129612182D01*
X144914635Y-129205225D01*
X144910737Y-128798267D01*
X145453810Y-128798267D01*
X145453810Y-128959584D01*
G37*
G36*
X156791842Y-128405436D02*
G01*
X156845120Y-128427339D01*
X156881871Y-128465153D01*
X156899165Y-128512926D01*
X156894069Y-128564710D01*
X156863656Y-128614552D01*
X156850042Y-128627572D01*
X156814623Y-128646452D01*
X156764733Y-128651616D01*
X156731140Y-128648770D01*
X156676218Y-128626726D01*
X156641038Y-128585196D01*
X156628637Y-128526963D01*
X156631194Y-128499614D01*
X156654407Y-128448186D01*
X156698433Y-128414436D01*
X156759139Y-128402309D01*
X156791842Y-128405436D01*
G37*
G36*
X155279445Y-128607621D02*
G01*
X155017890Y-128607621D01*
X155012681Y-129014578D01*
X155012166Y-129053764D01*
X155010185Y-129176121D01*
X155007506Y-129273734D01*
X155003504Y-129350187D01*
X154997555Y-129409064D01*
X154989035Y-129453947D01*
X154977320Y-129488421D01*
X154961785Y-129516068D01*
X154941806Y-129540473D01*
X154916760Y-129565217D01*
X154910760Y-129570627D01*
X154869722Y-129600212D01*
X154830629Y-129618951D01*
X154808359Y-129624443D01*
X154730554Y-129632175D01*
X154644431Y-129627774D01*
X154563516Y-129611614D01*
X154533098Y-129602232D01*
X154500277Y-129590977D01*
X154487528Y-129584896D01*
X154488908Y-129579437D01*
X154497250Y-129552987D01*
X154510637Y-129512924D01*
X154519958Y-129486592D01*
X154533008Y-129460191D01*
X154547671Y-129452890D01*
X154570252Y-129458983D01*
X154604974Y-129468978D01*
X154670151Y-129473840D01*
X154729978Y-129462765D01*
X154774165Y-129436867D01*
X154810161Y-129400871D01*
X154810161Y-128446304D01*
X155279445Y-128446304D01*
X155279445Y-128607621D01*
G37*
G36*
X149822236Y-128791624D02*
G01*
X149897344Y-128814017D01*
X149931919Y-128833116D01*
X149984634Y-128870304D01*
X150032996Y-128912133D01*
X150102655Y-128980479D01*
X150102856Y-128922370D01*
X150103565Y-128883036D01*
X150109130Y-128837382D01*
X150124035Y-128811844D01*
X150152736Y-128800710D01*
X150199689Y-128798267D01*
X150278637Y-128798267D01*
X150278637Y-129620855D01*
X150179647Y-129616518D01*
X150080658Y-129612182D01*
X150073325Y-129377540D01*
X150070636Y-129300352D01*
X150066530Y-129224971D01*
X150060435Y-129169656D01*
X150051055Y-129129233D01*
X150037096Y-129098529D01*
X150017263Y-129072370D01*
X149990263Y-129045582D01*
X149943657Y-129007118D01*
X149886796Y-128976888D01*
X149821757Y-128962878D01*
X149738794Y-128961842D01*
X149701111Y-128963434D01*
X149659509Y-128963636D01*
X149636351Y-128959349D01*
X149624923Y-128948809D01*
X149618516Y-128930254D01*
X149616908Y-128924190D01*
X149602824Y-128869874D01*
X149596792Y-128836847D01*
X149599674Y-128818527D01*
X149612334Y-128808330D01*
X149635634Y-128799676D01*
X149658812Y-128793008D01*
X149738013Y-128784363D01*
X149822236Y-128791624D01*
G37*
G36*
X152892500Y-128790882D02*
G01*
X152978049Y-128822211D01*
X153059796Y-128876658D01*
X153070472Y-128885495D01*
X153098719Y-128906989D01*
X153113905Y-128915588D01*
X153115419Y-128914689D01*
X153121641Y-128895956D01*
X153126453Y-128860594D01*
X153131004Y-128805600D01*
X153207996Y-128801167D01*
X153284988Y-128796735D01*
X153284988Y-129619515D01*
X153094341Y-129619515D01*
X153094341Y-129064525D01*
X153034268Y-129013105D01*
X152974722Y-128973433D01*
X152909966Y-128952149D01*
X152849270Y-128952590D01*
X152797958Y-128974655D01*
X152761355Y-129018244D01*
X152756629Y-129031966D01*
X152750380Y-129071797D01*
X152746039Y-129134671D01*
X152743485Y-129222672D01*
X152742595Y-129337881D01*
X152742378Y-129620855D01*
X152643389Y-129616518D01*
X152544399Y-129612182D01*
X152545187Y-129303293D01*
X152545398Y-129237024D01*
X152546058Y-129149343D01*
X152547496Y-129083569D01*
X152550154Y-129035094D01*
X152554475Y-128999309D01*
X152560902Y-128971604D01*
X152569880Y-128947370D01*
X152581849Y-128921999D01*
X152601865Y-128888259D01*
X152657831Y-128831361D01*
X152727912Y-128795882D01*
X152807628Y-128782248D01*
X152892500Y-128790882D01*
G37*
G36*
X147459660Y-129253500D02*
G01*
X147441655Y-129349188D01*
X147409008Y-129430963D01*
X147390826Y-129459693D01*
X147330228Y-129527755D01*
X147256311Y-129583272D01*
X147178947Y-129618209D01*
X147111490Y-129630266D01*
X147017915Y-129629799D01*
X146926651Y-129612603D01*
X146849802Y-129579792D01*
X146771613Y-129519678D01*
X146711537Y-129440564D01*
X146671509Y-129345986D01*
X146653464Y-129239475D01*
X146655028Y-129208891D01*
X146854912Y-129208891D01*
X146858471Y-129280009D01*
X146874623Y-129351163D01*
X146905768Y-129404187D01*
X146954031Y-129444127D01*
X146963676Y-129449552D01*
X147029547Y-129469598D01*
X147100259Y-129468171D01*
X147163471Y-129445210D01*
X147178149Y-129435142D01*
X147224371Y-129381388D01*
X147252462Y-129305580D01*
X147261934Y-129208891D01*
X147256360Y-129134279D01*
X147232589Y-129053625D01*
X147191149Y-128994246D01*
X147133135Y-128957571D01*
X147059642Y-128945028D01*
X147000266Y-128952057D01*
X146937414Y-128982187D01*
X146891909Y-129035460D01*
X146864244Y-129111240D01*
X146854912Y-129208891D01*
X146655028Y-129208891D01*
X146659339Y-129124566D01*
X146680356Y-129041999D01*
X146728023Y-128949327D01*
X146795916Y-128875138D01*
X146880982Y-128821820D01*
X146980168Y-128791763D01*
X147090419Y-128787354D01*
X147167201Y-128800781D01*
X147263771Y-128841018D01*
X147345690Y-128903459D01*
X147408988Y-128984848D01*
X147449693Y-129081930D01*
X147461593Y-129156175D01*
X147460546Y-129208891D01*
X147459660Y-129253500D01*
G37*
G36*
X146236314Y-128603954D02*
G01*
X146236493Y-128605045D01*
X146242909Y-128658562D01*
X146245790Y-128710277D01*
X146245847Y-128714041D01*
X146249532Y-128753181D01*
X146257050Y-128778697D01*
X146257727Y-128779565D01*
X146279112Y-128789370D01*
X146320685Y-128798918D01*
X146374146Y-128806255D01*
X146480369Y-128816722D01*
X146480369Y-128959584D01*
X146260392Y-128959584D01*
X146260310Y-129168562D01*
X146260229Y-129189092D01*
X146258579Y-129268932D01*
X146255134Y-129341179D01*
X146250322Y-129398590D01*
X146244574Y-129433919D01*
X146237599Y-129454393D01*
X146198720Y-129520028D01*
X146142242Y-129575776D01*
X146077078Y-129612150D01*
X146048152Y-129619994D01*
X145985985Y-129628356D01*
X145914046Y-129630863D01*
X145840109Y-129627938D01*
X145771945Y-129620003D01*
X145717327Y-129607481D01*
X145684027Y-129590793D01*
X145681221Y-129584138D01*
X145681422Y-129554785D01*
X145689077Y-129513121D01*
X145697300Y-129482041D01*
X145707879Y-129458477D01*
X145723751Y-129453027D01*
X145752066Y-129459619D01*
X145789769Y-129467071D01*
X145848399Y-129471871D01*
X145909806Y-129471721D01*
X145963408Y-129466732D01*
X145998626Y-129457018D01*
X146005157Y-129453191D01*
X146030719Y-129428491D01*
X146049093Y-129389623D01*
X146061144Y-129332857D01*
X146067740Y-129254460D01*
X146069746Y-129150701D01*
X146069746Y-128959584D01*
X145703117Y-128959584D01*
X145703117Y-128798267D01*
X146069746Y-128798267D01*
X146069746Y-128548960D01*
X146227224Y-128548960D01*
X146236314Y-128603954D01*
G37*
G36*
X144112496Y-128792565D02*
G01*
X144162830Y-128798191D01*
X144205591Y-128809837D01*
X144251270Y-128829396D01*
X144310972Y-128861919D01*
X144392705Y-128927380D01*
X144449352Y-129006839D01*
X144482237Y-129102414D01*
X144492680Y-129216224D01*
X144491131Y-129278876D01*
X144485022Y-129326228D01*
X144471775Y-129367090D01*
X144448807Y-129413053D01*
X144395526Y-129490467D01*
X144317492Y-129558908D01*
X144218934Y-129607280D01*
X144143213Y-129625927D01*
X144037472Y-129631563D01*
X143931407Y-129617710D01*
X143836462Y-129585035D01*
X143783063Y-129557530D01*
X143747470Y-129533135D01*
X143733575Y-129510011D01*
X143738511Y-129483023D01*
X143759411Y-129447035D01*
X143797322Y-129389747D01*
X143879711Y-129431305D01*
X143959151Y-129461168D01*
X144045430Y-129471165D01*
X144124740Y-129458122D01*
X144193219Y-129424044D01*
X144247001Y-129370938D01*
X144282224Y-129300809D01*
X144295024Y-129215665D01*
X144287007Y-129143835D01*
X144256158Y-129067249D01*
X144205995Y-129007137D01*
X144140619Y-128965914D01*
X144064129Y-128945993D01*
X143980627Y-128949788D01*
X143894212Y-128979712D01*
X143825485Y-129014506D01*
X143780711Y-128957975D01*
X143766041Y-128937829D01*
X143748219Y-128905555D01*
X143745334Y-128886239D01*
X143756446Y-128876066D01*
X143787945Y-128855236D01*
X143830685Y-128831120D01*
X143842380Y-128825082D01*
X143882360Y-128807388D01*
X143921757Y-128797099D01*
X143970527Y-128792299D01*
X144038625Y-128791070D01*
X144044100Y-128791069D01*
X144112496Y-128792565D01*
G37*
G36*
X149418979Y-129208891D02*
G01*
X149410871Y-129300312D01*
X149379086Y-129403717D01*
X149325182Y-129492122D01*
X149251238Y-129562306D01*
X149159333Y-129611052D01*
X149139766Y-129617213D01*
X149064741Y-129628734D01*
X148980461Y-129628202D01*
X148899191Y-129616273D01*
X148833197Y-129593603D01*
X148832322Y-129593153D01*
X148746128Y-129533064D01*
X148679154Y-129454145D01*
X148633052Y-129361022D01*
X148609472Y-129258321D01*
X148609837Y-129192242D01*
X148811634Y-129192242D01*
X148816128Y-129270437D01*
X148834504Y-129343446D01*
X148866803Y-129404672D01*
X148913065Y-129447520D01*
X148918219Y-129450425D01*
X148982427Y-129470053D01*
X149052707Y-129467553D01*
X149117278Y-129443175D01*
X149158846Y-129406797D01*
X149195293Y-129345200D01*
X149216093Y-129270904D01*
X149220953Y-129190727D01*
X149209581Y-129111490D01*
X149181687Y-129040011D01*
X149136977Y-128983109D01*
X149136845Y-128982993D01*
X149092190Y-128959474D01*
X149032521Y-128948235D01*
X148969817Y-128950192D01*
X148916056Y-128966256D01*
X148881034Y-128992498D01*
X148844128Y-129046677D01*
X148820981Y-129115457D01*
X148811634Y-129192242D01*
X148609837Y-129192242D01*
X148610067Y-129150667D01*
X148636488Y-129042687D01*
X148675883Y-128964695D01*
X148740550Y-128889107D01*
X148820278Y-128833166D01*
X148910515Y-128797967D01*
X149006710Y-128784605D01*
X149104312Y-128794176D01*
X149198770Y-128827775D01*
X149285532Y-128886497D01*
X149317551Y-128917722D01*
X149374665Y-128999336D01*
X149408092Y-129095467D01*
X149417236Y-129190727D01*
X149418979Y-129208891D01*
G37*
G36*
X148394168Y-129612182D02*
G01*
X148319149Y-129616546D01*
X148280437Y-129618212D01*
X148254257Y-129614900D01*
X148241901Y-129601911D01*
X148234971Y-129575114D01*
X148225811Y-129529318D01*
X148182667Y-129560040D01*
X148138996Y-129587327D01*
X148090864Y-129611897D01*
X148027668Y-129629683D01*
X147940811Y-129628027D01*
X147850519Y-129599265D01*
X147796969Y-129568969D01*
X147724166Y-129502050D01*
X147672524Y-129414862D01*
X147642026Y-129307376D01*
X147633968Y-129197421D01*
X147829883Y-129197421D01*
X147830138Y-129211275D01*
X147842465Y-129301194D01*
X147871519Y-129377769D01*
X147914885Y-129434268D01*
X147942433Y-129451882D01*
X148000950Y-129466906D01*
X148068003Y-129464679D01*
X148133862Y-129444736D01*
X148196189Y-129415637D01*
X148195989Y-129025577D01*
X148144315Y-128990385D01*
X148139256Y-128987092D01*
X148084107Y-128962132D01*
X148023428Y-128948613D01*
X147962822Y-128951703D01*
X147905610Y-128978384D01*
X147863838Y-129028932D01*
X147838323Y-129102294D01*
X147829883Y-129197421D01*
X147633968Y-129197421D01*
X147632659Y-129179561D01*
X147640994Y-129077605D01*
X147668908Y-128975722D01*
X147715323Y-128894047D01*
X147779104Y-128833978D01*
X147859113Y-128796912D01*
X147954214Y-128784246D01*
X147987971Y-128786562D01*
X148060629Y-128802959D01*
X148130305Y-128831132D01*
X148183872Y-128866386D01*
X148187238Y-128869307D01*
X148195682Y-128873747D01*
X148201194Y-128868082D01*
X148204090Y-128848474D01*
X148204686Y-128811084D01*
X148203297Y-128752072D01*
X148200241Y-128667600D01*
X148191736Y-128446304D01*
X148401837Y-128446304D01*
X148398003Y-129029243D01*
X148395461Y-129415637D01*
X148394168Y-129612182D01*
G37*
G36*
X152354543Y-129247705D02*
G01*
X152343784Y-129342157D01*
X152319533Y-129421535D01*
X152284445Y-129486334D01*
X152223915Y-129557465D01*
X152148441Y-129606377D01*
X152122411Y-129616633D01*
X152038084Y-129630928D01*
X151949440Y-129622371D01*
X151864881Y-129592468D01*
X151792811Y-129542722D01*
X151759815Y-129511746D01*
X151759590Y-129547299D01*
X151757896Y-129572801D01*
X151745197Y-129602611D01*
X151715416Y-129615944D01*
X151663073Y-129616744D01*
X151591166Y-129612182D01*
X151587331Y-129029243D01*
X151587184Y-129006952D01*
X151789145Y-129006952D01*
X151789370Y-129192246D01*
X151789385Y-129198895D01*
X151790423Y-129269980D01*
X151792825Y-129330328D01*
X151796252Y-129373742D01*
X151800368Y-129394026D01*
X151803415Y-129397795D01*
X151827223Y-129417957D01*
X151862471Y-129441633D01*
X151924471Y-129466745D01*
X151995474Y-129469277D01*
X152061898Y-129445043D01*
X152080941Y-129431022D01*
X152120721Y-129379481D01*
X152145506Y-129312141D01*
X152155462Y-129235724D01*
X152150755Y-129156953D01*
X152131549Y-129082550D01*
X152098010Y-129019236D01*
X152050304Y-128973736D01*
X152024629Y-128961131D01*
X151959483Y-128948526D01*
X151890302Y-128955211D01*
X151829053Y-128980804D01*
X151789145Y-129006952D01*
X151587184Y-129006952D01*
X151583497Y-128446304D01*
X151793453Y-128446304D01*
X151777595Y-128869948D01*
X151835581Y-128831575D01*
X151866677Y-128814567D01*
X151943259Y-128791183D01*
X152025906Y-128784873D01*
X152101566Y-128797317D01*
X152155422Y-128823617D01*
X152219866Y-128874118D01*
X152276900Y-128937851D01*
X152318124Y-129006693D01*
X152335729Y-129057376D01*
X152351845Y-129149129D01*
X152354215Y-129235724D01*
X152354543Y-129247705D01*
G37*
G36*
X155930405Y-128788174D02*
G01*
X156018839Y-128808302D01*
X156094035Y-128843138D01*
X156152308Y-128891207D01*
X156189974Y-128951033D01*
X156203348Y-129021141D01*
X156200478Y-129060673D01*
X156182101Y-129117168D01*
X156144537Y-129164548D01*
X156085255Y-129204852D01*
X156001721Y-129240121D01*
X155891405Y-129272393D01*
X155814295Y-129293358D01*
X155748527Y-129316045D01*
X155705680Y-129338546D01*
X155682417Y-129362681D01*
X155675404Y-129390270D01*
X155675739Y-129399305D01*
X155688249Y-129436758D01*
X155720787Y-129461758D01*
X155776035Y-129475628D01*
X155856676Y-129479693D01*
X155915866Y-129478201D01*
X155969002Y-129471771D01*
X156017686Y-129457558D01*
X156075259Y-129432694D01*
X156174479Y-129386198D01*
X156212300Y-129443349D01*
X156223538Y-129461636D01*
X156239240Y-129494939D01*
X156241587Y-129514309D01*
X156227558Y-129526609D01*
X156190419Y-129547573D01*
X156138816Y-129571194D01*
X156080357Y-129594051D01*
X156022648Y-129612725D01*
X156008596Y-129616323D01*
X155924221Y-129627933D01*
X155820293Y-129628770D01*
X155762590Y-129625281D01*
X155707729Y-129617550D01*
X155662227Y-129603694D01*
X155614981Y-129581135D01*
X155551882Y-129536719D01*
X155504018Y-129476861D01*
X155480178Y-129410881D01*
X155480266Y-129343503D01*
X155504185Y-129279449D01*
X155551840Y-129223442D01*
X155623135Y-129180204D01*
X155637135Y-129174714D01*
X155687236Y-129158001D01*
X155751313Y-129139206D01*
X155818967Y-129121448D01*
X155894033Y-129101236D01*
X155954642Y-129079293D01*
X155991795Y-129056605D01*
X156008541Y-129031232D01*
X156007932Y-129001235D01*
X155986751Y-128964856D01*
X155942829Y-128940325D01*
X155880323Y-128930988D01*
X155802637Y-128936901D01*
X155713178Y-128958121D01*
X155615349Y-128994705D01*
X155607519Y-128996596D01*
X155582761Y-128986085D01*
X155550550Y-128950686D01*
X155509143Y-128896398D01*
X155542711Y-128869216D01*
X155542758Y-128869178D01*
X155573688Y-128851239D01*
X155622422Y-128830343D01*
X155678430Y-128811007D01*
X155728564Y-128797939D01*
X155832419Y-128784227D01*
X155930405Y-128788174D01*
G37*
G36*
X154282217Y-129395434D02*
G01*
X154281638Y-129413777D01*
X154263572Y-129490449D01*
X154220005Y-129552779D01*
X154150671Y-129601183D01*
X154137150Y-129607526D01*
X154051613Y-129629724D01*
X153957661Y-129627913D01*
X153861372Y-129602824D01*
X153768829Y-129555190D01*
X153741793Y-129538971D01*
X153713538Y-129531705D01*
X153699443Y-129548534D01*
X153695612Y-129591384D01*
X153694885Y-129600210D01*
X153686070Y-129612531D01*
X153661714Y-129618168D01*
X153614953Y-129619515D01*
X153534295Y-129619515D01*
X153534377Y-129337211D01*
X153534641Y-129301095D01*
X153724942Y-129301095D01*
X153725422Y-129332852D01*
X153730095Y-129369166D01*
X153743057Y-129392681D01*
X153768289Y-129413741D01*
X153768922Y-129414190D01*
X153811344Y-129439543D01*
X153852613Y-129457522D01*
X153921359Y-129474281D01*
X153992818Y-129477574D01*
X154046343Y-129461893D01*
X154079929Y-129427918D01*
X154091570Y-129376331D01*
X154086706Y-129344631D01*
X154058615Y-129302140D01*
X154004792Y-129268904D01*
X153924399Y-129244470D01*
X153816599Y-129228389D01*
X153724942Y-129219315D01*
X153724942Y-129301095D01*
X153534641Y-129301095D01*
X153534951Y-129258671D01*
X153537107Y-129167517D01*
X153540623Y-129089893D01*
X153545249Y-129031064D01*
X153550730Y-128996295D01*
X153551613Y-128993250D01*
X153581208Y-128933920D01*
X153629595Y-128875981D01*
X153687835Y-128828374D01*
X153746988Y-128800037D01*
X153839331Y-128785103D01*
X153953930Y-128789245D01*
X154072287Y-128814670D01*
X154186893Y-128860348D01*
X154203564Y-128868820D01*
X154235686Y-128885720D01*
X154250893Y-128894622D01*
X154250078Y-128899940D01*
X154239467Y-128923482D01*
X154221607Y-128957092D01*
X154201626Y-128991320D01*
X154184651Y-129016718D01*
X154171402Y-129014585D01*
X154138571Y-129002747D01*
X154093707Y-128983721D01*
X154077603Y-128976813D01*
X153990126Y-128950145D01*
X153908570Y-128942680D01*
X153838375Y-128954390D01*
X153784981Y-128985248D01*
X153778399Y-128991675D01*
X153749293Y-129026764D01*
X153732750Y-129057574D01*
X153730336Y-129067623D01*
X153732990Y-129082944D01*
X153752046Y-129091783D01*
X153793930Y-129098431D01*
X153906562Y-129115184D01*
X154028391Y-129141939D01*
X154124278Y-129175303D01*
X154195913Y-129216306D01*
X154244987Y-129265977D01*
X154273191Y-129325343D01*
X154279757Y-129376331D01*
X154282217Y-129395434D01*
G37*
G36*
X143189411Y-128788036D02*
G01*
X143278265Y-128803036D01*
X143351568Y-128829400D01*
X143395054Y-128854721D01*
X143445594Y-128900130D01*
X143473061Y-128955155D01*
X143481351Y-129025689D01*
X143481303Y-129035006D01*
X143477648Y-129082836D01*
X143465003Y-129116410D01*
X143438926Y-129148591D01*
X143405114Y-129179566D01*
X143365465Y-129205483D01*
X143314544Y-129228539D01*
X143246480Y-129251387D01*
X143155402Y-129276679D01*
X143088832Y-129294937D01*
X143028803Y-129314438D01*
X142990142Y-129332256D01*
X142968703Y-129350391D01*
X142960339Y-129370846D01*
X142958734Y-129410548D01*
X142973637Y-129443152D01*
X143011596Y-129466279D01*
X143026985Y-129471989D01*
X143106712Y-129485531D01*
X143199377Y-129480272D01*
X143297956Y-129457114D01*
X143395422Y-129416960D01*
X143456144Y-129385913D01*
X143494411Y-129443739D01*
X143506501Y-129462388D01*
X143525278Y-129493421D01*
X143532679Y-129508965D01*
X143527027Y-129515880D01*
X143500226Y-129532629D01*
X143457823Y-129553990D01*
X143406999Y-129576638D01*
X143354938Y-129597252D01*
X143308822Y-129612510D01*
X143308661Y-129612556D01*
X143238737Y-129624939D01*
X143154149Y-129629235D01*
X143065716Y-129625856D01*
X142984258Y-129615215D01*
X142920596Y-129597724D01*
X142882514Y-129579026D01*
X142818763Y-129527429D01*
X142776961Y-129462150D01*
X142759567Y-129387871D01*
X142769041Y-129309273D01*
X142787266Y-129270941D01*
X142837568Y-129219686D01*
X142914314Y-129176685D01*
X143016262Y-129142778D01*
X143016347Y-129142756D01*
X143106828Y-129119525D01*
X143173047Y-129101754D01*
X143219201Y-129087818D01*
X143249486Y-129076093D01*
X143268098Y-129064955D01*
X143279233Y-129052779D01*
X143287088Y-129037941D01*
X143295879Y-129010941D01*
X143288743Y-128989893D01*
X143261643Y-128963428D01*
X143237957Y-128945189D01*
X143211905Y-128934128D01*
X143176800Y-128930987D01*
X143122615Y-128933617D01*
X143079304Y-128938842D01*
X143010528Y-128953604D01*
X142953170Y-128972975D01*
X142880080Y-129005439D01*
X142839751Y-128957401D01*
X142830211Y-128945552D01*
X142808211Y-128913365D01*
X142799422Y-128892284D01*
X142808425Y-128879711D01*
X142840038Y-128859802D01*
X142888316Y-128837528D01*
X142946870Y-128815775D01*
X143009307Y-128797432D01*
X143012764Y-128796583D01*
X143096934Y-128785513D01*
X143189411Y-128788036D01*
G37*
G36*
X149314676Y-120384400D02*
G01*
X149331195Y-120393849D01*
X149344601Y-120411732D01*
X149348589Y-120419083D01*
X149364266Y-120454871D01*
X149387359Y-120513063D01*
X149416484Y-120589846D01*
X149450259Y-120681406D01*
X149487299Y-120783930D01*
X149526222Y-120893604D01*
X149565645Y-121006615D01*
X149604185Y-121119150D01*
X149640458Y-121227396D01*
X149709589Y-121436374D01*
X150078438Y-121436255D01*
X150447286Y-121436136D01*
X150533134Y-121197946D01*
X150553578Y-121141019D01*
X150592402Y-121032178D01*
X150634586Y-120913198D01*
X150676266Y-120794988D01*
X150713580Y-120688452D01*
X150716312Y-120680633D01*
X150746586Y-120596069D01*
X150774850Y-120520650D01*
X150799264Y-120459037D01*
X150817986Y-120415893D01*
X150829174Y-120395878D01*
X150837443Y-120389099D01*
X150854349Y-120383280D01*
X150881951Y-120382828D01*
X150926278Y-120387837D01*
X150993357Y-120398398D01*
X151067287Y-120410751D01*
X151241956Y-120440587D01*
X151393805Y-120467521D01*
X151521798Y-120491351D01*
X151624899Y-120511873D01*
X151702071Y-120528884D01*
X151752277Y-120542181D01*
X151774480Y-120551560D01*
X151779288Y-120558520D01*
X151784305Y-120574331D01*
X151788492Y-120600688D01*
X151791986Y-120640275D01*
X151794922Y-120695774D01*
X151797437Y-120769869D01*
X151799666Y-120865245D01*
X151801745Y-120984583D01*
X151803810Y-121130567D01*
X151811143Y-121688987D01*
X152155067Y-121811024D01*
X152245867Y-121843124D01*
X152332348Y-121873191D01*
X152397361Y-121894852D01*
X152444224Y-121909001D01*
X152476260Y-121916533D01*
X152496790Y-121918340D01*
X152509134Y-121915318D01*
X152516613Y-121908361D01*
X152523239Y-121899171D01*
X152558185Y-121852354D01*
X152605122Y-121791274D01*
X152661541Y-121719043D01*
X152724933Y-121638769D01*
X152792786Y-121553564D01*
X152862592Y-121466536D01*
X152931841Y-121380797D01*
X152998023Y-121299456D01*
X153058628Y-121225623D01*
X153111147Y-121162410D01*
X153153069Y-121112925D01*
X153181885Y-121080279D01*
X153195086Y-121067583D01*
X153207437Y-121069206D01*
X153243376Y-121083226D01*
X153297823Y-121108995D01*
X153367075Y-121144393D01*
X153447427Y-121187301D01*
X153535175Y-121235601D01*
X153626615Y-121287172D01*
X153718042Y-121339896D01*
X153805751Y-121391653D01*
X153886039Y-121440325D01*
X153955201Y-121483791D01*
X154009533Y-121519932D01*
X154045330Y-121546629D01*
X154058888Y-121561764D01*
X154058930Y-121562296D01*
X154054601Y-121584093D01*
X154041773Y-121630122D01*
X154021473Y-121697126D01*
X153994728Y-121781848D01*
X153962564Y-121881031D01*
X153926010Y-121991419D01*
X153886091Y-122109754D01*
X153882051Y-122121633D01*
X153842804Y-122238291D01*
X153807342Y-122345884D01*
X153776637Y-122441303D01*
X153751660Y-122521442D01*
X153733379Y-122583191D01*
X153722767Y-122623444D01*
X153720793Y-122639093D01*
X153721770Y-122639934D01*
X153746382Y-122660199D01*
X153788921Y-122694424D01*
X153844560Y-122738792D01*
X153908469Y-122789490D01*
X153975821Y-122842701D01*
X154041787Y-122894611D01*
X154101540Y-122941404D01*
X154150250Y-122979266D01*
X154183089Y-123004381D01*
X154267276Y-123067518D01*
X154723394Y-122778162D01*
X154724827Y-122777252D01*
X154829522Y-122711105D01*
X154927139Y-122649932D01*
X155014740Y-122595538D01*
X155089385Y-122549727D01*
X155148135Y-122514302D01*
X155188052Y-122491067D01*
X155206196Y-122481827D01*
X155209785Y-122481225D01*
X155222220Y-122483439D01*
X155239153Y-122492985D01*
X155262408Y-122511726D01*
X155293813Y-122541529D01*
X155335194Y-122584259D01*
X155388378Y-122641780D01*
X155455191Y-122715957D01*
X155537459Y-122808656D01*
X155637009Y-122921741D01*
X155656915Y-122944498D01*
X155727004Y-123026228D01*
X155784912Y-123096397D01*
X155828689Y-123152526D01*
X155856385Y-123192138D01*
X155866050Y-123212755D01*
X155860366Y-123227929D01*
X155838879Y-123263910D01*
X155804224Y-123314702D01*
X155759414Y-123375926D01*
X155707460Y-123443207D01*
X155665235Y-123496869D01*
X155593775Y-123588691D01*
X155516404Y-123689048D01*
X155439968Y-123789048D01*
X155371316Y-123879795D01*
X155193761Y-124116116D01*
X155383520Y-124400407D01*
X155453608Y-124503918D01*
X155510048Y-124583876D01*
X155552683Y-124639948D01*
X155582048Y-124672838D01*
X155598677Y-124683248D01*
X155611421Y-124681120D01*
X155650735Y-124673077D01*
X155712463Y-124659787D01*
X155793109Y-124642022D01*
X155889173Y-124620552D01*
X155997157Y-124596152D01*
X156113564Y-124569593D01*
X156200859Y-124549729D01*
X156312704Y-124524721D01*
X156414158Y-124502534D01*
X156501587Y-124483938D01*
X156571356Y-124469702D01*
X156619832Y-124460596D01*
X156643380Y-124457390D01*
X156673703Y-124462018D01*
X156698004Y-124475721D01*
X156706457Y-124492366D01*
X156724318Y-124532497D01*
X156749740Y-124591800D01*
X156781033Y-124666149D01*
X156816511Y-124751418D01*
X156854484Y-124843482D01*
X156893263Y-124938215D01*
X156931161Y-125031491D01*
X156966488Y-125119186D01*
X156997557Y-125197173D01*
X157022678Y-125261328D01*
X157040163Y-125307524D01*
X157048323Y-125331637D01*
X157047375Y-125364453D01*
X157022128Y-125397170D01*
X157005345Y-125409961D01*
X156965815Y-125437571D01*
X156908545Y-125476366D01*
X156837327Y-125523871D01*
X156755952Y-125577611D01*
X156668212Y-125635112D01*
X156577899Y-125693898D01*
X156488804Y-125751495D01*
X156404719Y-125805426D01*
X156329435Y-125853218D01*
X156266745Y-125892395D01*
X156220439Y-125920482D01*
X156127542Y-125975230D01*
X156136525Y-126031708D01*
X156137266Y-126036246D01*
X156146122Y-126083191D01*
X156159560Y-126146962D01*
X156176366Y-126222506D01*
X156195330Y-126304772D01*
X156215237Y-126388709D01*
X156234877Y-126469265D01*
X156253037Y-126541389D01*
X156268503Y-126600028D01*
X156280065Y-126640131D01*
X156286509Y-126656646D01*
X156293863Y-126658809D01*
X156327232Y-126664311D01*
X156384066Y-126671931D01*
X156460826Y-126681245D01*
X156553975Y-126691829D01*
X156659975Y-126703262D01*
X156775288Y-126715119D01*
X156804491Y-126718054D01*
X156950339Y-126732817D01*
X157070105Y-126745217D01*
X157166429Y-126755627D01*
X157241949Y-126764419D01*
X157299306Y-126771964D01*
X157341138Y-126778634D01*
X157370086Y-126784802D01*
X157388788Y-126790840D01*
X157399884Y-126797119D01*
X157406013Y-126804011D01*
X157409626Y-126811629D01*
X157414566Y-126829437D01*
X157419585Y-126858201D01*
X157425016Y-126900969D01*
X157431197Y-126960793D01*
X157438461Y-127040721D01*
X157447145Y-127143805D01*
X157457584Y-127273094D01*
X157463452Y-127346566D01*
X157471108Y-127441995D01*
X157478243Y-127530473D01*
X157484257Y-127604570D01*
X157488551Y-127656858D01*
X157497896Y-127769317D01*
X157396899Y-127819867D01*
X157394221Y-127821203D01*
X157319567Y-127856063D01*
X157223945Y-127897272D01*
X157112676Y-127942830D01*
X156991081Y-127990741D01*
X156864481Y-128039005D01*
X156738199Y-128085626D01*
X156617555Y-128128604D01*
X156507870Y-128165942D01*
X156414467Y-128195642D01*
X156342667Y-128215705D01*
X156334292Y-128216821D01*
X156298225Y-128218921D01*
X156239784Y-128220855D01*
X156163551Y-128222512D01*
X156074109Y-128223783D01*
X155976039Y-128224557D01*
X155638741Y-128226188D01*
X155636198Y-127899959D01*
X155635783Y-127860385D01*
X155620884Y-127492195D01*
X155585486Y-127139050D01*
X155528568Y-126794629D01*
X155449106Y-126452612D01*
X155346079Y-126106679D01*
X155269170Y-125887686D01*
X155112651Y-125510423D01*
X154930526Y-125147311D01*
X154723159Y-124798945D01*
X154490919Y-124465921D01*
X154234172Y-124148833D01*
X153953285Y-123848276D01*
X153900267Y-123795952D01*
X153637893Y-123553790D01*
X153370825Y-123336007D01*
X153093443Y-123138542D01*
X152800126Y-122957338D01*
X152485251Y-122788335D01*
X152414582Y-122753473D01*
X152053405Y-122593274D01*
X151687523Y-122461131D01*
X151315055Y-122356576D01*
X150934119Y-122279139D01*
X150542834Y-122228352D01*
X150139318Y-122203746D01*
X149785192Y-122204904D01*
X149386023Y-122233263D01*
X148991443Y-122289960D01*
X148602928Y-122374553D01*
X148221955Y-122486602D01*
X147849999Y-122625665D01*
X147488537Y-122791302D01*
X147139046Y-122983070D01*
X146803002Y-123200529D01*
X146513903Y-123416593D01*
X146204889Y-123681259D01*
X145916876Y-123965435D01*
X145650599Y-124267902D01*
X145406793Y-124587441D01*
X145186195Y-124922831D01*
X144989539Y-125272853D01*
X144817561Y-125636289D01*
X144670996Y-126011917D01*
X144550580Y-126398520D01*
X144457049Y-126794877D01*
X144391137Y-127199769D01*
X144388381Y-127222398D01*
X144378232Y-127321140D01*
X144368759Y-127435902D01*
X144360294Y-127560228D01*
X144353171Y-127687662D01*
X144347722Y-127811747D01*
X144344280Y-127926026D01*
X144343179Y-128024042D01*
X144344750Y-128099339D01*
X144350955Y-128226327D01*
X143651312Y-128226327D01*
X143078213Y-127940248D01*
X142998523Y-127900296D01*
X142883269Y-127841878D01*
X142778001Y-127787765D01*
X142685440Y-127739397D01*
X142608307Y-127698218D01*
X142549324Y-127665667D01*
X142511212Y-127643188D01*
X142496693Y-127632221D01*
X142495971Y-127624750D01*
X142496596Y-127591233D01*
X142499349Y-127535763D01*
X142503870Y-127462977D01*
X142509796Y-127377512D01*
X142516769Y-127284006D01*
X142524426Y-127187097D01*
X142532407Y-127091423D01*
X142540352Y-127001621D01*
X142547899Y-126922328D01*
X142554688Y-126858184D01*
X142560358Y-126813825D01*
X142561719Y-126805865D01*
X142573163Y-126765338D01*
X142587655Y-126739035D01*
X142596285Y-126733193D01*
X142612536Y-126727230D01*
X142638540Y-126721148D01*
X142676731Y-126714639D01*
X142729542Y-126707396D01*
X142799404Y-126699113D01*
X142888752Y-126689482D01*
X143000018Y-126678198D01*
X143135635Y-126664952D01*
X143298037Y-126649438D01*
X143301347Y-126649124D01*
X143409165Y-126638814D01*
X143509252Y-126629091D01*
X143597314Y-126620387D01*
X143669056Y-126613128D01*
X143720184Y-126607744D01*
X143746404Y-126604664D01*
X143791481Y-126598139D01*
X143875294Y-126259146D01*
X143890944Y-126195272D01*
X143912281Y-126106077D01*
X143930022Y-126029330D01*
X143943269Y-125969028D01*
X143951129Y-125929169D01*
X143952703Y-125913750D01*
X143951037Y-125912467D01*
X143930773Y-125898175D01*
X143889736Y-125869714D01*
X143830541Y-125828884D01*
X143755806Y-125777485D01*
X143668146Y-125717316D01*
X143570178Y-125650178D01*
X143464518Y-125577872D01*
X143432573Y-125555986D01*
X143328390Y-125484042D01*
X143232483Y-125416965D01*
X143147522Y-125356679D01*
X143076179Y-125305109D01*
X143021127Y-125264181D01*
X142985037Y-125235820D01*
X142970580Y-125221950D01*
X142969563Y-125217264D01*
X142972969Y-125195150D01*
X142985587Y-125156745D01*
X143008233Y-125100078D01*
X143041720Y-125023177D01*
X143086862Y-124924069D01*
X143144473Y-124800783D01*
X143158271Y-124771605D01*
X143205766Y-124672584D01*
X143250006Y-124582451D01*
X143289180Y-124504755D01*
X143321481Y-124443043D01*
X143345098Y-124400861D01*
X143358221Y-124381757D01*
X143381432Y-124367792D01*
X143411638Y-124363402D01*
X143412620Y-124363632D01*
X143435647Y-124369178D01*
X143483458Y-124380779D01*
X143552762Y-124397631D01*
X143640266Y-124418934D01*
X143742678Y-124443887D01*
X143856706Y-124471688D01*
X143979058Y-124501535D01*
X143998271Y-124506215D01*
X144118586Y-124535123D01*
X144229429Y-124561091D01*
X144327635Y-124583426D01*
X144410040Y-124601432D01*
X144473481Y-124614417D01*
X144514793Y-124621686D01*
X144530813Y-124622546D01*
X144531723Y-124621401D01*
X144545158Y-124601818D01*
X144571353Y-124562188D01*
X144607758Y-124506417D01*
X144651820Y-124438408D01*
X144700990Y-124362066D01*
X144707944Y-124351241D01*
X144757970Y-124273428D01*
X144803605Y-124202554D01*
X144841987Y-124143056D01*
X144870255Y-124099372D01*
X144885547Y-124075937D01*
X144891266Y-124066586D01*
X144894436Y-124056586D01*
X144893452Y-124043820D01*
X144886835Y-124025976D01*
X144873107Y-124000743D01*
X144850789Y-123965809D01*
X144818404Y-123918864D01*
X144774473Y-123857595D01*
X144717519Y-123779692D01*
X144646063Y-123682843D01*
X144558626Y-123564737D01*
X144532111Y-123528853D01*
X144457131Y-123426433D01*
X144388565Y-123331395D01*
X144328279Y-123246417D01*
X144278140Y-123174178D01*
X144240015Y-123117356D01*
X144215771Y-123078630D01*
X144207274Y-123060677D01*
X144210172Y-123052574D01*
X144231377Y-123022330D01*
X144272288Y-122973658D01*
X144331875Y-122907713D01*
X144409108Y-122825653D01*
X144502957Y-122728632D01*
X144590356Y-122639290D01*
X144666566Y-122561563D01*
X144726525Y-122500792D01*
X144772433Y-122454890D01*
X144806489Y-122421771D01*
X144830894Y-122399351D01*
X144847846Y-122385544D01*
X144859546Y-122378263D01*
X144868193Y-122375425D01*
X144875987Y-122374942D01*
X144877684Y-122375253D01*
X144899740Y-122386104D01*
X144941186Y-122410623D01*
X144998036Y-122446318D01*
X145066303Y-122490695D01*
X145142001Y-122541264D01*
X145287675Y-122639291D01*
X145430383Y-122734056D01*
X145554709Y-122815169D01*
X145659740Y-122882060D01*
X145744566Y-122934159D01*
X145808276Y-122970895D01*
X145849959Y-122991699D01*
X145868703Y-122996001D01*
X145873176Y-122992980D01*
X145898461Y-122974156D01*
X145940267Y-122942039D01*
X145994003Y-122900172D01*
X146055080Y-122852098D01*
X146066047Y-122843434D01*
X146128137Y-122794672D01*
X146193609Y-122743655D01*
X146258053Y-122693775D01*
X146317060Y-122648425D01*
X146366217Y-122610997D01*
X146401116Y-122584882D01*
X146417344Y-122573474D01*
X146416125Y-122567281D01*
X146407629Y-122537769D01*
X146392406Y-122488170D01*
X146371903Y-122423178D01*
X146347570Y-122347487D01*
X146322620Y-122269848D01*
X146280903Y-122137061D01*
X146241142Y-122006948D01*
X146204221Y-121882664D01*
X146171024Y-121767361D01*
X146142437Y-121664195D01*
X146119343Y-121576318D01*
X146102628Y-121506885D01*
X146093177Y-121459049D01*
X146091873Y-121435964D01*
X146094841Y-121431865D01*
X146119275Y-121413505D01*
X146164792Y-121385484D01*
X146227490Y-121349781D01*
X146303469Y-121308372D01*
X146388827Y-121263236D01*
X146479662Y-121216352D01*
X146572074Y-121169697D01*
X146662162Y-121125248D01*
X146746023Y-121084985D01*
X146819758Y-121050886D01*
X146879463Y-121024927D01*
X146921239Y-121009088D01*
X146941184Y-121005346D01*
X146943825Y-121007018D01*
X146963460Y-121026766D01*
X146996893Y-121065346D01*
X147041147Y-121119158D01*
X147093244Y-121184602D01*
X147150209Y-121258081D01*
X147206270Y-121331226D01*
X147281651Y-121429380D01*
X147358422Y-121529160D01*
X147430187Y-121622252D01*
X147490549Y-121700346D01*
X147530911Y-121752476D01*
X147576364Y-121811225D01*
X147612799Y-121858365D01*
X147637232Y-121890039D01*
X147646682Y-121902387D01*
X147660323Y-121898924D01*
X147697868Y-121887006D01*
X147755501Y-121867921D01*
X147829413Y-121842969D01*
X147915795Y-121813454D01*
X148010838Y-121780675D01*
X148110733Y-121745936D01*
X148211671Y-121710537D01*
X148309844Y-121675780D01*
X148372170Y-121653593D01*
X148372170Y-121084828D01*
X148372185Y-121038451D01*
X148372484Y-120896468D01*
X148373229Y-120780679D01*
X148374500Y-120688655D01*
X148376379Y-120617965D01*
X148378945Y-120566180D01*
X148382280Y-120530870D01*
X148386465Y-120509604D01*
X148391579Y-120499954D01*
X148392696Y-120499272D01*
X148415726Y-120493080D01*
X148463089Y-120484250D01*
X148530616Y-120473352D01*
X148614136Y-120460957D01*
X148709480Y-120447635D01*
X148812477Y-120433954D01*
X148918957Y-120420487D01*
X149024750Y-120407801D01*
X149125687Y-120396467D01*
X149217598Y-120387056D01*
X149241513Y-120384822D01*
X149287348Y-120381890D01*
X149314676Y-120384400D01*
G37*
G36*
X150090452Y-123964433D02*
G01*
X150235326Y-124013585D01*
X150362245Y-124081064D01*
X150467551Y-124165153D01*
X150500137Y-124198508D01*
X150527750Y-124231522D01*
X150533855Y-124247525D01*
X150518277Y-124245733D01*
X150480845Y-124225361D01*
X150461745Y-124214484D01*
X150415221Y-124191546D01*
X150359549Y-124166946D01*
X150301860Y-124143526D01*
X150249287Y-124124125D01*
X150208963Y-124111586D01*
X150188019Y-124108747D01*
X150187032Y-124114222D01*
X150202912Y-124132095D01*
X150234893Y-124156929D01*
X150239895Y-124160452D01*
X150319647Y-124231428D01*
X150394335Y-124323841D01*
X150459377Y-124430257D01*
X150510191Y-124543244D01*
X150542194Y-124655369D01*
X150549526Y-124708540D01*
X150554441Y-124782013D01*
X150554555Y-124852027D01*
X150549942Y-124960695D01*
X150467750Y-124837044D01*
X150437844Y-124793222D01*
X150380699Y-124714715D01*
X150322732Y-124640805D01*
X150268109Y-124576513D01*
X150220996Y-124526861D01*
X150185558Y-124496872D01*
X150148832Y-124472808D01*
X150190605Y-124564937D01*
X150202370Y-124592034D01*
X150232057Y-124671245D01*
X150256293Y-124751231D01*
X150272546Y-124822975D01*
X150278289Y-124877463D01*
X150277536Y-124892163D01*
X150273089Y-124897796D01*
X150262776Y-124880783D01*
X150244468Y-124838683D01*
X150230369Y-124806318D01*
X150147090Y-124658370D01*
X150040949Y-124527488D01*
X149914328Y-124416240D01*
X149769608Y-124327190D01*
X149752580Y-124318758D01*
X149711005Y-124301107D01*
X149691081Y-124300427D01*
X149690360Y-124317760D01*
X149706399Y-124354150D01*
X149714443Y-124370132D01*
X149731334Y-124407845D01*
X149731961Y-124421610D01*
X149715477Y-124412321D01*
X149681033Y-124380870D01*
X149650148Y-124353724D01*
X149606292Y-124319263D01*
X149558208Y-124284176D01*
X149512662Y-124253222D01*
X149476418Y-124231159D01*
X149456242Y-124222748D01*
X149459948Y-124229740D01*
X149480329Y-124253686D01*
X149514461Y-124290640D01*
X149558567Y-124336403D01*
X149583960Y-124363231D01*
X149637690Y-124425707D01*
X149684249Y-124487079D01*
X149716358Y-124538048D01*
X149721031Y-124547109D01*
X149745013Y-124598349D01*
X149769099Y-124656189D01*
X149790877Y-124713953D01*
X149807935Y-124764964D01*
X149817859Y-124802545D01*
X149818238Y-124820021D01*
X149816792Y-124819957D01*
X149801813Y-124806474D01*
X149775094Y-124776095D01*
X149741241Y-124733970D01*
X149719970Y-124706594D01*
X149679714Y-124655426D01*
X149655068Y-124625521D01*
X149644587Y-124615346D01*
X149646826Y-124623363D01*
X149660339Y-124648036D01*
X149676434Y-124679003D01*
X149709601Y-124760049D01*
X149739281Y-124853712D01*
X149762124Y-124948707D01*
X149774783Y-125033749D01*
X149775926Y-125053042D01*
X149775250Y-125114316D01*
X149769828Y-125181935D01*
X149760756Y-125248765D01*
X149749131Y-125307673D01*
X149736048Y-125351526D01*
X149722606Y-125373192D01*
X149719462Y-125370749D01*
X149713167Y-125346863D01*
X149706951Y-125302997D01*
X149701791Y-125245158D01*
X149699945Y-125221229D01*
X149692733Y-125153262D01*
X149683749Y-125093035D01*
X149674511Y-125051327D01*
X149667534Y-125028830D01*
X149659368Y-125007068D01*
X149655001Y-125010335D01*
X149651318Y-125036662D01*
X149638483Y-125114806D01*
X149592738Y-125263672D01*
X149521989Y-125400801D01*
X149428465Y-125522996D01*
X149314394Y-125627061D01*
X149182004Y-125709799D01*
X149104598Y-125748835D01*
X149158172Y-125642451D01*
X149175019Y-125608102D01*
X149213776Y-125522822D01*
X149250156Y-125434925D01*
X149281406Y-125351589D01*
X149304770Y-125279991D01*
X149317493Y-125227309D01*
X149326811Y-125168648D01*
X149285778Y-125219976D01*
X149276262Y-125231712D01*
X149228977Y-125286694D01*
X149175495Y-125344848D01*
X149122044Y-125399735D01*
X149074851Y-125444917D01*
X149040145Y-125473953D01*
X149028458Y-125482043D01*
X149015752Y-125488435D01*
X149017011Y-125480173D01*
X149033401Y-125454287D01*
X149066088Y-125407806D01*
X149093923Y-125366854D01*
X149167933Y-125233546D01*
X149222724Y-125094136D01*
X149256858Y-124953995D01*
X149268899Y-124818496D01*
X149257407Y-124693011D01*
X149248070Y-124646329D01*
X149211978Y-124706854D01*
X149199273Y-124727123D01*
X149179885Y-124753443D01*
X149169477Y-124760971D01*
X149168262Y-124756395D01*
X149170278Y-124730208D01*
X149177885Y-124690301D01*
X149179445Y-124682847D01*
X149186241Y-124632587D01*
X149191101Y-124567625D01*
X149193059Y-124500073D01*
X149192915Y-124449386D01*
X149190963Y-124406730D01*
X149185510Y-124381619D01*
X149174917Y-124367486D01*
X149157546Y-124357763D01*
X149148831Y-124354074D01*
X149126409Y-124350624D01*
X149103583Y-124362056D01*
X149071022Y-124392072D01*
X149053969Y-124407642D01*
X149017879Y-124432797D01*
X148989870Y-124442725D01*
X148987034Y-124442802D01*
X148972602Y-124446595D01*
X148958050Y-124458424D01*
X148941628Y-124481505D01*
X148921583Y-124519056D01*
X148896164Y-124574293D01*
X148863619Y-124650432D01*
X148822198Y-124750692D01*
X148749070Y-124938129D01*
X148625204Y-125306238D01*
X148523711Y-125681683D01*
X148446168Y-126058281D01*
X148394151Y-126429849D01*
X148387899Y-126498389D01*
X148380316Y-126619647D01*
X148375379Y-126753208D01*
X148373021Y-126893880D01*
X148373176Y-127036465D01*
X148375775Y-127175771D01*
X148380752Y-127306601D01*
X148388039Y-127423761D01*
X148397568Y-127522057D01*
X148409273Y-127596293D01*
X148412477Y-127608628D01*
X148420226Y-127620985D01*
X148436607Y-127629827D01*
X148466762Y-127636717D01*
X148515834Y-127643218D01*
X148588965Y-127650893D01*
X148638951Y-127656069D01*
X148739629Y-127666974D01*
X148844229Y-127678782D01*
X148936778Y-127689712D01*
X149096276Y-127706699D01*
X149314341Y-127723607D01*
X149539406Y-127734852D01*
X149759671Y-127739877D01*
X149963337Y-127738125D01*
X149995255Y-127737180D01*
X150098411Y-127733064D01*
X150193908Y-127727144D01*
X150289044Y-127718700D01*
X150391118Y-127707015D01*
X150507425Y-127691372D01*
X150645265Y-127671052D01*
X150721130Y-127659649D01*
X150841278Y-127641938D01*
X150960065Y-127624803D01*
X151070585Y-127609223D01*
X151165933Y-127596180D01*
X151239203Y-127586656D01*
X151260552Y-127584125D01*
X151366852Y-127574243D01*
X151485235Y-127566902D01*
X151609804Y-127562152D01*
X151734665Y-127560045D01*
X151853922Y-127560630D01*
X151961679Y-127563960D01*
X152052040Y-127570085D01*
X152119110Y-127579056D01*
X152162404Y-127588564D01*
X152257795Y-127614157D01*
X152370481Y-127648890D01*
X152494471Y-127690708D01*
X152623775Y-127737556D01*
X152752403Y-127787379D01*
X152874364Y-127838123D01*
X152880567Y-127840817D01*
X152951471Y-127872388D01*
X153033538Y-127910072D01*
X153122992Y-127952019D01*
X153216060Y-127996380D01*
X153308967Y-128041304D01*
X153397937Y-128084942D01*
X153479195Y-128125442D01*
X153548967Y-128160954D01*
X153603478Y-128189630D01*
X153638952Y-128209618D01*
X153651616Y-128219068D01*
X153650693Y-128219233D01*
X153629060Y-128219874D01*
X153579661Y-128220495D01*
X153503745Y-128221092D01*
X153402563Y-128221663D01*
X153277365Y-128222207D01*
X153129400Y-128222720D01*
X152959919Y-128223200D01*
X152770171Y-128223646D01*
X152561406Y-128224054D01*
X152334874Y-128224423D01*
X152091825Y-128224750D01*
X151833509Y-128225033D01*
X151561175Y-128225270D01*
X151276074Y-128225458D01*
X150979456Y-128225595D01*
X150672571Y-128225680D01*
X150356667Y-128225708D01*
X150032996Y-128225679D01*
X146414376Y-128225031D01*
X146473037Y-128194078D01*
X146516694Y-128172197D01*
X146584427Y-128139962D01*
X146668971Y-128100796D01*
X146765083Y-128057052D01*
X146867518Y-128011082D01*
X146971033Y-127965238D01*
X147070385Y-127921873D01*
X147160330Y-127883338D01*
X147235623Y-127851987D01*
X147379263Y-127797205D01*
X147598958Y-127728822D01*
X147830522Y-127675749D01*
X147956137Y-127651448D01*
X147973846Y-127355949D01*
X147988087Y-127151716D01*
X148029541Y-126740360D01*
X148086826Y-126346219D01*
X148159611Y-125970553D01*
X148247567Y-125614619D01*
X148350364Y-125279678D01*
X148467673Y-124966988D01*
X148599163Y-124677807D01*
X148744506Y-124413394D01*
X148811021Y-124303406D01*
X148772993Y-124293163D01*
X148749587Y-124284191D01*
X148708761Y-124257055D01*
X148677771Y-124223137D01*
X148665473Y-124190861D01*
X148663286Y-124176263D01*
X148652040Y-124164087D01*
X148644663Y-124167182D01*
X148620510Y-124189802D01*
X148586831Y-124230393D01*
X148547403Y-124284235D01*
X148506006Y-124346606D01*
X148494643Y-124364201D01*
X148472940Y-124393221D01*
X148462754Y-124396240D01*
X148463259Y-124372623D01*
X148473632Y-124321737D01*
X148476008Y-124310479D01*
X148479369Y-124279275D01*
X148475146Y-124266743D01*
X148467288Y-124269514D01*
X148440697Y-124290519D01*
X148403480Y-124327945D01*
X148359886Y-124376752D01*
X148314167Y-124431897D01*
X148270573Y-124488343D01*
X148233356Y-124541047D01*
X148206766Y-124584969D01*
X148189868Y-124619233D01*
X148151954Y-124712490D01*
X148121379Y-124810778D01*
X148100965Y-124904182D01*
X148093533Y-124982792D01*
X148093004Y-125003365D01*
X148089388Y-125032026D01*
X148083476Y-125038826D01*
X148076523Y-125025432D01*
X148067881Y-124985197D01*
X148061950Y-124927115D01*
X148059132Y-124858075D01*
X148059833Y-124784965D01*
X148064457Y-124714674D01*
X148067277Y-124685749D01*
X148071871Y-124632466D01*
X148074274Y-124594842D01*
X148074009Y-124579629D01*
X148072960Y-124579113D01*
X148061222Y-124590852D01*
X148041602Y-124624491D01*
X148016268Y-124675313D01*
X147987387Y-124738595D01*
X147957128Y-124809617D01*
X147927659Y-124883661D01*
X147901147Y-124956004D01*
X147890528Y-124986502D01*
X147866453Y-125054561D01*
X147849408Y-125099286D01*
X147837572Y-125123935D01*
X147829126Y-125131764D01*
X147822252Y-125126029D01*
X147815130Y-125109988D01*
X147796070Y-125055671D01*
X147763610Y-124906377D01*
X147757157Y-124753732D01*
X147776239Y-124602747D01*
X147820381Y-124458434D01*
X147889113Y-124325803D01*
X147892915Y-124319892D01*
X147918597Y-124278115D01*
X147934682Y-124248599D01*
X147937827Y-124237413D01*
X147929429Y-124239799D01*
X147898786Y-124258612D01*
X147853608Y-124293433D01*
X147797993Y-124340997D01*
X147736045Y-124398038D01*
X147726212Y-124407368D01*
X147682826Y-124447134D01*
X147656710Y-124467620D01*
X147645358Y-124470486D01*
X147646260Y-124457390D01*
X147647069Y-124454750D01*
X147688250Y-124364146D01*
X147753712Y-124272755D01*
X147839050Y-124185121D01*
X147939861Y-124105783D01*
X148051738Y-124039284D01*
X148188856Y-123970024D01*
X148115531Y-123979805D01*
X148094365Y-123982654D01*
X148037576Y-123990489D01*
X147990877Y-123997166D01*
X147979407Y-123998823D01*
X147959438Y-124000452D01*
X147958248Y-123995389D01*
X147977837Y-123980634D01*
X147997225Y-123968075D01*
X148198783Y-123968075D01*
X148210854Y-123973441D01*
X148218618Y-123972382D01*
X148220631Y-123963664D01*
X148218481Y-123961909D01*
X148201077Y-123963664D01*
X148198783Y-123968075D01*
X147997225Y-123968075D01*
X148020207Y-123953188D01*
X148036129Y-123943286D01*
X148171349Y-123878110D01*
X148319965Y-123837078D01*
X148477299Y-123821536D01*
X148517932Y-123820476D01*
X148564048Y-123817675D01*
X148590473Y-123813835D01*
X148592387Y-123809461D01*
X148567297Y-123802819D01*
X148514794Y-123793934D01*
X148448035Y-123785619D01*
X148375582Y-123778669D01*
X148305997Y-123773877D01*
X148247840Y-123772039D01*
X148209672Y-123773949D01*
X148197002Y-123775834D01*
X148165009Y-123778962D01*
X148152194Y-123777423D01*
X148163161Y-123770562D01*
X148194846Y-123756573D01*
X148239990Y-123738871D01*
X148281911Y-123721410D01*
X148311919Y-123705155D01*
X148320779Y-123694700D01*
X148318210Y-123691535D01*
X148289704Y-123676235D01*
X148238763Y-123661664D01*
X148171098Y-123648763D01*
X148092422Y-123638472D01*
X148008447Y-123631732D01*
X147924884Y-123629484D01*
X147923155Y-123629492D01*
X147780023Y-123636552D01*
X147652163Y-123658087D01*
X147528246Y-123696797D01*
X147396940Y-123755385D01*
X147279619Y-123814078D01*
X147323614Y-123767641D01*
X147362426Y-123730636D01*
X147430680Y-123677943D01*
X147519116Y-123621359D01*
X147631582Y-123558270D01*
X147763568Y-123487730D01*
X147639590Y-123496536D01*
X147619625Y-123498144D01*
X147509079Y-123512015D01*
X147385179Y-123534223D01*
X147259385Y-123562504D01*
X147143158Y-123594596D01*
X147096032Y-123607999D01*
X147056639Y-123616928D01*
X147036348Y-123618601D01*
X147034189Y-123616272D01*
X147040864Y-123597746D01*
X147063503Y-123565179D01*
X147098107Y-123523067D01*
X147140674Y-123475904D01*
X147187206Y-123428188D01*
X147233702Y-123384413D01*
X147276162Y-123349076D01*
X147396198Y-123270492D01*
X147546973Y-123202847D01*
X147709125Y-123161800D01*
X147884076Y-123146879D01*
X147922305Y-123146316D01*
X147969894Y-123144573D01*
X147993997Y-123141267D01*
X147998361Y-123135675D01*
X147986732Y-123127076D01*
X147977263Y-123122265D01*
X147934118Y-123104590D01*
X147873690Y-123083189D01*
X147804233Y-123060672D01*
X147734004Y-123039647D01*
X147671257Y-123022723D01*
X147624249Y-123012511D01*
X147601330Y-123008607D01*
X147576118Y-123002581D01*
X147575063Y-122996543D01*
X147594919Y-122987751D01*
X147595078Y-122987691D01*
X147637648Y-122978831D01*
X147700590Y-122974349D01*
X147775350Y-122974055D01*
X147853374Y-122977761D01*
X147926107Y-122985275D01*
X147984997Y-122996408D01*
X148092457Y-123029969D01*
X148200984Y-123077260D01*
X148310876Y-123140334D01*
X148430012Y-123223204D01*
X148433467Y-123225706D01*
X148443744Y-123229692D01*
X148434377Y-123213821D01*
X148406084Y-123179080D01*
X148359585Y-123126455D01*
X148354027Y-123120299D01*
X148309030Y-123069812D01*
X148273395Y-123028685D01*
X148250604Y-123001011D01*
X148244139Y-122990877D01*
X148257877Y-122993743D01*
X148295906Y-123009035D01*
X148347295Y-123034399D01*
X148405028Y-123066285D01*
X148462087Y-123101142D01*
X148533539Y-123151817D01*
X148662284Y-123269182D01*
X148773876Y-123407565D01*
X148865785Y-123563582D01*
X148935480Y-123733852D01*
X148938582Y-123742883D01*
X148956853Y-123783914D01*
X148975711Y-123811904D01*
X148991411Y-123823724D01*
X149000205Y-123816247D01*
X148998348Y-123786345D01*
X148989428Y-123750048D01*
X148959383Y-123664352D01*
X148917850Y-123573734D01*
X148869904Y-123489907D01*
X148848457Y-123456223D01*
X148830805Y-123424764D01*
X148831346Y-123414464D01*
X148851028Y-123423512D01*
X148890803Y-123450100D01*
X148932818Y-123479225D01*
X148922612Y-123444029D01*
X148887768Y-123351162D01*
X148821661Y-123231965D01*
X148736592Y-123119294D01*
X148638041Y-123020186D01*
X148531489Y-122941680D01*
X148510599Y-122928968D01*
X148474073Y-122905788D01*
X148459843Y-122893878D01*
X148465715Y-122890740D01*
X148489492Y-122893875D01*
X148505913Y-122897945D01*
X148551786Y-122914105D01*
X148610282Y-122938490D01*
X148672716Y-122967604D01*
X148711202Y-122986299D01*
X148760331Y-123009233D01*
X148794790Y-123024126D01*
X148808816Y-123028404D01*
X148809057Y-123027041D01*
X148798296Y-123010005D01*
X148771544Y-122978060D01*
X148732967Y-122935603D01*
X148686730Y-122887033D01*
X148637001Y-122836745D01*
X148587944Y-122789137D01*
X148543727Y-122748607D01*
X148443978Y-122660912D01*
X148511445Y-122656413D01*
X148548669Y-122656571D01*
X148631855Y-122669313D01*
X148723261Y-122696215D01*
X148813118Y-122734741D01*
X148844413Y-122752600D01*
X148912922Y-122801973D01*
X148981827Y-122862693D01*
X149042259Y-122926591D01*
X149085348Y-122985497D01*
X149099361Y-123008587D01*
X149119185Y-123038025D01*
X149129983Y-123049538D01*
X149132050Y-123047974D01*
X149131616Y-123026509D01*
X149122250Y-122983075D01*
X149104951Y-122921781D01*
X149080715Y-122846733D01*
X149076719Y-122834798D01*
X149061409Y-122785005D01*
X149052327Y-122748374D01*
X149051324Y-122732124D01*
X149057182Y-122732772D01*
X149075923Y-122751047D01*
X149102409Y-122785922D01*
X149132826Y-122831549D01*
X149163355Y-122882080D01*
X149190181Y-122931668D01*
X149209486Y-122974464D01*
X149217025Y-122996272D01*
X149237827Y-123089798D01*
X149250151Y-123210854D01*
X149259411Y-123364838D01*
X149287225Y-123247517D01*
X149292205Y-123227310D01*
X149307585Y-123176945D01*
X149320192Y-123155698D01*
X149329792Y-123163488D01*
X149336152Y-123200233D01*
X149339038Y-123265848D01*
X149340145Y-123295608D01*
X149343889Y-123329604D01*
X149349132Y-123342840D01*
X149354297Y-123340718D01*
X149377139Y-123324637D01*
X149409332Y-123297941D01*
X149409357Y-123297919D01*
X149442419Y-123272662D01*
X149465215Y-123261909D01*
X149473244Y-123266555D01*
X149462005Y-123287492D01*
X149452771Y-123301191D01*
X149431506Y-123335879D01*
X149406116Y-123379503D01*
X149364457Y-123452829D01*
X149469612Y-123354072D01*
X149517827Y-123310874D01*
X149609417Y-123242575D01*
X149702240Y-123193741D01*
X149804855Y-123159404D01*
X149842764Y-123149944D01*
X149899471Y-123138540D01*
X149928949Y-123137556D01*
X149931132Y-123146939D01*
X149905954Y-123166641D01*
X149853348Y-123196609D01*
X149841231Y-123203087D01*
X149783981Y-123235404D01*
X149733441Y-123266417D01*
X149699364Y-123290202D01*
X149655369Y-123325628D01*
X149735557Y-123304904D01*
X149745929Y-123302374D01*
X149833166Y-123289199D01*
X149932015Y-123285165D01*
X150029317Y-123290283D01*
X150111918Y-123304566D01*
X150174144Y-123325656D01*
X150259402Y-123364610D01*
X150341803Y-123411481D01*
X150408382Y-123459495D01*
X150457468Y-123501339D01*
X150232400Y-123502254D01*
X150196049Y-123502555D01*
X150115332Y-123504292D01*
X150043983Y-123507231D01*
X149988656Y-123511053D01*
X149956004Y-123515442D01*
X149937973Y-123519895D01*
X149923306Y-123525537D01*
X149927947Y-123531532D01*
X149954940Y-123540145D01*
X150007332Y-123553644D01*
X150042847Y-123563818D01*
X150097128Y-123582232D01*
X150154420Y-123604002D01*
X150208576Y-123626539D01*
X150253450Y-123647259D01*
X150282895Y-123663575D01*
X150290764Y-123672900D01*
X150281053Y-123672898D01*
X150249762Y-123667062D01*
X150205292Y-123656135D01*
X150166816Y-123647066D01*
X150028478Y-123631752D01*
X149883751Y-123639575D01*
X149740454Y-123669685D01*
X149606405Y-123721232D01*
X149587459Y-123730893D01*
X149554477Y-123752580D01*
X149549717Y-123767856D01*
X149573473Y-123777641D01*
X149626039Y-123782855D01*
X149636505Y-123784205D01*
X149635344Y-123790190D01*
X149607399Y-123801124D01*
X149551693Y-123817461D01*
X149509548Y-123830151D01*
X149443386Y-123853536D01*
X149378425Y-123879856D01*
X149321354Y-123906165D01*
X149278865Y-123929516D01*
X149257648Y-123946962D01*
X149255433Y-123953030D01*
X149266764Y-123959216D01*
X149298051Y-123954163D01*
X149344702Y-123938903D01*
X149402129Y-123914468D01*
X149439261Y-123898279D01*
X149582111Y-123854155D01*
X149734575Y-123831973D01*
X149888120Y-123832514D01*
X150034215Y-123856562D01*
X150036217Y-123857083D01*
X150075345Y-123869789D01*
X150087684Y-123880800D01*
X150072599Y-123890543D01*
X150029454Y-123899443D01*
X149957615Y-123907927D01*
X149846016Y-123918800D01*
X149998527Y-123944810D01*
X150086850Y-123963664D01*
X150090452Y-123964433D01*
G37*
%TO.C,JP1*%
X133500000Y-129700000D02*
X135500000Y-129700000D01*
X135500000Y-129700000D02*
X135500000Y-126900000D01*
X133500000Y-126900000D02*
X133500000Y-129700000D01*
X135500000Y-126900000D02*
X133500000Y-126900000D01*
%TO.C,JP4*%
X141500000Y-123500000D02*
X143500000Y-123500000D01*
X143500000Y-123500000D02*
X143500000Y-120700000D01*
X141500000Y-120700000D02*
X141500000Y-123500000D01*
X143500000Y-120700000D02*
X141500000Y-120700000D01*
%TO.C,JP2*%
X166500000Y-129900000D02*
X168500000Y-129900000D01*
X168500000Y-129900000D02*
X168500000Y-127100000D01*
X166500000Y-127100000D02*
X166500000Y-129900000D01*
X168500000Y-127100000D02*
X166500000Y-127100000D01*
%TO.C,JP3*%
X138600000Y-123500000D02*
X140600000Y-123500000D01*
X140600000Y-123500000D02*
X140600000Y-120700000D01*
X138600000Y-120700000D02*
X138600000Y-123500000D01*
X140600000Y-120700000D02*
X138600000Y-120700000D01*
%TD*%
%LPC*%
D12*
%TO.C,J9*%
X177350000Y-94500000D03*
D13*
X177350000Y-96500000D03*
X177350000Y-98500000D03*
X177350000Y-100500000D03*
%TD*%
D14*
%TO.C,REF\u002A\u002A*%
X174100000Y-131500000D03*
X174802944Y-129802944D03*
X174802944Y-133197056D03*
X176500000Y-129100000D03*
D15*
X176500000Y-131500000D03*
X176500000Y-131500000D03*
D14*
X176500000Y-133900000D03*
X178197056Y-129802944D03*
X178197056Y-133197056D03*
X178900000Y-131500000D03*
%TD*%
D16*
%TO.C,J6*%
X163500000Y-131500000D03*
D17*
X165500000Y-131500000D03*
X167500000Y-131500000D03*
X169500000Y-131500000D03*
%TD*%
D18*
%TO.C,J12*%
X152500000Y-90000000D03*
D19*
X147500000Y-90000000D03*
%TD*%
D14*
%TO.C,REF\u002A\u002A*%
X174100000Y-88500000D03*
X174802944Y-86802944D03*
X174802944Y-90197056D03*
X176500000Y-86100000D03*
D15*
X176500000Y-88500000D03*
X176500000Y-88500000D03*
D14*
X176500000Y-90900000D03*
X178197056Y-86802944D03*
X178197056Y-90197056D03*
X178900000Y-88500000D03*
%TD*%
D20*
%TO.C,J4*%
X128410000Y-100000000D03*
D21*
X130950000Y-100000000D03*
X133490000Y-100000000D03*
X136030000Y-100000000D03*
X138570000Y-100000000D03*
X141110000Y-100000000D03*
%TD*%
D20*
%TO.C,J5*%
X158890000Y-100000000D03*
D21*
X161430000Y-100000000D03*
X163970000Y-100000000D03*
X166510000Y-100000000D03*
X169050000Y-100000000D03*
X171590000Y-100000000D03*
%TD*%
D22*
%TO.C,J11*%
X164500000Y-90000000D03*
D23*
X168460000Y-90000000D03*
%TD*%
D24*
%TO.C,J14*%
X146500000Y-133633000D03*
D25*
X147500000Y-130933000D03*
X152500000Y-130933000D03*
D24*
X153500000Y-133633000D03*
%TD*%
D14*
%TO.C,REF\u002A\u002A*%
X121100000Y-131500000D03*
X121802944Y-129802944D03*
X121802944Y-133197056D03*
X123500000Y-129100000D03*
D15*
X123500000Y-131500000D03*
X123500000Y-131500000D03*
D14*
X123500000Y-133900000D03*
X125197056Y-129802944D03*
X125197056Y-133197056D03*
X125900000Y-131500000D03*
%TD*%
D26*
%TO.C,J3*%
X152500000Y-93000000D03*
D27*
X147500000Y-93000000D03*
%TD*%
D20*
%TO.C,J13*%
X157475000Y-133400000D03*
%TD*%
D26*
%TO.C,J2*%
X169000000Y-93000000D03*
D27*
X164000000Y-93000000D03*
%TD*%
D22*
%TO.C,J10*%
X131750000Y-90000000D03*
D23*
X135710000Y-90000000D03*
%TD*%
D14*
%TO.C,REF\u002A\u002A*%
X121100000Y-88500000D03*
X121802944Y-86802944D03*
X121802944Y-90197056D03*
X123500000Y-86100000D03*
D15*
X123500000Y-88500000D03*
X123500000Y-88500000D03*
D14*
X123500000Y-90900000D03*
X125197056Y-86802944D03*
X125197056Y-90197056D03*
X125900000Y-88500000D03*
%TD*%
D26*
%TO.C,J1*%
X136000000Y-93000008D03*
D27*
X131000000Y-93000008D03*
%TD*%
D28*
%TO.C,C1*%
X153800000Y-106652651D03*
D29*
X153800000Y-103152651D03*
%TD*%
D16*
%TO.C,J7*%
X130500000Y-131500000D03*
D17*
X132500000Y-131500000D03*
X134500000Y-131500000D03*
X136500000Y-131500000D03*
%TD*%
D30*
%TO.C,J8*%
X122450000Y-101000000D03*
D13*
X122450000Y-99000000D03*
X122450000Y-97000000D03*
X122450000Y-95000000D03*
%TD*%
D31*
%TO.C,JP1*%
X134500000Y-129025000D03*
D32*
X134500000Y-127575000D03*
%TD*%
D31*
%TO.C,JP4*%
X142500000Y-122825000D03*
D32*
X142500000Y-121375000D03*
%TD*%
D31*
%TO.C,JP2*%
X167500000Y-129225000D03*
D32*
X167500000Y-127775000D03*
%TD*%
D31*
%TO.C,JP3*%
X139600000Y-122825000D03*
D32*
X139600000Y-121375000D03*
%TD*%
%LPD*%
M02*
