%TF.GenerationSoftware,KiCad,Pcbnew,(6.0.1)*%
%TF.CreationDate,2022-02-12T08:58:57-05:00*%
%TF.ProjectId,motor-driver,6d6f746f-722d-4647-9269-7665722e6b69,rev?*%
%TF.SameCoordinates,Original*%
%TF.FileFunction,Legend,Top*%
%TF.FilePolarity,Positive*%
%FSLAX46Y46*%
G04 Gerber Fmt 4.6, Leading zero omitted, Abs format (unit mm)*
G04 Created by KiCad (PCBNEW (6.0.1)) date 2022-02-12 08:58:57*
%MOMM*%
%LPD*%
G01*
G04 APERTURE LIST*
G04 Aperture macros list*
%AMRoundRect*
0 Rectangle with rounded corners*
0 $1 Rounding radius*
0 $2 $3 $4 $5 $6 $7 $8 $9 X,Y pos of 4 corners*
0 Add a 4 corners polygon primitive as box body*
4,1,4,$2,$3,$4,$5,$6,$7,$8,$9,$2,$3,0*
0 Add four circle primitives for the rounded corners*
1,1,$1+$1,$2,$3*
1,1,$1+$1,$4,$5*
1,1,$1+$1,$6,$7*
1,1,$1+$1,$8,$9*
0 Add four rect primitives between the rounded corners*
20,1,$1+$1,$2,$3,$4,$5,0*
20,1,$1+$1,$4,$5,$6,$7,0*
20,1,$1+$1,$6,$7,$8,$9,0*
20,1,$1+$1,$8,$9,$2,$3,0*%
G04 Aperture macros list end*
%ADD10C,0.150000*%
%ADD11C,0.120000*%
%ADD12C,0.300000*%
%ADD13C,0.250000*%
%ADD14RoundRect,0.140000X-0.170000X0.140000X-0.170000X-0.140000X0.170000X-0.140000X0.170000X0.140000X0*%
%ADD15RoundRect,0.140000X-0.140000X-0.170000X0.140000X-0.170000X0.140000X0.170000X-0.140000X0.170000X0*%
%ADD16RoundRect,0.150000X-0.150000X-0.625000X0.150000X-0.625000X0.150000X0.625000X-0.150000X0.625000X0*%
%ADD17RoundRect,0.250000X-0.350000X-0.650000X0.350000X-0.650000X0.350000X0.650000X-0.350000X0.650000X0*%
%ADD18RoundRect,0.250000X-0.625000X0.350000X-0.625000X-0.350000X0.625000X-0.350000X0.625000X0.350000X0*%
%ADD19O,1.750000X1.200000*%
%ADD20RoundRect,0.135000X0.135000X0.185000X-0.135000X0.185000X-0.135000X-0.185000X0.135000X-0.185000X0*%
%ADD21C,0.800000*%
%ADD22C,6.400000*%
%ADD23RoundRect,0.250000X0.250000X0.475000X-0.250000X0.475000X-0.250000X-0.475000X0.250000X-0.475000X0*%
%ADD24RoundRect,0.135000X0.185000X-0.135000X0.185000X0.135000X-0.185000X0.135000X-0.185000X-0.135000X0*%
%ADD25RoundRect,0.150000X0.650000X0.150000X-0.650000X0.150000X-0.650000X-0.150000X0.650000X-0.150000X0*%
%ADD26R,1.200000X1.400000*%
%ADD27R,1.050000X0.650000*%
%ADD28RoundRect,0.140000X0.140000X0.170000X-0.140000X0.170000X-0.140000X-0.170000X0.140000X-0.170000X0*%
%ADD29RoundRect,0.135000X-0.135000X-0.185000X0.135000X-0.185000X0.135000X0.185000X-0.135000X0.185000X0*%
%ADD30R,3.000000X3.000000*%
%ADD31C,3.000000*%
%ADD32RoundRect,0.140000X0.170000X-0.140000X0.170000X0.140000X-0.170000X0.140000X-0.170000X-0.140000X0*%
%ADD33RoundRect,0.150000X0.150000X-0.587500X0.150000X0.587500X-0.150000X0.587500X-0.150000X-0.587500X0*%
%ADD34R,1.700000X1.700000*%
%ADD35O,1.700000X1.700000*%
%ADD36RoundRect,0.135000X-0.185000X0.135000X-0.185000X-0.135000X0.185000X-0.135000X0.185000X0.135000X0*%
%ADD37RoundRect,0.218750X0.256250X-0.218750X0.256250X0.218750X-0.256250X0.218750X-0.256250X-0.218750X0*%
%ADD38RoundRect,0.250001X-1.099999X-1.099999X1.099999X-1.099999X1.099999X1.099999X-1.099999X1.099999X0*%
%ADD39C,2.700000*%
%ADD40R,0.850000X1.600000*%
%ADD41R,0.400000X1.350000*%
%ADD42R,1.200000X1.550000*%
%ADD43O,1.250000X0.950000*%
%ADD44O,0.890000X1.550000*%
%ADD45R,1.500000X1.550000*%
%ADD46R,2.600000X2.600000*%
%ADD47C,2.600000*%
%ADD48R,2.000000X0.650000*%
%ADD49R,4.500000X8.100000*%
%ADD50RoundRect,0.150000X0.150000X-0.512500X0.150000X0.512500X-0.150000X0.512500X-0.150000X-0.512500X0*%
%ADD51R,1.100000X1.100000*%
%ADD52R,1.200000X3.700000*%
%ADD53RoundRect,0.250000X-0.325000X-0.650000X0.325000X-0.650000X0.325000X0.650000X-0.325000X0.650000X0*%
%ADD54R,0.900000X1.200000*%
%ADD55RoundRect,0.150000X0.150000X-0.825000X0.150000X0.825000X-0.150000X0.825000X-0.150000X-0.825000X0*%
%ADD56R,1.200000X0.900000*%
%ADD57R,1.600000X1.600000*%
%ADD58C,1.600000*%
%ADD59RoundRect,0.250000X0.625000X-0.350000X0.625000X0.350000X-0.625000X0.350000X-0.625000X-0.350000X0*%
%ADD60RoundRect,0.050000X0.387500X0.050000X-0.387500X0.050000X-0.387500X-0.050000X0.387500X-0.050000X0*%
%ADD61RoundRect,0.050000X0.050000X0.387500X-0.050000X0.387500X-0.050000X-0.387500X0.050000X-0.387500X0*%
%ADD62RoundRect,0.144000X1.456000X1.456000X-1.456000X1.456000X-1.456000X-1.456000X1.456000X-1.456000X0*%
G04 APERTURE END LIST*
D10*
X164000000Y-113000000D02*
X178000000Y-113000000D01*
X178000000Y-113000000D02*
X178000000Y-127000000D01*
X178000000Y-127000000D02*
X164000000Y-127000000D01*
X164000000Y-127000000D02*
X164000000Y-113000000D01*
X122000000Y-113000000D02*
X136000000Y-113000000D01*
X136000000Y-113000000D02*
X136000000Y-127000000D01*
X136000000Y-127000000D02*
X122000000Y-127000000D01*
X122000000Y-127000000D02*
X122000000Y-113000000D01*
X159000000Y-96750000D02*
X159000000Y-92574000D01*
X172606000Y-96750000D02*
X172606000Y-92074000D01*
X172606000Y-92074000D02*
X171848000Y-91316000D01*
X140000000Y-91312000D02*
X139000000Y-91312000D01*
X127750000Y-92070000D02*
X128250000Y-91570000D01*
X141000000Y-92320000D02*
X140000000Y-91320000D01*
X141000000Y-96750000D02*
X141000000Y-92320000D01*
X160000000Y-91566000D02*
X161000000Y-91566000D01*
X159000000Y-92574000D02*
X160000000Y-91574000D01*
X127750000Y-96900000D02*
X127750000Y-92070000D01*
D11*
X138627142Y-102037142D02*
X138589047Y-102151428D01*
X138550952Y-102189523D01*
X138474761Y-102227619D01*
X138360476Y-102227619D01*
X138284285Y-102189523D01*
X138246190Y-102151428D01*
X138208095Y-102075238D01*
X138208095Y-101770476D01*
X139008095Y-101770476D01*
X139008095Y-102037142D01*
X138970000Y-102113333D01*
X138931904Y-102151428D01*
X138855714Y-102189523D01*
X138779523Y-102189523D01*
X138703333Y-102151428D01*
X138665238Y-102113333D01*
X138627142Y-102037142D01*
X138627142Y-101770476D01*
X141871904Y-97173095D02*
X141871904Y-97973095D01*
X141605238Y-97401666D01*
X141338571Y-97973095D01*
X141338571Y-97173095D01*
X140957619Y-97477857D02*
X140348095Y-97477857D01*
X140652857Y-97173095D02*
X140652857Y-97782619D01*
D10*
X161485380Y-107877619D02*
X161818714Y-108353809D01*
X162056809Y-107877619D02*
X162056809Y-108877619D01*
X161675857Y-108877619D01*
X161580619Y-108830000D01*
X161533000Y-108782380D01*
X161485380Y-108687142D01*
X161485380Y-108544285D01*
X161533000Y-108449047D01*
X161580619Y-108401428D01*
X161675857Y-108353809D01*
X162056809Y-108353809D01*
X161056809Y-108401428D02*
X160723476Y-108401428D01*
X160580619Y-107877619D02*
X161056809Y-107877619D01*
X161056809Y-108877619D01*
X160580619Y-108877619D01*
X160199666Y-107925238D02*
X160056809Y-107877619D01*
X159818714Y-107877619D01*
X159723476Y-107925238D01*
X159675857Y-107972857D01*
X159628238Y-108068095D01*
X159628238Y-108163333D01*
X159675857Y-108258571D01*
X159723476Y-108306190D01*
X159818714Y-108353809D01*
X160009190Y-108401428D01*
X160104428Y-108449047D01*
X160152047Y-108496666D01*
X160199666Y-108591904D01*
X160199666Y-108687142D01*
X160152047Y-108782380D01*
X160104428Y-108830000D01*
X160009190Y-108877619D01*
X159771095Y-108877619D01*
X159628238Y-108830000D01*
X159199666Y-108401428D02*
X158866333Y-108401428D01*
X158723476Y-107877619D02*
X159199666Y-107877619D01*
X159199666Y-108877619D01*
X158723476Y-108877619D01*
X158437761Y-108877619D02*
X157866333Y-108877619D01*
X158152047Y-107877619D02*
X158152047Y-108877619D01*
D11*
X169107142Y-102037142D02*
X169069047Y-102151428D01*
X169030952Y-102189523D01*
X168954761Y-102227619D01*
X168840476Y-102227619D01*
X168764285Y-102189523D01*
X168726190Y-102151428D01*
X168688095Y-102075238D01*
X168688095Y-101770476D01*
X169488095Y-101770476D01*
X169488095Y-102037142D01*
X169450000Y-102113333D01*
X169411904Y-102151428D01*
X169335714Y-102189523D01*
X169259523Y-102189523D01*
X169183333Y-102151428D01*
X169145238Y-102113333D01*
X169107142Y-102037142D01*
X169107142Y-101770476D01*
D12*
X127535714Y-129678571D02*
X127535714Y-128178571D01*
X128178571Y-128321428D02*
X128250000Y-128250000D01*
X128392857Y-128178571D01*
X128750000Y-128178571D01*
X128892857Y-128250000D01*
X128964285Y-128321428D01*
X129035714Y-128464285D01*
X129035714Y-128607142D01*
X128964285Y-128821428D01*
X128107142Y-129678571D01*
X129035714Y-129678571D01*
X130535714Y-129535714D02*
X130464285Y-129607142D01*
X130250000Y-129678571D01*
X130107142Y-129678571D01*
X129892857Y-129607142D01*
X129750000Y-129464285D01*
X129678571Y-129321428D01*
X129607142Y-129035714D01*
X129607142Y-128821428D01*
X129678571Y-128535714D01*
X129750000Y-128392857D01*
X129892857Y-128250000D01*
X130107142Y-128178571D01*
X130250000Y-128178571D01*
X130464285Y-128250000D01*
X130535714Y-128321428D01*
D13*
X137303523Y-96311904D02*
X137303523Y-97611904D01*
X136870190Y-96683333D01*
X136436857Y-97611904D01*
X136436857Y-96311904D01*
X135570190Y-97611904D02*
X135322571Y-97611904D01*
X135198761Y-97550000D01*
X135074952Y-97426190D01*
X135013047Y-97178571D01*
X135013047Y-96745238D01*
X135074952Y-96497619D01*
X135198761Y-96373809D01*
X135322571Y-96311904D01*
X135570190Y-96311904D01*
X135694000Y-96373809D01*
X135817809Y-96497619D01*
X135879714Y-96745238D01*
X135879714Y-97178571D01*
X135817809Y-97426190D01*
X135694000Y-97550000D01*
X135570190Y-97611904D01*
X134641619Y-97611904D02*
X133898761Y-97611904D01*
X134270190Y-96311904D02*
X134270190Y-97611904D01*
X133217809Y-97611904D02*
X132970190Y-97611904D01*
X132846380Y-97550000D01*
X132722571Y-97426190D01*
X132660666Y-97178571D01*
X132660666Y-96745238D01*
X132722571Y-96497619D01*
X132846380Y-96373809D01*
X132970190Y-96311904D01*
X133217809Y-96311904D01*
X133341619Y-96373809D01*
X133465428Y-96497619D01*
X133527333Y-96745238D01*
X133527333Y-97178571D01*
X133465428Y-97426190D01*
X133341619Y-97550000D01*
X133217809Y-97611904D01*
X131360666Y-96311904D02*
X131794000Y-96930952D01*
X132103523Y-96311904D02*
X132103523Y-97611904D01*
X131608285Y-97611904D01*
X131484476Y-97550000D01*
X131422571Y-97488095D01*
X131360666Y-97364285D01*
X131360666Y-97178571D01*
X131422571Y-97054761D01*
X131484476Y-96992857D01*
X131608285Y-96930952D01*
X132103523Y-96930952D01*
X130122571Y-96311904D02*
X130865428Y-96311904D01*
X130494000Y-96311904D02*
X130494000Y-97611904D01*
X130617809Y-97426190D01*
X130741619Y-97302380D01*
X130865428Y-97240476D01*
D10*
X158134619Y-131132857D02*
X158248904Y-131170952D01*
X158287000Y-131209047D01*
X158325095Y-131285238D01*
X158325095Y-131399523D01*
X158287000Y-131475714D01*
X158248904Y-131513809D01*
X158172714Y-131551904D01*
X157867952Y-131551904D01*
X157867952Y-130751904D01*
X158134619Y-130751904D01*
X158210809Y-130790000D01*
X158248904Y-130828095D01*
X158287000Y-130904285D01*
X158287000Y-130980476D01*
X158248904Y-131056666D01*
X158210809Y-131094761D01*
X158134619Y-131132857D01*
X157867952Y-131132857D01*
X158820333Y-130751904D02*
X158972714Y-130751904D01*
X159048904Y-130790000D01*
X159125095Y-130866190D01*
X159163190Y-131018571D01*
X159163190Y-131285238D01*
X159125095Y-131437619D01*
X159048904Y-131513809D01*
X158972714Y-131551904D01*
X158820333Y-131551904D01*
X158744142Y-131513809D01*
X158667952Y-131437619D01*
X158629857Y-131285238D01*
X158629857Y-131018571D01*
X158667952Y-130866190D01*
X158744142Y-130790000D01*
X158820333Y-130751904D01*
X159658428Y-130751904D02*
X159810809Y-130751904D01*
X159887000Y-130790000D01*
X159963190Y-130866190D01*
X160001285Y-131018571D01*
X160001285Y-131285238D01*
X159963190Y-131437619D01*
X159887000Y-131513809D01*
X159810809Y-131551904D01*
X159658428Y-131551904D01*
X159582238Y-131513809D01*
X159506047Y-131437619D01*
X159467952Y-131285238D01*
X159467952Y-131018571D01*
X159506047Y-130866190D01*
X159582238Y-130790000D01*
X159658428Y-130751904D01*
X160229857Y-130751904D02*
X160687000Y-130751904D01*
X160458428Y-131551904D02*
X160458428Y-130751904D01*
X160915571Y-131513809D02*
X161029857Y-131551904D01*
X161220333Y-131551904D01*
X161296523Y-131513809D01*
X161334619Y-131475714D01*
X161372714Y-131399523D01*
X161372714Y-131323333D01*
X161334619Y-131247142D01*
X161296523Y-131209047D01*
X161220333Y-131170952D01*
X161067952Y-131132857D01*
X160991761Y-131094761D01*
X160953666Y-131056666D01*
X160915571Y-130980476D01*
X160915571Y-130904285D01*
X160953666Y-130828095D01*
X160991761Y-130790000D01*
X161067952Y-130751904D01*
X161258428Y-130751904D01*
X161372714Y-130790000D01*
X161715571Y-131132857D02*
X161982238Y-131132857D01*
X162096523Y-131551904D02*
X161715571Y-131551904D01*
X161715571Y-130751904D01*
X162096523Y-130751904D01*
X162820333Y-131551904D02*
X162439380Y-131551904D01*
X162439380Y-130751904D01*
D11*
X133890000Y-102005476D02*
X133928095Y-101929285D01*
X133928095Y-101815000D01*
X133890000Y-101700714D01*
X133813809Y-101624523D01*
X133737619Y-101586428D01*
X133585238Y-101548333D01*
X133470952Y-101548333D01*
X133318571Y-101586428D01*
X133242380Y-101624523D01*
X133166190Y-101700714D01*
X133128095Y-101815000D01*
X133128095Y-101891190D01*
X133166190Y-102005476D01*
X133204285Y-102043571D01*
X133470952Y-102043571D01*
X133470952Y-101891190D01*
X133128095Y-102386428D02*
X133928095Y-102386428D01*
X133128095Y-102843571D01*
X133928095Y-102843571D01*
X133128095Y-103224523D02*
X133928095Y-103224523D01*
X133928095Y-103415000D01*
X133890000Y-103529285D01*
X133813809Y-103605476D01*
X133737619Y-103643571D01*
X133585238Y-103681666D01*
X133470952Y-103681666D01*
X133318571Y-103643571D01*
X133242380Y-103605476D01*
X133166190Y-103529285D01*
X133128095Y-103415000D01*
X133128095Y-103224523D01*
X166938095Y-101569047D02*
X166938095Y-102064285D01*
X166633333Y-101797619D01*
X166633333Y-101911904D01*
X166595238Y-101988095D01*
X166557142Y-102026190D01*
X166480952Y-102064285D01*
X166290476Y-102064285D01*
X166214285Y-102026190D01*
X166176190Y-101988095D01*
X166138095Y-101911904D01*
X166138095Y-101683333D01*
X166176190Y-101607142D01*
X166214285Y-101569047D01*
X166214285Y-102407142D02*
X166176190Y-102445238D01*
X166138095Y-102407142D01*
X166176190Y-102369047D01*
X166214285Y-102407142D01*
X166138095Y-102407142D01*
X166938095Y-102711904D02*
X166938095Y-103207142D01*
X166633333Y-102940476D01*
X166633333Y-103054761D01*
X166595238Y-103130952D01*
X166557142Y-103169047D01*
X166480952Y-103207142D01*
X166290476Y-103207142D01*
X166214285Y-103169047D01*
X166176190Y-103130952D01*
X166138095Y-103054761D01*
X166138095Y-102826190D01*
X166176190Y-102750000D01*
X166214285Y-102711904D01*
X166938095Y-103435714D02*
X166138095Y-103702380D01*
X166938095Y-103969047D01*
X173240904Y-97173095D02*
X173240904Y-97973095D01*
X172974238Y-97401666D01*
X172707571Y-97973095D01*
X172707571Y-97173095D01*
X172326619Y-97477857D02*
X171717095Y-97477857D01*
X172021857Y-97173095D02*
X172021857Y-97782619D01*
D12*
X169535714Y-129678571D02*
X169535714Y-128178571D01*
X170178571Y-128321428D02*
X170250000Y-128250000D01*
X170392857Y-128178571D01*
X170750000Y-128178571D01*
X170892857Y-128250000D01*
X170964285Y-128321428D01*
X171035714Y-128464285D01*
X171035714Y-128607142D01*
X170964285Y-128821428D01*
X170107142Y-129678571D01*
X171035714Y-129678571D01*
X172535714Y-129535714D02*
X172464285Y-129607142D01*
X172250000Y-129678571D01*
X172107142Y-129678571D01*
X171892857Y-129607142D01*
X171750000Y-129464285D01*
X171678571Y-129321428D01*
X171607142Y-129035714D01*
X171607142Y-128821428D01*
X171678571Y-128535714D01*
X171750000Y-128392857D01*
X171892857Y-128250000D01*
X172107142Y-128178571D01*
X172250000Y-128178571D01*
X172464285Y-128250000D01*
X172535714Y-128321428D01*
D11*
X128028904Y-97173095D02*
X128028904Y-97973095D01*
X127762238Y-97401666D01*
X127495571Y-97973095D01*
X127495571Y-97173095D01*
X127114619Y-97477857D02*
X126505095Y-97477857D01*
X159651904Y-97173095D02*
X159651904Y-97973095D01*
X159385238Y-97401666D01*
X159118571Y-97973095D01*
X159118571Y-97173095D01*
X158737619Y-97477857D02*
X158128095Y-97477857D01*
D12*
X166653428Y-119231071D02*
X166653428Y-117731071D01*
X166653428Y-118445357D02*
X167510571Y-118445357D01*
X167510571Y-119231071D02*
X167510571Y-117731071D01*
X168796285Y-119159642D02*
X168653428Y-119231071D01*
X168367714Y-119231071D01*
X168224857Y-119159642D01*
X168153428Y-119016785D01*
X168153428Y-118445357D01*
X168224857Y-118302500D01*
X168367714Y-118231071D01*
X168653428Y-118231071D01*
X168796285Y-118302500D01*
X168867714Y-118445357D01*
X168867714Y-118588214D01*
X168153428Y-118731071D01*
X170153428Y-119231071D02*
X170153428Y-118445357D01*
X170082000Y-118302500D01*
X169939142Y-118231071D01*
X169653428Y-118231071D01*
X169510571Y-118302500D01*
X170153428Y-119159642D02*
X170010571Y-119231071D01*
X169653428Y-119231071D01*
X169510571Y-119159642D01*
X169439142Y-119016785D01*
X169439142Y-118873928D01*
X169510571Y-118731071D01*
X169653428Y-118659642D01*
X170010571Y-118659642D01*
X170153428Y-118588214D01*
X170653428Y-118231071D02*
X171224857Y-118231071D01*
X170867714Y-117731071D02*
X170867714Y-119016785D01*
X170939142Y-119159642D01*
X171082000Y-119231071D01*
X171224857Y-119231071D01*
X171653428Y-119159642D02*
X171796285Y-119231071D01*
X172082000Y-119231071D01*
X172224857Y-119159642D01*
X172296285Y-119016785D01*
X172296285Y-118945357D01*
X172224857Y-118802500D01*
X172082000Y-118731071D01*
X171867714Y-118731071D01*
X171724857Y-118659642D01*
X171653428Y-118516785D01*
X171653428Y-118445357D01*
X171724857Y-118302500D01*
X171867714Y-118231071D01*
X172082000Y-118231071D01*
X172224857Y-118302500D01*
X172939142Y-119231071D02*
X172939142Y-118231071D01*
X172939142Y-117731071D02*
X172867714Y-117802500D01*
X172939142Y-117873928D01*
X173010571Y-117802500D01*
X172939142Y-117731071D01*
X172939142Y-117873928D01*
X173653428Y-118231071D02*
X173653428Y-119231071D01*
X173653428Y-118373928D02*
X173724857Y-118302500D01*
X173867714Y-118231071D01*
X174082000Y-118231071D01*
X174224857Y-118302500D01*
X174296285Y-118445357D01*
X174296285Y-119231071D01*
X175010571Y-119231071D02*
X175010571Y-117731071D01*
X175153428Y-118659642D02*
X175582000Y-119231071D01*
X175582000Y-118231071D02*
X175010571Y-118802500D01*
X169617714Y-121646071D02*
X169617714Y-120860357D01*
X169546285Y-120717500D01*
X169403428Y-120646071D01*
X169117714Y-120646071D01*
X168974857Y-120717500D01*
X169617714Y-121574642D02*
X169474857Y-121646071D01*
X169117714Y-121646071D01*
X168974857Y-121574642D01*
X168903428Y-121431785D01*
X168903428Y-121288928D01*
X168974857Y-121146071D01*
X169117714Y-121074642D01*
X169474857Y-121074642D01*
X169617714Y-121003214D01*
X170332000Y-121646071D02*
X170332000Y-120646071D01*
X170332000Y-120931785D02*
X170403428Y-120788928D01*
X170474857Y-120717500D01*
X170617714Y-120646071D01*
X170760571Y-120646071D01*
X171832000Y-121574642D02*
X171689142Y-121646071D01*
X171403428Y-121646071D01*
X171260571Y-121574642D01*
X171189142Y-121431785D01*
X171189142Y-120860357D01*
X171260571Y-120717500D01*
X171403428Y-120646071D01*
X171689142Y-120646071D01*
X171832000Y-120717500D01*
X171903428Y-120860357D01*
X171903428Y-121003214D01*
X171189142Y-121146071D01*
X173189142Y-121646071D02*
X173189142Y-120860357D01*
X173117714Y-120717500D01*
X172974857Y-120646071D01*
X172689142Y-120646071D01*
X172546285Y-120717500D01*
X173189142Y-121574642D02*
X173046285Y-121646071D01*
X172689142Y-121646071D01*
X172546285Y-121574642D01*
X172474857Y-121431785D01*
X172474857Y-121288928D01*
X172546285Y-121146071D01*
X172689142Y-121074642D01*
X173046285Y-121074642D01*
X173189142Y-121003214D01*
X124235428Y-118977071D02*
X124235428Y-117477071D01*
X124235428Y-118191357D02*
X125092571Y-118191357D01*
X125092571Y-118977071D02*
X125092571Y-117477071D01*
X126378285Y-118905642D02*
X126235428Y-118977071D01*
X125949714Y-118977071D01*
X125806857Y-118905642D01*
X125735428Y-118762785D01*
X125735428Y-118191357D01*
X125806857Y-118048500D01*
X125949714Y-117977071D01*
X126235428Y-117977071D01*
X126378285Y-118048500D01*
X126449714Y-118191357D01*
X126449714Y-118334214D01*
X125735428Y-118477071D01*
X127735428Y-118977071D02*
X127735428Y-118191357D01*
X127664000Y-118048500D01*
X127521142Y-117977071D01*
X127235428Y-117977071D01*
X127092571Y-118048500D01*
X127735428Y-118905642D02*
X127592571Y-118977071D01*
X127235428Y-118977071D01*
X127092571Y-118905642D01*
X127021142Y-118762785D01*
X127021142Y-118619928D01*
X127092571Y-118477071D01*
X127235428Y-118405642D01*
X127592571Y-118405642D01*
X127735428Y-118334214D01*
X128235428Y-117977071D02*
X128806857Y-117977071D01*
X128449714Y-117477071D02*
X128449714Y-118762785D01*
X128521142Y-118905642D01*
X128664000Y-118977071D01*
X128806857Y-118977071D01*
X129235428Y-118905642D02*
X129378285Y-118977071D01*
X129664000Y-118977071D01*
X129806857Y-118905642D01*
X129878285Y-118762785D01*
X129878285Y-118691357D01*
X129806857Y-118548500D01*
X129664000Y-118477071D01*
X129449714Y-118477071D01*
X129306857Y-118405642D01*
X129235428Y-118262785D01*
X129235428Y-118191357D01*
X129306857Y-118048500D01*
X129449714Y-117977071D01*
X129664000Y-117977071D01*
X129806857Y-118048500D01*
X130521142Y-118977071D02*
X130521142Y-117977071D01*
X130521142Y-117477071D02*
X130449714Y-117548500D01*
X130521142Y-117619928D01*
X130592571Y-117548500D01*
X130521142Y-117477071D01*
X130521142Y-117619928D01*
X131235428Y-117977071D02*
X131235428Y-118977071D01*
X131235428Y-118119928D02*
X131306857Y-118048500D01*
X131449714Y-117977071D01*
X131664000Y-117977071D01*
X131806857Y-118048500D01*
X131878285Y-118191357D01*
X131878285Y-118977071D01*
X132592571Y-118977071D02*
X132592571Y-117477071D01*
X132735428Y-118405642D02*
X133164000Y-118977071D01*
X133164000Y-117977071D02*
X132592571Y-118548500D01*
X127199714Y-121392071D02*
X127199714Y-120606357D01*
X127128285Y-120463500D01*
X126985428Y-120392071D01*
X126699714Y-120392071D01*
X126556857Y-120463500D01*
X127199714Y-121320642D02*
X127056857Y-121392071D01*
X126699714Y-121392071D01*
X126556857Y-121320642D01*
X126485428Y-121177785D01*
X126485428Y-121034928D01*
X126556857Y-120892071D01*
X126699714Y-120820642D01*
X127056857Y-120820642D01*
X127199714Y-120749214D01*
X127914000Y-121392071D02*
X127914000Y-120392071D01*
X127914000Y-120677785D02*
X127985428Y-120534928D01*
X128056857Y-120463500D01*
X128199714Y-120392071D01*
X128342571Y-120392071D01*
X129414000Y-121320642D02*
X129271142Y-121392071D01*
X128985428Y-121392071D01*
X128842571Y-121320642D01*
X128771142Y-121177785D01*
X128771142Y-120606357D01*
X128842571Y-120463500D01*
X128985428Y-120392071D01*
X129271142Y-120392071D01*
X129414000Y-120463500D01*
X129485428Y-120606357D01*
X129485428Y-120749214D01*
X128771142Y-120892071D01*
X130771142Y-121392071D02*
X130771142Y-120606357D01*
X130699714Y-120463500D01*
X130556857Y-120392071D01*
X130271142Y-120392071D01*
X130128285Y-120463500D01*
X130771142Y-121320642D02*
X130628285Y-121392071D01*
X130271142Y-121392071D01*
X130128285Y-121320642D01*
X130056857Y-121177785D01*
X130056857Y-121034928D01*
X130128285Y-120892071D01*
X130271142Y-120820642D01*
X130628285Y-120820642D01*
X130771142Y-120749214D01*
D11*
X130816666Y-101789523D02*
X130816666Y-102170476D01*
X130588095Y-101713333D02*
X131388095Y-101980000D01*
X130588095Y-102246666D01*
D13*
X137303523Y-85911904D02*
X137303523Y-87211904D01*
X136870190Y-86283333D01*
X136436857Y-87211904D01*
X136436857Y-85911904D01*
X135570190Y-87211904D02*
X135322571Y-87211904D01*
X135198761Y-87150000D01*
X135074952Y-87026190D01*
X135013047Y-86778571D01*
X135013047Y-86345238D01*
X135074952Y-86097619D01*
X135198761Y-85973809D01*
X135322571Y-85911904D01*
X135570190Y-85911904D01*
X135694000Y-85973809D01*
X135817809Y-86097619D01*
X135879714Y-86345238D01*
X135879714Y-86778571D01*
X135817809Y-87026190D01*
X135694000Y-87150000D01*
X135570190Y-87211904D01*
X134641619Y-87211904D02*
X133898761Y-87211904D01*
X134270190Y-85911904D02*
X134270190Y-87211904D01*
X133217809Y-87211904D02*
X132970190Y-87211904D01*
X132846380Y-87150000D01*
X132722571Y-87026190D01*
X132660666Y-86778571D01*
X132660666Y-86345238D01*
X132722571Y-86097619D01*
X132846380Y-85973809D01*
X132970190Y-85911904D01*
X133217809Y-85911904D01*
X133341619Y-85973809D01*
X133465428Y-86097619D01*
X133527333Y-86345238D01*
X133527333Y-86778571D01*
X133465428Y-87026190D01*
X133341619Y-87150000D01*
X133217809Y-87211904D01*
X131360666Y-85911904D02*
X131794000Y-86530952D01*
X132103523Y-85911904D02*
X132103523Y-87211904D01*
X131608285Y-87211904D01*
X131484476Y-87150000D01*
X131422571Y-87088095D01*
X131360666Y-86964285D01*
X131360666Y-86778571D01*
X131422571Y-86654761D01*
X131484476Y-86592857D01*
X131608285Y-86530952D01*
X132103523Y-86530952D01*
X130122571Y-85911904D02*
X130865428Y-85911904D01*
X130494000Y-85911904D02*
X130494000Y-87211904D01*
X130617809Y-87026190D01*
X130741619Y-86902380D01*
X130865428Y-86840476D01*
D12*
X157111857Y-86982000D02*
X157254714Y-87053428D01*
X157469000Y-87053428D01*
X157683285Y-86982000D01*
X157826142Y-86839142D01*
X157897571Y-86696285D01*
X157969000Y-86410571D01*
X157969000Y-86196285D01*
X157897571Y-85910571D01*
X157826142Y-85767714D01*
X157683285Y-85624857D01*
X157469000Y-85553428D01*
X157326142Y-85553428D01*
X157111857Y-85624857D01*
X157040428Y-85696285D01*
X157040428Y-86196285D01*
X157326142Y-86196285D01*
X156397571Y-85553428D02*
X156397571Y-87053428D01*
X155540428Y-85553428D01*
X155540428Y-87053428D01*
X154826142Y-85553428D02*
X154826142Y-87053428D01*
X154469000Y-87053428D01*
X154254714Y-86982000D01*
X154111857Y-86839142D01*
X154040428Y-86696285D01*
X153969000Y-86410571D01*
X153969000Y-86196285D01*
X154040428Y-85910571D01*
X154111857Y-85767714D01*
X154254714Y-85624857D01*
X154469000Y-85553428D01*
X154826142Y-85553428D01*
D11*
X122609523Y-92650000D02*
X122685714Y-92688095D01*
X122800000Y-92688095D01*
X122914285Y-92650000D01*
X122990476Y-92573809D01*
X123028571Y-92497619D01*
X123066666Y-92345238D01*
X123066666Y-92230952D01*
X123028571Y-92078571D01*
X122990476Y-92002380D01*
X122914285Y-91926190D01*
X122800000Y-91888095D01*
X122723809Y-91888095D01*
X122609523Y-91926190D01*
X122571428Y-91964285D01*
X122571428Y-92230952D01*
X122723809Y-92230952D01*
X122228571Y-91888095D02*
X122228571Y-92688095D01*
X121771428Y-91888095D01*
X121771428Y-92688095D01*
X121390476Y-91888095D02*
X121390476Y-92688095D01*
X121200000Y-92688095D01*
X121085714Y-92650000D01*
X121009523Y-92573809D01*
X120971428Y-92497619D01*
X120933333Y-92345238D01*
X120933333Y-92230952D01*
X120971428Y-92078571D01*
X121009523Y-92002380D01*
X121085714Y-91926190D01*
X121200000Y-91888095D01*
X121390476Y-91888095D01*
X164370000Y-102005476D02*
X164408095Y-101929285D01*
X164408095Y-101815000D01*
X164370000Y-101700714D01*
X164293809Y-101624523D01*
X164217619Y-101586428D01*
X164065238Y-101548333D01*
X163950952Y-101548333D01*
X163798571Y-101586428D01*
X163722380Y-101624523D01*
X163646190Y-101700714D01*
X163608095Y-101815000D01*
X163608095Y-101891190D01*
X163646190Y-102005476D01*
X163684285Y-102043571D01*
X163950952Y-102043571D01*
X163950952Y-101891190D01*
X163608095Y-102386428D02*
X164408095Y-102386428D01*
X163608095Y-102843571D01*
X164408095Y-102843571D01*
X163608095Y-103224523D02*
X164408095Y-103224523D01*
X164408095Y-103415000D01*
X164370000Y-103529285D01*
X164293809Y-103605476D01*
X164217619Y-103643571D01*
X164065238Y-103681666D01*
X163950952Y-103681666D01*
X163798571Y-103643571D01*
X163722380Y-103605476D01*
X163646190Y-103529285D01*
X163608095Y-103415000D01*
X163608095Y-103224523D01*
X136468095Y-101569047D02*
X136468095Y-102064285D01*
X136163333Y-101797619D01*
X136163333Y-101911904D01*
X136125238Y-101988095D01*
X136087142Y-102026190D01*
X136010952Y-102064285D01*
X135820476Y-102064285D01*
X135744285Y-102026190D01*
X135706190Y-101988095D01*
X135668095Y-101911904D01*
X135668095Y-101683333D01*
X135706190Y-101607142D01*
X135744285Y-101569047D01*
X135744285Y-102407142D02*
X135706190Y-102445238D01*
X135668095Y-102407142D01*
X135706190Y-102369047D01*
X135744285Y-102407142D01*
X135668095Y-102407142D01*
X136468095Y-102711904D02*
X136468095Y-103207142D01*
X136163333Y-102940476D01*
X136163333Y-103054761D01*
X136125238Y-103130952D01*
X136087142Y-103169047D01*
X136010952Y-103207142D01*
X135820476Y-103207142D01*
X135744285Y-103169047D01*
X135706190Y-103130952D01*
X135668095Y-103054761D01*
X135668095Y-102826190D01*
X135706190Y-102750000D01*
X135744285Y-102711904D01*
X136468095Y-103435714D02*
X135668095Y-103702380D01*
X136468095Y-103969047D01*
X178109523Y-103900000D02*
X178185714Y-103938095D01*
X178300000Y-103938095D01*
X178414285Y-103900000D01*
X178490476Y-103823809D01*
X178528571Y-103747619D01*
X178566666Y-103595238D01*
X178566666Y-103480952D01*
X178528571Y-103328571D01*
X178490476Y-103252380D01*
X178414285Y-103176190D01*
X178300000Y-103138095D01*
X178223809Y-103138095D01*
X178109523Y-103176190D01*
X178071428Y-103214285D01*
X178071428Y-103480952D01*
X178223809Y-103480952D01*
X177728571Y-103138095D02*
X177728571Y-103938095D01*
X177271428Y-103138095D01*
X177271428Y-103938095D01*
X176890476Y-103138095D02*
X176890476Y-103938095D01*
X176700000Y-103938095D01*
X176585714Y-103900000D01*
X176509523Y-103823809D01*
X176471428Y-103747619D01*
X176433333Y-103595238D01*
X176433333Y-103480952D01*
X176471428Y-103328571D01*
X176509523Y-103252380D01*
X176585714Y-103176190D01*
X176700000Y-103138095D01*
X176890476Y-103138095D01*
D10*
X137498380Y-125665333D02*
X136498380Y-125665333D01*
X136498380Y-125284380D01*
X136546000Y-125189142D01*
X136593619Y-125141523D01*
X136688857Y-125093904D01*
X136831714Y-125093904D01*
X136926952Y-125141523D01*
X136974571Y-125189142D01*
X137022190Y-125284380D01*
X137022190Y-125665333D01*
X136498380Y-124760571D02*
X137498380Y-124522476D01*
X136784095Y-124332000D01*
X137498380Y-124141523D01*
X136498380Y-123903428D01*
X137498380Y-122951047D02*
X137022190Y-123284380D01*
X137498380Y-123522476D02*
X136498380Y-123522476D01*
X136498380Y-123141523D01*
X136546000Y-123046285D01*
X136593619Y-122998666D01*
X136688857Y-122951047D01*
X136831714Y-122951047D01*
X136926952Y-122998666D01*
X136974571Y-123046285D01*
X137022190Y-123141523D01*
X137022190Y-123522476D01*
D11*
X161296666Y-101789523D02*
X161296666Y-102170476D01*
X161068095Y-101713333D02*
X161868095Y-101980000D01*
X161068095Y-102246666D01*
D12*
X145269000Y-86926428D02*
X144769000Y-85426428D01*
X144269000Y-86926428D01*
X142911857Y-85569285D02*
X142983285Y-85497857D01*
X143197571Y-85426428D01*
X143340428Y-85426428D01*
X143554714Y-85497857D01*
X143697571Y-85640714D01*
X143769000Y-85783571D01*
X143840428Y-86069285D01*
X143840428Y-86283571D01*
X143769000Y-86569285D01*
X143697571Y-86712142D01*
X143554714Y-86855000D01*
X143340428Y-86926428D01*
X143197571Y-86926428D01*
X142983285Y-86855000D01*
X142911857Y-86783571D01*
X141411857Y-85569285D02*
X141483285Y-85497857D01*
X141697571Y-85426428D01*
X141840428Y-85426428D01*
X142054714Y-85497857D01*
X142197571Y-85640714D01*
X142269000Y-85783571D01*
X142340428Y-86069285D01*
X142340428Y-86283571D01*
X142269000Y-86569285D01*
X142197571Y-86712142D01*
X142054714Y-86855000D01*
X141840428Y-86926428D01*
X141697571Y-86926428D01*
X141483285Y-86855000D01*
X141411857Y-86783571D01*
D13*
X169942523Y-96057904D02*
X169942523Y-97357904D01*
X169509190Y-96429333D01*
X169075857Y-97357904D01*
X169075857Y-96057904D01*
X168209190Y-97357904D02*
X167961571Y-97357904D01*
X167837761Y-97296000D01*
X167713952Y-97172190D01*
X167652047Y-96924571D01*
X167652047Y-96491238D01*
X167713952Y-96243619D01*
X167837761Y-96119809D01*
X167961571Y-96057904D01*
X168209190Y-96057904D01*
X168333000Y-96119809D01*
X168456809Y-96243619D01*
X168518714Y-96491238D01*
X168518714Y-96924571D01*
X168456809Y-97172190D01*
X168333000Y-97296000D01*
X168209190Y-97357904D01*
X167280619Y-97357904D02*
X166537761Y-97357904D01*
X166909190Y-96057904D02*
X166909190Y-97357904D01*
X165856809Y-97357904D02*
X165609190Y-97357904D01*
X165485380Y-97296000D01*
X165361571Y-97172190D01*
X165299666Y-96924571D01*
X165299666Y-96491238D01*
X165361571Y-96243619D01*
X165485380Y-96119809D01*
X165609190Y-96057904D01*
X165856809Y-96057904D01*
X165980619Y-96119809D01*
X166104428Y-96243619D01*
X166166333Y-96491238D01*
X166166333Y-96924571D01*
X166104428Y-97172190D01*
X165980619Y-97296000D01*
X165856809Y-97357904D01*
X163999666Y-96057904D02*
X164433000Y-96676952D01*
X164742523Y-96057904D02*
X164742523Y-97357904D01*
X164247285Y-97357904D01*
X164123476Y-97296000D01*
X164061571Y-97234095D01*
X163999666Y-97110285D01*
X163999666Y-96924571D01*
X164061571Y-96800761D01*
X164123476Y-96738857D01*
X164247285Y-96676952D01*
X164742523Y-96676952D01*
X163504428Y-97234095D02*
X163442523Y-97296000D01*
X163318714Y-97357904D01*
X163009190Y-97357904D01*
X162885380Y-97296000D01*
X162823476Y-97234095D01*
X162761571Y-97110285D01*
X162761571Y-96986476D01*
X162823476Y-96800761D01*
X163566333Y-96057904D01*
X162761571Y-96057904D01*
X169942523Y-85911904D02*
X169942523Y-87211904D01*
X169509190Y-86283333D01*
X169075857Y-87211904D01*
X169075857Y-85911904D01*
X168209190Y-87211904D02*
X167961571Y-87211904D01*
X167837761Y-87150000D01*
X167713952Y-87026190D01*
X167652047Y-86778571D01*
X167652047Y-86345238D01*
X167713952Y-86097619D01*
X167837761Y-85973809D01*
X167961571Y-85911904D01*
X168209190Y-85911904D01*
X168333000Y-85973809D01*
X168456809Y-86097619D01*
X168518714Y-86345238D01*
X168518714Y-86778571D01*
X168456809Y-87026190D01*
X168333000Y-87150000D01*
X168209190Y-87211904D01*
X167280619Y-87211904D02*
X166537761Y-87211904D01*
X166909190Y-85911904D02*
X166909190Y-87211904D01*
X165856809Y-87211904D02*
X165609190Y-87211904D01*
X165485380Y-87150000D01*
X165361571Y-87026190D01*
X165299666Y-86778571D01*
X165299666Y-86345238D01*
X165361571Y-86097619D01*
X165485380Y-85973809D01*
X165609190Y-85911904D01*
X165856809Y-85911904D01*
X165980619Y-85973809D01*
X166104428Y-86097619D01*
X166166333Y-86345238D01*
X166166333Y-86778571D01*
X166104428Y-87026190D01*
X165980619Y-87150000D01*
X165856809Y-87211904D01*
X163999666Y-85911904D02*
X164433000Y-86530952D01*
X164742523Y-85911904D02*
X164742523Y-87211904D01*
X164247285Y-87211904D01*
X164123476Y-87150000D01*
X164061571Y-87088095D01*
X163999666Y-86964285D01*
X163999666Y-86778571D01*
X164061571Y-86654761D01*
X164123476Y-86592857D01*
X164247285Y-86530952D01*
X164742523Y-86530952D01*
X163504428Y-87088095D02*
X163442523Y-87150000D01*
X163318714Y-87211904D01*
X163009190Y-87211904D01*
X162885380Y-87150000D01*
X162823476Y-87088095D01*
X162761571Y-86964285D01*
X162761571Y-86840476D01*
X162823476Y-86654761D01*
X163566333Y-85911904D01*
X162761571Y-85911904D01*
%TO.C,J12*%
X155928571Y-90107142D02*
X157071428Y-90107142D01*
X142928571Y-90107142D02*
X144071428Y-90107142D01*
X143500000Y-90678571D02*
X143500000Y-89535714D01*
D11*
%TO.C,C9*%
X150402000Y-125367164D02*
X150402000Y-125582836D01*
X151122000Y-125367164D02*
X151122000Y-125582836D01*
%TO.C,C16*%
X154845164Y-121305000D02*
X155060836Y-121305000D01*
X154845164Y-122025000D02*
X155060836Y-122025000D01*
%TO.C,J7*%
X136110000Y-130215000D02*
X135060000Y-130215000D01*
X129890000Y-130215000D02*
X130940000Y-130215000D01*
X130940000Y-130215000D02*
X130940000Y-129225000D01*
X131060000Y-134685000D02*
X134940000Y-134685000D01*
X136110000Y-132715000D02*
X136110000Y-130215000D01*
X129890000Y-132715000D02*
X129890000Y-130215000D01*
%TO.C,J9*%
X179160000Y-95000000D02*
X178550000Y-95000000D01*
X179460000Y-92140000D02*
X178210000Y-92140000D01*
X179360000Y-93900000D02*
X179160000Y-93900000D01*
X177850000Y-102560000D02*
X177850000Y-101950000D01*
X179160000Y-92440000D02*
X174440000Y-92440000D01*
X174440000Y-102560000D02*
X179160000Y-102560000D01*
X178550000Y-101950000D02*
X178550000Y-100000000D01*
X179260000Y-94200000D02*
X179260000Y-93900000D01*
X175050000Y-101950000D02*
X178550000Y-101950000D01*
X175550000Y-97400000D02*
X175550000Y-97600000D01*
X175050000Y-97400000D02*
X175550000Y-97400000D01*
X175050000Y-95500000D02*
X175550000Y-95500000D01*
X179460000Y-93390000D02*
X179460000Y-92140000D01*
X179360000Y-94200000D02*
X179360000Y-93900000D01*
X178550000Y-93050000D02*
X175050000Y-93050000D01*
X176550000Y-102560000D02*
X176550000Y-101950000D01*
X175050000Y-95400000D02*
X175550000Y-95400000D01*
X179160000Y-94200000D02*
X179360000Y-94200000D01*
X175050000Y-93050000D02*
X175050000Y-101950000D01*
X174440000Y-92440000D02*
X174440000Y-102560000D01*
X178550000Y-95000000D02*
X178550000Y-93050000D01*
X175050000Y-99400000D02*
X175550000Y-99400000D01*
X175550000Y-97600000D02*
X175050000Y-97600000D01*
X175550000Y-95400000D02*
X175550000Y-95600000D01*
X175050000Y-99500000D02*
X175550000Y-99500000D01*
X175550000Y-95600000D02*
X175050000Y-95600000D01*
X175550000Y-99600000D02*
X175050000Y-99600000D01*
X175550000Y-99400000D02*
X175550000Y-99600000D01*
X177850000Y-92440000D02*
X177850000Y-93050000D01*
X176550000Y-92440000D02*
X176550000Y-93050000D01*
X179160000Y-102560000D02*
X179160000Y-92440000D01*
X178550000Y-100000000D02*
X179160000Y-100000000D01*
X175050000Y-97500000D02*
X175550000Y-97500000D01*
%TO.C,C15*%
X154845164Y-117114000D02*
X155060836Y-117114000D01*
X154845164Y-117834000D02*
X155060836Y-117834000D01*
%TO.C,R9*%
X138342641Y-129538000D02*
X138035359Y-129538000D01*
X138342641Y-128778000D02*
X138035359Y-128778000D01*
%TO.C,C3*%
X141752252Y-123216000D02*
X141229748Y-123216000D01*
X141752252Y-124686000D02*
X141229748Y-124686000D01*
%TO.C,C19*%
X144264000Y-114826164D02*
X144264000Y-115041836D01*
X143544000Y-114826164D02*
X143544000Y-115041836D01*
%TO.C,R8*%
X148350000Y-111277641D02*
X148350000Y-110970359D01*
X149110000Y-111277641D02*
X149110000Y-110970359D01*
%TO.C,U6*%
X161107000Y-128835000D02*
X161107000Y-128575000D01*
X155657000Y-123385000D02*
X155657000Y-123645000D01*
X158382000Y-123385000D02*
X155657000Y-123385000D01*
X161107000Y-128575000D02*
X162782000Y-128575000D01*
X158382000Y-123385000D02*
X161107000Y-123385000D01*
X158382000Y-128835000D02*
X155657000Y-128835000D01*
X155657000Y-128835000D02*
X155657000Y-128575000D01*
X158382000Y-128835000D02*
X161107000Y-128835000D01*
X161107000Y-123385000D02*
X161107000Y-123645000D01*
%TO.C,Y1*%
X152033000Y-109509000D02*
X152033000Y-113509000D01*
X155333000Y-109509000D02*
X152033000Y-109509000D01*
%TO.C,SW1*%
X157706000Y-110300000D02*
X157706000Y-111440000D01*
X157706000Y-112450000D02*
X157706000Y-112570000D01*
X162106000Y-112570000D02*
X162106000Y-112450000D01*
X157706000Y-109170000D02*
X157706000Y-109290000D01*
X157706000Y-112570000D02*
X162106000Y-112570000D01*
X162106000Y-111440000D02*
X162106000Y-110300000D01*
X162106000Y-109290000D02*
X162106000Y-109170000D01*
X162106000Y-109170000D02*
X157706000Y-109170000D01*
%TO.C,C13*%
X144392836Y-121771000D02*
X144177164Y-121771000D01*
X144392836Y-121051000D02*
X144177164Y-121051000D01*
%TO.C,R2*%
X160006359Y-129286000D02*
X160313641Y-129286000D01*
X160006359Y-130046000D02*
X160313641Y-130046000D01*
%TO.C,J12*%
X155210000Y-88590000D02*
X153510000Y-87290000D01*
X153510000Y-87290000D02*
X144790000Y-87290000D01*
X144790000Y-92710000D02*
X144790000Y-87290000D01*
X153510000Y-92710000D02*
X144790000Y-92710000D01*
X155210000Y-91410000D02*
X153510000Y-92710000D01*
X155210000Y-91410000D02*
X155210000Y-88590000D01*
%TO.C,C20*%
X151503000Y-110088836D02*
X151503000Y-109873164D01*
X150783000Y-110088836D02*
X150783000Y-109873164D01*
%TO.C,U4*%
X139931000Y-127634000D02*
X139931000Y-126984000D01*
X143051000Y-127634000D02*
X143051000Y-128284000D01*
X139931000Y-127634000D02*
X139931000Y-129309000D01*
X143051000Y-127634000D02*
X143051000Y-126984000D01*
%TO.C,J4*%
X127080000Y-101330000D02*
X127080000Y-100000000D01*
X129680000Y-98670000D02*
X142440000Y-98670000D01*
X128410000Y-101330000D02*
X127080000Y-101330000D01*
X142440000Y-101330000D02*
X142440000Y-98670000D01*
X129680000Y-101330000D02*
X142440000Y-101330000D01*
X129680000Y-101330000D02*
X129680000Y-98670000D01*
%TO.C,C21*%
X156622000Y-111446836D02*
X156622000Y-111231164D01*
X155902000Y-111446836D02*
X155902000Y-111231164D01*
%TO.C,C17*%
X149386000Y-125367164D02*
X149386000Y-125582836D01*
X150106000Y-125367164D02*
X150106000Y-125582836D01*
%TO.C,R12*%
X163715000Y-106398359D02*
X163715000Y-106705641D01*
X162955000Y-106398359D02*
X162955000Y-106705641D01*
%TO.C,D1*%
X137962000Y-123278000D02*
X137962000Y-125563000D01*
X137962000Y-125563000D02*
X139432000Y-125563000D01*
X139432000Y-125563000D02*
X139432000Y-123278000D01*
%TO.C,C18*%
X152647841Y-128400409D02*
X152432169Y-128400409D01*
X152647841Y-127680409D02*
X152432169Y-127680409D01*
%TO.C,C5*%
X146338000Y-124224164D02*
X146338000Y-124439836D01*
X147058000Y-124224164D02*
X147058000Y-124439836D01*
%TO.C,C10*%
X148497000Y-113263836D02*
X148497000Y-113048164D01*
X149217000Y-113263836D02*
X149217000Y-113048164D01*
%TO.C,J5*%
X158890000Y-101330000D02*
X157560000Y-101330000D01*
X160160000Y-101330000D02*
X160160000Y-98670000D01*
X160160000Y-101330000D02*
X172920000Y-101330000D01*
X160160000Y-98670000D02*
X172920000Y-98670000D01*
X157560000Y-101330000D02*
X157560000Y-100000000D01*
X172920000Y-101330000D02*
X172920000Y-98670000D01*
%TO.C,D3*%
X137128000Y-116302000D02*
X137128000Y-122202000D01*
X141028000Y-116302000D02*
X141028000Y-122202000D01*
X137128000Y-122202000D02*
X138203000Y-122202000D01*
%TO.C,C14*%
X144306000Y-124224164D02*
X144306000Y-124439836D01*
X145026000Y-124224164D02*
X145026000Y-124439836D01*
%TO.C,J14*%
X148240000Y-130443000D02*
X148240000Y-129993000D01*
X153760000Y-130673000D02*
X153340000Y-130673000D01*
X146240000Y-130673000D02*
X146660000Y-130673000D01*
X146240000Y-135023000D02*
X146240000Y-134623000D01*
X148690000Y-129993000D02*
X148240000Y-129993000D01*
X153760000Y-132653000D02*
X153760000Y-130673000D01*
X153760000Y-134623000D02*
X153760000Y-135023000D01*
X146240000Y-132653000D02*
X146240000Y-130673000D01*
%TO.C,D4*%
X159226000Y-121821000D02*
X160301000Y-121821000D01*
X159226000Y-115921000D02*
X159226000Y-121821000D01*
X163126000Y-115921000D02*
X163126000Y-121821000D01*
%TO.C,C11*%
X149513000Y-113263836D02*
X149513000Y-113048164D01*
X150233000Y-113263836D02*
X150233000Y-113048164D01*
%TO.C,R6*%
X148094000Y-124485641D02*
X148094000Y-124178359D01*
X147334000Y-124485641D02*
X147334000Y-124178359D01*
%TO.C,R3*%
X157466359Y-130046000D02*
X157773641Y-130046000D01*
X157466359Y-129286000D02*
X157773641Y-129286000D01*
D10*
%TO.C,U2*%
X166100000Y-104650000D02*
X167650000Y-104650000D01*
X166100000Y-111350000D02*
X167650000Y-111350000D01*
X166100000Y-111000000D02*
X166100000Y-111350000D01*
X173900000Y-104650000D02*
X172350000Y-104650000D01*
X175800000Y-111350000D02*
X172400000Y-111350000D01*
X166100000Y-105000000D02*
X166100000Y-104650000D01*
X173900000Y-105000000D02*
X173900000Y-104650000D01*
D11*
%TO.C,R10*%
X138342641Y-127381000D02*
X138035359Y-127381000D01*
X138342641Y-128141000D02*
X138035359Y-128141000D01*
%TO.C,U3*%
X144376000Y-111886000D02*
X144376000Y-113686000D01*
X144376000Y-111886000D02*
X144376000Y-111086000D01*
X147496000Y-111886000D02*
X147496000Y-111086000D01*
X147496000Y-111886000D02*
X147496000Y-112686000D01*
%TO.C,J13*%
X158957000Y-134365000D02*
X158957000Y-134425000D01*
X161617000Y-134365000D02*
X161617000Y-134425000D01*
X158957000Y-134365000D02*
X161617000Y-134365000D01*
X158957000Y-133095000D02*
X158957000Y-131765000D01*
X158957000Y-134425000D02*
X161617000Y-134425000D01*
X158957000Y-131765000D02*
X160287000Y-131765000D01*
%TO.C,C12*%
X144011836Y-117368000D02*
X143796164Y-117368000D01*
X144011836Y-118088000D02*
X143796164Y-118088000D01*
%TO.C,R1*%
X138033359Y-126744000D02*
X138340641Y-126744000D01*
X138033359Y-125984000D02*
X138340641Y-125984000D01*
%TO.C,D6*%
X154232000Y-100440000D02*
X150382000Y-100440000D01*
X154232000Y-100440000D02*
X154232000Y-98440000D01*
X154232000Y-98440000D02*
X150382000Y-98440000D01*
%TO.C,R5*%
X149110000Y-124485641D02*
X149110000Y-124178359D01*
X148350000Y-124485641D02*
X148350000Y-124178359D01*
%TO.C,R7*%
X158482359Y-113030000D02*
X158789641Y-113030000D01*
X158482359Y-113790000D02*
X158789641Y-113790000D01*
%TO.C,C23*%
X162465164Y-115675000D02*
X162680836Y-115675000D01*
X162465164Y-114955000D02*
X162680836Y-114955000D01*
%TO.C,L1*%
X143110000Y-111818000D02*
X139110000Y-111818000D01*
X143110000Y-116018000D02*
X139110000Y-116018000D01*
%TO.C,C4*%
X145986748Y-109494000D02*
X147409252Y-109494000D01*
X145986748Y-107674000D02*
X147409252Y-107674000D01*
%TO.C,C7*%
X137914000Y-110734164D02*
X137914000Y-110949836D01*
X137194000Y-110734164D02*
X137194000Y-110949836D01*
%TO.C,D5*%
X158164000Y-105552000D02*
X162064000Y-105552000D01*
X158164000Y-105552000D02*
X158164000Y-107552000D01*
X158164000Y-107552000D02*
X162064000Y-107552000D01*
%TO.C,C8*%
X178808000Y-110442164D02*
X178808000Y-110657836D01*
X178088000Y-110442164D02*
X178088000Y-110657836D01*
%TO.C,Q1*%
X143884000Y-101980000D02*
X143884000Y-105430000D01*
X149004000Y-101980000D02*
X149004000Y-103930000D01*
X143884000Y-101980000D02*
X143884000Y-100030000D01*
X149004000Y-101980000D02*
X149004000Y-100030000D01*
%TO.C,D2*%
X141888000Y-111342000D02*
X141888000Y-107442000D01*
X143888000Y-111342000D02*
X143888000Y-107442000D01*
X141888000Y-111342000D02*
X143888000Y-111342000D01*
%TO.C,C6*%
X145322000Y-124224164D02*
X145322000Y-124439836D01*
X146042000Y-124224164D02*
X146042000Y-124439836D01*
%TO.C,C22*%
X140167252Y-109627000D02*
X139644748Y-109627000D01*
X140167252Y-111097000D02*
X139644748Y-111097000D01*
%TO.C,R11*%
X149366000Y-110970359D02*
X149366000Y-111277641D01*
X150126000Y-110970359D02*
X150126000Y-111277641D01*
%TO.C,C1*%
X154596000Y-102729651D02*
X157000000Y-102729651D01*
X151269000Y-101529651D02*
X155843000Y-101529651D01*
X150905000Y-101809651D02*
X156207000Y-101809651D01*
X149721000Y-103529651D02*
X152516000Y-103529651D01*
X150611000Y-102089651D02*
X156501000Y-102089651D01*
X154596000Y-103329651D02*
X157313000Y-103329651D01*
X151000000Y-101729651D02*
X156112000Y-101729651D01*
X154596000Y-103209651D02*
X157260000Y-103209651D01*
X154596000Y-102609651D02*
X156921000Y-102609651D01*
X154596000Y-103289651D02*
X157296000Y-103289651D01*
X150466000Y-102249651D02*
X152516000Y-102249651D01*
X149479000Y-104770651D02*
X157633000Y-104770651D01*
X149480000Y-104730651D02*
X157632000Y-104730651D01*
X151390000Y-101449651D02*
X155722000Y-101449651D01*
X150306000Y-102449651D02*
X152516000Y-102449651D01*
X149491000Y-104570651D02*
X157621000Y-104570651D01*
X154596000Y-103729651D02*
X157458000Y-103729651D01*
X154596000Y-103649651D02*
X157433000Y-103649651D01*
X154596000Y-102209651D02*
X156611000Y-102209651D01*
X154596000Y-103969651D02*
X157523000Y-103969651D01*
X154596000Y-104089651D02*
X157550000Y-104089651D01*
X151592000Y-101329651D02*
X155520000Y-101329651D01*
X154596000Y-103009651D02*
X157162000Y-103009651D01*
X150039000Y-102849651D02*
X152516000Y-102849651D01*
X151328000Y-101489651D02*
X155784000Y-101489651D01*
X149504000Y-104450651D02*
X157608000Y-104450651D01*
X149532000Y-104250651D02*
X157580000Y-104250651D01*
X152210000Y-101049651D02*
X154902000Y-101049651D01*
X149499000Y-104490651D02*
X157613000Y-104490651D01*
X154596000Y-103169651D02*
X157242000Y-103169651D01*
X149589000Y-103969651D02*
X152516000Y-103969651D01*
X149679000Y-103649651D02*
X152516000Y-103649651D01*
X151241000Y-109340349D02*
X151241000Y-108540349D01*
X149476000Y-104890651D02*
X157636000Y-104890651D01*
X154596000Y-102449651D02*
X156806000Y-102449651D01*
X154596000Y-103089651D02*
X157203000Y-103089651D01*
X149909000Y-103089651D02*
X152516000Y-103089651D01*
X149852000Y-103209651D02*
X152516000Y-103209651D01*
X154596000Y-102409651D02*
X156776000Y-102409651D01*
X150087000Y-102769651D02*
X152516000Y-102769651D01*
X154596000Y-102649651D02*
X156948000Y-102649651D01*
X149476000Y-104930651D02*
X157636000Y-104930651D01*
X149514000Y-104370651D02*
X157598000Y-104370651D01*
X154596000Y-104169651D02*
X157566000Y-104169651D01*
X154596000Y-103929651D02*
X157513000Y-103929651D01*
X149519000Y-104330651D02*
X157593000Y-104330651D01*
X150841000Y-108940349D02*
X151641000Y-108940349D01*
X149642000Y-103769651D02*
X152516000Y-103769651D01*
X152788000Y-100889651D02*
X154324000Y-100889651D01*
X149735000Y-103489651D02*
X152516000Y-103489651D01*
X154596000Y-102569651D02*
X156894000Y-102569651D01*
X154596000Y-103449651D02*
X157361000Y-103449651D01*
X149890000Y-103129651D02*
X152516000Y-103129651D01*
X152103000Y-101089651D02*
X155009000Y-101089651D01*
X149571000Y-104049651D02*
X152516000Y-104049651D01*
X149526000Y-104290651D02*
X157586000Y-104290651D01*
X154596000Y-102169651D02*
X156575000Y-102169651D01*
X149706000Y-103569651D02*
X152516000Y-103569651D01*
X150138000Y-102689651D02*
X152516000Y-102689651D01*
X151051000Y-101689651D02*
X156061000Y-101689651D01*
X150432000Y-102289651D02*
X152516000Y-102289651D01*
X149654000Y-103729651D02*
X152516000Y-103729651D01*
X149950000Y-103009651D02*
X152516000Y-103009651D01*
X154596000Y-103769651D02*
X157470000Y-103769651D01*
X150730000Y-101969651D02*
X156382000Y-101969651D01*
X154596000Y-102849651D02*
X157073000Y-102849651D01*
X149766000Y-103409651D02*
X152516000Y-103409651D01*
X151156000Y-101609651D02*
X155956000Y-101609651D01*
X154596000Y-103249651D02*
X157278000Y-103249651D01*
X149495000Y-104530651D02*
X157617000Y-104530651D01*
X154596000Y-103889651D02*
X157503000Y-103889651D01*
X151825000Y-101209651D02*
X155287000Y-101209651D01*
X154596000Y-102809651D02*
X157049000Y-102809651D01*
X151911000Y-101169651D02*
X155201000Y-101169651D01*
X151743000Y-101249651D02*
X155369000Y-101249651D01*
X152458000Y-100969651D02*
X154654000Y-100969651D01*
X150689000Y-102009651D02*
X156423000Y-102009651D01*
X154596000Y-102489651D02*
X156836000Y-102489651D01*
X154596000Y-103609651D02*
X157419000Y-103609651D01*
X154596000Y-102529651D02*
X156865000Y-102529651D01*
X149693000Y-103609651D02*
X152516000Y-103609651D01*
X149488000Y-104610651D02*
X157624000Y-104610651D01*
X150859000Y-101849651D02*
X156253000Y-101849651D01*
X154596000Y-103809651D02*
X157481000Y-103809651D01*
X149546000Y-104169651D02*
X152516000Y-104169651D01*
X150815000Y-101889651D02*
X156297000Y-101889651D01*
X149816000Y-103289651D02*
X152516000Y-103289651D01*
X149870000Y-103169651D02*
X152516000Y-103169651D01*
X149751000Y-103449651D02*
X152516000Y-103449651D01*
X150063000Y-102809651D02*
X152516000Y-102809651D01*
X152608000Y-100929651D02*
X154504000Y-100929651D01*
X150537000Y-102169651D02*
X152516000Y-102169651D01*
X154596000Y-103049651D02*
X157183000Y-103049651D01*
X150501000Y-102209651D02*
X152516000Y-102209651D01*
X154596000Y-104209651D02*
X157573000Y-104209651D01*
X149482000Y-104690651D02*
X157630000Y-104690651D01*
X149562000Y-104089651D02*
X152516000Y-104089651D01*
X154596000Y-102369651D02*
X156745000Y-102369651D01*
X150952000Y-101769651D02*
X156160000Y-101769651D01*
X149972000Y-102969651D02*
X152516000Y-102969651D01*
X154596000Y-102889651D02*
X157096000Y-102889651D01*
X149620000Y-103849651D02*
X152516000Y-103849651D01*
X149554000Y-104129651D02*
X152516000Y-104129651D01*
X154596000Y-103849651D02*
X157492000Y-103849651D01*
X149994000Y-102929651D02*
X152516000Y-102929651D01*
X150191000Y-102609651D02*
X152516000Y-102609651D01*
X149609000Y-103889651D02*
X152516000Y-103889651D01*
X149631000Y-103809651D02*
X152516000Y-103809651D01*
X149834000Y-103249651D02*
X152516000Y-103249651D01*
X154596000Y-102689651D02*
X156974000Y-102689651D01*
X151666000Y-101289651D02*
X155446000Y-101289651D01*
X149476000Y-104850651D02*
X157636000Y-104850651D01*
X154596000Y-102969651D02*
X157140000Y-102969651D01*
X154596000Y-103489651D02*
X157377000Y-103489651D01*
X149599000Y-103929651D02*
X152516000Y-103929651D01*
X149508000Y-104410651D02*
X157604000Y-104410651D01*
X154596000Y-102249651D02*
X156646000Y-102249651D01*
X152004000Y-101129651D02*
X155108000Y-101129651D01*
X150649000Y-102049651D02*
X156463000Y-102049651D01*
X150336000Y-102409651D02*
X152516000Y-102409651D01*
X153023000Y-100849651D02*
X154089000Y-100849651D01*
X151454000Y-101409651D02*
X155658000Y-101409651D01*
X154596000Y-103569651D02*
X157406000Y-103569651D01*
X150367000Y-102369651D02*
X152516000Y-102369651D01*
X154596000Y-103529651D02*
X157391000Y-103529651D01*
X150218000Y-102569651D02*
X152516000Y-102569651D01*
X154596000Y-104129651D02*
X157558000Y-104129651D01*
X151211000Y-101569651D02*
X155901000Y-101569651D01*
X154596000Y-102289651D02*
X156680000Y-102289651D01*
X154596000Y-104009651D02*
X157532000Y-104009651D01*
X149667000Y-103689651D02*
X152516000Y-103689651D01*
X154596000Y-102769651D02*
X157025000Y-102769651D01*
X151522000Y-101369651D02*
X155590000Y-101369651D01*
X151102000Y-101649651D02*
X156010000Y-101649651D01*
X149485000Y-104650651D02*
X157627000Y-104650651D01*
X149799000Y-103329651D02*
X152516000Y-103329651D01*
X150247000Y-102529651D02*
X152516000Y-102529651D01*
X149580000Y-104009651D02*
X152516000Y-104009651D01*
X154596000Y-103129651D02*
X157222000Y-103129651D01*
X154596000Y-104049651D02*
X157541000Y-104049651D01*
X149477000Y-104810651D02*
X157635000Y-104810651D01*
X154596000Y-103689651D02*
X157445000Y-103689651D01*
X150112000Y-102729651D02*
X152516000Y-102729651D01*
X149539000Y-104209651D02*
X152516000Y-104209651D01*
X150772000Y-101929651D02*
X156340000Y-101929651D01*
X152327000Y-101009651D02*
X154785000Y-101009651D01*
X150164000Y-102649651D02*
X152516000Y-102649651D01*
X154596000Y-103369651D02*
X157330000Y-103369651D01*
X154596000Y-103409651D02*
X157346000Y-103409651D01*
X150016000Y-102889651D02*
X152516000Y-102889651D01*
X150276000Y-102489651D02*
X152516000Y-102489651D01*
X150400000Y-102329651D02*
X152516000Y-102329651D01*
X154596000Y-102929651D02*
X157118000Y-102929651D01*
X150573000Y-102129651D02*
X156539000Y-102129651D01*
X149929000Y-103049651D02*
X152516000Y-103049651D01*
X149782000Y-103369651D02*
X152516000Y-103369651D01*
X154596000Y-102329651D02*
X156712000Y-102329651D01*
X157676000Y-104930651D02*
G75*
G03*
X157676000Y-104930651I-4120000J0D01*
G01*
%TO.C,J6*%
X164940000Y-130215000D02*
X164940000Y-129225000D01*
X165060000Y-134685000D02*
X168940000Y-134685000D01*
X170110000Y-130215000D02*
X169060000Y-130215000D01*
X163890000Y-130215000D02*
X164940000Y-130215000D01*
X163890000Y-132715000D02*
X163890000Y-130215000D01*
X170110000Y-132715000D02*
X170110000Y-130215000D01*
D10*
%TO.C,U1*%
X126100000Y-111000000D02*
X126100000Y-111350000D01*
X133900000Y-104650000D02*
X132350000Y-104650000D01*
X126100000Y-105000000D02*
X126100000Y-104650000D01*
X133900000Y-105000000D02*
X133900000Y-104650000D01*
X135800000Y-111350000D02*
X132400000Y-111350000D01*
X126100000Y-111350000D02*
X127650000Y-111350000D01*
X126100000Y-104650000D02*
X127650000Y-104650000D01*
D11*
%TO.C,R4*%
X151523000Y-112420641D02*
X151523000Y-112113359D01*
X150763000Y-112420641D02*
X150763000Y-112113359D01*
%TO.C,C2*%
X141752252Y-132052000D02*
X141229748Y-132052000D01*
X141752252Y-130582000D02*
X141229748Y-130582000D01*
%TO.C,J8*%
X120640000Y-100500000D02*
X121250000Y-100500000D01*
X124250000Y-99900000D02*
X124750000Y-99900000D01*
X124250000Y-98100000D02*
X124250000Y-97900000D01*
X124750000Y-100100000D02*
X124250000Y-100100000D01*
X124750000Y-98000000D02*
X124250000Y-98000000D01*
X121950000Y-103060000D02*
X121950000Y-102450000D01*
X124750000Y-98100000D02*
X124250000Y-98100000D01*
X121250000Y-100500000D02*
X121250000Y-102450000D01*
X120440000Y-101300000D02*
X120440000Y-101600000D01*
X120340000Y-102110000D02*
X120340000Y-103360000D01*
X123250000Y-103060000D02*
X123250000Y-102450000D01*
X121250000Y-93550000D02*
X121250000Y-95500000D01*
X125360000Y-92940000D02*
X120640000Y-92940000D01*
X124750000Y-96000000D02*
X124250000Y-96000000D01*
X124750000Y-96100000D02*
X124250000Y-96100000D01*
X121250000Y-95500000D02*
X120640000Y-95500000D01*
X121950000Y-92940000D02*
X121950000Y-93550000D01*
X124250000Y-95900000D02*
X124750000Y-95900000D01*
X121250000Y-102450000D02*
X124750000Y-102450000D01*
X124750000Y-102450000D02*
X124750000Y-93550000D01*
X120540000Y-101300000D02*
X120540000Y-101600000D01*
X120640000Y-92940000D02*
X120640000Y-103060000D01*
X120340000Y-103360000D02*
X121590000Y-103360000D01*
X124250000Y-96100000D02*
X124250000Y-95900000D01*
X120440000Y-101600000D02*
X120640000Y-101600000D01*
X124750000Y-93550000D02*
X121250000Y-93550000D01*
X123250000Y-92940000D02*
X123250000Y-93550000D01*
X120640000Y-101300000D02*
X120440000Y-101300000D01*
X124250000Y-97900000D02*
X124750000Y-97900000D01*
X125360000Y-103060000D02*
X125360000Y-92940000D01*
X124750000Y-100000000D02*
X124250000Y-100000000D01*
X124250000Y-100100000D02*
X124250000Y-99900000D01*
X120640000Y-103060000D02*
X125360000Y-103060000D01*
%TO.C,U5*%
X146136000Y-122354000D02*
X146136000Y-121704000D01*
X152706000Y-115134000D02*
X153356000Y-115134000D01*
X153356000Y-115134000D02*
X153356000Y-115784000D01*
X146136000Y-115134000D02*
X146136000Y-115784000D01*
X146786000Y-115134000D02*
X146136000Y-115134000D01*
X152706000Y-122354000D02*
X153356000Y-122354000D01*
X146786000Y-122354000D02*
X146136000Y-122354000D01*
%TD*%
%LPC*%
D14*
%TO.C,C9*%
X150762000Y-124995000D03*
X150762000Y-125955000D03*
%TD*%
D15*
%TO.C,C16*%
X154473000Y-121665000D03*
X155433000Y-121665000D03*
%TD*%
D16*
%TO.C,J7*%
X131500000Y-130000000D03*
X132500000Y-130000000D03*
X133500000Y-130000000D03*
X134500000Y-130000000D03*
D17*
X130200000Y-133875000D03*
X135800000Y-133875000D03*
%TD*%
D18*
%TO.C,J9*%
X177350000Y-94500000D03*
D19*
X177350000Y-96500000D03*
X177350000Y-98500000D03*
X177350000Y-100500000D03*
%TD*%
D15*
%TO.C,C15*%
X154473000Y-117474000D03*
X155433000Y-117474000D03*
%TD*%
D20*
%TO.C,R9*%
X138699000Y-129158000D03*
X137679000Y-129158000D03*
%TD*%
D21*
%TO.C,REF\u002A\u002A*%
X178197056Y-133197056D03*
X178197056Y-129802944D03*
X174100000Y-131500000D03*
D22*
X176500000Y-131500000D03*
X176500000Y-131500000D03*
D21*
X174802944Y-133197056D03*
X174802944Y-129802944D03*
X176500000Y-129100000D03*
X176500000Y-133900000D03*
X178900000Y-131500000D03*
%TD*%
D23*
%TO.C,C3*%
X142441000Y-123951000D03*
X140541000Y-123951000D03*
%TD*%
D14*
%TO.C,C19*%
X143904000Y-114454000D03*
X143904000Y-115414000D03*
%TD*%
D24*
%TO.C,R8*%
X148730000Y-111634000D03*
X148730000Y-110614000D03*
%TD*%
D25*
%TO.C,U6*%
X161982000Y-128015000D03*
X161982000Y-126745000D03*
X161982000Y-125475000D03*
X161982000Y-124205000D03*
X154782000Y-124205000D03*
X154782000Y-125475000D03*
X154782000Y-126745000D03*
X154782000Y-128015000D03*
%TD*%
D26*
%TO.C,Y1*%
X152833000Y-110409000D03*
X152833000Y-112609000D03*
X154533000Y-112609000D03*
X154533000Y-110409000D03*
%TD*%
D27*
%TO.C,SW1*%
X157831000Y-109795000D03*
X161981000Y-109795000D03*
X157831000Y-111945000D03*
X161981000Y-111945000D03*
%TD*%
D28*
%TO.C,C13*%
X144765000Y-121411000D03*
X143805000Y-121411000D03*
%TD*%
D29*
%TO.C,R2*%
X159650000Y-129666000D03*
X160670000Y-129666000D03*
%TD*%
D30*
%TO.C,J12*%
X152500000Y-90000000D03*
D31*
X147500000Y-90000000D03*
%TD*%
D32*
%TO.C,C20*%
X151143000Y-110461000D03*
X151143000Y-109501000D03*
%TD*%
D22*
%TO.C,REF\u002A\u002A*%
X176500000Y-88500000D03*
D21*
X174100000Y-88500000D03*
X176500000Y-86100000D03*
X178197056Y-90197056D03*
D22*
X176500000Y-88500000D03*
D21*
X178900000Y-88500000D03*
X178197056Y-86802944D03*
X174802944Y-90197056D03*
X174802944Y-86802944D03*
X176500000Y-90900000D03*
%TD*%
D33*
%TO.C,U4*%
X140541000Y-128571500D03*
X142441000Y-128571500D03*
X141491000Y-126696500D03*
%TD*%
D34*
%TO.C,J4*%
X128410000Y-100000000D03*
D35*
X130950000Y-100000000D03*
X133490000Y-100000000D03*
X136030000Y-100000000D03*
X138570000Y-100000000D03*
X141110000Y-100000000D03*
%TD*%
D32*
%TO.C,C21*%
X156262000Y-111819000D03*
X156262000Y-110859000D03*
%TD*%
D14*
%TO.C,C17*%
X149746000Y-124995000D03*
X149746000Y-125955000D03*
%TD*%
D36*
%TO.C,R12*%
X163335000Y-106042000D03*
X163335000Y-107062000D03*
%TD*%
D37*
%TO.C,D1*%
X138697000Y-124865500D03*
X138697000Y-123290500D03*
%TD*%
D28*
%TO.C,C18*%
X153020005Y-128040409D03*
X152060005Y-128040409D03*
%TD*%
D14*
%TO.C,C5*%
X146698000Y-123852000D03*
X146698000Y-124812000D03*
%TD*%
D32*
%TO.C,C10*%
X148857000Y-113636000D03*
X148857000Y-112676000D03*
%TD*%
D34*
%TO.C,J5*%
X158890000Y-100000000D03*
D35*
X161430000Y-100000000D03*
X163970000Y-100000000D03*
X166510000Y-100000000D03*
X169050000Y-100000000D03*
X171590000Y-100000000D03*
%TD*%
D38*
%TO.C,J11*%
X164500000Y-90000000D03*
D39*
X168460000Y-90000000D03*
%TD*%
D40*
%TO.C,D3*%
X139953000Y-117502000D03*
X138203000Y-117502000D03*
X138203000Y-121002000D03*
X139953000Y-121002000D03*
%TD*%
D14*
%TO.C,C14*%
X144666000Y-123852000D03*
X144666000Y-124812000D03*
%TD*%
D41*
%TO.C,J14*%
X148700000Y-130933000D03*
X149350000Y-130933000D03*
X150000000Y-130933000D03*
X150650000Y-130933000D03*
X151300000Y-130933000D03*
D42*
X152900000Y-133633000D03*
D43*
X147500000Y-130933000D03*
X152500000Y-130933000D03*
D44*
X153500000Y-133633000D03*
D42*
X147100000Y-133633000D03*
D44*
X146500000Y-133633000D03*
D45*
X149000000Y-133633000D03*
X151000000Y-133633000D03*
%TD*%
D40*
%TO.C,D4*%
X162051000Y-117121000D03*
X160301000Y-117121000D03*
X160301000Y-120621000D03*
X162051000Y-120621000D03*
%TD*%
D22*
%TO.C,REF\u002A\u002A*%
X123500000Y-131500000D03*
D21*
X121802944Y-133197056D03*
X121802944Y-129802944D03*
X123500000Y-133900000D03*
X125900000Y-131500000D03*
X121100000Y-131500000D03*
X125197056Y-129802944D03*
X123500000Y-129100000D03*
X125197056Y-133197056D03*
D22*
X123500000Y-131500000D03*
%TD*%
D46*
%TO.C,J3*%
X152500000Y-93000000D03*
D47*
X147500000Y-93000000D03*
%TD*%
D32*
%TO.C,C11*%
X149873000Y-113636000D03*
X149873000Y-112676000D03*
%TD*%
D24*
%TO.C,R6*%
X147714000Y-124842000D03*
X147714000Y-123822000D03*
%TD*%
D29*
%TO.C,R3*%
X157110000Y-129666000D03*
X158130000Y-129666000D03*
%TD*%
D48*
%TO.C,U2*%
X174800000Y-110500000D03*
X174800000Y-109500000D03*
X174800000Y-108500000D03*
X174800000Y-107500000D03*
X174800000Y-106500000D03*
X174800000Y-105500000D03*
X165200000Y-105500000D03*
X165200000Y-106500000D03*
X165200000Y-107500000D03*
X165200000Y-108500000D03*
X165200000Y-109500000D03*
X165200000Y-110500000D03*
D49*
X170000000Y-108000000D03*
%TD*%
D20*
%TO.C,R10*%
X138699000Y-127761000D03*
X137679000Y-127761000D03*
%TD*%
D50*
%TO.C,U3*%
X144986000Y-113023500D03*
X145936000Y-113023500D03*
X146886000Y-113023500D03*
X146886000Y-110748500D03*
X145936000Y-110748500D03*
X144986000Y-110748500D03*
%TD*%
D34*
%TO.C,J13*%
X160287000Y-133095000D03*
%TD*%
D46*
%TO.C,J2*%
X169000000Y-93000000D03*
D47*
X164000000Y-93000000D03*
%TD*%
D28*
%TO.C,C12*%
X144384000Y-117728000D03*
X143424000Y-117728000D03*
%TD*%
D29*
%TO.C,R1*%
X137677000Y-126364000D03*
X138697000Y-126364000D03*
%TD*%
D51*
%TO.C,D6*%
X153432000Y-99440000D03*
X150632000Y-99440000D03*
%TD*%
D24*
%TO.C,R5*%
X148730000Y-124842000D03*
X148730000Y-123822000D03*
%TD*%
D29*
%TO.C,R7*%
X158126000Y-113410000D03*
X159146000Y-113410000D03*
%TD*%
D38*
%TO.C,J10*%
X131750000Y-90000000D03*
D39*
X135710000Y-90000000D03*
%TD*%
D15*
%TO.C,C23*%
X162093000Y-115315000D03*
X163053000Y-115315000D03*
%TD*%
D52*
%TO.C,L1*%
X142510000Y-113918000D03*
X139710000Y-113918000D03*
%TD*%
D21*
%TO.C,REF\u002A\u002A*%
X125197056Y-86802944D03*
D22*
X123500000Y-88500000D03*
D21*
X123500000Y-90900000D03*
X121100000Y-88500000D03*
X125900000Y-88500000D03*
X123500000Y-86100000D03*
X121802944Y-86802944D03*
X121802944Y-90197056D03*
X125197056Y-90197056D03*
D22*
X123500000Y-88500000D03*
%TD*%
D53*
%TO.C,C4*%
X145223000Y-108584000D03*
X148173000Y-108584000D03*
%TD*%
D14*
%TO.C,C7*%
X137554000Y-110362000D03*
X137554000Y-111322000D03*
%TD*%
D54*
%TO.C,D5*%
X158764000Y-106552000D03*
X162064000Y-106552000D03*
%TD*%
D14*
%TO.C,C8*%
X178448000Y-110070000D03*
X178448000Y-111030000D03*
%TD*%
D55*
%TO.C,Q1*%
X144539000Y-104455000D03*
X145809000Y-104455000D03*
X147079000Y-104455000D03*
X148349000Y-104455000D03*
X148349000Y-99505000D03*
X147079000Y-99505000D03*
X145809000Y-99505000D03*
X144539000Y-99505000D03*
%TD*%
D56*
%TO.C,D2*%
X142888000Y-110742000D03*
X142888000Y-107442000D03*
%TD*%
D14*
%TO.C,C6*%
X145682000Y-123852000D03*
X145682000Y-124812000D03*
%TD*%
D23*
%TO.C,C22*%
X140856000Y-110362000D03*
X138956000Y-110362000D03*
%TD*%
D46*
%TO.C,J1*%
X136000000Y-93000008D03*
D47*
X131000000Y-93000008D03*
%TD*%
D36*
%TO.C,R11*%
X149746000Y-110614000D03*
X149746000Y-111634000D03*
%TD*%
D57*
%TO.C,C1*%
X153556000Y-106680651D03*
D58*
X153556000Y-103180651D03*
%TD*%
D16*
%TO.C,J6*%
X165500000Y-130000000D03*
X166500000Y-130000000D03*
X167500000Y-130000000D03*
X168500000Y-130000000D03*
D17*
X164200000Y-133875000D03*
X169800000Y-133875000D03*
%TD*%
D48*
%TO.C,U1*%
X134800000Y-110500000D03*
X134800000Y-109500000D03*
X134800000Y-108500000D03*
X134800000Y-107500000D03*
X134800000Y-106500000D03*
X134800000Y-105500000D03*
X125200000Y-105500000D03*
X125200000Y-106500000D03*
X125200000Y-107500000D03*
X125200000Y-108500000D03*
X125200000Y-109500000D03*
X125200000Y-110500000D03*
D49*
X130000000Y-108000000D03*
%TD*%
D24*
%TO.C,R4*%
X151143000Y-112777000D03*
X151143000Y-111757000D03*
%TD*%
D23*
%TO.C,C2*%
X142441000Y-131317000D03*
X140541000Y-131317000D03*
%TD*%
D59*
%TO.C,J8*%
X122450000Y-101000000D03*
D19*
X122450000Y-99000000D03*
X122450000Y-97000000D03*
X122450000Y-95000000D03*
%TD*%
D60*
%TO.C,U5*%
X153183500Y-121344000D03*
X153183500Y-120944000D03*
X153183500Y-120544000D03*
X153183500Y-120144000D03*
X153183500Y-119744000D03*
X153183500Y-119344000D03*
X153183500Y-118944000D03*
X153183500Y-118544000D03*
X153183500Y-118144000D03*
X153183500Y-117744000D03*
X153183500Y-117344000D03*
X153183500Y-116944000D03*
X153183500Y-116544000D03*
X153183500Y-116144000D03*
D61*
X152346000Y-115306500D03*
X151946000Y-115306500D03*
X151546000Y-115306500D03*
X151146000Y-115306500D03*
X150746000Y-115306500D03*
X150346000Y-115306500D03*
X149946000Y-115306500D03*
X149546000Y-115306500D03*
X149146000Y-115306500D03*
X148746000Y-115306500D03*
X148346000Y-115306500D03*
X147946000Y-115306500D03*
X147546000Y-115306500D03*
X147146000Y-115306500D03*
D60*
X146308500Y-116144000D03*
X146308500Y-116544000D03*
X146308500Y-116944000D03*
X146308500Y-117344000D03*
X146308500Y-117744000D03*
X146308500Y-118144000D03*
X146308500Y-118544000D03*
X146308500Y-118944000D03*
X146308500Y-119344000D03*
X146308500Y-119744000D03*
X146308500Y-120144000D03*
X146308500Y-120544000D03*
X146308500Y-120944000D03*
X146308500Y-121344000D03*
D61*
X147146000Y-122181500D03*
X147546000Y-122181500D03*
X147946000Y-122181500D03*
X148346000Y-122181500D03*
X148746000Y-122181500D03*
X149146000Y-122181500D03*
X149546000Y-122181500D03*
X149946000Y-122181500D03*
X150346000Y-122181500D03*
X150746000Y-122181500D03*
X151146000Y-122181500D03*
X151546000Y-122181500D03*
X151946000Y-122181500D03*
X152346000Y-122181500D03*
D62*
X149746000Y-118744000D03*
%TD*%
M02*
