%TF.GenerationSoftware,KiCad,Pcbnew,(6.0.0-rc1-48-g8f87638de5)*%
%TF.CreationDate,2021-11-22T15:04:28-05:00*%
%TF.ProjectId,motor_driver2,6d6f746f-725f-4647-9269-766572322e6b,rev?*%
%TF.SameCoordinates,Original*%
%TF.FileFunction,Paste,Top*%
%TF.FilePolarity,Positive*%
%FSLAX46Y46*%
G04 Gerber Fmt 4.6, Leading zero omitted, Abs format (unit mm)*
G04 Created by KiCad (PCBNEW (6.0.0-rc1-48-g8f87638de5)) date 2021-11-22 15:04:28*
%MOMM*%
%LPD*%
G01*
G04 APERTURE LIST*
G04 Aperture macros list*
%AMRoundRect*
0 Rectangle with rounded corners*
0 $1 Rounding radius*
0 $2 $3 $4 $5 $6 $7 $8 $9 X,Y pos of 4 corners*
0 Add a 4 corners polygon primitive as box body*
4,1,4,$2,$3,$4,$5,$6,$7,$8,$9,$2,$3,0*
0 Add four circle primitives for the rounded corners*
1,1,$1+$1,$2,$3*
1,1,$1+$1,$4,$5*
1,1,$1+$1,$6,$7*
1,1,$1+$1,$8,$9*
0 Add four rect primitives between the rounded corners*
20,1,$1+$1,$2,$3,$4,$5,0*
20,1,$1+$1,$4,$5,$6,$7,0*
20,1,$1+$1,$6,$7,$8,$9,0*
20,1,$1+$1,$8,$9,$2,$3,0*%
G04 Aperture macros list end*
%ADD10RoundRect,0.150000X-0.150000X-0.625000X0.150000X-0.625000X0.150000X0.625000X-0.150000X0.625000X0*%
%ADD11RoundRect,0.250000X-0.350000X-0.650000X0.350000X-0.650000X0.350000X0.650000X-0.350000X0.650000X0*%
%ADD12R,2.286000X1.524000*%
%ADD13R,1.524000X2.286000*%
%ADD14RoundRect,0.243750X0.456250X-0.243750X0.456250X0.243750X-0.456250X0.243750X-0.456250X-0.243750X0*%
%ADD15R,1.550000X1.160000*%
%ADD16R,2.000000X0.650000*%
%ADD17RoundRect,0.250000X0.450000X-0.262500X0.450000X0.262500X-0.450000X0.262500X-0.450000X-0.262500X0*%
%ADD18RoundRect,0.250000X-0.475000X0.250000X-0.475000X-0.250000X0.475000X-0.250000X0.475000X0.250000X0*%
%ADD19RoundRect,0.150000X0.150000X-0.825000X0.150000X0.825000X-0.150000X0.825000X-0.150000X-0.825000X0*%
G04 APERTURE END LIST*
D10*
%TO.C,J7*%
X131500000Y-130000000D03*
X132500000Y-130000000D03*
X133500000Y-130000000D03*
X134500000Y-130000000D03*
D11*
X130200000Y-133875000D03*
X135800000Y-133875000D03*
%TD*%
D12*
%TO.C,U3*%
X160160000Y-128650000D03*
X160160000Y-126110000D03*
X160160000Y-123570000D03*
X160160000Y-121030000D03*
X160160000Y-118490000D03*
X160160000Y-115950000D03*
D13*
X156350000Y-108076000D03*
X153810000Y-108076000D03*
X151270000Y-108076000D03*
X148730000Y-108076000D03*
X146190000Y-108076000D03*
X143650000Y-108076000D03*
D12*
X139840000Y-115950000D03*
X139840000Y-118490000D03*
X139840000Y-121030000D03*
X139840000Y-123570000D03*
X139840000Y-126110000D03*
X139840000Y-128650000D03*
%TD*%
D14*
%TO.C,D1*%
X162500000Y-110937500D03*
X162500000Y-109062500D03*
%TD*%
D15*
%TO.C,U2*%
X169075000Y-110920000D03*
X169075000Y-106540000D03*
X169075000Y-109460000D03*
X169075000Y-108000000D03*
X170925000Y-110920000D03*
X170925000Y-106540000D03*
X170925000Y-105080000D03*
X169075000Y-105080000D03*
X170925000Y-109460000D03*
X170925000Y-108000000D03*
D16*
X174800000Y-110500000D03*
X174800000Y-109500000D03*
X174800000Y-108500000D03*
X174800000Y-107500000D03*
X174800000Y-106500000D03*
X174800000Y-105500000D03*
X165200000Y-105500000D03*
X165200000Y-106500000D03*
X165200000Y-107500000D03*
X165200000Y-108500000D03*
X165200000Y-109500000D03*
X165200000Y-110500000D03*
%TD*%
D17*
%TO.C,R1*%
X162500000Y-114412500D03*
X162500000Y-112587500D03*
%TD*%
D18*
%TO.C,C2*%
X138316000Y-110174000D03*
X138316000Y-112074000D03*
%TD*%
%TO.C,C3*%
X178448000Y-109600000D03*
X178448000Y-111500000D03*
%TD*%
D19*
%TO.C,Q1*%
X143845000Y-103475000D03*
X145115000Y-103475000D03*
X146385000Y-103475000D03*
X147655000Y-103475000D03*
X147655000Y-98525000D03*
X146385000Y-98525000D03*
X145115000Y-98525000D03*
X143845000Y-98525000D03*
%TD*%
D10*
%TO.C,J6*%
X165500000Y-130000000D03*
X166500000Y-130000000D03*
X167500000Y-130000000D03*
X168500000Y-130000000D03*
D11*
X164200000Y-133875000D03*
X169800000Y-133875000D03*
%TD*%
D15*
%TO.C,U1*%
X130925000Y-108000000D03*
X130925000Y-110920000D03*
X129075000Y-110920000D03*
X129075000Y-108000000D03*
X130925000Y-109460000D03*
X130925000Y-106540000D03*
X129075000Y-109460000D03*
X130925000Y-105080000D03*
X129075000Y-105080000D03*
X129075000Y-106540000D03*
D16*
X134800000Y-110500000D03*
X134800000Y-109500000D03*
X134800000Y-108500000D03*
X134800000Y-107500000D03*
X134800000Y-106500000D03*
X134800000Y-105500000D03*
X125200000Y-105500000D03*
X125200000Y-106500000D03*
X125200000Y-107500000D03*
X125200000Y-108500000D03*
X125200000Y-109500000D03*
X125200000Y-110500000D03*
%TD*%
M02*
