%TF.GenerationSoftware,KiCad,Pcbnew,(6.0.0-rc1-48-g8f87638de5)*%
%TF.CreationDate,2021-11-22T15:04:28-05:00*%
%TF.ProjectId,motor_driver2,6d6f746f-725f-4647-9269-766572322e6b,rev?*%
%TF.SameCoordinates,Original*%
%TF.FileFunction,Copper,L1,Top*%
%TF.FilePolarity,Positive*%
%FSLAX46Y46*%
G04 Gerber Fmt 4.6, Leading zero omitted, Abs format (unit mm)*
G04 Created by KiCad (PCBNEW (6.0.0-rc1-48-g8f87638de5)) date 2021-11-22 15:04:28*
%MOMM*%
%LPD*%
G01*
G04 APERTURE LIST*
G04 Aperture macros list*
%AMRoundRect*
0 Rectangle with rounded corners*
0 $1 Rounding radius*
0 $2 $3 $4 $5 $6 $7 $8 $9 X,Y pos of 4 corners*
0 Add a 4 corners polygon primitive as box body*
4,1,4,$2,$3,$4,$5,$6,$7,$8,$9,$2,$3,0*
0 Add four circle primitives for the rounded corners*
1,1,$1+$1,$2,$3*
1,1,$1+$1,$4,$5*
1,1,$1+$1,$6,$7*
1,1,$1+$1,$8,$9*
0 Add four rect primitives between the rounded corners*
20,1,$1+$1,$2,$3,$4,$5,0*
20,1,$1+$1,$4,$5,$6,$7,0*
20,1,$1+$1,$6,$7,$8,$9,0*
20,1,$1+$1,$8,$9,$2,$3,0*%
G04 Aperture macros list end*
%TA.AperFunction,SMDPad,CuDef*%
%ADD10RoundRect,0.150000X-0.150000X-0.625000X0.150000X-0.625000X0.150000X0.625000X-0.150000X0.625000X0*%
%TD*%
%TA.AperFunction,SMDPad,CuDef*%
%ADD11RoundRect,0.250000X-0.350000X-0.650000X0.350000X-0.650000X0.350000X0.650000X-0.350000X0.650000X0*%
%TD*%
%TA.AperFunction,ComponentPad*%
%ADD12RoundRect,0.250000X-0.625000X0.350000X-0.625000X-0.350000X0.625000X-0.350000X0.625000X0.350000X0*%
%TD*%
%TA.AperFunction,ComponentPad*%
%ADD13O,1.750000X1.200000*%
%TD*%
%TA.AperFunction,ComponentPad*%
%ADD14C,0.800000*%
%TD*%
%TA.AperFunction,ComponentPad*%
%ADD15C,6.400000*%
%TD*%
%TA.AperFunction,ComponentPad*%
%ADD16RoundRect,0.250001X1.099999X1.099999X-1.099999X1.099999X-1.099999X-1.099999X1.099999X-1.099999X0*%
%TD*%
%TA.AperFunction,ComponentPad*%
%ADD17C,2.700000*%
%TD*%
%TA.AperFunction,ComponentPad*%
%ADD18R,1.700000X1.700000*%
%TD*%
%TA.AperFunction,ComponentPad*%
%ADD19O,1.700000X1.700000*%
%TD*%
%TA.AperFunction,SMDPad,CuDef*%
%ADD20R,2.286000X1.524000*%
%TD*%
%TA.AperFunction,SMDPad,CuDef*%
%ADD21R,1.524000X2.286000*%
%TD*%
%TA.AperFunction,SMDPad,CuDef*%
%ADD22RoundRect,0.243750X0.456250X-0.243750X0.456250X0.243750X-0.456250X0.243750X-0.456250X-0.243750X0*%
%TD*%
%TA.AperFunction,ComponentPad*%
%ADD23R,2.600000X2.600000*%
%TD*%
%TA.AperFunction,ComponentPad*%
%ADD24C,2.600000*%
%TD*%
%TA.AperFunction,SMDPad,CuDef*%
%ADD25R,2.000000X0.650000*%
%TD*%
%TA.AperFunction,SMDPad,CuDef*%
%ADD26R,4.500000X8.100000*%
%TD*%
%TA.AperFunction,SMDPad,CuDef*%
%ADD27RoundRect,0.250000X0.450000X-0.262500X0.450000X0.262500X-0.450000X0.262500X-0.450000X-0.262500X0*%
%TD*%
%TA.AperFunction,SMDPad,CuDef*%
%ADD28RoundRect,0.250000X-0.475000X0.250000X-0.475000X-0.250000X0.475000X-0.250000X0.475000X0.250000X0*%
%TD*%
%TA.AperFunction,SMDPad,CuDef*%
%ADD29RoundRect,0.150000X0.150000X-0.825000X0.150000X0.825000X-0.150000X0.825000X-0.150000X-0.825000X0*%
%TD*%
%TA.AperFunction,ComponentPad*%
%ADD30R,1.600000X1.600000*%
%TD*%
%TA.AperFunction,ComponentPad*%
%ADD31C,1.600000*%
%TD*%
%TA.AperFunction,ComponentPad*%
%ADD32RoundRect,0.250000X0.625000X-0.350000X0.625000X0.350000X-0.625000X0.350000X-0.625000X-0.350000X0*%
%TD*%
%TA.AperFunction,ViaPad*%
%ADD33C,0.800000*%
%TD*%
%TA.AperFunction,Conductor*%
%ADD34C,1.524000*%
%TD*%
%TA.AperFunction,Conductor*%
%ADD35C,0.250000*%
%TD*%
%TA.AperFunction,Conductor*%
%ADD36C,0.508000*%
%TD*%
G04 APERTURE END LIST*
D10*
%TO.P,J7,1,Pin_1*%
%TO.N,GND*%
X131500000Y-130000000D03*
%TO.P,J7,2,Pin_2*%
%TO.N,+3V3*%
X132500000Y-130000000D03*
%TO.P,J7,3,Pin_3*%
%TO.N,/SDA*%
X133500000Y-130000000D03*
%TO.P,J7,4,Pin_4*%
%TO.N,/SCL*%
X134500000Y-130000000D03*
D11*
%TO.P,J7,MP*%
%TO.N,N/C*%
X130200000Y-133875000D03*
X135800000Y-133875000D03*
%TD*%
D12*
%TO.P,J9,1,Pin_1*%
%TO.N,/ENC2_B*%
X177350000Y-94500000D03*
D13*
%TO.P,J9,2,Pin_2*%
%TO.N,/ENC2_A*%
X177350000Y-96500000D03*
%TO.P,J9,3,Pin_3*%
%TO.N,+3V3*%
X177350000Y-98500000D03*
%TO.P,J9,4,Pin_4*%
%TO.N,GND*%
X177350000Y-100500000D03*
%TD*%
D14*
%TO.P,REF\u002A\u002A,1*%
%TO.N,GND*%
X178197056Y-133197056D03*
X178197056Y-129802944D03*
X174100000Y-131500000D03*
D15*
X176500000Y-131500000D03*
X176500000Y-131500000D03*
D14*
X174802944Y-133197056D03*
X174802944Y-129802944D03*
X176500000Y-129100000D03*
X176500000Y-133900000D03*
X178900000Y-131500000D03*
%TD*%
D16*
%TO.P,J12,1,Pin_1*%
%TO.N,GND*%
X152000000Y-94000000D03*
D17*
%TO.P,J12,2,Pin_2*%
%TO.N,VBUS*%
X148040000Y-94000000D03*
%TD*%
D15*
%TO.P,REF\u002A\u002A,1*%
%TO.N,GND*%
X176500000Y-88500000D03*
D14*
X174100000Y-88500000D03*
X176500000Y-86100000D03*
X178197056Y-90197056D03*
D15*
X176500000Y-88500000D03*
D14*
X178900000Y-88500000D03*
X178197056Y-86802944D03*
X174802944Y-90197056D03*
X174802944Y-86802944D03*
X176500000Y-90900000D03*
%TD*%
D18*
%TO.P,J4,1,Pin_1*%
%TO.N,/M1B*%
X128410000Y-100000000D03*
D19*
%TO.P,J4,2,Pin_2*%
%TO.N,/ENC1_A*%
X130950000Y-100000000D03*
%TO.P,J4,3,Pin_3*%
%TO.N,GND*%
X133490000Y-100000000D03*
%TO.P,J4,4,Pin_4*%
%TO.N,+3V3*%
X136030000Y-100000000D03*
%TO.P,J4,5,Pin_5*%
%TO.N,/ENC1_B*%
X138570000Y-100000000D03*
%TO.P,J4,6,Pin_6*%
%TO.N,/M1A*%
X141110000Y-100000000D03*
%TD*%
D20*
%TO.P,U3,1,D0*%
%TO.N,/SDA*%
X160160000Y-128650000D03*
%TO.P,U3,2,D1*%
%TO.N,/SCL*%
X160160000Y-126110000D03*
%TO.P,U3,3,D2*%
%TO.N,/M2_DIR*%
X160160000Y-123570000D03*
%TO.P,U3,4,D3*%
%TO.N,/M2_PWM*%
X160160000Y-121030000D03*
%TO.P,U3,5,D4*%
%TO.N,Net-(JP2-Pad1)*%
X160160000Y-118490000D03*
%TO.P,U3,6,D5*%
%TO.N,Net-(JP1-Pad1)*%
X160160000Y-115950000D03*
D21*
%TO.P,U3,7,D12*%
%TO.N,/M2_FLAG*%
X156350000Y-108076000D03*
%TO.P,U3,8,D13*%
%TO.N,/ENC2_B*%
X153810000Y-108076000D03*
%TO.P,U3,9,D14*%
%TO.N,/ENC2_A*%
X151270000Y-108076000D03*
%TO.P,U3,10,D15*%
%TO.N,/ENC1_B*%
X148730000Y-108076000D03*
%TO.P,U3,11,D16*%
%TO.N,/ENC1_A*%
X146190000Y-108076000D03*
%TO.P,U3,12,D17*%
%TO.N,/M1_FLAG*%
X143650000Y-108076000D03*
D20*
%TO.P,U3,13,A0*%
%TO.N,/ENABLE*%
X139840000Y-115950000D03*
%TO.P,U3,14,A1*%
%TO.N,/M1_DIR*%
X139840000Y-118490000D03*
%TO.P,U3,15,A2*%
%TO.N,/M1_PWM*%
X139840000Y-121030000D03*
%TO.P,U3,16,3V3*%
%TO.N,+3V3*%
X139840000Y-123570000D03*
%TO.P,U3,17,GND*%
%TO.N,GND*%
X139840000Y-126110000D03*
%TO.P,U3,18,VUSB*%
%TO.N,unconnected-(U3-Pad18)*%
X139840000Y-128650000D03*
%TD*%
D22*
%TO.P,D1,1,K*%
%TO.N,Net-(R1-Pad2)*%
X162500000Y-110937500D03*
%TO.P,D1,2,A*%
%TO.N,VCC*%
X162500000Y-109062500D03*
%TD*%
D18*
%TO.P,J5,1,Pin_1*%
%TO.N,/M2B*%
X158890000Y-100000000D03*
D19*
%TO.P,J5,2,Pin_2*%
%TO.N,/ENC2_A*%
X161430000Y-100000000D03*
%TO.P,J5,3,Pin_3*%
%TO.N,GND*%
X163970000Y-100000000D03*
%TO.P,J5,4,Pin_4*%
%TO.N,+3V3*%
X166510000Y-100000000D03*
%TO.P,J5,5,Pin_5*%
%TO.N,/ENC2_B*%
X169050000Y-100000000D03*
%TO.P,J5,6,Pin_6*%
%TO.N,/M2A*%
X171590000Y-100000000D03*
%TD*%
D16*
%TO.P,J11,1,Pin_1*%
%TO.N,/M2A*%
X168500000Y-94000000D03*
D17*
%TO.P,J11,2,Pin_2*%
%TO.N,/M2B*%
X164540000Y-94000000D03*
%TD*%
D15*
%TO.P,REF\u002A\u002A,1*%
%TO.N,GND*%
X123500000Y-131500000D03*
D14*
X121802944Y-133197056D03*
X121802944Y-129802944D03*
X123500000Y-133900000D03*
X125900000Y-131500000D03*
X121100000Y-131500000D03*
X125197056Y-129802944D03*
X123500000Y-129100000D03*
X125197056Y-133197056D03*
D15*
X123500000Y-131500000D03*
%TD*%
D23*
%TO.P,J3,1,Pin_1*%
%TO.N,GND*%
X152500000Y-90000000D03*
D24*
%TO.P,J3,2,Pin_2*%
%TO.N,VBUS*%
X147500000Y-90000000D03*
%TD*%
D25*
%TO.P,U2,1,DIR*%
%TO.N,/M2_DIR*%
X174800000Y-110500000D03*
%TO.P,U2,2,VSO*%
%TO.N,+3V3*%
X174800000Y-109500000D03*
%TO.P,U2,3,SO*%
%TO.N,/M2_FLAG*%
X174800000Y-108500000D03*
%TO.P,U2,4,VS*%
%TO.N,VCC*%
X174800000Y-107500000D03*
%TO.P,U2,5,OUT1*%
%TO.N,/M2A*%
X174800000Y-106500000D03*
%TO.P,U2,6,GND*%
%TO.N,GND*%
X174800000Y-105500000D03*
%TO.P,U2,7,OUT2*%
%TO.N,/M2B*%
X165200000Y-105500000D03*
%TO.P,U2,8,SI*%
%TO.N,GND*%
X165200000Y-106500000D03*
%TO.P,U2,9,CSN*%
X165200000Y-107500000D03*
%TO.P,U2,10,CSK*%
X165200000Y-108500000D03*
%TO.P,U2,11,DIS*%
%TO.N,/ENABLE*%
X165200000Y-109500000D03*
%TO.P,U2,12,PWM*%
%TO.N,/M2_PWM*%
X165200000Y-110500000D03*
D14*
%TO.P,U2,13,GND*%
%TO.N,GND*%
X170000000Y-111650000D03*
X168150000Y-108730000D03*
X171850000Y-108730000D03*
X168150000Y-107270000D03*
X170000000Y-105810000D03*
X171850000Y-110190000D03*
X168150000Y-110190000D03*
X170000000Y-107270000D03*
X168150000Y-111650000D03*
X170000000Y-108730000D03*
D26*
X170000000Y-108000000D03*
D14*
X170000000Y-110190000D03*
X171850000Y-104350000D03*
X168150000Y-105810000D03*
X168150000Y-104350000D03*
X171850000Y-105810000D03*
X171850000Y-111650000D03*
X170000000Y-104350000D03*
X171850000Y-107270000D03*
%TD*%
D23*
%TO.P,J2,1,Pin_1*%
%TO.N,/M2A*%
X169000000Y-90000000D03*
D24*
%TO.P,J2,2,Pin_2*%
%TO.N,/M2B*%
X164000000Y-90000000D03*
%TD*%
D27*
%TO.P,R1,1*%
%TO.N,GND*%
X162500000Y-114412500D03*
%TO.P,R1,2*%
%TO.N,Net-(R1-Pad2)*%
X162500000Y-112587500D03*
%TD*%
D16*
%TO.P,J10,1,Pin_1*%
%TO.N,/M1A*%
X135500000Y-94000000D03*
D17*
%TO.P,J10,2,Pin_2*%
%TO.N,/M1B*%
X131540000Y-94000000D03*
%TD*%
D14*
%TO.P,REF\u002A\u002A,1*%
%TO.N,GND*%
X125197056Y-86802944D03*
D15*
X123500000Y-88500000D03*
D14*
X123500000Y-90900000D03*
X121100000Y-88500000D03*
X125900000Y-88500000D03*
X123500000Y-86100000D03*
X121802944Y-86802944D03*
X121802944Y-90197056D03*
X125197056Y-90197056D03*
D15*
X123500000Y-88500000D03*
%TD*%
D28*
%TO.P,C2,1*%
%TO.N,VCC*%
X138316000Y-110174000D03*
%TO.P,C2,2*%
%TO.N,GND*%
X138316000Y-112074000D03*
%TD*%
%TO.P,C3,1*%
%TO.N,VCC*%
X178448000Y-109600000D03*
%TO.P,C3,2*%
%TO.N,GND*%
X178448000Y-111500000D03*
%TD*%
D29*
%TO.P,Q1,1,S*%
%TO.N,VCC*%
X143845000Y-103475000D03*
%TO.P,Q1,2,S*%
X145115000Y-103475000D03*
%TO.P,Q1,3,S*%
X146385000Y-103475000D03*
%TO.P,Q1,4,G*%
%TO.N,GND*%
X147655000Y-103475000D03*
%TO.P,Q1,5,D*%
%TO.N,VBUS*%
X147655000Y-98525000D03*
%TO.P,Q1,6,D*%
X146385000Y-98525000D03*
%TO.P,Q1,7,D*%
X145115000Y-98525000D03*
%TO.P,Q1,8,D*%
X143845000Y-98525000D03*
%TD*%
D23*
%TO.P,J1,1,Pin_1*%
%TO.N,/M1A*%
X136000000Y-90000000D03*
D24*
%TO.P,J1,2,Pin_2*%
%TO.N,/M1B*%
X131000000Y-90000000D03*
%TD*%
D30*
%TO.P,C1,1*%
%TO.N,VCC*%
X152750000Y-102616651D03*
D31*
%TO.P,C1,2*%
%TO.N,GND*%
X152750000Y-99116651D03*
%TD*%
D10*
%TO.P,J6,1,Pin_1*%
%TO.N,GND*%
X165500000Y-130000000D03*
%TO.P,J6,2,Pin_2*%
%TO.N,+3V3*%
X166500000Y-130000000D03*
%TO.P,J6,3,Pin_3*%
%TO.N,/SDA*%
X167500000Y-130000000D03*
%TO.P,J6,4,Pin_4*%
%TO.N,/SCL*%
X168500000Y-130000000D03*
D11*
%TO.P,J6,MP*%
%TO.N,N/C*%
X164200000Y-133875000D03*
X169800000Y-133875000D03*
%TD*%
D25*
%TO.P,U1,1,DIR*%
%TO.N,/M1_DIR*%
X134800000Y-110500000D03*
%TO.P,U1,2,VSO*%
%TO.N,+3V3*%
X134800000Y-109500000D03*
%TO.P,U1,3,SO*%
%TO.N,/M1_FLAG*%
X134800000Y-108500000D03*
%TO.P,U1,4,VS*%
%TO.N,VCC*%
X134800000Y-107500000D03*
%TO.P,U1,5,OUT1*%
%TO.N,/M1A*%
X134800000Y-106500000D03*
%TO.P,U1,6,GND*%
%TO.N,GND*%
X134800000Y-105500000D03*
%TO.P,U1,7,OUT2*%
%TO.N,/M1B*%
X125200000Y-105500000D03*
%TO.P,U1,8,SI*%
%TO.N,GND*%
X125200000Y-106500000D03*
%TO.P,U1,9,CSN*%
X125200000Y-107500000D03*
%TO.P,U1,10,CSK*%
X125200000Y-108500000D03*
%TO.P,U1,11,DIS*%
%TO.N,/ENABLE*%
X125200000Y-109500000D03*
%TO.P,U1,12,PWM*%
%TO.N,/M1_PWM*%
X125200000Y-110500000D03*
D14*
%TO.P,U1,13,GND*%
%TO.N,GND*%
X128150000Y-105810000D03*
X128150000Y-111650000D03*
X128150000Y-104350000D03*
X131850000Y-107270000D03*
X130000000Y-107270000D03*
X131850000Y-110190000D03*
X131850000Y-111650000D03*
X131850000Y-105810000D03*
X128150000Y-108730000D03*
X130000000Y-110190000D03*
X131850000Y-108730000D03*
X131850000Y-104350000D03*
X128150000Y-110190000D03*
D26*
X130000000Y-108000000D03*
D14*
X128150000Y-107270000D03*
X130000000Y-105810000D03*
X130000000Y-108730000D03*
X130000000Y-104350000D03*
X130000000Y-111650000D03*
%TD*%
D32*
%TO.P,J8,1,Pin_1*%
%TO.N,/ENC1_B*%
X122450000Y-101000000D03*
D13*
%TO.P,J8,2,Pin_2*%
%TO.N,/ENC1_A*%
X122450000Y-99000000D03*
%TO.P,J8,3,Pin_3*%
%TO.N,+3V3*%
X122450000Y-97000000D03*
%TO.P,J8,4,Pin_4*%
%TO.N,GND*%
X122450000Y-95000000D03*
%TD*%
D33*
%TO.N,GND*%
X150000000Y-132000000D03*
X150000000Y-133500000D03*
X162500000Y-117000000D03*
X142126000Y-126110000D03*
X177000000Y-111600000D03*
X162500000Y-115500000D03*
X163500000Y-117000000D03*
X150000000Y-130500000D03*
X163500000Y-115500000D03*
X138600000Y-113400000D03*
%TO.N,VCC*%
X160000000Y-108000000D03*
X145500000Y-105500000D03*
X147000000Y-105500000D03*
X162000000Y-108000000D03*
X142500000Y-105500000D03*
X148500000Y-105500000D03*
X178800000Y-107400000D03*
X137000000Y-107600000D03*
X178800000Y-108600000D03*
X162000000Y-107000000D03*
X161000000Y-108000000D03*
X137046000Y-108584000D03*
X161000000Y-107000000D03*
X176800000Y-107400000D03*
X138570000Y-108584000D03*
X176800000Y-108600000D03*
X138570000Y-107568000D03*
X160000000Y-107000000D03*
X144000000Y-105500000D03*
%TO.N,+3V3*%
X136792000Y-110108000D03*
X142000000Y-123500000D03*
X177000000Y-110000000D03*
X166500000Y-131250000D03*
X132500000Y-131500000D03*
%TO.N,/M1_PWM*%
X125200000Y-111400000D03*
X142126000Y-121030000D03*
%TO.N,/M2_DIR*%
X173750000Y-111500000D03*
X158128000Y-123570000D03*
%TO.N,/ENC1_A*%
X146200000Y-110500000D03*
%TO.N,/ENC1_B*%
X148600000Y-110500000D03*
%TO.N,/ENC2_B*%
X153800000Y-110500000D03*
%TO.N,/ENC2_A*%
X151400000Y-110500000D03*
%TO.N,/M1_FLAG*%
X143600000Y-110500000D03*
X133400000Y-108400000D03*
%TO.N,/M2_FLAG*%
X173000000Y-108400000D03*
X156400000Y-110600000D03*
%TO.N,/ENABLE*%
X142450000Y-115950000D03*
X126600000Y-109600000D03*
%TO.N,Net-(JP1-Pad1)*%
X157600000Y-116000000D03*
%TO.N,Net-(JP2-Pad1)*%
X157600000Y-118400000D03*
%TD*%
D34*
%TO.N,/M1B*%
X132250000Y-91250000D02*
X132250000Y-93290000D01*
X131000000Y-90000000D02*
X132250000Y-91250000D01*
X132250000Y-93290000D02*
X131540000Y-94000000D01*
%TO.N,/M2B*%
X165250000Y-93290000D02*
X164540000Y-94000000D01*
X165250000Y-91250000D02*
X165250000Y-93290000D01*
X164000000Y-90000000D02*
X165250000Y-91250000D01*
%TO.N,/M2A*%
X169000000Y-93500000D02*
X168500000Y-94000000D01*
X169000000Y-90000000D02*
X169000000Y-93500000D01*
%TO.N,/M1A*%
X136000000Y-93500000D02*
X135500000Y-94000000D01*
X136000000Y-90000000D02*
X136000000Y-93500000D01*
D35*
%TO.N,GND*%
X152263349Y-99116651D02*
X153000000Y-99116651D01*
X147905000Y-103475000D02*
X152263349Y-99116651D01*
D36*
X134800000Y-105500000D02*
X130310000Y-105500000D01*
D35*
X177100000Y-111500000D02*
X177000000Y-111600000D01*
D36*
X139840000Y-126110000D02*
X142126000Y-126110000D01*
D35*
X138600000Y-113400000D02*
X138600000Y-112358000D01*
X178448000Y-111500000D02*
X177100000Y-111500000D01*
D36*
X167880000Y-108500000D02*
X168650000Y-109270000D01*
X174800000Y-105500000D02*
X170310000Y-105500000D01*
%TO.N,VCC*%
X134800000Y-107500000D02*
X136900000Y-107500000D01*
D35*
X178800000Y-108600000D02*
X178800000Y-109248000D01*
D36*
X176700000Y-107500000D02*
X176800000Y-107400000D01*
D35*
X162500000Y-109062500D02*
X162500000Y-108500000D01*
D36*
X136900000Y-107500000D02*
X137000000Y-107600000D01*
D35*
X162500000Y-108500000D02*
X162000000Y-108000000D01*
X138570000Y-108584000D02*
X138570000Y-109920000D01*
D36*
X174800000Y-107500000D02*
X176700000Y-107500000D01*
%TO.N,+3V3*%
X136792000Y-110108000D02*
X136184000Y-109500000D01*
X174800000Y-109500000D02*
X176500000Y-109500000D01*
D35*
X166500000Y-130000000D02*
X166500000Y-131250000D01*
D36*
X176500000Y-109500000D02*
X177000000Y-110000000D01*
D35*
X132500000Y-130000000D02*
X132500000Y-131500000D01*
D36*
X141930000Y-123570000D02*
X142000000Y-123500000D01*
X139840000Y-123570000D02*
X141930000Y-123570000D01*
X136184000Y-109500000D02*
X134800000Y-109500000D01*
%TO.N,/M1A*%
X134800000Y-106500000D02*
X138750000Y-106500000D01*
%TO.N,/M2A*%
X174800000Y-106500000D02*
X178956000Y-106500000D01*
D35*
%TO.N,/M1_DIR*%
X135000000Y-114800000D02*
X135000000Y-110700000D01*
X139840000Y-118490000D02*
X138690000Y-118490000D01*
X138690000Y-118490000D02*
X135000000Y-114800000D01*
%TO.N,/M1_PWM*%
X125200000Y-110500000D02*
X125200000Y-111400000D01*
X142126000Y-121030000D02*
X139840000Y-121030000D01*
%TO.N,/SDA*%
X144500000Y-131500000D02*
X134000000Y-131500000D01*
X160160000Y-128650000D02*
X147350000Y-128650000D01*
X134000000Y-131500000D02*
X133500000Y-131000000D01*
X160160000Y-128650000D02*
X166650000Y-128650000D01*
X166650000Y-128650000D02*
X167500000Y-129500000D01*
X147350000Y-128650000D02*
X144500000Y-131500000D01*
X133500000Y-131000000D02*
X133500000Y-130000000D01*
%TO.N,/SCL*%
X135936511Y-127563489D02*
X134500000Y-129000000D01*
X160160000Y-126110000D02*
X146390000Y-126110000D01*
X134500000Y-129000000D02*
X134500000Y-130000000D01*
X146390000Y-126110000D02*
X144936511Y-127563489D01*
X144936511Y-127563489D02*
X135936511Y-127563489D01*
X165110000Y-126110000D02*
X168500000Y-129500000D01*
X160160000Y-126110000D02*
X165110000Y-126110000D01*
%TO.N,/M2_DIR*%
X173750000Y-111500000D02*
X173750000Y-110750000D01*
X173750000Y-110750000D02*
X174000000Y-110500000D01*
X160160000Y-123570000D02*
X158128000Y-123570000D01*
%TO.N,/M2_PWM*%
X160160000Y-121030000D02*
X162700000Y-121030000D01*
X165400000Y-118330000D02*
X165400000Y-110700000D01*
X162700000Y-121030000D02*
X165400000Y-118330000D01*
%TO.N,Net-(R1-Pad2)*%
X162500000Y-110937500D02*
X162500000Y-112587500D01*
%TO.N,/ENC1_A*%
X146190000Y-110490000D02*
X146200000Y-110500000D01*
X146190000Y-108076000D02*
X146190000Y-110490000D01*
%TO.N,/ENC1_B*%
X148600000Y-110500000D02*
X148600000Y-107946000D01*
%TO.N,/ENC2_B*%
X153800000Y-110500000D02*
X153800000Y-108066000D01*
%TO.N,/ENC2_A*%
X151400000Y-110500000D02*
X151400000Y-107946000D01*
%TO.N,/M1_FLAG*%
X143600000Y-110500000D02*
X143600000Y-108126000D01*
X134800000Y-108500000D02*
X133500000Y-108500000D01*
X133500000Y-108500000D02*
X133400000Y-108400000D01*
%TO.N,/M2_FLAG*%
X173000000Y-108400000D02*
X173100000Y-108500000D01*
X156350000Y-110550000D02*
X156350000Y-108076000D01*
X156400000Y-110600000D02*
X156350000Y-110550000D01*
X173100000Y-108500000D02*
X174800000Y-108500000D01*
%TO.N,/ENABLE*%
X164000000Y-109500000D02*
X163500000Y-110000000D01*
X126500000Y-109500000D02*
X126600000Y-109600000D01*
X160500000Y-110000000D02*
X154550000Y-115950000D01*
X125200000Y-109500000D02*
X126500000Y-109500000D01*
X142450000Y-115950000D02*
X139840000Y-115950000D01*
X154550000Y-115950000D02*
X142450000Y-115950000D01*
X163500000Y-110000000D02*
X160500000Y-110000000D01*
X165200000Y-109500000D02*
X164000000Y-109500000D01*
%TO.N,Net-(JP1-Pad1)*%
X157600000Y-116000000D02*
X157650000Y-115950000D01*
X157650000Y-115950000D02*
X160160000Y-115950000D01*
%TO.N,Net-(JP2-Pad1)*%
X157600000Y-118400000D02*
X157690000Y-118490000D01*
X157690000Y-118490000D02*
X160160000Y-118490000D01*
%TD*%
%TA.AperFunction,Conductor*%
%TO.N,GND*%
G36*
X162500000Y-134492000D02*
G01*
X137034500Y-134492000D01*
X136966379Y-134471998D01*
X136919886Y-134418342D01*
X136908500Y-134366000D01*
X136908500Y-133174600D01*
X136897526Y-133068834D01*
X136841550Y-132901054D01*
X136748478Y-132750652D01*
X136623303Y-132625695D01*
X136472738Y-132532885D01*
X136392995Y-132506436D01*
X136311389Y-132479368D01*
X136311387Y-132479368D01*
X136304861Y-132477203D01*
X136298025Y-132476503D01*
X136298022Y-132476502D01*
X136254969Y-132472091D01*
X136200400Y-132466500D01*
X136000000Y-132466500D01*
X136000000Y-132133500D01*
X144421233Y-132133500D01*
X144432416Y-132134027D01*
X144439909Y-132135702D01*
X144447835Y-132135453D01*
X144447836Y-132135453D01*
X144507986Y-132133562D01*
X144511945Y-132133500D01*
X144539856Y-132133500D01*
X144543791Y-132133003D01*
X144543856Y-132132995D01*
X144555693Y-132132062D01*
X144587951Y-132131048D01*
X144591970Y-132130922D01*
X144599889Y-132130673D01*
X144619343Y-132125021D01*
X144638700Y-132121013D01*
X144650930Y-132119468D01*
X144650931Y-132119468D01*
X144658797Y-132118474D01*
X144666168Y-132115555D01*
X144666170Y-132115555D01*
X144699912Y-132102196D01*
X144711142Y-132098351D01*
X144745983Y-132088229D01*
X144745984Y-132088229D01*
X144753593Y-132086018D01*
X144760412Y-132081985D01*
X144760417Y-132081983D01*
X144771028Y-132075707D01*
X144788776Y-132067012D01*
X144807617Y-132059552D01*
X144843387Y-132033564D01*
X144853307Y-132027048D01*
X144884535Y-132008580D01*
X144884538Y-132008578D01*
X144891362Y-132004542D01*
X144905683Y-131990221D01*
X144920717Y-131977380D01*
X144930694Y-131970131D01*
X144937107Y-131965472D01*
X144965298Y-131931395D01*
X144973288Y-131922616D01*
X146858999Y-130036905D01*
X146921311Y-130002879D01*
X146948094Y-130000000D01*
X162500000Y-130000000D01*
X162500000Y-134492000D01*
G37*
%TD.AperFunction*%
%TD*%
%TA.AperFunction,Conductor*%
%TO.N,GND*%
G36*
X130638121Y-106064002D02*
G01*
X130684614Y-106117658D01*
X130696000Y-106170000D01*
X130696000Y-108966000D01*
X130675998Y-109034121D01*
X130622342Y-109080614D01*
X130570000Y-109092000D01*
X127421199Y-109092000D01*
X127353078Y-109071998D01*
X127327563Y-109050310D01*
X127312987Y-109034121D01*
X127211253Y-108921134D01*
X127056752Y-108808882D01*
X127050724Y-108806198D01*
X127050722Y-108806197D01*
X126888319Y-108733891D01*
X126888318Y-108733891D01*
X126882288Y-108731206D01*
X126788356Y-108711240D01*
X126701944Y-108692872D01*
X126701939Y-108692872D01*
X126695487Y-108691500D01*
X126504513Y-108691500D01*
X126473335Y-108698127D01*
X126447622Y-108703592D01*
X126377197Y-108698327D01*
X126317711Y-108676027D01*
X126317709Y-108676027D01*
X126310316Y-108673255D01*
X126302468Y-108672402D01*
X126302466Y-108672402D01*
X126251531Y-108666869D01*
X126248134Y-108666500D01*
X124218000Y-108666500D01*
X124149879Y-108646498D01*
X124103386Y-108592842D01*
X124092000Y-108540500D01*
X124092000Y-106459500D01*
X124112002Y-106391379D01*
X124165658Y-106344886D01*
X124218000Y-106333500D01*
X126248134Y-106333500D01*
X126310316Y-106326745D01*
X126446705Y-106275615D01*
X126453892Y-106270229D01*
X126453895Y-106270227D01*
X126457706Y-106267371D01*
X126524213Y-106242524D01*
X126533269Y-106242198D01*
X126560365Y-106242198D01*
X126595189Y-106237191D01*
X126626183Y-106232735D01*
X126626187Y-106232734D01*
X126630639Y-106232094D01*
X126634951Y-106230828D01*
X126634955Y-106230827D01*
X126760725Y-106193897D01*
X126769372Y-106191358D01*
X126891010Y-106113186D01*
X126935339Y-106074775D01*
X126999920Y-106045282D01*
X127017851Y-106044000D01*
X130570000Y-106044000D01*
X130638121Y-106064002D01*
G37*
%TD.AperFunction*%
%TD*%
%TA.AperFunction,Conductor*%
%TO.N,VCC*%
G36*
X139500000Y-109000000D02*
G01*
X136819487Y-109000000D01*
X136751366Y-108979998D01*
X136737908Y-108970025D01*
X136704945Y-108942021D01*
X136697429Y-108935091D01*
X136691685Y-108929347D01*
X136688811Y-108927073D01*
X136688804Y-108927067D01*
X136669289Y-108911628D01*
X136665885Y-108908837D01*
X136615528Y-108866055D01*
X136615524Y-108866052D01*
X136609949Y-108861316D01*
X136603432Y-108857988D01*
X136598368Y-108854611D01*
X136593144Y-108851384D01*
X136587400Y-108846840D01*
X136561109Y-108834552D01*
X136520918Y-108815768D01*
X136516967Y-108813837D01*
X136458117Y-108783787D01*
X136451596Y-108780457D01*
X136444481Y-108778716D01*
X136438735Y-108776579D01*
X136432951Y-108774655D01*
X136426321Y-108771556D01*
X136419159Y-108770066D01*
X136419152Y-108770064D01*
X136408839Y-108767919D01*
X136346219Y-108734463D01*
X136311628Y-108672463D01*
X136308500Y-108644560D01*
X136308500Y-108126866D01*
X136301745Y-108064684D01*
X136254155Y-107937737D01*
X136246211Y-107897826D01*
X136228897Y-107392817D01*
X136246553Y-107324051D01*
X136298584Y-107275747D01*
X136354823Y-107262500D01*
X138794525Y-107262500D01*
X138894469Y-107250848D01*
X138909058Y-107250000D01*
X139500000Y-107250000D01*
X139500000Y-109000000D01*
G37*
%TD.AperFunction*%
%TD*%
%TA.AperFunction,Conductor*%
%TO.N,GND*%
G36*
X124286308Y-111620002D02*
G01*
X124332801Y-111673658D01*
X124338018Y-111687059D01*
X124365473Y-111771556D01*
X124460960Y-111936944D01*
X124588747Y-112078866D01*
X124743248Y-112191118D01*
X124749276Y-112193802D01*
X124749278Y-112193803D01*
X124911681Y-112266109D01*
X124917712Y-112268794D01*
X125011112Y-112288647D01*
X125098056Y-112307128D01*
X125098061Y-112307128D01*
X125104513Y-112308500D01*
X125295487Y-112308500D01*
X125301939Y-112307128D01*
X125301944Y-112307128D01*
X125388888Y-112288647D01*
X125482288Y-112268794D01*
X125488319Y-112266109D01*
X125650722Y-112193803D01*
X125650724Y-112193802D01*
X125656752Y-112191118D01*
X125811253Y-112078866D01*
X125939040Y-111936944D01*
X126034527Y-111771556D01*
X126061981Y-111687063D01*
X126102053Y-111628458D01*
X126167450Y-111600821D01*
X126181813Y-111600000D01*
X134240500Y-111600000D01*
X134308621Y-111620002D01*
X134355114Y-111673658D01*
X134366500Y-111726000D01*
X134366500Y-114721233D01*
X134365973Y-114732416D01*
X134364298Y-114739909D01*
X134364547Y-114747835D01*
X134364547Y-114747836D01*
X134366438Y-114807986D01*
X134366500Y-114811945D01*
X134366500Y-114839856D01*
X134366997Y-114843790D01*
X134366997Y-114843791D01*
X134367005Y-114843856D01*
X134367938Y-114855693D01*
X134369327Y-114899889D01*
X134374978Y-114919339D01*
X134378987Y-114938700D01*
X134381526Y-114958797D01*
X134384445Y-114966168D01*
X134384445Y-114966170D01*
X134397804Y-114999912D01*
X134401649Y-115011142D01*
X134413982Y-115053593D01*
X134418015Y-115060412D01*
X134418017Y-115060417D01*
X134424293Y-115071028D01*
X134432988Y-115088776D01*
X134440448Y-115107617D01*
X134445110Y-115114033D01*
X134445110Y-115114034D01*
X134466436Y-115143387D01*
X134472952Y-115153307D01*
X134495458Y-115191362D01*
X134509779Y-115205683D01*
X134522619Y-115220716D01*
X134534528Y-115237107D01*
X134540634Y-115242158D01*
X134568605Y-115265298D01*
X134577384Y-115273288D01*
X136963095Y-117659000D01*
X136997121Y-117721312D01*
X137000000Y-117748095D01*
X137000000Y-126803989D01*
X136979998Y-126872110D01*
X136926342Y-126918603D01*
X136874000Y-126929989D01*
X136015274Y-126929989D01*
X136004090Y-126929462D01*
X135996602Y-126927788D01*
X135988679Y-126928037D01*
X135928544Y-126929927D01*
X135924586Y-126929989D01*
X135896655Y-126929989D01*
X135892740Y-126930484D01*
X135892736Y-126930484D01*
X135892678Y-126930492D01*
X135892649Y-126930495D01*
X135880807Y-126931428D01*
X135836621Y-126932816D01*
X135819255Y-126937861D01*
X135817169Y-126938467D01*
X135797817Y-126942475D01*
X135790746Y-126943369D01*
X135777714Y-126945015D01*
X135770345Y-126947932D01*
X135770343Y-126947933D01*
X135736608Y-126961289D01*
X135725380Y-126965134D01*
X135682918Y-126977471D01*
X135676096Y-126981505D01*
X135676090Y-126981508D01*
X135665479Y-126987783D01*
X135647729Y-126996479D01*
X135636267Y-127001017D01*
X135636262Y-127001020D01*
X135628894Y-127003937D01*
X135622479Y-127008598D01*
X135593136Y-127029916D01*
X135583218Y-127036432D01*
X135565513Y-127046903D01*
X135545148Y-127058947D01*
X135530824Y-127073271D01*
X135515792Y-127086110D01*
X135499404Y-127098017D01*
X135471223Y-127132082D01*
X135463233Y-127140862D01*
X134107747Y-128496348D01*
X134099461Y-128503888D01*
X134092982Y-128508000D01*
X134087557Y-128513777D01*
X134046357Y-128557651D01*
X134043602Y-128560493D01*
X134023865Y-128580230D01*
X134021385Y-128583427D01*
X134013682Y-128592447D01*
X133983414Y-128624679D01*
X133979595Y-128631625D01*
X133979593Y-128631628D01*
X133973652Y-128642434D01*
X133962801Y-128658953D01*
X133950386Y-128674959D01*
X133948676Y-128678909D01*
X133897961Y-128726262D01*
X133828111Y-128738967D01*
X133806255Y-128734668D01*
X133753831Y-128719438D01*
X133747421Y-128718933D01*
X133747418Y-128718933D01*
X133718958Y-128716693D01*
X133718950Y-128716693D01*
X133716502Y-128716500D01*
X133283498Y-128716500D01*
X133281050Y-128716693D01*
X133281042Y-128716693D01*
X133252579Y-128718933D01*
X133252574Y-128718934D01*
X133246169Y-128719438D01*
X133146231Y-128748472D01*
X133094012Y-128763643D01*
X133094010Y-128763644D01*
X133086399Y-128765855D01*
X133079576Y-128769890D01*
X133079574Y-128769891D01*
X133064137Y-128779020D01*
X132995321Y-128796478D01*
X132935863Y-128779020D01*
X132920426Y-128769891D01*
X132920424Y-128769890D01*
X132913601Y-128765855D01*
X132905990Y-128763644D01*
X132905988Y-128763643D01*
X132853769Y-128748472D01*
X132753831Y-128719438D01*
X132747426Y-128718934D01*
X132747421Y-128718933D01*
X132718958Y-128716693D01*
X132718950Y-128716693D01*
X132716502Y-128716500D01*
X132283498Y-128716500D01*
X132281050Y-128716693D01*
X132281042Y-128716693D01*
X132252579Y-128718933D01*
X132252574Y-128718934D01*
X132246169Y-128719438D01*
X132146231Y-128748472D01*
X132094012Y-128763643D01*
X132094010Y-128763644D01*
X132086399Y-128765855D01*
X132079575Y-128769891D01*
X132079573Y-128769892D01*
X131950020Y-128846509D01*
X131950017Y-128846511D01*
X131943193Y-128850547D01*
X131825547Y-128968193D01*
X131821511Y-128975017D01*
X131821509Y-128975020D01*
X131760395Y-129078359D01*
X131740855Y-129111399D01*
X131694438Y-129271169D01*
X131691500Y-129308498D01*
X131691500Y-130691502D01*
X131694438Y-130728831D01*
X131696233Y-130735008D01*
X131738643Y-130880989D01*
X131738645Y-130880993D01*
X131740855Y-130888601D01*
X131743486Y-130893050D01*
X131752032Y-130962295D01*
X131736817Y-131004872D01*
X131665473Y-131128444D01*
X131606458Y-131310072D01*
X131605768Y-131316633D01*
X131605768Y-131316635D01*
X131590982Y-131457319D01*
X131586496Y-131500000D01*
X131606458Y-131689928D01*
X131665473Y-131871556D01*
X131760960Y-132036944D01*
X131765378Y-132041851D01*
X131765379Y-132041852D01*
X131852149Y-132138220D01*
X131888747Y-132178866D01*
X132043248Y-132291118D01*
X132049276Y-132293802D01*
X132049278Y-132293803D01*
X132211681Y-132366109D01*
X132217712Y-132368794D01*
X132311113Y-132388647D01*
X132398056Y-132407128D01*
X132398061Y-132407128D01*
X132404513Y-132408500D01*
X132595487Y-132408500D01*
X132601939Y-132407128D01*
X132601944Y-132407128D01*
X132688887Y-132388647D01*
X132782288Y-132368794D01*
X132788319Y-132366109D01*
X132950722Y-132293803D01*
X132950724Y-132293802D01*
X132956752Y-132291118D01*
X133111253Y-132178866D01*
X133147851Y-132138220D01*
X133234621Y-132041852D01*
X133234622Y-132041851D01*
X133239040Y-132036944D01*
X133303657Y-131925024D01*
X133355039Y-131876031D01*
X133424753Y-131862595D01*
X133490664Y-131888981D01*
X133506126Y-131904065D01*
X133508000Y-131907018D01*
X133513777Y-131912443D01*
X133557651Y-131953643D01*
X133560493Y-131956398D01*
X133580230Y-131976135D01*
X133583427Y-131978615D01*
X133592447Y-131986318D01*
X133624679Y-132016586D01*
X133631625Y-132020405D01*
X133631628Y-132020407D01*
X133642434Y-132026348D01*
X133658953Y-132037199D01*
X133674959Y-132049614D01*
X133682228Y-132052759D01*
X133682232Y-132052762D01*
X133715537Y-132067174D01*
X133726187Y-132072391D01*
X133764940Y-132093695D01*
X133772615Y-132095666D01*
X133772616Y-132095666D01*
X133784562Y-132098733D01*
X133803267Y-132105137D01*
X133821855Y-132113181D01*
X133829678Y-132114420D01*
X133829688Y-132114423D01*
X133865524Y-132120099D01*
X133877144Y-132122505D01*
X133912289Y-132131528D01*
X133919970Y-132133500D01*
X133940224Y-132133500D01*
X133959934Y-132135051D01*
X133979943Y-132138220D01*
X133987835Y-132137474D01*
X134023961Y-132134059D01*
X134035819Y-132133500D01*
X137000000Y-132133500D01*
X137000000Y-134481870D01*
X136966379Y-134471998D01*
X136919886Y-134418342D01*
X136908500Y-134366000D01*
X136908500Y-133174600D01*
X136897526Y-133068834D01*
X136841550Y-132901054D01*
X136748478Y-132750652D01*
X136623303Y-132625695D01*
X136578395Y-132598013D01*
X136478968Y-132536725D01*
X136478966Y-132536724D01*
X136472738Y-132532885D01*
X136312254Y-132479655D01*
X136311389Y-132479368D01*
X136311387Y-132479368D01*
X136304861Y-132477203D01*
X136298025Y-132476503D01*
X136298022Y-132476502D01*
X136254969Y-132472091D01*
X136200400Y-132466500D01*
X135399600Y-132466500D01*
X135396354Y-132466837D01*
X135396350Y-132466837D01*
X135300692Y-132476762D01*
X135300688Y-132476763D01*
X135293834Y-132477474D01*
X135287298Y-132479655D01*
X135287296Y-132479655D01*
X135155194Y-132523728D01*
X135126054Y-132533450D01*
X134975652Y-132626522D01*
X134850695Y-132751697D01*
X134757885Y-132902262D01*
X134702203Y-133070139D01*
X134691500Y-133174600D01*
X134691500Y-134366000D01*
X134671498Y-134434121D01*
X134617842Y-134480614D01*
X134565500Y-134492000D01*
X131434500Y-134492000D01*
X131366379Y-134471998D01*
X131319886Y-134418342D01*
X131308500Y-134366000D01*
X131308500Y-133174600D01*
X131297526Y-133068834D01*
X131241550Y-132901054D01*
X131148478Y-132750652D01*
X131023303Y-132625695D01*
X130978395Y-132598013D01*
X130878968Y-132536725D01*
X130878966Y-132536724D01*
X130872738Y-132532885D01*
X130712254Y-132479655D01*
X130711389Y-132479368D01*
X130711387Y-132479368D01*
X130704861Y-132477203D01*
X130698025Y-132476503D01*
X130698022Y-132476502D01*
X130654969Y-132472091D01*
X130600400Y-132466500D01*
X129799600Y-132466500D01*
X129796354Y-132466837D01*
X129796350Y-132466837D01*
X129700692Y-132476762D01*
X129700688Y-132476763D01*
X129693834Y-132477474D01*
X129687298Y-132479655D01*
X129687296Y-132479655D01*
X129555194Y-132523728D01*
X129526054Y-132533450D01*
X129375652Y-132626522D01*
X129250695Y-132751697D01*
X129157885Y-132902262D01*
X129102203Y-133070139D01*
X129091500Y-133174600D01*
X129091500Y-134366000D01*
X129071498Y-134434121D01*
X129017842Y-134480614D01*
X128965500Y-134492000D01*
X123549328Y-134492000D01*
X123529943Y-134490500D01*
X123515142Y-134488195D01*
X123515139Y-134488195D01*
X123506270Y-134486814D01*
X123497369Y-134487978D01*
X123497365Y-134487978D01*
X123487589Y-134489257D01*
X123464657Y-134490148D01*
X123193851Y-134475956D01*
X123180735Y-134474578D01*
X122884450Y-134427651D01*
X122871550Y-134424909D01*
X122581795Y-134347269D01*
X122569258Y-134343195D01*
X122289214Y-134235696D01*
X122277165Y-134230332D01*
X122009883Y-134094145D01*
X121998462Y-134087551D01*
X121746879Y-133924172D01*
X121736209Y-133916419D01*
X121503092Y-133727645D01*
X121493291Y-133718820D01*
X121281180Y-133506709D01*
X121272355Y-133496908D01*
X121083581Y-133263791D01*
X121075828Y-133253121D01*
X120912449Y-133001538D01*
X120905855Y-132990117D01*
X120769668Y-132722835D01*
X120764304Y-132710787D01*
X120697488Y-132536725D01*
X120656805Y-132430742D01*
X120652731Y-132418205D01*
X120575091Y-132128450D01*
X120572349Y-132115550D01*
X120551237Y-131982255D01*
X120525422Y-131819264D01*
X120524044Y-131806148D01*
X120518341Y-131697318D01*
X120510236Y-131542666D01*
X120511564Y-131516688D01*
X120511805Y-131515144D01*
X120511805Y-131515140D01*
X120513186Y-131506270D01*
X120510727Y-131487461D01*
X120509064Y-131474749D01*
X120508000Y-131458411D01*
X120508000Y-111726000D01*
X120528002Y-111657879D01*
X120581658Y-111611386D01*
X120634000Y-111600000D01*
X124218187Y-111600000D01*
X124286308Y-111620002D01*
G37*
%TD.AperFunction*%
%TD*%
%TA.AperFunction,Conductor*%
%TO.N,/M2B*%
G36*
X165942121Y-87520002D02*
G01*
X165988614Y-87573658D01*
X166000000Y-87626000D01*
X166000000Y-89518379D01*
X165979998Y-89586500D01*
X165926342Y-89632993D01*
X165856068Y-89643097D01*
X165791488Y-89613603D01*
X165753104Y-89553877D01*
X165751107Y-89546187D01*
X165734878Y-89474467D01*
X165732154Y-89465556D01*
X165638143Y-89223806D01*
X165634132Y-89215397D01*
X165505422Y-88990202D01*
X165500211Y-88982476D01*
X165456996Y-88927658D01*
X165445071Y-88919187D01*
X165433537Y-88925673D01*
X164372022Y-89987188D01*
X164364408Y-90001132D01*
X164364539Y-90002965D01*
X164368790Y-90009580D01*
X165436094Y-91076884D01*
X165448474Y-91083644D01*
X165456815Y-91077400D01*
X165590832Y-90869048D01*
X165595275Y-90860864D01*
X165701807Y-90624370D01*
X165704997Y-90615605D01*
X165752731Y-90446356D01*
X165790473Y-90386223D01*
X165854734Y-90356040D01*
X165925112Y-90365390D01*
X165979262Y-90411306D01*
X166000000Y-90480558D01*
X166000000Y-92884993D01*
X165979255Y-92919955D01*
X164912022Y-93987188D01*
X164904408Y-94001132D01*
X164904539Y-94002965D01*
X164908790Y-94009580D01*
X165980644Y-95081434D01*
X166000000Y-95116881D01*
X166000000Y-95936638D01*
X165979998Y-96004759D01*
X165949137Y-96037784D01*
X162533457Y-98575146D01*
X162466846Y-98599711D01*
X162458320Y-98600000D01*
X160000000Y-98600000D01*
X160000000Y-98607794D01*
X159993878Y-98614859D01*
X159934152Y-98653243D01*
X159865316Y-98653243D01*
X159865291Y-98653349D01*
X159864845Y-98653243D01*
X159863155Y-98653243D01*
X159858971Y-98651846D01*
X159842351Y-98647895D01*
X159791486Y-98642369D01*
X159784672Y-98642000D01*
X159162115Y-98642000D01*
X159146876Y-98646475D01*
X159145671Y-98647865D01*
X159144000Y-98655548D01*
X159144000Y-101339884D01*
X159148475Y-101355123D01*
X159149865Y-101356328D01*
X159157548Y-101357999D01*
X159784669Y-101357999D01*
X159791490Y-101357629D01*
X159842349Y-101352106D01*
X159844858Y-101351509D01*
X159846872Y-101351614D01*
X159850207Y-101351252D01*
X159850266Y-101351792D01*
X159915758Y-101355214D01*
X159973400Y-101396662D01*
X159999483Y-101462693D01*
X160000000Y-101474093D01*
X160000000Y-101500000D01*
X162548846Y-101500000D01*
X162616967Y-101520002D01*
X162636677Y-101535658D01*
X163088861Y-101975281D01*
X166161832Y-104962892D01*
X166196731Y-105024719D01*
X166200000Y-105053233D01*
X166200000Y-105374000D01*
X166179998Y-105442121D01*
X166126342Y-105488614D01*
X166074000Y-105500000D01*
X159651154Y-105500000D01*
X159583033Y-105479998D01*
X159563322Y-105464341D01*
X159140468Y-105053233D01*
X156038168Y-102037108D01*
X156003269Y-101975281D01*
X156000000Y-101946767D01*
X156000000Y-100894669D01*
X157532001Y-100894669D01*
X157532371Y-100901490D01*
X157537895Y-100952352D01*
X157541521Y-100967604D01*
X157586676Y-101088054D01*
X157595214Y-101103649D01*
X157671715Y-101205724D01*
X157684276Y-101218285D01*
X157786351Y-101294786D01*
X157801946Y-101303324D01*
X157922394Y-101348478D01*
X157937649Y-101352105D01*
X157988514Y-101357631D01*
X157995328Y-101358000D01*
X158617885Y-101358000D01*
X158633124Y-101353525D01*
X158634329Y-101352135D01*
X158636000Y-101344452D01*
X158636000Y-100272115D01*
X158631525Y-100256876D01*
X158630135Y-100255671D01*
X158622452Y-100254000D01*
X157550116Y-100254000D01*
X157534877Y-100258475D01*
X157533672Y-100259865D01*
X157532001Y-100267548D01*
X157532001Y-100894669D01*
X156000000Y-100894669D01*
X156000000Y-99727885D01*
X157532000Y-99727885D01*
X157536475Y-99743124D01*
X157537865Y-99744329D01*
X157545548Y-99746000D01*
X158617885Y-99746000D01*
X158633124Y-99741525D01*
X158634329Y-99740135D01*
X158636000Y-99732452D01*
X158636000Y-98660116D01*
X158631525Y-98644877D01*
X158630135Y-98643672D01*
X158622452Y-98642001D01*
X157995331Y-98642001D01*
X157988510Y-98642371D01*
X157937648Y-98647895D01*
X157922396Y-98651521D01*
X157801946Y-98696676D01*
X157786351Y-98705214D01*
X157684276Y-98781715D01*
X157671715Y-98794276D01*
X157595214Y-98896351D01*
X157586676Y-98911946D01*
X157541522Y-99032394D01*
X157537895Y-99047649D01*
X157532369Y-99098514D01*
X157532000Y-99105328D01*
X157532000Y-99727885D01*
X156000000Y-99727885D01*
X156000000Y-95482263D01*
X163422904Y-95482263D01*
X163430294Y-95492566D01*
X163465455Y-95521192D01*
X163472731Y-95526305D01*
X163690514Y-95657421D01*
X163698428Y-95661454D01*
X163932523Y-95760581D01*
X163940928Y-95763458D01*
X164186650Y-95828610D01*
X164195382Y-95830276D01*
X164447835Y-95860155D01*
X164456703Y-95860573D01*
X164710843Y-95854584D01*
X164719698Y-95853747D01*
X164970459Y-95812009D01*
X164979093Y-95809936D01*
X165221477Y-95733280D01*
X165229739Y-95730009D01*
X165458895Y-95619970D01*
X165466619Y-95615564D01*
X165649218Y-95493556D01*
X165657506Y-95483638D01*
X165650249Y-95469459D01*
X164552812Y-94372022D01*
X164538868Y-94364408D01*
X164537035Y-94364539D01*
X164530420Y-94368790D01*
X163430070Y-95469140D01*
X163422904Y-95482263D01*
X156000000Y-95482263D01*
X156000000Y-93945942D01*
X162678348Y-93945942D01*
X162688328Y-94199960D01*
X162689302Y-94208784D01*
X162734978Y-94458875D01*
X162737182Y-94467462D01*
X162817636Y-94708613D01*
X162821040Y-94716831D01*
X162934667Y-94944235D01*
X162939185Y-94951874D01*
X163047294Y-95108296D01*
X163057612Y-95116647D01*
X163071267Y-95109523D01*
X164167978Y-94012812D01*
X164175592Y-93998868D01*
X164175461Y-93997035D01*
X164171210Y-93990420D01*
X163071423Y-92890633D01*
X163058582Y-92883621D01*
X163047893Y-92891416D01*
X163002115Y-92949485D01*
X162997122Y-92956833D01*
X162869440Y-93176655D01*
X162865532Y-93184629D01*
X162770097Y-93420247D01*
X162767348Y-93428709D01*
X162706067Y-93675413D01*
X162704538Y-93684174D01*
X162678627Y-93937059D01*
X162678348Y-93945942D01*
X156000000Y-93945942D01*
X156000000Y-92518533D01*
X163423889Y-92518533D01*
X163430869Y-92531659D01*
X164527188Y-93627978D01*
X164541132Y-93635592D01*
X164542965Y-93635461D01*
X164549580Y-93631210D01*
X165649129Y-92531661D01*
X165655983Y-92519109D01*
X165647776Y-92508039D01*
X165566230Y-92445805D01*
X165558801Y-92440925D01*
X165337005Y-92316713D01*
X165328971Y-92312932D01*
X165091865Y-92221203D01*
X165083392Y-92218596D01*
X164835736Y-92161193D01*
X164826960Y-92159803D01*
X164573691Y-92137868D01*
X164564820Y-92137728D01*
X164310976Y-92151698D01*
X164302174Y-92152810D01*
X164052832Y-92202408D01*
X164044279Y-92204748D01*
X163804421Y-92288978D01*
X163796255Y-92292512D01*
X163570669Y-92409696D01*
X163563097Y-92414335D01*
X163432292Y-92507810D01*
X163423889Y-92518533D01*
X156000000Y-92518533D01*
X156000000Y-92059709D01*
X156020002Y-91991588D01*
X156046212Y-91962190D01*
X156243780Y-91800544D01*
X156678449Y-91444906D01*
X162919839Y-91444906D01*
X162928553Y-91456427D01*
X163035452Y-91534809D01*
X163043351Y-91539745D01*
X163272905Y-91660519D01*
X163281454Y-91664236D01*
X163526327Y-91749749D01*
X163535336Y-91752163D01*
X163790166Y-91800544D01*
X163799423Y-91801598D01*
X164058607Y-91811783D01*
X164067921Y-91811457D01*
X164325753Y-91783220D01*
X164334930Y-91781519D01*
X164585758Y-91715481D01*
X164594574Y-91712445D01*
X164832880Y-91610062D01*
X164841167Y-91605748D01*
X165061718Y-91469266D01*
X165069268Y-91463780D01*
X165074559Y-91459301D01*
X165082997Y-91446497D01*
X165076935Y-91436145D01*
X164012812Y-90372022D01*
X163998868Y-90364408D01*
X163997035Y-90364539D01*
X163990420Y-90368790D01*
X162926497Y-91432713D01*
X162919839Y-91444906D01*
X156678449Y-91444906D01*
X158496742Y-89957211D01*
X162187775Y-89957211D01*
X162200220Y-90216288D01*
X162201356Y-90225543D01*
X162251961Y-90479945D01*
X162254449Y-90488917D01*
X162342095Y-90733033D01*
X162345895Y-90741568D01*
X162468658Y-90970042D01*
X162473666Y-90977904D01*
X162543720Y-91071716D01*
X162554979Y-91080165D01*
X162567397Y-91073393D01*
X163627978Y-90012812D01*
X163635592Y-89998868D01*
X163635461Y-89997035D01*
X163631210Y-89990420D01*
X162565816Y-88925026D01*
X162552507Y-88917758D01*
X162542472Y-88924878D01*
X162526937Y-88943556D01*
X162521531Y-88951135D01*
X162386965Y-89172891D01*
X162382736Y-89181192D01*
X162282432Y-89420389D01*
X162279471Y-89429239D01*
X162215628Y-89680625D01*
X162214006Y-89689822D01*
X162188020Y-89947885D01*
X162187775Y-89957211D01*
X158496742Y-89957211D01*
X160213380Y-88552689D01*
X162917102Y-88552689D01*
X162921675Y-88562465D01*
X163987188Y-89627978D01*
X164001132Y-89635592D01*
X164002965Y-89635461D01*
X164009580Y-89631210D01*
X165074349Y-88566441D01*
X165080733Y-88554751D01*
X165071321Y-88542641D01*
X164924045Y-88440471D01*
X164916010Y-88435738D01*
X164683376Y-88321016D01*
X164674743Y-88317528D01*
X164427703Y-88238450D01*
X164418643Y-88236274D01*
X164162630Y-88194580D01*
X164153343Y-88193768D01*
X163893992Y-88190373D01*
X163884681Y-88190943D01*
X163627682Y-88225919D01*
X163618546Y-88227860D01*
X163369543Y-88300439D01*
X163360800Y-88303707D01*
X163125252Y-88412296D01*
X163117097Y-88416816D01*
X162926240Y-88541947D01*
X162917102Y-88552689D01*
X160213380Y-88552689D01*
X161465190Y-87528481D01*
X161530579Y-87500825D01*
X161544978Y-87500000D01*
X165874000Y-87500000D01*
X165942121Y-87520002D01*
G37*
%TD.AperFunction*%
%TD*%
%TA.AperFunction,Conductor*%
%TO.N,VBUS*%
G36*
X149942085Y-87520021D02*
G01*
X149988596Y-87573662D01*
X150000000Y-87626042D01*
X150000000Y-93238837D01*
X149979998Y-93306958D01*
X149926342Y-93353451D01*
X149856068Y-93363555D01*
X149791488Y-93334061D01*
X149755788Y-93282447D01*
X149739256Y-93237635D01*
X149735599Y-93229535D01*
X149614881Y-93005807D01*
X149610122Y-92998309D01*
X149532004Y-92892545D01*
X149520876Y-92884103D01*
X149508283Y-92890927D01*
X148412022Y-93987188D01*
X148404408Y-94001132D01*
X148404539Y-94002965D01*
X148408790Y-94009580D01*
X149510027Y-95110817D01*
X149523428Y-95118135D01*
X149533329Y-95111149D01*
X149544127Y-95098305D01*
X149549353Y-95091110D01*
X149683867Y-94875425D01*
X149688038Y-94867547D01*
X149758760Y-94707577D01*
X149804598Y-94653361D01*
X149872471Y-94632533D01*
X149940829Y-94651707D01*
X149987970Y-94704795D01*
X150000000Y-94758524D01*
X150000000Y-100374000D01*
X149979998Y-100442121D01*
X149926342Y-100488614D01*
X149874000Y-100500000D01*
X144361230Y-100500000D01*
X144293109Y-100479998D01*
X144246616Y-100426342D01*
X144236203Y-100389628D01*
X144000973Y-98507784D01*
X144000000Y-98492156D01*
X144000000Y-95482263D01*
X146922904Y-95482263D01*
X146930294Y-95492566D01*
X146965455Y-95521192D01*
X146972731Y-95526305D01*
X147190514Y-95657421D01*
X147198428Y-95661454D01*
X147432523Y-95760581D01*
X147440928Y-95763458D01*
X147686650Y-95828610D01*
X147695382Y-95830276D01*
X147947835Y-95860155D01*
X147956703Y-95860573D01*
X148210843Y-95854584D01*
X148219698Y-95853747D01*
X148470459Y-95812009D01*
X148479093Y-95809936D01*
X148721477Y-95733280D01*
X148729739Y-95730009D01*
X148958895Y-95619970D01*
X148966619Y-95615564D01*
X149149218Y-95493556D01*
X149157506Y-95483638D01*
X149150249Y-95469459D01*
X148052812Y-94372022D01*
X148038868Y-94364408D01*
X148037035Y-94364539D01*
X148030420Y-94368790D01*
X146930070Y-95469140D01*
X146922904Y-95482263D01*
X144000000Y-95482263D01*
X144000000Y-93945942D01*
X146178348Y-93945942D01*
X146188328Y-94199960D01*
X146189302Y-94208784D01*
X146234978Y-94458875D01*
X146237182Y-94467462D01*
X146317636Y-94708613D01*
X146321040Y-94716831D01*
X146434667Y-94944235D01*
X146439185Y-94951874D01*
X146547294Y-95108296D01*
X146557612Y-95116647D01*
X146571267Y-95109523D01*
X147667978Y-94012812D01*
X147675592Y-93998868D01*
X147675461Y-93997035D01*
X147671210Y-93990420D01*
X146571423Y-92890633D01*
X146558582Y-92883621D01*
X146547893Y-92891416D01*
X146502115Y-92949485D01*
X146497122Y-92956833D01*
X146369440Y-93176655D01*
X146365532Y-93184629D01*
X146270097Y-93420247D01*
X146267348Y-93428709D01*
X146206067Y-93675413D01*
X146204538Y-93684174D01*
X146178627Y-93937059D01*
X146178348Y-93945942D01*
X144000000Y-93945942D01*
X144000000Y-92518533D01*
X146923889Y-92518533D01*
X146930869Y-92531659D01*
X148027188Y-93627978D01*
X148041132Y-93635592D01*
X148042965Y-93635461D01*
X148049580Y-93631210D01*
X149149129Y-92531661D01*
X149155983Y-92519109D01*
X149147776Y-92508039D01*
X149066230Y-92445805D01*
X149058801Y-92440925D01*
X148837005Y-92316713D01*
X148828971Y-92312932D01*
X148591865Y-92221203D01*
X148583392Y-92218596D01*
X148335736Y-92161193D01*
X148326960Y-92159803D01*
X148073691Y-92137868D01*
X148064820Y-92137728D01*
X147810976Y-92151698D01*
X147802174Y-92152810D01*
X147552832Y-92202408D01*
X147544279Y-92204748D01*
X147304421Y-92288978D01*
X147296255Y-92292512D01*
X147070669Y-92409696D01*
X147063097Y-92414335D01*
X146932292Y-92507810D01*
X146923889Y-92518533D01*
X144000000Y-92518533D01*
X144000000Y-91444906D01*
X146419839Y-91444906D01*
X146428553Y-91456427D01*
X146535452Y-91534809D01*
X146543351Y-91539745D01*
X146772905Y-91660519D01*
X146781454Y-91664236D01*
X147026327Y-91749749D01*
X147035336Y-91752163D01*
X147290166Y-91800544D01*
X147299423Y-91801598D01*
X147558607Y-91811783D01*
X147567921Y-91811457D01*
X147825753Y-91783220D01*
X147834930Y-91781519D01*
X148085758Y-91715481D01*
X148094574Y-91712445D01*
X148332880Y-91610062D01*
X148341167Y-91605748D01*
X148561718Y-91469266D01*
X148569268Y-91463780D01*
X148574559Y-91459301D01*
X148582997Y-91446497D01*
X148576935Y-91436145D01*
X147512812Y-90372022D01*
X147498868Y-90364408D01*
X147497035Y-90364539D01*
X147490420Y-90368790D01*
X146426497Y-91432713D01*
X146419839Y-91444906D01*
X144000000Y-91444906D01*
X144000000Y-89957211D01*
X145687775Y-89957211D01*
X145700220Y-90216288D01*
X145701356Y-90225543D01*
X145751961Y-90479945D01*
X145754449Y-90488917D01*
X145842095Y-90733033D01*
X145845895Y-90741568D01*
X145968658Y-90970042D01*
X145973666Y-90977904D01*
X146043720Y-91071716D01*
X146054979Y-91080165D01*
X146067397Y-91073393D01*
X147127978Y-90012812D01*
X147134356Y-90001132D01*
X147864408Y-90001132D01*
X147864539Y-90002965D01*
X147868790Y-90009580D01*
X148936094Y-91076884D01*
X148948474Y-91083644D01*
X148956815Y-91077400D01*
X149090832Y-90869048D01*
X149095275Y-90860864D01*
X149201807Y-90624370D01*
X149204997Y-90615605D01*
X149275402Y-90365972D01*
X149277262Y-90356830D01*
X149310187Y-90098019D01*
X149310668Y-90091733D01*
X149312987Y-90003160D01*
X149312836Y-89996851D01*
X149293501Y-89736663D01*
X149292125Y-89727457D01*
X149234878Y-89474467D01*
X149232154Y-89465556D01*
X149138143Y-89223806D01*
X149134132Y-89215397D01*
X149005422Y-88990202D01*
X149000211Y-88982476D01*
X148956996Y-88927658D01*
X148945071Y-88919187D01*
X148933537Y-88925673D01*
X147872022Y-89987188D01*
X147864408Y-90001132D01*
X147134356Y-90001132D01*
X147135592Y-89998868D01*
X147135461Y-89997035D01*
X147131210Y-89990420D01*
X146065816Y-88925026D01*
X146052507Y-88917758D01*
X146042472Y-88924878D01*
X146026937Y-88943556D01*
X146021531Y-88951135D01*
X145886965Y-89172891D01*
X145882736Y-89181192D01*
X145782432Y-89420389D01*
X145779471Y-89429239D01*
X145715628Y-89680625D01*
X145714006Y-89689822D01*
X145688020Y-89947885D01*
X145687775Y-89957211D01*
X144000000Y-89957211D01*
X144000000Y-88552689D01*
X146417102Y-88552689D01*
X146421675Y-88562465D01*
X147487188Y-89627978D01*
X147501132Y-89635592D01*
X147502965Y-89635461D01*
X147509580Y-89631210D01*
X148574349Y-88566441D01*
X148580733Y-88554751D01*
X148571321Y-88542641D01*
X148424045Y-88440471D01*
X148416010Y-88435738D01*
X148183376Y-88321016D01*
X148174743Y-88317528D01*
X147927703Y-88238450D01*
X147918643Y-88236274D01*
X147662630Y-88194580D01*
X147653343Y-88193768D01*
X147393992Y-88190373D01*
X147384681Y-88190943D01*
X147127682Y-88225919D01*
X147118546Y-88227860D01*
X146869543Y-88300439D01*
X146860800Y-88303707D01*
X146625252Y-88412296D01*
X146617097Y-88416816D01*
X146426240Y-88541947D01*
X146417102Y-88552689D01*
X144000000Y-88552689D01*
X144000000Y-87627958D01*
X144020002Y-87559837D01*
X144073658Y-87513344D01*
X144125958Y-87501958D01*
X149873958Y-87500042D01*
X149942085Y-87520021D01*
G37*
%TD.AperFunction*%
%TD*%
%TA.AperFunction,Conductor*%
%TO.N,/M1B*%
G36*
X133178121Y-87520002D02*
G01*
X133224614Y-87573658D01*
X133236000Y-87626000D01*
X133236000Y-92793560D01*
X133215998Y-92861681D01*
X133162342Y-92908174D01*
X133092068Y-92918278D01*
X133033845Y-92893941D01*
X133020877Y-92884103D01*
X133008283Y-92890927D01*
X131912022Y-93987188D01*
X131904408Y-94001132D01*
X131904539Y-94002965D01*
X131908790Y-94009580D01*
X133010027Y-95110817D01*
X133023428Y-95118135D01*
X133037367Y-95108301D01*
X133104560Y-95085376D01*
X133173481Y-95102419D01*
X133222247Y-95154017D01*
X133236000Y-95211259D01*
X133236000Y-95929283D01*
X133215998Y-95997404D01*
X133175635Y-96036837D01*
X129680000Y-98170000D01*
X129680000Y-98583657D01*
X129659998Y-98651778D01*
X129606342Y-98698271D01*
X129536068Y-98708375D01*
X129506904Y-98698650D01*
X129506462Y-98699828D01*
X129377606Y-98651522D01*
X129362351Y-98647895D01*
X129311486Y-98642369D01*
X129304672Y-98642000D01*
X128682115Y-98642000D01*
X128666876Y-98646475D01*
X128665671Y-98647865D01*
X128664000Y-98655548D01*
X128664000Y-101339884D01*
X128668475Y-101355123D01*
X128669865Y-101356328D01*
X128677548Y-101357999D01*
X129028528Y-101357999D01*
X129096649Y-101378001D01*
X129143142Y-101431657D01*
X129153246Y-101501931D01*
X129121114Y-101569460D01*
X126632000Y-104266000D01*
X126632000Y-105614651D01*
X126611998Y-105682772D01*
X126558342Y-105729265D01*
X126488068Y-105739369D01*
X126449568Y-105726530D01*
X126446705Y-105724385D01*
X126438304Y-105721236D01*
X126438301Y-105721234D01*
X126357586Y-105690976D01*
X126310316Y-105673255D01*
X126248134Y-105666500D01*
X124151866Y-105666500D01*
X124089684Y-105673255D01*
X123953295Y-105724385D01*
X123836739Y-105811739D01*
X123831358Y-105818919D01*
X123754767Y-105921113D01*
X123754765Y-105921116D01*
X123749385Y-105928295D01*
X123746830Y-105935111D01*
X123697176Y-105984655D01*
X123636914Y-106000000D01*
X120634000Y-106000000D01*
X120565879Y-105979998D01*
X120519386Y-105926342D01*
X120508000Y-105874000D01*
X120508000Y-98945604D01*
X121062787Y-98945604D01*
X121072567Y-99156899D01*
X121073971Y-99162724D01*
X121073971Y-99162725D01*
X121120512Y-99355840D01*
X121122125Y-99362534D01*
X121124607Y-99367992D01*
X121124608Y-99367996D01*
X121168053Y-99463546D01*
X121209674Y-99555087D01*
X121332054Y-99727611D01*
X121336381Y-99731753D01*
X121336386Y-99731759D01*
X121427317Y-99818806D01*
X121462694Y-99880361D01*
X121459175Y-99951270D01*
X121417879Y-100009021D01*
X121406496Y-100016965D01*
X121350652Y-100051522D01*
X121225695Y-100176697D01*
X121221855Y-100182927D01*
X121221854Y-100182928D01*
X121177015Y-100255671D01*
X121132885Y-100327262D01*
X121077203Y-100495139D01*
X121066500Y-100599600D01*
X121066500Y-101400400D01*
X121077474Y-101506166D01*
X121079655Y-101512702D01*
X121079655Y-101512704D01*
X121123728Y-101644806D01*
X121133450Y-101673946D01*
X121226522Y-101824348D01*
X121351697Y-101949305D01*
X121357927Y-101953145D01*
X121357928Y-101953146D01*
X121495090Y-102037694D01*
X121502262Y-102042115D01*
X121582005Y-102068564D01*
X121663611Y-102095632D01*
X121663613Y-102095632D01*
X121670139Y-102097797D01*
X121676975Y-102098497D01*
X121676978Y-102098498D01*
X121720031Y-102102909D01*
X121774600Y-102108500D01*
X123125400Y-102108500D01*
X123128646Y-102108163D01*
X123128650Y-102108163D01*
X123224308Y-102098238D01*
X123224312Y-102098237D01*
X123231166Y-102097526D01*
X123237702Y-102095345D01*
X123237704Y-102095345D01*
X123369806Y-102051272D01*
X123398946Y-102041550D01*
X123549348Y-101948478D01*
X123674305Y-101823303D01*
X123767115Y-101672738D01*
X123822797Y-101504861D01*
X123833500Y-101400400D01*
X123833500Y-100894669D01*
X127052001Y-100894669D01*
X127052371Y-100901490D01*
X127057895Y-100952352D01*
X127061521Y-100967604D01*
X127106676Y-101088054D01*
X127115214Y-101103649D01*
X127191715Y-101205724D01*
X127204276Y-101218285D01*
X127306351Y-101294786D01*
X127321946Y-101303324D01*
X127442394Y-101348478D01*
X127457649Y-101352105D01*
X127508514Y-101357631D01*
X127515328Y-101358000D01*
X128137885Y-101358000D01*
X128153124Y-101353525D01*
X128154329Y-101352135D01*
X128156000Y-101344452D01*
X128156000Y-100272115D01*
X128151525Y-100256876D01*
X128150135Y-100255671D01*
X128142452Y-100254000D01*
X127070116Y-100254000D01*
X127054877Y-100258475D01*
X127053672Y-100259865D01*
X127052001Y-100267548D01*
X127052001Y-100894669D01*
X123833500Y-100894669D01*
X123833500Y-100599600D01*
X123822526Y-100493834D01*
X123766550Y-100326054D01*
X123673478Y-100175652D01*
X123548303Y-100050695D01*
X123496764Y-100018925D01*
X123449271Y-99966154D01*
X123437847Y-99896082D01*
X123466121Y-99830958D01*
X123485045Y-99812582D01*
X123492920Y-99806396D01*
X123496852Y-99801865D01*
X123496855Y-99801862D01*
X123561049Y-99727885D01*
X127052000Y-99727885D01*
X127056475Y-99743124D01*
X127057865Y-99744329D01*
X127065548Y-99746000D01*
X128137885Y-99746000D01*
X128153124Y-99741525D01*
X128154329Y-99740135D01*
X128156000Y-99732452D01*
X128156000Y-98660116D01*
X128151525Y-98644877D01*
X128150135Y-98643672D01*
X128142452Y-98642001D01*
X127515331Y-98642001D01*
X127508510Y-98642371D01*
X127457648Y-98647895D01*
X127442396Y-98651521D01*
X127321946Y-98696676D01*
X127306351Y-98705214D01*
X127204276Y-98781715D01*
X127191715Y-98794276D01*
X127115214Y-98896351D01*
X127106676Y-98911946D01*
X127061522Y-99032394D01*
X127057895Y-99047649D01*
X127052369Y-99098514D01*
X127052000Y-99105328D01*
X127052000Y-99727885D01*
X123561049Y-99727885D01*
X123627621Y-99651167D01*
X123631552Y-99646637D01*
X123634552Y-99641451D01*
X123634555Y-99641447D01*
X123734467Y-99468742D01*
X123737473Y-99463546D01*
X123806861Y-99263729D01*
X123837213Y-99054396D01*
X123827433Y-98843101D01*
X123781324Y-98651778D01*
X123779281Y-98643299D01*
X123779280Y-98643297D01*
X123777875Y-98637466D01*
X123753410Y-98583657D01*
X123692806Y-98450368D01*
X123690326Y-98444913D01*
X123567946Y-98272389D01*
X123415150Y-98126119D01*
X123409255Y-98122312D01*
X123382837Y-98105254D01*
X123336460Y-98051499D01*
X123326507Y-97981203D01*
X123356139Y-97916686D01*
X123373353Y-97900317D01*
X123380446Y-97894746D01*
X123492920Y-97806396D01*
X123496852Y-97801865D01*
X123496855Y-97801862D01*
X123627621Y-97651167D01*
X123631552Y-97646637D01*
X123634552Y-97641451D01*
X123634555Y-97641447D01*
X123734467Y-97468742D01*
X123737473Y-97463546D01*
X123806861Y-97263729D01*
X123837213Y-97054396D01*
X123827433Y-96843101D01*
X123777875Y-96637466D01*
X123734525Y-96542122D01*
X123692806Y-96450368D01*
X123690326Y-96444913D01*
X123567946Y-96272389D01*
X123415150Y-96126119D01*
X123409255Y-96122312D01*
X123382837Y-96105254D01*
X123336460Y-96051499D01*
X123326507Y-95981203D01*
X123356139Y-95916686D01*
X123373353Y-95900317D01*
X123380446Y-95894746D01*
X123492920Y-95806396D01*
X123496852Y-95801865D01*
X123496855Y-95801862D01*
X123627621Y-95651167D01*
X123631552Y-95646637D01*
X123634552Y-95641451D01*
X123634555Y-95641447D01*
X123726645Y-95482263D01*
X130422904Y-95482263D01*
X130430294Y-95492566D01*
X130465455Y-95521192D01*
X130472731Y-95526305D01*
X130690514Y-95657421D01*
X130698428Y-95661454D01*
X130932523Y-95760581D01*
X130940928Y-95763458D01*
X131186650Y-95828610D01*
X131195382Y-95830276D01*
X131447835Y-95860155D01*
X131456703Y-95860573D01*
X131710843Y-95854584D01*
X131719698Y-95853747D01*
X131970459Y-95812009D01*
X131979093Y-95809936D01*
X132221477Y-95733280D01*
X132229739Y-95730009D01*
X132458895Y-95619970D01*
X132466619Y-95615564D01*
X132649218Y-95493556D01*
X132657506Y-95483638D01*
X132650249Y-95469459D01*
X131552812Y-94372022D01*
X131538868Y-94364408D01*
X131537035Y-94364539D01*
X131530420Y-94368790D01*
X130430070Y-95469140D01*
X130422904Y-95482263D01*
X123726645Y-95482263D01*
X123734467Y-95468742D01*
X123737473Y-95463546D01*
X123806861Y-95263729D01*
X123828187Y-95116647D01*
X123836352Y-95060336D01*
X123836352Y-95060333D01*
X123837213Y-95054396D01*
X123827433Y-94843101D01*
X123777875Y-94637466D01*
X123734525Y-94542122D01*
X123692806Y-94450368D01*
X123690326Y-94444913D01*
X123567946Y-94272389D01*
X123415150Y-94126119D01*
X123237452Y-94011380D01*
X123177354Y-93987160D01*
X123075079Y-93945942D01*
X129678348Y-93945942D01*
X129688328Y-94199960D01*
X129689302Y-94208784D01*
X129734978Y-94458875D01*
X129737182Y-94467462D01*
X129817636Y-94708613D01*
X129821040Y-94716831D01*
X129934667Y-94944235D01*
X129939185Y-94951874D01*
X130047294Y-95108296D01*
X130057612Y-95116647D01*
X130071267Y-95109523D01*
X131167978Y-94012812D01*
X131175592Y-93998868D01*
X131175461Y-93997035D01*
X131171210Y-93990420D01*
X130071423Y-92890633D01*
X130058582Y-92883621D01*
X130047893Y-92891416D01*
X130002115Y-92949485D01*
X129997122Y-92956833D01*
X129869440Y-93176655D01*
X129865532Y-93184629D01*
X129770097Y-93420247D01*
X129767348Y-93428709D01*
X129706067Y-93675413D01*
X129704538Y-93684174D01*
X129678627Y-93937059D01*
X129678348Y-93945942D01*
X123075079Y-93945942D01*
X123046832Y-93934558D01*
X123046829Y-93934557D01*
X123041263Y-93932314D01*
X122833663Y-93891772D01*
X122828101Y-93891500D01*
X122122154Y-93891500D01*
X121964434Y-93906548D01*
X121761466Y-93966092D01*
X121756139Y-93968836D01*
X121756138Y-93968836D01*
X121578751Y-94060196D01*
X121578748Y-94060198D01*
X121573420Y-94062942D01*
X121407080Y-94193604D01*
X121403148Y-94198135D01*
X121403145Y-94198138D01*
X121334474Y-94277275D01*
X121268448Y-94353363D01*
X121265448Y-94358549D01*
X121265445Y-94358553D01*
X121202440Y-94467462D01*
X121162527Y-94536454D01*
X121093139Y-94736271D01*
X121062787Y-94945604D01*
X121072567Y-95156899D01*
X121122125Y-95362534D01*
X121124607Y-95367992D01*
X121124608Y-95367996D01*
X121168053Y-95463546D01*
X121209674Y-95555087D01*
X121332054Y-95727611D01*
X121484850Y-95873881D01*
X121489888Y-95877134D01*
X121517163Y-95894746D01*
X121563540Y-95948501D01*
X121573493Y-96018797D01*
X121543861Y-96083314D01*
X121526649Y-96099681D01*
X121407080Y-96193604D01*
X121403148Y-96198135D01*
X121403145Y-96198138D01*
X121334474Y-96277275D01*
X121268448Y-96353363D01*
X121265448Y-96358549D01*
X121265445Y-96358553D01*
X121218312Y-96440026D01*
X121162527Y-96536454D01*
X121093139Y-96736271D01*
X121062787Y-96945604D01*
X121072567Y-97156899D01*
X121122125Y-97362534D01*
X121124607Y-97367992D01*
X121124608Y-97367996D01*
X121168053Y-97463546D01*
X121209674Y-97555087D01*
X121332054Y-97727611D01*
X121484850Y-97873881D01*
X121489888Y-97877134D01*
X121517163Y-97894746D01*
X121563540Y-97948501D01*
X121573493Y-98018797D01*
X121543861Y-98083314D01*
X121526649Y-98099681D01*
X121407080Y-98193604D01*
X121403148Y-98198135D01*
X121403145Y-98198138D01*
X121334474Y-98277275D01*
X121268448Y-98353363D01*
X121265448Y-98358549D01*
X121265445Y-98358553D01*
X121218312Y-98440026D01*
X121162527Y-98536454D01*
X121093139Y-98736271D01*
X121092278Y-98742206D01*
X121092278Y-98742208D01*
X121084729Y-98794276D01*
X121062787Y-98945604D01*
X120508000Y-98945604D01*
X120508000Y-93126000D01*
X120528002Y-93057879D01*
X120581658Y-93011386D01*
X120634000Y-93000000D01*
X126000000Y-93000000D01*
X126306388Y-92518533D01*
X130423889Y-92518533D01*
X130430869Y-92531659D01*
X131527188Y-93627978D01*
X131541132Y-93635592D01*
X131542965Y-93635461D01*
X131549580Y-93631210D01*
X132649129Y-92531661D01*
X132655983Y-92519109D01*
X132647776Y-92508039D01*
X132566230Y-92445805D01*
X132558801Y-92440925D01*
X132337005Y-92316713D01*
X132328971Y-92312932D01*
X132091865Y-92221203D01*
X132083392Y-92218596D01*
X131835736Y-92161193D01*
X131826960Y-92159803D01*
X131573691Y-92137868D01*
X131564820Y-92137728D01*
X131310976Y-92151698D01*
X131302174Y-92152810D01*
X131052832Y-92202408D01*
X131044279Y-92204748D01*
X130804421Y-92288978D01*
X130796255Y-92292512D01*
X130570669Y-92409696D01*
X130563097Y-92414335D01*
X130432292Y-92507810D01*
X130423889Y-92518533D01*
X126306388Y-92518533D01*
X126989605Y-91444906D01*
X129919839Y-91444906D01*
X129928553Y-91456427D01*
X130035452Y-91534809D01*
X130043351Y-91539745D01*
X130272905Y-91660519D01*
X130281454Y-91664236D01*
X130526327Y-91749749D01*
X130535336Y-91752163D01*
X130790166Y-91800544D01*
X130799423Y-91801598D01*
X131058607Y-91811783D01*
X131067921Y-91811457D01*
X131325753Y-91783220D01*
X131334930Y-91781519D01*
X131585758Y-91715481D01*
X131594574Y-91712445D01*
X131832880Y-91610062D01*
X131841167Y-91605748D01*
X132061718Y-91469266D01*
X132069268Y-91463780D01*
X132074559Y-91459301D01*
X132082997Y-91446497D01*
X132076935Y-91436145D01*
X131012812Y-90372022D01*
X130998868Y-90364408D01*
X130997035Y-90364539D01*
X130990420Y-90368790D01*
X129926497Y-91432713D01*
X129919839Y-91444906D01*
X126989605Y-91444906D01*
X127936320Y-89957211D01*
X129187775Y-89957211D01*
X129200220Y-90216288D01*
X129201356Y-90225543D01*
X129251961Y-90479945D01*
X129254449Y-90488917D01*
X129342095Y-90733033D01*
X129345895Y-90741568D01*
X129468658Y-90970042D01*
X129473666Y-90977904D01*
X129543720Y-91071716D01*
X129554979Y-91080165D01*
X129567397Y-91073393D01*
X130627978Y-90012812D01*
X130634356Y-90001132D01*
X131364408Y-90001132D01*
X131364539Y-90002965D01*
X131368790Y-90009580D01*
X132436094Y-91076884D01*
X132448474Y-91083644D01*
X132456815Y-91077400D01*
X132590832Y-90869048D01*
X132595275Y-90860864D01*
X132701807Y-90624370D01*
X132704997Y-90615605D01*
X132775402Y-90365972D01*
X132777262Y-90356830D01*
X132810187Y-90098019D01*
X132810668Y-90091733D01*
X132812987Y-90003160D01*
X132812836Y-89996851D01*
X132793501Y-89736663D01*
X132792125Y-89727457D01*
X132734878Y-89474467D01*
X132732154Y-89465556D01*
X132638143Y-89223806D01*
X132634132Y-89215397D01*
X132505422Y-88990202D01*
X132500211Y-88982476D01*
X132456996Y-88927658D01*
X132445071Y-88919187D01*
X132433537Y-88925673D01*
X131372022Y-89987188D01*
X131364408Y-90001132D01*
X130634356Y-90001132D01*
X130635592Y-89998868D01*
X130635461Y-89997035D01*
X130631210Y-89990420D01*
X129565816Y-88925026D01*
X129552507Y-88917758D01*
X129542472Y-88924878D01*
X129526937Y-88943556D01*
X129521531Y-88951135D01*
X129386965Y-89172891D01*
X129382736Y-89181192D01*
X129282432Y-89420389D01*
X129279471Y-89429239D01*
X129215628Y-89680625D01*
X129214006Y-89689822D01*
X129188020Y-89947885D01*
X129187775Y-89957211D01*
X127936320Y-89957211D01*
X128141070Y-89635461D01*
X128830107Y-88552689D01*
X129917102Y-88552689D01*
X129921675Y-88562465D01*
X130987188Y-89627978D01*
X131001132Y-89635592D01*
X131002965Y-89635461D01*
X131009580Y-89631210D01*
X132074349Y-88566441D01*
X132080733Y-88554751D01*
X132071321Y-88542641D01*
X131924045Y-88440471D01*
X131916010Y-88435738D01*
X131683376Y-88321016D01*
X131674743Y-88317528D01*
X131427703Y-88238450D01*
X131418643Y-88236274D01*
X131162630Y-88194580D01*
X131153343Y-88193768D01*
X130893992Y-88190373D01*
X130884681Y-88190943D01*
X130627682Y-88225919D01*
X130618546Y-88227860D01*
X130369543Y-88300439D01*
X130360800Y-88303707D01*
X130125252Y-88412296D01*
X130117097Y-88416816D01*
X129926240Y-88541947D01*
X129917102Y-88552689D01*
X128830107Y-88552689D01*
X129462866Y-87558354D01*
X129516313Y-87511621D01*
X129569167Y-87500000D01*
X133110000Y-87500000D01*
X133178121Y-87520002D01*
G37*
%TD.AperFunction*%
%TD*%
%TA.AperFunction,Conductor*%
%TO.N,/M1A*%
G36*
X138514028Y-87520002D02*
G01*
X138537257Y-87539218D01*
X143185584Y-92432193D01*
X143215350Y-92463526D01*
X143247767Y-92526689D01*
X143250000Y-92550308D01*
X143250000Y-97161550D01*
X143229998Y-97229671D01*
X143213095Y-97250645D01*
X143170547Y-97293193D01*
X143166511Y-97300017D01*
X143166509Y-97300020D01*
X143102893Y-97407589D01*
X143085855Y-97436399D01*
X143039438Y-97596169D01*
X143036500Y-97633498D01*
X143036500Y-99416502D01*
X143039438Y-99453831D01*
X143085855Y-99613601D01*
X143089892Y-99620427D01*
X143166509Y-99749980D01*
X143166511Y-99749983D01*
X143170547Y-99756807D01*
X143213095Y-99799355D01*
X143247121Y-99861667D01*
X143250000Y-99888450D01*
X143250000Y-101455392D01*
X143229998Y-101523513D01*
X143221933Y-101534671D01*
X139051934Y-106685846D01*
X138993526Y-106726207D01*
X138922569Y-106728584D01*
X138902752Y-106721674D01*
X138858319Y-106701891D01*
X138858318Y-106701891D01*
X138852288Y-106699206D01*
X138758888Y-106679353D01*
X138671944Y-106660872D01*
X138671939Y-106660872D01*
X138665487Y-106659500D01*
X138474513Y-106659500D01*
X138468061Y-106660872D01*
X138468056Y-106660872D01*
X138381112Y-106679353D01*
X138287712Y-106699206D01*
X138281685Y-106701889D01*
X138281677Y-106701892D01*
X138198091Y-106739107D01*
X138146843Y-106750000D01*
X137351283Y-106750000D01*
X137300034Y-106739107D01*
X137288319Y-106733891D01*
X137288317Y-106733891D01*
X137282288Y-106731206D01*
X137188888Y-106711353D01*
X137101944Y-106692872D01*
X137101939Y-106692872D01*
X137095487Y-106691500D01*
X136904513Y-106691500D01*
X136898061Y-106692872D01*
X136898056Y-106692872D01*
X136724170Y-106729833D01*
X136724167Y-106729834D01*
X136717712Y-106731206D01*
X136716253Y-106731855D01*
X136680618Y-106737500D01*
X136156000Y-106737500D01*
X136087879Y-106717498D01*
X136041386Y-106663842D01*
X136030000Y-106611500D01*
X136030000Y-106351162D01*
X136050002Y-106283041D01*
X136080435Y-106250336D01*
X136156080Y-106193643D01*
X136156081Y-106193642D01*
X136163261Y-106188261D01*
X136250615Y-106071705D01*
X136301745Y-105935316D01*
X136308500Y-105873134D01*
X136308500Y-105538408D01*
X136328502Y-105470287D01*
X136342022Y-105452828D01*
X139987696Y-101513296D01*
X139987696Y-101513295D01*
X140000000Y-101500000D01*
X140000000Y-101111938D01*
X140020002Y-101043817D01*
X140073658Y-100997324D01*
X140143932Y-100987220D01*
X140206485Y-101014993D01*
X140324441Y-101112922D01*
X140332881Y-101118831D01*
X140516756Y-101226279D01*
X140526042Y-101230729D01*
X140725001Y-101306703D01*
X140734899Y-101309579D01*
X140838250Y-101330606D01*
X140852299Y-101329410D01*
X140856000Y-101319065D01*
X140856000Y-101318517D01*
X141364000Y-101318517D01*
X141368064Y-101332359D01*
X141381478Y-101334393D01*
X141388184Y-101333534D01*
X141398262Y-101331392D01*
X141602255Y-101270191D01*
X141611842Y-101266433D01*
X141803095Y-101172739D01*
X141811945Y-101167464D01*
X141985328Y-101043792D01*
X141993200Y-101037139D01*
X142144052Y-100886812D01*
X142150730Y-100878965D01*
X142275003Y-100706020D01*
X142280313Y-100697183D01*
X142374670Y-100506267D01*
X142378469Y-100496672D01*
X142440377Y-100292910D01*
X142442555Y-100282837D01*
X142443986Y-100271962D01*
X142441775Y-100257778D01*
X142428617Y-100254000D01*
X141382115Y-100254000D01*
X141366876Y-100258475D01*
X141365671Y-100259865D01*
X141364000Y-100267548D01*
X141364000Y-101318517D01*
X140856000Y-101318517D01*
X140856000Y-99727885D01*
X141364000Y-99727885D01*
X141368475Y-99743124D01*
X141369865Y-99744329D01*
X141377548Y-99746000D01*
X142428344Y-99746000D01*
X142441875Y-99742027D01*
X142443180Y-99732947D01*
X142401214Y-99565875D01*
X142397894Y-99556124D01*
X142312972Y-99360814D01*
X142308105Y-99351739D01*
X142192426Y-99172926D01*
X142186136Y-99164757D01*
X142042806Y-99007240D01*
X142035273Y-99000215D01*
X141868139Y-98868222D01*
X141859552Y-98862517D01*
X141673117Y-98759599D01*
X141663705Y-98755369D01*
X141462959Y-98684280D01*
X141452988Y-98681646D01*
X141381837Y-98668972D01*
X141368540Y-98670432D01*
X141364000Y-98684989D01*
X141364000Y-99727885D01*
X140856000Y-99727885D01*
X140856000Y-98683102D01*
X140852082Y-98669758D01*
X140837806Y-98667771D01*
X140799324Y-98673660D01*
X140789288Y-98676051D01*
X140586868Y-98742212D01*
X140577359Y-98746209D01*
X140388463Y-98844542D01*
X140379738Y-98850036D01*
X140205298Y-98981010D01*
X140204606Y-98980089D01*
X140145431Y-99007979D01*
X140075040Y-98998721D01*
X140020829Y-98952877D01*
X140000000Y-98883486D01*
X140000000Y-98500000D01*
X137540378Y-98500000D01*
X137467142Y-98476530D01*
X134066733Y-96047666D01*
X134022927Y-95991796D01*
X134016281Y-95921111D01*
X134048905Y-95858054D01*
X134110441Y-95822645D01*
X134179637Y-95825543D01*
X134238719Y-95845140D01*
X134252081Y-95848005D01*
X134346439Y-95857672D01*
X134352855Y-95858000D01*
X135227885Y-95858000D01*
X135243124Y-95853525D01*
X135244329Y-95852135D01*
X135246000Y-95844452D01*
X135246000Y-95839885D01*
X135754000Y-95839885D01*
X135758475Y-95855124D01*
X135759865Y-95856329D01*
X135767548Y-95858000D01*
X136647096Y-95858000D01*
X136653611Y-95857663D01*
X136749203Y-95847744D01*
X136762602Y-95844850D01*
X136916783Y-95793412D01*
X136929962Y-95787238D01*
X137067807Y-95701937D01*
X137079208Y-95692901D01*
X137193739Y-95578170D01*
X137202751Y-95566759D01*
X137287818Y-95428755D01*
X137293962Y-95415577D01*
X137345139Y-95261284D01*
X137348005Y-95247919D01*
X137357672Y-95153561D01*
X137358000Y-95147145D01*
X137358000Y-94272115D01*
X137353525Y-94256876D01*
X137352135Y-94255671D01*
X137344452Y-94254000D01*
X135772115Y-94254000D01*
X135756876Y-94258475D01*
X135755671Y-94259865D01*
X135754000Y-94267548D01*
X135754000Y-95839885D01*
X135246000Y-95839885D01*
X135246000Y-93727885D01*
X135754000Y-93727885D01*
X135758475Y-93743124D01*
X135759865Y-93744329D01*
X135767548Y-93746000D01*
X137339885Y-93746000D01*
X137355124Y-93741525D01*
X137356329Y-93740135D01*
X137358000Y-93732452D01*
X137358000Y-92852904D01*
X137357663Y-92846389D01*
X137347744Y-92750797D01*
X137344850Y-92737398D01*
X137293412Y-92583217D01*
X137287238Y-92570038D01*
X137201937Y-92432193D01*
X137192901Y-92420792D01*
X137078170Y-92306261D01*
X137066759Y-92297249D01*
X136928755Y-92212182D01*
X136915577Y-92206038D01*
X136761284Y-92154861D01*
X136747919Y-92151995D01*
X136653561Y-92142328D01*
X136647144Y-92142000D01*
X135772115Y-92142000D01*
X135756876Y-92146475D01*
X135755671Y-92147865D01*
X135754000Y-92155548D01*
X135754000Y-93727885D01*
X135246000Y-93727885D01*
X135246000Y-92160115D01*
X135241525Y-92144876D01*
X135240135Y-92143671D01*
X135232452Y-92142000D01*
X134352904Y-92142000D01*
X134346389Y-92142337D01*
X134250797Y-92152256D01*
X134237395Y-92155150D01*
X134165875Y-92179011D01*
X134094926Y-92181595D01*
X134033842Y-92145411D01*
X134002018Y-92081947D01*
X134000000Y-92059487D01*
X134000000Y-91575098D01*
X134020002Y-91506977D01*
X134073658Y-91460484D01*
X134143932Y-91450380D01*
X134208512Y-91479874D01*
X134243982Y-91530868D01*
X134246676Y-91538054D01*
X134255214Y-91553649D01*
X134331715Y-91655724D01*
X134344276Y-91668285D01*
X134446351Y-91744786D01*
X134461946Y-91753324D01*
X134582394Y-91798478D01*
X134597649Y-91802105D01*
X134648514Y-91807631D01*
X134655328Y-91808000D01*
X135727885Y-91808000D01*
X135743124Y-91803525D01*
X135744329Y-91802135D01*
X135746000Y-91794452D01*
X135746000Y-91789884D01*
X136254000Y-91789884D01*
X136258475Y-91805123D01*
X136259865Y-91806328D01*
X136267548Y-91807999D01*
X137344669Y-91807999D01*
X137351490Y-91807629D01*
X137402352Y-91802105D01*
X137417604Y-91798479D01*
X137538054Y-91753324D01*
X137553649Y-91744786D01*
X137655724Y-91668285D01*
X137668285Y-91655724D01*
X137744786Y-91553649D01*
X137753324Y-91538054D01*
X137798478Y-91417606D01*
X137802105Y-91402351D01*
X137807631Y-91351486D01*
X137808000Y-91344672D01*
X137808000Y-90272115D01*
X137803525Y-90256876D01*
X137802135Y-90255671D01*
X137794452Y-90254000D01*
X136272115Y-90254000D01*
X136256876Y-90258475D01*
X136255671Y-90259865D01*
X136254000Y-90267548D01*
X136254000Y-91789884D01*
X135746000Y-91789884D01*
X135746000Y-89727885D01*
X136254000Y-89727885D01*
X136258475Y-89743124D01*
X136259865Y-89744329D01*
X136267548Y-89746000D01*
X137789884Y-89746000D01*
X137805123Y-89741525D01*
X137806328Y-89740135D01*
X137807999Y-89732452D01*
X137807999Y-88655331D01*
X137807629Y-88648510D01*
X137802105Y-88597648D01*
X137798479Y-88582396D01*
X137753324Y-88461946D01*
X137744786Y-88446351D01*
X137668285Y-88344276D01*
X137655724Y-88331715D01*
X137553649Y-88255214D01*
X137538054Y-88246676D01*
X137417606Y-88201522D01*
X137402351Y-88197895D01*
X137351486Y-88192369D01*
X137344672Y-88192000D01*
X136272115Y-88192000D01*
X136256876Y-88196475D01*
X136255671Y-88197865D01*
X136254000Y-88205548D01*
X136254000Y-89727885D01*
X135746000Y-89727885D01*
X135746000Y-88210116D01*
X135741525Y-88194877D01*
X135740135Y-88193672D01*
X135732452Y-88192001D01*
X134655331Y-88192001D01*
X134648510Y-88192371D01*
X134597648Y-88197895D01*
X134582396Y-88201521D01*
X134461946Y-88246676D01*
X134446351Y-88255214D01*
X134344276Y-88331715D01*
X134331715Y-88344276D01*
X134255214Y-88446351D01*
X134246676Y-88461946D01*
X134243982Y-88469132D01*
X134201340Y-88525896D01*
X134134778Y-88550596D01*
X134065430Y-88535388D01*
X134015312Y-88485102D01*
X134000000Y-88424902D01*
X134000000Y-87626000D01*
X134020002Y-87557879D01*
X134073658Y-87511386D01*
X134126000Y-87500000D01*
X138445907Y-87500000D01*
X138514028Y-87520002D01*
G37*
%TD.AperFunction*%
%TD*%
%TA.AperFunction,Conductor*%
%TO.N,GND*%
G36*
X169742121Y-106220002D02*
G01*
X169788614Y-106273658D01*
X169800000Y-106326000D01*
X169800000Y-108674000D01*
X169779998Y-108742121D01*
X169726342Y-108788614D01*
X169674000Y-108800000D01*
X166589573Y-108800000D01*
X166521452Y-108779998D01*
X166514008Y-108774826D01*
X166470370Y-108742121D01*
X166446705Y-108724385D01*
X166310316Y-108673255D01*
X166248134Y-108666500D01*
X164326000Y-108666500D01*
X164257879Y-108646498D01*
X164211386Y-108592842D01*
X164200000Y-108540500D01*
X164200000Y-106459500D01*
X164220002Y-106391379D01*
X164273658Y-106344886D01*
X164326000Y-106333500D01*
X166248134Y-106333500D01*
X166310316Y-106326745D01*
X166446705Y-106275615D01*
X166514008Y-106225174D01*
X166580514Y-106200326D01*
X166589573Y-106200000D01*
X169674000Y-106200000D01*
X169742121Y-106220002D01*
G37*
%TD.AperFunction*%
%TD*%
%TA.AperFunction,Conductor*%
%TO.N,/M2A*%
G36*
X171486988Y-87520002D02*
G01*
X171533573Y-87573861D01*
X173741906Y-92432193D01*
X174000000Y-93000000D01*
X179366000Y-93000000D01*
X179434121Y-93020002D01*
X179480614Y-93073658D01*
X179492000Y-93126000D01*
X179492000Y-106532511D01*
X179471998Y-106600632D01*
X179418342Y-106647125D01*
X179348068Y-106657229D01*
X179291939Y-106634447D01*
X179262094Y-106612763D01*
X179262093Y-106612762D01*
X179256752Y-106608882D01*
X179250724Y-106606198D01*
X179250722Y-106606197D01*
X179088319Y-106533891D01*
X179088318Y-106533891D01*
X179082288Y-106531206D01*
X178988887Y-106511353D01*
X178901944Y-106492872D01*
X178901939Y-106492872D01*
X178895487Y-106491500D01*
X178704513Y-106491500D01*
X178698061Y-106492872D01*
X178698056Y-106492872D01*
X178611113Y-106511353D01*
X178517712Y-106531206D01*
X178511682Y-106533891D01*
X178511681Y-106533891D01*
X178349278Y-106606197D01*
X178349276Y-106606198D01*
X178343248Y-106608882D01*
X178337907Y-106612762D01*
X178337906Y-106612763D01*
X178200061Y-106712914D01*
X178193366Y-106717778D01*
X178193364Y-106717779D01*
X178188747Y-106721134D01*
X178188134Y-106720290D01*
X178129658Y-106748353D01*
X178109353Y-106750000D01*
X177490647Y-106750000D01*
X177422526Y-106729998D01*
X177411991Y-106721954D01*
X177411253Y-106721134D01*
X177399940Y-106712914D01*
X177262094Y-106612763D01*
X177262093Y-106612762D01*
X177256752Y-106608882D01*
X177250724Y-106606198D01*
X177250722Y-106606197D01*
X177088319Y-106533891D01*
X177088318Y-106533891D01*
X177082288Y-106531206D01*
X176988887Y-106511353D01*
X176901944Y-106492872D01*
X176901939Y-106492872D01*
X176895487Y-106491500D01*
X176704513Y-106491500D01*
X176698061Y-106492872D01*
X176698056Y-106492872D01*
X176611113Y-106511353D01*
X176517712Y-106531206D01*
X176511682Y-106533891D01*
X176511681Y-106533891D01*
X176349278Y-106606197D01*
X176349276Y-106606198D01*
X176343248Y-106608882D01*
X176337907Y-106612762D01*
X176337906Y-106612763D01*
X176200061Y-106712914D01*
X176133194Y-106736772D01*
X176064042Y-106720692D01*
X176014562Y-106669778D01*
X176000000Y-106610978D01*
X176000000Y-106373646D01*
X176020002Y-106305525D01*
X176050435Y-106272820D01*
X176156080Y-106193643D01*
X176156081Y-106193642D01*
X176163261Y-106188261D01*
X176250615Y-106071705D01*
X176301745Y-105935316D01*
X176308500Y-105873134D01*
X176308500Y-105126866D01*
X176301745Y-105064684D01*
X176250615Y-104928295D01*
X176163261Y-104811739D01*
X176046705Y-104724385D01*
X175910316Y-104673255D01*
X175848134Y-104666500D01*
X175489784Y-104666500D01*
X175420405Y-104645678D01*
X170556621Y-101437349D01*
X170510771Y-101383143D01*
X170500000Y-101332171D01*
X170500000Y-101128542D01*
X170520002Y-101060421D01*
X170573658Y-101013928D01*
X170643932Y-101003824D01*
X170706485Y-101031598D01*
X170804433Y-101112916D01*
X170812881Y-101118831D01*
X170996756Y-101226279D01*
X171006042Y-101230729D01*
X171205001Y-101306703D01*
X171214899Y-101309579D01*
X171318250Y-101330606D01*
X171332299Y-101329410D01*
X171336000Y-101319065D01*
X171336000Y-101318517D01*
X171844000Y-101318517D01*
X171848064Y-101332359D01*
X171861478Y-101334393D01*
X171868184Y-101333534D01*
X171878262Y-101331392D01*
X172082255Y-101270191D01*
X172091842Y-101266433D01*
X172283095Y-101172739D01*
X172291945Y-101167464D01*
X172465328Y-101043792D01*
X172473200Y-101037139D01*
X172624052Y-100886812D01*
X172630730Y-100878965D01*
X172755003Y-100706020D01*
X172760313Y-100697183D01*
X172854670Y-100506267D01*
X172858469Y-100496672D01*
X172873985Y-100445604D01*
X175962787Y-100445604D01*
X175972567Y-100656899D01*
X175973971Y-100662724D01*
X175973971Y-100662725D01*
X176008281Y-100805088D01*
X176022125Y-100862534D01*
X176024607Y-100867992D01*
X176024608Y-100867996D01*
X176068053Y-100963546D01*
X176109674Y-101055087D01*
X176232054Y-101227611D01*
X176384850Y-101373881D01*
X176562548Y-101488620D01*
X176568114Y-101490863D01*
X176753168Y-101565442D01*
X176753171Y-101565443D01*
X176758737Y-101567686D01*
X176966337Y-101608228D01*
X176971899Y-101608500D01*
X177677846Y-101608500D01*
X177835566Y-101593452D01*
X178038534Y-101533908D01*
X178122111Y-101490863D01*
X178221249Y-101439804D01*
X178221252Y-101439802D01*
X178226580Y-101437058D01*
X178392920Y-101306396D01*
X178396852Y-101301865D01*
X178396855Y-101301862D01*
X178527621Y-101151167D01*
X178531552Y-101146637D01*
X178534552Y-101141451D01*
X178534555Y-101141447D01*
X178634467Y-100968742D01*
X178637473Y-100963546D01*
X178706861Y-100763729D01*
X178707722Y-100757792D01*
X178736352Y-100560336D01*
X178736352Y-100560333D01*
X178737213Y-100554396D01*
X178727433Y-100343101D01*
X178677875Y-100137466D01*
X178645650Y-100066590D01*
X178592806Y-99950368D01*
X178590326Y-99944913D01*
X178467946Y-99772389D01*
X178315150Y-99626119D01*
X178309255Y-99622312D01*
X178282837Y-99605254D01*
X178236460Y-99551499D01*
X178226507Y-99481203D01*
X178256139Y-99416686D01*
X178273353Y-99400317D01*
X178280446Y-99394746D01*
X178392920Y-99306396D01*
X178396852Y-99301865D01*
X178396855Y-99301862D01*
X178527621Y-99151167D01*
X178531552Y-99146637D01*
X178534552Y-99141451D01*
X178534555Y-99141447D01*
X178634467Y-98968742D01*
X178637473Y-98963546D01*
X178706861Y-98763729D01*
X178718381Y-98684280D01*
X178736352Y-98560336D01*
X178736352Y-98560333D01*
X178737213Y-98554396D01*
X178727433Y-98343101D01*
X178677875Y-98137466D01*
X178634525Y-98042122D01*
X178592806Y-97950368D01*
X178590326Y-97944913D01*
X178467946Y-97772389D01*
X178315150Y-97626119D01*
X178309255Y-97622312D01*
X178282837Y-97605254D01*
X178236460Y-97551499D01*
X178226507Y-97481203D01*
X178256139Y-97416686D01*
X178273353Y-97400317D01*
X178280446Y-97394746D01*
X178392920Y-97306396D01*
X178396852Y-97301865D01*
X178396855Y-97301862D01*
X178527621Y-97151167D01*
X178531552Y-97146637D01*
X178534552Y-97141451D01*
X178534555Y-97141447D01*
X178634467Y-96968742D01*
X178637473Y-96963546D01*
X178706861Y-96763729D01*
X178737213Y-96554396D01*
X178727433Y-96343101D01*
X178677875Y-96137466D01*
X178634525Y-96042122D01*
X178623084Y-96016959D01*
X178590326Y-95944913D01*
X178467946Y-95772389D01*
X178463619Y-95768247D01*
X178463614Y-95768241D01*
X178372683Y-95681194D01*
X178337306Y-95619639D01*
X178340825Y-95548730D01*
X178382121Y-95490979D01*
X178393504Y-95483035D01*
X178449348Y-95448478D01*
X178574305Y-95323303D01*
X178667115Y-95172738D01*
X178722797Y-95004861D01*
X178733500Y-94900400D01*
X178733500Y-94099600D01*
X178722526Y-93993834D01*
X178666550Y-93826054D01*
X178573478Y-93675652D01*
X178448303Y-93550695D01*
X178442072Y-93546854D01*
X178303968Y-93461725D01*
X178303966Y-93461724D01*
X178297738Y-93457885D01*
X178137254Y-93404655D01*
X178136389Y-93404368D01*
X178136387Y-93404368D01*
X178129861Y-93402203D01*
X178123025Y-93401503D01*
X178123022Y-93401502D01*
X178079969Y-93397091D01*
X178025400Y-93391500D01*
X176674600Y-93391500D01*
X176671354Y-93391837D01*
X176671350Y-93391837D01*
X176575692Y-93401762D01*
X176575688Y-93401763D01*
X176568834Y-93402474D01*
X176562298Y-93404655D01*
X176562296Y-93404655D01*
X176430194Y-93448728D01*
X176401054Y-93458450D01*
X176250652Y-93551522D01*
X176125695Y-93676697D01*
X176121855Y-93682927D01*
X176121854Y-93682928D01*
X176084749Y-93743124D01*
X176032885Y-93827262D01*
X175977203Y-93995139D01*
X175966500Y-94099600D01*
X175966500Y-94900400D01*
X175977474Y-95006166D01*
X176033450Y-95173946D01*
X176126522Y-95324348D01*
X176251697Y-95449305D01*
X176257927Y-95453145D01*
X176257928Y-95453146D01*
X176303236Y-95481074D01*
X176350729Y-95533846D01*
X176362153Y-95603918D01*
X176333879Y-95669042D01*
X176314955Y-95687418D01*
X176307080Y-95693604D01*
X176303148Y-95698135D01*
X176303145Y-95698138D01*
X176234474Y-95777275D01*
X176168448Y-95853363D01*
X176165448Y-95858549D01*
X176165445Y-95858553D01*
X176118312Y-95940026D01*
X176062527Y-96036454D01*
X175993139Y-96236271D01*
X175962787Y-96445604D01*
X175972567Y-96656899D01*
X176022125Y-96862534D01*
X176024607Y-96867992D01*
X176024608Y-96867996D01*
X176068053Y-96963546D01*
X176109674Y-97055087D01*
X176232054Y-97227611D01*
X176384850Y-97373881D01*
X176389888Y-97377134D01*
X176417163Y-97394746D01*
X176463540Y-97448501D01*
X176473493Y-97518797D01*
X176443861Y-97583314D01*
X176426649Y-97599681D01*
X176307080Y-97693604D01*
X176303148Y-97698135D01*
X176303145Y-97698138D01*
X176234474Y-97777275D01*
X176168448Y-97853363D01*
X176165448Y-97858549D01*
X176165445Y-97858553D01*
X176118312Y-97940026D01*
X176062527Y-98036454D01*
X175993139Y-98236271D01*
X175962787Y-98445604D01*
X175972567Y-98656899D01*
X176022125Y-98862534D01*
X176024607Y-98867992D01*
X176024608Y-98867996D01*
X176068053Y-98963546D01*
X176109674Y-99055087D01*
X176232054Y-99227611D01*
X176384850Y-99373881D01*
X176389888Y-99377134D01*
X176417163Y-99394746D01*
X176463540Y-99448501D01*
X176473493Y-99518797D01*
X176443861Y-99583314D01*
X176426649Y-99599681D01*
X176307080Y-99693604D01*
X176303148Y-99698135D01*
X176303145Y-99698138D01*
X176234474Y-99777275D01*
X176168448Y-99853363D01*
X176165448Y-99858549D01*
X176165445Y-99858553D01*
X176118312Y-99940026D01*
X176062527Y-100036454D01*
X175993139Y-100236271D01*
X175992278Y-100242206D01*
X175992278Y-100242208D01*
X175968292Y-100407639D01*
X175962787Y-100445604D01*
X172873985Y-100445604D01*
X172920377Y-100292910D01*
X172922555Y-100282837D01*
X172923986Y-100271962D01*
X172921775Y-100257778D01*
X172908617Y-100254000D01*
X171862115Y-100254000D01*
X171846876Y-100258475D01*
X171845671Y-100259865D01*
X171844000Y-100267548D01*
X171844000Y-101318517D01*
X171336000Y-101318517D01*
X171336000Y-99727885D01*
X171844000Y-99727885D01*
X171848475Y-99743124D01*
X171849865Y-99744329D01*
X171857548Y-99746000D01*
X172908344Y-99746000D01*
X172921875Y-99742027D01*
X172923180Y-99732947D01*
X172881214Y-99565875D01*
X172877894Y-99556124D01*
X172792972Y-99360814D01*
X172788105Y-99351739D01*
X172672426Y-99172926D01*
X172666136Y-99164757D01*
X172522806Y-99007240D01*
X172515273Y-99000215D01*
X172348139Y-98868222D01*
X172339552Y-98862517D01*
X172153117Y-98759599D01*
X172143705Y-98755369D01*
X171942959Y-98684280D01*
X171932988Y-98681646D01*
X171861837Y-98668972D01*
X171848540Y-98670432D01*
X171844000Y-98684989D01*
X171844000Y-99727885D01*
X171336000Y-99727885D01*
X171336000Y-98683102D01*
X171332082Y-98669758D01*
X171317806Y-98667771D01*
X171279324Y-98673660D01*
X171269288Y-98676051D01*
X171066868Y-98742212D01*
X171057359Y-98746209D01*
X170868463Y-98844542D01*
X170859738Y-98850036D01*
X170701653Y-98968730D01*
X170635168Y-98993636D01*
X170565773Y-98978644D01*
X170515499Y-98928513D01*
X170500000Y-98867970D01*
X170500000Y-98500000D01*
X168341029Y-96957878D01*
X167066733Y-96047666D01*
X167022927Y-95991796D01*
X167016281Y-95921111D01*
X167048905Y-95858054D01*
X167110441Y-95822645D01*
X167179637Y-95825543D01*
X167238719Y-95845140D01*
X167252081Y-95848005D01*
X167346439Y-95857672D01*
X167352855Y-95858000D01*
X168227885Y-95858000D01*
X168243124Y-95853525D01*
X168244329Y-95852135D01*
X168246000Y-95844452D01*
X168246000Y-95839885D01*
X168754000Y-95839885D01*
X168758475Y-95855124D01*
X168759865Y-95856329D01*
X168767548Y-95858000D01*
X169647096Y-95858000D01*
X169653611Y-95857663D01*
X169749203Y-95847744D01*
X169762602Y-95844850D01*
X169916783Y-95793412D01*
X169929962Y-95787238D01*
X170067807Y-95701937D01*
X170079208Y-95692901D01*
X170193739Y-95578170D01*
X170202751Y-95566759D01*
X170287818Y-95428755D01*
X170293962Y-95415577D01*
X170345139Y-95261284D01*
X170348005Y-95247919D01*
X170357672Y-95153561D01*
X170358000Y-95147145D01*
X170358000Y-94272115D01*
X170353525Y-94256876D01*
X170352135Y-94255671D01*
X170344452Y-94254000D01*
X168772115Y-94254000D01*
X168756876Y-94258475D01*
X168755671Y-94259865D01*
X168754000Y-94267548D01*
X168754000Y-95839885D01*
X168246000Y-95839885D01*
X168246000Y-93727885D01*
X168754000Y-93727885D01*
X168758475Y-93743124D01*
X168759865Y-93744329D01*
X168767548Y-93746000D01*
X170339885Y-93746000D01*
X170355124Y-93741525D01*
X170356329Y-93740135D01*
X170358000Y-93732452D01*
X170358000Y-92852904D01*
X170357663Y-92846389D01*
X170347744Y-92750797D01*
X170344850Y-92737398D01*
X170293412Y-92583217D01*
X170287238Y-92570038D01*
X170201937Y-92432193D01*
X170192901Y-92420792D01*
X170078170Y-92306261D01*
X170066759Y-92297249D01*
X169928755Y-92212182D01*
X169915577Y-92206038D01*
X169761284Y-92154861D01*
X169747919Y-92151995D01*
X169653561Y-92142328D01*
X169647144Y-92142000D01*
X168772115Y-92142000D01*
X168756876Y-92146475D01*
X168755671Y-92147865D01*
X168754000Y-92155548D01*
X168754000Y-93727885D01*
X168246000Y-93727885D01*
X168246000Y-92160115D01*
X168241525Y-92144876D01*
X168240135Y-92143671D01*
X168232452Y-92142000D01*
X167352904Y-92142000D01*
X167346389Y-92142337D01*
X167250797Y-92152256D01*
X167237395Y-92155150D01*
X167165875Y-92179011D01*
X167094926Y-92181595D01*
X167033842Y-92145411D01*
X167002018Y-92081947D01*
X167000000Y-92059487D01*
X167000000Y-91575098D01*
X167020002Y-91506977D01*
X167073658Y-91460484D01*
X167143932Y-91450380D01*
X167208512Y-91479874D01*
X167243982Y-91530868D01*
X167246676Y-91538054D01*
X167255214Y-91553649D01*
X167331715Y-91655724D01*
X167344276Y-91668285D01*
X167446351Y-91744786D01*
X167461946Y-91753324D01*
X167582394Y-91798478D01*
X167597649Y-91802105D01*
X167648514Y-91807631D01*
X167655328Y-91808000D01*
X168727885Y-91808000D01*
X168743124Y-91803525D01*
X168744329Y-91802135D01*
X168746000Y-91794452D01*
X168746000Y-91789884D01*
X169254000Y-91789884D01*
X169258475Y-91805123D01*
X169259865Y-91806328D01*
X169267548Y-91807999D01*
X170344669Y-91807999D01*
X170351490Y-91807629D01*
X170402352Y-91802105D01*
X170417604Y-91798479D01*
X170538054Y-91753324D01*
X170553649Y-91744786D01*
X170655724Y-91668285D01*
X170668285Y-91655724D01*
X170744786Y-91553649D01*
X170753324Y-91538054D01*
X170798478Y-91417606D01*
X170802105Y-91402351D01*
X170807631Y-91351486D01*
X170808000Y-91344672D01*
X170808000Y-90272115D01*
X170803525Y-90256876D01*
X170802135Y-90255671D01*
X170794452Y-90254000D01*
X169272115Y-90254000D01*
X169256876Y-90258475D01*
X169255671Y-90259865D01*
X169254000Y-90267548D01*
X169254000Y-91789884D01*
X168746000Y-91789884D01*
X168746000Y-89727885D01*
X169254000Y-89727885D01*
X169258475Y-89743124D01*
X169259865Y-89744329D01*
X169267548Y-89746000D01*
X170789884Y-89746000D01*
X170805123Y-89741525D01*
X170806328Y-89740135D01*
X170807999Y-89732452D01*
X170807999Y-88655331D01*
X170807629Y-88648510D01*
X170802105Y-88597648D01*
X170798479Y-88582396D01*
X170753324Y-88461946D01*
X170744786Y-88446351D01*
X170668285Y-88344276D01*
X170655724Y-88331715D01*
X170553649Y-88255214D01*
X170538054Y-88246676D01*
X170417606Y-88201522D01*
X170402351Y-88197895D01*
X170351486Y-88192369D01*
X170344672Y-88192000D01*
X169272115Y-88192000D01*
X169256876Y-88196475D01*
X169255671Y-88197865D01*
X169254000Y-88205548D01*
X169254000Y-89727885D01*
X168746000Y-89727885D01*
X168746000Y-88210116D01*
X168741525Y-88194877D01*
X168740135Y-88193672D01*
X168732452Y-88192001D01*
X167655331Y-88192001D01*
X167648510Y-88192371D01*
X167597648Y-88197895D01*
X167582396Y-88201521D01*
X167461946Y-88246676D01*
X167446351Y-88255214D01*
X167344276Y-88331715D01*
X167331715Y-88344276D01*
X167255214Y-88446351D01*
X167246676Y-88461946D01*
X167243982Y-88469132D01*
X167201340Y-88525896D01*
X167134778Y-88550596D01*
X167065430Y-88535388D01*
X167015312Y-88485102D01*
X167000000Y-88424902D01*
X167000000Y-87626000D01*
X167020002Y-87557879D01*
X167073658Y-87511386D01*
X167126000Y-87500000D01*
X171418867Y-87500000D01*
X171486988Y-87520002D01*
G37*
%TD.AperFunction*%
%TD*%
%TA.AperFunction,Conductor*%
%TO.N,VCC*%
G36*
X163442121Y-106270002D02*
G01*
X163488614Y-106323658D01*
X163500000Y-106376000D01*
X163500000Y-108874000D01*
X163479998Y-108942121D01*
X163426342Y-108988614D01*
X163374000Y-109000000D01*
X159000000Y-109000000D01*
X157620500Y-107103188D01*
X157620500Y-106884866D01*
X157613745Y-106822684D01*
X157562615Y-106686295D01*
X157475261Y-106569739D01*
X157358705Y-106482385D01*
X157222316Y-106431255D01*
X157160134Y-106424500D01*
X157126909Y-106424500D01*
X157000000Y-106250000D01*
X163374000Y-106250000D01*
X163442121Y-106270002D01*
G37*
%TD.AperFunction*%
%TD*%
%TA.AperFunction,Conductor*%
%TO.N,VCC*%
G36*
X159000000Y-109000000D02*
G01*
X157746500Y-109000000D01*
X157678379Y-108979998D01*
X157631886Y-108926342D01*
X157620500Y-108874000D01*
X157620500Y-107103188D01*
X159000000Y-109000000D01*
G37*
%TD.AperFunction*%
%TA.AperFunction,Conductor*%
G36*
X146987671Y-102020002D02*
G01*
X147034164Y-102073658D01*
X147044268Y-102143932D01*
X147014774Y-102208512D01*
X147008645Y-102215095D01*
X146980547Y-102243193D01*
X146976511Y-102250017D01*
X146976509Y-102250020D01*
X146920613Y-102344536D01*
X146895855Y-102386399D01*
X146849438Y-102546169D01*
X146846500Y-102583498D01*
X146846500Y-104366502D01*
X146849438Y-104403831D01*
X146895855Y-104563601D01*
X146899892Y-104570427D01*
X146976509Y-104699980D01*
X146976511Y-104699983D01*
X146980547Y-104706807D01*
X147098193Y-104824453D01*
X147105017Y-104828489D01*
X147105020Y-104828491D01*
X147212589Y-104892107D01*
X147241399Y-104909145D01*
X147249010Y-104911356D01*
X147249012Y-104911357D01*
X147301231Y-104926528D01*
X147401169Y-104955562D01*
X147407574Y-104956066D01*
X147407579Y-104956067D01*
X147436042Y-104958307D01*
X147436050Y-104958307D01*
X147438498Y-104958500D01*
X147871502Y-104958500D01*
X147873950Y-104958307D01*
X147873958Y-104958307D01*
X147902421Y-104956067D01*
X147902426Y-104956066D01*
X147908831Y-104955562D01*
X148008769Y-104926528D01*
X148060988Y-104911357D01*
X148060990Y-104911356D01*
X148068601Y-104909145D01*
X148097411Y-104892107D01*
X148204980Y-104828491D01*
X148204983Y-104828489D01*
X148211807Y-104824453D01*
X148329453Y-104706807D01*
X148333489Y-104699983D01*
X148333491Y-104699980D01*
X148410108Y-104570427D01*
X148414145Y-104563601D01*
X148460562Y-104403831D01*
X148463500Y-104366502D01*
X148463500Y-103864594D01*
X148483502Y-103796473D01*
X148500405Y-103775499D01*
X148814584Y-103461320D01*
X151442001Y-103461320D01*
X151442371Y-103468141D01*
X151447895Y-103519003D01*
X151451521Y-103534255D01*
X151496676Y-103654705D01*
X151505214Y-103670300D01*
X151581715Y-103772375D01*
X151594276Y-103784936D01*
X151696351Y-103861437D01*
X151711946Y-103869975D01*
X151832394Y-103915129D01*
X151847649Y-103918756D01*
X151898514Y-103924282D01*
X151905328Y-103924651D01*
X152477885Y-103924651D01*
X152493124Y-103920176D01*
X152494329Y-103918786D01*
X152496000Y-103911103D01*
X152496000Y-103906535D01*
X153004000Y-103906535D01*
X153008475Y-103921774D01*
X153009865Y-103922979D01*
X153017548Y-103924650D01*
X153594669Y-103924650D01*
X153601490Y-103924280D01*
X153652352Y-103918756D01*
X153667604Y-103915130D01*
X153788054Y-103869975D01*
X153803649Y-103861437D01*
X153905724Y-103784936D01*
X153918285Y-103772375D01*
X153994786Y-103670300D01*
X154003324Y-103654705D01*
X154048478Y-103534257D01*
X154052105Y-103519002D01*
X154057631Y-103468137D01*
X154058000Y-103461323D01*
X154058000Y-102888766D01*
X154053525Y-102873527D01*
X154052135Y-102872322D01*
X154044452Y-102870651D01*
X153022115Y-102870651D01*
X153006876Y-102875126D01*
X153005671Y-102876516D01*
X153004000Y-102884199D01*
X153004000Y-103906535D01*
X152496000Y-103906535D01*
X152496000Y-102888766D01*
X152491525Y-102873527D01*
X152490135Y-102872322D01*
X152482452Y-102870651D01*
X151460116Y-102870651D01*
X151444877Y-102875126D01*
X151443672Y-102876516D01*
X151442001Y-102884199D01*
X151442001Y-103461320D01*
X148814584Y-103461320D01*
X150238999Y-102036905D01*
X150301311Y-102002879D01*
X150328094Y-102000000D01*
X151316000Y-102000000D01*
X151384121Y-102020002D01*
X151430614Y-102073658D01*
X151442000Y-102126000D01*
X151442000Y-102344536D01*
X151446475Y-102359775D01*
X151447865Y-102360980D01*
X151455548Y-102362651D01*
X154039884Y-102362651D01*
X154055123Y-102358176D01*
X154056328Y-102356786D01*
X154057999Y-102349103D01*
X154057999Y-102126000D01*
X154078001Y-102057879D01*
X154131657Y-102011386D01*
X154183999Y-102000000D01*
X154203685Y-102000000D01*
X154271806Y-102020002D01*
X154285289Y-102029996D01*
X155977220Y-103468137D01*
X159250000Y-106250000D01*
X157000000Y-106250000D01*
X157126909Y-106424500D01*
X155539866Y-106424500D01*
X155477684Y-106431255D01*
X155341295Y-106482385D01*
X155224739Y-106569739D01*
X155219358Y-106576919D01*
X155180826Y-106628332D01*
X155123967Y-106670847D01*
X155053148Y-106675873D01*
X154990855Y-106641813D01*
X154979174Y-106628332D01*
X154940642Y-106576919D01*
X154935261Y-106569739D01*
X154818705Y-106482385D01*
X154682316Y-106431255D01*
X154620134Y-106424500D01*
X152999866Y-106424500D01*
X152937684Y-106431255D01*
X152801295Y-106482385D01*
X152684739Y-106569739D01*
X152679358Y-106576919D01*
X152640826Y-106628332D01*
X152583967Y-106670847D01*
X152513148Y-106675873D01*
X152450855Y-106641813D01*
X152439174Y-106628332D01*
X152400642Y-106576919D01*
X152395261Y-106569739D01*
X152278705Y-106482385D01*
X152142316Y-106431255D01*
X152080134Y-106424500D01*
X150459866Y-106424500D01*
X150397684Y-106431255D01*
X150261295Y-106482385D01*
X150144739Y-106569739D01*
X150139358Y-106576919D01*
X150100826Y-106628332D01*
X150043967Y-106670847D01*
X149973148Y-106675873D01*
X149910855Y-106641813D01*
X149899174Y-106628332D01*
X149860642Y-106576919D01*
X149855261Y-106569739D01*
X149738705Y-106482385D01*
X149602316Y-106431255D01*
X149540134Y-106424500D01*
X147919866Y-106424500D01*
X147857684Y-106431255D01*
X147721295Y-106482385D01*
X147604739Y-106569739D01*
X147599358Y-106576919D01*
X147560826Y-106628332D01*
X147503967Y-106670847D01*
X147433148Y-106675873D01*
X147370855Y-106641813D01*
X147359174Y-106628332D01*
X147320642Y-106576919D01*
X147315261Y-106569739D01*
X147198705Y-106482385D01*
X147062316Y-106431255D01*
X147000134Y-106424500D01*
X145379866Y-106424500D01*
X145317684Y-106431255D01*
X145181295Y-106482385D01*
X145064739Y-106569739D01*
X145059358Y-106576919D01*
X145020826Y-106628332D01*
X144963967Y-106670847D01*
X144893148Y-106675873D01*
X144830855Y-106641813D01*
X144819174Y-106628332D01*
X144780642Y-106576919D01*
X144775261Y-106569739D01*
X144658705Y-106482385D01*
X144522316Y-106431255D01*
X144460134Y-106424500D01*
X142839866Y-106424500D01*
X142777684Y-106431255D01*
X142641295Y-106482385D01*
X142524739Y-106569739D01*
X142437385Y-106686295D01*
X142386255Y-106822684D01*
X142379500Y-106884866D01*
X142379500Y-108874000D01*
X142359498Y-108942121D01*
X142305842Y-108988614D01*
X142253500Y-109000000D01*
X139500000Y-109000000D01*
X139500000Y-107250000D01*
X139237963Y-107250000D01*
X139651748Y-106815285D01*
X142132862Y-104208666D01*
X142132863Y-104208665D01*
X142134146Y-104207317D01*
X142375517Y-103921774D01*
X143962250Y-102044659D01*
X144021502Y-102005547D01*
X144058477Y-102000000D01*
X146919550Y-102000000D01*
X146987671Y-102020002D01*
G37*
%TD.AperFunction*%
%TD*%
%TA.AperFunction,Conductor*%
%TO.N,GND*%
G36*
X172780655Y-111420002D02*
G01*
X172827148Y-111473658D01*
X172837844Y-111512829D01*
X172855768Y-111683365D01*
X172856458Y-111689928D01*
X172915473Y-111871556D01*
X173010960Y-112036944D01*
X173138747Y-112178866D01*
X173293248Y-112291118D01*
X173299276Y-112293802D01*
X173299278Y-112293803D01*
X173461681Y-112366109D01*
X173467712Y-112368794D01*
X173561112Y-112388647D01*
X173648056Y-112407128D01*
X173648061Y-112407128D01*
X173654513Y-112408500D01*
X173845487Y-112408500D01*
X173851939Y-112407128D01*
X173851944Y-112407128D01*
X173938888Y-112388647D01*
X174032288Y-112368794D01*
X174038319Y-112366109D01*
X174200722Y-112293803D01*
X174200724Y-112293802D01*
X174206752Y-112291118D01*
X174361253Y-112178866D01*
X174489040Y-112036944D01*
X174584527Y-111871556D01*
X174643542Y-111689928D01*
X174644232Y-111683365D01*
X174662156Y-111512829D01*
X174689169Y-111447172D01*
X174747391Y-111406543D01*
X174787466Y-111400000D01*
X179366000Y-111400000D01*
X179434121Y-111420002D01*
X179480614Y-111473658D01*
X179492000Y-111526000D01*
X179492000Y-131450672D01*
X179490500Y-131470056D01*
X179486814Y-131493730D01*
X179487978Y-131502631D01*
X179487978Y-131502635D01*
X179489257Y-131512411D01*
X179490148Y-131535343D01*
X179475956Y-131806148D01*
X179474578Y-131819265D01*
X179427651Y-132115550D01*
X179424909Y-132128450D01*
X179347269Y-132418205D01*
X179343195Y-132430742D01*
X179302512Y-132536725D01*
X179235696Y-132710787D01*
X179230332Y-132722835D01*
X179094145Y-132990117D01*
X179087551Y-133001538D01*
X178924172Y-133253121D01*
X178916419Y-133263791D01*
X178727645Y-133496908D01*
X178718820Y-133506709D01*
X178506709Y-133718820D01*
X178496908Y-133727645D01*
X178263791Y-133916419D01*
X178253121Y-133924172D01*
X178001538Y-134087551D01*
X177990117Y-134094145D01*
X177722835Y-134230332D01*
X177710786Y-134235696D01*
X177430742Y-134343195D01*
X177418205Y-134347269D01*
X177128450Y-134424909D01*
X177115550Y-134427651D01*
X176819265Y-134474578D01*
X176806149Y-134475956D01*
X176542666Y-134489764D01*
X176516688Y-134488436D01*
X176515144Y-134488195D01*
X176515140Y-134488195D01*
X176506270Y-134486814D01*
X176497368Y-134487978D01*
X176497365Y-134487978D01*
X176474749Y-134490936D01*
X176458411Y-134492000D01*
X171034500Y-134492000D01*
X170966379Y-134471998D01*
X170919886Y-134418342D01*
X170908500Y-134366000D01*
X170908500Y-133174600D01*
X170897526Y-133068834D01*
X170841550Y-132901054D01*
X170748478Y-132750652D01*
X170623303Y-132625695D01*
X170578395Y-132598013D01*
X170478968Y-132536725D01*
X170478966Y-132536724D01*
X170472738Y-132532885D01*
X170312254Y-132479655D01*
X170311389Y-132479368D01*
X170311387Y-132479368D01*
X170304861Y-132477203D01*
X170298025Y-132476503D01*
X170298022Y-132476502D01*
X170254969Y-132472091D01*
X170200400Y-132466500D01*
X169399600Y-132466500D01*
X169396354Y-132466837D01*
X169396350Y-132466837D01*
X169300692Y-132476762D01*
X169300688Y-132476763D01*
X169293834Y-132477474D01*
X169287298Y-132479655D01*
X169287296Y-132479655D01*
X169155194Y-132523728D01*
X169126054Y-132533450D01*
X168975652Y-132626522D01*
X168850695Y-132751697D01*
X168757885Y-132902262D01*
X168702203Y-133070139D01*
X168691500Y-133174600D01*
X168691500Y-134366000D01*
X168671498Y-134434121D01*
X168617842Y-134480614D01*
X168565500Y-134492000D01*
X165434500Y-134492000D01*
X165366379Y-134471998D01*
X165319886Y-134418342D01*
X165308500Y-134366000D01*
X165308500Y-133174600D01*
X165297526Y-133068834D01*
X165241550Y-132901054D01*
X165148478Y-132750652D01*
X165023303Y-132625695D01*
X164978395Y-132598013D01*
X164878968Y-132536725D01*
X164878966Y-132536724D01*
X164872738Y-132532885D01*
X164712254Y-132479655D01*
X164711389Y-132479368D01*
X164711387Y-132479368D01*
X164704861Y-132477203D01*
X164698025Y-132476503D01*
X164698022Y-132476502D01*
X164654969Y-132472091D01*
X164600400Y-132466500D01*
X163799600Y-132466500D01*
X163796354Y-132466837D01*
X163796350Y-132466837D01*
X163700692Y-132476762D01*
X163700688Y-132476763D01*
X163693834Y-132477474D01*
X163687298Y-132479655D01*
X163687296Y-132479655D01*
X163555194Y-132523728D01*
X163526054Y-132533450D01*
X163375652Y-132626522D01*
X163250695Y-132751697D01*
X163157885Y-132902262D01*
X163102203Y-133070139D01*
X163091500Y-133174600D01*
X163091500Y-134366000D01*
X163071498Y-134434121D01*
X163017842Y-134480614D01*
X162965500Y-134492000D01*
X161800000Y-134492000D01*
X161800000Y-129552781D01*
X161803038Y-129526870D01*
X161804745Y-129522316D01*
X161811500Y-129460134D01*
X161811500Y-129409500D01*
X161831502Y-129341379D01*
X161885158Y-129294886D01*
X161937500Y-129283500D01*
X165565500Y-129283500D01*
X165633621Y-129303502D01*
X165680114Y-129357158D01*
X165691500Y-129409500D01*
X165691500Y-130691502D01*
X165694438Y-130728831D01*
X165696233Y-130735008D01*
X165696233Y-130735010D01*
X165698663Y-130743374D01*
X165698462Y-130814370D01*
X165686786Y-130841529D01*
X165665473Y-130878444D01*
X165606458Y-131060072D01*
X165586496Y-131250000D01*
X165606458Y-131439928D01*
X165665473Y-131621556D01*
X165760960Y-131786944D01*
X165888747Y-131928866D01*
X166043248Y-132041118D01*
X166049276Y-132043802D01*
X166049278Y-132043803D01*
X166211681Y-132116109D01*
X166217712Y-132118794D01*
X166311113Y-132138647D01*
X166398056Y-132157128D01*
X166398061Y-132157128D01*
X166404513Y-132158500D01*
X166595487Y-132158500D01*
X166601939Y-132157128D01*
X166601944Y-132157128D01*
X166688887Y-132138647D01*
X166782288Y-132118794D01*
X166788319Y-132116109D01*
X166950722Y-132043803D01*
X166950724Y-132043802D01*
X166956752Y-132041118D01*
X167111253Y-131928866D01*
X167239040Y-131786944D01*
X167334527Y-131621556D01*
X167393542Y-131439928D01*
X167398124Y-131396329D01*
X167425137Y-131330673D01*
X167483358Y-131290043D01*
X167523434Y-131283500D01*
X167716502Y-131283500D01*
X167718950Y-131283307D01*
X167718958Y-131283307D01*
X167747421Y-131281067D01*
X167747426Y-131281066D01*
X167753831Y-131280562D01*
X167859027Y-131250000D01*
X167905988Y-131236357D01*
X167905990Y-131236356D01*
X167913601Y-131234145D01*
X167920426Y-131230109D01*
X167935863Y-131220980D01*
X168004679Y-131203522D01*
X168064137Y-131220980D01*
X168079574Y-131230109D01*
X168086399Y-131234145D01*
X168094010Y-131236356D01*
X168094012Y-131236357D01*
X168140973Y-131250000D01*
X168246169Y-131280562D01*
X168252574Y-131281066D01*
X168252579Y-131281067D01*
X168281042Y-131283307D01*
X168281050Y-131283307D01*
X168283498Y-131283500D01*
X168716502Y-131283500D01*
X168718950Y-131283307D01*
X168718958Y-131283307D01*
X168747421Y-131281067D01*
X168747426Y-131281066D01*
X168753831Y-131280562D01*
X168859027Y-131250000D01*
X168905988Y-131236357D01*
X168905990Y-131236356D01*
X168913601Y-131234145D01*
X168965382Y-131203522D01*
X169049980Y-131153491D01*
X169049983Y-131153489D01*
X169056807Y-131149453D01*
X169174453Y-131031807D01*
X169178489Y-131024983D01*
X169178491Y-131024980D01*
X169255108Y-130895427D01*
X169259145Y-130888601D01*
X169305562Y-130728831D01*
X169308500Y-130691502D01*
X169308500Y-129308498D01*
X169305562Y-129271169D01*
X169259145Y-129111399D01*
X169242107Y-129082589D01*
X169178491Y-128975020D01*
X169178489Y-128975017D01*
X169174453Y-128968193D01*
X169056807Y-128850547D01*
X169049983Y-128846511D01*
X169049980Y-128846509D01*
X168920427Y-128769892D01*
X168920428Y-128769892D01*
X168913601Y-128765855D01*
X168905990Y-128763644D01*
X168905988Y-128763643D01*
X168853769Y-128748472D01*
X168753831Y-128719438D01*
X168747426Y-128718934D01*
X168747421Y-128718933D01*
X168718958Y-128716693D01*
X168718950Y-128716693D01*
X168716502Y-128716500D01*
X168664594Y-128716500D01*
X168596473Y-128696498D01*
X168575499Y-128679595D01*
X165613652Y-125717747D01*
X165606112Y-125709461D01*
X165602000Y-125702982D01*
X165552348Y-125656356D01*
X165549507Y-125653602D01*
X165529770Y-125633865D01*
X165526573Y-125631385D01*
X165517551Y-125623680D01*
X165491100Y-125598841D01*
X165485321Y-125593414D01*
X165478375Y-125589595D01*
X165478372Y-125589593D01*
X165467566Y-125583652D01*
X165451047Y-125572801D01*
X165450583Y-125572441D01*
X165435041Y-125560386D01*
X165427772Y-125557241D01*
X165427768Y-125557238D01*
X165394463Y-125542826D01*
X165383813Y-125537609D01*
X165345060Y-125516305D01*
X165325437Y-125511267D01*
X165306734Y-125504863D01*
X165295420Y-125499967D01*
X165295419Y-125499967D01*
X165288145Y-125496819D01*
X165280322Y-125495580D01*
X165280312Y-125495577D01*
X165244476Y-125489901D01*
X165232856Y-125487495D01*
X165197711Y-125478472D01*
X165197710Y-125478472D01*
X165190030Y-125476500D01*
X165169776Y-125476500D01*
X165150065Y-125474949D01*
X165137886Y-125473020D01*
X165130057Y-125471780D01*
X165122165Y-125472526D01*
X165086039Y-125475941D01*
X165074181Y-125476500D01*
X161937500Y-125476500D01*
X161869379Y-125456498D01*
X161822886Y-125402842D01*
X161811500Y-125350500D01*
X161811500Y-125299866D01*
X161804745Y-125237684D01*
X161803038Y-125233130D01*
X161800000Y-125207219D01*
X161800000Y-124472781D01*
X161803038Y-124446870D01*
X161804745Y-124442316D01*
X161811500Y-124380134D01*
X161811500Y-122759866D01*
X161804745Y-122697684D01*
X161803038Y-122693130D01*
X161800000Y-122667219D01*
X161800000Y-121932781D01*
X161803038Y-121906870D01*
X161804745Y-121902316D01*
X161811500Y-121840134D01*
X161811500Y-121789500D01*
X161831502Y-121721379D01*
X161885158Y-121674886D01*
X161937500Y-121663500D01*
X162621233Y-121663500D01*
X162632416Y-121664027D01*
X162639909Y-121665702D01*
X162647835Y-121665453D01*
X162647836Y-121665453D01*
X162707986Y-121663562D01*
X162711945Y-121663500D01*
X162739856Y-121663500D01*
X162743791Y-121663003D01*
X162743856Y-121662995D01*
X162755693Y-121662062D01*
X162787951Y-121661048D01*
X162791970Y-121660922D01*
X162799889Y-121660673D01*
X162819343Y-121655021D01*
X162838700Y-121651013D01*
X162850930Y-121649468D01*
X162850931Y-121649468D01*
X162858797Y-121648474D01*
X162866168Y-121645555D01*
X162866170Y-121645555D01*
X162899912Y-121632196D01*
X162911142Y-121628351D01*
X162945983Y-121618229D01*
X162945984Y-121618229D01*
X162953593Y-121616018D01*
X162960412Y-121611985D01*
X162960417Y-121611983D01*
X162971028Y-121605707D01*
X162988776Y-121597012D01*
X163007617Y-121589552D01*
X163043387Y-121563564D01*
X163053307Y-121557048D01*
X163084535Y-121538580D01*
X163084538Y-121538578D01*
X163091362Y-121534542D01*
X163105683Y-121520221D01*
X163120717Y-121507380D01*
X163130694Y-121500131D01*
X163137107Y-121495472D01*
X163165298Y-121461395D01*
X163173288Y-121452616D01*
X165792247Y-118833657D01*
X165800537Y-118826113D01*
X165807018Y-118822000D01*
X165853659Y-118772332D01*
X165856413Y-118769491D01*
X165876135Y-118749769D01*
X165878612Y-118746576D01*
X165886317Y-118737555D01*
X165911159Y-118711100D01*
X165916586Y-118705321D01*
X165920407Y-118698371D01*
X165926346Y-118687568D01*
X165937202Y-118671041D01*
X165944757Y-118661302D01*
X165944758Y-118661300D01*
X165949614Y-118655040D01*
X165967174Y-118614460D01*
X165972391Y-118603812D01*
X165989875Y-118572009D01*
X165989876Y-118572007D01*
X165993695Y-118565060D01*
X165998733Y-118545437D01*
X166005137Y-118526734D01*
X166010033Y-118515420D01*
X166010033Y-118515419D01*
X166013181Y-118508145D01*
X166014420Y-118500322D01*
X166014423Y-118500312D01*
X166020099Y-118464476D01*
X166022505Y-118452856D01*
X166031528Y-118417711D01*
X166031528Y-118417710D01*
X166033500Y-118410030D01*
X166033500Y-118389776D01*
X166035051Y-118370065D01*
X166036980Y-118357886D01*
X166038220Y-118350057D01*
X166034059Y-118306038D01*
X166033500Y-118294181D01*
X166033500Y-111526000D01*
X166053502Y-111457879D01*
X166107158Y-111411386D01*
X166159500Y-111400000D01*
X172712534Y-111400000D01*
X172780655Y-111420002D01*
G37*
%TD.AperFunction*%
%TA.AperFunction,Conductor*%
G36*
X164708621Y-111420002D02*
G01*
X164755114Y-111473658D01*
X164766500Y-111526000D01*
X164766500Y-118015406D01*
X164746498Y-118083527D01*
X164729595Y-118104501D01*
X162474500Y-120359595D01*
X162412188Y-120393621D01*
X162385405Y-120396500D01*
X161937500Y-120396500D01*
X161869379Y-120376498D01*
X161822886Y-120322842D01*
X161811500Y-120270500D01*
X161811500Y-120219866D01*
X161804745Y-120157684D01*
X161803038Y-120153130D01*
X161800000Y-120127219D01*
X161800000Y-119392781D01*
X161803038Y-119366870D01*
X161804745Y-119362316D01*
X161811500Y-119300134D01*
X161811500Y-117679866D01*
X161804745Y-117617684D01*
X161803038Y-117613130D01*
X161800000Y-117587219D01*
X161800000Y-116852781D01*
X161803038Y-116826870D01*
X161804745Y-116822316D01*
X161811500Y-116760134D01*
X161811500Y-115139866D01*
X161804745Y-115077684D01*
X161803038Y-115073130D01*
X161800000Y-115047219D01*
X161800000Y-113727619D01*
X161820002Y-113659498D01*
X161873658Y-113613005D01*
X161938842Y-113602275D01*
X161975091Y-113605989D01*
X161999600Y-113608500D01*
X163000400Y-113608500D01*
X163003646Y-113608163D01*
X163003650Y-113608163D01*
X163099308Y-113598238D01*
X163099312Y-113598237D01*
X163106166Y-113597526D01*
X163112702Y-113595345D01*
X163112704Y-113595345D01*
X163266998Y-113543868D01*
X163273946Y-113541550D01*
X163424348Y-113448478D01*
X163549305Y-113323303D01*
X163642115Y-113172738D01*
X163697797Y-113004861D01*
X163708500Y-112900400D01*
X163708500Y-112274600D01*
X163697526Y-112168834D01*
X163641550Y-112001054D01*
X163548478Y-111850652D01*
X163538723Y-111840914D01*
X163504644Y-111778632D01*
X163509647Y-111707811D01*
X163538568Y-111662723D01*
X163545446Y-111655833D01*
X163550617Y-111650653D01*
X163642661Y-111501329D01*
X163647635Y-111486334D01*
X163688064Y-111427974D01*
X163753628Y-111400736D01*
X163767228Y-111400000D01*
X164640500Y-111400000D01*
X164708621Y-111420002D01*
G37*
%TD.AperFunction*%
%TD*%
%TA.AperFunction,Conductor*%
%TO.N,VCC*%
G36*
X179342121Y-107270002D02*
G01*
X179388614Y-107323658D01*
X179400000Y-107376000D01*
X179400000Y-108874000D01*
X179379998Y-108942121D01*
X179326342Y-108988614D01*
X179274000Y-109000000D01*
X177135487Y-109000000D01*
X177067366Y-108979998D01*
X177053908Y-108970025D01*
X177020945Y-108942021D01*
X177013429Y-108935091D01*
X177007685Y-108929347D01*
X177004811Y-108927073D01*
X177004804Y-108927067D01*
X176985289Y-108911628D01*
X176981885Y-108908837D01*
X176931528Y-108866055D01*
X176931524Y-108866052D01*
X176925949Y-108861316D01*
X176919432Y-108857988D01*
X176914368Y-108854611D01*
X176909144Y-108851384D01*
X176903400Y-108846840D01*
X176877109Y-108834552D01*
X176836918Y-108815768D01*
X176832967Y-108813837D01*
X176774117Y-108783787D01*
X176767596Y-108780457D01*
X176760481Y-108778716D01*
X176754735Y-108776579D01*
X176748952Y-108774655D01*
X176742321Y-108771556D01*
X176670443Y-108756606D01*
X176666171Y-108755639D01*
X176594888Y-108738196D01*
X176589289Y-108737849D01*
X176589285Y-108737848D01*
X176583670Y-108737500D01*
X176583672Y-108737461D01*
X176579771Y-108737228D01*
X176575412Y-108736839D01*
X176568244Y-108735348D01*
X176560927Y-108735546D01*
X176490423Y-108737454D01*
X176487014Y-108737500D01*
X176434500Y-108737500D01*
X176366379Y-108717498D01*
X176319886Y-108663842D01*
X176308500Y-108611500D01*
X176308500Y-108126866D01*
X176301745Y-108064684D01*
X176250615Y-107928295D01*
X176225174Y-107894349D01*
X176200326Y-107827842D01*
X176200000Y-107818784D01*
X176200000Y-107388500D01*
X176220002Y-107320379D01*
X176273658Y-107273886D01*
X176326000Y-107262500D01*
X179000525Y-107262500D01*
X179100469Y-107250848D01*
X179115058Y-107250000D01*
X179274000Y-107250000D01*
X179342121Y-107270002D01*
G37*
%TD.AperFunction*%
%TD*%
M02*
