%TF.GenerationSoftware,KiCad,Pcbnew,(6.0.0-rc1-48-g8f87638de5)*%
%TF.CreationDate,2021-11-22T15:04:28-05:00*%
%TF.ProjectId,motor_driver2,6d6f746f-725f-4647-9269-766572322e6b,rev?*%
%TF.SameCoordinates,Original*%
%TF.FileFunction,Legend,Top*%
%TF.FilePolarity,Positive*%
%FSLAX46Y46*%
G04 Gerber Fmt 4.6, Leading zero omitted, Abs format (unit mm)*
G04 Created by KiCad (PCBNEW (6.0.0-rc1-48-g8f87638de5)) date 2021-11-22 15:04:28*
%MOMM*%
%LPD*%
G01*
G04 APERTURE LIST*
G04 Aperture macros list*
%AMRoundRect*
0 Rectangle with rounded corners*
0 $1 Rounding radius*
0 $2 $3 $4 $5 $6 $7 $8 $9 X,Y pos of 4 corners*
0 Add a 4 corners polygon primitive as box body*
4,1,4,$2,$3,$4,$5,$6,$7,$8,$9,$2,$3,0*
0 Add four circle primitives for the rounded corners*
1,1,$1+$1,$2,$3*
1,1,$1+$1,$4,$5*
1,1,$1+$1,$6,$7*
1,1,$1+$1,$8,$9*
0 Add four rect primitives between the rounded corners*
20,1,$1+$1,$2,$3,$4,$5,0*
20,1,$1+$1,$4,$5,$6,$7,0*
20,1,$1+$1,$6,$7,$8,$9,0*
20,1,$1+$1,$8,$9,$2,$3,0*%
G04 Aperture macros list end*
%ADD10C,0.150000*%
%ADD11C,0.120000*%
%ADD12C,0.300000*%
%ADD13RoundRect,0.150000X-0.150000X-0.625000X0.150000X-0.625000X0.150000X0.625000X-0.150000X0.625000X0*%
%ADD14RoundRect,0.250000X-0.350000X-0.650000X0.350000X-0.650000X0.350000X0.650000X-0.350000X0.650000X0*%
%ADD15RoundRect,0.250000X-0.625000X0.350000X-0.625000X-0.350000X0.625000X-0.350000X0.625000X0.350000X0*%
%ADD16O,1.750000X1.200000*%
%ADD17C,0.800000*%
%ADD18C,6.400000*%
%ADD19RoundRect,0.250001X1.099999X1.099999X-1.099999X1.099999X-1.099999X-1.099999X1.099999X-1.099999X0*%
%ADD20C,2.700000*%
%ADD21R,1.700000X1.700000*%
%ADD22O,1.700000X1.700000*%
%ADD23R,2.286000X1.524000*%
%ADD24R,1.524000X2.286000*%
%ADD25RoundRect,0.243750X0.456250X-0.243750X0.456250X0.243750X-0.456250X0.243750X-0.456250X-0.243750X0*%
%ADD26R,2.600000X2.600000*%
%ADD27C,2.600000*%
%ADD28R,2.000000X0.650000*%
%ADD29R,4.500000X8.100000*%
%ADD30RoundRect,0.250000X0.450000X-0.262500X0.450000X0.262500X-0.450000X0.262500X-0.450000X-0.262500X0*%
%ADD31RoundRect,0.250000X-0.475000X0.250000X-0.475000X-0.250000X0.475000X-0.250000X0.475000X0.250000X0*%
%ADD32RoundRect,0.150000X0.150000X-0.825000X0.150000X0.825000X-0.150000X0.825000X-0.150000X-0.825000X0*%
%ADD33R,1.600000X1.600000*%
%ADD34C,1.600000*%
%ADD35RoundRect,0.250000X0.625000X-0.350000X0.625000X0.350000X-0.625000X0.350000X-0.625000X-0.350000X0*%
G04 APERTURE END LIST*
D10*
X162547619Y-105416666D02*
X163547619Y-105416666D01*
X163547619Y-105797619D01*
X163500000Y-105892857D01*
X163452380Y-105940476D01*
X163357142Y-105988095D01*
X163214285Y-105988095D01*
X163119047Y-105940476D01*
X163071428Y-105892857D01*
X163023809Y-105797619D01*
X163023809Y-105416666D01*
X163547619Y-106321428D02*
X162547619Y-106559523D01*
X163261904Y-106750000D01*
X162547619Y-106940476D01*
X163547619Y-107178571D01*
X162547619Y-108130952D02*
X163023809Y-107797619D01*
X162547619Y-107559523D02*
X163547619Y-107559523D01*
X163547619Y-107940476D01*
X163500000Y-108035714D01*
X163452380Y-108083333D01*
X163357142Y-108130952D01*
X163214285Y-108130952D01*
X163119047Y-108083333D01*
X163071428Y-108035714D01*
X163023809Y-107940476D01*
X163023809Y-107559523D01*
X164000000Y-113000000D02*
X178000000Y-113000000D01*
X178000000Y-113000000D02*
X178000000Y-127000000D01*
X178000000Y-127000000D02*
X164000000Y-127000000D01*
X164000000Y-127000000D02*
X164000000Y-113000000D01*
X122000000Y-113000000D02*
X136000000Y-113000000D01*
X136000000Y-113000000D02*
X136000000Y-127000000D01*
X136000000Y-127000000D02*
X122000000Y-127000000D01*
X122000000Y-127000000D02*
X122000000Y-113000000D01*
X159000000Y-96750000D02*
X159000000Y-91000000D01*
X172500000Y-96750000D02*
X172500000Y-91000000D01*
X172500000Y-90500000D02*
X172000000Y-90000000D01*
X127750000Y-91500000D02*
X127750000Y-90750000D01*
X141000000Y-92250000D02*
X141000000Y-91000000D01*
X172500000Y-91000000D02*
X172500000Y-90500000D01*
X140000000Y-90000000D02*
X139000000Y-90000000D01*
X127750000Y-90750000D02*
X128250000Y-90250000D01*
X141000000Y-91000000D02*
X140000000Y-90000000D01*
X141000000Y-96750000D02*
X141000000Y-92250000D01*
X160000000Y-90000000D02*
X161000000Y-90000000D01*
X159000000Y-91000000D02*
X160000000Y-90000000D01*
X127750000Y-97000000D02*
X127750000Y-91500000D01*
D11*
X138627142Y-102037142D02*
X138589047Y-102151428D01*
X138550952Y-102189523D01*
X138474761Y-102227619D01*
X138360476Y-102227619D01*
X138284285Y-102189523D01*
X138246190Y-102151428D01*
X138208095Y-102075238D01*
X138208095Y-101770476D01*
X139008095Y-101770476D01*
X139008095Y-102037142D01*
X138970000Y-102113333D01*
X138931904Y-102151428D01*
X138855714Y-102189523D01*
X138779523Y-102189523D01*
X138703333Y-102151428D01*
X138665238Y-102113333D01*
X138627142Y-102037142D01*
X138627142Y-101770476D01*
X141871904Y-97173095D02*
X141871904Y-97973095D01*
X141605238Y-97401666D01*
X141338571Y-97973095D01*
X141338571Y-97173095D01*
X140957619Y-97477857D02*
X140348095Y-97477857D01*
X140652857Y-97173095D02*
X140652857Y-97782619D01*
X169107142Y-102037142D02*
X169069047Y-102151428D01*
X169030952Y-102189523D01*
X168954761Y-102227619D01*
X168840476Y-102227619D01*
X168764285Y-102189523D01*
X168726190Y-102151428D01*
X168688095Y-102075238D01*
X168688095Y-101770476D01*
X169488095Y-101770476D01*
X169488095Y-102037142D01*
X169450000Y-102113333D01*
X169411904Y-102151428D01*
X169335714Y-102189523D01*
X169259523Y-102189523D01*
X169183333Y-102151428D01*
X169145238Y-102113333D01*
X169107142Y-102037142D01*
X169107142Y-101770476D01*
D12*
X127535714Y-129678571D02*
X127535714Y-128178571D01*
X128178571Y-128321428D02*
X128250000Y-128250000D01*
X128392857Y-128178571D01*
X128750000Y-128178571D01*
X128892857Y-128250000D01*
X128964285Y-128321428D01*
X129035714Y-128464285D01*
X129035714Y-128607142D01*
X128964285Y-128821428D01*
X128107142Y-129678571D01*
X129035714Y-129678571D01*
X130535714Y-129535714D02*
X130464285Y-129607142D01*
X130250000Y-129678571D01*
X130107142Y-129678571D01*
X129892857Y-129607142D01*
X129750000Y-129464285D01*
X129678571Y-129321428D01*
X129607142Y-129035714D01*
X129607142Y-128821428D01*
X129678571Y-128535714D01*
X129750000Y-128392857D01*
X129892857Y-128250000D01*
X130107142Y-128178571D01*
X130250000Y-128178571D01*
X130464285Y-128250000D01*
X130535714Y-128321428D01*
D11*
X133890000Y-102005476D02*
X133928095Y-101929285D01*
X133928095Y-101815000D01*
X133890000Y-101700714D01*
X133813809Y-101624523D01*
X133737619Y-101586428D01*
X133585238Y-101548333D01*
X133470952Y-101548333D01*
X133318571Y-101586428D01*
X133242380Y-101624523D01*
X133166190Y-101700714D01*
X133128095Y-101815000D01*
X133128095Y-101891190D01*
X133166190Y-102005476D01*
X133204285Y-102043571D01*
X133470952Y-102043571D01*
X133470952Y-101891190D01*
X133128095Y-102386428D02*
X133928095Y-102386428D01*
X133128095Y-102843571D01*
X133928095Y-102843571D01*
X133128095Y-103224523D02*
X133928095Y-103224523D01*
X133928095Y-103415000D01*
X133890000Y-103529285D01*
X133813809Y-103605476D01*
X133737619Y-103643571D01*
X133585238Y-103681666D01*
X133470952Y-103681666D01*
X133318571Y-103643571D01*
X133242380Y-103605476D01*
X133166190Y-103529285D01*
X133128095Y-103415000D01*
X133128095Y-103224523D01*
X166938095Y-101569047D02*
X166938095Y-102064285D01*
X166633333Y-101797619D01*
X166633333Y-101911904D01*
X166595238Y-101988095D01*
X166557142Y-102026190D01*
X166480952Y-102064285D01*
X166290476Y-102064285D01*
X166214285Y-102026190D01*
X166176190Y-101988095D01*
X166138095Y-101911904D01*
X166138095Y-101683333D01*
X166176190Y-101607142D01*
X166214285Y-101569047D01*
X166214285Y-102407142D02*
X166176190Y-102445238D01*
X166138095Y-102407142D01*
X166176190Y-102369047D01*
X166214285Y-102407142D01*
X166138095Y-102407142D01*
X166938095Y-102711904D02*
X166938095Y-103207142D01*
X166633333Y-102940476D01*
X166633333Y-103054761D01*
X166595238Y-103130952D01*
X166557142Y-103169047D01*
X166480952Y-103207142D01*
X166290476Y-103207142D01*
X166214285Y-103169047D01*
X166176190Y-103130952D01*
X166138095Y-103054761D01*
X166138095Y-102826190D01*
X166176190Y-102750000D01*
X166214285Y-102711904D01*
X166938095Y-103435714D02*
X166138095Y-103702380D01*
X166938095Y-103969047D01*
X172986904Y-97173095D02*
X172986904Y-97973095D01*
X172720238Y-97401666D01*
X172453571Y-97973095D01*
X172453571Y-97173095D01*
X172072619Y-97477857D02*
X171463095Y-97477857D01*
X171767857Y-97173095D02*
X171767857Y-97782619D01*
D12*
X169535714Y-129678571D02*
X169535714Y-128178571D01*
X170178571Y-128321428D02*
X170250000Y-128250000D01*
X170392857Y-128178571D01*
X170750000Y-128178571D01*
X170892857Y-128250000D01*
X170964285Y-128321428D01*
X171035714Y-128464285D01*
X171035714Y-128607142D01*
X170964285Y-128821428D01*
X170107142Y-129678571D01*
X171035714Y-129678571D01*
X172535714Y-129535714D02*
X172464285Y-129607142D01*
X172250000Y-129678571D01*
X172107142Y-129678571D01*
X171892857Y-129607142D01*
X171750000Y-129464285D01*
X171678571Y-129321428D01*
X171607142Y-129035714D01*
X171607142Y-128821428D01*
X171678571Y-128535714D01*
X171750000Y-128392857D01*
X171892857Y-128250000D01*
X172107142Y-128178571D01*
X172250000Y-128178571D01*
X172464285Y-128250000D01*
X172535714Y-128321428D01*
D11*
X128536904Y-97173095D02*
X128536904Y-97973095D01*
X128270238Y-97401666D01*
X128003571Y-97973095D01*
X128003571Y-97173095D01*
X127622619Y-97477857D02*
X127013095Y-97477857D01*
X159651904Y-97173095D02*
X159651904Y-97973095D01*
X159385238Y-97401666D01*
X159118571Y-97973095D01*
X159118571Y-97173095D01*
X158737619Y-97477857D02*
X158128095Y-97477857D01*
D10*
X144095238Y-125202380D02*
X143761904Y-124726190D01*
X143523809Y-125202380D02*
X143523809Y-124202380D01*
X143904761Y-124202380D01*
X144000000Y-124250000D01*
X144047619Y-124297619D01*
X144095238Y-124392857D01*
X144095238Y-124535714D01*
X144047619Y-124630952D01*
X144000000Y-124678571D01*
X143904761Y-124726190D01*
X143523809Y-124726190D01*
X144523809Y-125202380D02*
X144523809Y-124202380D01*
X144904761Y-124202380D01*
X145000000Y-124250000D01*
X145047619Y-124297619D01*
X145095238Y-124392857D01*
X145095238Y-124535714D01*
X145047619Y-124630952D01*
X145000000Y-124678571D01*
X144904761Y-124726190D01*
X144523809Y-124726190D01*
X145476190Y-124297619D02*
X145523809Y-124250000D01*
X145619047Y-124202380D01*
X145857142Y-124202380D01*
X145952380Y-124250000D01*
X146000000Y-124297619D01*
X146047619Y-124392857D01*
X146047619Y-124488095D01*
X146000000Y-124630952D01*
X145428571Y-125202380D01*
X146047619Y-125202380D01*
X146666666Y-124202380D02*
X146761904Y-124202380D01*
X146857142Y-124250000D01*
X146904761Y-124297619D01*
X146952380Y-124392857D01*
X147000000Y-124583333D01*
X147000000Y-124821428D01*
X146952380Y-125011904D01*
X146904761Y-125107142D01*
X146857142Y-125154761D01*
X146761904Y-125202380D01*
X146666666Y-125202380D01*
X146571428Y-125154761D01*
X146523809Y-125107142D01*
X146476190Y-125011904D01*
X146428571Y-124821428D01*
X146428571Y-124583333D01*
X146476190Y-124392857D01*
X146523809Y-124297619D01*
X146571428Y-124250000D01*
X146666666Y-124202380D01*
X147857142Y-124535714D02*
X147857142Y-125202380D01*
X147619047Y-124154761D02*
X147380952Y-124869047D01*
X148000000Y-124869047D01*
X148571428Y-124202380D02*
X148666666Y-124202380D01*
X148761904Y-124250000D01*
X148809523Y-124297619D01*
X148857142Y-124392857D01*
X148904761Y-124583333D01*
X148904761Y-124821428D01*
X148857142Y-125011904D01*
X148809523Y-125107142D01*
X148761904Y-125154761D01*
X148666666Y-125202380D01*
X148571428Y-125202380D01*
X148476190Y-125154761D01*
X148428571Y-125107142D01*
X148380952Y-125011904D01*
X148333333Y-124821428D01*
X148333333Y-124583333D01*
X148380952Y-124392857D01*
X148428571Y-124297619D01*
X148476190Y-124250000D01*
X148571428Y-124202380D01*
X150666666Y-125107142D02*
X150619047Y-125154761D01*
X150476190Y-125202380D01*
X150380952Y-125202380D01*
X150238095Y-125154761D01*
X150142857Y-125059523D01*
X150095238Y-124964285D01*
X150047619Y-124773809D01*
X150047619Y-124630952D01*
X150095238Y-124440476D01*
X150142857Y-124345238D01*
X150238095Y-124250000D01*
X150380952Y-124202380D01*
X150476190Y-124202380D01*
X150619047Y-124250000D01*
X150666666Y-124297619D01*
X151523809Y-125202380D02*
X151523809Y-124678571D01*
X151476190Y-124583333D01*
X151380952Y-124535714D01*
X151190476Y-124535714D01*
X151095238Y-124583333D01*
X151523809Y-125154761D02*
X151428571Y-125202380D01*
X151190476Y-125202380D01*
X151095238Y-125154761D01*
X151047619Y-125059523D01*
X151047619Y-124964285D01*
X151095238Y-124869047D01*
X151190476Y-124821428D01*
X151428571Y-124821428D01*
X151523809Y-124773809D01*
X151952380Y-125154761D02*
X152047619Y-125202380D01*
X152238095Y-125202380D01*
X152333333Y-125154761D01*
X152380952Y-125059523D01*
X152380952Y-125011904D01*
X152333333Y-124916666D01*
X152238095Y-124869047D01*
X152095238Y-124869047D01*
X152000000Y-124821428D01*
X151952380Y-124726190D01*
X151952380Y-124678571D01*
X152000000Y-124583333D01*
X152095238Y-124535714D01*
X152238095Y-124535714D01*
X152333333Y-124583333D01*
X152666666Y-124535714D02*
X153047619Y-124535714D01*
X152809523Y-124202380D02*
X152809523Y-125059523D01*
X152857142Y-125154761D01*
X152952380Y-125202380D01*
X153047619Y-125202380D01*
X153333333Y-124916666D02*
X153809523Y-124916666D01*
X153238095Y-125202380D02*
X153571428Y-124202380D01*
X153904761Y-125202380D01*
X154142857Y-124535714D02*
X154333333Y-125202380D01*
X154523809Y-124726190D01*
X154714285Y-125202380D01*
X154904761Y-124535714D01*
X155714285Y-125202380D02*
X155714285Y-124678571D01*
X155666666Y-124583333D01*
X155571428Y-124535714D01*
X155380952Y-124535714D01*
X155285714Y-124583333D01*
X155714285Y-125154761D02*
X155619047Y-125202380D01*
X155380952Y-125202380D01*
X155285714Y-125154761D01*
X155238095Y-125059523D01*
X155238095Y-124964285D01*
X155285714Y-124869047D01*
X155380952Y-124821428D01*
X155619047Y-124821428D01*
X155714285Y-124773809D01*
X156095238Y-124535714D02*
X156333333Y-125202380D01*
X156571428Y-124535714D02*
X156333333Y-125202380D01*
X156238095Y-125440476D01*
X156190476Y-125488095D01*
X156095238Y-125535714D01*
D11*
X130816666Y-101789523D02*
X130816666Y-102170476D01*
X130588095Y-101713333D02*
X131388095Y-101980000D01*
X130588095Y-102246666D01*
D12*
X138607142Y-96321428D02*
X138607142Y-97821428D01*
X138107142Y-96750000D01*
X137607142Y-97821428D01*
X137607142Y-96321428D01*
X136607142Y-97821428D02*
X136321428Y-97821428D01*
X136178571Y-97750000D01*
X136035714Y-97607142D01*
X135964285Y-97321428D01*
X135964285Y-96821428D01*
X136035714Y-96535714D01*
X136178571Y-96392857D01*
X136321428Y-96321428D01*
X136607142Y-96321428D01*
X136750000Y-96392857D01*
X136892857Y-96535714D01*
X136964285Y-96821428D01*
X136964285Y-97321428D01*
X136892857Y-97607142D01*
X136750000Y-97750000D01*
X136607142Y-97821428D01*
X135535714Y-97821428D02*
X134678571Y-97821428D01*
X135107142Y-96321428D02*
X135107142Y-97821428D01*
X133892857Y-97821428D02*
X133607142Y-97821428D01*
X133464285Y-97750000D01*
X133321428Y-97607142D01*
X133250000Y-97321428D01*
X133250000Y-96821428D01*
X133321428Y-96535714D01*
X133464285Y-96392857D01*
X133607142Y-96321428D01*
X133892857Y-96321428D01*
X134035714Y-96392857D01*
X134178571Y-96535714D01*
X134250000Y-96821428D01*
X134250000Y-97321428D01*
X134178571Y-97607142D01*
X134035714Y-97750000D01*
X133892857Y-97821428D01*
X131750000Y-96321428D02*
X132250000Y-97035714D01*
X132607142Y-96321428D02*
X132607142Y-97821428D01*
X132035714Y-97821428D01*
X131892857Y-97750000D01*
X131821428Y-97678571D01*
X131750000Y-97535714D01*
X131750000Y-97321428D01*
X131821428Y-97178571D01*
X131892857Y-97107142D01*
X132035714Y-97035714D01*
X132607142Y-97035714D01*
X130321428Y-96321428D02*
X131178571Y-96321428D01*
X130750000Y-96321428D02*
X130750000Y-97821428D01*
X130892857Y-97607142D01*
X131035714Y-97464285D01*
X131178571Y-97392857D01*
X158642857Y-87250000D02*
X158785714Y-87321428D01*
X159000000Y-87321428D01*
X159214285Y-87250000D01*
X159357142Y-87107142D01*
X159428571Y-86964285D01*
X159500000Y-86678571D01*
X159500000Y-86464285D01*
X159428571Y-86178571D01*
X159357142Y-86035714D01*
X159214285Y-85892857D01*
X159000000Y-85821428D01*
X158857142Y-85821428D01*
X158642857Y-85892857D01*
X158571428Y-85964285D01*
X158571428Y-86464285D01*
X158857142Y-86464285D01*
X157928571Y-85821428D02*
X157928571Y-87321428D01*
X157071428Y-85821428D01*
X157071428Y-87321428D01*
X156357142Y-85821428D02*
X156357142Y-87321428D01*
X156000000Y-87321428D01*
X155785714Y-87250000D01*
X155642857Y-87107142D01*
X155571428Y-86964285D01*
X155500000Y-86678571D01*
X155500000Y-86464285D01*
X155571428Y-86178571D01*
X155642857Y-86035714D01*
X155785714Y-85892857D01*
X156000000Y-85821428D01*
X156357142Y-85821428D01*
D11*
X122609523Y-92650000D02*
X122685714Y-92688095D01*
X122800000Y-92688095D01*
X122914285Y-92650000D01*
X122990476Y-92573809D01*
X123028571Y-92497619D01*
X123066666Y-92345238D01*
X123066666Y-92230952D01*
X123028571Y-92078571D01*
X122990476Y-92002380D01*
X122914285Y-91926190D01*
X122800000Y-91888095D01*
X122723809Y-91888095D01*
X122609523Y-91926190D01*
X122571428Y-91964285D01*
X122571428Y-92230952D01*
X122723809Y-92230952D01*
X122228571Y-91888095D02*
X122228571Y-92688095D01*
X121771428Y-91888095D01*
X121771428Y-92688095D01*
X121390476Y-91888095D02*
X121390476Y-92688095D01*
X121200000Y-92688095D01*
X121085714Y-92650000D01*
X121009523Y-92573809D01*
X120971428Y-92497619D01*
X120933333Y-92345238D01*
X120933333Y-92230952D01*
X120971428Y-92078571D01*
X121009523Y-92002380D01*
X121085714Y-91926190D01*
X121200000Y-91888095D01*
X121390476Y-91888095D01*
X164370000Y-102005476D02*
X164408095Y-101929285D01*
X164408095Y-101815000D01*
X164370000Y-101700714D01*
X164293809Y-101624523D01*
X164217619Y-101586428D01*
X164065238Y-101548333D01*
X163950952Y-101548333D01*
X163798571Y-101586428D01*
X163722380Y-101624523D01*
X163646190Y-101700714D01*
X163608095Y-101815000D01*
X163608095Y-101891190D01*
X163646190Y-102005476D01*
X163684285Y-102043571D01*
X163950952Y-102043571D01*
X163950952Y-101891190D01*
X163608095Y-102386428D02*
X164408095Y-102386428D01*
X163608095Y-102843571D01*
X164408095Y-102843571D01*
X163608095Y-103224523D02*
X164408095Y-103224523D01*
X164408095Y-103415000D01*
X164370000Y-103529285D01*
X164293809Y-103605476D01*
X164217619Y-103643571D01*
X164065238Y-103681666D01*
X163950952Y-103681666D01*
X163798571Y-103643571D01*
X163722380Y-103605476D01*
X163646190Y-103529285D01*
X163608095Y-103415000D01*
X163608095Y-103224523D01*
X136468095Y-101569047D02*
X136468095Y-102064285D01*
X136163333Y-101797619D01*
X136163333Y-101911904D01*
X136125238Y-101988095D01*
X136087142Y-102026190D01*
X136010952Y-102064285D01*
X135820476Y-102064285D01*
X135744285Y-102026190D01*
X135706190Y-101988095D01*
X135668095Y-101911904D01*
X135668095Y-101683333D01*
X135706190Y-101607142D01*
X135744285Y-101569047D01*
X135744285Y-102407142D02*
X135706190Y-102445238D01*
X135668095Y-102407142D01*
X135706190Y-102369047D01*
X135744285Y-102407142D01*
X135668095Y-102407142D01*
X136468095Y-102711904D02*
X136468095Y-103207142D01*
X136163333Y-102940476D01*
X136163333Y-103054761D01*
X136125238Y-103130952D01*
X136087142Y-103169047D01*
X136010952Y-103207142D01*
X135820476Y-103207142D01*
X135744285Y-103169047D01*
X135706190Y-103130952D01*
X135668095Y-103054761D01*
X135668095Y-102826190D01*
X135706190Y-102750000D01*
X135744285Y-102711904D01*
X136468095Y-103435714D02*
X135668095Y-103702380D01*
X136468095Y-103969047D01*
X178109523Y-103900000D02*
X178185714Y-103938095D01*
X178300000Y-103938095D01*
X178414285Y-103900000D01*
X178490476Y-103823809D01*
X178528571Y-103747619D01*
X178566666Y-103595238D01*
X178566666Y-103480952D01*
X178528571Y-103328571D01*
X178490476Y-103252380D01*
X178414285Y-103176190D01*
X178300000Y-103138095D01*
X178223809Y-103138095D01*
X178109523Y-103176190D01*
X178071428Y-103214285D01*
X178071428Y-103480952D01*
X178223809Y-103480952D01*
X177728571Y-103138095D02*
X177728571Y-103938095D01*
X177271428Y-103138095D01*
X177271428Y-103938095D01*
X176890476Y-103138095D02*
X176890476Y-103938095D01*
X176700000Y-103938095D01*
X176585714Y-103900000D01*
X176509523Y-103823809D01*
X176471428Y-103747619D01*
X176433333Y-103595238D01*
X176433333Y-103480952D01*
X176471428Y-103328571D01*
X176509523Y-103252380D01*
X176585714Y-103176190D01*
X176700000Y-103138095D01*
X176890476Y-103138095D01*
X161296666Y-101789523D02*
X161296666Y-102170476D01*
X161068095Y-101713333D02*
X161868095Y-101980000D01*
X161068095Y-102246666D01*
D12*
X144500000Y-87321428D02*
X144000000Y-85821428D01*
X143500000Y-87321428D01*
X142142857Y-85964285D02*
X142214285Y-85892857D01*
X142428571Y-85821428D01*
X142571428Y-85821428D01*
X142785714Y-85892857D01*
X142928571Y-86035714D01*
X143000000Y-86178571D01*
X143071428Y-86464285D01*
X143071428Y-86678571D01*
X143000000Y-86964285D01*
X142928571Y-87107142D01*
X142785714Y-87250000D01*
X142571428Y-87321428D01*
X142428571Y-87321428D01*
X142214285Y-87250000D01*
X142142857Y-87178571D01*
X140642857Y-85964285D02*
X140714285Y-85892857D01*
X140928571Y-85821428D01*
X141071428Y-85821428D01*
X141285714Y-85892857D01*
X141428571Y-86035714D01*
X141500000Y-86178571D01*
X141571428Y-86464285D01*
X141571428Y-86678571D01*
X141500000Y-86964285D01*
X141428571Y-87107142D01*
X141285714Y-87250000D01*
X141071428Y-87321428D01*
X140928571Y-87321428D01*
X140714285Y-87250000D01*
X140642857Y-87178571D01*
X169607142Y-96321428D02*
X169607142Y-97821428D01*
X169107142Y-96750000D01*
X168607142Y-97821428D01*
X168607142Y-96321428D01*
X167607142Y-97821428D02*
X167321428Y-97821428D01*
X167178571Y-97750000D01*
X167035714Y-97607142D01*
X166964285Y-97321428D01*
X166964285Y-96821428D01*
X167035714Y-96535714D01*
X167178571Y-96392857D01*
X167321428Y-96321428D01*
X167607142Y-96321428D01*
X167750000Y-96392857D01*
X167892857Y-96535714D01*
X167964285Y-96821428D01*
X167964285Y-97321428D01*
X167892857Y-97607142D01*
X167750000Y-97750000D01*
X167607142Y-97821428D01*
X166535714Y-97821428D02*
X165678571Y-97821428D01*
X166107142Y-96321428D02*
X166107142Y-97821428D01*
X164892857Y-97821428D02*
X164607142Y-97821428D01*
X164464285Y-97750000D01*
X164321428Y-97607142D01*
X164250000Y-97321428D01*
X164250000Y-96821428D01*
X164321428Y-96535714D01*
X164464285Y-96392857D01*
X164607142Y-96321428D01*
X164892857Y-96321428D01*
X165035714Y-96392857D01*
X165178571Y-96535714D01*
X165250000Y-96821428D01*
X165250000Y-97321428D01*
X165178571Y-97607142D01*
X165035714Y-97750000D01*
X164892857Y-97821428D01*
X162750000Y-96321428D02*
X163250000Y-97035714D01*
X163607142Y-96321428D02*
X163607142Y-97821428D01*
X163035714Y-97821428D01*
X162892857Y-97750000D01*
X162821428Y-97678571D01*
X162750000Y-97535714D01*
X162750000Y-97321428D01*
X162821428Y-97178571D01*
X162892857Y-97107142D01*
X163035714Y-97035714D01*
X163607142Y-97035714D01*
X162178571Y-97678571D02*
X162107142Y-97750000D01*
X161964285Y-97821428D01*
X161607142Y-97821428D01*
X161464285Y-97750000D01*
X161392857Y-97678571D01*
X161321428Y-97535714D01*
X161321428Y-97392857D01*
X161392857Y-97178571D01*
X162250000Y-96321428D01*
X161321428Y-96321428D01*
D10*
%TO.C,U3*%
X149238095Y-122252380D02*
X149238095Y-123061904D01*
X149285714Y-123157142D01*
X149333333Y-123204761D01*
X149428571Y-123252380D01*
X149619047Y-123252380D01*
X149714285Y-123204761D01*
X149761904Y-123157142D01*
X149809523Y-123061904D01*
X149809523Y-122252380D01*
X150190476Y-122252380D02*
X150809523Y-122252380D01*
X150476190Y-122633333D01*
X150619047Y-122633333D01*
X150714285Y-122680952D01*
X150761904Y-122728571D01*
X150809523Y-122823809D01*
X150809523Y-123061904D01*
X150761904Y-123157142D01*
X150714285Y-123204761D01*
X150619047Y-123252380D01*
X150333333Y-123252380D01*
X150238095Y-123204761D01*
X150190476Y-123157142D01*
%TO.C,U2*%
X174488095Y-111702380D02*
X174488095Y-112511904D01*
X174535714Y-112607142D01*
X174583333Y-112654761D01*
X174678571Y-112702380D01*
X174869047Y-112702380D01*
X174964285Y-112654761D01*
X175011904Y-112607142D01*
X175059523Y-112511904D01*
X175059523Y-111702380D01*
X175488095Y-111797619D02*
X175535714Y-111750000D01*
X175630952Y-111702380D01*
X175869047Y-111702380D01*
X175964285Y-111750000D01*
X176011904Y-111797619D01*
X176059523Y-111892857D01*
X176059523Y-111988095D01*
X176011904Y-112130952D01*
X175440476Y-112702380D01*
X176059523Y-112702380D01*
%TO.C,C2*%
X137107142Y-112166666D02*
X137154761Y-112214285D01*
X137202380Y-112357142D01*
X137202380Y-112452380D01*
X137154761Y-112595238D01*
X137059523Y-112690476D01*
X136964285Y-112738095D01*
X136773809Y-112785714D01*
X136630952Y-112785714D01*
X136440476Y-112738095D01*
X136345238Y-112690476D01*
X136250000Y-112595238D01*
X136202380Y-112452380D01*
X136202380Y-112357142D01*
X136250000Y-112214285D01*
X136297619Y-112166666D01*
X136297619Y-111785714D02*
X136250000Y-111738095D01*
X136202380Y-111642857D01*
X136202380Y-111404761D01*
X136250000Y-111309523D01*
X136297619Y-111261904D01*
X136392857Y-111214285D01*
X136488095Y-111214285D01*
X136630952Y-111261904D01*
X137202380Y-111833333D01*
X137202380Y-111214285D01*
%TO.C,C3*%
X179357142Y-113416666D02*
X179404761Y-113464285D01*
X179452380Y-113607142D01*
X179452380Y-113702380D01*
X179404761Y-113845238D01*
X179309523Y-113940476D01*
X179214285Y-113988095D01*
X179023809Y-114035714D01*
X178880952Y-114035714D01*
X178690476Y-113988095D01*
X178595238Y-113940476D01*
X178500000Y-113845238D01*
X178452380Y-113702380D01*
X178452380Y-113607142D01*
X178500000Y-113464285D01*
X178547619Y-113416666D01*
X178452380Y-113083333D02*
X178452380Y-112464285D01*
X178833333Y-112797619D01*
X178833333Y-112654761D01*
X178880952Y-112559523D01*
X178928571Y-112511904D01*
X179023809Y-112464285D01*
X179261904Y-112464285D01*
X179357142Y-112511904D01*
X179404761Y-112559523D01*
X179452380Y-112654761D01*
X179452380Y-112940476D01*
X179404761Y-113035714D01*
X179357142Y-113083333D01*
%TO.C,Q1*%
X145654761Y-101047619D02*
X145559523Y-101000000D01*
X145464285Y-100904761D01*
X145321428Y-100761904D01*
X145226190Y-100714285D01*
X145130952Y-100714285D01*
X145178571Y-100952380D02*
X145083333Y-100904761D01*
X144988095Y-100809523D01*
X144940476Y-100619047D01*
X144940476Y-100285714D01*
X144988095Y-100095238D01*
X145083333Y-100000000D01*
X145178571Y-99952380D01*
X145369047Y-99952380D01*
X145464285Y-100000000D01*
X145559523Y-100095238D01*
X145607142Y-100285714D01*
X145607142Y-100619047D01*
X145559523Y-100809523D01*
X145464285Y-100904761D01*
X145369047Y-100952380D01*
X145178571Y-100952380D01*
X146559523Y-100952380D02*
X145988095Y-100952380D01*
X146273809Y-100952380D02*
X146273809Y-99952380D01*
X146178571Y-100095238D01*
X146083333Y-100190476D01*
X145988095Y-100238095D01*
%TO.C,C1*%
X155607142Y-102533317D02*
X155654761Y-102580936D01*
X155702380Y-102723793D01*
X155702380Y-102819031D01*
X155654761Y-102961889D01*
X155559523Y-103057127D01*
X155464285Y-103104746D01*
X155273809Y-103152365D01*
X155130952Y-103152365D01*
X154940476Y-103104746D01*
X154845238Y-103057127D01*
X154750000Y-102961889D01*
X154702380Y-102819031D01*
X154702380Y-102723793D01*
X154750000Y-102580936D01*
X154797619Y-102533317D01*
X155702380Y-101580936D02*
X155702380Y-102152365D01*
X155702380Y-101866651D02*
X154702380Y-101866651D01*
X154845238Y-101961889D01*
X154940476Y-102057127D01*
X154988095Y-102152365D01*
%TO.C,U1*%
X133488095Y-111702380D02*
X133488095Y-112511904D01*
X133535714Y-112607142D01*
X133583333Y-112654761D01*
X133678571Y-112702380D01*
X133869047Y-112702380D01*
X133964285Y-112654761D01*
X134011904Y-112607142D01*
X134059523Y-112511904D01*
X134059523Y-111702380D01*
X135059523Y-112702380D02*
X134488095Y-112702380D01*
X134773809Y-112702380D02*
X134773809Y-111702380D01*
X134678571Y-111845238D01*
X134583333Y-111940476D01*
X134488095Y-111988095D01*
D11*
%TO.C,J7*%
X136110000Y-130215000D02*
X135060000Y-130215000D01*
X129890000Y-130215000D02*
X130940000Y-130215000D01*
X130940000Y-130215000D02*
X130940000Y-129225000D01*
X131060000Y-134685000D02*
X134940000Y-134685000D01*
X136110000Y-132715000D02*
X136110000Y-130215000D01*
X129890000Y-132715000D02*
X129890000Y-130215000D01*
%TO.C,J9*%
X179160000Y-95000000D02*
X178550000Y-95000000D01*
X179460000Y-92140000D02*
X178210000Y-92140000D01*
X179360000Y-93900000D02*
X179160000Y-93900000D01*
X177850000Y-102560000D02*
X177850000Y-101950000D01*
X179160000Y-92440000D02*
X174440000Y-92440000D01*
X174440000Y-102560000D02*
X179160000Y-102560000D01*
X178550000Y-101950000D02*
X178550000Y-100000000D01*
X179260000Y-94200000D02*
X179260000Y-93900000D01*
X175050000Y-101950000D02*
X178550000Y-101950000D01*
X175550000Y-97400000D02*
X175550000Y-97600000D01*
X175050000Y-97400000D02*
X175550000Y-97400000D01*
X175050000Y-95500000D02*
X175550000Y-95500000D01*
X179460000Y-93390000D02*
X179460000Y-92140000D01*
X179360000Y-94200000D02*
X179360000Y-93900000D01*
X178550000Y-93050000D02*
X175050000Y-93050000D01*
X176550000Y-102560000D02*
X176550000Y-101950000D01*
X175050000Y-95400000D02*
X175550000Y-95400000D01*
X179160000Y-94200000D02*
X179360000Y-94200000D01*
X175050000Y-93050000D02*
X175050000Y-101950000D01*
X174440000Y-92440000D02*
X174440000Y-102560000D01*
X178550000Y-95000000D02*
X178550000Y-93050000D01*
X175050000Y-99400000D02*
X175550000Y-99400000D01*
X175550000Y-97600000D02*
X175050000Y-97600000D01*
X175550000Y-95400000D02*
X175550000Y-95600000D01*
X175050000Y-99500000D02*
X175550000Y-99500000D01*
X175550000Y-95600000D02*
X175050000Y-95600000D01*
X175550000Y-99600000D02*
X175050000Y-99600000D01*
X175550000Y-99400000D02*
X175550000Y-99600000D01*
X177850000Y-92440000D02*
X177850000Y-93050000D01*
X176550000Y-92440000D02*
X176550000Y-93050000D01*
X179160000Y-102560000D02*
X179160000Y-92440000D01*
X178550000Y-100000000D02*
X179160000Y-100000000D01*
X175050000Y-97500000D02*
X175550000Y-97500000D01*
%TO.C,J4*%
X127080000Y-101330000D02*
X127080000Y-100000000D01*
X129680000Y-98670000D02*
X142440000Y-98670000D01*
X128410000Y-101330000D02*
X127080000Y-101330000D01*
X142440000Y-101330000D02*
X142440000Y-98670000D01*
X129680000Y-101330000D02*
X142440000Y-101330000D01*
X129680000Y-101330000D02*
X129680000Y-98670000D01*
%TO.C,U3*%
X160160000Y-135000000D02*
X139840000Y-135000000D01*
X160160000Y-108076000D02*
X157620000Y-108076000D01*
X160160000Y-129920000D02*
X160160000Y-135000000D01*
X160160000Y-114680000D02*
X160160000Y-108076000D01*
X139840000Y-135000000D02*
X139840000Y-129920000D01*
X142380000Y-108076000D02*
X139840000Y-108076000D01*
X139840000Y-108076000D02*
X139840000Y-114426000D01*
%TO.C,D1*%
X161540000Y-111685000D02*
X163460000Y-111685000D01*
X161540000Y-109000000D02*
X161540000Y-111685000D01*
X163460000Y-111685000D02*
X163460000Y-109000000D01*
%TO.C,J5*%
X158890000Y-101330000D02*
X157560000Y-101330000D01*
X160160000Y-101330000D02*
X160160000Y-98670000D01*
X160160000Y-101330000D02*
X172920000Y-101330000D01*
X160160000Y-98670000D02*
X172920000Y-98670000D01*
X157560000Y-101330000D02*
X157560000Y-100000000D01*
X172920000Y-101330000D02*
X172920000Y-98670000D01*
%TO.C,J3*%
X155300000Y-85840000D02*
X155300000Y-85100000D01*
X146430000Y-91275000D02*
X146465000Y-91239000D01*
X155060000Y-92301000D02*
X144940000Y-92301000D01*
X148727000Y-88977000D02*
X148774000Y-88931000D01*
X155060000Y-95261000D02*
X155060000Y-85340000D01*
X155300000Y-85100000D02*
X154800000Y-85100000D01*
X144940000Y-95261000D02*
X144940000Y-85340000D01*
X148534000Y-88761000D02*
X148569000Y-88726000D01*
X155060000Y-95261000D02*
X144940000Y-95261000D01*
X155060000Y-87400000D02*
X144940000Y-87400000D01*
X155060000Y-85340000D02*
X144940000Y-85340000D01*
X155060000Y-85900000D02*
X144940000Y-85900000D01*
X146225000Y-91069000D02*
X146272000Y-91023000D01*
X152500000Y-88320000D02*
G75*
G03*
X151816682Y-88465244I-1J-1679992D01*
G01*
X150965000Y-89316000D02*
G75*
G03*
X150964573Y-90683042I1534993J-684001D01*
G01*
X151816000Y-91535000D02*
G75*
G03*
X153183042Y-91535427I684001J1534993D01*
G01*
X153184000Y-88465000D02*
G75*
G03*
X152471195Y-88319747I-683999J-1535001D01*
G01*
X154035000Y-90684000D02*
G75*
G03*
X154035427Y-89316958I-1534993J684001D01*
G01*
X149180000Y-90000000D02*
G75*
G03*
X149180000Y-90000000I-1680000J0D01*
G01*
D10*
%TO.C,U2*%
X166100000Y-104650000D02*
X167650000Y-104650000D01*
X166100000Y-111350000D02*
X167650000Y-111350000D01*
X166100000Y-111000000D02*
X166100000Y-111350000D01*
X173900000Y-104650000D02*
X172350000Y-104650000D01*
X175800000Y-111350000D02*
X172400000Y-111350000D01*
X166100000Y-105000000D02*
X166100000Y-104650000D01*
X173900000Y-105000000D02*
X173900000Y-104650000D01*
D11*
%TO.C,J2*%
X171560000Y-95261000D02*
X161440000Y-95261000D01*
X171560000Y-87400000D02*
X161440000Y-87400000D01*
X171800000Y-85840000D02*
X171800000Y-85100000D01*
X171560000Y-85340000D02*
X161440000Y-85340000D01*
X165227000Y-88977000D02*
X165274000Y-88931000D01*
X165034000Y-88761000D02*
X165069000Y-88726000D01*
X171560000Y-85900000D02*
X161440000Y-85900000D01*
X171800000Y-85100000D02*
X171300000Y-85100000D01*
X171560000Y-95261000D02*
X171560000Y-85340000D01*
X161440000Y-95261000D02*
X161440000Y-85340000D01*
X162725000Y-91069000D02*
X162772000Y-91023000D01*
X171560000Y-92301000D02*
X161440000Y-92301000D01*
X162930000Y-91275000D02*
X162965000Y-91239000D01*
X167465000Y-89316000D02*
G75*
G03*
X167464573Y-90683042I1534993J-684001D01*
G01*
X169000000Y-88320000D02*
G75*
G03*
X168316682Y-88465244I-1J-1679992D01*
G01*
X169684000Y-88465000D02*
G75*
G03*
X168971195Y-88319747I-683999J-1535001D01*
G01*
X170535000Y-90684000D02*
G75*
G03*
X170535427Y-89316958I-1534993J684001D01*
G01*
X168316000Y-91535000D02*
G75*
G03*
X169683042Y-91535427I684001J1534993D01*
G01*
X165680000Y-90000000D02*
G75*
G03*
X165680000Y-90000000I-1680000J0D01*
G01*
%TO.C,R1*%
X163235000Y-113727064D02*
X163235000Y-113272936D01*
X161765000Y-113727064D02*
X161765000Y-113272936D01*
%TO.C,C2*%
X139051000Y-110862748D02*
X139051000Y-111385252D01*
X137581000Y-110862748D02*
X137581000Y-111385252D01*
%TO.C,C3*%
X177713000Y-110288748D02*
X177713000Y-110811252D01*
X179183000Y-110288748D02*
X179183000Y-110811252D01*
%TO.C,Q1*%
X143190000Y-101000000D02*
X143190000Y-104450000D01*
X148310000Y-101000000D02*
X148310000Y-102950000D01*
X143190000Y-101000000D02*
X143190000Y-99050000D01*
X148310000Y-101000000D02*
X148310000Y-99050000D01*
%TO.C,J1*%
X138560000Y-87400000D02*
X128440000Y-87400000D01*
X129725000Y-91069000D02*
X129772000Y-91023000D01*
X138800000Y-85840000D02*
X138800000Y-85100000D01*
X138560000Y-85340000D02*
X128440000Y-85340000D01*
X138560000Y-95261000D02*
X138560000Y-85340000D01*
X138560000Y-92301000D02*
X128440000Y-92301000D01*
X138560000Y-85900000D02*
X128440000Y-85900000D01*
X129930000Y-91275000D02*
X129965000Y-91239000D01*
X128440000Y-95261000D02*
X128440000Y-85340000D01*
X138800000Y-85100000D02*
X138300000Y-85100000D01*
X132227000Y-88977000D02*
X132274000Y-88931000D01*
X138560000Y-95261000D02*
X128440000Y-95261000D01*
X132034000Y-88761000D02*
X132069000Y-88726000D01*
X136684000Y-88465000D02*
G75*
G03*
X135971195Y-88319747I-683999J-1535001D01*
G01*
X137535000Y-90684000D02*
G75*
G03*
X137535427Y-89316958I-1534993J684001D01*
G01*
X134465000Y-89316000D02*
G75*
G03*
X134464573Y-90683042I1534993J-684001D01*
G01*
X135316000Y-91535000D02*
G75*
G03*
X136683042Y-91535427I684001J1534993D01*
G01*
X136000000Y-88320000D02*
G75*
G03*
X135316682Y-88465244I-1J-1679992D01*
G01*
X132680000Y-90000000D02*
G75*
G03*
X132680000Y-90000000I-1680000J0D01*
G01*
%TO.C,C1*%
X149028000Y-99185651D02*
X151710000Y-99185651D01*
X153790000Y-98625651D02*
X156168000Y-98625651D01*
X153790000Y-99305651D02*
X156524000Y-99305651D01*
X153790000Y-98705651D02*
X156219000Y-98705651D01*
X149660000Y-98185651D02*
X151710000Y-98185651D01*
X148682000Y-100546651D02*
X156818000Y-100546651D01*
X148756000Y-100025651D02*
X151710000Y-100025651D01*
X148671000Y-100746651D02*
X156829000Y-100746651D01*
X153790000Y-99705651D02*
X156664000Y-99705651D01*
X148685000Y-100506651D02*
X156815000Y-100506651D01*
X148836000Y-99705651D02*
X151710000Y-99705651D01*
X149281000Y-98705651D02*
X151710000Y-98705651D01*
X148708000Y-100306651D02*
X156792000Y-100306651D01*
X149385000Y-98545651D02*
X151710000Y-98545651D01*
X151019000Y-97145651D02*
X154481000Y-97145651D01*
X148713000Y-100266651D02*
X156787000Y-100266651D01*
X148793000Y-99865651D02*
X151710000Y-99865651D01*
X148774000Y-99945651D02*
X151710000Y-99945651D01*
X153790000Y-99945651D02*
X156726000Y-99945651D01*
X153790000Y-99985651D02*
X156735000Y-99985651D01*
X153790000Y-98545651D02*
X156115000Y-98545651D01*
X149144000Y-98945651D02*
X151710000Y-98945651D01*
X153790000Y-99145651D02*
X156454000Y-99145651D01*
X153790000Y-99625651D02*
X156639000Y-99625651D01*
X149731000Y-98105651D02*
X151710000Y-98105651D01*
X153790000Y-99105651D02*
X156436000Y-99105651D01*
X149530000Y-98345651D02*
X151710000Y-98345651D01*
X153790000Y-98385651D02*
X156000000Y-98385651D01*
X148674000Y-100666651D02*
X156826000Y-100666651D01*
X150786000Y-97265651D02*
X154714000Y-97265651D01*
X148726000Y-100186651D02*
X156774000Y-100186651D01*
X149843000Y-97985651D02*
X155657000Y-97985651D01*
X148733000Y-100145651D02*
X151710000Y-100145651D01*
X153790000Y-99745651D02*
X156675000Y-99745651D01*
X150648000Y-97345651D02*
X154852000Y-97345651D01*
X149233000Y-98785651D02*
X151710000Y-98785651D01*
X150296000Y-97585651D02*
X155204000Y-97585651D01*
X153790000Y-99545651D02*
X156613000Y-99545651D01*
X150053000Y-97785651D02*
X155447000Y-97785651D01*
X151982000Y-96825651D02*
X153518000Y-96825651D01*
X148915000Y-99465651D02*
X151710000Y-99465651D01*
X148670000Y-100826651D02*
X156830000Y-100826651D01*
X149064000Y-99105651D02*
X151710000Y-99105651D01*
X149306000Y-98665651D02*
X151710000Y-98665651D01*
X149805000Y-98025651D02*
X155695000Y-98025651D01*
X149626000Y-98225651D02*
X151710000Y-98225651D01*
X153790000Y-98105651D02*
X155769000Y-98105651D01*
X153790000Y-98185651D02*
X155840000Y-98185651D01*
X153790000Y-99065651D02*
X156416000Y-99065651D01*
X148673000Y-100706651D02*
X156827000Y-100706651D01*
X153790000Y-98585651D02*
X156142000Y-98585651D01*
X149695000Y-98145651D02*
X151710000Y-98145651D01*
X150245000Y-97625651D02*
X155255000Y-97625651D01*
X151802000Y-96865651D02*
X153698000Y-96865651D01*
X149767000Y-98065651D02*
X155733000Y-98065651D01*
X148689000Y-100466651D02*
X156811000Y-100466651D01*
X153790000Y-99225651D02*
X156490000Y-99225651D01*
X153790000Y-98425651D02*
X156030000Y-98425651D01*
X153790000Y-98985651D02*
X156377000Y-98985651D01*
X148702000Y-100346651D02*
X156798000Y-100346651D01*
X149188000Y-98865651D02*
X151710000Y-98865651D01*
X151652000Y-96905651D02*
X153848000Y-96905651D01*
X153790000Y-99665651D02*
X156652000Y-99665651D01*
X153790000Y-99345651D02*
X156540000Y-99345651D01*
X148929000Y-99425651D02*
X151710000Y-99425651D01*
X153790000Y-99865651D02*
X156707000Y-99865651D01*
X150435000Y-105276349D02*
X150435000Y-104476349D01*
X150350000Y-97545651D02*
X155150000Y-97545651D01*
X149084000Y-99065651D02*
X151710000Y-99065651D01*
X148803000Y-99825651D02*
X151710000Y-99825651D01*
X153790000Y-98505651D02*
X156088000Y-98505651D01*
X148720000Y-100226651D02*
X156780000Y-100226651D01*
X153790000Y-100145651D02*
X156767000Y-100145651D01*
X150194000Y-97665651D02*
X155306000Y-97665651D01*
X153790000Y-98305651D02*
X155939000Y-98305651D01*
X153790000Y-98825651D02*
X156290000Y-98825651D01*
X153790000Y-99465651D02*
X156585000Y-99465651D01*
X149103000Y-99025651D02*
X151710000Y-99025651D01*
X153790000Y-98905651D02*
X156334000Y-98905651D01*
X148676000Y-100626651D02*
X156824000Y-100626651D01*
X148887000Y-99545651D02*
X151710000Y-99545651D01*
X149257000Y-98745651D02*
X151710000Y-98745651D01*
X149470000Y-98425651D02*
X151710000Y-98425651D01*
X151198000Y-97065651D02*
X154302000Y-97065651D01*
X153790000Y-98945651D02*
X156356000Y-98945651D01*
X149210000Y-98825651D02*
X151710000Y-98825651D01*
X149123000Y-98985651D02*
X151710000Y-98985651D01*
X150405000Y-97505651D02*
X155095000Y-97505651D01*
X153790000Y-100105651D02*
X156760000Y-100105651D01*
X149594000Y-98265651D02*
X151710000Y-98265651D01*
X153790000Y-99025651D02*
X156397000Y-99025651D01*
X149500000Y-98385651D02*
X151710000Y-98385651D01*
X148765000Y-99985651D02*
X151710000Y-99985651D01*
X150035000Y-104876349D02*
X150835000Y-104876349D01*
X148698000Y-100386651D02*
X156802000Y-100386651D01*
X149441000Y-98465651D02*
X151710000Y-98465651D01*
X150463000Y-97465651D02*
X155037000Y-97465651D01*
X153790000Y-98145651D02*
X155805000Y-98145651D01*
X153790000Y-100025651D02*
X156744000Y-100025651D01*
X153790000Y-100065651D02*
X156752000Y-100065651D01*
X153790000Y-99785651D02*
X156686000Y-99785651D01*
X148873000Y-99585651D02*
X151710000Y-99585651D01*
X153790000Y-98745651D02*
X156243000Y-98745651D01*
X148740000Y-100105651D02*
X151710000Y-100105651D01*
X151521000Y-96945651D02*
X153979000Y-96945651D01*
X149046000Y-99145651D02*
X151710000Y-99145651D01*
X153790000Y-98665651D02*
X156194000Y-98665651D01*
X148679000Y-100586651D02*
X156821000Y-100586651D01*
X149561000Y-98305651D02*
X151710000Y-98305651D01*
X149924000Y-97905651D02*
X155576000Y-97905651D01*
X148945000Y-99385651D02*
X151710000Y-99385651D01*
X148900000Y-99505651D02*
X151710000Y-99505651D01*
X153790000Y-99185651D02*
X156472000Y-99185651D01*
X150860000Y-97225651D02*
X154640000Y-97225651D01*
X150522000Y-97425651D02*
X154978000Y-97425651D01*
X153790000Y-98345651D02*
X155970000Y-98345651D01*
X149883000Y-97945651D02*
X155617000Y-97945651D01*
X152217000Y-96785651D02*
X153283000Y-96785651D01*
X148861000Y-99625651D02*
X151710000Y-99625651D01*
X148848000Y-99665651D02*
X151710000Y-99665651D01*
X148693000Y-100426651D02*
X156807000Y-100426651D01*
X149332000Y-98625651D02*
X151710000Y-98625651D01*
X149966000Y-97865651D02*
X155534000Y-97865651D01*
X148976000Y-99305651D02*
X151710000Y-99305651D01*
X149010000Y-99225651D02*
X151710000Y-99225651D01*
X151404000Y-96985651D02*
X154096000Y-96985651D01*
X153790000Y-99905651D02*
X156717000Y-99905651D01*
X150716000Y-97305651D02*
X154784000Y-97305651D01*
X149358000Y-98585651D02*
X151710000Y-98585651D01*
X148670000Y-100786651D02*
X156830000Y-100786651D01*
X148825000Y-99745651D02*
X151710000Y-99745651D01*
X148993000Y-99265651D02*
X151710000Y-99265651D01*
X148783000Y-99905651D02*
X151710000Y-99905651D01*
X148670000Y-100866651D02*
X156830000Y-100866651D01*
X153790000Y-99825651D02*
X156697000Y-99825651D01*
X150009000Y-97825651D02*
X155491000Y-97825651D01*
X150937000Y-97185651D02*
X154563000Y-97185651D01*
X153790000Y-98865651D02*
X156312000Y-98865651D01*
X150146000Y-97705651D02*
X155354000Y-97705651D01*
X153790000Y-99585651D02*
X156627000Y-99585651D01*
X148960000Y-99345651D02*
X151710000Y-99345651D01*
X149166000Y-98905651D02*
X151710000Y-98905651D01*
X150099000Y-97745651D02*
X155401000Y-97745651D01*
X153790000Y-99265651D02*
X156507000Y-99265651D01*
X151297000Y-97025651D02*
X154203000Y-97025651D01*
X153790000Y-98225651D02*
X155874000Y-98225651D01*
X148748000Y-100065651D02*
X151710000Y-100065651D01*
X151105000Y-97105651D02*
X154395000Y-97105651D01*
X153790000Y-99385651D02*
X156555000Y-99385651D01*
X153790000Y-99505651D02*
X156600000Y-99505651D01*
X150584000Y-97385651D02*
X154916000Y-97385651D01*
X148814000Y-99785651D02*
X151710000Y-99785651D01*
X153790000Y-98785651D02*
X156267000Y-98785651D01*
X153790000Y-98265651D02*
X155906000Y-98265651D01*
X153790000Y-99425651D02*
X156571000Y-99425651D01*
X149412000Y-98505651D02*
X151710000Y-98505651D01*
X153790000Y-98465651D02*
X156059000Y-98465651D01*
X156870000Y-100866651D02*
G75*
G03*
X156870000Y-100866651I-4120000J0D01*
G01*
%TO.C,J6*%
X164940000Y-130215000D02*
X164940000Y-129225000D01*
X165060000Y-134685000D02*
X168940000Y-134685000D01*
X170110000Y-130215000D02*
X169060000Y-130215000D01*
X163890000Y-130215000D02*
X164940000Y-130215000D01*
X163890000Y-132715000D02*
X163890000Y-130215000D01*
X170110000Y-132715000D02*
X170110000Y-130215000D01*
D10*
%TO.C,U1*%
X126100000Y-111000000D02*
X126100000Y-111350000D01*
X133900000Y-104650000D02*
X132350000Y-104650000D01*
X126100000Y-105000000D02*
X126100000Y-104650000D01*
X133900000Y-105000000D02*
X133900000Y-104650000D01*
X135800000Y-111350000D02*
X132400000Y-111350000D01*
X126100000Y-111350000D02*
X127650000Y-111350000D01*
X126100000Y-104650000D02*
X127650000Y-104650000D01*
D11*
%TO.C,J8*%
X120640000Y-100500000D02*
X121250000Y-100500000D01*
X124250000Y-99900000D02*
X124750000Y-99900000D01*
X124250000Y-98100000D02*
X124250000Y-97900000D01*
X124750000Y-100100000D02*
X124250000Y-100100000D01*
X124750000Y-98000000D02*
X124250000Y-98000000D01*
X121950000Y-103060000D02*
X121950000Y-102450000D01*
X124750000Y-98100000D02*
X124250000Y-98100000D01*
X121250000Y-100500000D02*
X121250000Y-102450000D01*
X120440000Y-101300000D02*
X120440000Y-101600000D01*
X120340000Y-102110000D02*
X120340000Y-103360000D01*
X123250000Y-103060000D02*
X123250000Y-102450000D01*
X121250000Y-93550000D02*
X121250000Y-95500000D01*
X125360000Y-92940000D02*
X120640000Y-92940000D01*
X124750000Y-96000000D02*
X124250000Y-96000000D01*
X124750000Y-96100000D02*
X124250000Y-96100000D01*
X121250000Y-95500000D02*
X120640000Y-95500000D01*
X121950000Y-92940000D02*
X121950000Y-93550000D01*
X124250000Y-95900000D02*
X124750000Y-95900000D01*
X121250000Y-102450000D02*
X124750000Y-102450000D01*
X124750000Y-102450000D02*
X124750000Y-93550000D01*
X120540000Y-101300000D02*
X120540000Y-101600000D01*
X120640000Y-92940000D02*
X120640000Y-103060000D01*
X120340000Y-103360000D02*
X121590000Y-103360000D01*
X124250000Y-96100000D02*
X124250000Y-95900000D01*
X120440000Y-101600000D02*
X120640000Y-101600000D01*
X124750000Y-93550000D02*
X121250000Y-93550000D01*
X123250000Y-92940000D02*
X123250000Y-93550000D01*
X120640000Y-101300000D02*
X120440000Y-101300000D01*
X124250000Y-97900000D02*
X124750000Y-97900000D01*
X125360000Y-103060000D02*
X125360000Y-92940000D01*
X124750000Y-100000000D02*
X124250000Y-100000000D01*
X124250000Y-100100000D02*
X124250000Y-99900000D01*
X120640000Y-103060000D02*
X125360000Y-103060000D01*
%TD*%
%LPC*%
D13*
%TO.C,J7*%
X131500000Y-130000000D03*
X132500000Y-130000000D03*
X133500000Y-130000000D03*
X134500000Y-130000000D03*
D14*
X130200000Y-133875000D03*
X135800000Y-133875000D03*
%TD*%
D15*
%TO.C,J9*%
X177350000Y-94500000D03*
D16*
X177350000Y-96500000D03*
X177350000Y-98500000D03*
X177350000Y-100500000D03*
%TD*%
D17*
%TO.C,REF\u002A\u002A*%
X178197056Y-133197056D03*
X178197056Y-129802944D03*
X174100000Y-131500000D03*
D18*
X176500000Y-131500000D03*
X176500000Y-131500000D03*
D17*
X174802944Y-133197056D03*
X174802944Y-129802944D03*
X176500000Y-129100000D03*
X176500000Y-133900000D03*
X178900000Y-131500000D03*
%TD*%
D19*
%TO.C,J12*%
X152000000Y-94000000D03*
D20*
X148040000Y-94000000D03*
%TD*%
D18*
%TO.C,REF\u002A\u002A*%
X176500000Y-88500000D03*
D17*
X174100000Y-88500000D03*
X176500000Y-86100000D03*
X178197056Y-90197056D03*
D18*
X176500000Y-88500000D03*
D17*
X178900000Y-88500000D03*
X178197056Y-86802944D03*
X174802944Y-90197056D03*
X174802944Y-86802944D03*
X176500000Y-90900000D03*
%TD*%
D21*
%TO.C,J4*%
X128410000Y-100000000D03*
D22*
X130950000Y-100000000D03*
X133490000Y-100000000D03*
X136030000Y-100000000D03*
X138570000Y-100000000D03*
X141110000Y-100000000D03*
%TD*%
D23*
%TO.C,U3*%
X160160000Y-128650000D03*
X160160000Y-126110000D03*
X160160000Y-123570000D03*
X160160000Y-121030000D03*
X160160000Y-118490000D03*
X160160000Y-115950000D03*
D24*
X156350000Y-108076000D03*
X153810000Y-108076000D03*
X151270000Y-108076000D03*
X148730000Y-108076000D03*
X146190000Y-108076000D03*
X143650000Y-108076000D03*
D23*
X139840000Y-115950000D03*
X139840000Y-118490000D03*
X139840000Y-121030000D03*
X139840000Y-123570000D03*
X139840000Y-126110000D03*
X139840000Y-128650000D03*
%TD*%
D25*
%TO.C,D1*%
X162500000Y-110937500D03*
X162500000Y-109062500D03*
%TD*%
D21*
%TO.C,J5*%
X158890000Y-100000000D03*
D22*
X161430000Y-100000000D03*
X163970000Y-100000000D03*
X166510000Y-100000000D03*
X169050000Y-100000000D03*
X171590000Y-100000000D03*
%TD*%
D19*
%TO.C,J11*%
X168500000Y-94000000D03*
D20*
X164540000Y-94000000D03*
%TD*%
D18*
%TO.C,REF\u002A\u002A*%
X123500000Y-131500000D03*
D17*
X121802944Y-133197056D03*
X121802944Y-129802944D03*
X123500000Y-133900000D03*
X125900000Y-131500000D03*
X121100000Y-131500000D03*
X125197056Y-129802944D03*
X123500000Y-129100000D03*
X125197056Y-133197056D03*
D18*
X123500000Y-131500000D03*
%TD*%
D26*
%TO.C,J3*%
X152500000Y-90000000D03*
D27*
X147500000Y-90000000D03*
%TD*%
D28*
%TO.C,U2*%
X174800000Y-110500000D03*
X174800000Y-109500000D03*
X174800000Y-108500000D03*
X174800000Y-107500000D03*
X174800000Y-106500000D03*
X174800000Y-105500000D03*
X165200000Y-105500000D03*
X165200000Y-106500000D03*
X165200000Y-107500000D03*
X165200000Y-108500000D03*
X165200000Y-109500000D03*
X165200000Y-110500000D03*
D29*
X170000000Y-108000000D03*
%TD*%
D26*
%TO.C,J2*%
X169000000Y-90000000D03*
D27*
X164000000Y-90000000D03*
%TD*%
D30*
%TO.C,R1*%
X162500000Y-114412500D03*
X162500000Y-112587500D03*
%TD*%
D19*
%TO.C,J10*%
X135500000Y-94000000D03*
D20*
X131540000Y-94000000D03*
%TD*%
D17*
%TO.C,REF\u002A\u002A*%
X125197056Y-86802944D03*
D18*
X123500000Y-88500000D03*
D17*
X123500000Y-90900000D03*
X121100000Y-88500000D03*
X125900000Y-88500000D03*
X123500000Y-86100000D03*
X121802944Y-86802944D03*
X121802944Y-90197056D03*
X125197056Y-90197056D03*
D18*
X123500000Y-88500000D03*
%TD*%
D31*
%TO.C,C2*%
X138316000Y-110174000D03*
X138316000Y-112074000D03*
%TD*%
%TO.C,C3*%
X178448000Y-109600000D03*
X178448000Y-111500000D03*
%TD*%
D32*
%TO.C,Q1*%
X143845000Y-103475000D03*
X145115000Y-103475000D03*
X146385000Y-103475000D03*
X147655000Y-103475000D03*
X147655000Y-98525000D03*
X146385000Y-98525000D03*
X145115000Y-98525000D03*
X143845000Y-98525000D03*
%TD*%
D26*
%TO.C,J1*%
X136000000Y-90000000D03*
D27*
X131000000Y-90000000D03*
%TD*%
D33*
%TO.C,C1*%
X152750000Y-102616651D03*
D34*
X152750000Y-99116651D03*
%TD*%
D13*
%TO.C,J6*%
X165500000Y-130000000D03*
X166500000Y-130000000D03*
X167500000Y-130000000D03*
X168500000Y-130000000D03*
D14*
X164200000Y-133875000D03*
X169800000Y-133875000D03*
%TD*%
D28*
%TO.C,U1*%
X134800000Y-110500000D03*
X134800000Y-109500000D03*
X134800000Y-108500000D03*
X134800000Y-107500000D03*
X134800000Y-106500000D03*
X134800000Y-105500000D03*
X125200000Y-105500000D03*
X125200000Y-106500000D03*
X125200000Y-107500000D03*
X125200000Y-108500000D03*
X125200000Y-109500000D03*
X125200000Y-110500000D03*
D29*
X130000000Y-108000000D03*
%TD*%
D35*
%TO.C,J8*%
X122450000Y-101000000D03*
D16*
X122450000Y-99000000D03*
X122450000Y-97000000D03*
X122450000Y-95000000D03*
%TD*%
M02*
