M48
; DRILL file {KiCad (6.0.1)} date Sat Feb 12 08:59:07 2022
; FORMAT={-:-/ absolute / metric / decimal}
; #@! TF.CreationDate,2022-02-12T08:59:07-05:00
; #@! TF.GenerationSoftware,Kicad,Pcbnew,(6.0.1)
; #@! TF.FileFunction,MixedPlating,1,4
FMAT,2
METRIC
; #@! TA.AperFunction,Plated,PTH,ComponentDrill
T1C0.300
; #@! TA.AperFunction,Plated,PTH,ComponentDrill
T2C0.350
; #@! TA.AperFunction,Plated,PTH,ViaDrill
T3C0.400
; #@! TA.AperFunction,Plated,PTH,ComponentDrill
T4C0.500
; #@! TA.AperFunction,Plated,PTH,ComponentDrill
T5C0.550
; #@! TA.AperFunction,Plated,PTH,ComponentDrill
T6C0.750
; #@! TA.AperFunction,Plated,PTH,ComponentDrill
T7C0.800
; #@! TA.AperFunction,Plated,PTH,ComponentDrill
T8C1.000
; #@! TA.AperFunction,Plated,PTH,ComponentDrill
T9C1.300
; #@! TA.AperFunction,Plated,PTH,ComponentDrill
T10C1.600
; #@! TA.AperFunction,Plated,PTH,ComponentDrill
T11C1.800
; #@! TA.AperFunction,Plated,PTH,ComponentDrill
T12C3.200
%
G90
G05
T1
X128.15Y-104.35
X128.15Y-105.81
X128.15Y-107.27
X128.15Y-108.73
X128.15Y-110.19
X128.15Y-111.65
X130.0Y-104.35
X130.0Y-105.81
X130.0Y-107.27
X130.0Y-108.73
X130.0Y-110.19
X130.0Y-111.65
X131.85Y-104.35
X131.85Y-105.81
X131.85Y-107.27
X131.85Y-108.73
X131.85Y-110.19
X131.85Y-111.65
X168.15Y-104.35
X168.15Y-105.81
X168.15Y-107.27
X168.15Y-108.73
X168.15Y-110.19
X168.15Y-111.65
X170.0Y-104.35
X170.0Y-105.81
X170.0Y-107.27
X170.0Y-108.73
X170.0Y-110.19
X170.0Y-111.65
X171.85Y-104.35
X171.85Y-105.81
X171.85Y-107.27
X171.85Y-108.73
X171.85Y-110.19
X171.85Y-111.65
T2
X148.471Y-117.469
X148.471Y-118.744
X148.471Y-120.019
X149.746Y-117.469
X149.746Y-118.744
X149.746Y-120.019
X151.021Y-117.469
X151.021Y-118.744
X151.021Y-120.019
T3
X124.6Y-114.68
X124.6Y-117.22
X124.6Y-119.76
X124.6Y-122.3
X124.6Y-124.84
X125.2Y-111.4
X126.6Y-109.6
X127.14Y-114.68
X127.14Y-117.22
X127.14Y-119.76
X127.14Y-122.3
X127.14Y-124.84
X129.68Y-114.68
X129.68Y-117.22
X129.68Y-119.76
X129.68Y-122.3
X129.68Y-124.84
X132.22Y-114.68
X132.22Y-117.22
X132.22Y-119.76
X132.22Y-122.3
X132.22Y-124.84
X133.236Y-108.457
X134.76Y-114.68
X134.76Y-117.22
X134.76Y-119.76
X134.76Y-122.3
X134.76Y-124.84
X136.157Y-127.888
X136.157Y-129.158
X136.411Y-109.6
X136.538Y-117.601
X137.0Y-107.6
X137.046Y-108.584
X137.554Y-112.394
X138.57Y-107.568
X138.57Y-108.584
X138.697Y-130.428
X139.967Y-119.695
X141.364Y-116.204
X141.364Y-125.221
X142.253Y-108.965
X142.441Y-129.92
X142.507Y-120.395
X142.507Y-121.538
X142.634Y-117.728
X143.402Y-116.266
X143.805Y-124.487
X144.666Y-106.48
X144.793Y-122.554
X144.92Y-115.442
X145.285Y-117.744
X145.682Y-106.48
X145.987Y-114.985
X146.063Y-122.554
X146.952Y-106.48
X147.565Y-121.052
X147.968Y-106.48
X147.968Y-114.045
X149.746Y-108.838
X149.873Y-116.458
X150.194Y-124.138
X152.032Y-120.776
X153.695Y-115.328
X154.318Y-109.092
X154.547Y-114.849
X155.258Y-114.179
X155.461Y-116.585
X156.223Y-121.623
X156.985Y-116.331
X157.112Y-113.41
X157.112Y-128.015
X157.239Y-121.284
X158.001Y-116.204
X158.372Y-118.439
X158.509Y-120.141
X158.509Y-121.245
X159.017Y-112.14
X160.287Y-119.379
X160.287Y-123.951
X160.541Y-115.315
X162.319Y-118.744
X165.24Y-114.68
X165.24Y-117.22
X165.24Y-119.76
X165.24Y-122.3
X167.78Y-114.68
X167.78Y-117.22
X167.78Y-119.76
X167.78Y-122.3
X167.78Y-124.84
X170.32Y-114.68
X170.32Y-117.22
X170.32Y-119.76
X170.32Y-122.3
X170.32Y-124.84
X172.86Y-114.68
X172.86Y-117.22
X172.86Y-119.76
X172.86Y-122.3
X172.86Y-124.84
X173.0Y-108.4
X173.75Y-111.5
X175.4Y-114.68
X175.4Y-117.22
X175.4Y-119.76
X175.4Y-122.3
X175.4Y-124.84
X176.8Y-107.4
X176.8Y-108.6
X177.0Y-110.0
X177.0Y-111.6
X178.8Y-107.4
X178.8Y-108.6
T4
X121.1Y-88.5
X121.1Y-131.5
X121.803Y-86.803
X121.803Y-90.197
X121.803Y-129.803
X121.803Y-133.197
X123.5Y-86.1
X123.5Y-90.9
X123.5Y-129.1
X123.5Y-133.9
X125.197Y-86.803
X125.197Y-90.197
X125.197Y-129.803
X125.197Y-133.197
X125.9Y-88.5
X125.9Y-131.5
X174.1Y-88.5
X174.1Y-131.5
X174.803Y-86.803
X174.803Y-90.197
X174.803Y-129.803
X174.803Y-133.197
X176.5Y-86.1
X176.5Y-90.9
X176.5Y-129.1
X176.5Y-133.9
X178.197Y-86.803
X178.197Y-90.197
X178.197Y-129.803
X178.197Y-133.197
X178.9Y-88.5
X178.9Y-131.5
T6
X122.45Y-95.0
X122.45Y-97.0
X122.45Y-99.0
X122.45Y-101.0
X177.35Y-94.5
X177.35Y-96.5
X177.35Y-98.5
X177.35Y-100.5
T7
X153.556Y-103.181
X153.556Y-106.681
T8
X128.41Y-100.0
X130.95Y-100.0
X133.49Y-100.0
X136.03Y-100.0
X138.57Y-100.0
X141.11Y-100.0
X158.89Y-100.0
X160.287Y-133.095
X161.43Y-100.0
X163.97Y-100.0
X166.51Y-100.0
X169.05Y-100.0
X171.59Y-100.0
T9
X131.0Y-93.0
X136.0Y-93.0
X147.5Y-93.0
X152.5Y-93.0
X164.0Y-93.0
X169.0Y-93.0
T10
X131.75Y-90.0
X135.71Y-90.0
X164.5Y-90.0
X168.46Y-90.0
T11
X147.5Y-90.0
X152.5Y-90.0
T12
X123.5Y-88.5
X123.5Y-88.5
X123.5Y-131.5
X123.5Y-131.5
X176.5Y-88.5
X176.5Y-88.5
X176.5Y-131.5
X176.5Y-131.5
T4
G00X146.5Y-133.308
M15
G01X146.5Y-133.958
M16
G05
G00X153.5Y-133.308
M15
G01X153.5Y-133.958
M16
G05
T5
G00X147.35Y-130.933
M15
G01X147.65Y-130.933
M16
G05
G00X152.35Y-130.933
M15
G01X152.65Y-130.933
M16
G05
T0
M30
