%TF.GenerationSoftware,KiCad,Pcbnew,(6.0.0-rc1-48-g8f87638de5)*%
%TF.CreationDate,2021-11-22T15:04:28-05:00*%
%TF.ProjectId,motor_driver2,6d6f746f-725f-4647-9269-766572322e6b,rev?*%
%TF.SameCoordinates,Original*%
%TF.FileFunction,Soldermask,Bot*%
%TF.FilePolarity,Negative*%
%FSLAX46Y46*%
G04 Gerber Fmt 4.6, Leading zero omitted, Abs format (unit mm)*
G04 Created by KiCad (PCBNEW (6.0.0-rc1-48-g8f87638de5)) date 2021-11-22 15:04:28*
%MOMM*%
%LPD*%
G01*
G04 APERTURE LIST*
G04 Aperture macros list*
%AMRoundRect*
0 Rectangle with rounded corners*
0 $1 Rounding radius*
0 $2 $3 $4 $5 $6 $7 $8 $9 X,Y pos of 4 corners*
0 Add a 4 corners polygon primitive as box body*
4,1,4,$2,$3,$4,$5,$6,$7,$8,$9,$2,$3,0*
0 Add four circle primitives for the rounded corners*
1,1,$1+$1,$2,$3*
1,1,$1+$1,$4,$5*
1,1,$1+$1,$6,$7*
1,1,$1+$1,$8,$9*
0 Add four rect primitives between the rounded corners*
20,1,$1+$1,$2,$3,$4,$5,0*
20,1,$1+$1,$4,$5,$6,$7,0*
20,1,$1+$1,$6,$7,$8,$9,0*
20,1,$1+$1,$8,$9,$2,$3,0*%
%AMFreePoly0*
4,1,6,1.000000,0.000000,0.500000,-0.750000,-0.500000,-0.750000,-0.500000,0.750000,0.500000,0.750000,1.000000,0.000000,1.000000,0.000000,$1*%
%AMFreePoly1*
4,1,6,0.500000,-0.750000,-0.650000,-0.750000,-0.150000,0.000000,-0.650000,0.750000,0.500000,0.750000,0.500000,-0.750000,0.500000,-0.750000,$1*%
G04 Aperture macros list end*
%ADD10RoundRect,0.250000X-0.625000X0.350000X-0.625000X-0.350000X0.625000X-0.350000X0.625000X0.350000X0*%
%ADD11O,1.750000X1.200000*%
%ADD12C,0.800000*%
%ADD13C,6.400000*%
%ADD14RoundRect,0.250001X1.099999X1.099999X-1.099999X1.099999X-1.099999X-1.099999X1.099999X-1.099999X0*%
%ADD15C,2.700000*%
%ADD16R,1.700000X1.700000*%
%ADD17O,1.700000X1.700000*%
%ADD18R,2.600000X2.600000*%
%ADD19C,2.600000*%
%ADD20R,1.600000X1.600000*%
%ADD21C,1.600000*%
%ADD22RoundRect,0.250000X0.625000X-0.350000X0.625000X0.350000X-0.625000X0.350000X-0.625000X-0.350000X0*%
%ADD23FreePoly0,180.000000*%
%ADD24FreePoly1,180.000000*%
G04 APERTURE END LIST*
D10*
%TO.C,J9*%
X177350000Y-94500000D03*
D11*
X177350000Y-96500000D03*
X177350000Y-98500000D03*
X177350000Y-100500000D03*
%TD*%
D12*
%TO.C,REF\u002A\u002A*%
X178197056Y-133197056D03*
X178197056Y-129802944D03*
X174100000Y-131500000D03*
D13*
X176500000Y-131500000D03*
X176500000Y-131500000D03*
D12*
X174802944Y-133197056D03*
X174802944Y-129802944D03*
X176500000Y-129100000D03*
X176500000Y-133900000D03*
X178900000Y-131500000D03*
%TD*%
D14*
%TO.C,J12*%
X152000000Y-94000000D03*
D15*
X148040000Y-94000000D03*
%TD*%
D13*
%TO.C,REF\u002A\u002A*%
X176500000Y-88500000D03*
D12*
X174100000Y-88500000D03*
X176500000Y-86100000D03*
X178197056Y-90197056D03*
D13*
X176500000Y-88500000D03*
D12*
X178900000Y-88500000D03*
X178197056Y-86802944D03*
X174802944Y-90197056D03*
X174802944Y-86802944D03*
X176500000Y-90900000D03*
%TD*%
D16*
%TO.C,J4*%
X128410000Y-100000000D03*
D17*
X130950000Y-100000000D03*
X133490000Y-100000000D03*
X136030000Y-100000000D03*
X138570000Y-100000000D03*
X141110000Y-100000000D03*
%TD*%
D16*
%TO.C,J5*%
X158890000Y-100000000D03*
D17*
X161430000Y-100000000D03*
X163970000Y-100000000D03*
X166510000Y-100000000D03*
X169050000Y-100000000D03*
X171590000Y-100000000D03*
%TD*%
D14*
%TO.C,J11*%
X168500000Y-94000000D03*
D15*
X164540000Y-94000000D03*
%TD*%
D13*
%TO.C,REF\u002A\u002A*%
X123500000Y-131500000D03*
D12*
X121802944Y-133197056D03*
X121802944Y-129802944D03*
X123500000Y-133900000D03*
X125900000Y-131500000D03*
X121100000Y-131500000D03*
X125197056Y-129802944D03*
X123500000Y-129100000D03*
X125197056Y-133197056D03*
D13*
X123500000Y-131500000D03*
%TD*%
D18*
%TO.C,J3*%
X152500000Y-90000000D03*
D19*
X147500000Y-90000000D03*
%TD*%
D18*
%TO.C,J2*%
X169000000Y-90000000D03*
D19*
X164000000Y-90000000D03*
%TD*%
D14*
%TO.C,J10*%
X135500000Y-94000000D03*
D15*
X131540000Y-94000000D03*
%TD*%
D12*
%TO.C,REF\u002A\u002A*%
X125197056Y-86802944D03*
D13*
X123500000Y-88500000D03*
D12*
X123500000Y-90900000D03*
X121100000Y-88500000D03*
X125900000Y-88500000D03*
X123500000Y-86100000D03*
X121802944Y-86802944D03*
X121802944Y-90197056D03*
X125197056Y-90197056D03*
D13*
X123500000Y-88500000D03*
%TD*%
D18*
%TO.C,J1*%
X136000000Y-90000000D03*
D19*
X131000000Y-90000000D03*
%TD*%
D20*
%TO.C,C1*%
X152750000Y-102616651D03*
D21*
X152750000Y-99116651D03*
%TD*%
D22*
%TO.C,J8*%
X122450000Y-101000000D03*
D11*
X122450000Y-99000000D03*
X122450000Y-97000000D03*
X122450000Y-95000000D03*
%TD*%
D23*
%TO.C,JP1*%
X150450000Y-116400000D03*
D24*
X149000000Y-116400000D03*
%TD*%
D23*
%TO.C,JP2*%
X150325000Y-120000000D03*
D24*
X148875000Y-120000000D03*
%TD*%
M02*
