M48
; DRILL file {KiCad (6.0.0-rc1-48-g8f87638de5)} date Mon Nov 22 15:05:03 2021
; FORMAT={-:-/ absolute / metric / decimal}
; #@! TF.CreationDate,2021-11-22T15:05:03-05:00
; #@! TF.GenerationSoftware,Kicad,Pcbnew,(6.0.0-rc1-48-g8f87638de5)
; #@! TF.FileFunction,MixedPlating,1,4
FMAT,2
METRIC
; #@! TA.AperFunction,Plated,PTH,ComponentDrill
T1C0.300
; #@! TA.AperFunction,Plated,PTH,ViaDrill
T2C0.400
; #@! TA.AperFunction,Plated,PTH,ComponentDrill
T3C0.500
; #@! TA.AperFunction,Plated,PTH,ComponentDrill
T4C0.750
; #@! TA.AperFunction,Plated,PTH,ComponentDrill
T5C0.800
; #@! TA.AperFunction,Plated,PTH,ComponentDrill
T6C1.000
; #@! TA.AperFunction,Plated,PTH,ComponentDrill
T7C1.300
; #@! TA.AperFunction,Plated,PTH,ComponentDrill
T8C1.700
; #@! TA.AperFunction,Plated,PTH,ComponentDrill
T9C3.200
%
G90
G05
T1
X128.15Y-104.35
X128.15Y-105.81
X128.15Y-107.27
X128.15Y-108.73
X128.15Y-110.19
X128.15Y-111.65
X130.0Y-104.35
X130.0Y-105.81
X130.0Y-107.27
X130.0Y-108.73
X130.0Y-110.19
X130.0Y-111.65
X131.85Y-104.35
X131.85Y-105.81
X131.85Y-107.27
X131.85Y-108.73
X131.85Y-110.19
X131.85Y-111.65
X168.15Y-104.35
X168.15Y-105.81
X168.15Y-107.27
X168.15Y-108.73
X168.15Y-110.19
X168.15Y-111.65
X170.0Y-104.35
X170.0Y-105.81
X170.0Y-107.27
X170.0Y-108.73
X170.0Y-110.19
X170.0Y-111.65
X171.85Y-104.35
X171.85Y-105.81
X171.85Y-107.27
X171.85Y-108.73
X171.85Y-110.19
X171.85Y-111.65
T2
X125.2Y-111.4
X126.6Y-109.6
X132.5Y-131.5
X133.4Y-108.4
X136.792Y-110.108
X137.0Y-107.6
X137.046Y-108.584
X138.57Y-107.568
X138.57Y-108.584
X138.6Y-113.4
X142.0Y-123.5
X142.126Y-121.03
X142.126Y-126.11
X142.45Y-115.95
X142.5Y-105.5
X143.6Y-110.5
X144.0Y-105.5
X145.5Y-105.5
X146.2Y-110.5
X147.0Y-105.5
X148.5Y-105.5
X148.6Y-110.5
X150.0Y-130.5
X150.0Y-132.0
X150.0Y-133.5
X151.4Y-110.5
X153.8Y-110.5
X156.4Y-110.6
X157.6Y-116.0
X157.6Y-118.4
X158.128Y-123.57
X160.0Y-107.0
X160.0Y-108.0
X161.0Y-107.0
X161.0Y-108.0
X162.0Y-107.0
X162.0Y-108.0
X162.5Y-115.5
X162.5Y-117.0
X163.5Y-115.5
X163.5Y-117.0
X166.5Y-131.25
X173.0Y-108.4
X173.75Y-111.5
X176.8Y-107.4
X176.8Y-108.6
X177.0Y-110.0
X177.0Y-111.6
X178.8Y-107.4
X178.8Y-108.6
T3
X121.1Y-88.5
X121.1Y-131.5
X121.803Y-86.803
X121.803Y-90.197
X121.803Y-129.803
X121.803Y-133.197
X123.5Y-86.1
X123.5Y-90.9
X123.5Y-129.1
X123.5Y-133.9
X125.197Y-86.803
X125.197Y-90.197
X125.197Y-129.803
X125.197Y-133.197
X125.9Y-88.5
X125.9Y-131.5
X174.1Y-88.5
X174.1Y-131.5
X174.803Y-86.803
X174.803Y-90.197
X174.803Y-129.803
X174.803Y-133.197
X176.5Y-86.1
X176.5Y-90.9
X176.5Y-129.1
X176.5Y-133.9
X178.197Y-86.803
X178.197Y-90.197
X178.197Y-129.803
X178.197Y-133.197
X178.9Y-88.5
X178.9Y-131.5
T4
X122.45Y-95.0
X122.45Y-97.0
X122.45Y-99.0
X122.45Y-101.0
X177.35Y-94.5
X177.35Y-96.5
X177.35Y-98.5
X177.35Y-100.5
T5
X152.75Y-99.117
X152.75Y-102.617
T6
X128.41Y-100.0
X130.95Y-100.0
X133.49Y-100.0
X136.03Y-100.0
X138.57Y-100.0
X141.11Y-100.0
X158.89Y-100.0
X161.43Y-100.0
X163.97Y-100.0
X166.51Y-100.0
X169.05Y-100.0
X171.59Y-100.0
T7
X131.0Y-90.0
X136.0Y-90.0
X147.5Y-90.0
X152.5Y-90.0
X164.0Y-90.0
X169.0Y-90.0
T8
X131.54Y-94.0
X135.5Y-94.0
X148.04Y-94.0
X152.0Y-94.0
X164.54Y-94.0
X168.5Y-94.0
T9
X123.5Y-88.5
X123.5Y-88.5
X123.5Y-131.5
X123.5Y-131.5
X176.5Y-88.5
X176.5Y-88.5
X176.5Y-131.5
X176.5Y-131.5
T0
M30
