%TF.GenerationSoftware,KiCad,Pcbnew,(6.0.1)*%
%TF.CreationDate,2022-02-12T08:58:57-05:00*%
%TF.ProjectId,motor-driver,6d6f746f-722d-4647-9269-7665722e6b69,rev?*%
%TF.SameCoordinates,Original*%
%TF.FileFunction,Copper,L3,Inr*%
%TF.FilePolarity,Positive*%
%FSLAX46Y46*%
G04 Gerber Fmt 4.6, Leading zero omitted, Abs format (unit mm)*
G04 Created by KiCad (PCBNEW (6.0.1)) date 2022-02-12 08:58:57*
%MOMM*%
%LPD*%
G01*
G04 APERTURE LIST*
G04 Aperture macros list*
%AMRoundRect*
0 Rectangle with rounded corners*
0 $1 Rounding radius*
0 $2 $3 $4 $5 $6 $7 $8 $9 X,Y pos of 4 corners*
0 Add a 4 corners polygon primitive as box body*
4,1,4,$2,$3,$4,$5,$6,$7,$8,$9,$2,$3,0*
0 Add four circle primitives for the rounded corners*
1,1,$1+$1,$2,$3*
1,1,$1+$1,$4,$5*
1,1,$1+$1,$6,$7*
1,1,$1+$1,$8,$9*
0 Add four rect primitives between the rounded corners*
20,1,$1+$1,$2,$3,$4,$5,0*
20,1,$1+$1,$4,$5,$6,$7,0*
20,1,$1+$1,$6,$7,$8,$9,0*
20,1,$1+$1,$8,$9,$2,$3,0*%
G04 Aperture macros list end*
%TA.AperFunction,ComponentPad*%
%ADD10RoundRect,0.250000X-0.625000X0.350000X-0.625000X-0.350000X0.625000X-0.350000X0.625000X0.350000X0*%
%TD*%
%TA.AperFunction,ComponentPad*%
%ADD11O,1.750000X1.200000*%
%TD*%
%TA.AperFunction,ComponentPad*%
%ADD12C,0.800000*%
%TD*%
%TA.AperFunction,ComponentPad*%
%ADD13C,6.400000*%
%TD*%
%TA.AperFunction,ComponentPad*%
%ADD14R,3.000000X3.000000*%
%TD*%
%TA.AperFunction,ComponentPad*%
%ADD15C,3.000000*%
%TD*%
%TA.AperFunction,ComponentPad*%
%ADD16R,1.700000X1.700000*%
%TD*%
%TA.AperFunction,ComponentPad*%
%ADD17O,1.700000X1.700000*%
%TD*%
%TA.AperFunction,ComponentPad*%
%ADD18RoundRect,0.250001X-1.099999X-1.099999X1.099999X-1.099999X1.099999X1.099999X-1.099999X1.099999X0*%
%TD*%
%TA.AperFunction,ComponentPad*%
%ADD19C,2.700000*%
%TD*%
%TA.AperFunction,ComponentPad*%
%ADD20O,1.250000X0.950000*%
%TD*%
%TA.AperFunction,ComponentPad*%
%ADD21O,0.890000X1.550000*%
%TD*%
%TA.AperFunction,ComponentPad*%
%ADD22R,2.600000X2.600000*%
%TD*%
%TA.AperFunction,ComponentPad*%
%ADD23C,2.600000*%
%TD*%
%TA.AperFunction,ComponentPad*%
%ADD24R,1.600000X1.600000*%
%TD*%
%TA.AperFunction,ComponentPad*%
%ADD25C,1.600000*%
%TD*%
%TA.AperFunction,ComponentPad*%
%ADD26RoundRect,0.250000X0.625000X-0.350000X0.625000X0.350000X-0.625000X0.350000X-0.625000X-0.350000X0*%
%TD*%
%TA.AperFunction,ComponentPad*%
%ADD27C,0.600000*%
%TD*%
%TA.AperFunction,ViaPad*%
%ADD28C,0.800000*%
%TD*%
%TA.AperFunction,Conductor*%
%ADD29C,0.203200*%
%TD*%
%TA.AperFunction,Conductor*%
%ADD30C,0.177800*%
%TD*%
%TA.AperFunction,Conductor*%
%ADD31C,0.304800*%
%TD*%
%TA.AperFunction,Conductor*%
%ADD32C,0.203000*%
%TD*%
%TA.AperFunction,Conductor*%
%ADD33C,0.250000*%
%TD*%
G04 APERTURE END LIST*
D10*
%TO.N,/ENC2_B*%
%TO.C,J9*%
X177350000Y-94500000D03*
D11*
%TO.N,/ENC2_A*%
X177350000Y-96500000D03*
%TO.N,+3V3*%
X177350000Y-98500000D03*
%TO.N,GND*%
X177350000Y-100500000D03*
%TD*%
D12*
%TO.N,GND*%
%TO.C,REF\u002A\u002A*%
X178197056Y-133197056D03*
X178197056Y-129802944D03*
X174100000Y-131500000D03*
D13*
X176500000Y-131500000D03*
X176500000Y-131500000D03*
D12*
X174802944Y-133197056D03*
X174802944Y-129802944D03*
X176500000Y-129100000D03*
X176500000Y-133900000D03*
X178900000Y-131500000D03*
%TD*%
D14*
%TO.N,GND*%
%TO.C,J12*%
X152500000Y-90000000D03*
D15*
%TO.N,VBUS*%
X147500000Y-90000000D03*
%TD*%
D13*
%TO.N,GND*%
%TO.C,REF\u002A\u002A*%
X176500000Y-88500000D03*
D12*
X174100000Y-88500000D03*
X176500000Y-86100000D03*
X178197056Y-90197056D03*
D13*
X176500000Y-88500000D03*
D12*
X178900000Y-88500000D03*
X178197056Y-86802944D03*
X174802944Y-90197056D03*
X174802944Y-86802944D03*
X176500000Y-90900000D03*
%TD*%
D16*
%TO.N,/M1B*%
%TO.C,J4*%
X128410000Y-100000000D03*
D17*
%TO.N,/ENC1_A*%
X130950000Y-100000000D03*
%TO.N,GND*%
X133490000Y-100000000D03*
%TO.N,+3V3*%
X136030000Y-100000000D03*
%TO.N,/ENC1_B*%
X138570000Y-100000000D03*
%TO.N,/M1A*%
X141110000Y-100000000D03*
%TD*%
D16*
%TO.N,/M2B*%
%TO.C,J5*%
X158890000Y-100000000D03*
D17*
%TO.N,/ENC2_A*%
X161430000Y-100000000D03*
%TO.N,GND*%
X163970000Y-100000000D03*
%TO.N,+3V3*%
X166510000Y-100000000D03*
%TO.N,/ENC2_B*%
X169050000Y-100000000D03*
%TO.N,/M2A*%
X171590000Y-100000000D03*
%TD*%
D18*
%TO.N,/M2B*%
%TO.C,J11*%
X164500000Y-90000000D03*
D19*
%TO.N,/M2A*%
X168460000Y-90000000D03*
%TD*%
D20*
%TO.N,GND*%
%TO.C,J14*%
X147500000Y-130933000D03*
X152500000Y-130933000D03*
D21*
X153500000Y-133633000D03*
X146500000Y-133633000D03*
%TD*%
D13*
%TO.N,GND*%
%TO.C,REF\u002A\u002A*%
X123500000Y-131500000D03*
D12*
X121802944Y-133197056D03*
X121802944Y-129802944D03*
X123500000Y-133900000D03*
X125900000Y-131500000D03*
X121100000Y-131500000D03*
X125197056Y-129802944D03*
X123500000Y-129100000D03*
X125197056Y-133197056D03*
D13*
X123500000Y-131500000D03*
%TD*%
D22*
%TO.N,GND*%
%TO.C,J3*%
X152500000Y-93000000D03*
D23*
%TO.N,VBUS*%
X147500000Y-93000000D03*
%TD*%
D12*
%TO.N,GND*%
%TO.C,U2*%
X170000000Y-111650000D03*
X168150000Y-108730000D03*
X171850000Y-108730000D03*
X168150000Y-107270000D03*
X170000000Y-105810000D03*
X171850000Y-110190000D03*
X168150000Y-110190000D03*
X170000000Y-107270000D03*
X168150000Y-111650000D03*
X170000000Y-108730000D03*
X170000000Y-110190000D03*
X171850000Y-104350000D03*
X168150000Y-105810000D03*
X168150000Y-104350000D03*
X171850000Y-105810000D03*
X171850000Y-111650000D03*
X170000000Y-104350000D03*
X171850000Y-107270000D03*
%TD*%
D16*
%TO.N,/~{USB_BOOT}*%
%TO.C,J13*%
X160287000Y-133095000D03*
%TD*%
D22*
%TO.N,/M2A*%
%TO.C,J2*%
X169000000Y-93000000D03*
D23*
%TO.N,/M2B*%
X164000000Y-93000000D03*
%TD*%
D18*
%TO.N,/M1B*%
%TO.C,J10*%
X131750000Y-90000000D03*
D19*
%TO.N,/M1A*%
X135710000Y-90000000D03*
%TD*%
D12*
%TO.N,GND*%
%TO.C,REF\u002A\u002A*%
X125197056Y-86802944D03*
D13*
X123500000Y-88500000D03*
D12*
X123500000Y-90900000D03*
X121100000Y-88500000D03*
X125900000Y-88500000D03*
X123500000Y-86100000D03*
X121802944Y-86802944D03*
X121802944Y-90197056D03*
X125197056Y-90197056D03*
D13*
X123500000Y-88500000D03*
%TD*%
D22*
%TO.N,/M1A*%
%TO.C,J1*%
X136000000Y-93000008D03*
D23*
%TO.N,/M1B*%
X131000000Y-93000008D03*
%TD*%
D24*
%TO.N,VCC*%
%TO.C,C1*%
X153556000Y-106680651D03*
D25*
%TO.N,GND*%
X153556000Y-103180651D03*
%TD*%
D12*
%TO.N,GND*%
%TO.C,U1*%
X128150000Y-105810000D03*
X128150000Y-111650000D03*
X128150000Y-104350000D03*
X131850000Y-107270000D03*
X130000000Y-107270000D03*
X131850000Y-110190000D03*
X131850000Y-111650000D03*
X131850000Y-105810000D03*
X128150000Y-108730000D03*
X130000000Y-110190000D03*
X131850000Y-108730000D03*
X131850000Y-104350000D03*
X128150000Y-110190000D03*
X128150000Y-107270000D03*
X130000000Y-105810000D03*
X130000000Y-108730000D03*
X130000000Y-104350000D03*
X130000000Y-111650000D03*
%TD*%
D26*
%TO.N,/ENC1_B*%
%TO.C,J8*%
X122450000Y-101000000D03*
D11*
%TO.N,/ENC1_A*%
X122450000Y-99000000D03*
%TO.N,+3V3*%
X122450000Y-97000000D03*
%TO.N,GND*%
X122450000Y-95000000D03*
%TD*%
D27*
%TO.N,GND*%
%TO.C,U5*%
X148471000Y-120019000D03*
X149746000Y-118744000D03*
X148471000Y-117469000D03*
X149746000Y-120019000D03*
X151021000Y-118744000D03*
X151021000Y-117469000D03*
X151021000Y-120019000D03*
X148471000Y-118744000D03*
X149746000Y-117469000D03*
%TD*%
D28*
%TO.N,GND*%
X129680000Y-124840000D03*
X134760000Y-119760000D03*
X127140000Y-117220000D03*
X172860000Y-122300000D03*
X124600000Y-114680000D03*
X129680000Y-114680000D03*
X124600000Y-119760000D03*
X127140000Y-124840000D03*
X167780000Y-117220000D03*
X134760000Y-124840000D03*
X175400000Y-117220000D03*
X175400000Y-119760000D03*
X172860000Y-114680000D03*
X143805000Y-124487000D03*
X132220000Y-114680000D03*
X132220000Y-122300000D03*
X170320000Y-122300000D03*
X160287000Y-119379000D03*
X142634000Y-117728000D03*
X167780000Y-119760000D03*
X172860000Y-119760000D03*
X160287000Y-123951000D03*
X170320000Y-114680000D03*
X155461000Y-116585000D03*
X165240000Y-119760000D03*
X167780000Y-122300000D03*
X127140000Y-119760000D03*
X165240000Y-122300000D03*
X167780000Y-114680000D03*
X177000000Y-111600000D03*
X175400000Y-114680000D03*
X170320000Y-119760000D03*
X124600000Y-122300000D03*
X124600000Y-117220000D03*
X124600000Y-124840000D03*
X156223000Y-121622700D03*
X172860000Y-117220000D03*
X170320000Y-117220000D03*
X127140000Y-122300000D03*
X165240000Y-117220000D03*
X127140000Y-114680000D03*
X132220000Y-124840000D03*
X175400000Y-122300000D03*
X154318000Y-109092000D03*
X137554000Y-112394000D03*
X144920000Y-115442000D03*
X129680000Y-117220000D03*
X165240000Y-114680000D03*
X170320000Y-124840000D03*
X167780000Y-124840000D03*
X132220000Y-119760000D03*
X134760000Y-114680000D03*
X134760000Y-122300000D03*
X129680000Y-119760000D03*
X142253000Y-108965000D03*
X175400000Y-124840000D03*
X129680000Y-122300000D03*
X132220000Y-117220000D03*
X134760000Y-117220000D03*
X172860000Y-124840000D03*
%TO.N,VCC*%
X146952000Y-106480000D03*
X147968000Y-106480000D03*
X144666000Y-106480000D03*
X178800000Y-107400000D03*
X137000000Y-107600000D03*
X178800000Y-108600000D03*
X137046000Y-108584000D03*
X176800000Y-107400000D03*
X176800000Y-108600000D03*
X138570000Y-107568000D03*
X138570000Y-108584000D03*
X145682000Y-106480000D03*
%TO.N,+3V3*%
X138697000Y-130428000D03*
X146063000Y-122554000D03*
X145285000Y-117744000D03*
X157112000Y-113410000D03*
X162319000Y-118744000D03*
X149873000Y-116458000D03*
X157112000Y-128015000D03*
X177000000Y-110000000D03*
X144793000Y-122554000D03*
X136411000Y-109600000D03*
X142441000Y-129920000D03*
X152032000Y-120776000D03*
%TO.N,/M1_PWM*%
X125200000Y-111400000D03*
X142507000Y-121538000D03*
%TO.N,/SDA*%
X157239000Y-121284000D03*
X136157000Y-127888000D03*
%TO.N,/SCL*%
X158509000Y-121245380D03*
X136157000Y-129158000D03*
%TO.N,/M2_DIR*%
X173750000Y-111500000D03*
X158509000Y-120141000D03*
%TO.N,/ENC1_A*%
X143402074Y-116265964D03*
%TO.N,/ENC1_B*%
X145987253Y-114985253D03*
%TO.N,/ENC2_B*%
X158001000Y-116204000D03*
%TO.N,/ENC2_A*%
X156985000Y-116331000D03*
%TO.N,/M1_FLAG*%
X136538000Y-117601000D03*
X133236000Y-108457000D03*
%TO.N,/M2_FLAG*%
X173000000Y-108400000D03*
X160541000Y-115315000D03*
%TO.N,+1V1*%
X150193964Y-124138036D03*
X147565000Y-121052000D03*
%TO.N,/RUN*%
X159017000Y-112140000D03*
X147968000Y-114045000D03*
%TO.N,/M1_ENABLE*%
X142507000Y-120395000D03*
X126600000Y-109600000D03*
%TO.N,+5V*%
X141364000Y-125221000D03*
X149746000Y-108838000D03*
X141364000Y-116204000D03*
%TO.N,Net-(D3-Pad4)*%
X139967000Y-119695500D03*
X158371817Y-118439083D03*
%TO.N,/ADDR_0*%
X153694661Y-115328138D03*
%TO.N,/ADDR_1*%
X154546620Y-114849300D03*
%TO.N,/ADDR_2*%
X155257986Y-114179167D03*
%TD*%
D29*
%TO.N,/M1_PWM*%
X132982000Y-121538000D02*
X125200000Y-113756000D01*
X142507000Y-121538000D02*
X132982000Y-121538000D01*
X125200000Y-113756000D02*
X125200000Y-111400000D01*
%TO.N,/SDA*%
X157239000Y-123189014D02*
X152540005Y-127888009D01*
X157239000Y-121284000D02*
X157239000Y-123189014D01*
X152540005Y-127888009D02*
X136157009Y-127888009D01*
D30*
X136157009Y-127888009D02*
X136157000Y-127888000D01*
D29*
%TO.N,/SCL*%
X152667005Y-128777009D02*
X136537991Y-128777009D01*
X158509000Y-121245380D02*
X158509000Y-122935014D01*
D30*
X136537991Y-128777009D02*
X136157000Y-129158000D01*
D29*
X158509000Y-122935014D02*
X152667005Y-128777009D01*
%TO.N,/M2_DIR*%
X168034000Y-120776000D02*
X159906000Y-120776000D01*
X159271000Y-120141000D02*
X158509000Y-120141000D01*
X173750000Y-115060000D02*
X168034000Y-120776000D01*
X159906000Y-120776000D02*
X159271000Y-120141000D01*
X173750000Y-111500000D02*
X173750000Y-115060000D01*
%TO.N,/ENC1_A*%
X121000000Y-99500000D02*
X121000000Y-101936000D01*
X143402074Y-116265964D02*
X143203964Y-116265964D01*
X134760000Y-109600000D02*
X134760000Y-103810000D01*
X128000000Y-103000000D02*
X130950000Y-100050000D01*
X121000000Y-101936000D02*
X122064000Y-103000000D01*
X134760000Y-103810000D02*
X130950000Y-100000000D01*
X138062000Y-111124000D02*
X136284000Y-111124000D01*
D30*
X122450000Y-99000000D02*
X121500000Y-99000000D01*
D29*
X136284000Y-111124000D02*
X134760000Y-109600000D01*
X143203964Y-116265964D02*
X138062000Y-111124000D01*
X122064000Y-103000000D02*
X128000000Y-103000000D01*
X121500000Y-99000000D02*
X121000000Y-99500000D01*
%TO.N,/ENC1_B*%
X145987253Y-109651253D02*
X145987253Y-114985253D01*
X123802000Y-101000000D02*
X126251000Y-98551000D01*
X138570000Y-102234000D02*
X145987253Y-109651253D01*
X126251000Y-98551000D02*
X138062000Y-98551000D01*
X138570000Y-99059000D02*
X138570000Y-100000000D01*
X138062000Y-98551000D02*
X138570000Y-99059000D01*
X138570000Y-100000000D02*
X138570000Y-102234000D01*
X122450000Y-101000000D02*
X123802000Y-101000000D01*
D30*
%TO.N,/ENC2_B*%
X179000000Y-95000000D02*
X178500000Y-94500000D01*
D29*
X178377000Y-103123000D02*
X179000000Y-102500000D01*
X166637000Y-107568000D02*
X166637000Y-103885000D01*
X169050000Y-100000000D02*
X169050000Y-103123000D01*
X158001000Y-116204000D02*
X166637000Y-107568000D01*
X167399000Y-103123000D02*
X169050000Y-103123000D01*
X169050000Y-103123000D02*
X178377000Y-103123000D01*
X166637000Y-103885000D02*
X167399000Y-103123000D01*
X179000000Y-102500000D02*
X179000000Y-95000000D01*
D30*
X178500000Y-94500000D02*
X177350000Y-94500000D01*
D29*
%TO.N,/ENC2_A*%
X163335000Y-101905000D02*
X161430000Y-100000000D01*
X156985000Y-116331000D02*
X156985000Y-115569000D01*
X163335000Y-109219000D02*
X163335000Y-101905000D01*
X156985000Y-115569000D02*
X163335000Y-109219000D01*
X161430000Y-98570000D02*
X161430000Y-100000000D01*
X161430000Y-98570000D02*
X163500000Y-96500000D01*
X177350000Y-96500000D02*
X163500000Y-96500000D01*
D30*
%TO.N,/M1_FLAG*%
X133236000Y-110870000D02*
X136538000Y-114172000D01*
X133236000Y-108457000D02*
X133236000Y-110870000D01*
X136538000Y-114172000D02*
X136538000Y-117601000D01*
D29*
%TO.N,/M2_FLAG*%
X160541000Y-115315000D02*
X162446000Y-113410000D01*
X162446000Y-113410000D02*
X172098000Y-113410000D01*
X173000000Y-112508000D02*
X173000000Y-108400000D01*
X172098000Y-113410000D02*
X173000000Y-112508000D01*
D31*
%TO.N,+1V1*%
X150193959Y-122493959D02*
X148752006Y-121052006D01*
X150193959Y-124138030D02*
X150193959Y-122493959D01*
X148752006Y-121052006D02*
X147565008Y-121052006D01*
D29*
%TO.N,/RUN*%
X149873000Y-112140000D02*
X159017000Y-112140000D01*
X147968000Y-114045000D02*
X149873000Y-112140000D01*
%TO.N,/M1_ENABLE*%
X134279000Y-120649000D02*
X126600000Y-112970000D01*
D30*
X142507000Y-120395000D02*
X142253000Y-120649000D01*
D29*
X126600000Y-112970000D02*
X126600000Y-109600000D01*
X142253000Y-120649000D02*
X134279000Y-120649000D01*
D32*
%TO.N,+5V*%
X146952000Y-116015610D02*
X146001610Y-116966000D01*
X149746000Y-108838000D02*
X149746000Y-109854000D01*
D29*
X141364000Y-116204000D02*
X142126000Y-116204000D01*
X142126000Y-116204000D02*
X142888000Y-116966000D01*
X142888000Y-116966000D02*
X145936000Y-116966000D01*
D32*
X146952000Y-112648000D02*
X146952000Y-116015610D01*
X146001610Y-116966000D02*
X145936000Y-116966000D01*
X149746000Y-109854000D02*
X146952000Y-112648000D01*
D29*
%TO.N,Net-(D3-Pad4)*%
X148857000Y-115569000D02*
X151143000Y-115569000D01*
X151143000Y-115569000D02*
X154064000Y-118490000D01*
X154064000Y-118490000D02*
X158320900Y-118490000D01*
D33*
X158320900Y-118490000D02*
X158371817Y-118439083D01*
X139967000Y-119695500D02*
X139992011Y-119670489D01*
D29*
X139992011Y-119670489D02*
X144755511Y-119670489D01*
X144755511Y-119670489D02*
X148857000Y-115569000D01*
%TD*%
M02*
